<?xml version="1.0" encoding="UTF-8"?>
<svg width="830px" height="466px" viewBox="0 0 830 466" version="1.1" xmlns="http://www.w3.org/2000/svg" xmlns:xlink="http://www.w3.org/1999/xlink">
    <title>Artboard Copy 7</title>
    <defs>
        <linearGradient x1="10.3453278%" y1="0%" x2="89.6546722%" y2="96.8408138%" id="linearGradient-1">
            <stop stop-color="#FFDF63" offset="0%"></stop>
            <stop stop-color="#ED6430" offset="49.0028541%"></stop>
            <stop stop-color="#C63663" offset="100%"></stop>
        </linearGradient>
        <linearGradient x1="74.7811198%" y1="12.5608719%" x2="31.9845774%" y2="77.2203757%" id="linearGradient-2">
            <stop stop-color="#653A96" offset="0%"></stop>
            <stop stop-color="#6D3A94" offset="16%"></stop>
            <stop stop-color="#83398F" offset="40%"></stop>
            <stop stop-color="#A73887" offset="70%"></stop>
            <stop stop-color="#D2377D" offset="100%"></stop>
        </linearGradient>
    </defs>
    <g id="Artboard-Copy-7" stroke="none" stroke-width="1" fill="none" fill-rule="evenodd">
        <rect id="Rectangle" fill="url(#linearGradient-1)" x="0" y="0" width="415" height="466"></rect>
        <rect id="Rectangle" fill="url(#linearGradient-2)" transform="translate(622.500000, 233.000000) scale(-1, 1) translate(-622.500000, -233.000000) " x="415" y="0" width="415" height="466"></rect>
        <g id="KLOVE-logo-2013-tag-CMYK" transform="translate(79.000000, 204.000000)" fill="#FFFFFF">
            <polyline id="Fill-23" points="185.053943 58 195.061411 58 218 1 203.128099 1.00604397 190.140314 34.519852 177.161973 1.02686208 162 1.02686208 185.053943 58"></polyline>
            <polyline id="Fill-24" points="220 58 258 58 258 44.7590012 233.740045 44.7590012 233.740045 36.1614911 257.429893 36.1614911 257.429893 22.8385089 233.740045 22.8385089 233.740045 14.2409988 257.917792 14.2409988 257.917792 1 220 1 220 58"></polyline>
            <polygon id="Fill-25" points="0 58 13 58 13 1 0 1"></polygon>
            <polyline id="Fill-26" points="31.8659883 29.3393931 31.9281406 29.2580816 53.093997 1 36.1164019 1 15 29.7358704 37.2525187 58 55 58 31.8659883 29.3393931"></polyline>
            <path d="M136.528186,0 C121.660209,0 109.381072,11.0254467 107.36431,25.3503664 C108.447149,25.4839101 113.446266,26.0160614 120.776149,25.5729392 C122.53214,18.49445 128.912601,13.2437555 136.528186,13.2437555 C145.497488,13.2437555 152.768747,20.5218858 152.768747,29.5003372 C152.768747,38.4781142 145.497488,45.7562445 136.528186,45.7562445 C129.064212,45.7562445 122.780108,40.7146336 120.879918,33.8492747 C132.74802,31.3503892 140.520607,25.4886313 143.736779,21.6651005 C143.736779,21.6651005 135.429175,26.5401191 120.935845,27.5565349 L120.935172,27.5592327 C120.902828,27.5605816 120.872506,27.5619306 120.840162,27.5632795 C120.693268,27.5733964 120.550417,27.5855368 120.402175,27.5949793 C120.402849,27.590258 120.403523,27.5862112 120.404197,27.58149 C113.029168,27.9038833 108.231525,27.4128742 107.147338,27.2840518 C107.147338,27.2860752 107.147338,27.2874241 107.146664,27.2894475 C101.687998,26.7127816 95.0326153,25.5452862 88.586793,23.5306652 C86.6603236,22.9283697 84.7870866,22.4211736 82.9616911,21.9901917 L82.9616911,0.899733644 L69.2196778,0.899733644 L69.2196778,20.1448609 C51.4704195,19.6761091 40.5207424,27.3083325 37,31.7678818 C37,31.7678818 48.3324105,25.2094036 69.2196778,27.6840084 L69.2196778,58.0962196 L107.767932,58.0962196 L107.767932,44.8322302 L82.9616911,44.8322302 L82.9616911,30.4014198 C84.2352228,30.7494427 85.5229049,31.1176995 86.844952,31.5324943 C94.1849418,33.8378088 101.556601,34.8731095 107.579261,35.0241892 C110.164058,48.6746459 122.137952,59 136.528186,59 C152.805134,59 166,45.7926655 166,29.5003372 C166,13.208009 152.805134,0 136.528186,0" id="Fill-27"></path>
        </g>
        <g id="Asset-2" transform="translate(499.000000, 177.000000)" fill="#FFFFFF">
            <path d="M142.626705,39.8363636 L146.032523,51.342165 L149.6068,39.8363636 L153.869565,39.8363636 L148.434906,55.2181818 L143.95241,55.2181818 L142.341056,50.6877725 L140.949431,45.5748821 L139.557807,50.6877725 L137.953777,55.2181818 L133.463957,55.2181818 L128,39.8363636 L132.299387,39.8363636 L135.86634,51.342165 L139.24286,39.8363636 L142.626705,39.8363636 Z M171.974388,47.9600085 C171.974388,52.4410409 168.873429,56.0727273 163.754621,56.0727273 C158.635813,56.0727273 155.594203,52.4117531 155.594203,47.9600085 C155.594203,43.5082639 158.724836,39.8399678 163.754621,39.8399678 C165.955666,39.7742791 168.086435,40.6089166 169.642818,42.1464166 C171.199201,43.6839166 172.042929,45.7876883 171.974388,47.9600085 Z M159.466692,47.9600085 C159.466692,50.3249978 160.905893,52.5362262 163.754621,52.5362262 C166.603349,52.5362262 168.04255,50.3396417 168.04255,47.9600085 C168.04255,45.5803753 166.373374,43.3471811 163.754621,43.3471811 C160.905893,43.3471811 159.466692,45.624307 159.466692,47.9600085 Z M178.926382,40.2249177 L179.208314,41.9511159 C180.393873,40.098095 181.984258,39.8374038 183.545726,39.8374038 C184.997952,39.8103225 186.408194,40.3128749 187.5,41.2465452 L185.786722,44.4664332 C185.041459,43.8017259 184.056222,43.4520823 183.046924,43.4941257 C181.051714,43.4941257 179.208314,44.5298446 179.208314,47.2917616 L179.208314,55.2181818 L175.427536,55.2181818 L175.427536,40.2249177 L178.926382,40.2249177 Z M199.280784,44.3089138 C198.244559,43.3629274 196.865062,42.8726183 195.45714,42.9498913 C193.639819,42.9498913 192.636658,43.5035671 192.636658,44.4671069 C192.636658,45.4306466 193.545318,46.0202754 195.544372,46.1425155 C198.452085,46.329471 202.15942,46.9766245 202.15942,51.0393107 C202.15942,53.7357839 199.92775,56.0727273 195.508025,56.0727273 C193.065546,56.0727273 190.623066,55.6700539 188.362319,53.3403012 L190.245063,50.643828 C191.342725,51.851848 193.879706,52.7506724 195.573449,52.8010065 C197.027306,52.8010065 198.364854,52.081947 198.364854,50.9674048 C198.364854,49.8528625 197.485271,49.4789516 195.289947,49.3567115 C192.382233,49.1409936 188.900246,48.0839762 188.900246,44.6109188 C188.900246,41.1378613 192.593042,39.8363636 195.442602,39.8363636 C197.856004,39.8363636 199.680594,40.3037523 201.461569,41.8497303 L199.280784,44.3089138 Z M208.487694,33.8545455 L208.487694,42.2062351 C209.589808,40.7239224 211.3579,39.8793964 213.210574,39.9503596 C217.478236,39.9503596 219.405797,42.8497608 219.405797,47.2695796 L219.405797,55.2181818 L215.66448,55.2181818 L215.66448,47.3049382 C215.66448,44.5540429 214.241926,43.4013542 212.229012,43.4013542 C210.024053,43.4013542 208.487694,45.2612139 208.487694,47.5170895 L208.487694,55.2181818 L204.746377,55.2181818 L204.746377,33.8545455 L208.487694,33.8545455 Z M227.166667,35.2482637 C227.166667,38.2496077 222.855072,38.2496077 222.855072,35.2482637 C222.855072,32.2469197 227.166667,32.2542401 227.166667,35.2482637 Z M223.181393,39.5745913 L223.181393,55.2181818 L226.833403,55.2181818 L226.833403,39.5745913 L223.181393,39.5745913 Z M230.615942,62.0545455 L230.615942,40.1852367 L234.10297,40.1852367 L234.351536,42.3112179 C235.501176,40.7301849 237.324241,39.8096814 239.251839,39.836953 C243.903576,39.836953 247,43.3705806 247,47.9127794 C247,52.4549783 244.208958,55.9813499 239.393877,55.9813499 C237.803054,55.9813499 235.445227,55.4806922 234.372841,53.8045773 L234.372841,62.0545455 L230.615942,62.0545455 Z M243.264406,47.9127794 C243.264406,45.4923535 241.343913,43.5302106 238.974865,43.5302106 C236.605817,43.5302106 234.685324,45.4923535 234.685324,47.9127794 C234.685324,50.3332054 236.605817,52.2953483 238.974865,52.2953483 C241.343913,52.2953483 243.264406,50.3332054 243.264406,47.9127794 L243.264406,47.9127794 Z M140.505467,80 L140.505467,72.0708612 C140.505467,69.7738999 139.200313,68.0245114 136.71536,68.0245114 C134.230407,68.0245114 132.711415,69.9516833 132.711415,72.2913126 L132.711415,80 L128.862319,80 L128.862319,64.8315219 L132.32798,64.8315219 L132.586061,66.8866978 C133.903508,65.4697061 135.774482,64.6474191 137.747685,64.6181818 C141.434559,64.6181818 144.384058,67.2849325 144.384058,72.0424158 L144.384058,80 L140.505467,80 Z M163.350953,71.8873993 C163.350953,76.3683665 160.250041,80 155.13131,80 C150.012579,80 146.971014,76.3390791 146.971014,71.8873993 C146.971014,67.4357195 150.109019,63.7674767 155.13131,63.7674767 C157.332952,63.6996177 159.464983,64.5335448 161.021835,66.0715092 C162.578687,67.6094735 163.421694,69.7144911 163.350953,71.8873993 L163.350953,71.8873993 Z M150.843446,71.8873993 C150.843446,74.2523542 152.327136,76.4635504 155.13131,76.4635504 C157.935484,76.4635504 159.419175,74.2669979 159.419175,71.8873993 C159.419175,69.5078007 157.757442,67.274639 155.13131,67.274639 C152.341973,67.274639 150.865701,69.5517318 150.865701,71.8873993 L150.843446,71.8873993 Z M179.706415,64.6181818 L183.112233,76.1239832 L186.68651,64.6181818 L190.949275,64.6181818 L185.514616,80 L181.03212,80 L179.420766,75.4767818 L178.029141,70.3567002 L176.637517,75.4767818 L175.026162,80 L170.543667,80 L165.07971,64.6181818 L169.379097,64.6181818 L172.94605,76.1239832 L176.32257,64.6181818 L179.706415,64.6181818 Z" id="Combined-Shape"></path>
            <path d="M67.7262761,6.46626781e-07 L68.3748105,0.00719672651 C72.3714596,0.114662509 76.2983189,1.0756147 79.8897546,2.82504938 C83.8242702,4.76368203 87.3758677,7.39230886 90.374376,10.5849821 C91.7708425,12.0511522 93.0768575,13.6001941 94.2852486,15.2236011 C95.5747751,16.9609897 96.7712297,18.7650026 97.8696106,20.6280979 L97.8696106,20.6280979 L97.9058895,20.6786748 C102.969167,26.0471326 107.030664,32.2715562 109.899716,39.0597444 L109.899716,39.0597444 L109.899716,39.1392223 C110.088367,39.5727381 110.269761,40.0062539 110.4439,40.4397697 C110.61804,40.8732855 110.777667,41.3140265 110.922783,41.7475423 L110.922783,41.7475423 L110.966318,41.8631465 C113.313774,48.0045665 114.318089,54.5741182 113.91217,61.1329235 C113.437666,67.3612177 111.48558,73.3884599 108.216372,78.7192142 C107.984187,79.1093784 107.73749,79.5139931 107.490793,79.8897068 C107.244096,80.2654205 106.982887,80.6483595 106.714423,81.0385237 L106.714423,81.0385237 L106.714423,81.103551 C105.768684,84.0125567 104.55419,86.8280031 103.086526,89.5137574 C101.666228,92.1301132 99.9944035,94.6031009 98.0945402,96.8979764 C90.1602102,106.543198 78.2686949,112.094721 65.7482133,111.998777 L65.7482133,111.998777 L64.8630065,111.998777 C60.5240474,111.830079 56.2324733,111.036705 52.1218333,109.643341 C47.5439904,108.144566 43.1601007,106.112209 39.0614052,103.58857 L39.0614052,103.58857 L38.9961031,103.58857 C38.0383384,103.285109 37.0950852,102.959972 36.1663437,102.605934 L36.1663437,102.605934 L36.1445763,102.605934 C35.2158348,102.251896 34.3016048,101.861732 33.3946306,101.449892 C30.1040576,99.9312847 27.0099783,98.0219977 24.179773,95.7636101 C21.3117596,93.4650857 18.7275841,90.8360006 16.4813763,87.9314248 L16.4813763,87.9314248 L15.9057878,87.3098263 C15.3367749,86.6846153 14.7871485,86.0492437 14.2538477,85.4098079 C13.5427799,84.5572269 12.8534796,83.6901953 12.1786908,82.7942626 C7.66041824,76.7941547 4.28397481,70.0207054 2.21648648,62.8091846 C0.189916164,55.7726994 -0.455531629,48.4131733 0.315468613,41.1333949 C0.912621105,34.512417 3.11628373,28.1350477 6.73684575,22.550018 C10.344346,17.1892966 15.280276,12.846534 21.0670377,9.94193365 C23.2977864,8.78984648 25.6202788,7.82319231 28.0108319,7.05182836 C30.5317169,6.23693609 33.1097338,5.60903012 35.7237403,5.17325992 L35.7237403,5.17325992 L35.7745308,5.17325992 C36.4565754,4.89869992 37.1531316,4.64581571 37.8206646,4.40738202 C38.4881976,4.16894834 39.2137769,3.93773991 39.9393562,3.72820728 C42.7849643,2.88284003 45.6978607,2.28095726 48.6463083,1.92911674 C51.6219176,1.57818997 54.6220466,1.47908988 57.6144689,1.63288095 L57.6144689,1.63288095 L57.7015384,1.63288095 L59.2470224,1.19213989 C60.7562466,0.771394039 62.2934762,0.457515517 63.8471954,0.252855676 C65.3478952,0.0560516223 66.8615216,-0.0260745927 68.3748105,0.00719672651 Z M104.653777,83.6757447 L103.405781,85.2653026 C99.8786696,89.1632881 95.8048378,92.5337237 91.3103734,95.2722922 L91.3103734,95.2722922 L91.2958618,95.3084185 C86.4131763,98.3113548 81.1789199,100.706361 75.7104176,102.439753 L75.7104176,102.439753 L75.6668828,102.439753 C71.8095834,104.465903 67.6413355,105.840521 63.3320341,106.507576 C58.6082938,107.200387 53.8000329,107.078181 49.1179349,106.146313 C48.4358903,106.023484 47.7611015,105.886204 47.1080801,105.734473 C46.4550587,105.582743 45.7947815,105.416562 45.1272485,105.243155 L45.1272485,105.243155 L43.4656718,104.903568 L44.9821326,105.748924 C48.207166,107.329295 51.5803999,108.590145 55.0531738,109.513286 C58.2360673,110.371957 61.5089015,110.856937 64.8049601,110.958339 L64.8049601,110.958339 L65.6611438,110.958339 C77.8937853,111.06275 89.5184499,105.655952 97.2891471,96.2477027 C98.6151575,94.6479243 99.8274029,92.9579219 100.917044,91.1900185 C102.023585,89.388664 103.007738,87.5155382 103.862896,85.5832142 L103.862896,85.5832142 L104.653777,83.6757447 Z M49.6113288,5.37556729 L49.5170035,5.37556729 C44.4228335,7.16145639 39.4803708,9.35047442 34.7369524,11.9216558 C30.3285014,14.3029751 26.2175073,17.1937843 22.4891732,20.5341695 C17.8439826,24.6482054 14.1610661,29.7263612 11.6998084,35.4109865 C9.11023182,41.6997858 8.02471743,48.5020831 8.52902672,55.2804603 L8.52902672,55.2804603 L8.60158465,56.3497993 C9.22215476,63.3623496 11.2477049,70.1799509 14.558591,76.3999047 C18.1238676,83.1416479 22.817977,89.2283316 28.4389237,94.3980354 C29.9118498,95.7636101 31.413799,97.0569322 32.9883062,98.285227 C34.5628134,99.5135217 36.1808553,100.669564 37.8206646,101.738903 L37.8206646,101.738903 L37.8714551,101.738903 C38.8074525,102.114616 39.7434498,102.504781 40.7084703,102.837143 C41.6734909,103.169505 42.6312556,103.487416 43.6107877,103.776427 L43.6107877,103.776427 L44.4575886,103.942844 C48.9797001,104.794635 53.5929672,105.074027 58.1876766,104.773513 C63.4762213,104.434668 68.7081258,103.491603 73.7803766,101.962886 L73.7803766,101.962886 L75.27507,101.500469 C77.1165524,100.533561 78.8909365,99.4449275 80.5863107,98.2418754 C82.3051503,97.0216345 83.9524875,95.7044852 85.5202502,94.2968817 C90.3352237,89.8589237 94.6070277,84.8702536 98.2469118,79.4345152 C101.942119,73.951916 105.302783,68.252933 108.310697,62.3684435 L108.310697,62.3684435 L108.310697,62.2456141 L108.274418,61.0462204 L108.259907,61.0245446 L108.20186,59.8179256 C107.956856,55.6048451 107.418636,51.4137651 106.591074,47.2748687 C105.765755,43.1099231 104.655448,39.0060384 103.267921,34.9919212 C102.767271,33.5468686 102.223087,32.1162664 101.657135,30.7217906 C101.100857,29.3538075 100.503464,28.0026833 99.8649537,26.668418 L99.8649537,26.668418 L99.8069074,26.5817148 C97.7543364,24.5067217 95.5602837,22.5753885 93.2404144,20.8015043 C90.8071947,18.9584508 88.260245,17.2692376 85.6145756,15.74382 C81.9041738,13.5843345 78.0212596,11.7332113 74.0053062,10.2092684 C70.0680301,8.72004193 66.0090901,7.57178589 61.8736196,6.77726836 C59.7912069,6.38710414 57.7015384,6.0619673 55.6699163,5.83075888 C53.6382941,5.59955045 51.6139278,5.44781993 49.6113288,5.37556729 L49.6113288,5.37556729 Z M57.4318182,7.75384615 C83.3555245,7.75384615 104.5,28.848053 104.5,54.7113217 C104.5,80.5745905 83.3555245,101.661538 57.4318182,101.661538 C31.5081119,101.661538 10.3636364,80.5745905 10.3636364,54.7113217 C10.3636364,28.848053 31.5081119,7.75384615 57.4318182,7.75384615 Z M47.0863127,5.26718835 L45.0546906,5.34666624 C43.530974,5.38279256 41.949211,5.45504519 40.4980523,5.59955045 C39.0468937,5.74405572 37.595735,5.93191256 36.1445763,6.17034625 L36.1445763,6.17034625 L36.0937858,6.17034625 C30.4385857,8.41846347 25.2668097,11.72183 20.8566197,15.9027758 C16.4237689,20.1342501 12.8344019,25.1622442 10.2776729,30.7217906 C7.34436102,37.098245 5.73523375,43.9991916 5.54689564,51.0103298 C5.36852336,58.2432171 6.57005168,65.4441192 9.08772281,72.2309278 C10.0983866,75.0077148 11.3108959,77.7074778 12.7156195,80.3087721 C14.04676,82.7771003 15.5779778,85.1331311 17.2940251,87.3534037 L17.2940251,87.3534037 L17.9156708,88.0086569 C21.4653117,91.6946036 25.4717644,94.9173891 29.8392919,97.598827 L29.8392919,97.598827 L32.8214229,99.4051428 L30.1295236,97.1653112 L28.9468293,96.1393238 L28.9468293,96.146549 L27.7859023,95.0916606 C22.0601425,89.8179222 17.2779541,83.6118428 13.644361,76.7394921 C10.2808116,70.3998561 8.22109007,63.4557457 7.58577358,56.313673 L7.58577358,56.313673 L7.51321564,55.2082077 C7.00853629,48.3069208 8.11360901,41.3829114 10.7420437,34.9774707 C13.2565829,29.1588517 17.0182678,23.9580536 21.7635938,19.7393906 C25.0472726,16.7907328 28.6318059,14.1923471 32.4586333,11.9866831 C36.5441309,9.63083102 40.8034426,7.58742795 45.1998064,5.87411046 L45.1998064,5.87411046 L47.0863127,5.26718835 Z M108.361488,64.247012 L107.766513,65.5547846 C104.887164,71.0037847 101.674039,76.2713089 98.1453307,81.3275342 C94.6925297,86.3318636 90.6891084,90.9364196 86.2095506,95.0555343 C85.600064,95.6046543 85.0050889,96.1248733 84.3883465,96.6306417 C83.771604,97.1364101 83.1476058,97.627728 82.509096,98.1118206 L82.509096,98.1118206 L81.1812858,99.1450333 L82.8065835,98.588688 C87.5066317,96.517777 91.9322179,93.877481 95.9831043,90.7276016 C99.7156689,87.8323082 103.001279,84.4071582 105.734891,80.5616563 L105.734891,80.5616563 L105.77117,80.4966289 C106.517429,78.1509652 107.096907,75.7558893 107.505304,73.3291678 L107.505304,73.3291678 C107.926679,70.819506 108.186004,68.2926745 108.281674,65.757092 L108.281674,65.757092 L108.361488,64.247012 Z M30.5503596,7.52147047 L28.8452482,7.95498626 C27.5682285,8.32347469 26.3347437,8.74253995 25.130282,9.23385785 C23.9258203,9.72517575 22.7503817,10.2598452 21.618478,10.8450915 C15.9586894,13.6849982 11.1322452,17.9336125 7.60754096,23.1786159 C4.07259215,28.6316245 1.91891336,34.8572115 1.33127969,41.3212518 C0.695634705,47.3146994 1.04114977,53.3711534 2.35434655,59.2543551 C3.68863397,65.2486348 5.94781292,71.0007781 9.05144384,76.3059763 L9.05144384,76.3059763 L10.80009,79.0226752 L9.5303262,76.1325699 C9.30539661,75.5473236 9.05144384,74.9476268 8.80474686,74.3407047 C8.56530568,73.7048815 8.3258645,73.1196352 8.10093491,72.4910373 C5.54291407,65.5860946 4.32891702,58.2591978 4.52382877,50.9019508 C4.71005757,43.7556798 6.34900449,36.7211479 9.34167557,30.2232475 C11.4439281,25.6838625 14.2228124,21.4867928 17.5842569,17.774119 C20.9163301,14.0939117 24.800681,10.9497853 29.0992009,8.45352942 L29.0992009,8.45352942 L30.5503596,7.52147047 Z M112.402965,51.9279382 L112.170779,53.9365614 C111.978504,55.3390257 111.662873,56.7219585 111.227526,58.0694119 C110.78569,59.4494356 110.229935,60.7906856 109.565949,62.079433 L109.565949,62.079433 L109.333764,62.5346246 L109.333764,62.6574541 C109.364694,64.8449749 109.277499,67.0325697 109.072556,69.2107678 L109.072556,69.2107678 L109.043532,69.2107678 C108.851295,71.3340015 108.538798,73.4447304 108.107535,75.5328731 L108.107535,75.5328731 L107.744745,77.4331173 L108.615441,75.749631 C110.331124,72.442007 111.553281,68.9029297 112.243337,65.2440983 C112.933523,61.5351388 113.089882,57.7472164 112.707708,53.9943635 L112.707708,53.9943635 L112.402965,51.9279382 Z M87.6298151,38.7692308 L77.7272727,38.7692308 L77.7272727,42.6603964 L83.3701849,42.6603964 L83.3701849,69.389766 L77.7272727,69.389766 L77.7272727,73.2307692 L93.2727273,73.2307692 L93.2727273,69.389766 L87.6298151,69.389766 L87.6298151,38.7692308 Z M73.6395902,48.2478213 L73.230471,48.2487359 C71.3886805,48.2305111 69.5728599,48.6714196 67.9565807,49.5293155 C67.3946191,49.8373309 66.8721962,50.2081046 66.3998318,50.6337993 L66.1225044,50.895744 L66.0635782,48.4991285 L62.1818182,48.4991285 L62.1818182,73.2307692 L66.2256251,73.2307692 L66.2256251,58.9226172 L66.230158,58.6884797 C66.3640771,55.0354125 69.438701,52.1068818 73.230471,52.0761665 C73.8745971,52.0758803 74.5159793,52.1576573 75.1382051,52.3194051 C75.6137475,52.4468666 76.0723622,52.6265331 76.5052559,52.8546752 L76.8249661,53.0348127 L77.5615429,53.4855195 L79.4545455,50.1374119 L78.7621632,49.7296296 L78.3975815,49.5219019 C77.6602629,49.1211198 76.8749703,48.8087807 76.0589261,48.5921315 C75.4016393,48.4139727 74.7275406,48.3040295 74.0479286,48.2636734 L73.6395902,48.2478213 Z M38.6530325,38.7692308 L34.7560584,38.7692308 L19.1169823,72.9799575 L19,73.2307692 L23.6061795,73.2307692 L27.2618775,65.1761281 L46.1179678,65.1761281 L49.7736658,73.2307692 L54.4090909,73.2307692 L38.8723744,39.2565222 L38.6530325,38.7692308 Z M59.5909091,48.2461538 L55.2727273,48.2461538 L55.2727273,73.2307692 L59.5909091,73.2307692 L59.5909091,48.2461538 Z M36.6789556,44.0649423 L44.3778556,61.1918038 L28.9800556,61.1918038 L36.6789556,44.0649423 Z M101.649879,28.1857233 L102.636667,30.4038791 C102.926899,31.1264054 103.202619,31.8489317 103.471083,32.571458 L103.471083,32.571458 L103.471083,32.5353317 C103.739547,33.257858 104.000756,33.9803844 104.247453,34.7029107 C105.613899,38.6444671 106.712013,42.6732518 107.534327,46.761875 C108.367463,50.8430977 108.922587,54.9757357 109.195904,59.1315256 L109.195904,59.1315256 L109.25395,60.8005614 L109.718321,59.2543551 C110.132783,58.2469101 110.481781,57.2139761 110.763155,56.1619424 C111.018923,55.1252835 111.205562,54.0729155 111.321851,53.0117277 C111.506943,51.2117012 111.492344,49.3968482 111.278317,47.6000055 C111.041806,45.7246246 110.616409,43.8776979 110.008553,42.0871297 L110.008553,42.0871297 L109.828233,41.6145439 C109.704616,41.2939563 109.575624,40.9648055 109.449857,40.642077 C109.261206,40.1579844 109.058044,39.6738918 108.854882,39.1970244 L108.854882,39.1970244 L108.635494,38.7103618 C108.192531,37.7474007 107.719868,36.8405564 107.135259,35.8806286 C106.453214,34.7607128 105.734891,33.6769233 104.958521,32.5931338 C104.661033,32.1812938 104.349034,31.7766791 104.051547,31.3865149 C103.754059,30.9963507 103.434804,30.5917359 103.101038,30.1871212 L103.101038,30.1871212 L101.649879,28.1857233 Z M55.9572255,38.9682497 C55.0158712,39.3871632 54.4090909,40.3226605 54.4090909,41.3550706 C54.4090909,42.3874807 55.0158712,43.3229781 55.9572255,43.7418915 C56.2871885,43.8726155 56.6389221,43.9393185 56.9937212,43.9384615 C57.3439713,43.939255 57.6911063,43.8725223 58.0162102,43.7418915 C58.915323,43.3556175 59.5168772,42.4988203 59.5845371,41.530775 L59.5909091,41.3480506 L59.5845371,41.1653261 C59.5253347,40.3182864 59.0573694,39.5564212 58.3389678,39.1204164 L58.1812491,39.0320622 L58.018,38.9542308 L58.0582303,38.9682497 C57.3829121,38.7028911 56.6325437,38.7028911 55.9572255,38.9682497 Z M57.8756775,2.68054412 L57.7958637,2.68054412 L55.6191257,3.33804307 L53.4423877,4.06056939 L51.6647183,4.53743676 L53.5439688,4.59523887 C54.9370812,4.71084308 56.3229377,4.84089782 57.7305616,5.06488098 C59.1381855,5.28886414 60.5312978,5.52007256 61.9824565,5.7874073 C66.1653031,6.59787739 70.2703103,7.76545622 74.2520031,9.27720943 C78.3360032,10.8206976 82.2845668,12.6984632 86.057179,14.8912389 C88.1250801,16.0906326 90.1131674,17.3767295 92.0069295,18.7278537 C93.8685982,20.0566166 95.6607077,21.4794485 97.3762166,22.990759 L97.3762166,22.990759 L98.7257942,24.2913064 L97.7752853,22.6728474 L97.3907282,21.9864474 L97.4197514,21.9503211 L97.0279385,21.2783716 L97.0279385,21.2205695 C94.7863578,18.864798 92.3601047,16.6903582 89.7721452,14.7178326 C87.208397,12.7502106 84.4881806,10.9934967 81.6384008,9.46506627 C77.9516273,7.47654999 74.0590993,5.89217393 70.0291314,4.73974413 C66.0676012,3.60492011 61.991182,2.91423889 57.8756775,2.68054412 L57.8756775,2.68054412 Z M68.4691358,1.04763463 C67.4668686,1.02512051 66.4641115,1.05647556 65.4652373,1.14156305 C64.4354885,1.22388392 63.4109383,1.36136296 62.3960367,1.55340305 L62.3960367,1.55340305 L60.4442283,1.82796306 L62.3960367,2.0952978 C65.8090907,2.56192863 69.1726211,3.33579206 72.4453106,4.40738202 L72.4453106,4.40738202 L72.4453106,4.42905781 C75.7709532,5.52109808 78.9930043,6.90411117 82.0737484,8.56190837 C85.9574698,10.6494926 89.6060761,13.1443271 92.9574385,16.0039295 L92.9574385,16.0039295 L94.4956666,17.3261526 L93.3347397,15.6498916 C92.7397647,14.8623379 92.1230222,14.0892347 91.5135356,13.3667084 C90.9040489,12.6441821 90.2727949,11.9433316 89.6270293,11.2713821 C86.7554756,8.19526476 83.3545971,5.65533828 79.5850113,3.77155886 C76.1186933,2.08047541 72.3276929,1.15149794 68.4691358,1.04763463 Z M54.4581988,2.62996727 L52.4773672,2.69499464 C51.0407201,2.77688096 49.6113288,2.90452728 48.1891933,3.07793359 C46.7670578,3.25133991 45.3521781,3.49218202 43.9445542,3.80045991 L43.9445542,3.80045991 L40.5270755,4.60246413 L44.0606469,4.34235465 L44.0606469,4.34235465 L49.3356087,4.34235465 L50.9971854,3.74265781 L50.9971854,3.7643336 L52.6152273,3.22243886 L54.4581988,2.62996727 Z" id="Combined-Shape"></path>
        </g>
    </g>
</svg>