<?xml version="1.0" encoding="UTF-8"?>
<svg width="900px" height="265px" viewBox="0 0 900 265" version="1.1" xmlns="http://www.w3.org/2000/svg" xmlns:xlink="http://www.w3.org/1999/xlink">
    <title>Artboard</title>
    <g id="Artboard" stroke="none" stroke-width="1" fill="none" fill-rule="evenodd">
        <path d="M0,123 C62.7058411,123 86,145.5 128.8,150 C171.7,154.5 214.3,148.5 257.2,139.2 C300,129.8 343,117.2 385.8,127.7 C428.7,138.2 471.3,171.8 514.2,173.7 C557,175.5 600,145.5 642.8,140.3 C685.7,135.2 728.3,154.8 771.2,163.5 C814,172.2 869.299927,167.5 900,167.5" id="Path" stroke="#27272A" stroke-width="40" stroke-linejoin="round"></path>
        <g id="Group" transform="translate(671.392700, 199.499939) rotate(-345.000000) translate(-671.392700, -199.499939) translate(623.392700, 137.499939)" stroke-linecap="round" stroke-linejoin="round" stroke-width="4">
            <path d="M81.5492401,54.1359189 C71.5795022,53.4118349 60.1732644,55.5540171 51.0176622,61.2065636 C48.2113656,62.9391932 44.9315958,64.5094453 42.8405713,67.0527604 C39.5715216,64.6405502 35.9889076,60.9166894 31.9263288,59.6705913 C23.4398425,57.0671362 13.6372198,58.8965911 5.68018969,61.3274447 C3.4350333,77.0131258 2.18732715,92.8106672 0,108.507173 C11.4051062,105.159788 22.9401049,101.64762 33.1464007,105.080404 C38.1326395,106.757705 42.5320692,111.378852 46.9660417,116 C59.4043915,103.934138 79.6243779,92.9321497 96,100.130892 C90.0771181,85.2691273 86.3125593,69.403628 81.5492401,54.1359189 Z" id="Vector" stroke="#FFFFFF"></path>
            <path d="M43,67 C44.8715225,78.9109748 45.7172484,91.0302686 47,103" id="Vector_2" stroke="#FFFFFF"></path>
            <path d="M2,114 C5.18610462,112.207843 9.4284438,111.511488 13.0487909,110.890064 C21.8592861,109.378478 30.1779959,109.440451 38,113.877743" id="Vector_3" stroke="#FFFFFF"></path>
            <path d="M55,114 C75.4133044,99.5761469 91.6411577,104.76327 95,105.543486" id="Vector_4" stroke="#FFFFFF"></path>
            <path d="M96,113.916014 C91.6132696,112.202228 75.7487909,109.518872 61.1406395,116.929723 C58.2756659,118.382542 54.6144035,119.488429 52.1910191,121.630815 C50.3818127,123.229776 49.3248553,123.795921 47.5477861,123.981975 C44.9791891,124.250925 43.2901997,121.439849 41.3054289,120.240628 C39.681309,119.26062 37.4388453,118.972635 35.6294604,118.489385 C26.6794234,116.099541 17.9519069,116.047962 8.86237064,117.581834 C6.21015737,118.029469 3.9719786,118.680352 1,119.942819" id="Vector_5" stroke="#FFFFFF"></path>
            <path d="M38,31 C41.3483802,29.6679212 45.1292508,29.7528789 48.3603271,31.0870577" id="Vector_7" stroke="#FFFFFF"></path>
            <path d="M32.6716439,6.63252235 C32.0055185,7.77578191 31.2317112,8.82451355 30.9611947,10.1545219 C30.7179862,11.351754 31.5459922,11.6786251 32.1269737,10.6120443 C33.5211147,8.0533552 33.7284888,-0.815876484 29.0554155,0.0606771486 C25.9346671,0.645997385 23.5304268,4.54762636 21.8262381,6.92673061 C16.8211754,13.9126287 10.4356853,21.0823614 7,29 L11.9375678,29" id="Vector_9" stroke="#FFFFFF"></path>
            <path d="M34.3919769,23.6869464 C25.6736933,13.656079 4.32984899,25.7798543 14.8514689,39.8514692 C19.0666074,45.4892638 28.1608497,45.0490487 33.6494061,40.529417 C38.2334207,36.7549323 39.975626,27.9278775 34.9926633,23.7663478" id="Vector_6" stroke="#3EEE91"></path>
            <path d="M60.8032677,12.0905302 C60.7087578,11.646393 60.7713706,11.1476989 60.8014956,10.6973798 C60.9911061,7.87014651 64.4023227,13.689184 61.6627171,13.1818472 C60.2090367,12.912424 60.080267,10.0162294 60.0152914,8.95738235 C59.7861049,5.22951085 62.1311318,-2.19052113 67.1891834,0.622367742 C69.6180877,1.97326502 70.6441108,6.20223131 71.643553,8.5862277 C74.8114066,16.1481435 78.2385718,23.9417909 80,32 L75.5657137,32" id="Vector_10" stroke="#FFFFFF"></path>
            <path d="M61.239197,21.2288204 C53.0740083,20.9847533 46.3449689,29.7995615 50.0384423,37.5302339 C52.1222193,41.8922881 58.0536668,43.8351607 62.5840373,43.9947107 C68.9883559,44.2199295 76.1279828,37.2127546 74.8502635,30.6354283 C73.909359,25.7889615 68.0655922,21.3654404 63.1306811,21" id="Vector_8" stroke="#3EEE91"></path>
        </g>
        <g id="Group" transform="translate(86.000000, 2.000000)" stroke-linecap="round" stroke-linejoin="round" stroke-width="4">
            <path d="M80,68.5275507 C90.435297,63.2689073 101.04468,72.4568008 102.764553,82.8483468 C103.196065,85.4537319 102.953456,87.9432567 102.67998,90.6333315 C102.407121,93.3275232 100.658851,99.4204779 96.9771121,98.9770331 C96.6622752,98.9388051 96.3511424,98.8647016 96.0443308,98.7594276" id="Path" stroke="#FFFFFF"></path>
            <path d="M54,48 C59.8947042,50.0445707 63.4425955,52.941729 67.730563,58.6929106 C69.8842614,61.581394 70.5748154,63.8136404 72.1974487,67" id="Path" stroke="#FFFFFF"></path>
            <path d="M18,99 C14.5157456,95.5836969 11.3996593,92.0550463 9,87" id="Path" stroke="#FFFFFF"></path>
            <path d="M71.6665959,67.3765466 C76.2721209,65.7825343 82.273133,69.6020529 85.6274287,72.2386851 C94.440279,79.1641211 97.3087473,89.6852864 95.4703524,100.760321 C94.607189,105.959265 90.9172849,112.72957 85.5219178,114.187091 C77.9483746,116.232103 71.1140045,114.273799 66,109.936627" id="Path" stroke="#FFFFFF"></path>
            <path d="M70.1439524,84.0019028 C66.7674023,83.8853918 65.7788964,89.1490853 66.0395947,91.6703353 C66.6182614,97.260496 70.4499895,103.823553 76.4848271,103.998024 C80.2437745,104.106846 81.2012591,99.6977635 80.9668096,96.6732098 C80.6822487,92.9986786 78.5376025,90.2645151 76.0797604,87.7941278 C74.3473396,86.0523775 73.1470536,84.4058469 70.5078562,84.3762756" id="Path" stroke="#FFFFFF"></path>
            <path d="M40,85 C49.9682922,84 56.2879112,91.2406918 59.9504277,96.5760779 C70.408797,111.812431 64.1835051,134.488857 45.3298245,138.455634 C37.7822782,140.043765 31.6043566,138.035525 27,134.011353" id="Path" stroke="#FFFFFF"></path>
            <path d="M35.2886807,94.6548989 C29.632752,93.2696953 21.467815,93.3602276 16.2906003,102.290382 C12.0622148,109.584447 13.933605,123.129974 19.8859619,129.439425 C21.2766357,130.913978 24.3715503,132.892079 26.318682,133.595628 C40.0264656,138.544136 52.3849211,129.885578 52.7841833,115.928809 C52.832891,114.229997 55.416816,103.083871 41.3229043,96.9886207" id="Path" stroke="#FFFFFF"></path>
            <path d="M32,102 C35.4841017,102.139933 37.9571783,104.948632 39.6339831,108.077937 C43.2030065,114.738044 43.4431319,126.129896 35.3468951,129" id="Path" stroke="#FFFFFF"></path>
            <path d="M32.4060895,40.4306087 C16.3996128,44.2424873 2.91155633,54.1403336 0.581163691,70.5307498 C-0.145679106,75.644024 -0.393561772,79.551901 1.05421816,83.7690344 C4.83995904,89.0146797 10.573512,87.3805405 12.5465737,82.3914374 C13.3230097,80.4275419 13.4590007,78.8660311 13.6354553,76.8394642 C13.7524362,75.4958386 13.8872354,73.9483849 14.238178,71.9440752 C15.3740189,65.454434 17.3395122,60.2540642 19.7240629,55.9624867 C22.9511977,54.2410177 26.4984656,53.156863 29.7711294,53.0455189 C30.8990444,53.0071547 32.2265957,53.0077405 33.6727368,53.0083847 C41.9192632,53.011899 54.0222851,53.0171119 54.9435319,45.8169423 C56.1523741,36.3743706 37.6073586,39.0555303 32.4060895,40.4306087 Z" id="Path" stroke="#FFFFFF"></path>
            <path d="M34,40 C28.219015,43.4240779 20.475524,53.1629994 19,57" id="Path" stroke="#FFFFFF"></path>
            <path d="M105.974771,28 C109.799631,29.7001252 107.699481,35.1321424 103.879241,33.788523 C100.341447,32.5448372 102.240015,27.0971979 105.923364,28.1953954" id="Path" stroke="#3EEE91"></path>
            <path d="M108.022032,30 C107.865136,24.5355351 108.591941,19.0580449 108.757519,13.6026566 C113.082379,13.0592454 116.767541,12.3811181 121,11.3825264" id="Path" stroke="#3EEE91"></path>
            <path d="M121,18 C117.369101,18.6406533 112.551806,20.0493667 109,21" id="Path" stroke="#3EEE91"></path>
            <path d="M120.620884,25.7235626 C118.822469,22.8222577 114.658533,26.2440638 116.429369,28.8144225 C118.349595,31.603154 120.688684,28.8639066 121.310373,26.8211675 C122.649129,22.4271314 121.692464,16.4777916 121.315544,12" id="Path" stroke="#3EEE91"></path>
            <path d="M118,60 C119.852255,56.2010199 121.726547,52.4107262 123.646072,48.6511008 C124.50145,51.6399982 125.904849,54.5045084 127.01539,57.4064825 C132.67944,49.4267924 138.908908,41.3906701 144,33" id="Path" stroke="#FFFFFF"></path>
            <path d="M83.206878,35 C82.528748,29.8340249 82.132187,24.4936079 82,19.2723723 C83.9371306,21.1799207 85.8704997,23.0951868 88,24.7512351 C87.6711445,16.6684705 86.233208,8.05531102 86.7904352,0" id="Path" stroke="#FFFFFF"></path>
            <path d="M134.728756,84.1878889 C133.353002,84.0176606 131.723139,83.8662161 130.609543,84.8811291 C128.644509,86.6708745 128.189757,91.0604174 130.892398,92.4052212 C134.326321,94.1139614 136.29308,91.9497137 136.940426,88.351439 C138.059771,82.137518 138.095416,75.3248629 138.604784,69 C143.900258,69.1203338 144.990858,74.4232398 148.58518,77.4128014 C150.712339,79.182589 153.521338,78.6912749 155,76.3626687" id="Path" stroke="#3EEE91"></path>
            <path d="M70,68 C59.764239,69.7151101 55.55209,80.1872227 56.0374274,90" id="Path" stroke="#FFFFFF"></path>
            <path d="M40,85.0006328 C37.96871,84.9841102 35.8926602,85.2905776 33.8095777,85.9893235 C29.7501565,87.351105 25.1796049,90.7462315 22,95" id="Path" stroke="#FFFFFF"></path>
        </g>
        <g id="Group" transform="translate(274.000000, 196.500000) rotate(12.000000) translate(-274.000000, -196.500000) translate(226.000000, 153.000000)">
            <g id="Vector">
                <path d="M88.9264869,3.23079128 C87.7635543,2.26772347 86.4476528,1.57145856 85.0310007,1.07768514 C79.3035733,-0.917941312 71.9235898,0.395663693 66.2938413,0.783320221 C57.711608,1.37488643 49.098658,1.24046759 40.5194963,1.66820313 C35.3681904,1.92538706 29.9756359,1.7172845 24.8778999,2.44616756 C19.0290802,3.28215408 12.9426365,1.2978114 7.56144722,3.98372175 C-0.27517005,7.89567988 0.0413957942,14.0015631 0.00343000891,22.1789762 C-0.0477439379,33.0937858 0.490473287,43.993427 0.500241183,54.9109497 C0.504602948,60.0718931 0.655114557,67.3564075 1.41350876,72.4846712 C2.46561562,79.5953044 8.82519183,87.1881189 17.2803811,86.948878 C32.9593904,87.2133995 50.0410449,86.3939378 65.2224444,85.8087843 C71.8031805,85.5559782 79.9971553,85.4641048 86.4120215,83.542162 C97.157936,80.3228926 96.1614878,63.4693601 95.8008742,54.7759142 C95.7087243,52.5746516 94.4935734,20.7868163 93.035761,12.1112519 C92.7328947,10.3097312 92.5725538,8.13621561 91.6479825,6.50925439" id="Path"></path>
                <path d="M88.9264869,3.23079128 C87.7635543,2.26772347 86.4476528,1.57145856 85.0310007,1.07768514 C79.3035733,-0.917941312 71.9235898,0.395663693 66.2938413,0.783320221 C57.711608,1.37488643 49.098658,1.24046759 40.5194963,1.66820313 C35.3681904,1.92538706 29.9756359,1.7172845 24.8778999,2.44616756 C19.0290802,3.28215408 12.9426365,1.2978114 7.56144722,3.98372175 C-0.27517005,7.89567988 0.0413957942,14.0015631 0.00343000891,22.1789762 C-0.0477439379,33.0937858 0.490473287,43.993427 0.500241183,54.9109497 C0.504602948,60.0718931 0.655114557,67.3564075 1.41350876,72.4846712 C2.46561562,79.5953044 8.82519183,87.1881189 17.2803811,86.948878 C32.9593904,87.2133995 50.0410449,86.3939378 65.2224444,85.8087843 C71.8031805,85.5559782 79.9971553,85.4641048 86.4120215,83.542162 C97.157936,80.3228926 96.1614878,63.4693601 95.8008742,54.7759142 C95.7087243,52.5746516 94.4935734,20.7868163 93.035761,12.1112519 C92.7328947,10.3097312 92.5725538,8.13621561 91.6479825,6.50925439" id="Path" stroke="#FFFFFF" stroke-width="4" stroke-linecap="round" stroke-linejoin="round"></path>
            </g>
            <path d="M27.328718,19.2664341 C23.3965726,17.9134605 20.53088,21.9866793 20.0515043,25.3256937 C19.6062794,28.4256676 22.112377,31.5294173 25.0637628,32.4553739 C26.5449578,32.920209 28.6849464,33.2581584 30.193715,32.7369984 C36.7686875,30.465248 36.4878923,21.5462928 30.0249216,19.7010643" id="Vector_3" stroke="#FFFFFF" stroke-width="4" stroke-linecap="round" stroke-linejoin="round"></path>
            <path d="M14,65 C14.8801483,61.9876232 16.7512026,58.9184562 18.6501004,56.4533872 C20.8606353,53.5845461 23.1424419,50.6726442 26.412321,48.9901566 C39.0157268,42.5042167 51.4744329,53.0241329 57,63.9665432" id="Vector_4" stroke="#3EEE91" stroke-width="4" stroke-linecap="round" stroke-linejoin="round"></path>
            <path d="M43.0230167,49 C42.7022607,45.3581628 45.808659,41.5603504 47.6863152,38.66272 C50.2776534,34.6623818 54.0453025,30.2924794 58.6641885,28.4091707 C68.8185826,24.2683341 80.7457703,29.7275231 86,38.6004508" id="Vector_5" stroke="#3EEE91" stroke-width="4" stroke-linecap="round" stroke-linejoin="round"></path>
            <path d="M79.5499985,10.290363 C75.6819096,9.63111976 70.7051211,10.3121927 67.9667441,10.2305154 C60.1298316,9.99713435 52.2440968,10.6585238 44.4121284,10.8510662 C37.588125,11.0187744 30.2594593,10.6653915 23.5148077,11.507918 C17.8431969,12.2167685 9.41683193,10.8995084 9.41782073,17.906275 C9.41930394,26.5090591 9.68084336,35.1059565 9.62738599,43.7078207 C9.59308675,49.1928275 8.47079095,55.0659852 9.3120802,60.4988706 C9.75994791,63.3888468 11.1135627,65.9464727 14.1887521,66.5774478 C17.1252613,67.180216 20.4823224,67.0318234 23.3996735,66.7834805 C27.0162964,66.4756578 30.7081922,66.4149518 34.3296974,66.2782099 C43.487594,65.9311429 76.8338696,64.6906545 81.638853,63.8377037 C86.3369217,62.6842887 87.1539233,55.4713054 86.9784101,51.9718159 C86.4320943,41.090102 86.2639972,29.0985096 84.9643341,14.8755098" id="Vector_2" stroke="#FFFFFF" stroke-width="4" stroke-linecap="round" stroke-linejoin="round"></path>
        </g>
        <g id="Group" transform="translate(745.000000, 72.000000)">
            <path d="M17.3979106,66.8963457 C29.7988246,66.4706431 80.681034,65.2403268 89.4457995,61.6470303 C99.9313519,57.3482981 95.0524806,26.1143369 93.5673412,14.4846694 C92.9744052,9.84405278 90.687148,3.90633999 86.1635294,1.58984621 C78.2909673,-2.44232589 12.7976938,2.19432363 6.7943817,4.49800056 C-2.34843777,8.00671607 0.300484964,19.9557877 0.530025015,26.1386991 C0.859015457,35.0017062 1.31819735,43.8916186 1.92431542,52.7408425 C2.22404077,57.1178999 2.15909774,61.5758255 5.72969248,64.661534 C8.9590818,67.45276 13.5215339,67.0296003 17.3979106,66.8963457 L17.3979106,66.8963457 Z" id="Vector" stroke="#FFFFFF" stroke-width="4" stroke-linecap="round" stroke-linejoin="round"></path>
            <path d="M41.4368471,78.979888 C45.3121327,78.897289 61.2128231,78.6585709 63.9518123,77.9613641 C67.2285475,77.1272817 65.7039002,71.0669609 65.2397941,68.8104582 C65.0545016,67.9100401 64.3397337,66.7579466 62.9261029,66.3084776 C60.4659273,65.5261159 39.9992793,66.4257643 38.1232443,66.8727464 C35.2661132,67.5535419 36.0939016,69.8720185 36.1656328,71.0716879 C36.2684423,72.7913758 36.4119367,74.5162842 36.6013486,76.2332978 C36.6950127,77.0825776 36.674718,77.9475482 37.7905289,78.5462678 C38.7997131,79.0878489 40.2254793,79.0057434 41.4368471,78.979888 L41.4368471,78.979888 Z" id="Vector" stroke="#FFFFFF" stroke-width="4" stroke-linecap="round" stroke-linejoin="round"></path>
            <g id="Subtract" transform="translate(38.252005, 63.236914)" fill-rule="nonzero">
                <path d="M0.414053637,1.05798478 C7.51099893,0.793736012 15.4617049,0.449321882 22.9802474,0 C23.9998127,4.20175341 24.2236563,8.78750879 24.40193,12.4360223 C24.4334785,13.0798194 24.4635246,13.6944204 24.4960746,14.2724028 C21.1995136,14.4772698 17.0155905,14.6771883 12.5998113,14.8879935 C8.44393117,15.0859327 4.0832366,15.2942637 0.0653683327,15.5258525 L0.0653683327,14.2516192 C0.0616125668,13.7028329 0.0507458842,13.0867472 0.0389277409,12.417218 C-0.0154557491,9.3353054 -0.0899701442,5.11524261 0.414053637,1.05798478 Z" id="Path"></path>
            </g>
            <path d="M28,80 C31.3968773,79.6849947 34.9199254,79.4231997 38.5025937,79.1949273 M78,77 C73.459178,77.3714083 68.5061098,77.6566158 63.3517596,77.9162824" id="Vector_2" stroke="#FFFFFF" stroke-width="4" stroke-linecap="round" stroke-linejoin="round"></path>
            <path d="M20,39 C25.7577041,33.6669256 30.26833,26.8945006 36.396894,21.9167814 C39.2435628,25.2208102 42.5696725,28.1376693 45.0937061,31.7260821 C48.6980361,29.9938568 64.4232414,15.5331743 68,12" id="Vector_3" stroke="#3EEE91" stroke-width="4" stroke-linecap="round" stroke-linejoin="round"></path>
            <path d="M24.15965,45 C24.41265,47.3315039 24.44205,49.6734854 24.84035,52" id="Vector_4" stroke="#FFFFFF" stroke-width="4" stroke-linecap="round" stroke-linejoin="round"></path>
            <path d="M34.0039162,37 C33.9467146,41.6857264 34.5275599,46.3428632 35,51" id="Vector_5" stroke="#FFFFFF" stroke-width="4" stroke-linecap="round" stroke-linejoin="round"></path>
            <path d="M45,42 C45.2154399,44.9920174 45.6032316,48.0167798 46,51" id="Vector_6" stroke="#FFFFFF" stroke-width="4" stroke-linecap="round" stroke-linejoin="round"></path>
            <path d="M57,36 C57.6110731,40.6320831 57.5827068,45.3498095 58,50" id="Vector_7" stroke="#FFFFFF" stroke-width="4" stroke-linecap="round" stroke-linejoin="round"></path>
            <path d="M69,50 C68.1854664,46.8062813 68.5623878,43.2995702 68.318986,40.0614943 C67.9184272,34.7386299 66.9077666,29.3290944 67.0067884,24" id="Vector_8" stroke="#FFFFFF" stroke-width="4" stroke-linecap="round" stroke-linejoin="round"></path>
        </g>
    </g>
</svg>