<?xml version="1.0" encoding="UTF-8"?>
<svg width="466px" height="426px" viewBox="0 0 466 426" version="1.1" xmlns="http://www.w3.org/2000/svg" xmlns:xlink="http://www.w3.org/1999/xlink">
    <title>Designer</title>
    <g id="Illustrations🚀" stroke="none" stroke-width="1" fill="none" fill-rule="evenodd">
        <g id="Designer" transform="translate(-267.000000, -287.000000)">
            <g transform="translate(267.000000, 287.000000)">
                <g id="Asset-13" transform="translate(330.942576, 144.427679) rotate(-360.000000) translate(-330.942576, -144.427679) translate(299.442576, 115.427679)" stroke="#8348FF" stroke-linecap="round" stroke-linejoin="round">
                    <path d="M41.0202279,55.3879942 C28.0763266,61.2840618 12.7667479,56.9219012 4.87445556,45.0889737 C-3.01783681,33.2560462 -1.16285567,17.4457057 9.25404872,7.76090735 C19.6709531,-1.92389103 35.5744697,-2.62397081 46.8021029,6.10802552 C58.0297361,14.8400219 61.2668289,30.426207 54.4448489,42.9068633" id="Path"></path>
                    <polyline id="Path" points="63 38.2628737 53.3059017 45 51 33"></polyline>
                </g>
                <g id="Element" transform="translate(103.262854, 54.440173)">
                    <rect id="Shape" fill="#FFFFFF" x="0.480538203" y="0.504565113" width="209.841422" height="314.608361" rx="6"></rect>
                    <path d="M204.555502,315.588659 L6.24699664,315.588659 C2.79687566,315.588659 0,312.791784 0,309.341663 L0,6.24699664 C0,2.79687566 2.79687566,0 6.24699664,0 L204.555502,0 C208.005623,0 210.802528,2.79687566 210.802528,6.24699664 L210.802528,309.322441 C210.807607,310.982576 210.151699,312.576466 208.979606,313.752166 C207.807512,314.927865 206.215644,315.588659 204.555502,315.588659 L204.555502,315.588659 Z M6.24699664,0.961076406 C3.3276635,0.961076406 0.961076406,3.3276635 0.961076406,6.24699664 L0.961076406,309.322441 C0.961076406,312.241774 3.3276635,314.608361 6.24699664,314.608361 L204.555502,314.608361 C207.474835,314.608361 209.841422,312.241774 209.841422,309.322441 L209.841422,6.24699664 C209.841422,3.3276635 207.474835,0.961076406 204.555502,0.961076406 L6.24699664,0.961076406 Z" id="Shape" fill="#18181B"></path>
                    <path d="M66.1124459,226.991831 L28.6304661,226.991831 C28.3650722,226.991831 28.1499279,226.776687 28.1499279,226.511293 L28.1499279,189.029313 C28.1499279,188.763919 28.3650722,188.548775 28.6304661,188.548775 L66.1124459,188.548775 C66.3778399,188.548775 66.5929841,188.763919 66.5929841,189.029313 L66.5929841,226.511293 C66.5929841,226.776687 66.3778399,226.991831 66.1124459,226.991831 Z M29.1110043,226.030754 L65.6319077,226.030754 L65.6319077,189.509851 L29.1110043,189.509851 L29.1110043,226.030754 Z" id="Shape" fill="#18181B"></path>
                    <path d="M66.1124459,287.996156 L28.6304661,287.996156 C28.3650722,287.996156 28.1499279,287.781011 28.1499279,287.515617 L28.1499279,250.033638 C28.1499279,249.768244 28.3650722,249.553099 28.6304661,249.553099 L66.1124459,249.553099 C66.3778399,249.553099 66.5929841,249.768244 66.5929841,250.033638 L66.5929841,287.515617 C66.5929841,287.781011 66.3778399,287.996156 66.1124459,287.996156 Z M29.1110043,287.035079 L65.6319077,287.035079 L65.6319077,250.514176 L29.1110043,250.514176 L29.1110043,287.035079 Z" id="Shape" fill="#18181B"></path>
                    <polygon id="Shape" fill="#FFFFFF" transform="translate(107.190983, 65.800933) rotate(-89.680000) translate(-107.190983, -65.800933) " points="63.8031888 8.07628186 150.578777 8.07628186 150.578777 123.525585 63.8031888 123.525585"></polygon>
                    <path d="M164.670831,109.985584 L164.670831,109.985584 L49.2215281,109.341663 C48.9561342,109.341663 48.7409899,109.126518 48.7409899,108.861124 L49.2215281,22.0855358 C49.2215281,21.8201419 49.4366724,21.6049976 49.7020663,21.6049976 L49.7020663,21.6049976 L165.15137,22.2489188 C165.279098,22.2481803 165.401865,22.2983246 165.492552,22.3882749 C165.580362,22.4803622 165.630138,22.6022263 165.631908,22.729457 L165.15137,109.505046 C165.15137,109.77044 164.936225,109.985584 164.670831,109.985584 Z M49.7068717,108.385392 L164.195099,109.024507 L164.675637,23.2099952 L50.1826045,22.5852955 L49.7068717,108.385392 Z" id="Shape" fill="#18181B"></path>
                    <polygon id="Shape" fill="#FFFFFF" points="49.0725613 108.870735 89.7501201 55.1561749 114.569918 89.043729 131.63383 71.0956271 164.670831 109.514656"></polygon>
                    <path d="M164.670831,109.995195 L164.670831,109.995195 L49.0725613,109.351273 C48.900712,109.339739 48.7481784,109.237114 48.6727443,109.082275 C48.5973102,108.927437 48.6105134,108.744068 48.7073522,108.601634 L89.3801057,54.8870735 C89.4708575,54.7660712 89.6132834,54.6948582 89.7645363,54.6948582 L89.7645363,54.6948582 C89.915735,54.6995837 90.0568364,54.7718982 90.1489668,54.8918789 L114.627583,88.3133109 L131.297453,70.7832773 C131.391134,70.6849154 131.522067,70.6307962 131.657857,70.6343104 C131.793268,70.638419 131.920654,70.6994946 132.00865,70.8024988 L165.045651,109.221528 C165.167578,109.364076 165.195413,109.564541 165.116938,109.734916 C165.038462,109.905291 164.868022,110.014416 164.680442,110.014416 L164.670831,109.995195 Z M50.0384431,108.395002 L163.618453,109.029313 L131.619414,71.811629 L114.920711,89.3801057 C114.822559,89.4836562 114.683468,89.5382364 114.541086,89.5290726 C114.399243,89.519241 114.269036,89.4470992 114.185488,89.3320519 L89.7453148,55.9634791 L50.0384431,108.395002 Z" id="Shape" fill="#18181B"></path>
                    <path d="M123.969351,48.7409899 C123.953629,52.4195302 121.722895,55.7261811 118.317848,57.1181423 C114.912801,58.5101036 111.0045,57.7130506 108.416459,55.0988683 C105.828419,52.4846861 105.070684,48.5685716 106.496796,45.1776856 C107.922908,41.7867995 111.251811,39.5894101 114.930322,39.6106098 C119.947064,39.6372368 123.993192,43.7242347 123.969351,48.7409899 L123.969351,48.7409899 Z" id="Shape" fill="#FFFFFF"></path>
                    <circle id="Oval" fill="#FFE350" cx="115" cy="49" r="9"></circle>
                    <path d="M114.882268,58.2604517 L114.824604,58.2604517 C109.622512,58.1303884 105.477201,53.8683821 105.491535,48.664685 C105.505944,43.4609879 109.674732,39.221943 114.877463,39.1206151 L114.935127,39.1206151 C120.213162,39.1550106 124.468434,43.4532649 124.449845,48.7313791 L124.449845,48.7313791 C124.420741,53.9970611 120.148024,58.2526094 114.882268,58.2604517 L114.882268,58.2604517 Z M114.882268,40.0816915 C110.144861,40.0962723 106.3142,43.9446594 106.32148,48.6820833 C106.328781,53.4195072 110.171268,57.2560862 114.908698,57.2560862 C119.646127,57.2560862 123.488615,53.4195072 123.495916,48.6820833 C123.503196,43.9446594 119.672534,40.0962723 114.935127,40.0816915 L114.882268,40.0816915 Z" id="Shape" fill="#18181B"></path>
                    <path d="M130.110524,151.191735 L81.2782316,151.191735 C74.2107915,151.191735 68.4814993,145.462443 68.4814993,138.395002 L68.4814993,138.395002 C68.4814993,131.326785 74.2100143,125.596118 81.2782316,125.593465 L130.110524,125.593465 C137.17311,125.604069 142.89284,131.332408 142.89284,138.395002 L142.89284,138.395002 C142.89284,145.456816 137.172333,151.183779 130.110524,151.191735 Z" id="Shape" fill="#FE3AC6"></path>
                    <path d="M130.110524,151.672273 L81.2782316,151.672273 C74.042522,151.534625 68.2487813,145.629619 68.2487813,138.3926 C68.2487813,131.155581 74.042522,125.250575 81.2782316,125.112926 L130.110524,125.112926 C137.346233,125.250575 143.139974,131.155581 143.139974,138.3926 C143.139974,145.629619 137.346233,151.534625 130.110524,151.672273 L130.110524,151.672273 Z M81.2782316,126.074003 C74.5696727,126.206508 69.2005453,131.682732 69.2005453,138.3926 C69.2005453,145.102467 74.5696727,150.578691 81.2782316,150.711197 L130.110524,150.711197 C136.819083,150.578691 142.18821,145.102467 142.18821,138.3926 C142.18821,131.682732 136.819083,126.206508 130.110524,126.074003 L81.2782316,126.074003 Z" id="Shape" fill="#18181B"></path>
                    <line x1="1.19173474" y1="167.280154" x2="210.321961" y2="167.280154" id="Shape" fill="#FFFFFF"></line>
                    <path d="M210.321961,167.760692 L1.19173474,167.760692 C0.926340822,167.760692 0.71119654,167.545548 0.71119654,167.280154 C0.71119654,167.01476 0.926340822,166.799616 1.19173474,166.799616 L210.321961,166.799616 C210.587355,166.799616 210.802499,167.01476 210.802499,167.280154 C210.802499,167.545548 210.587355,167.760692 210.321961,167.760692 L210.321961,167.760692 Z" id="Shape" fill="#18181B"></path>
                    <line x1="83.483902" y1="197.784719" x2="125.482941" y2="197.784719" id="Shape" fill="#18181B"></line>
                    <path d="M125.482941,198.265257 L83.4887074,198.265257 C83.2233134,198.265257 83.0081691,198.050113 83.0081691,197.784719 C83.0081691,197.519325 83.2233134,197.304181 83.4887074,197.304181 L125.482941,197.304181 C125.748335,197.304181 125.963479,197.519325 125.963479,197.784719 C125.963479,198.050113 125.748335,198.265257 125.482941,198.265257 Z" id="Shape" fill="#18181B"></path>
                    <line x1="83.483902" y1="202.777511" x2="152.359443" y2="202.777511" id="Shape" fill="#18181B"></line>
                    <path d="M152.359443,203.26766 L83.4887074,203.26766 C83.2233134,203.26766 83.0081691,203.052515 83.0081691,202.787122 C83.0081691,202.521728 83.2233134,202.306583 83.4887074,202.306583 L152.359443,202.306583 C152.624836,202.306583 152.839981,202.521728 152.839981,202.787122 C152.839981,203.052515 152.624836,203.26766 152.359443,203.26766 Z" id="Shape" fill="#18181B"></path>
                    <line x1="83.483902" y1="207.770303" x2="152.359443" y2="207.770303" id="Shape" fill="#18181B"></line>
                    <path d="M152.359443,208.250841 L83.4887074,208.250841 C83.2233134,208.250841 83.0081691,208.035697 83.0081691,207.770303 C83.0081691,207.504909 83.2233134,207.289765 83.4887074,207.289765 L152.359443,207.289765 C152.624836,207.289765 152.839981,207.504909 152.839981,207.770303 C152.839981,208.035697 152.624836,208.250841 152.359443,208.250841 Z" id="Shape" fill="#18181B"></path>
                    <line x1="83.483902" y1="212.763095" x2="152.359443" y2="212.763095" id="Shape" fill="#18181B"></line>
                    <path d="M152.359443,213.243633 L83.4887074,213.243633 C83.2233134,213.243633 83.0081691,213.028489 83.0081691,212.763095 C83.0081691,212.497701 83.2233134,212.282556 83.4887074,212.282556 L152.359443,212.282556 C152.624836,212.282556 152.839981,212.497701 152.839981,212.763095 C152.839981,213.028489 152.624836,213.243633 152.359443,213.243633 Z" id="Shape" fill="#18181B"></path>
                    <line x1="83.483902" y1="217.755887" x2="152.359443" y2="217.755887" id="Shape" fill="#18181B"></line>
                    <path d="M152.359443,218.236425 L83.4887074,218.236425 C83.2233134,218.236425 83.0081691,218.021281 83.0081691,217.755887 C83.0081691,217.490493 83.2233134,217.275348 83.4887074,217.275348 L152.359443,217.275348 C152.624836,217.275348 152.839981,217.490493 152.839981,217.755887 C152.839981,218.021281 152.624836,218.236425 152.359443,218.236425 Z" id="Shape" fill="#18181B"></path>
                    <line x1="83.483902" y1="258.789044" x2="125.482941" y2="258.789044" id="Shape" fill="#18181B"></line>
                    <path d="M125.482941,259.269582 L83.4887074,259.269582 C83.2233134,259.269582 83.0081691,259.054438 83.0081691,258.789044 C83.0081691,258.52365 83.2233134,258.308506 83.4887074,258.308506 L125.482941,258.308506 C125.748335,258.308506 125.963479,258.52365 125.963479,258.789044 C125.963479,259.054438 125.748335,259.269582 125.482941,259.269582 Z" id="Shape" fill="#18181B"></path>
                    <line x1="83.483902" y1="263.781836" x2="152.359443" y2="263.781836" id="Shape" fill="#18181B"></line>
                    <path d="M152.359443,264.262374 L83.4887074,264.262374 C83.2233134,264.262374 83.0081691,264.04723 83.0081691,263.781836 C83.0081691,263.516442 83.2233134,263.301297 83.4887074,263.301297 L152.359443,263.301297 C152.624836,263.301297 152.839981,263.516442 152.839981,263.781836 C152.839981,264.04723 152.624836,264.262374 152.359443,264.262374 Z" id="Shape" fill="#18181B"></path>
                    <line x1="83.483902" y1="268.774628" x2="152.359443" y2="268.774628" id="Shape" fill="#18181B"></line>
                    <path d="M152.359443,269.255166 L83.4887074,269.255166 C83.2233134,269.255166 83.0081691,269.040022 83.0081691,268.774628 C83.0081691,268.509234 83.2233134,268.294089 83.4887074,268.294089 L152.359443,268.294089 C152.624836,268.294089 152.839981,268.509234 152.839981,268.774628 C152.839981,269.040022 152.624836,269.255166 152.359443,269.255166 Z" id="Shape" fill="#18181B"></path>
                    <line x1="83.483902" y1="273.76742" x2="152.359443" y2="273.76742" id="Shape" fill="#18181B"></line>
                    <path d="M152.359443,274.247958 L83.4887074,274.247958 C83.2233134,274.247958 83.0081691,274.032813 83.0081691,273.76742 C83.0081691,273.502026 83.2233134,273.286881 83.4887074,273.286881 L152.359443,273.286881 C152.624836,273.286881 152.839981,273.502026 152.839981,273.76742 C152.839981,274.032813 152.624836,274.247958 152.359443,274.247958 Z" id="Shape" fill="#18181B"></path>
                    <line x1="83.483902" y1="278.760211" x2="152.359443" y2="278.760211" id="Shape" fill="#18181B"></line>
                    <path d="M152.359443,279.24075 L83.4887074,279.24075 C83.2233134,279.24075 83.0081691,279.025605 83.0081691,278.760211 C83.0081691,278.494818 83.2233134,278.279673 83.4887074,278.279673 L152.359443,278.279673 C152.624836,278.279673 152.839981,278.494818 152.839981,278.760211 C152.839981,279.025605 152.624836,279.24075 152.359443,279.24075 Z" id="Shape" fill="#18181B"></path>
                    <circle id="Shape" fill="#FFFFFF" cx="90.1057184" cy="55.7424315" r="3.05622297"></circle>
                    <path d="M90.1057184,59.2792288 L90.0336377,59.2792288 C88.0820255,59.225508 86.543056,57.6005944 86.5953999,55.6489458 C86.6477438,53.6972972 88.2715996,52.1572117 90.2232837,52.2082147 C92.1749678,52.2592178 93.7161686,53.8820151 93.6665065,55.8337338 L93.6665065,55.8337338 C93.6117357,57.7584335 92.031178,59.287799 90.1057184,59.2792288 L90.1057184,59.2792288 Z M90.1057184,53.1619414 C88.7227134,53.202485 87.6177956,54.3265639 87.6010338,55.7100616 C87.5842719,57.0935593 88.6616316,58.2440777 90.0432484,58.3181163 L90.1105238,58.3181163 C91.5061418,58.3160619 92.6472263,57.2047819 92.6862086,55.8097069 L92.6862086,55.8097069 C92.704286,55.1265275 92.4501101,54.4641706 91.9796429,53.9684676 C91.5091757,53.4727646 90.8609907,53.1843581 90.1777991,53.1667468 L90.1057184,53.1619414 Z" id="Shape" fill="#18181B"></path>
                    <circle id="Shape" fill="#FFFFFF" cx="131.499279" cy="70.4709274" r="3.05622297"></circle>
                    <path d="M131.499279,74.0028832 L131.403172,74.0028832 C129.449872,73.9511313 127.908364,72.3257163 127.960116,70.3724171 C128.011867,68.4191179 129.637282,66.8776092 131.590581,66.9293609 C133.543881,66.9545733 135.106904,68.5584739 135.081691,70.5117732 C135.056479,72.4650724 133.452578,74.0280957 131.499279,74.0028832 L131.499279,74.0028832 Z M131.499279,67.8856319 C130.082979,67.8861133 128.931747,69.0280293 128.919759,70.4442792 C128.90777,71.8605291 130.039506,73.0217701 131.455595,73.0462273 C132.871685,73.0706845 134.042845,71.9492167 134.079769,70.5333974 L134.079769,70.5333974 C134.096629,69.8506916 133.842682,69.1890464 133.373378,68.6929361 C132.904574,68.194681 132.255325,67.9055487 131.57136,67.8904373 L131.499279,67.8856319 Z" id="Shape" fill="#18181B"></path>
                    <circle id="Shape" fill="#FFFFFF" cx="114.118212" cy="88.1114849" r="3.05622297"></circle>
                    <path d="M114.118212,91.648246 L114.022105,91.648246 C112.070493,91.5945613 110.531523,89.9696477 110.583867,88.0179992 C110.636211,86.0663506 112.260067,84.5262651 114.211751,84.5772681 C116.163435,84.6282711 117.704636,86.2510685 117.654974,88.2027871 L117.654974,88.2027871 C117.600454,90.1181498 116.034346,91.643829 114.118212,91.648246 L114.118212,91.648246 Z M114.118212,85.5309947 C112.734876,85.569865 111.628477,86.6930355 111.610422,88.0768006 C111.592368,89.4605657 112.669085,90.6122204 114.050937,90.6871696 L114.118212,90.6871696 C115.51383,90.6851152 116.654915,89.5738352 116.693897,88.1787602 L116.693897,88.1787602 C116.711975,87.4955808 116.457799,86.8332239 115.987331,86.3375209 C115.516864,85.8418179 114.868679,85.5534115 114.185488,85.5358001 L114.118212,85.5309947 Z" id="Shape" fill="#18181B"></path>
                    <circle id="Shape" fill="#FFFFFF" cx="49.2215281" cy="107.847189" r="3.05622297"></circle>
                    <path d="M49.2263335,111.384003 L49.1302259,111.384003 C47.4433555,111.335129 46.0259671,110.101328 45.7451063,108.437287 C45.4642456,106.773246 46.3981634,105.142585 47.9755628,104.542813 C49.5529622,103.943042 51.3343633,104.541262 52.230046,105.97153 C53.1257287,107.401798 52.8861465,109.265627 51.6578568,110.422874 C51.0014793,111.044597 50.1304057,111.388895 49.2263335,111.384003 L49.2263335,111.384003 Z M49.2263335,105.271504 C48.30613,105.259487 47.4494155,105.739305 46.9789062,106.530215 C46.5083969,107.321126 46.4955743,108.302972 46.9452685,109.1059 C47.3949628,109.908829 48.2388546,110.410856 49.1590581,110.422874 C49.8422375,110.440951 50.5045944,110.186775 51.0002974,109.716308 C51.4960004,109.245841 51.7844069,108.597656 51.8020183,107.914464 L51.8020183,107.914464 C51.8200957,107.231285 51.5659198,106.568928 51.0954526,106.073225 C50.6249854,105.577522 49.9768004,105.289115 49.2936088,105.271504 L49.2263335,105.271504 Z" id="Shape" fill="#18181B"></path>
                    <path d="M66.1124459,226.991892 C65.9863816,226.9913 65.8655745,226.941251 65.7760692,226.852475 L28.2940894,189.370495 C28.1569552,189.253056 28.0972216,189.06866 28.1394473,188.893119 C28.1816731,188.717578 28.3187316,188.58052 28.4942725,188.538294 C28.6698134,188.496068 28.8542096,188.555802 28.9716482,188.692936 L66.4536281,226.174916 C66.5446,226.265145 66.5957705,226.387969 66.5957705,226.516098 C66.5957705,226.644228 66.5446,226.767051 66.4536281,226.85728 C66.3621614,226.945473 66.2394892,226.99385 66.1124459,226.991892 Z" id="Shape" fill="#18181B"></path>
                    <path d="M28.6304661,226.991831 C28.4361153,226.991016 28.2613909,226.873211 28.1877617,226.693346 C28.1141325,226.51348 28.1560974,226.306972 28.2940894,226.170111 L65.7760692,188.688131 C65.9667277,188.524855 66.2509342,188.535833 66.4284302,188.713329 C66.6059261,188.890825 66.6169038,189.175031 66.4536281,189.36569 L28.9716482,226.847669 C28.8817533,226.939383 28.758888,226.991298 28.6304661,226.991831 Z" id="Shape" fill="#18181B"></path>
                    <path d="M66.1124459,287.996164 C65.9856947,287.99435 65.8647912,287.942534 65.7760692,287.851994 L28.2940894,250.370014 C28.1308136,250.179356 28.1417913,249.895149 28.3192873,249.717653 C28.4967832,249.540157 28.7809898,249.52918 28.9716482,249.692456 L66.4536281,287.174435 C66.5922441,287.311913 66.6339077,287.51959 66.5590442,287.699895 C66.4841807,287.8802 66.3076718,287.997291 66.1124459,287.996164 L66.1124459,287.996164 Z" id="Shape" fill="#18181B"></path>
                    <path d="M28.6304661,287.996156 C28.5037149,287.99435 28.3828114,287.942534 28.2940894,287.851994 C28.1077734,287.664566 28.1077734,287.361863 28.2940894,287.174435 L65.7760692,249.692456 C65.9667277,249.52918 66.2509342,249.540157 66.4284302,249.717653 C66.6059261,249.895149 66.6169038,250.179356 66.4536281,250.370014 L28.9716482,287.851994 C28.8817533,287.943708 28.758888,287.995623 28.6304661,287.996156 Z" id="Shape" fill="#18181B"></path>
                </g>
                <g id="Element" transform="translate(0.000000, 157.352235)">
                    <rect id="Shape" fill="#FFFFFF" x="0.480538203" y="0.490148967" width="122.306583" height="101.388755" rx="7"></rect>
                    <path d="M117.020663,102.354637 L6.24699664,102.354637 C2.79687566,102.354637 0,99.5577615 0,96.1076406 L0,6.24699664 C0,2.79687566 2.79687566,0 6.24699664,0 L117.020663,0 C120.470784,0 123.26766,2.79687566 123.26766,6.24699664 L123.26766,96.1076406 C123.26766,99.5577615 120.470784,102.354637 117.020663,102.354637 L117.020663,102.354637 Z M6.24699664,0.961076406 C3.3276635,0.961076406 0.961076406,3.3276635 0.961076406,6.24699664 L0.961076406,96.1076406 C0.961076406,99.0269737 3.3276635,101.393561 6.24699664,101.393561 L117.020663,101.393561 C119.939996,101.393561 122.306583,99.0269737 122.306583,96.1076406 L122.306583,6.24699664 C122.306583,3.3276635 119.939996,0.961076406 117.020663,0.961076406 L6.24699664,0.961076406 Z" id="Shape" fill="#18181B"></path>
                    <rect id="Rectangle" fill="#3EEE91" x="17" y="26" width="29" height="29"></rect>
                    <path d="M46.2085536,55.5454109 L16.9774147,55.5454109 C16.7120208,55.5454109 16.4968765,55.3302666 16.4968765,55.0648727 L16.4968765,25.8289284 C16.4968765,25.5635345 16.7120208,25.3483902 16.9774147,25.3483902 L46.2085536,25.3483902 C46.4739475,25.3483902 46.6890918,25.5635345 46.6890918,25.8289284 L46.6890918,55.0648727 C46.6890918,55.3302666 46.4739475,55.5454109 46.2085536,55.5454109 Z M17.4579529,54.5843345 L45.7280154,54.5843345 L45.7280154,26.3094666 L17.4579529,26.3094666 L17.4579529,54.5843345 Z" id="Shape" fill="#18181B"></path>
                    <rect id="Shape" fill="#FFFFFF" x="18.8034599" y="64.9207112" width="13.7385872" height="13.7385872"></rect>
                    <path d="M32.5420471,79.1398366 L18.8034599,79.1398366 C18.538066,79.1398366 18.3229217,78.9246923 18.3229217,78.6592984 L18.3229217,64.9207112 C18.3229217,64.6553173 18.538066,64.440173 18.8034599,64.440173 L32.5420471,64.440173 C32.807441,64.440173 33.0225853,64.6553173 33.0225853,64.9207112 L33.0225853,78.6592984 C33.0225853,78.9246923 32.807441,79.1398366 32.5420471,79.1398366 Z M19.2839981,78.1787602 L32.0615089,78.1787602 L32.0615089,65.4012494 L19.2839981,65.4012494 L19.2839981,78.1787602 Z" id="Shape" fill="#18181B"></path>
                    <rect id="Shape" fill="#FFFFFF" x="43.7193657" y="64.9207112" width="13.7385872" height="13.7385872"></rect>
                    <path d="M57.4579529,79.1398366 L43.7193657,79.1398366 C43.4539718,79.1398366 43.2388275,78.9246923 43.2388275,78.6592984 L43.2388275,64.9207112 C43.2388275,64.6553173 43.4539718,64.440173 43.7193657,64.440173 L57.4579529,64.440173 C57.7233468,64.440173 57.9384911,64.6553173 57.9384911,64.9207112 L57.9384911,78.6592984 C57.9384911,78.9246923 57.7233468,79.1398366 57.4579529,79.1398366 Z M44.1999039,78.1787602 L56.9774147,78.1787602 L56.9774147,65.4012494 L44.1999039,65.4012494 L44.1999039,78.1787602 Z" id="Shape" fill="#18181B"></path>
                    <rect id="Shape" fill="#FFFFFF" x="68.6352715" y="64.9207112" width="13.7385872" height="13.7385872"></rect>
                    <path d="M82.3738587,79.1398366 L68.6352715,79.1398366 C68.3698776,79.1398366 68.1547333,78.9246923 68.1547333,78.6592984 L68.1547333,64.9207112 C68.1547333,64.6553173 68.3698776,64.440173 68.6352715,64.440173 L82.3738587,64.440173 C82.6392526,64.440173 82.8543969,64.6553173 82.8543969,64.9207112 L82.8543969,78.6592984 C82.8543969,78.9246923 82.6392526,79.1398366 82.3738587,79.1398366 Z M69.1158097,78.1787602 L81.8933205,78.1787602 L81.8933205,65.4012494 L69.1158097,65.4012494 L69.1158097,78.1787602 Z" id="Shape" fill="#18181B"></path>
                    <rect id="Shape" fill="#FFFFFF" x="93.5511773" y="64.9207112" width="13.7385872" height="13.7385872"></rect>
                    <path d="M107.280154,79.1398366 L93.5511773,79.1398366 C93.2857834,79.1398366 93.0706391,78.9246923 93.0706391,78.6592984 L93.0706391,64.9207112 C93.0706391,64.6553173 93.2857834,64.440173 93.5511773,64.440173 L107.280154,64.440173 C107.545548,64.440173 107.760692,64.6553173 107.760692,64.9207112 L107.760692,78.6592984 C107.760692,78.9246923 107.545548,79.1398366 107.280154,79.1398366 Z M94.0221048,78.1787602 L106.799616,78.1787602 L106.799616,65.4012494 L94.0317155,65.4012494 L94.0221048,78.1787602 Z" id="Shape" fill="#18181B"></path>
                    <line x1="53.9163864" y1="30.4613167" x2="86.4584334" y2="30.4613167" id="Shape" fill="#FFFFFF"></line>
                    <path d="M86.4584334,30.9418549 L53.9404133,30.9418549 C53.6750193,30.9418549 53.4598751,30.7267106 53.4598751,30.4613167 C53.4598751,30.1959228 53.6750193,29.9807785 53.9404133,29.9807785 L86.4824604,29.9807785 C86.7478543,29.9807785 86.9629986,30.1959228 86.9629986,30.4613167 C86.9629986,30.7267106 86.7478543,30.9418549 86.4824604,30.9418549 L86.4584334,30.9418549 Z" id="Shape" fill="#18181B"></path>
                    <line x1="53.9163864" y1="35.4541086" x2="107.289765" y2="35.4541086" id="Shape" fill="#FFFFFF"></line>
                    <path d="M107.280154,35.9346468 L53.9404133,35.9346468 C53.6750193,35.9346468 53.4598751,35.7195025 53.4598751,35.4541086 C53.4598751,35.1887147 53.6750193,34.9735704 53.9404133,34.9735704 L107.280154,34.9735704 C107.545548,34.9735704 107.760692,35.1887147 107.760692,35.4541086 C107.760692,35.7195025 107.545548,35.9346468 107.280154,35.9346468 Z" id="Shape" fill="#18181B"></path>
                    <line x1="53.9163864" y1="40.4469005" x2="107.289765" y2="40.4469005" id="Shape" fill="#FFFFFF"></line>
                    <path d="M107.280154,40.9274387 L53.9404133,40.9274387 C53.6750193,40.9274387 53.4598751,40.7122944 53.4598751,40.4469005 C53.4598751,40.1815066 53.6750193,39.9663623 53.9404133,39.9663623 L107.280154,39.9663623 C107.545548,39.9663623 107.760692,40.1815066 107.760692,40.4469005 C107.760692,40.7122944 107.545548,40.9274387 107.280154,40.9274387 Z" id="Shape" fill="#18181B"></path>
                    <line x1="53.9163864" y1="45.4396925" x2="107.289765" y2="45.4396925" id="Shape" fill="#FFFFFF"></line>
                    <path d="M107.280154,45.9202307 L53.9404133,45.9202307 C53.6750193,45.9202307 53.4598751,45.7050864 53.4598751,45.4396925 C53.4598751,45.1742985 53.6750193,44.9591543 53.9404133,44.9591543 L107.280154,44.9591543 C107.545548,44.9591543 107.760692,45.1742985 107.760692,45.4396925 C107.760692,45.7050864 107.545548,45.9202307 107.280154,45.9202307 Z" id="Shape" fill="#18181B"></path>
                    <line x1="53.9163864" y1="50.4324844" x2="107.289765" y2="50.4324844" id="Shape" fill="#FFFFFF"></line>
                    <path d="M107.280154,50.9130226 L53.9404133,50.9130226 C53.6750193,50.9130226 53.4598751,50.6978783 53.4598751,50.4324844 C53.4598751,50.1670905 53.6750193,49.9519462 53.9404133,49.9519462 L107.280154,49.9519462 C107.545548,49.9519462 107.760692,50.1670905 107.760692,50.4324844 C107.760692,50.6978783 107.545548,50.9130226 107.280154,50.9130226 Z" id="Shape" fill="#18181B"></path>
                    <line x1="0.480538203" y1="12.2441134" x2="122.787122" y2="12.2441134" id="Shape" fill="#FFFFFF"></line>
                    <path d="M122.787122,12.7246516 L0.480538203,12.7246516 C0.215144282,12.7246516 0,12.5095073 0,12.2441134 C0,11.9787195 0.215144282,11.7635752 0.480538203,11.7635752 L122.787122,11.7635752 C123.052515,11.7635752 123.26766,11.9787195 123.26766,12.2441134 C123.26766,12.5095073 123.052515,12.7246516 122.787122,12.7246516 Z" id="Shape" fill="#18181B"></path>
                    <circle id="Shape" fill="#FFFFFF" cx="10.2787122" cy="6.55454109" r="2.65737626"></circle>
                    <path d="M10.2787122,9.69726093 C9.00760063,9.69726093 7.86165094,8.93156182 7.37521762,7.7572079 C6.88878429,6.58285398 7.15766206,5.23111415 8.05647364,4.33230257 C8.95528522,3.43349099 10.3070251,3.16461322 11.481379,3.65104654 C12.6557329,4.13747986 13.421432,5.28342956 13.421432,6.55454109 C13.421432,8.29021733 12.0143884,9.69726093 10.2787122,9.69726093 Z M10.2787122,4.37769772 C9.39588292,4.37769772 8.60007423,4.90976697 8.26268078,5.72558136 C7.92528733,6.54139575 8.11282192,7.48013533 8.73776435,8.10370123 C9.36270677,8.72726713 10.3018576,8.91273129 11.116926,8.57353973 C11.9319945,8.23434817 12.4623002,7.43736818 12.4603609,6.55454109 C12.4603609,5.97637419 12.2303527,5.42195742 11.8210765,5.01358268 C11.4118002,4.60520794 10.8568776,4.37642672 10.2787122,4.37769772 Z" id="Shape" fill="#18181B"></path>
                    <circle id="Shape" fill="#FFFFFF" cx="17.5588659" cy="6.55454109" r="2.65737626"></circle>
                    <path d="M17.5588659,9.69726093 C16.2877544,9.69726093 15.1418047,8.93156182 14.6553714,7.7572079 C14.1689381,6.58285398 14.4378158,5.23111415 15.3366274,4.33230257 C16.235439,3.43349099 17.5871788,3.16461322 18.7615327,3.65104654 C19.9358867,4.13747986 20.7015858,5.28342956 20.7015858,6.55454109 C20.7015858,8.29021733 19.2945422,9.69726093 17.5588659,9.69726093 Z M17.5588659,4.37769772 C16.6760367,4.37769772 15.880228,4.90976697 15.5428346,5.72558136 C15.2054411,6.54139575 15.3929757,7.48013533 16.0179181,8.10370123 C16.6428605,8.72726713 17.5820114,8.91273129 18.3970798,8.57353973 C19.2121482,8.23434817 19.7424539,7.43736818 19.7405147,6.55454109 C19.7405147,5.97637419 19.5105065,5.42195742 19.1012302,5.01358268 C18.691954,4.60520794 18.1370314,4.37642672 17.5588659,4.37769772 Z" id="Shape" fill="#18181B"></path>
                    <circle id="Shape" fill="#FFFFFF" cx="24.8390197" cy="6.55454109" r="2.65737626"></circle>
                    <path d="M24.8390197,9.69726461 C23.1046044,9.69195689 21.7023838,8.28257328 21.7059105,6.5481535 C21.7094505,4.81373371 23.1174018,3.41007495 24.8518243,3.4118359 C26.5862467,3.41360017 27.9913503,4.8201177 27.9913503,6.55454109 C27.9900768,7.38931698 27.6572415,8.18939662 27.0660647,8.77877113 C26.4748878,9.36814564 25.6737956,9.69853637 24.8390197,9.69726461 Z M24.8390197,4.37768181 C23.6347719,4.38301103 22.662588,5.36307933 22.666992,6.56733068 C22.6714259,7.77158204 23.6507762,8.74448925 24.8550305,8.74096892 C26.0592848,8.73742944 27.0329148,7.75879766 27.0302793,6.55454109 C27.0290032,5.97509745 26.7972705,5.41996261 26.3861909,5.01158756 C25.9751114,4.60321252 25.4184591,4.37514901 24.8390197,4.37768181 Z" id="Shape" fill="#18181B"></path>
                </g>
                <g id="Element" transform="translate(305.674195, 0.000000)">
                    <rect id="Shape" fill="#FFFFFF" x="0.475732821" y="0.480538203" width="72.4795771" height="72.4795771" rx="6"></rect>
                    <path d="M67.1744354,73.4406535 L6.24699664,73.4406535 C2.79687566,73.4406535 0,70.6437779 0,67.1936569 L0,6.24699664 C0,2.79687566 2.79687566,0 6.24699664,0 L67.1744354,0 C70.6245563,0 73.421432,2.79687566 73.421432,6.24699664 L73.421432,67.1936569 C73.421432,70.6437779 70.6245563,73.4406535 67.1744354,73.4406535 Z M6.24699664,0.961076406 C3.3276635,0.961076406 0.961076406,3.3276635 0.961076406,6.24699664 L0.961076406,67.1936569 C0.961076406,70.11299 3.3276635,72.4795771 6.24699664,72.4795771 L67.1744354,72.4795771 C70.0937685,72.4795771 72.4603556,70.11299 72.4603556,67.1936569 L72.4603556,6.24699664 C72.4603556,3.3276635 70.0937685,0.961076406 67.1744354,0.961076406 L6.24699664,0.961076406 Z" id="Shape" fill="#18181B"></path>
                    <path d="M55.3820279,53.3637789 C55.2096661,53.3644517 55.0501398,53.2727699 54.9639596,53.1234983 L36.7035079,21.5185007 L18.4430562,53.1234983 C18.3788429,53.2338992 18.2733219,53.314196 18.1497981,53.3466548 C18.0262743,53.3791136 17.8949105,53.3610639 17.7847189,53.2964921 C17.557661,53.1628971 17.4804987,52.8713951 17.6117251,52.6429601 L36.2998558,20.3219606 C36.3851808,20.171403 36.5448693,20.0783526 36.7179241,20.0783526 C36.8909788,20.0783526 37.0506674,20.171403 37.1359923,20.3219606 L55.7952907,52.6477655 C55.9265171,52.8762005 55.8493548,53.1677024 55.622297,53.3012975 C55.5490616,53.3428066 55.4662068,53.3643488 55.3820279,53.3637789 Z" id="Shape" fill="#8348FF"></path>
                    <path d="M46.4296012,37.861605 L27.006247,37.861605 C26.7408531,37.861605 26.5257088,37.6464607 26.5257088,37.3810668 C26.5257088,37.1156729 26.7408531,36.9005286 27.006247,36.9005286 L46.4296012,36.9005286 C46.6949951,36.9005286 46.9101394,37.1156729 46.9101394,37.3810668 C46.9101394,37.6464607 46.6949951,37.861605 46.4296012,37.861605 L46.4296012,37.861605 Z" id="Shape" fill="#8348FF"></path>
                </g>
                <g id="Element" transform="translate(342.442576, 255.427679)">
                    <path d="M6.47092744,0.485343585 L87.7049495,0.485343585 C91.018658,0.485343585 93.7049495,3.17163509 93.7049495,6.48534358 L93.7049495,136.854397 C93.7049495,140.168105 91.018658,142.854397 87.7049495,142.854397 L6.47092744,142.854397 C3.15721894,142.854397 0.470927439,140.168105 0.470927439,136.854397 L0.470927439,6.48534358 C0.470927439,3.17163509 3.15721894,0.485343585 6.47092744,0.485343585 Z" id="Shape" fill="#FFFFFF"></path>
                    <path d="M87.9384911,143.334935 L6.24699664,143.334935 C2.79687566,143.334935 0,140.538059 0,137.087938 L0,6.24699664 C0,2.79687566 2.79687566,0 6.24699664,0 L87.9384911,0 C91.3886121,0 94.1854896,2.79687566 94.1854896,6.24699664 L94.1854896,137.083133 C94.1867629,138.740772 93.529162,140.330955 92.3574846,141.503534 C91.1858073,142.676112 89.5961306,143.334935 87.9384911,143.334935 L87.9384911,143.334935 Z M6.23738587,0.961076406 C3.31805274,0.961076406 0.951465642,3.3276635 0.951465642,6.24699664 L0.951465642,137.083133 C0.951465642,140.002466 3.31805274,142.369053 6.23738587,142.369053 L87.9288803,142.369053 C90.8482135,142.369053 93.2148006,140.002466 93.2148006,137.083133 L93.2148006,6.24699664 C93.2148006,3.3276635 90.8482135,0.961076406 87.9288803,0.961076406 L6.23738587,0.961076406 Z" id="Shape" fill="#18181B"></path>
                    <line x1="15.8000961" y1="32.6189332" x2="46.314272" y2="32.6189332" id="Shape" fill="#FFFFFF"></line>
                    <path d="M46.314272,33.0994714 L15.8000961,33.0994714 C15.5347022,33.0994714 15.3195579,32.8843271 15.3195579,32.6189332 C15.3195579,32.3535393 15.5347022,32.138395 15.8000961,32.138395 L46.314272,32.138395 C46.5796659,32.138395 46.7948102,32.3535393 46.7948102,32.6189332 C46.7948102,32.8843271 46.5796659,33.0994714 46.314272,33.0994714 Z" id="Shape" fill="#18181B"></path>
                    <line x1="15.8000961" y1="65.8481499" x2="61.9894282" y2="65.8481499" id="Shape" fill="#FFFFFF"></line>
                    <path d="M61.9894282,66.314272 L15.8000961,66.314272 C15.5347022,66.314272 15.3195579,66.0991277 15.3195579,65.8337338 C15.3195579,65.5683399 15.5347022,65.3531956 15.8000961,65.3531956 L61.9894282,65.3531956 C62.2548221,65.3531956 62.4699664,65.5683399 62.4699664,65.8337338 C62.4699664,66.0991277 62.2548221,66.314272 61.9894282,66.314272 Z" id="Shape" fill="#18181B"></path>
                    <line x1="15.8000961" y1="99.0773667" x2="77.3137914" y2="99.0773667" id="Shape" fill="#FFFFFF"></line>
                    <path d="M77.3137914,99.5579049 L15.8049015,99.5579049 C15.5395076,99.5579049 15.3243633,99.3427606 15.3243633,99.0773667 C15.3243633,98.8119727 15.5395076,98.5968284 15.8049015,98.5968284 L77.3137914,98.5968284 C77.5791854,98.5968284 77.7943296,98.8119727 77.7943296,99.0773667 C77.7943296,99.3427606 77.5791854,99.5579049 77.3137914,99.5579049 Z" id="Shape" fill="#18181B"></path>
                    <polygon id="Shape" fill="#3EEE91" points="19.8942816 27.7751081 17.4915906 27.7751081 17.4915906 17.7799135 15.9298414 18.3709755 15.9298414 15.8000961 17.8519942 14.9351273 19.9183085 14.9351273"></polygon>
                    <path d="M19.8942816,28.2556463 L17.4915906,28.2556463 C17.2261967,28.2556463 17.0110524,28.040502 17.0110524,27.7751081 L17.0110524,18.4718885 L16.1028352,18.817876 C15.9535306,18.8740186 15.7860979,18.8524144 15.6559346,18.7602114 C15.5267361,18.6705828 15.449562,18.5234136 15.4493032,18.3661701 L15.4493032,15.7952907 C15.4496972,15.6064875 15.5606155,15.43541 15.7328208,15.358001 L17.6549736,14.4930322 C17.7168478,14.4648395 17.7840005,14.4500987 17.8519942,14.4497838 L19.9183085,14.4497838 C20.1837024,14.4497838 20.3988471,14.664928 20.3988471,14.930322 L20.3988471,27.7751081 C20.3990115,27.9068291 20.3450987,28.032843 20.2497145,28.1236851 C20.1543303,28.2145272 20.0258379,28.2622325 19.8942816,28.2556463 Z M17.9721288,27.2945699 L19.4137434,27.2945699 L19.4137434,15.4108602 L17.9288803,15.4108602 L16.3911581,16.1076406 L16.3911581,17.6693897 L17.3041807,17.3234022 C17.4520854,17.2689621 17.6172838,17.2905098 17.7462758,17.3810668 C17.8754744,17.4706955 17.9526485,17.6178647 17.9529073,17.7751081 L17.9721288,27.2945699 Z" id="Shape" fill="#18181B"></path>
                    <path d="M16.2469966,60.0961076 L20.653532,54.3008169 C20.8503873,54.0588122 21.0121572,53.7902742 21.1340702,53.5031235 C21.2348875,53.2606008 21.2902686,53.0016126 21.2974531,52.7390678 L21.2974531,52.7390678 C21.3137577,52.4342364 21.189866,52.1386662 20.9610764,51.936569 C20.6849239,51.7301858 20.3439538,51.6295996 20,51.6530514 C19.6381977,51.641834 19.2887182,51.7851206 19.0389236,52.0470927 C18.770561,52.3593558 18.6118996,52.7509457 18.5872177,53.1619414 L18.5872177,53.1619414 L16.1076406,53.1619414 L16.1076406,53.1619414 C16.1390097,52.4380875 16.3363021,51.7311233 16.6842864,51.0956271 C16.9988993,50.5351771 17.4674898,50.076592 18.0345988,49.774147 C18.6400321,49.461879 19.3141595,49.3065653 19.9951946,49.3224411 C20.6991447,49.3037226 21.3989003,49.4364631 22.0470927,49.7116771 C22.5871033,49.9524208 23.0400473,50.3533601 23.3445459,50.8601634 C23.6555274,51.4104015 23.8100712,52.035224 23.7914464,52.666987 L23.7914464,52.666987 C23.7900722,53.2598229 23.6876941,53.8480906 23.4887074,54.4065353 C23.2886488,54.9679037 22.9998632,55.4935584 22.6333494,55.9634791 L19.471408,59.9567516 L23.8635272,59.9567516 L23.8635272,62.2873618 L16.2469966,62.2873618 L16.2469966,60.0961076 Z" id="Shape" fill="#3EEE91"></path>
                    <path d="M23.8443056,62.7582893 L16.2469966,62.7582893 C15.9816027,62.7582893 15.7664584,62.543145 15.7664584,62.2777511 L15.7664584,60.0961076 C15.7664584,59.9921335 15.8001816,59.890964 15.8625661,59.8077847 L20.2739068,54.012494 C20.4379304,53.8029412 20.5721534,53.5716895 20.6727535,53.3253244 C20.7524962,53.1398073 20.7965148,52.9409085 20.8024988,52.7390678 C20.8314308,52.560742 20.768133,52.3798912 20.6343104,52.2585296 C20.4453477,52.1301962 20.217974,52.0708075 19.9903892,52.0903412 C19.7587394,52.077048 19.5326744,52.16467 19.370495,52.3306103 C19.1770889,52.5680508 19.0643203,52.8609123 19.0485344,53.1667468 C19.0284493,53.4170216 18.8190743,53.6096465 18.5679962,53.6088419 L16.088419,53.6088419 C15.8230251,53.6088419 15.6078808,53.3936976 15.6078808,53.1283037 C15.638635,52.3165375 15.8591698,51.5232706 16.251802,50.8121096 C16.6107827,50.1762768 17.1421852,49.6548693 17.7847189,49.308025 C18.4620484,48.9603844 19.2147544,48.7854133 19.9759731,48.7986545 C20.7500624,48.7789511 21.5191471,48.9281765 22.2296973,49.2359443 C22.8566909,49.5152966 23.3832158,49.9797788 23.7385872,50.5670351 C24.0926023,51.193576 24.2702866,51.904313 24.2527631,52.6237386 C24.2536137,53.2787576 24.1414447,53.9290127 23.9211917,54.5458914 C23.7048945,55.1573486 23.3917574,55.730081 22.993753,56.2421913 L20.4469005,59.4569918 L23.8443056,59.4569918 C24.1096995,59.4569918 24.3248438,59.6721361 24.3248438,59.93753 L24.3248438,62.2681403 C24.3274264,62.3972439 24.2779408,62.5219543 24.187541,62.6141621 C24.0971412,62.70637 23.9734351,62.7582893 23.8443056,62.7582893 Z M16.7275348,61.7972129 L23.3637674,61.7972129 L23.3637674,60.427679 L19.4521864,60.427679 C19.2683843,60.4268347 19.1011651,60.3212186 19.0214281,60.1556108 C18.941691,59.9900031 18.9634062,59.7934186 19.0773667,59.6492071 L22.239308,55.6559346 C22.5756771,55.2210637 22.8386403,54.7340949 23.0177799,54.21432 C23.1974893,53.7081835 23.2901034,53.1752461 23.2916867,52.6381547 C23.311384,52.0894916 23.18007,51.545951 22.9120615,51.0667948 C22.6614746,50.6390943 22.2810457,50.3024315 21.8260452,50.1057184 C21.2412508,49.8592204 20.6103259,49.7412293 19.9759731,49.7597309 C19.374206,49.7472719 18.7785645,49.88257 18.2412302,50.1537722 C17.7540344,50.414571 17.3520487,50.8098847 17.0831331,51.2926478 C16.8401919,51.7105934 16.6772329,52.1701379 16.6025949,52.6477655 L18.1451225,52.6477655 C18.2222817,52.2922166 18.3875171,51.9617457 18.6256607,51.6866891 C18.9687842,51.3258417 19.449437,51.1283371 19.9471408,51.1436809 C20.4017807,51.1212398 20.849631,51.2608737 21.2109563,51.5377222 C21.5500628,51.8308767 21.7374882,52.2623089 21.7203268,52.7102355 C21.715664,53.0401323 21.6488222,53.36619 21.5233061,53.6713119 C21.3900156,53.999561 21.2103923,54.3070244 20.9899087,54.5843345 L16.6650649,60.2498799 L16.7275348,61.7972129 Z" id="Shape" fill="#18181B"></path>
                    <path d="M17.9529073,94.3488707 C17.3655931,94.0790075 16.8660302,93.6493834 16.5112926,93.1090822 C16.1412858,92.5348976 15.9367699,91.8698052 15.9202307,91.1869294 L18.4190293,91.1869294 C18.4473571,91.4257056 18.5277352,91.6553572 18.654493,91.8596828 C18.7739031,92.0423415 18.9397532,92.1899481 19.1350312,92.2873618 C19.7069035,92.5451837 20.3760084,92.4517332 20.855358,92.0470927 C21.1202066,91.7515192 21.255253,91.3619622 21.2301778,90.9658818 L21.2301778,90.6631427 C21.2550382,90.2637866 21.1487311,89.8672442 20.9274387,89.5338779 C20.7192243,89.2679048 20.3950757,89.1192621 20.0576646,89.1350312 L18.9716482,89.1350312 L18.9716482,86.804421 L20.0576646,86.804421 C20.3390086,86.8162753 20.6070307,86.6840752 20.7688611,86.4536281 C20.9495564,86.1668265 21.0368596,85.8310448 21.018741,85.4925517 L21.018741,85.2715041 C21.0405507,84.9433277 20.9414015,84.6185285 20.7400288,84.3584815 C20.5428414,84.135713 20.2536029,84.0168236 19.9567516,84.0365209 C19.7463389,84.0359755 19.5399587,84.094228 19.3608842,84.2047093 C19.1726524,84.3247788 19.0173862,84.4899556 18.9091783,84.6852475 C18.7753937,84.9234808 18.6858506,85.1839696 18.6448823,85.4541086 L16.150889,85.4541086 C16.2014814,84.7379708 16.4186911,84.0435579 16.7851994,83.4262374 C17.1148639,82.8769645 17.5884556,82.4282987 18.1547333,82.1287842 C18.7394898,81.8263958 19.3898,81.6728962 20.0480538,81.6818837 C21.0067019,81.620721 21.9519064,81.9323458 22.6862086,82.5516579 C23.3357466,83.2038635 23.6750691,84.1028933 23.6184527,85.0216242 L23.6184527,85.4108602 C23.6546385,86.5453219 22.9532982,87.5730477 21.8837098,87.9529073 C22.4716817,88.0718344 22.9894024,88.4169815 23.3253244,88.9139837 C23.6803334,89.490716 23.8575035,90.1592825 23.8346949,90.8361365 L23.8346949,91.2253724 C23.8532943,91.8932709 23.7011275,92.554866 23.3925997,93.1475252 C23.0974019,93.6752103 22.6457584,94.0983112 22.0999519,94.3584815 C21.4609257,94.648986 20.7641842,94.7903062 20.06247,94.7717444 C19.3364587,94.7908792 18.6154516,94.6463493 17.9529073,94.3488707 Z" id="Shape" fill="#3EEE91"></path>
                    <path d="M20.0288323,95.2522826 C19.2419074,95.2618318 18.4625559,95.0977578 17.7462758,94.7717444 L17.7462758,94.7717444 C17.0781294,94.466744 16.5087995,93.9806494 16.1028352,93.3685728 C15.6831962,92.718387 15.4504581,91.9653129 15.4300817,91.1917347 C15.4241391,91.0597451 15.4728037,90.9311316 15.5646324,90.8361365 C15.6548817,90.7414631 15.7798233,90.6876688 15.9106199,90.6871696 L18.4094185,90.6871696 C18.6506161,90.6847957 18.8561991,90.8615972 18.8899568,91.1004325 C18.9088318,91.2705857 18.9645884,91.4345754 19.0533397,91.5809707 C19.1213023,91.6908884 19.2175659,91.7805132 19.3320519,91.8404613 C19.4682614,91.9058857 19.618333,91.9372193 19.7693417,91.9317636 C20.0324136,91.9540799 20.2930812,91.8671907 20.490149,91.6914945 C20.6635521,91.4838525 20.7481506,91.2162449 20.7256127,90.9466603 L20.7256127,90.6439212 C20.7487955,90.3502115 20.676307,90.056886 20.5189813,89.8077847 C20.4057793,89.6594104 20.2243139,89.5795656 20.0384431,89.5963479 L18.9524267,89.5963479 C18.6870328,89.5963479 18.4718885,89.3812036 18.4718885,89.1158097 L18.4718885,86.7851994 C18.4718885,86.5198055 18.6870328,86.3046612 18.9524267,86.3046612 L20.0384431,86.3046612 C20.1648135,86.3169291 20.2879497,86.2599556 20.3604037,86.1556944 C20.4791927,85.9435258 20.5342533,85.7015931 20.5189813,85.458914 L20.5189813,85.2378664 C20.5378259,85.0245711 20.479886,84.8115569 20.3555983,84.6371937 C20.2498498,84.5205406 20.0936627,84.4630925 19.93753,84.4834214 C19.816799,84.4809973 19.6980624,84.5144442 19.5963479,84.5795291 C19.4743094,84.6598469 19.3736944,84.7687091 19.3032196,84.8966843 C19.1993583,85.0865399 19.1294319,85.2930668 19.0965882,85.5069678 C19.056402,85.7400653 18.8525611,85.9092532 18.61605,85.9058145 L16.1220567,85.9058145 C15.9864593,85.905494 15.8573086,85.8478998 15.7664584,85.7472369 C15.6773382,85.6475215 15.633804,85.5151775 15.6463239,85.3820279 C15.703665,84.592012 15.9420799,83.8257956 16.3431043,83.1427198 C16.7222856,82.5212921 17.2617372,82.0133777 17.9048534,81.6722729 C18.5601088,81.3426201 19.2858505,81.1776788 20.0192215,81.1917347 C21.0993762,81.1305944 22.161461,81.4886392 22.9841422,82.1912542 C23.7333022,82.9326568 24.1286992,83.9596392 24.0701586,85.0120135 L24.0701586,85.4012494 C24.080882,86.0483357 23.8948789,86.6834276 23.5367612,87.2224892 C23.3667915,87.4707338 23.1611529,87.6925644 22.9264777,87.8808265 C23.229266,88.0843504 23.4889118,88.3456293 23.6905334,88.6496877 C24.1027071,89.3079148 24.3085517,90.0743932 24.2815954,90.8505526 L24.2815954,91.2397886 C24.3019548,91.9873726 24.1281086,92.7274607 23.7770303,93.3877943 C23.4365303,94.0021438 22.9122556,94.4944915 22.2777511,94.7957713 C21.5735044,95.1198172 20.8036889,95.2760831 20.0288323,95.2522826 Z M18.1547333,93.911581 C18.7442591,94.1733235 19.383919,94.3028957 20.0288323,94.2912062 C20.6572443,94.3084709 21.2814451,94.1836307 21.8548775,93.9259971 C22.3131318,93.7104121 22.6915486,93.3555412 22.9360884,92.9120615 C23.2066116,92.3937762 23.3390121,91.814524 23.320519,91.2301778 L23.320519,90.8217203 C23.3462938,90.2358031 23.1974384,89.6554345 22.89284,89.1542528 C22.6308713,88.7542467 22.2184579,88.476994 21.7491591,88.3853916 C21.5421869,88.3392808 21.3899036,88.1629602 21.3744026,87.9514811 C21.3589015,87.7400021 21.4838472,87.543361 21.6818837,87.4675637 C22.110851,87.3146583 22.4807508,87.0305079 22.7390678,86.6554541 C22.9928871,86.2766864 23.1222328,85.8281761 23.1090822,85.3724171 L23.1090822,84.9831812 C23.1676071,84.1966335 22.8818142,83.4234146 22.3258049,82.8640077 C21.6796706,82.3318049 20.8543774,82.0670233 20.0192215,82.1239789 C19.4399287,82.1153826 18.8673726,82.249034 18.351754,82.5132148 C17.8614757,82.7734842 17.4511962,83.16217 17.1648246,83.6376742 C16.9280702,84.0378111 16.7652942,84.4773065 16.6842864,84.9351273 L18.2460356,84.9351273 C18.2998838,84.7489948 18.3757018,84.5699354 18.4718885,84.4017299 C18.6215119,84.1374174 18.8345407,83.9144802 19.0917828,83.7530034 C19.3452018,83.5943143 19.6385311,83.5109821 19.93753,83.5127343 C20.3733571,83.4908345 20.7956482,83.6675253 21.0860163,83.9932725 C21.3613487,84.340573 21.5013547,84.7759577 21.4800577,85.2186449 L21.4800577,85.4396925 C21.5005522,85.8846893 21.3812475,86.3249406 21.1388755,86.6987025 C20.8873285,87.0545103 20.473972,87.260286 20.0384431,87.2465161 L19.4329649,87.2465161 L19.4329649,88.61605 L20.0384431,88.61605 C20.5252781,88.597591 20.9909005,88.8160753 21.2878424,89.2023066 C21.5799482,89.6241239 21.7220833,90.1317494 21.6914945,90.6439212 L21.6914945,90.9466603 C21.7226874,91.4761742 21.539052,91.995897 21.182124,92.3882749 C20.5554992,92.944151 19.6584528,93.0744588 18.8995675,92.7198462 C18.6363635,92.5815077 18.4130134,92.378011 18.2508409,92.1287842 C18.1599386,91.9777576 18.0873467,91.8164422 18.0345988,91.648246 L16.4536281,91.648246 C16.5267667,92.0737916 16.6906588,92.4786051 16.9341663,92.8351754 C17.2396145,93.303316 17.673344,93.6736543 18.1835656,93.9019702 L18.1547333,93.911581 Z" id="Shape" fill="#18181B"></path>
                </g>
                <path d="M102.043832,26.4530595 L102.121996,26.4586929 C102.216842,26.4669299 102.297385,26.4674025 102.360927,26.4588884 L102.418702,26.4473334 C102.598279,26.3978203 102.76429,26.4441806 102.852001,26.5602355 L102.884608,26.614164 C102.917274,26.6863682 102.980855,26.7306818 103.108579,26.7660212 L103.17794,26.7830307 C103.320578,26.8132191 103.362184,26.8344898 103.397148,26.914266 L103.419653,26.9744114 L103.419653,26.9744114 L103.43536,27.0392434 L103.43536,27.0392434 L103.442576,27.1362671 L103.442576,27.1362671 L103.44032,27.2986914 L103.44032,27.2986914 L103.386808,28.2088133 L103.386808,28.2088133 L103.274727,30.0257196 L103.274727,30.0257196 L103.224069,30.9849774 L103.224069,30.9849774 L103.159958,32.0284434 L103.159958,32.0284434 L103.128375,32.6531611 L103.128375,32.6531611 L103.106043,33.2453497 C103.103064,33.3426956 103.100448,33.4397051 103.098185,33.5368877 L103.088761,34.1261355 L103.088761,34.1261355 L103.087297,34.7439917 L103.087297,34.7439917 L103.093276,35.4149111 L103.093276,35.4149111 L103.121618,37.0159068 L103.121618,37.0159068 L103.140899,38.6154577 L103.140899,38.6154577 L103.143243,39.4332064 L103.143243,39.4332064 L103.136282,39.6668124 C103.129162,39.8156815 103.117349,39.9462205 103.10243,40.0308659 C103.055342,40.3068478 102.961153,40.5623205 102.879924,40.6318608 C102.843046,40.663103 102.827271,40.6852898 102.824003,40.7172404 L102.824587,40.7531425 C102.827206,40.7918757 102.82065,40.8221278 102.795567,40.8607819 L102.732932,40.9442789 L102.732932,40.9442789 L102.659897,41.0594001 L102.659897,41.0594001 L102.62703,41.1181781 C102.545329,41.2768544 102.409335,41.3986252 102.293126,41.4176894 C102.191456,41.4357373 102.172214,41.4361748 102.099301,41.3598843 L102.057741,41.3150713 C102.001322,41.2556827 101.93012,41.1880489 101.896565,41.1667118 C101.819555,41.1147125 101.717801,40.9700508 101.650959,40.821783 L101.536197,40.5404269 L101.536197,40.5404269 L101.45773,40.3679601 L101.45773,40.3679601 L101.393523,40.2146432 L101.393523,40.2146432 L101.334029,40.0518273 C101.324463,40.02369 101.31506,39.9949996 101.305805,39.9656774 L101.251911,39.7815338 C101.24318,39.7493699 101.234564,39.7164169 101.226046,39.6825962 L101.175987,39.4686295 L101.175987,39.4686295 L101.127506,39.2300611 L101.127506,39.2300611 L101.079816,38.9631154 L101.079816,38.9631154 L101.032134,38.6640166 L101.032134,38.6640166 L100.983676,38.3289891 L100.983676,38.3289891 L100.907817,37.7508219 L100.907817,37.7508219 L100.835944,37.1579805 L100.835944,37.1579805 L100.754016,36.4448567 L100.754016,36.4448567 L100.683245,35.7817487 L100.683245,35.7817487 L100.622991,35.159868 C100.613789,35.0591686 100.604999,34.9598208 100.596606,34.8616415 L100.550922,34.2851235 L100.550922,34.2851235 L100.514149,33.7278616 C100.508727,33.6361011 100.503649,33.5447767 100.498903,33.4537053 L100.474293,32.9088493 L100.474293,32.9088493 L100.456989,32.3612781 C100.454678,32.2693017 100.452645,32.176846 100.450876,32.0837279 L100.442576,31.3924519 L100.442576,31.3924519 L100.443855,30.7546563 L100.443855,30.7546563 L100.456517,30.2550583 L100.456517,30.2550583 L100.484585,29.6626034 L100.484585,29.6626034 L100.625593,27.4599439 L100.625593,27.4599439 L100.645647,27.220439 L100.645647,27.220439 L100.663178,27.0803832 L100.663178,27.0803832 L100.67697,27.017002 L100.67697,27.017002 L100.699288,26.9565706 L100.699288,26.9565706 C100.775266,26.7883891 100.879934,26.6454971 100.947412,26.6213361 L100.976881,26.6126047 L100.976881,26.6126047 L101.076576,26.5923906 L101.076576,26.5923906 L101.21825,26.570397 L101.21825,26.570397 L101.47702,26.5390284 C101.507311,26.5358872 101.537806,26.532908 101.568196,26.530138 L101.690405,26.51305 C101.730948,26.5059785 101.769304,26.4978936 101.799483,26.4898819 L101.837873,26.4780552 C101.89401,26.4553845 101.949915,26.448384 102.043832,26.4530595 L102.043832,26.4530595 Z M86.8959167,39.4313195 L86.8542567,39.4382217 C86.8222581,39.446812 86.7563545,39.4503331 86.6896516,39.4495398 L86.6239084,39.4473364 C86.5556504,39.4414855 86.4840802,39.4443724 86.4276944,39.4551312 L86.3350927,39.4796476 L86.3350927,39.4796476 L86.2096924,39.5044752 C86.1858958,39.5085628 86.1612215,39.5125161 86.1365254,39.5161713 L85.8985367,39.5451134 C85.6878026,39.5729539 85.628632,39.6038947 85.5617294,39.7230175 L85.514234,39.8164304 L85.514234,39.8164304 L85.4425757,39.965612 L85.465865,40.1923411 C85.4876049,40.4066803 85.5350826,40.5882192 85.6404765,40.8423888 L85.6981488,40.9760142 C85.7382338,41.0671204 85.7916387,41.1973998 85.8322967,41.304487 L85.8677403,41.4015338 C85.946496,41.6261589 86.0121491,41.7406766 86.1444142,41.870359 L86.2818046,41.9975854 L86.2818046,41.9975854 L86.4174167,42.1348106 L86.4174167,42.1348106 L86.5093809,42.2387913 L86.5093809,42.2387913 L86.5776406,42.3065929 L86.5776406,42.3065929 L86.6771907,42.3905098 L86.6771907,42.3905098 L86.8296459,42.5078381 L86.8296459,42.5078381 L87.4939395,42.9980962 L87.4939395,42.9980962 L87.8348796,43.2616639 L87.8348796,43.2616639 L88.1250036,43.4937724 L88.1250036,43.4937724 L88.7029989,43.9696189 L88.7029989,43.9696189 L89.7863997,44.8841604 C90.44738,45.4468035 91.1454755,46.0064889 91.770855,46.4751632 L92.2321334,46.814521 L92.2321334,46.814521 L92.7699742,47.2001294 L92.7699742,47.2001294 L93.0859718,47.4204628 L93.0859718,47.4204628 L93.3719452,47.6139592 L93.3719452,47.6139592 L93.6313453,47.7828076 L93.6313453,47.7828076 L93.867623,47.9291973 L93.867623,47.9291973 L94.0842292,48.0553173 C94.1188827,48.0747698 94.1528603,48.093469 94.1862339,48.1114604 L94.3798035,48.2112806 C94.4110489,48.2266235 94.4418341,48.2413498 94.472231,48.2555052 L94.6515687,48.3363163 C94.9968598,48.4840438 95.0771706,48.4535592 95.2103572,48.2380346 L95.2649255,48.1405323 L95.2649255,48.1405323 L95.2997662,48.0683491 C95.3031796,48.0598736 95.3052088,48.0535368 95.3055729,48.0498807 C95.3076221,48.0293004 95.324457,47.9918779 95.3444745,47.9663747 C95.3995516,47.8962297 95.4560758,47.6575474 95.4397017,47.5586974 C95.4370115,47.5396809 95.4287098,47.5177533 95.4116305,47.4885712 L95.3648302,47.4192472 L95.3648302,47.4192472 L95.2889943,47.3228559 L95.2889943,47.3228559 L95.1784939,47.1916755 L95.1784939,47.1916755 L95.0033426,46.9904521 L95.0033426,46.9904521 L94.7448128,46.70349 L94.7448128,46.70349 L94.2931074,46.2170821 L94.2931074,46.2170821 L93.8554279,45.7604271 L93.8554279,45.7604271 L92.0245685,43.9113101 L92.0245685,43.9113101 L90.4633212,42.303276 L90.4633212,42.303276 L90.0834118,41.9168801 L90.0834118,41.9168801 L89.4912007,41.3289846 L89.4912007,41.3289846 L89.0462215,40.9061054 L89.0462215,40.9061054 L88.6321806,40.5278021 L88.6321806,40.5278021 L88.2632884,40.204136 L88.2632884,40.204136 L88.0390955,40.0171751 L88.0390955,40.0171751 L87.9235238,39.9268665 C87.9068509,39.9143915 87.8915384,39.9032622 87.8776853,39.893565 L87.6973041,39.7786687 L87.6973041,39.7786687 L87.37161,39.5533899 C87.2390767,39.4578106 87.2054128,39.4448346 87.077681,39.4329596 C87.0176856,39.4263037 86.946006,39.4261489 86.8959167,39.4313195 L86.8959167,39.4313195 Z M84.6411004,54.5351699 C83.2830343,54.4219908 82.0831306,54.3999303 80.5957611,54.4607735 L79.878394,54.495112 C79.8062519,54.4991888 79.736296,54.5033862 79.6681904,54.5077377 L79.2790759,54.5359649 L79.2790759,54.5359649 L78.9182562,54.5695006 C78.8595823,54.5756216 78.8014158,54.5820309 78.7434212,54.5887619 L78.3948295,54.6332769 C78.3361793,54.6414289 78.2770294,54.6499697 78.2170442,54.6589328 L77.8444233,54.718047 L77.8444233,54.718047 L77.2717862,54.8186919 L77.2717862,54.8186919 L76.4123687,54.9814195 L76.4123687,54.9814195 L75.8263359,55.1021564 L75.8263359,55.1021564 L75.4615113,55.1839598 L75.4615113,55.1839598 L75.2593989,55.233172 L75.2593989,55.233172 L75.093612,55.2774057 L75.093612,55.2774057 L74.9671014,55.3160437 L74.9671014,55.3160437 L74.8828177,55.3484689 L74.8828177,55.3484689 C74.7483467,55.4120315 74.6373923,55.5391057 74.5343937,55.7482343 C74.4829095,55.8526442 74.4646618,55.9217669 74.4497667,56.0964631 C74.4259168,56.3596042 74.4584897,56.5457163 74.5913317,56.8629571 L74.6459332,56.9884756 C74.6927697,57.09425 74.7567537,57.2584506 74.7864457,57.3523107 C74.8405553,57.5199287 74.9411125,57.6840918 75.0694904,57.818682 L75.1497067,57.8956785 C75.1987835,57.9379464 75.2693814,58.0101985 75.3284103,58.0756643 L75.3823573,58.137506 C75.5987655,58.3981565 75.7512136,58.4777079 76.2255375,58.3982166 L76.4333483,58.3579901 L76.4333483,58.3579901 L76.68098,58.3011127 L76.68098,58.3011127 L77.5371446,58.0862641 L77.5371446,58.0862641 L78.0253107,57.9686125 C78.1015532,57.9507949 78.1755205,57.9338209 78.2476389,57.9176128 L78.6615699,57.828931 C78.7279967,57.8154748 78.7934269,57.8026287 78.8582864,57.790315 L79.2440055,57.7221984 L79.2440055,57.7221984 L79.6364852,57.6631227 L79.6364852,57.6631227 L80.0561803,57.6093525 C80.1295338,57.6006254 80.2048735,57.5919637 80.2826257,57.5832896 L80.7814964,57.5304738 L80.7814964,57.5304738 C81.9376442,57.4152656 83.0121617,57.3539723 84.3258955,57.3313211 L85.9509743,57.314716 L85.9509743,57.314716 L86.6674689,57.2999605 L86.6674689,57.2999605 L87.0991177,57.2858869 L87.0991177,57.2858869 L87.496384,57.2682686 L87.496384,57.2682686 L87.8613495,57.2469725 L87.8613495,57.2469725 L88.1960962,57.2218652 L88.1960962,57.2218652 L88.5027059,57.1928138 L88.5027059,57.1928138 L88.7832604,57.1596849 L88.7832604,57.1596849 L89.0398416,57.1223454 C89.080723,57.1157638 89.1206923,57.1090013 89.1597928,57.102055 L89.3843175,57.0581498 L89.3843175,57.0581498 L89.5806832,57.0127464 C89.745448,56.9699983 89.8261056,56.9312375 89.9189153,56.8606552 C90.0052571,56.7974236 90.1722095,56.5386644 90.2189873,56.410016 L90.2310919,56.3637963 C90.2344327,56.3298342 90.2597768,56.2814865 90.2898611,56.25521 C90.3529187,56.196114 90.4483855,55.854097 90.4422983,55.7063872 C90.4383705,55.5832682 90.3724458,55.4853392 90.2587494,55.430742 C90.2280121,55.4175092 90.1834299,55.3896805 90.1414816,55.3591878 L90.0825944,55.3129423 C89.9732141,55.2233609 89.8055955,55.1554408 89.5351902,55.0943505 L89.3726105,55.0617415 L89.3726105,55.0617415 L88.911775,55.0008865 L88.911775,55.0008865 L86.9573578,54.7751102 L86.9573578,54.7751102 L85.2713272,54.5950393 L85.2713272,54.5950393 L84.6411004,54.5351699 L84.6411004,54.5351699 Z" id="Shape" fill="#8348FF"></path>
                <path d="M464.043832,392.454752 L464.121996,392.46076 C464.216842,392.469547 464.297385,392.470051 464.360927,392.460969 L464.418702,392.448644 C464.598279,392.39583 464.76429,392.445281 464.852001,392.569073 L464.884608,392.626596 C464.917274,392.703614 464.980855,392.750882 465.108579,392.788577 L465.17794,392.806721 C465.320578,392.838922 465.362184,392.861611 465.397148,392.946705 L465.419653,393.01086 L465.419653,393.01086 L465.43536,393.080014 L465.43536,393.080014 L465.442576,393.183506 L465.442576,393.183506 L465.44032,393.356759 L465.44032,393.356759 L465.386808,394.327556 L465.386808,394.327556 L465.274727,396.265589 L465.274727,396.265589 L465.224069,397.288797 L465.224069,397.288797 L465.159958,398.401828 L465.159958,398.401828 L465.128375,399.068193 L465.128375,399.068193 L465.106043,399.699861 C465.103064,399.803697 465.100448,399.907174 465.098185,400.010835 L465.088761,400.639366 L465.088761,400.639366 L465.087297,401.298413 L465.087297,401.298413 L465.093276,402.01406 L465.093276,402.01406 L465.121618,403.721789 L465.121618,403.721789 L465.140899,405.427976 L465.140899,405.427976 L465.143243,406.300242 L465.143243,406.300242 L465.136282,406.549421 C465.129162,406.708215 465.117349,406.847457 465.10243,406.937745 C465.055342,407.232126 464.961153,407.50463 464.879924,407.578806 C464.843046,407.612131 464.827271,407.635797 464.824003,407.669878 L464.824587,407.708173 C464.827206,407.749489 464.82065,407.781758 464.795567,407.822989 L464.732932,407.912052 L464.732932,407.912052 L464.659897,408.034848 L464.659897,408.034848 L464.62703,408.097545 C464.545329,408.266799 464.409335,408.396688 464.293126,408.417023 C464.191456,408.436275 464.172214,408.436741 464.099301,408.355365 L464.057741,408.307564 C464.001322,408.244216 463.93012,408.172074 463.896565,408.149314 C463.819555,408.093848 463.717801,407.939542 463.650959,407.78139 L463.536197,407.481277 L463.536197,407.481277 L463.45773,407.297312 L463.45773,407.297312 L463.393523,407.133774 L463.393523,407.133774 L463.334029,406.960104 C463.324463,406.930091 463.31506,406.899488 463.305805,406.868211 L463.251911,406.671791 C463.24318,406.637483 463.234564,406.602333 463.226046,406.566257 L463.175987,406.338026 L463.175987,406.338026 L463.127506,406.083553 L463.127506,406.083553 L463.079816,405.798811 L463.079816,405.798811 L463.032134,405.479772 L463.032134,405.479772 L462.983676,405.12241 L462.983676,405.12241 L462.907817,404.505698 L462.907817,404.505698 L462.835944,403.873334 L462.835944,403.873334 L462.754016,403.112669 L462.754016,403.112669 L462.683245,402.405353 L462.683245,402.405353 L462.622991,401.742014 C462.613789,401.634601 462.604999,401.52863 462.596606,401.423906 L462.550922,400.808953 L462.550922,400.808953 L462.514149,400.21454 C462.508727,400.116663 462.503649,400.01925 462.498903,399.922107 L462.474293,399.340927 L462.474293,399.340927 L462.456989,398.756851 C462.454678,398.658743 462.452645,398.560124 462.450876,398.460798 L462.442576,397.723437 L462.442576,397.723437 L462.443855,397.043121 L462.443855,397.043121 L462.456517,396.510217 L462.456517,396.510217 L462.484585,395.878265 L462.484585,395.878265 L462.625593,393.528762 L462.625593,393.528762 L462.645647,393.27329 L462.645647,393.27329 L462.663178,393.123897 L462.663178,393.123897 L462.67697,393.05629 L462.67697,393.05629 L462.699288,392.99183 L462.699288,392.99183 C462.775266,392.812436 462.879934,392.660018 462.947412,392.634247 L462.976881,392.624933 L462.976881,392.624933 L463.076576,392.603371 L463.076576,392.603371 L463.21825,392.579912 L463.21825,392.579912 L463.47702,392.546452 C463.507311,392.543101 463.537806,392.539923 463.568196,392.536969 L463.690405,392.518741 C463.730948,392.511198 463.769304,392.502575 463.799483,392.494029 L463.837873,392.481414 C463.89401,392.457231 463.949915,392.449764 464.043832,392.454752 L464.043832,392.454752 Z M448.041251,406.43132 L447.995425,406.438222 C447.960226,406.446812 447.887732,406.450333 447.814359,406.44954 L447.742042,406.447336 C447.666958,406.441486 447.588231,406.444372 447.526206,406.455131 L447.424344,406.479648 L447.424344,406.479648 L447.286404,406.504475 C447.260228,406.508563 447.233086,406.512516 447.20592,406.516171 L446.944133,406.545113 C446.712325,406.572954 446.647238,406.603895 446.573645,406.723018 L446.5214,406.81643 L446.5214,406.81643 L446.442576,406.965612 L446.468194,407.192341 C446.492108,407.40668 446.544333,407.588219 446.660267,407.842389 L446.723706,407.976014 C446.7678,408.06712 446.826545,408.1974 446.871269,408.304487 L446.910257,408.401534 C446.996888,408.626159 447.069106,408.740677 447.214598,408.870359 L447.365728,408.997585 L447.365728,408.997585 L447.514901,409.134811 L447.514901,409.134811 L447.616061,409.238791 L447.616061,409.238791 L447.691147,409.306593 L447.691147,409.306593 L447.800652,409.39051 L447.800652,409.39051 L447.968353,409.507838 L447.968353,409.507838 L448.699076,409.998096 L448.699076,409.998096 L449.07411,410.261664 L449.07411,410.261664 L449.393246,410.493772 L449.393246,410.493772 L450.029041,410.969619 L450.029041,410.969619 L451.220782,411.88416 C451.94786,412.446804 452.715766,413.006489 453.403683,413.475163 L453.911089,413.814521 L453.911089,413.814521 L454.502714,414.200129 L454.502714,414.200129 L454.850311,414.420463 L454.850311,414.420463 L455.164882,414.613959 L455.164882,414.613959 L455.450222,414.782808 L455.450222,414.782808 L455.710128,414.929197 L455.710128,414.929197 L455.948395,415.055317 C455.986513,415.07477 456.023889,415.093469 456.0606,415.11146 L456.273526,415.211281 C456.307896,415.226623 456.34176,415.24135 456.375197,415.255505 L456.572468,415.336316 C456.952288,415.484044 457.04063,415.453559 457.187135,415.238035 L457.24716,415.140532 L457.24716,415.140532 L457.285485,415.068349 C457.28924,415.059874 457.291472,415.053537 457.291873,415.049881 C457.294127,415.0293 457.312645,414.991878 457.334664,414.966375 C457.395249,414.89623 457.457426,414.657547 457.439414,414.558697 C457.436455,414.539681 457.427323,414.517753 457.408536,414.488571 L457.357056,414.419247 L457.357056,414.419247 L457.273636,414.322856 L457.273636,414.322856 L457.152086,414.191676 L457.152086,414.191676 L456.959419,413.990452 L456.959419,413.990452 L456.675037,413.70349 L456.675037,413.70349 L456.178161,413.217082 L456.178161,413.217082 L455.696713,412.760427 L455.696713,412.760427 L453.682768,410.91131 L453.682768,410.91131 L451.965396,409.303276 L451.965396,409.303276 L451.547495,408.91688 L451.547495,408.91688 L450.896063,408.328985 L450.896063,408.328985 L450.406586,407.906105 L450.406586,407.906105 L449.951141,407.527802 L449.951141,407.527802 L449.54536,407.204136 L449.54536,407.204136 L449.298747,407.017175 L449.298747,407.017175 L449.171619,406.926866 C449.153278,406.914391 449.136435,406.903262 449.121196,406.893565 L448.922777,406.778669 L448.922777,406.778669 L448.564513,406.55339 C448.418727,406.457811 448.381696,406.444835 448.241192,406.43296 C448.175197,406.426304 448.096349,406.426149 448.041251,406.43132 L448.041251,406.43132 Z M446.6411,421.53517 C445.283034,421.421991 444.083131,421.39993 442.595761,421.460774 L441.878394,421.495112 C441.806252,421.499189 441.736296,421.503386 441.66819,421.507738 L441.279076,421.535965 L441.279076,421.535965 L440.918256,421.569501 C440.859582,421.575622 440.801416,421.582031 440.743421,421.588762 L440.39483,421.633277 C440.336179,421.641429 440.277029,421.64997 440.217044,421.658933 L439.844423,421.718047 L439.844423,421.718047 L439.271786,421.818692 L439.271786,421.818692 L438.412369,421.981419 L438.412369,421.981419 L437.826336,422.102156 L437.826336,422.102156 L437.461511,422.18396 L437.461511,422.18396 L437.259399,422.233172 L437.259399,422.233172 L437.093612,422.277406 L437.093612,422.277406 L436.967101,422.316044 L436.967101,422.316044 L436.882818,422.348469 L436.882818,422.348469 C436.748347,422.412031 436.637392,422.539106 436.534394,422.748234 C436.48291,422.852644 436.464662,422.921767 436.449767,423.096463 C436.425917,423.359604 436.45849,423.545716 436.591332,423.862957 L436.645933,423.988476 C436.69277,424.09425 436.756754,424.258451 436.786446,424.352311 C436.840555,424.519929 436.941113,424.684092 437.06949,424.818682 L437.149707,424.895679 C437.198783,424.937946 437.269381,425.010198 437.32841,425.075664 L437.382357,425.137506 C437.598766,425.398156 437.751214,425.477708 438.225537,425.398217 L438.433348,425.35799 L438.433348,425.35799 L438.68098,425.301113 L438.68098,425.301113 L439.537145,425.086264 L439.537145,425.086264 L440.025311,424.968612 C440.101553,424.950795 440.175521,424.933821 440.247639,424.917613 L440.66157,424.828931 C440.727997,424.815475 440.793427,424.802629 440.858286,424.790315 L441.244006,424.722198 L441.244006,424.722198 L441.636485,424.663123 L441.636485,424.663123 L442.05618,424.609352 C442.129534,424.600625 442.204874,424.591964 442.282626,424.58329 L442.781496,424.530474 L442.781496,424.530474 C443.937644,424.415266 445.012162,424.353972 446.325895,424.331321 L447.950974,424.314716 L447.950974,424.314716 L448.667469,424.299961 L448.667469,424.299961 L449.099118,424.285887 L449.099118,424.285887 L449.496384,424.268269 L449.496384,424.268269 L449.86135,424.246972 L449.86135,424.246972 L450.196096,424.221865 L450.196096,424.221865 L450.502706,424.192814 L450.502706,424.192814 L450.78326,424.159685 L450.78326,424.159685 L451.039842,424.122345 C451.080723,424.115764 451.120692,424.109001 451.159793,424.102055 L451.384318,424.05815 L451.384318,424.05815 L451.580683,424.012746 C451.745448,423.969998 451.826106,423.931238 451.918915,423.860655 C452.005257,423.797424 452.172209,423.538664 452.218987,423.410016 L452.231092,423.363796 C452.234433,423.329834 452.259777,423.281486 452.289861,423.25521 C452.352919,423.196114 452.448385,422.854097 452.442298,422.706387 C452.438371,422.583268 452.372446,422.485339 452.258749,422.430742 C452.228012,422.417509 452.18343,422.38968 452.141482,422.359188 L452.082594,422.312942 C451.973214,422.223361 451.805596,422.155441 451.53519,422.09435 L451.372611,422.061741 L451.372611,422.061741 L450.911775,422.000887 L450.911775,422.000887 L448.957358,421.77511 L448.957358,421.77511 L447.271327,421.595039 L447.271327,421.595039 L446.6411,421.53517 L446.6411,421.53517 Z" id="Shape" fill="#8348FF" transform="translate(450.942576, 408.927679) scale(-1, -1) translate(-450.942576, -408.927679) "></path>
                <path d="M338.872749,315.555734 L338.833386,315.579111 C338.781861,315.607032 338.679286,315.698119 338.607426,315.778641 C338.539799,315.84912 338.438006,315.93432 338.363367,315.978102 L338.319673,316.00207 L338.319673,316.00207 L338.275241,316.029535 L338.275241,316.029535 L338.219429,316.066518 L338.219429,316.066518 L338.12033,316.1359 L338.12033,316.1359 L338.047984,316.188801 L338.047984,316.188801 L337.936855,316.273619 L337.936855,316.273619 L337.856662,316.336782 L337.856662,316.336782 L337.776363,316.398399 L337.776363,316.398399 L337.704491,316.451216 C337.693125,316.459325 337.682042,316.467097 337.671209,316.474547 L337.608941,316.515503 C337.459418,316.608828 337.350943,316.636406 337.169658,316.648534 L337.092992,316.65268 L337.092992,316.65268 C336.889891,316.660469 336.827808,316.654827 336.670238,316.589063 L336.5824,316.550955 L336.5824,316.550955 C336.437474,316.483763 336.268256,316.363615 336.099779,316.203802 L335.769554,315.881488 L334.812805,315.462725 L334.480581,315.315974 L334.480581,315.315974 L334.136426,315.162026 L334.136426,315.162026 L333.781179,315.001288 L333.781179,315.001288 L333.415681,314.834166 L333.415681,314.834166 L333.040771,314.661067 L333.040771,314.661067 L332.657288,314.482396 L332.657288,314.482396 L332.266073,314.29856 L332.266073,314.29856 L331.867965,314.109965 L331.867965,314.109965 L331.463804,313.917018 L331.463804,313.917018 L331.054429,313.720124 L331.054429,313.720124 L330.640681,313.51969 L330.640681,313.51969 L330.013694,313.21329 L330.013694,313.21329 L329.592684,313.005784 L329.592684,313.005784 L329.170239,312.796159 L329.170239,312.796159 L328.7472,312.584822 L328.7472,312.584822 L328.324404,312.37218 L328.324404,312.37218 L327.813793,312.11364 L327.813793,312.11364 L327.608072,312.011084 L327.608072,312.011084 L327.420972,311.920492 L327.420972,311.920492 L327.28646,311.857698 L327.28646,311.857698 L327.151936,311.797216 L327.151936,311.797216 L327.012907,311.737152 L327.012907,311.737152 L326.864878,311.675612 L326.864878,311.675612 L326.703355,311.610703 L326.703355,311.610703 L326.585957,311.564623 L326.585957,311.564623 L326.248746,311.43551 L326.248746,311.43551 L325.63911,311.207611 L325.63911,311.207611 L322.937491,310.203354 L322.937491,310.203354 L322.032281,309.862313 L322.032281,309.862313 L321.322129,309.589612 L321.322129,309.589612 L321.012598,309.467112 L321.012598,309.467112 L320.864704,309.40665 L320.864704,309.40665 L320.712794,309.341384 L320.712794,309.341384 L320.653307,309.313645 C320.649144,309.31161 320.645178,309.309644 320.641405,309.307745 C320.476126,309.224555 320.291856,309.08513 320.175261,308.965392 L319.793801,308.555712 L319.793801,308.555712 L319.715479,308.472753 C319.677589,308.432472 319.644381,308.395749 319.61543,308.361918 L319.56308,308.297917 C319.484872,308.197023 319.450826,308.123358 319.445224,308.052348 L319.444382,308.031101 C319.444104,308.010539 319.442455,307.985923 319.439855,307.959018 L319.429617,307.873207 L319.429617,307.873207 L319.416183,307.784272 L319.416183,307.784272 L319.402066,307.702816 C319.338106,307.434554 319.572378,307.225738 320.023078,307.150105 C320.085151,307.140178 320.178251,307.130428 320.288006,307.121524 L320.426786,307.111287 C320.450942,307.109663 320.475534,307.108083 320.500447,307.106553 L320.652861,307.098014 L320.652861,307.098014 L320.807464,307.090928 L320.807464,307.090928 L320.958737,307.085551 C320.983365,307.084812 321.007624,307.084154 321.031399,307.083584 L321.167328,307.081251 L321.167328,307.081251 L321.286128,307.081268 C321.340326,307.081908 321.38603,307.083524 321.420137,307.086262 L321.450263,307.08938 C321.528585,307.098786 321.629414,307.100414 321.690098,307.093228 L321.716804,307.088896 C321.825095,307.065656 322.099506,307.085263 322.446871,307.133875 L322.589487,307.154834 L322.589487,307.154834 L322.73856,307.17869 L322.73856,307.17869 L322.892764,307.205246 C322.970928,307.219166 323.05052,307.234025 323.130794,307.249711 L323.292031,307.282156 C323.318981,307.287737 323.345953,307.293401 323.372917,307.299145 L323.534398,307.334532 C323.58805,307.346625 323.641452,307.359004 323.694386,307.371636 C324.448712,307.552071 325.217602,307.798184 326.060106,308.132511 L326.302876,308.230452 C326.343688,308.247183 326.38468,308.264118 326.425858,308.28126 L326.675211,308.386622 L326.675211,308.386622 L326.929335,308.497077 L326.929335,308.497077 L327.188537,308.612742 C327.232177,308.63246 327.276042,308.6524 327.320138,308.672564 L327.587529,308.796262 C327.72266,308.859477 327.859982,308.924754 327.999668,308.992161 L328.28224,309.129832 L328.28224,309.129832 L328.57142,309.273297 C328.620184,309.297697 328.669237,309.322343 328.718584,309.347238 L328.90984,309.444172 L328.90984,309.444172 L329.042288,309.509217 L329.042288,309.509217 L329.136168,309.553459 L329.136168,309.553459 L329.287408,309.621984 L329.287408,309.621984 L329.396375,309.669602 L329.396375,309.669602 L329.574084,309.744777 L329.574084,309.744777 L329.771362,309.825463 L329.771362,309.825463 L329.990971,309.9128 L329.990971,309.9128 L330.235677,310.007931 L330.235677,310.007931 L330.605769,310.148867 L330.605769,310.148867 L331.634393,310.534654 L331.634393,310.534654 L332.239245,310.765308 L332.239245,310.765308 L332.506438,310.869977 L332.506438,310.869977 L332.625972,310.91876 L332.625972,310.91876 L332.759709,310.970916 L332.759709,310.970916 L332.839595,310.999991 L332.839595,310.999991 L332.879783,311.013411 L332.879783,311.013411 L332.907435,311.021326 C332.914365,311.022977 332.918907,311.023605 332.920765,311.023105 L332.921327,311.021559 L332.91805,311.011458 L332.91805,311.011458 L332.902651,310.979627 L332.902651,310.979627 L332.837496,310.861483 L332.837496,310.861483 L332.644464,310.531633 L332.644464,310.531633 L332.160529,309.731414 L332.160529,309.731414 L331.625593,308.867909 L331.625593,308.867909 L331.404159,308.518353 L331.404159,308.518353 L331.25149,308.283292 L331.25149,308.283292 L331.004987,307.909687 L331.004987,307.909687 L330.739757,307.514067 L330.739757,307.514067 L330.45836,307.10003 L330.45836,307.10003 L330.163352,306.671175 L330.163352,306.671175 L329.857292,306.231102 L329.857292,306.231102 L329.436441,305.633109 L329.436441,305.633109 L329.114541,305.180857 L329.114541,305.180857 L328.790116,304.729384 L328.790116,304.729384 L328.465723,304.28229 L328.465723,304.28229 L328.143921,303.843174 L328.143921,303.843174 L327.827267,303.415635 L327.827267,303.415635 L327.518321,303.003271 L327.518321,303.003271 L327.349388,302.779884 L327.349388,302.779884 L327.013399,302.339095 C326.957598,302.266283 326.90189,302.193792 326.846272,302.121617 L326.513571,301.6923 C326.458282,301.621361 326.403069,301.550724 326.347926,301.480384 L326.017868,301.061842 C325.743444,300.715933 325.470482,300.377105 325.198233,300.044553 L324.871829,299.648451 C324.763111,299.517387 324.654458,299.387276 324.545824,299.258066 L324.219931,298.873088 C323.94832,298.55444 323.676526,298.241103 323.403802,297.932271 L323.076038,297.563785 C322.200558,296.586648 321.312491,295.652356 320.387351,294.734541 L320.038638,294.391082 C319.337544,293.705501 318.613875,293.027335 317.857298,292.34546 L317.47622,292.004162 L317.47622,292.004162 L317.08937,291.661937 L317.08937,291.661937 L316.893691,291.49038 C316.791054,291.40061 316.686722,291.309963 316.580819,291.218536 L316.258528,290.942008 C316.20407,290.895562 316.149251,290.848945 316.094087,290.802168 L315.759085,290.519694 L315.759085,290.519694 L315.416553,290.233976 L315.416553,290.233976 L315.067247,289.94559 L315.067247,289.94559 L314.711924,289.655111 L314.711924,289.655111 L314.351339,289.363114 L314.351339,289.363114 L313.986248,289.070177 L313.986248,289.070177 L313.617407,288.776875 L313.617407,288.776875 L313.245572,288.483783 L313.245572,288.483783 L312.871498,288.191477 C312.809008,288.142857 312.746456,288.094294 312.683858,288.045799 L312.307843,287.755753 L312.307843,287.755753 L311.93148,287.467932 L311.93148,287.467932 L311.555523,287.182913 L311.555523,287.182913 L311.18073,286.901272 L311.18073,286.901272 L310.807855,286.623584 L310.807855,286.623584 L310.437655,286.350425 C310.37622,286.305308 310.314928,286.260404 310.253794,286.215724 L309.889023,285.950439 C309.828587,285.906706 309.768341,285.863222 309.708302,285.819998 L309.35066,285.563882 C309.291507,285.521749 309.232592,285.479901 309.173929,285.43835 L308.825118,285.192698 L308.825118,285.192698 L308.483139,284.954742 C308.257598,284.798798 308.037115,284.648369 307.822699,284.504222 L307.438214,284.248185 L307.438214,284.248185 L306.744817,283.793093 L306.744817,283.793093 L306.279203,283.492629 L306.279203,283.492629 L305.938712,283.276759 L305.938712,283.276759 L305.597016,283.063949 L305.597016,283.063949 L305.246305,282.849642 L305.246305,282.849642 L304.941525,282.666623 L304.941525,282.666623 L304.554003,282.437736 L304.554003,282.437736 L304.135338,282.194442 L304.135338,282.194442 L303.677721,281.932182 L303.677721,281.932182 L302.993473,281.545123 L302.993473,281.545123 L302.101272,281.046248 L302.101272,281.046248 L300.926999,280.395128 L300.926999,280.395128 L299.214361,279.450486 L299.214361,279.450486 L299.146397,279.414445 L299.146397,279.414445 L299.051181,279.366187 L299.051181,279.366187 L298.994733,279.339108 L298.994733,279.339108 L298.945941,279.317082 C298.938543,279.313879 298.931538,279.310922 298.92496,279.308227 L298.890921,279.295358 C298.876759,279.290641 298.867102,279.288607 298.862931,279.289729 C298.860146,279.290482 298.855439,279.293172 298.849049,279.297591 L298.825064,279.315825 L298.825064,279.315825 L298.792398,279.343184 L298.792398,279.343184 L298.706717,279.420274 L298.706717,279.420274 L298.630249,279.49275 L298.630249,279.49275 L298.522542,279.597435 L298.522542,279.597435 L298.444958,279.668189 L298.444958,279.668189 L298.397409,279.70896 C298.389873,279.715241 298.382553,279.721247 298.375482,279.726953 L298.336311,279.757366 L298.336311,279.757366 L298.304709,279.779299 C298.291064,279.787936 298.280852,279.792919 298.274964,279.793541 C298.161912,279.808189 298.062643,279.713716 298.088666,279.629342 L298.106618,279.585709 L298.106618,279.585709 L298.126603,279.524278 L298.126603,279.524278 L298.141568,279.472106 L298.141568,279.472106 L298.181537,279.316455 L298.181537,279.316455 L298.214734,279.172728 L298.214734,279.172728 L298.234531,279.095114 C298.237901,279.082998 298.241313,279.071278 298.244775,279.059935 L298.266202,278.99625 C298.299432,278.907042 298.338,278.845221 298.38792,278.796551 L298.420221,278.76658 C298.481373,278.712581 298.52776,278.692705 298.666309,278.679084 L298.743758,278.672666 C298.758112,278.67164 298.773229,278.670625 298.789171,278.669605 L298.89523,278.663299 L298.89523,278.663299 L299.015655,278.657708 C299.272526,278.648208 299.37894,278.665526 299.721151,278.751399 L299.804952,278.773905 L299.804952,278.773905 L299.893015,278.798845 L299.893015,278.798845 L300.033939,278.841122 L300.033939,278.841122 L300.134333,278.872754 L300.134333,278.872754 L300.295552,278.92572 L300.295552,278.92572 L300.470673,278.985724 L300.470673,278.985724 L300.66099,279.053234 L300.66099,279.053234 L300.867799,279.12872 L300.867799,279.12872 L301.092394,279.21265 L301.092394,279.21265 L301.421756,279.338503 L301.421756,279.338503 L301.885831,279.519792 L301.885831,279.519792 L302.413692,279.729745 L302.413692,279.729745 C305.533591,280.980622 308.330185,282.391026 311.201713,284.158731 L311.483898,284.33428 L311.483898,284.33428 L311.778102,284.520175 L311.778102,284.520175 L312.082912,284.715452 L312.082912,284.715452 L312.396917,284.919148 L312.396917,284.919148 L312.718704,285.130299 L312.718704,285.130299 L313.046861,285.347941 L313.046861,285.347941 L313.379975,285.571111 L313.379975,285.571111 L313.716636,285.798844 L313.716636,285.798844 L314.055429,286.030178 L314.055429,286.030178 L314.394944,286.264148 L314.394944,286.264148 L314.733768,286.49979 L314.733768,286.49979 L315.07049,286.736141 L315.07049,286.736141 L315.403695,286.972238 L315.403695,286.972238 L315.731974,287.207116 C315.786198,287.246107 315.840158,287.285008 315.893824,287.323797 L316.212063,287.55504 L316.212063,287.55504 C317.912674,288.799671 319.501015,290.046158 321.005976,291.323089 L321.414374,291.672119 C321.820749,292.021947 322.221117,292.374233 322.616064,292.729557 L323.009227,293.085914 C324.444356,294.396428 325.809237,295.750381 327.132759,297.17636 L327.492716,297.567071 C328.868787,299.071806 330.202524,300.658105 331.526938,302.358634 L331.872248,302.804863 C331.987295,302.954484 332.102294,303.10499 332.217265,303.256403 L332.482616,303.608074 L332.482616,303.608074 L332.781778,304.011765 L332.781778,304.011765 L333.269904,304.681967 L333.269904,304.681967 L333.774681,305.386433 L333.774681,305.386433 L334.20951,306.001984 L334.20951,306.001984 L334.651778,306.63817 L334.651778,306.63817 L334.976436,307.115725 L334.976436,307.115725 L335.106664,307.312229 L335.106664,307.312229 L335.233329,307.509702 L335.233329,307.509702 L335.34904,307.699856 L335.36128,307.566881 L335.411625,306.573664 L335.411625,306.573664 L335.436302,306.193563 L335.436302,306.193563 L335.475265,305.697704 L335.475265,305.697704 L335.513374,305.274398 L335.513374,305.274398 L335.563128,304.783679 L335.563128,304.783679 L335.588727,304.555267 L335.588727,304.555267 L335.622716,304.277816 L335.622716,304.277816 L335.647589,304.095547 L335.647589,304.095547 L335.663655,303.988684 L335.663655,303.988684 L335.679171,303.895005 L335.679171,303.895005 L335.700956,303.781992 C335.705021,303.762524 335.709301,303.742744 335.713794,303.722659 L335.743277,303.59855 L335.743277,303.59855 L335.777719,303.467459 L335.777719,303.467459 L335.816983,303.329722 C335.823921,303.306231 335.831054,303.282476 335.83838,303.258466 L335.884617,303.111385 L335.884617,303.111385 L335.93533,302.958492 L335.93533,302.958492 L335.990381,302.800121 L335.990381,302.800121 L336.08079,302.553024 L336.08079,302.553024 L336.146082,302.382419 L336.146082,302.382419 L336.215229,302.207504 L336.215229,302.207504 L336.288092,302.028614 L336.288092,302.028614 L336.364534,301.846081 L336.364534,301.846081 L336.444416,301.660241 L336.444416,301.660241 L336.5276,301.471427 L336.5276,301.471427 L336.613949,301.279972 L336.613949,301.279972 L336.749102,300.988571 L336.749102,300.988571 L336.842756,300.791977 L336.842756,300.791977 L336.939091,300.593911 L336.939091,300.593911 L337.037968,300.394707 L337.037968,300.394707 L337.13925,300.1947 L337.13925,300.1947 L337.242798,299.994222 L337.242798,299.994222 L337.402068,299.693355 L337.402068,299.693355 L337.665951,299.212478 L337.665951,299.212478 L337.70996,299.136722 L337.70996,299.136722 L337.73626,299.094271 L337.73626,299.094271 L337.760677,299.057881 L337.760677,299.057881 L337.783679,299.027224 L337.783679,299.027224 L337.805735,299.001973 C337.856461,298.949105 337.903294,298.937713 337.973045,298.949081 L338.00442,298.955292 L338.00442,298.955292 L338.05777,298.969119 L338.05777,298.969119 L338.192909,299.008956 L338.192909,299.008956 C338.464788,299.091957 338.539706,299.133241 338.697423,299.284495 C338.866981,299.447686 339.036134,299.703899 339.194091,300.021173 L339.252778,300.142951 C339.262465,300.163704 339.272103,300.184679 339.281689,300.20587 L339.338565,300.335532 C339.347934,300.357552 339.357246,300.379771 339.366499,300.402182 L339.421279,300.538886 L339.421279,300.538886 L339.474503,300.679817 L339.474503,300.679817 L339.526045,300.824599 C339.534489,300.849029 339.542856,300.873605 339.551146,300.898317 L339.599928,301.048175 L339.599928,301.048175 L339.646712,301.200949 L339.646712,301.200949 L339.691371,301.356263 L339.691371,301.356263 L339.733779,301.513744 C339.740653,301.54015 339.747427,301.566631 339.7541,301.593179 L339.792894,301.753207 L339.792894,301.753207 L339.829121,301.914466 L339.829121,301.914466 L339.862653,302.076579 C339.868011,302.103649 339.873251,302.130738 339.87837,302.15784 L339.907625,302.320535 L339.907625,302.320535 L339.933871,302.483149 L339.933871,302.483149 L339.956979,302.645308 C339.960562,302.672275 339.964009,302.699208 339.967318,302.726099 L339.985485,302.886873 C339.988228,302.913563 339.990828,302.940195 339.993281,302.966761 L340.006222,303.125307 L340.006222,303.125307 L340.011687,303.225106 L340.011687,303.225106 L340.015512,303.359594 L340.015512,303.359594 L340.015512,303.499508 L340.015512,303.499508 L340.011979,303.610495 L340.011979,303.610495 L340.006203,303.728612 L340.006203,303.728612 L339.994268,303.900215 L339.994268,303.900215 L339.977262,304.091743 L339.977262,304.091743 L339.941692,304.425463 L339.941692,304.425463 L339.88392,304.901908 L339.88392,304.901908 L339.874162,304.978837 C339.607087,306.968025 339.512007,308.505353 339.538181,310.407502 L339.547222,310.891112 L339.547222,310.891112 L339.581416,312.431244 L339.581416,312.431244 L339.587272,313.087787 L339.587272,313.087787 L339.583504,313.33421 L339.583504,313.33421 L339.575884,313.512116 L339.575884,313.512116 L339.560416,313.698609 L339.560416,313.698609 L339.53537,313.883274 L339.53537,313.883274 L339.479497,314.193654 L339.479497,314.193654 L339.438819,314.396139 L339.438819,314.396139 L339.416521,314.491917 L339.416521,314.491917 L339.394522,314.572124 L339.394522,314.572124 L339.371773,314.639796 L339.371773,314.639796 L339.355673,314.679447 L339.355673,314.679447 L339.338461,314.715777 L339.338461,314.715777 L339.319829,314.749685 L339.319829,314.749685 L339.299464,314.782073 L339.299464,314.782073 L339.264989,314.82977 L339.264989,314.82977 L339.238933,314.862292 C339.126828,314.998919 339.095059,315.065851 339.105127,315.153132 L339.108493,315.175428 C339.132294,315.298267 339.037963,315.450644 338.872749,315.555734 L338.872749,315.555734 Z" id="Path" fill="#8348FF" fill-rule="nonzero" transform="translate(319.049995, 297.655378) scale(-1, 1) rotate(91.000000) translate(-319.049995, -297.655378) "></path>
            </g>
        </g>
    </g>
</svg>