<?xml version="1.0" encoding="UTF-8"?>
<svg width="298px" height="223px" viewBox="0 0 298 223" version="1.1" xmlns="http://www.w3.org/2000/svg" xmlns:xlink="http://www.w3.org/1999/xlink">
    <title>Group 4</title>
    <g id="Illustrations🚀" stroke="none" stroke-width="1" fill="none" fill-rule="evenodd">
        <g id="Designer" transform="translate(-348.000000, -425.000000)">
            <g id="Group-4" transform="translate(349.000000, 427.306387)">
                <g id="Group" transform="translate(150.993601, 108.953260) rotate(21.000000) translate(-150.993601, -108.953260) translate(30.000000, 38.693613)" stroke="#3EEE91" stroke-linecap="round" stroke-linejoin="round" stroke-width="3.20512821">
                    <path d="M6.9007914,0.44236023 C17.8838042,0.690693563 215.06733,0.475949973 226.051304,0.34986023 C229.189766,0.314026896 232.344253,-0.111678232 235.478868,0.0280653577 C236.932714,0.0926166398 238.757714,0.216334588 239.919253,1.2091551 C241.377586,2.45492433 240.819894,6.17780895 240.895535,7.9392192 C241.169894,14.3378089 241.380791,20.739732 241.539766,27.1429372 C242.187843,53.1948602 241.986898,79.2576807 241.82374,105.314732 C241.771176,113.782681 241.721817,122.25127 241.707073,130.719219 C241.702586,132.773065 241.983997,134.867937 241.83015,136.91345 C241.755791,137.896783 241.532073,138.995501 240.756432,139.676912 C239.678868,140.621783 237.921817,140.33204 236.596817,140.339091 C233.142971,140.358322 229.688484,140.353835 226.234638,140.339732 C216.71733,140.303194 21.004317,140.199988 11.4877145,140.351912 C9.22194524,140.387809 6.95656063,140.43845 4.69194524,140.507681 C3.41694524,140.546783 2.02488755,140.542296 1.06750935,139.562809 C0.266970886,138.742937 0.0606760139,137.531399 0.014752937,136.431399 C-0.0751444989,134.278194 0.269599091,132.08204 0.406201655,129.932681 C0.948714475,121.373065 1.29906704,112.80127 1.52945807,104.228194 C2.40431704,71.7012705 1.54139396,39.1531936 2.42713755,6.62800126 C2.50463755,3.83870638 3.78117601,0.721398691 6.9007914,0.44236023 Z" id="Path"></path>
                    <path d="M225.92374,140.30127 C230.783997,136.007681 237.566048,129.725629 241.721176,124.73845" id="Path"></path>
                    <path d="M215.366048,140.30127 C223.471817,131.412809 234.319253,122.479476 241.765407,113.10704" id="Path"></path>
                    <path d="M204.888484,140.28204 C217.074381,128.655117 230.462202,114.474988 241.877586,102.162168" id="Path"></path>
                    <path d="M194.525663,140.28204 C210.394894,124.876912 227.776945,106.161527 241.907073,89.03845" id="Path"></path>
                    <path d="M185.022458,140.262809 C200.880791,121.847424 222.544894,99.7307577 241.946176,77.3467833" id="Path"></path>
                    <path d="M175.149381,140.30127 C190.888484,121.714091 222.73015,87.8378089 241.987202,65.2435782" id="Path"></path>
                    <path d="M164.611561,140.262168 C180.333997,121.783322 222.681432,76.1666551 241.916689,53.7044756" id="Path"></path>
                    <path d="M153.876945,140.242937 C169.395535,122.021783 222.822458,64.6403731 241.808997,42.4916551" id="Path"></path>
                    <path d="M143.046176,140.262168 C158.372458,122.274988 222.841689,52.1563987 241.594253,30.2922961" id="Path"></path>
                    <path d="M132.137843,140.262168 C147.413484,122.235245 222.582073,39.9320397 241.271817,18.0185782" id="Path"></path>
                    <path d="M121.266689,140.28204 C136.532073,122.220501 222.262843,28.0519115 240.939125,6.09742433" id="Path"></path>
                    <path d="M110.121176,140.223065 C123.605791,124.337168 219.362202,19.3916551 235.86092,0.0805653577" id="Path"></path>
                    <path d="M65.995535,140.262168 C77.7519452,126.391014 176.651304,17.31345 191.034638,0.452039717" id="Path"></path>
                    <path d="M99.3102786,140.242937 C109.642971,128.081399 211.640407,15.1711423 224.281432,0.388514076" id="Path"></path>
                    <path d="M21.9663683,140.30127 C32.2988042,128.140373 134.359638,15.31345 147.000663,0.530244845" id="Path"></path>
                    <path d="M54.9877145,140.242937 C63.8346376,129.675629 169.496176,13.3070397 180.320535,0.461847409" id="Path"></path>
                    <path d="M87.8929709,140.223065 C95.2154068,131.520501 204.969253,10.9967833 213.928868,0.417808947" id="Path"></path>
                    <path d="M10.5288683,140.340373 C17.8516247,131.637809 127.820535,11.089091 136.78015,0.510693563" id="Path"></path>
                    <path d="M44.038035,140.262168 C49.5072017,133.607681 162.778868,8.60492433 169.469894,0.515565358" id="Path"></path>
                    <path d="M76.7487401,140.242937 C81.0141247,135.216014 197.846176,6.55723202 203.063484,0.447167922" id="Path"></path>
                    <path d="M0.701092681,138.97627 C4.96611191,133.949988 120.701945,6.66473202 125.919894,0.554667922" id="Path"></path>
                    <path d="M32.8694452,140.298706 C35.4156632,137.342296 155.714125,4.07998843 158.828868,0.486270486" id="Path"></path>
                    <path d="M0.674958065,125.579476 C3.22111191,122.622424 111.14233,4.14838587 114.257714,0.554667922" id="Path"></path>
                    <path d="M1.30079781,111.365373 C3.84694524,108.408963 98.7224581,4.12889869 101.837843,0.53511664" id="Path"></path>
                    <path d="M1.71144524,97.2499884 C4.25758627,94.2929372 86.6352786,4.15332177 89.7500222,0.559603819" id="Path"></path>
                    <path d="M1.90652217,84.0922961 C4.45271448,81.1352448 74.2641247,4.18748843 77.3788683,0.593770486" id="Path"></path>
                    <path d="M1.94590037,71.1294756 C4.49207345,68.1724243 62.4256632,4.16306536 65.5410478,0.569347409" id="Path"></path>
                    <path d="M1.96699012,57.814732 C4.51316319,54.8583218 50.5487401,4.18748843 53.6637401,0.593770486" id="Path"></path>
                    <path d="M1.94536832,46.0455013 C4.49156063,43.08845 40.0691888,4.14844997 43.1841247,0.554667922" id="Path"></path>
                    <path d="M2.04302858,33.7672961 C4.58918883,30.8102448 29.0959837,4.12396279 32.2109837,0.530244845" id="Path"></path>
                    <path d="M2.14145807,19.6512705 C4.68765037,16.6948602 16.9550222,4.10556536 20.0699581,0.511847409" id="Path"></path>
                </g>
                <g id="Group-2" transform="translate(0.000000, 26.693613)">
                    <g id="Element" transform="translate(0.000000, 36.000000)">
                        <rect id="Shape" stroke="#18181B" fill="#FFFFFF" x="0" y="0" width="68" height="91" rx="5"></rect>
                        <g id="Group" transform="translate(13.000000, 12.000000)">
                            <polygon id="Path" points="0 0 33 0 33 33 0 33"></polygon>
                            <path d="M17,3 C24.7308,3 31,8.5692 31,15.4446 C30.9976822,19.7393047 27.516305,23.2200552 23.2216,23.2216 L20.4692,23.2216 C19.1784,23.2216 18.1354,24.2646 18.1354,25.5554 C18.1354,26.1462 18.3692,26.6908 18.7262,27.0954 C19.1,27.5154 19.3338,28.06 19.3338,28.6662 C19.3338,29.9584 18.26,31 17,31 C9.2692,31 3,24.7308 3,17 C3,9.2692 9.2692,3 17,3 Z M10.7,17 C11.859798,17 12.8,16.059798 12.8,14.9 C12.8,13.740202 11.859798,12.8 10.7,12.8 C9.54020203,12.8 8.6,13.740202 8.6,14.9 C8.6,16.059798 9.54020203,17 10.7,17 Z M23.3,17 C24.459798,17 25.4,16.059798 25.4,14.9 C25.4,13.740202 24.459798,12.8 23.3,12.8 C22.140202,12.8 21.2,13.740202 21.2,14.9 C21.2,16.059798 22.140202,17 23.3,17 Z M17,12.8 C18.159798,12.8 19.1,11.859798 19.1,10.7 C19.1,9.54020203 18.159798,8.6 17,8.6 C15.840202,8.6 14.9,9.54020203 14.9,10.7 C14.9,11.859798 15.840202,12.8 17,12.8 Z" id="Shape" stroke="#8348FF" fill="#FFFFFF"></path>
                        </g>
                        <g id="Group" transform="translate(9.000000, 58.000000)">
                            <rect id="Rectangle" fill="#3EEE91" x="0.281155223" y="0.345257798" width="16.2057656" height="15.3657543"></rect>
                            <path d="M16.6034646,16 L0.26853412,16 C0.120226821,16 0,15.886005 0,15.7453851 L0,0.254614895 C0,0.113994971 0.120226821,0 0.26853412,0 L16.6034646,0 C16.7517719,0 16.8719987,0.113994971 16.8719987,0.254614895 L16.8719987,15.7453851 C16.8719987,15.886005 16.7517719,16 16.6034646,16 Z M0.537068239,15.4907702 L16.3349305,15.4907702 L16.3349305,0.50922979 L0.537068239,0.50922979 L0.537068239,15.4907702 Z" id="Shape" fill="#18181B"></path>
                            <line x1="20.9107519" y1="2.70910248" x2="39.0958825" y2="2.70910248" id="Shape" fill="#FFFFFF"></line>
                            <path d="M39.0958825,2.96371738 L20.9241786,2.96371738 C20.7758713,2.96371738 20.6556445,2.84972241 20.6556445,2.70910248 C20.6556445,2.56848256 20.7758713,2.45448759 20.9241786,2.45448759 L39.1093092,2.45448759 C39.2576165,2.45448759 39.3778433,2.56848256 39.3778433,2.70910248 C39.3778433,2.84972241 39.2576165,2.96371738 39.1093092,2.96371738 L39.0958825,2.96371738 Z" id="Shape" fill="#18181B"></path>
                            <line x1="20.9107519" y1="5.35455124" x2="50.7368366" y2="5.35455124" id="Shape" fill="#FFFFFF"></line>
                            <path d="M50.7314659,5.60916614 L20.9241786,5.60916614 C20.7758713,5.60916614 20.6556445,5.49517116 20.6556445,5.35455124 C20.6556445,5.21393132 20.7758713,5.09993635 20.9241786,5.09993635 L50.7314659,5.09993635 C50.8797732,5.09993635 51,5.21393132 51,5.35455124 C51,5.49517116 50.8797732,5.60916614 50.7314659,5.60916614 Z" id="Shape" fill="#18181B"></path>
                            <line x1="20.9107519" y1="8" x2="50.7368366" y2="8" id="Shape" fill="#FFFFFF"></line>
                            <path d="M50.7314659,8.25461489 L20.9241786,8.25461489 C20.7758713,8.25461489 20.6556445,8.14061992 20.6556445,8 C20.6556445,7.85938008 20.7758713,7.74538511 20.9241786,7.74538511 L50.7314659,7.74538511 C50.8797732,7.74538511 51,7.85938008 51,8 C51,8.14061992 50.8797732,8.25461489 50.7314659,8.25461489 Z" id="Shape" fill="#18181B"></path>
                            <line x1="20.9107519" y1="10.6454488" x2="50.7368366" y2="10.6454488" id="Shape" fill="#FFFFFF"></line>
                            <path d="M50.7314659,10.9000637 L20.9241786,10.9000637 C20.7758713,10.9000637 20.6556445,10.7860687 20.6556445,10.6454488 C20.6556445,10.5048288 20.7758713,10.3908339 20.9241786,10.3908339 L50.7314659,10.3908339 C50.8797732,10.3908339 51,10.5048288 51,10.6454488 C51,10.7860687 50.8797732,10.9000637 50.7314659,10.9000637 Z" id="Shape" fill="#18181B"></path>
                            <line x1="20.9107519" y1="13.2908975" x2="50.7368366" y2="13.2908975" id="Shape" fill="#FFFFFF"></line>
                            <path d="M50.7314659,13.5455124 L20.9241786,13.5455124 C20.7758713,13.5455124 20.6556445,13.4315174 20.6556445,13.2908975 C20.6556445,13.1502776 20.7758713,13.0362826 20.9241786,13.0362826 L50.7314659,13.0362826 C50.8797732,13.0362826 51,13.1502776 51,13.2908975 C51,13.4315174 50.8797732,13.5455124 50.7314659,13.5455124 Z" id="Shape" fill="#18181B"></path>
                        </g>
                        <line x1="0" y1="7" x2="68" y2="7" id="Shape" fill="#FFFFFF"></line>
                        <path d="M68.7310151,7 L0.268984874,7 C0.12042863,7 0,6.77614237 0,6.5 C0,6.22385763 0.12042863,6 0.268984874,6 L68.7310151,6 C68.8795714,6 69,6.22385763 69,6.5 C69,6.77614237 68.8795714,7 68.7310151,7 Z" id="Shape" fill="#18181B"></path>
                        <circle id="Shape" fill="#FFFFFF" cx="5.5" cy="3.5" r="1.5"></circle>
                        <path d="M5.50002192,5 C4.89333742,5 4.34639098,4.63454207 4.11422288,4.07403868 C3.88205477,3.51353529 4.01038653,2.86836798 4.43937725,2.43937725 C4.86836798,2.01038653 5.51353529,1.88205477 6.07403868,2.11422288 C6.63454207,2.34639098 7,2.89333742 7,3.50002192 C7,4.32843694 6.32843694,5 5.50002192,5 Z M5.50002192,2.46104375 C5.07865935,2.46104375 4.69883053,2.71499327 4.53779716,3.10437055 C4.37676378,3.49374783 4.46627153,3.94179566 4.76454818,4.23941531 C5.06282482,4.53703495 5.51106893,4.62555451 5.90009017,4.46366292 C6.28911142,4.30177134 6.54221922,3.92138347 6.54129365,3.50002192 C6.54129365,3.22407061 6.43151381,2.95945491 6.23617175,2.76454312 C6.04082968,2.56963133 5.77597257,2.46043712 5.50002192,2.46104375 Z" id="Shape" fill="#18181B"></path>
                        <circle id="Shape" fill="#FFFFFF" cx="9.5" cy="3.5" r="1.5"></circle>
                        <path d="M9.50002192,5 C8.89333742,5 8.34639098,4.63454207 8.11422288,4.07403868 C7.88205477,3.51353529 8.01038653,2.86836798 8.43937725,2.43937725 C8.86836798,2.01038653 9.51353529,1.88205477 10.0740387,2.11422288 C10.6345421,2.34639098 11,2.89333742 11,3.50002192 C11,4.32843694 10.3284369,5 9.50002192,5 Z M9.50002192,2.46104375 C9.07865935,2.46104375 8.69883053,2.71499327 8.53779716,3.10437055 C8.37676378,3.49374783 8.46627153,3.94179566 8.76454818,4.23941531 C9.06282482,4.53703495 9.51106893,4.62555451 9.90009017,4.46366292 C10.2891114,4.30177134 10.5422192,3.92138347 10.5412937,3.50002192 C10.5412937,3.22407061 10.4315138,2.95945491 10.2361717,2.76454312 C10.0408297,2.56963133 9.77597257,2.46043712 9.50002192,2.46104375 Z" id="Shape" fill="#18181B"></path>
                        <circle id="Shape" fill="#FFFFFF" cx="13.5" cy="3.5" r="1.5"></circle>
                        <path d="M13.4954129,5.00000079 C12.6675894,4.99746239 11.9983199,4.3247726 12.0000032,3.49694513 C12.0016928,2.66911765 12.6736975,1.9991603 13.5015244,2.00000079 C14.3293514,2.00084286 15.0000032,2.67216469 15.0000032,3.50000079 C14.999389,3.89842708 14.8405292,4.28029998 14.5583649,4.56160467 C14.2762006,4.84290935 13.8938452,5.00060274 13.4954129,5.00000079 Z M13.4954129,2.46099287 C12.9206344,2.46353647 12.4566182,2.9313168 12.4587202,3.50609828 C12.4608365,4.08087975 12.9282731,4.54524214 13.5030547,4.54356191 C14.0778363,4.54187254 14.5425427,4.07477785 14.5412848,3.49999388 C14.5406757,3.22342914 14.4300714,2.95846683 14.2338662,2.76355203 C14.037661,2.56863723 13.771975,2.45978398 13.4954129,2.46099287 Z" id="Shape" fill="#18181B"></path>
                    </g>
                    <g id="Element" transform="translate(227.000000, 36.000000)">
                        <rect id="Shape" stroke="#18181B" fill="#FFFFFF" x="1" y="0" width="68" height="91" rx="5"></rect>
                        <g id="Group" transform="translate(20.000000, 16.000000)">
                            <polygon id="Path" points="0 0 35 0 35 35 0 35"></polygon>
                            <path d="M22.3327165,7.42093914 L25.2211941,7.42093914 C26.8164563,7.42093914 28.1096718,8.74048705 28.1096718,10.3682319 L28.1096718,22.4079228 C30.1000152,23.1256749 31.2940687,25.2021941 30.9372186,27.3251692 C30.5803686,29.4481443 28.776423,31 26.6654329,31 C24.5544429,31 22.7504973,29.4481443 22.3936472,27.3251692 C22.0367972,25.2021941 23.2308507,23.1256749 25.2211941,22.4079228 L25.2211941,10.3682319 L22.3327165,10.3682319 L22.3327165,14.789171 L15.8336418,8.89458552 L22.3327165,3 L22.3327165,7.42093914 Z M7.89032824,13.0650048 C5.89998485,12.3472527 4.70593131,10.2707335 5.06278135,8.14775837 C5.41963139,6.02478326 7.22357701,4.47292759 9.33456707,4.47292759 C11.4455571,4.47292759 13.2495027,6.02478326 13.6063528,8.14775837 C13.9632028,10.2707335 12.7691493,12.3472527 10.7788059,13.0650048 L10.7788059,22.4079228 C12.7691493,23.1256749 13.9632028,25.2021941 13.6063528,27.3251692 C13.2495027,29.4481443 11.4455571,31 9.33456707,31 C7.22357701,31 5.41963139,29.4481443 5.06278135,27.3251692 C4.70593131,25.2021941 5.89998485,23.1256749 7.89032824,22.4079228 L7.89032824,13.0650048 L7.89032824,13.0650048 Z" id="Shape" stroke="#8348FF" fill="#FFFFFF"></path>
                        </g>
                        <g id="Group" transform="translate(10.000000, 58.000000)">
                            <rect id="Rectangle" fill="#3EEE91" x="0.281155223" y="0.345257798" width="16.2057656" height="15.3657543"></rect>
                            <path d="M16.6034646,16 L0.26853412,16 C0.120226821,16 0,15.886005 0,15.7453851 L0,0.254614895 C0,0.113994971 0.120226821,0 0.26853412,0 L16.6034646,0 C16.7517719,0 16.8719987,0.113994971 16.8719987,0.254614895 L16.8719987,15.7453851 C16.8719987,15.886005 16.7517719,16 16.6034646,16 Z M0.537068239,15.4907702 L16.3349305,15.4907702 L16.3349305,0.50922979 L0.537068239,0.50922979 L0.537068239,15.4907702 Z" id="Shape" fill="#18181B"></path>
                            <line x1="20.9107519" y1="2.70910248" x2="39.0958825" y2="2.70910248" id="Shape" fill="#FFFFFF"></line>
                            <path d="M39.0958825,2.96371738 L20.9241786,2.96371738 C20.7758713,2.96371738 20.6556445,2.84972241 20.6556445,2.70910248 C20.6556445,2.56848256 20.7758713,2.45448759 20.9241786,2.45448759 L39.1093092,2.45448759 C39.2576165,2.45448759 39.3778433,2.56848256 39.3778433,2.70910248 C39.3778433,2.84972241 39.2576165,2.96371738 39.1093092,2.96371738 L39.0958825,2.96371738 Z" id="Shape" fill="#18181B"></path>
                            <line x1="20.9107519" y1="5.35455124" x2="50.7368366" y2="5.35455124" id="Shape" fill="#FFFFFF"></line>
                            <path d="M50.7314659,5.60916614 L20.9241786,5.60916614 C20.7758713,5.60916614 20.6556445,5.49517116 20.6556445,5.35455124 C20.6556445,5.21393132 20.7758713,5.09993635 20.9241786,5.09993635 L50.7314659,5.09993635 C50.8797732,5.09993635 51,5.21393132 51,5.35455124 C51,5.49517116 50.8797732,5.60916614 50.7314659,5.60916614 Z" id="Shape" fill="#18181B"></path>
                            <line x1="20.9107519" y1="8" x2="50.7368366" y2="8" id="Shape" fill="#FFFFFF"></line>
                            <path d="M50.7314659,8.25461489 L20.9241786,8.25461489 C20.7758713,8.25461489 20.6556445,8.14061992 20.6556445,8 C20.6556445,7.85938008 20.7758713,7.74538511 20.9241786,7.74538511 L50.7314659,7.74538511 C50.8797732,7.74538511 51,7.85938008 51,8 C51,8.14061992 50.8797732,8.25461489 50.7314659,8.25461489 Z" id="Shape" fill="#18181B"></path>
                            <line x1="20.9107519" y1="10.6454488" x2="50.7368366" y2="10.6454488" id="Shape" fill="#FFFFFF"></line>
                            <path d="M50.7314659,10.9000637 L20.9241786,10.9000637 C20.7758713,10.9000637 20.6556445,10.7860687 20.6556445,10.6454488 C20.6556445,10.5048288 20.7758713,10.3908339 20.9241786,10.3908339 L50.7314659,10.3908339 C50.8797732,10.3908339 51,10.5048288 51,10.6454488 C51,10.7860687 50.8797732,10.9000637 50.7314659,10.9000637 Z" id="Shape" fill="#18181B"></path>
                            <line x1="20.9107519" y1="13.2908975" x2="50.7368366" y2="13.2908975" id="Shape" fill="#FFFFFF"></line>
                            <path d="M50.7314659,13.5455124 L20.9241786,13.5455124 C20.7758713,13.5455124 20.6556445,13.4315174 20.6556445,13.2908975 C20.6556445,13.1502776 20.7758713,13.0362826 20.9241786,13.0362826 L50.7314659,13.0362826 C50.8797732,13.0362826 51,13.1502776 51,13.2908975 C51,13.4315174 50.8797732,13.5455124 50.7314659,13.5455124 Z" id="Shape" fill="#18181B"></path>
                        </g>
                        <line x1="1" y1="7" x2="69" y2="7" id="Shape" fill="#FFFFFF"></line>
                        <path d="M68.7310151,7 L0.268984874,7 C0.12042863,7 0,6.77614237 0,6.5 C0,6.22385763 0.12042863,6 0.268984874,6 L68.7310151,6 C68.8795714,6 69,6.22385763 69,6.5 C69,6.77614237 68.8795714,7 68.7310151,7 Z" id="Shape" fill="#18181B"></path>
                        <circle id="Shape" fill="#FFFFFF" cx="6.5" cy="3.5" r="1.5"></circle>
                        <path d="M6.50002192,5 C5.89333742,5 5.34639098,4.63454207 5.11422288,4.07403868 C4.88205477,3.51353529 5.01038653,2.86836798 5.43937725,2.43937725 C5.86836798,2.01038653 6.51353529,1.88205477 7.07403868,2.11422288 C7.63454207,2.34639098 8,2.89333742 8,3.50002192 C8,4.32843694 7.32843694,5 6.50002192,5 Z M6.50002192,2.46104375 C6.07865935,2.46104375 5.69883053,2.71499327 5.53779716,3.10437055 C5.37676378,3.49374783 5.46627153,3.94179566 5.76454818,4.23941531 C6.06282482,4.53703495 6.51106893,4.62555451 6.90009017,4.46366292 C7.28911142,4.30177134 7.54221922,3.92138347 7.54129365,3.50002192 C7.54129365,3.22407061 7.43151381,2.95945491 7.23617175,2.76454312 C7.04082968,2.56963133 6.77597257,2.46043712 6.50002192,2.46104375 Z" id="Shape" fill="#18181B"></path>
                        <circle id="Shape" fill="#FFFFFF" cx="10.5" cy="3.5" r="1.5"></circle>
                        <path d="M10.5000219,5 C9.89333742,5 9.34639098,4.63454207 9.11422288,4.07403868 C8.88205477,3.51353529 9.01038653,2.86836798 9.43937725,2.43937725 C9.86836798,2.01038653 10.5135353,1.88205477 11.0740387,2.11422288 C11.6345421,2.34639098 12,2.89333742 12,3.50002192 C12,4.32843694 11.3284369,5 10.5000219,5 Z M10.5000219,2.46104375 C10.0786594,2.46104375 9.69883053,2.71499327 9.53779716,3.10437055 C9.37676378,3.49374783 9.46627153,3.94179566 9.76454818,4.23941531 C10.0628248,4.53703495 10.5110689,4.62555451 10.9000902,4.46366292 C11.2891114,4.30177134 11.5422192,3.92138347 11.5412937,3.50002192 C11.5412937,3.22407061 11.4315138,2.95945491 11.2361717,2.76454312 C11.0408297,2.56963133 10.7759726,2.46043712 10.5000219,2.46104375 Z" id="Shape" fill="#18181B"></path>
                        <circle id="Shape" fill="#FFFFFF" cx="14.5" cy="3.5" r="1.5"></circle>
                        <path d="M14.4954129,5.00000079 C13.6675894,4.99746239 12.9983199,4.3247726 13.0000032,3.49694513 C13.0016928,2.66911765 13.6736975,1.9991603 14.5015244,2.00000079 C15.3293514,2.00084286 16.0000032,2.67216469 16.0000032,3.50000079 C15.999389,3.89842708 15.8405292,4.28029998 15.5583649,4.56160467 C15.2762006,4.84290935 14.8938452,5.00060274 14.4954129,5.00000079 Z M14.4954129,2.46099287 C13.9206344,2.46353647 13.4566182,2.9313168 13.4587202,3.50609828 C13.4608365,4.08087975 13.9282731,4.54524214 14.5030547,4.54356191 C15.0778363,4.54187254 15.5425427,4.07477785 15.5412848,3.49999388 C15.5406757,3.22342914 15.4300714,2.95846683 15.2338662,2.76355203 C15.037661,2.56863723 14.771975,2.45978398 14.4954129,2.46099287 Z" id="Shape" fill="#18181B"></path>
                    </g>
                    <g id="Element" transform="translate(35.000000, 13.000000)">
                        <rect id="Shape" stroke="#18181B" fill="#FFFFFF" x="0" y="0" width="103" height="138" rx="6"></rect>
                        <g id="Group" transform="translate(17.000000, 26.000000)">
                            <polygon id="Path" points="0 0 51 0 51 51 0 51"></polygon>
                            <path d="M32.3324318,9.47351802 L36.5540529,9.47351802 C38.8855899,9.47351802 40.7756741,11.4057132 40.7756741,13.7891967 L40.7756741,31.4187441 C43.6846375,32.4697382 45.4297927,35.5103557 44.9082426,38.6189978 C44.3866926,41.7276399 41.7501567,44 38.6648635,44 C35.5795704,44 32.9430345,41.7276399 32.4214844,38.6189978 C31.8999343,35.5103557 33.6450895,32.4697382 36.5540529,31.4187441 L36.5540529,13.7891967 L32.3324318,13.7891967 L32.3324318,20.2627147 L22.8337841,11.6313574 L32.3324318,3 L32.3324318,9.47351802 Z M11.2243259,17.7380427 C8.31536247,16.6870486 6.5702073,13.6464312 7.09175736,10.537789 C7.61330742,7.42914692 10.2498433,5.15678683 13.3351365,5.15678683 C16.4204296,5.15678683 19.0569655,7.42914692 19.5785156,10.537789 C20.1000657,13.6464312 18.3549105,16.6870486 15.4459471,17.7380427 L15.4459471,31.4187441 C18.3549105,32.4697382 20.1000657,35.5103557 19.5785156,38.6189978 C19.0569655,41.7276399 16.4204296,44 13.3351365,44 C10.2498433,44 7.61330742,41.7276399 7.09175736,38.6189978 C6.5702073,35.5103557 8.31536247,32.4697382 11.2243259,31.4187441 L11.2243259,17.7380427 L11.2243259,17.7380427 Z" id="Shape" stroke="#8348FF" fill="#FFFFFF"></path>
                        </g>
                        <g id="Group" transform="translate(14.000000, 88.000000)">
                            <rect id="Rectangle" fill="#3EEE91" x="0.424489259" y="0.539465309" width="24.4675284" height="24.0089911"></rect>
                            <path d="M25.067976,25 L0.405433867,25 C0.181518925,25 0,24.8218829 0,24.6021642 L0,0.397835773 C0,0.178117143 0.181518925,0 0.405433867,0 L25.067976,0 C25.2918909,0 25.4734099,0.178117143 25.4734099,0.397835773 L25.4734099,24.6021642 C25.4734099,24.8218829 25.2918909,25 25.067976,25 Z M0.810867734,24.2043285 L24.6625421,24.2043285 L24.6625421,0.795671547 L0.810867734,0.795671547 L0.810867734,24.2043285 Z" id="Shape" fill="#18181B"></path>
                            <line x1="31.5711352" y1="4.23297263" x2="59.0271167" y2="4.23297263" id="Shape" fill="#FFFFFF"></line>
                            <path d="M59.0271167,4.6308084 L31.5914069,4.6308084 C31.367492,4.6308084 31.185973,4.45269126 31.185973,4.23297263 C31.185973,4.013254 31.367492,3.83513686 31.5914069,3.83513686 L59.0473884,3.83513686 C59.2713033,3.83513686 59.4528222,4.013254 59.4528222,4.23297263 C59.4528222,4.45269126 59.2713033,4.6308084 59.0473884,4.6308084 L59.0271167,4.6308084 Z" id="Shape" fill="#18181B"></path>
                            <line x1="31.5711352" y1="8.36648631" x2="76.6026748" y2="8.36648631" id="Shape" fill="#FFFFFF"></line>
                            <path d="M76.5945661,8.76432209 L31.5914069,8.76432209 C31.367492,8.76432209 31.185973,8.58620495 31.185973,8.36648631 C31.185973,8.14676768 31.367492,7.96865054 31.5914069,7.96865054 L76.5945661,7.96865054 C76.8184811,7.96865054 77,8.14676768 77,8.36648631 C77,8.58620495 76.8184811,8.76432209 76.5945661,8.76432209 Z" id="Shape" fill="#18181B"></path>
                            <line x1="31.5711352" y1="12.5" x2="76.6026748" y2="12.5" id="Shape" fill="#FFFFFF"></line>
                            <path d="M76.5945661,12.8978358 L31.5914069,12.8978358 C31.367492,12.8978358 31.185973,12.7197186 31.185973,12.5 C31.185973,12.2802814 31.367492,12.1021642 31.5914069,12.1021642 L76.5945661,12.1021642 C76.8184811,12.1021642 77,12.2802814 77,12.5 C77,12.7197186 76.8184811,12.8978358 76.5945661,12.8978358 Z" id="Shape" fill="#18181B"></path>
                            <line x1="31.5711352" y1="16.6335137" x2="76.6026748" y2="16.6335137" id="Shape" fill="#FFFFFF"></line>
                            <path d="M76.5945661,17.0313495 L31.5914069,17.0313495 C31.367492,17.0313495 31.185973,16.8532323 31.185973,16.6335137 C31.185973,16.4137951 31.367492,16.2356779 31.5914069,16.2356779 L76.5945661,16.2356779 C76.8184811,16.2356779 77,16.4137951 77,16.6335137 C77,16.8532323 76.8184811,17.0313495 76.5945661,17.0313495 Z" id="Shape" fill="#18181B"></path>
                            <line x1="31.5711352" y1="20.7670274" x2="76.6026748" y2="20.7670274" id="Shape" fill="#FFFFFF"></line>
                            <path d="M76.5945661,21.1648631 L31.5914069,21.1648631 C31.367492,21.1648631 31.185973,20.986746 31.185973,20.7670274 C31.185973,20.5473087 31.367492,20.3691916 31.5914069,20.3691916 L76.5945661,20.3691916 C76.8184811,20.3691916 77,20.5473087 77,20.7670274 C77,20.986746 76.8184811,21.1648631 76.5945661,21.1648631 Z" id="Shape" fill="#18181B"></path>
                        </g>
                        <line x1="0" y1="10" x2="103" y2="10" id="Shape" fill="#FFFFFF"></line>
                        <path d="M103.594574,10 L0.405426477,10 C0.181515617,10 0,9.77614237 0,9.5 C0,9.22385763 0.181515617,9 0.405426477,9 L103.594574,9 C103.818484,9 104,9.22385763 104,9.5 C104,9.77614237 103.818484,10 103.594574,10 Z" id="Shape" fill="#18181B"></path>
                        <circle id="Shape" fill="#FFFFFF" cx="9" cy="5" r="2"></circle>
                        <path d="M8.50003654,8 C7.4888957,8 6.57731831,7.39090346 6.19037146,6.45673114 C5.80342462,5.52255881 6.01731088,4.44727996 6.73229542,3.73229542 C7.44727996,3.01731088 8.52255881,2.80342462 9.45673114,3.19037146 C10.3909035,3.57731831 11,4.4888957 11,5.50003654 C11,6.88072823 9.88072823,8 8.50003654,8 Z M8.50003654,3.76840624 C7.79776559,3.76840624 7.16471755,4.19165545 6.89632859,4.84061759 C6.62793964,5.48957972 6.77711922,6.23632609 7.27424696,6.73235884 C7.77137471,7.22839159 8.51844822,7.37592418 9.16681695,7.10610487 C9.81518569,6.83628556 10.237032,6.20230578 10.2354894,5.50003654 C10.2354894,5.04011768 10.052523,4.59909152 9.72695291,4.27423853 C9.40138281,3.94938554 8.95995428,3.7673952 8.50003654,3.76840624 Z" id="Shape" fill="#18181B"></path>
                        <circle id="Shape" fill="#FFFFFF" cx="15" cy="5" r="2"></circle>
                        <path d="M14.5000365,8 C13.4888957,8 12.5773183,7.39090346 12.1903715,6.45673114 C11.8034246,5.52255881 12.0173109,4.44727996 12.7322954,3.73229542 C13.44728,3.01731088 14.5225588,2.80342462 15.4567311,3.19037146 C16.3909035,3.57731831 17,4.4888957 17,5.50003654 C17,6.88072823 15.8807282,8 14.5000365,8 Z M14.5000365,3.76840624 C13.7977656,3.76840624 13.1647176,4.19165545 12.8963286,4.84061759 C12.6279396,5.48957972 12.7771192,6.23632609 13.274247,6.73235884 C13.7713747,7.22839159 14.5184482,7.37592418 15.166817,7.10610487 C15.8151857,6.83628556 16.237032,6.20230578 16.2354894,5.50003654 C16.2354894,5.04011768 16.052523,4.59909152 15.7269529,4.27423853 C15.4013828,3.94938554 14.9599543,3.7673952 14.5000365,3.76840624 Z" id="Shape" fill="#18181B"></path>
                        <circle id="Shape" fill="#FFFFFF" cx="21" cy="5" r="2"></circle>
                        <path d="M20.4923574,8.00000132 C19.1126501,7.99577485 17.9971999,6.87462426 18.0000053,5.49491065 C18.0028213,4.11519703 19.1228303,2.9986005 20.5025433,3.00000132 C21.8822564,3.00140478 23.0000053,4.12027543 23.0000053,5.50000132 C22.998987,6.1640478 22.7342203,6.80050316 22.263946,7.2693447 C21.7936716,7.73818624 21.156412,8.00100876 20.4923574,8.00000132 Z M20.4923574,3.76832209 C19.5343923,3.77256144 18.7610312,4.55219598 18.7645345,5.51016591 C18.7680616,6.46813584 19.5471235,7.24207381 20.5050939,7.23927342 C21.4630642,7.23645779 22.2375756,6.45796598 22.2354791,5.49999191 C22.234464,5.03905028 22.0501233,4.59744606 21.7231143,4.27258779 C21.3961053,3.94772952 20.9532948,3.76630728 20.4923574,3.76832209 Z" id="Shape" fill="#18181B"></path>
                    </g>
                    <g id="Element" transform="translate(157.000000, 13.000000)">
                        <rect id="Shape" stroke="#18181B" fill="#FFFFFF" x="1" y="0" width="103" height="138" rx="6"></rect>
                        <g id="Group" transform="translate(41.000000, 27.000000)">
                            <polygon id="Path" points="0 0 48 0 48 48 0 48"></polygon>
                            <path d="M24,4 C35.044,4 44,11.956 44,21.778 C43.9966888,27.9132924 39.0232929,32.8857932 32.888,32.888 L28.956,32.888 C27.112,32.888 25.622,34.378 25.622,36.222 C25.622,37.066 25.956,37.844 26.466,38.422 C27,39.022 27.334,39.8 27.334,40.666 C27.334,42.512 25.8,44 24,44 C12.956,44 4,35.044 4,24 C4,12.956 12.956,4 24,4 Z M15,24 C16.6568542,24 18,22.6568542 18,21 C18,19.3431458 16.6568542,18 15,18 C13.3431458,18 12,19.3431458 12,21 C12,22.6568542 13.3431458,24 15,24 Z M33,24 C34.6568542,24 36,22.6568542 36,21 C36,19.3431458 34.6568542,18 33,18 C31.3431458,18 30,19.3431458 30,21 C30,22.6568542 31.3431458,24 33,24 Z M24,18 C25.6568542,18 27,16.6568542 27,15 C27,13.3431458 25.6568542,12 24,12 C22.3431458,12 21,13.3431458 21,15 C21,16.6568542 22.3431458,18 24,18 Z" id="Shape" stroke="#8348FF" fill="#FFFFFF"></path>
                        </g>
                        <g id="Group" transform="translate(15.000000, 88.000000)">
                            <rect id="Rectangle" fill="#3EEE91" x="0.424489259" y="0.539465309" width="24.4675284" height="24.0089911"></rect>
                            <path d="M25.067976,25 L0.405433867,25 C0.181518925,25 0,24.8218829 0,24.6021642 L0,0.397835773 C0,0.178117143 0.181518925,0 0.405433867,0 L25.067976,0 C25.2918909,0 25.4734099,0.178117143 25.4734099,0.397835773 L25.4734099,24.6021642 C25.4734099,24.8218829 25.2918909,25 25.067976,25 Z M0.810867734,24.2043285 L24.6625421,24.2043285 L24.6625421,0.795671547 L0.810867734,0.795671547 L0.810867734,24.2043285 Z" id="Shape" fill="#18181B"></path>
                            <line x1="31.5711352" y1="4.23297263" x2="59.0271167" y2="4.23297263" id="Shape" fill="#FFFFFF"></line>
                            <path d="M59.0271167,4.6308084 L31.5914069,4.6308084 C31.367492,4.6308084 31.185973,4.45269126 31.185973,4.23297263 C31.185973,4.013254 31.367492,3.83513686 31.5914069,3.83513686 L59.0473884,3.83513686 C59.2713033,3.83513686 59.4528222,4.013254 59.4528222,4.23297263 C59.4528222,4.45269126 59.2713033,4.6308084 59.0473884,4.6308084 L59.0271167,4.6308084 Z" id="Shape" fill="#18181B"></path>
                            <line x1="31.5711352" y1="8.36648631" x2="76.6026748" y2="8.36648631" id="Shape" fill="#FFFFFF"></line>
                            <path d="M76.5945661,8.76432209 L31.5914069,8.76432209 C31.367492,8.76432209 31.185973,8.58620495 31.185973,8.36648631 C31.185973,8.14676768 31.367492,7.96865054 31.5914069,7.96865054 L76.5945661,7.96865054 C76.8184811,7.96865054 77,8.14676768 77,8.36648631 C77,8.58620495 76.8184811,8.76432209 76.5945661,8.76432209 Z" id="Shape" fill="#18181B"></path>
                            <line x1="31.5711352" y1="12.5" x2="76.6026748" y2="12.5" id="Shape" fill="#FFFFFF"></line>
                            <path d="M76.5945661,12.8978358 L31.5914069,12.8978358 C31.367492,12.8978358 31.185973,12.7197186 31.185973,12.5 C31.185973,12.2802814 31.367492,12.1021642 31.5914069,12.1021642 L76.5945661,12.1021642 C76.8184811,12.1021642 77,12.2802814 77,12.5 C77,12.7197186 76.8184811,12.8978358 76.5945661,12.8978358 Z" id="Shape" fill="#18181B"></path>
                            <line x1="31.5711352" y1="16.6335137" x2="76.6026748" y2="16.6335137" id="Shape" fill="#FFFFFF"></line>
                            <path d="M76.5945661,17.0313495 L31.5914069,17.0313495 C31.367492,17.0313495 31.185973,16.8532323 31.185973,16.6335137 C31.185973,16.4137951 31.367492,16.2356779 31.5914069,16.2356779 L76.5945661,16.2356779 C76.8184811,16.2356779 77,16.4137951 77,16.6335137 C77,16.8532323 76.8184811,17.0313495 76.5945661,17.0313495 Z" id="Shape" fill="#18181B"></path>
                            <line x1="31.5711352" y1="20.7670274" x2="76.6026748" y2="20.7670274" id="Shape" fill="#FFFFFF"></line>
                            <path d="M76.5945661,21.1648631 L31.5914069,21.1648631 C31.367492,21.1648631 31.185973,20.986746 31.185973,20.7670274 C31.185973,20.5473087 31.367492,20.3691916 31.5914069,20.3691916 L76.5945661,20.3691916 C76.8184811,20.3691916 77,20.5473087 77,20.7670274 C77,20.986746 76.8184811,21.1648631 76.5945661,21.1648631 Z" id="Shape" fill="#18181B"></path>
                        </g>
                        <line x1="1" y1="10" x2="104" y2="10" id="Shape" fill="#FFFFFF"></line>
                        <path d="M103.594574,10 L0.405426477,10 C0.181515617,10 0,9.77614237 0,9.5 C0,9.22385763 0.181515617,9 0.405426477,9 L103.594574,9 C103.818484,9 104,9.22385763 104,9.5 C104,9.77614237 103.818484,10 103.594574,10 Z" id="Shape" fill="#18181B"></path>
                        <circle id="Shape" fill="#FFFFFF" cx="10" cy="5" r="2"></circle>
                        <path d="M9.50003654,8 C8.4888957,8 7.57731831,7.39090346 7.19037146,6.45673114 C6.80342462,5.52255881 7.01731088,4.44727996 7.73229542,3.73229542 C8.44727996,3.01731088 9.52255881,2.80342462 10.4567311,3.19037146 C11.3909035,3.57731831 12,4.4888957 12,5.50003654 C12,6.88072823 10.8807282,8 9.50003654,8 Z M9.50003654,3.76840624 C8.79776559,3.76840624 8.16471755,4.19165545 7.89632859,4.84061759 C7.62793964,5.48957972 7.77711922,6.23632609 8.27424696,6.73235884 C8.77137471,7.22839159 9.51844822,7.37592418 10.166817,7.10610487 C10.8151857,6.83628556 11.237032,6.20230578 11.2354894,5.50003654 C11.2354894,5.04011768 11.052523,4.59909152 10.7269529,4.27423853 C10.4013828,3.94938554 9.95995428,3.7673952 9.50003654,3.76840624 Z" id="Shape" fill="#18181B"></path>
                        <circle id="Shape" fill="#FFFFFF" cx="16" cy="5" r="2"></circle>
                        <path d="M15.5000365,8 C14.4888957,8 13.5773183,7.39090346 13.1903715,6.45673114 C12.8034246,5.52255881 13.0173109,4.44727996 13.7322954,3.73229542 C14.44728,3.01731088 15.5225588,2.80342462 16.4567311,3.19037146 C17.3909035,3.57731831 18,4.4888957 18,5.50003654 C18,6.88072823 16.8807282,8 15.5000365,8 Z M15.5000365,3.76840624 C14.7977656,3.76840624 14.1647176,4.19165545 13.8963286,4.84061759 C13.6279396,5.48957972 13.7771192,6.23632609 14.274247,6.73235884 C14.7713747,7.22839159 15.5184482,7.37592418 16.166817,7.10610487 C16.8151857,6.83628556 17.237032,6.20230578 17.2354894,5.50003654 C17.2354894,5.04011768 17.052523,4.59909152 16.7269529,4.27423853 C16.4013828,3.94938554 15.9599543,3.7673952 15.5000365,3.76840624 Z" id="Shape" fill="#18181B"></path>
                        <circle id="Shape" fill="#FFFFFF" cx="22" cy="5" r="2"></circle>
                        <path d="M21.4923574,8.00000132 C20.1126501,7.99577485 18.9971999,6.87462426 19.0000053,5.49491065 C19.0028213,4.11519703 20.1228303,2.9986005 21.5025433,3.00000132 C22.8822564,3.00140478 24.0000053,4.12027543 24.0000053,5.50000132 C23.998987,6.1640478 23.7342203,6.80050316 23.263946,7.2693447 C22.7936716,7.73818624 22.156412,8.00100876 21.4923574,8.00000132 Z M21.4923574,3.76832209 C20.5343923,3.77256144 19.7610312,4.55219598 19.7645345,5.51016591 C19.7680616,6.46813584 20.5471235,7.24207381 21.5050939,7.23927342 C22.4630642,7.23645779 23.2375756,6.45796598 23.2354791,5.49999191 C23.234464,5.03905028 23.0501233,4.59744606 22.7231143,4.27258779 C22.3961053,3.94772952 21.9532948,3.76630728 21.4923574,3.76832209 Z" id="Shape" fill="#18181B"></path>
                    </g>
                    <g id="Element" transform="translate(87.000000, 0.000000)">
                        <rect id="Shape" stroke="#18181B" fill="#FFFFFF" x="0.480538203" y="0" width="122.306583" height="164" rx="7"></rect>
                        <g id="Group" transform="translate(30.000000, 28.000000)">
                            <polygon id="Path" points="0 0 63 0 63 63 0 63"></polygon>
                            <path d="M39.3322182,12.8945342 L44.553697,12.8945342 C47.4374402,12.8945342 49.7751759,15.2508697 49.7751759,18.157557 L49.7751759,39.657005 C53.3731043,40.9387052 55.5315857,44.6467752 54.8865106,48.4378022 C54.2414356,52.2288292 50.9804569,55 47.1644365,55 C43.348416,55 40.0874374,52.2288292 39.4423623,48.4378022 C38.7972872,44.6467752 40.9557686,40.9387052 44.553697,39.657005 L44.553697,18.157557 L39.3322182,18.157557 L39.3322182,26.0520911 L27.5838909,15.5260456 L39.3322182,5 L39.3322182,12.8945342 Z M13.2248241,22.9732228 C9.62689568,21.6915227 7.4684143,17.9834526 8.11348937,14.1924257 C8.75856443,10.4013987 12.0195431,7.63022784 15.8355635,7.63022784 C19.651584,7.63022784 22.9125626,10.4013987 23.5576377,14.1924257 C24.2027128,17.9834526 22.0442314,21.6915227 18.446303,22.9732228 L18.446303,39.657005 C22.0442314,40.9387052 24.2027128,44.6467752 23.5576377,48.4378022 C22.9125626,52.2288292 19.651584,55 15.8355635,55 C12.0195431,55 8.75856443,52.2288292 8.11348937,48.4378022 C7.4684143,44.6467752 9.62689568,40.9387052 13.2248241,39.657005 L13.2248241,22.9732228 L13.2248241,22.9732228 Z" id="Shape" stroke="#8348FF" fill="#FFFFFF"></path>
                        </g>
                        <g id="Group" transform="translate(16.496877, 103.858241)">
                            <rect id="Rectangle" fill="#3EEE91" x="0.503123498" y="0.651609803" width="29" height="29"></rect>
                            <path d="M29.7116771,30.1970207 L0.480538203,30.1970207 C0.215144282,30.1970207 0,29.9818764 0,29.7164825 L0,0.480538203 C0,0.215144282 0.215144282,0 0.480538203,0 L29.7116771,0 C29.977071,0 30.1922153,0.215144282 30.1922153,0.480538203 L30.1922153,29.7164825 C30.1922153,29.9818764 29.977071,30.1970207 29.7116771,30.1970207 Z M0.961076406,29.2359443 L29.2311389,29.2359443 L29.2311389,0.961076406 L0.961076406,0.961076406 L0.961076406,29.2359443 Z" id="Shape" fill="#18181B"></path>
                            <line x1="37.4195099" y1="5.11292648" x2="69.9615569" y2="5.11292648" id="Shape" fill="#FFFFFF"></line>
                            <path d="M69.9615569,5.59346468 L37.4435368,5.59346468 C37.1781428,5.59346468 36.9629986,5.3783204 36.9629986,5.11292648 C36.9629986,4.84753256 37.1781428,4.63238827 37.4435368,4.63238827 L69.9855839,4.63238827 C70.2509778,4.63238827 70.4661221,4.84753256 70.4661221,5.11292648 C70.4661221,5.3783204 70.2509778,5.59346468 69.9855839,5.59346468 L69.9615569,5.59346468 Z" id="Shape" fill="#18181B"></path>
                            <line x1="37.4195099" y1="10.1057184" x2="90.792888" y2="10.1057184" id="Shape" fill="#FFFFFF"></line>
                            <path d="M90.7832773,10.5862566 L37.4435368,10.5862566 C37.1781428,10.5862566 36.9629986,10.3711123 36.9629986,10.1057184 C36.9629986,9.84032448 37.1781428,9.6251802 37.4435368,9.6251802 L90.7832773,9.6251802 C91.0486712,9.6251802 91.2638155,9.84032448 91.2638155,10.1057184 C91.2638155,10.3711123 91.0486712,10.5862566 90.7832773,10.5862566 Z" id="Shape" fill="#18181B"></path>
                            <line x1="37.4195099" y1="15.0985103" x2="90.792888" y2="15.0985103" id="Shape" fill="#FFFFFF"></line>
                            <path d="M90.7832773,15.5790485 L37.4435368,15.5790485 C37.1781428,15.5790485 36.9629986,15.3639043 36.9629986,15.0985103 C36.9629986,14.8331164 37.1781428,14.6179721 37.4435368,14.6179721 L90.7832773,14.6179721 C91.0486712,14.6179721 91.2638155,14.8331164 91.2638155,15.0985103 C91.2638155,15.3639043 91.0486712,15.5790485 90.7832773,15.5790485 Z" id="Shape" fill="#18181B"></path>
                            <line x1="37.4195099" y1="20.0913023" x2="90.792888" y2="20.0913023" id="Shape" fill="#FFFFFF"></line>
                            <path d="M90.7832773,20.5718405 L37.4435368,20.5718405 C37.1781428,20.5718405 36.9629986,20.3566962 36.9629986,20.0913023 C36.9629986,19.8259083 37.1781428,19.6107641 37.4435368,19.6107641 L90.7832773,19.6107641 C91.0486712,19.6107641 91.2638155,19.8259083 91.2638155,20.0913023 C91.2638155,20.3566962 91.0486712,20.5718405 90.7832773,20.5718405 Z" id="Shape" fill="#18181B"></path>
                            <line x1="37.4195099" y1="25.0840942" x2="90.792888" y2="25.0840942" id="Shape" fill="#FFFFFF"></line>
                            <path d="M90.7832773,25.5646324 L37.4435368,25.5646324 C37.1781428,25.5646324 36.9629986,25.3494881 36.9629986,25.0840942 C36.9629986,24.8187003 37.1781428,24.603556 37.4435368,24.603556 L90.7832773,24.603556 C91.0486712,24.603556 91.2638155,24.8187003 91.2638155,25.0840942 C91.2638155,25.3494881 91.0486712,25.5646324 90.7832773,25.5646324 Z" id="Shape" fill="#18181B"></path>
                        </g>
                        <line x1="0.480538203" y1="11.7539644" x2="122.787122" y2="11.7539644" id="Shape" fill="#FFFFFF"></line>
                        <path d="M122.787122,12.2345026 L0.480538203,12.2345026 C0.215144282,12.2345026 0,12.0193584 0,11.7539644 C0,11.4885705 0.215144282,11.2734262 0.480538203,11.2734262 L122.787122,11.2734262 C123.052515,11.2734262 123.26766,11.4885705 123.26766,11.7539644 C123.26766,12.0193584 123.052515,12.2345026 122.787122,12.2345026 Z" id="Shape" fill="#18181B"></path>
                        <circle id="Shape" fill="#FFFFFF" cx="10.2787122" cy="6.06439212" r="2.65737626"></circle>
                        <path d="M10.2787122,9.20711197 C9.00760063,9.20711197 7.86165094,8.44141286 7.37521762,7.26705894 C6.88878429,6.09270502 7.15766206,4.74096518 8.05647364,3.8421536 C8.95528522,2.94334203 10.3070251,2.67446426 11.481379,3.16089758 C12.6557329,3.6473309 13.421432,4.7932806 13.421432,6.06439212 C13.421432,7.80006836 12.0143884,9.20711197 10.2787122,9.20711197 Z M10.2787122,3.88754875 C9.39588292,3.88754875 8.60007423,4.419618 8.26268078,5.23543239 C7.92528733,6.05124679 8.11282192,6.98998637 8.73776435,7.61355227 C9.36270677,8.23711816 10.3018576,8.42258232 11.116926,8.08339076 C11.9319945,7.7441992 12.4623002,6.94721922 12.4603609,6.06439212 C12.4603609,5.48622522 12.2303527,4.93180846 11.8210765,4.52343371 C11.4118002,4.11505897 10.8568776,3.88627775 10.2787122,3.88754875 Z" id="Shape" fill="#18181B"></path>
                        <circle id="Shape" fill="#FFFFFF" cx="17.5588659" cy="6.06439212" r="2.65737626"></circle>
                        <path d="M17.5588659,9.20711197 C16.2877544,9.20711197 15.1418047,8.44141286 14.6553714,7.26705894 C14.1689381,6.09270502 14.4378158,4.74096518 15.3366274,3.8421536 C16.235439,2.94334203 17.5871788,2.67446426 18.7615327,3.16089758 C19.9358867,3.6473309 20.7015858,4.7932806 20.7015858,6.06439212 C20.7015858,7.80006836 19.2945422,9.20711197 17.5588659,9.20711197 Z M17.5588659,3.88754875 C16.6760367,3.88754875 15.880228,4.419618 15.5428346,5.23543239 C15.2054411,6.05124679 15.3929757,6.98998637 16.0179181,7.61355227 C16.6428605,8.23711816 17.5820114,8.42258232 18.3970798,8.08339076 C19.2121482,7.7441992 19.7424539,6.94721922 19.7405147,6.06439212 C19.7405147,5.48622522 19.5105065,4.93180846 19.1012302,4.52343371 C18.691954,4.11505897 18.1370314,3.88627775 17.5588659,3.88754875 Z" id="Shape" fill="#18181B"></path>
                        <circle id="Shape" fill="#FFFFFF" cx="24.8390197" cy="6.06439212" r="2.65737626"></circle>
                        <path d="M24.8390197,9.20711564 C23.1046044,9.20180792 21.7023838,7.79242432 21.7059105,6.05800453 C21.7094505,4.32358475 23.1174018,2.91992598 24.8518243,2.92168693 C26.5862467,2.9234512 27.9913503,4.32996874 27.9913503,6.06439212 C27.9900768,6.89916801 27.6572415,7.69924766 27.0660647,8.28862216 C26.4748878,8.87799667 25.6737956,9.20838741 24.8390197,9.20711564 Z M24.8390197,3.88753284 C23.6347719,3.89286206 22.662588,4.87293036 22.666992,6.07718172 C22.6714259,7.28143307 23.6507762,8.25434028 24.8550305,8.25081995 C26.0592848,8.24728047 27.0329148,7.26864869 27.0302793,6.06439212 C27.0290032,5.48494848 26.7972705,4.92981364 26.3861909,4.5214386 C25.9751114,4.11306355 25.4184591,3.88500005 24.8390197,3.88753284 Z" id="Shape" fill="#18181B"></path>
                    </g>
                </g>
            </g>
        </g>
    </g>
</svg>