<?xml version="1.0" encoding="UTF-8"?>
<svg width="225px" height="245px" viewBox="0 0 225 245" version="1.1" xmlns="http://www.w3.org/2000/svg" xmlns:xlink="http://www.w3.org/1999/xlink">
    <title>Group</title>
    <g id="Shapes" stroke="none" stroke-width="1" fill="none" fill-rule="evenodd" stroke-linecap="round" stroke-linejoin="round">
        <g id="Group" transform="translate(7.000000, 7.000000)" stroke="#FFE350" stroke-width="13.8888889">
            <path d="M155.246694,92.0060556 C133.183083,47.8424444 58.8450278,57.5607778 48.2266944,106.077167 C41.8200278,135.351889 68.83475,155.839389 72.3241944,183.253833 L134.254472,183.253833 C136.075306,175.923556 139.780583,167.205222 142.346139,161.846611 C147.678639,150.713833 155.220861,143.437167 158.085028,131.017444 C160.809194,119.199667 160.493917,102.5105 155.246694,92.0060556 Z" id="Path" fill-rule="nonzero"></path>
            <path d="M71.18975,220.614389 C71.1719722,212.155222 70.7569722,203.696056 70.9036389,195.239389 C70.9619722,191.8905 70.38975,187.794389 73.2880833,185.453 C77.5203056,182.035778 83.8155833,181.538 89.0678056,181.411611 C98.9116944,181.176056 108.831417,181.259111 118.685583,181.279111 C123.173361,181.286889 129.871139,180.507722 133.915861,182.737722 C137.765861,184.856333 138.740306,190.631611 139.173361,194.532444 C140.003639,202.006889 142.213361,218.698 135.867528,224.484389 C131.870583,228.129111 125.636417,228.891611 120.518083,229.521889 C106.940583,231.192722 71.2100278,230.860778 71.18975,220.614389 Z" id="Path"></path>
            <path d="M0,159.958 C4.83044444,157.408556 9.87502778,155.311056 14.75725,152.872444" id="Path"></path>
            <path d="M0,60.8777222 C5.39205556,64.3016111 10.5500278,68.0857778 15.9544722,71.4799444" id="Path"></path>
            <path d="M106.429194,20.293 C106.239472,13.5116111 106.281417,6.77886111 106.498083,0" id="Path"></path>
            <path d="M189.901972,66.4860556 C196.670861,62.0055 203.641972,57.7960556 210.526694,53.4952222" id="Path"></path>
            <path d="M178.090028,158.892167 C183.309472,163.569944 188.551417,168.193556 193.603361,173.053556" id="Path"></path>
        </g>
    </g>
</svg>