<?xml version="1.0" encoding="UTF-8"?>
<svg width="75px" height="75px" viewBox="0 0 75 75" version="1.1" xmlns="http://www.w3.org/2000/svg" xmlns:xlink="http://www.w3.org/1999/xlink">
    <title>Group 9</title>
    <g id="Shapes" stroke="none" stroke-width="1" fill="none" fill-rule="evenodd">
        <g id="Group-9" transform="translate(0.500000, 0.500000)">
            <rect id="Rectangle" x="0" y="0" width="74" height="74"></rect>
            <path d="M33.11,66.64 C33.304,65.67 33.304,67.222 34.08,66.834 C34.662,66.252 34.662,66.058 35.244,65.282 C35.632,65.476 34.856,66.058 35.438,66.252 C36.602,61.79 38.348,57.716 39.512,53.06 C40.094,53.254 39.9,52.478 40.288,52.478 C40.482,51.896 39.9,51.896 40.094,51.314 C40.288,50.15 42.034,48.792 41.258,47.628 C41.84,47.24 42.034,46.464 42.034,45.494 C43.392,44.136 43.974,41.032 44.168,39.092 C45.332,37.928 45.138,36.376 46.108,35.6 C47.466,27.84 50.764,19.692 53.092,12.902 C50.958,9.992 48.242,7.47 44.168,6.5 C43.392,7.276 42.422,7.858 41.258,8.052 C41.258,8.44 41.064,8.828 40.87,9.216 C34.274,13.678 28.648,19.11 21.47,22.99 C21.276,23.96 20.888,24.93 20.5,25.706 C23.022,28.228 25.544,29.198 29.036,29.974 C33.692,29.586 35.438,25.9 38.542,24.736 C35.826,37.928 30.782,50.344 27.096,62.954 C27.29,63.536 26.708,65.476 27.29,66.446 C29.424,66.834 31.558,67.222 33.11,66.64 Z" id="Shape" fill="#8348FF" fill-rule="nonzero"></path>
        </g>
    </g>
</svg>