<?xml version="1.0" encoding="UTF-8"?>
<svg width="75px" height="75px" viewBox="0 0 75 75" version="1.1" xmlns="http://www.w3.org/2000/svg" xmlns:xlink="http://www.w3.org/1999/xlink">
    <title>Group 10</title>
    <g id="Shapes" stroke="none" stroke-width="1" fill="none" fill-rule="evenodd">
        <g id="Group-10" transform="translate(0.500000, 0.500000)">
            <rect id="Rectangle" x="0" y="0" width="74" height="74"></rect>
            <path d="M32.5909637,43.7283459 C32.3969637,43.7283459 32.3969637,43.7283459 32.3969637,43.5343459 C33.7549637,42.3703459 35.1129637,40.6243459 36.8589637,40.4303459 C37.2469637,39.4603459 38.2169637,38.6843459 38.4109637,38.1023459 C42.8729637,34.4163459 48.3049637,29.7603459 50.8269637,22.7763459 C50.4389637,15.5983459 49.2749637,9.39034587 43.4549637,7.64434587 C34.1429637,6.67434587 26.9649637,10.7483459 21.9209637,15.2103459 C21.7269637,15.9863459 21.1449637,16.5683459 20.7569637,17.1503459 C20.9509637,17.9263459 20.5629637,18.1203459 20.5629637,18.7023459 C21.1449637,19.8663459 21.1449637,20.2543459 21.9209637,21.0303459 C22.1149637,23.3583459 24.0549637,23.7463459 24.8309637,25.4923459 C25.4129637,25.4923459 26.1889637,25.4923459 26.7709637,25.4923459 C29.2929637,21.6123459 36.0829637,17.1503459 42.8729637,18.5083459 C41.3209637,23.7463459 37.6349637,26.6563459 33.9489637,29.7603459 C32.3969637,31.8943459 30.4569637,33.8343459 28.1289637,35.1923459 C20.9509637,41.9823459 12.4149637,47.4143459 6.01296374,54.7863459 C4.65496374,57.3083459 6.40096374,58.8603459 6.59496374,61.7703459 C8.92296374,65.6503459 11.2509637,67.3963459 16.8769637,67.0083459 C24.4429637,66.4263459 33.1729637,64.0983459 39.5749637,62.1583459 C42.2909637,62.5463459 44.4249637,61.1883459 46.5589637,60.8003459 C51.6029637,60.0243459 57.4229637,58.4723459 62.2729637,57.5023459 C62.0789637,57.5023459 62.0789637,57.3083459 62.2729637,57.5023459 C62.8549637,56.7263459 63.8249637,57.3083459 64.6009637,56.7263459 C64.4069637,56.7263459 64.0189637,56.7263459 64.0189637,56.5323459 C63.8249637,56.5323459 63.8249637,56.3383459 64.0189637,56.5323459 C65.3769637,56.1443459 67.1229637,55.3683459 66.5409637,54.2043459 C67.7049637,54.9803459 66.7349637,53.0403459 68.0929637,53.4283459 C68.0929637,52.6523459 66.9289637,53.2343459 66.7349637,52.6523459 C67.3169637,52.6523459 67.8989637,52.6523459 68.0929637,52.2643459 C67.5109637,52.2643459 67.3169637,52.2643459 67.1229637,51.8763459 C67.7049637,51.6823459 67.3169637,51.1003459 67.7049637,50.5183459 C67.5109637,49.9363459 66.7349637,50.7123459 66.5409637,50.3243459 C66.9289637,49.7423459 66.7349637,49.7423459 66.5409637,49.1603459 C65.9589637,48.7723459 65.3769637,48.3843459 64.2129637,48.3843459 C64.7949637,47.6083459 63.4369637,48.1903459 63.6309637,47.6083459 C48.4989637,48.3843459 35.3069637,53.2343459 19.3989637,55.5623459 C21.1449637,53.0403459 24.2489637,51.4883459 26.1889637,49.1603459 C25.9949637,49.1603459 25.9949637,48.9663459 26.1889637,48.9663459 C26.1889637,48.7723459 26.1889637,48.7723459 26.3829637,48.7723459 C26.3829637,48.5783459 26.5769637,48.5783459 26.3829637,48.7723459 C26.3829637,48.7723459 26.3829637,48.9663459 26.3829637,48.9663459 C26.7709637,48.9663459 26.9649637,48.7723459 26.9649637,48.5783459 C26.3829637,48.5783459 27.1589637,47.8023459 27.1589637,48.3843459 C27.5469637,46.8323459 29.0989637,47.6083459 29.8749637,46.2503459 C29.2929637,46.4443459 29.4869637,45.8623459 29.8749637,45.8623459 C29.8749637,46.0563459 29.8749637,46.0563459 29.8749637,46.2503459 C31.0389637,45.4743459 31.2329637,43.9223459 32.2029637,44.1163459 C32.3969637,44.1163459 32.5909637,43.9223459 32.5909637,43.7283459 Z M65.5709637,55.5623459 C65.5709637,55.7563459 65.3769637,55.7563459 65.1829637,55.7563459 C65.1829637,55.5623459 65.3769637,55.5623459 65.5709637,55.5623459 Z M26.9649637,48.5783459 C27.1589637,48.5783459 27.1589637,48.5783459 27.1589637,48.3843459 C26.9649637,48.3843459 26.9649637,48.3843459 26.9649637,48.5783459 Z M26.1889637,49.1603459 C26.3829637,49.1603459 26.3829637,49.1603459 26.3829637,48.9663459 C26.3829637,48.9663459 26.1889637,48.9663459 26.1889637,48.9663459 C26.1889637,48.9663459 26.1889637,49.1603459 26.1889637,49.1603459 Z M65.5709637,56.5323459 C65.1829637,56.5323459 64.7949637,56.5323459 64.7949637,56.9203459 C65.1829637,56.9203459 65.3769637,56.7263459 65.5709637,56.5323459 Z" id="Shape" fill="#8348FF" fill-rule="nonzero"></path>
        </g>
    </g>
</svg>