<?xml version="1.0" encoding="UTF-8"?>
<svg width="1080px" height="1080px" viewBox="0 0 1080 1080" version="1.1" xmlns="http://www.w3.org/2000/svg" xmlns:xlink="http://www.w3.org/1999/xlink">
    <title>circle-white</title>
    <g id="circle-white" stroke="none" stroke-width="1" fill="none" fill-rule="evenodd">
        <rect fill="#1D1D21" x="0" y="0" width="1080" height="1080"></rect>
        <g id="Group" transform="translate(375.000000, 375.000000)" fill="#FFFFFF" fill-rule="nonzero">
            <path d="M219.409333,72.1407076 L219.609511,72.5347797 L255.271908,145.054317 L291.247814,79.5664947 C292.389218,76.8830781 294.323366,74.503658 296.965451,72.8139603 C303.94454,68.3506117 313.220467,70.3900215 317.683816,77.3691096 C335.424897,105.109845 345,137.365422 345,171 C345,267.097546 267.097546,345 171,345 C133.977025,345 98.6624663,333.392481 69.2658582,312.174538 C62.5485684,307.326119 61.0335493,297.950259 65.8819684,291.232969 C70.7303875,284.515679 80.1062471,283.00066 86.8235369,287.849079 C111.150683,305.407976 140.333326,315 171,315 C250.529004,315 315,250.529004 315,171 C315,152.339188 311.450935,134.220423 304.697563,117.393558 L267.681006,184.768742 C261.893984,195.302172 246.738257,195.065149 241.237654,184.489055 L241.073944,184.165403 L214.454908,130.036317 L197.583991,255.74581 C196.482078,263.95647 188.932746,269.719248 180.722086,268.617334 C172.616691,267.529548 166.896814,260.158601 167.811556,252.070885 L167.850562,251.755428 L191.282324,77.1589319 C193.234151,62.6153374 212.674116,59.2996924 219.409333,72.1407076 Z M159,-15 C194.890328,-15 229.186949,-4.09382254 258.062526,15.934996 C264.86959,20.6565451 266.560234,30.0023328 261.838685,36.8093971 C257.117136,43.6164613 247.771348,45.3071054 240.964284,40.5855562 C217.070698,24.0123707 188.729525,15 159,15 C79.470996,15 15,79.470996 15,159 C15,176.754801 18.211981,194.021498 24.3460198,210.157864 L61.7209015,142.128575 C67.5079239,131.595145 82.663651,131.832169 88.1642544,142.408262 L88.3279644,142.731914 L114.947,196.861 L131.817916,71.1515071 C132.91983,62.9408472 140.469162,57.1780696 148.679822,58.279983 C156.785217,59.3677694 162.505094,66.738716 161.590352,74.8264326 L161.551346,75.1418889 L138.119584,249.738385 C136.167757,264.28198 116.727792,267.597625 109.992575,254.75661 L109.792397,254.362538 L74.13,181.843 L37.8649139,247.854518 C36.4008194,250.519436 34.2455499,252.563529 31.7447077,253.886287 C31.478861,254.072629 31.2055449,254.251559 30.924606,254.422732 C23.8500545,258.733169 14.6206974,256.492412 10.31026,249.41786 C-6.15629801,222.391945 -15,191.327351 -15,159 C-15,62.9024535 62.9024535,-15 159,-15 Z" id="Combined-Shape"></path>
        </g>
    </g>
</svg>