<?xml version="1.0" encoding="UTF-8"?>
<svg width="1080px" height="1080px" viewBox="0 0 1080 1080" version="1.1" xmlns="http://www.w3.org/2000/svg" xmlns:xlink="http://www.w3.org/1999/xlink">
    <title>stacked-line</title>
    <defs>
        <linearGradient x1="50%" y1="78.1813086%" x2="52.1686491%" y2="21.8186914%" id="linearGradient-1">
            <stop stop-color="#7C39FF" offset="0%"></stop>
            <stop stop-color="#04B9FF" offset="49.7267007%"></stop>
            <stop stop-color="#00EBBF" offset="100%"></stop>
        </linearGradient>
    </defs>
    <g id="stacked-line" stroke="none" stroke-width="1" fill="none" fill-rule="evenodd">
        <rect fill="#1D1D21" x="0" y="0" width="1080" height="1080"></rect>
        <g id="Group" transform="translate(357.000000, 322.000000)" fill="#4FF0FF" fill-rule="nonzero">
            <path d="M366,215.253476 L366,4.00088099 C366,1.79174199 364.209139,0.00088098687 362,0.00088098687 C361.381099,0.00088098687 360.77064,0.144494955 360.216653,0.420423612 L184.783347,87.7998708 C183.660249,88.3592609 182.339751,88.3592609 181.216653,87.7998708 L5.78334657,0.420423612 C3.80591456,-0.564491502 1.40445774,0.240102412 0.419542625,2.21753442 C0.143613968,2.77152141 -1.05390102e-14,3.38198018 0,4.00088099 L0,129.800411 C-5.93290146e-15,131.414728 0.970373004,132.870815 2.46030367,133.492204 L63.0853037,158.77642 C65.1242246,159.626771 67.4664422,158.663244 68.316793,156.624323 C68.5202463,156.136495 68.625,155.613181 68.625,155.084627 L68.625,114.615307 C68.625,112.406168 70.415861,110.615307 72.625,110.615307 C73.2438948,110.615307 73.8543479,110.758918 74.4083307,111.034842 L181.216625,164.233098 C182.339739,164.79249 183.660254,164.792477 184.783358,164.233062 L291.591598,111.032173 C293.569015,110.047227 295.970484,110.851784 296.95543,112.8292 C297.231376,113.383202 297.375,113.993681 297.375,114.612602 L297.375,240.537692 C297.375,242.746831 299.165861,244.537692 301.375,244.537692 C301.903554,244.537692 302.426868,244.432939 302.914696,244.229485 L363.539696,218.945269 C365.029627,218.32388 366,216.867793 366,215.253476 Z" id="Combined-Shape"></path>
        </g>
        <path d="M425.625,518.764564 L425.625,647.718171 C425.625,649.92731 427.415861,651.718171 429.625,651.718171 C430.242689,651.718171 430.851985,651.575119 431.405134,651.300227 L538.219821,598.217731 C539.341185,597.660459 540.658808,597.660472 541.780161,598.217766 L648.594795,651.30289 C650.57309,652.28607 652.97384,651.47937 653.95702,649.501075 C654.231935,648.947907 654.375,648.338585 654.375,647.720869 L654.375,604.026578 C654.375,602.411104 655.346746,600.954212 656.838237,600.333562 L717.463237,575.105876 C719.502833,574.257145 721.844285,575.222532 722.693015,577.262128 C722.89567,577.74913 723,578.271406 723,578.798891 L723,758.085291 C723,760.29443 721.209139,762.085291 719,762.085291 C718.382305,762.085291 717.773003,761.942236 717.21985,761.667339 L541.78015,674.480072 C540.658803,673.922803 539.341197,673.922803 538.21985,674.480072 L362.78015,761.667339 C360.801839,762.650488 358.401102,761.843751 357.417952,759.865441 C357.143055,759.312288 357,758.702985 357,758.085291 L357,493.536877 C357,491.327738 358.790861,489.536877 361,489.536877 C361.527485,489.536877 362.04976,489.641207 362.536763,489.843862 L423.161763,515.071549 C424.653254,515.692198 425.625,517.149091 425.625,518.764564 Z" id="Line-4" stroke="url(#linearGradient-1)" stroke-width="4" fill-rule="nonzero"></path>
    </g>
</svg>