<?xml version="1.0" encoding="UTF-8"?>
<svg width="1080px" height="1080px" viewBox="0 0 1080 1080" version="1.1" xmlns="http://www.w3.org/2000/svg" xmlns:xlink="http://www.w3.org/1999/xlink">
    <title>stacked-color</title>
    <defs>
        <linearGradient x1="50%" y1="100%" x2="50%" y2="0%" id="linearGradient-1">
            <stop stop-color="#7C39FF" offset="0%"></stop>
            <stop stop-color="#04B9FF" offset="49.7267007%"></stop>
            <stop stop-color="#00EBBF" offset="100%"></stop>
        </linearGradient>
    </defs>
    <g id="stacked-color" stroke="none" stroke-width="1" fill="none" fill-rule="evenodd">
        <rect fill="#1D1D21" x="0" y="0" width="1080" height="1080"></rect>
        <g id="Group" transform="translate(357.000000, 322.230067)" fill="url(#linearGradient-1)" fill-rule="nonzero">
            <path d="M4,162.536877 C4.5274846,162.536877 5.04976039,162.641207 5.53676254,162.843862 L66.1617625,188.071549 C67.6532542,188.692198 68.625,190.149091 68.625,191.764564 L68.625,320.718171 C68.625,322.92731 70.415861,324.718171 72.625,324.718171 C73.2426887,324.718171 73.8519852,324.575119 74.405134,324.300227 L181.219821,271.217731 C182.341185,270.660459 183.658808,270.660472 184.780161,271.217766 L291.594795,324.30289 C293.57309,325.28607 295.97384,324.47937 296.95702,322.501075 C297.231935,321.947907 297.375,321.338585 297.375,320.720869 L297.375,277.026578 C297.375,275.411104 298.346746,273.954212 299.838237,273.333562 L360.463237,248.105876 C362.502833,247.257145 364.844285,248.222532 365.693015,250.262128 C365.89567,250.74913 366,251.271406 366,251.798891 L366,431.085291 C366,433.29443 364.209139,435.085291 362,435.085291 C361.382305,435.085291 360.773003,434.942236 360.21985,434.667339 L184.78015,347.480072 C183.658803,346.922803 182.341197,346.922803 181.21985,347.480072 L5.78014985,434.667339 C3.80183947,435.650488 1.4011018,434.843751 0.417952189,432.865441 C0.143054934,432.312288 7.56457765e-17,431.702985 0,431.085291 L0,166.536877 C-2.04689834e-15,164.327738 1.790861,162.536877 4,162.536877 Z M362,0.00088098687 C364.209139,0.00088098687 366,1.79174199 366,4.00088099 L366,4.00088099 L366,215.253476 C366,216.867793 365.029627,218.32388 363.539696,218.945269 L363.539696,218.945269 L302.914696,244.229485 C302.426868,244.432939 301.903554,244.537692 301.375,244.537692 C299.165861,244.537692 297.375,242.746831 297.375,240.537692 L297.375,240.537692 L297.375,114.612602 C297.375,113.993681 297.231376,113.383202 296.95543,112.8292 C295.970484,110.851784 293.569015,110.047227 291.591598,111.032173 L291.591598,111.032173 L184.783358,164.233062 C183.660254,164.792477 182.339739,164.79249 181.216625,164.233098 L181.216625,164.233098 L74.4083307,111.034842 C73.8543479,110.758918 73.2438948,110.615307 72.625,110.615307 C70.415861,110.615307 68.625,112.406168 68.625,114.615307 L68.625,114.615307 L68.625,155.084627 C68.625,155.613181 68.5202463,156.136495 68.316793,156.624323 C67.4664422,158.663244 65.1242246,159.626771 63.0853037,158.77642 L63.0853037,158.77642 L2.46030367,133.492204 C0.970373004,132.870815 -5.93290146e-15,131.414728 0,129.800411 L0,129.800411 L0,4.00088099 C-1.05390102e-14,3.38198018 0.143613968,2.77152141 0.419542625,2.21753442 C1.40445774,0.240102412 3.80591456,-0.564491502 5.78334657,0.420423612 L5.78334657,0.420423612 L181.216653,87.7998708 C182.339751,88.3592609 183.660249,88.3592609 184.783347,87.7998708 L184.783347,87.7998708 L360.216653,0.420423612 C360.77064,0.144494955 361.381099,0.00088098687 362,0.00088098687 Z" id="Combined-Shape"></path>
        </g>
    </g>
</svg>