<?xml version="1.0" encoding="UTF-8"?>
<svg width="1080px" height="1080px" viewBox="0 0 1080 1080" version="1.1" xmlns="http://www.w3.org/2000/svg" xmlns:xlink="http://www.w3.org/1999/xlink">
    <title>stacked-white</title>
    <g id="stacked-white" stroke="none" stroke-width="1" fill="none" fill-rule="evenodd">
        <rect fill="#1D1D21" x="0" y="0" width="1080" height="1080"></rect>
        <g id="Group" transform="translate(357.000000, 321.230067)" fill="#FFFFFF" fill-rule="nonzero">
            <path d="M68.625,192.99463 L68.625,321.948238 C68.625,324.157377 70.415861,325.948238 72.625,325.948238 C73.2426887,325.948238 73.8519852,325.805185 74.405134,325.530293 L181.219821,272.447797 C182.341185,271.890526 183.658808,271.890539 184.780161,272.447833 L291.594795,325.532956 C293.57309,326.516136 295.97384,325.709436 296.95702,323.731141 C297.231935,323.177974 297.375,322.568652 297.375,321.950936 L297.375,278.256644 C297.375,276.641171 298.346746,275.184279 299.838237,274.563629 L360.463237,249.335942 C362.502833,248.487212 364.844285,249.452599 365.693015,251.492195 C365.89567,251.979197 366,252.501473 366,253.028957 L366,432.315357 C366,434.524496 364.209139,436.315357 362,436.315357 C361.382305,436.315357 360.773003,436.172303 360.21985,435.897405 L184.78015,348.710139 C183.658803,348.15287 182.341197,348.15287 181.21985,348.710139 L5.78014985,435.897405 C3.80183947,436.880555 1.4011018,436.073818 0.417952189,434.095507 C0.143054934,433.542354 7.56457765e-17,432.933052 0,432.315357 L0,167.766944 C-2.04689834e-15,165.557805 1.790861,163.766944 4,163.766944 C4.5274846,163.766944 5.04976039,163.871274 5.53676254,164.073929 L66.1617625,189.301615 C67.6532542,189.922265 68.625,191.379157 68.625,192.99463 Z" id="Line-4"></path>
            <path d="M366,30.285303 L366,241.537898 C366,243.747037 364.209139,245.537898 362,245.537898 C361.381099,245.537898 360.77064,245.394285 360.216653,245.118356 L184.783347,157.738909 C183.660249,157.179519 182.339751,157.179519 181.216653,157.738909 L5.78334657,245.118356 C3.80591456,246.103271 1.40445774,245.298677 0.419542625,243.321245 C0.143613968,242.767258 -1.05390102e-14,242.156799 0,241.537898 L0,115.738368 C-5.93290146e-15,114.124052 0.970373004,112.667965 2.46030367,112.046575 L63.0853037,86.7623595 C65.1242246,85.9120087 67.4664422,86.8755351 68.316793,88.9144561 C68.5202463,89.4022844 68.625,89.925598 68.625,90.4541524 L68.625,130.923473 C68.625,133.132612 70.415861,134.923473 72.625,134.923473 C73.2438948,134.923473 73.8543479,134.779861 74.4083307,134.503938 L181.216625,81.3056814 C182.339739,80.7462893 183.660254,80.7463024 184.783358,81.305717 L291.591598,134.506607 C293.569015,135.491553 295.970484,134.686996 296.95543,132.709579 C297.231376,132.155578 297.375,131.545099 297.375,130.926177 L297.375,5.00108722 C297.375,2.79194822 299.165861,1.00108722 301.375,1.00108722 C301.903554,1.00108722 302.426868,1.10584096 302.914696,1.30929426 L363.539696,26.5935101 C365.029627,27.2148994 366,28.6709864 366,30.285303 Z" id="Line-4" transform="translate(183.000000, 123.384423) scale(1, -1) translate(-183.000000, -123.384423) "></path>
        </g>
    </g>
</svg>