<?xml version="1.0" encoding="UTF-8"?>
<svg width="1080px" height="1620px" viewBox="0 0 1080 1620" version="1.1" xmlns="http://www.w3.org/2000/svg" xmlns:xlink="http://www.w3.org/1999/xlink">
    <title>stacked-type</title>
    <defs>
        <linearGradient x1="50%" y1="100%" x2="50%" y2="0%" id="linearGradient-1">
            <stop stop-color="#7C39FF" offset="0%"></stop>
            <stop stop-color="#04B9FF" offset="49.7267007%"></stop>
            <stop stop-color="#00EBBF" offset="100%"></stop>
        </linearGradient>
    </defs>
    <g id="stacked-type" stroke="none" stroke-width="1" fill="none" fill-rule="evenodd">
        <rect fill="#1D1D21" x="0" y="0" width="1080" height="1620"></rect>
        <g id="Group-2" transform="translate(473.853000, 777.240000)" fill="#FFFFFF" fill-rule="nonzero">
            <g id="WebMob">
                <polygon id="Path" points="74.222 2.812 60.68 54.76 45.362 54.76 37.074 20.572 28.49 54.76 13.172 54.76 0 2.812 13.542 2.812 21.016 40.626 30.266 2.812 44.178 2.812 53.058 40.626 60.606 2.812"></polygon>
                <path d="M119.51,33.448 C119.51,34.632 119.436,35.8653333 119.288,37.148 L90.65,37.148 C90.8473333,39.7133333 91.6736667,41.6743333 93.129,43.031 C94.5843333,44.3876667 96.3726667,45.066 98.494,45.066 C101.651333,45.066 103.846667,43.734 105.08,41.07 L118.548,41.07 C117.857333,43.7833333 116.611667,46.2253333 114.811,48.396 C113.010333,50.5666667 110.753333,52.2686667 108.04,53.502 C105.326667,54.7353333 102.292667,55.352 98.938,55.352 C94.8926667,55.352 91.2913333,54.4886667 88.134,52.762 C84.9766667,51.0353333 82.51,48.5686667 80.734,45.362 C78.958,42.1553333 78.07,38.406 78.07,34.114 C78.07,29.822 78.9456667,26.0726667 80.697,22.866 C82.4483333,19.6593333 84.9026667,17.1926667 88.06,15.466 C91.2173333,13.7393333 94.8433333,12.876 98.938,12.876 C102.934,12.876 106.486,13.7146667 109.594,15.392 C112.702,17.0693333 115.131667,19.462 116.883,22.57 C118.634333,25.678 119.51,29.304 119.51,33.448 Z M106.56,30.118 C106.56,27.9473333 105.82,26.2206667 104.34,24.938 C102.86,23.6553333 101.01,23.014 98.79,23.014 C96.6686667,23.014 94.8803333,23.6306667 93.425,24.864 C91.9696667,26.0973333 91.0693333,27.8486667 90.724,30.118 L106.56,30.118 Z" id="Shape"></path>
                <path d="M138.824,19.314 C140.008,17.39 141.71,15.836 143.93,14.652 C146.15,13.468 148.690667,12.876 151.552,12.876 C154.956,12.876 158.039333,13.7393333 160.802,15.466 C163.564667,17.1926667 165.747667,19.6593333 167.351,22.866 C168.954333,26.0726667 169.756,29.7973333 169.756,34.04 C169.756,38.2826667 168.954333,42.0196667 167.351,45.251 C165.747667,48.4823333 163.564667,50.9736667 160.802,52.725 C158.039333,54.4763333 154.956,55.352 151.552,55.352 C148.641333,55.352 146.100667,54.7723333 143.93,53.613 C141.759333,52.4536667 140.057333,50.912 138.824,48.988 L138.824,54.76 L126.17,54.76 L126.17,0 L138.824,0 L138.824,19.314 Z M156.88,34.04 C156.88,30.8826667 156.004333,28.4036667 154.253,26.603 C152.501667,24.8023333 150.343333,23.902 147.778,23.902 C145.262,23.902 143.128333,24.8146667 141.377,26.64 C139.625667,28.4653333 138.75,30.9566667 138.75,34.114 C138.75,37.2713333 139.625667,39.7626667 141.377,41.588 C143.128333,43.4133333 145.262,44.326 147.778,44.326 C150.294,44.326 152.44,43.401 154.216,41.551 C155.992,39.701 156.88,37.1973333 156.88,34.04 Z" id="Shape"></path>
                <polygon id="Path" points="235.246 2.812 235.246 54.76 222.592 54.76 222.592 23.606 210.974 54.76 200.762 54.76 189.07 23.532 189.07 54.76 176.416 54.76 176.416 2.812 191.364 2.812 205.942 38.776 220.372 2.812"></polygon>
                <path d="M263.144,55.352 C259.098667,55.352 255.460333,54.4886667 252.229,52.762 C248.997667,51.0353333 246.457,48.5686667 244.607,45.362 C242.757,42.1553333 241.832,38.406 241.832,34.114 C241.832,29.8713333 242.769333,26.1343333 244.644,22.903 C246.518667,19.6716667 249.084,17.1926667 252.34,15.466 C255.596,13.7393333 259.246667,12.876 263.292,12.876 C267.337333,12.876 270.988,13.7393333 274.244,15.466 C277.5,17.1926667 280.065333,19.6716667 281.94,22.903 C283.814667,26.1343333 284.752,29.8713333 284.752,34.114 C284.752,38.3566667 283.802333,42.0936667 281.903,45.325 C280.003667,48.5563333 277.413667,51.0353333 274.133,52.762 C270.852333,54.4886667 267.189333,55.352 263.144,55.352 Z M263.144,44.4 C265.561333,44.4 267.621,43.512 269.323,41.736 C271.025,39.96 271.876,37.4193333 271.876,34.114 C271.876,30.8086667 271.049667,28.268 269.397,26.492 C267.744333,24.716 265.709333,23.828 263.292,23.828 C260.825333,23.828 258.778,24.7036667 257.15,26.455 C255.522,28.2063333 254.708,30.7593333 254.708,34.114 C254.708,37.4193333 255.509667,39.96 257.113,41.736 C258.716333,43.512 260.726667,44.4 263.144,44.4 Z" id="Shape"></path>
                <path d="M304.14,19.314 C305.324,17.39 307.026,15.836 309.246,14.652 C311.466,13.468 314.006667,12.876 316.868,12.876 C320.272,12.876 323.355333,13.7393333 326.118,15.466 C328.880667,17.1926667 331.063667,19.6593333 332.667,22.866 C334.270333,26.0726667 335.072,29.7973333 335.072,34.04 C335.072,38.2826667 334.270333,42.0196667 332.667,45.251 C331.063667,48.4823333 328.880667,50.9736667 326.118,52.725 C323.355333,54.4763333 320.272,55.352 316.868,55.352 C313.957333,55.352 311.416667,54.7723333 309.246,53.613 C307.075333,52.4536667 305.373333,50.912 304.14,48.988 L304.14,54.76 L291.486,54.76 L291.486,0 L304.14,0 L304.14,19.314 Z M322.196,34.04 C322.196,30.8826667 321.320333,28.4036667 319.569,26.603 C317.817667,24.8023333 315.659333,23.902 313.094,23.902 C310.578,23.902 308.444333,24.8146667 306.693,26.64 C304.941667,28.4653333 304.066,30.9566667 304.066,34.114 C304.066,37.2713333 304.941667,39.7626667 306.693,41.588 C308.444333,43.4133333 310.578,44.326 313.094,44.326 C315.61,44.326 317.756,43.401 319.532,41.551 C321.308,39.701 322.196,37.1973333 322.196,34.04 Z" id="Shape"></path>
            </g>
        </g>
        <g id="Group" transform="translate(276.011000, 1322.240000)" fill="#FFFFFF" fill-rule="nonzero">
            <g id="Web">
                <polygon id="Path" points="74.222 2.812 60.68 54.76 45.362 54.76 37.074 20.572 28.49 54.76 13.172 54.76 0 2.812 13.542 2.812 21.016 40.626 30.266 2.812 44.178 2.812 53.058 40.626 60.606 2.812"></polygon>
                <path d="M119.51,33.448 C119.51,34.632 119.436,35.8653333 119.288,37.148 L90.65,37.148 C90.8473333,39.7133333 91.6736667,41.6743333 93.129,43.031 C94.5843333,44.3876667 96.3726667,45.066 98.494,45.066 C101.651333,45.066 103.846667,43.734 105.08,41.07 L118.548,41.07 C117.857333,43.7833333 116.611667,46.2253333 114.811,48.396 C113.010333,50.5666667 110.753333,52.2686667 108.04,53.502 C105.326667,54.7353333 102.292667,55.352 98.938,55.352 C94.8926667,55.352 91.2913333,54.4886667 88.134,52.762 C84.9766667,51.0353333 82.51,48.5686667 80.734,45.362 C78.958,42.1553333 78.07,38.406 78.07,34.114 C78.07,29.822 78.9456667,26.0726667 80.697,22.866 C82.4483333,19.6593333 84.9026667,17.1926667 88.06,15.466 C91.2173333,13.7393333 94.8433333,12.876 98.938,12.876 C102.934,12.876 106.486,13.7146667 109.594,15.392 C112.702,17.0693333 115.131667,19.462 116.883,22.57 C118.634333,25.678 119.51,29.304 119.51,33.448 Z M106.56,30.118 C106.56,27.9473333 105.82,26.2206667 104.34,24.938 C102.86,23.6553333 101.01,23.014 98.79,23.014 C96.6686667,23.014 94.8803333,23.6306667 93.425,24.864 C91.9696667,26.0973333 91.0693333,27.8486667 90.724,30.118 L106.56,30.118 Z" id="Shape"></path>
                <path d="M138.824,19.314 C140.008,17.39 141.71,15.836 143.93,14.652 C146.15,13.468 148.690667,12.876 151.552,12.876 C154.956,12.876 158.039333,13.7393333 160.802,15.466 C163.564667,17.1926667 165.747667,19.6593333 167.351,22.866 C168.954333,26.0726667 169.756,29.7973333 169.756,34.04 C169.756,38.2826667 168.954333,42.0196667 167.351,45.251 C165.747667,48.4823333 163.564667,50.9736667 160.802,52.725 C158.039333,54.4763333 154.956,55.352 151.552,55.352 C148.641333,55.352 146.100667,54.7723333 143.93,53.613 C141.759333,52.4536667 140.057333,50.912 138.824,48.988 L138.824,54.76 L126.17,54.76 L126.17,0 L138.824,0 L138.824,19.314 Z M156.88,34.04 C156.88,30.8826667 156.004333,28.4036667 154.253,26.603 C152.501667,24.8023333 150.343333,23.902 147.778,23.902 C145.262,23.902 143.128333,24.8146667 141.377,26.64 C139.625667,28.4653333 138.75,30.9566667 138.75,34.114 C138.75,37.2713333 139.625667,39.7626667 141.377,41.588 C143.128333,43.4133333 145.262,44.326 147.778,44.326 C150.294,44.326 152.44,43.401 154.216,41.551 C155.992,39.701 156.88,37.1973333 156.88,34.04 Z" id="Shape"></path>
            </g>
            <g id="Mob" transform="translate(362.919000, 0.000000)">
                <polygon id="Path" points="58.83 2.812 58.83 54.76 46.176 54.76 46.176 23.606 34.558 54.76 24.346 54.76 12.654 23.532 12.654 54.76 0 54.76 0 2.812 14.948 2.812 29.526 38.776 43.956 2.812"></polygon>
                <path d="M86.728,55.352 C82.6826667,55.352 79.0443333,54.4886667 75.813,52.762 C72.5816667,51.0353333 70.041,48.5686667 68.191,45.362 C66.341,42.1553333 65.416,38.406 65.416,34.114 C65.416,29.8713333 66.3533333,26.1343333 68.228,22.903 C70.1026667,19.6716667 72.668,17.1926667 75.924,15.466 C79.18,13.7393333 82.8306667,12.876 86.876,12.876 C90.9213333,12.876 94.572,13.7393333 97.828,15.466 C101.084,17.1926667 103.649333,19.6716667 105.524,22.903 C107.398667,26.1343333 108.336,29.8713333 108.336,34.114 C108.336,38.3566667 107.386333,42.0936667 105.487,45.325 C103.587667,48.5563333 100.997667,51.0353333 97.717,52.762 C94.4363333,54.4886667 90.7733333,55.352 86.728,55.352 Z M86.728,44.4 C89.1453333,44.4 91.205,43.512 92.907,41.736 C94.609,39.96 95.46,37.4193333 95.46,34.114 C95.46,30.8086667 94.6336667,28.268 92.981,26.492 C91.3283333,24.716 89.2933333,23.828 86.876,23.828 C84.4093333,23.828 82.362,24.7036667 80.734,26.455 C79.106,28.2063333 78.292,30.7593333 78.292,34.114 C78.292,37.4193333 79.0936667,39.96 80.697,41.736 C82.3003333,43.512 84.3106667,44.4 86.728,44.4 Z" id="Shape"></path>
                <path d="M127.724,19.314 C128.908,17.39 130.61,15.836 132.83,14.652 C135.05,13.468 137.590667,12.876 140.452,12.876 C143.856,12.876 146.939333,13.7393333 149.702,15.466 C152.464667,17.1926667 154.647667,19.6593333 156.251,22.866 C157.854333,26.0726667 158.656,29.7973333 158.656,34.04 C158.656,38.2826667 157.854333,42.0196667 156.251,45.251 C154.647667,48.4823333 152.464667,50.9736667 149.702,52.725 C146.939333,54.4763333 143.856,55.352 140.452,55.352 C137.541333,55.352 135.000667,54.7723333 132.83,53.613 C130.659333,52.4536667 128.957333,50.912 127.724,48.988 L127.724,54.76 L115.07,54.76 L115.07,0 L127.724,0 L127.724,19.314 Z M145.78,34.04 C145.78,30.8826667 144.904333,28.4036667 143.153,26.603 C141.401667,24.8023333 139.243333,23.902 136.678,23.902 C134.162,23.902 132.028333,24.8146667 130.277,26.64 C128.525667,28.4653333 127.65,30.9566667 127.65,34.114 C127.65,37.2713333 128.525667,39.7626667 130.277,41.588 C132.028333,43.4133333 134.162,44.326 136.678,44.326 C139.194,44.326 141.34,43.401 143.116,41.551 C144.892,39.701 145.78,37.1973333 145.78,34.04 Z" id="Shape"></path>
            </g>
        </g>
        <g id="WebMob" transform="translate(417.663000, 361.040000)" fill="#FFFFFF" fill-rule="nonzero">
            <polygon id="Path" points="54.162 2.052 44.28 39.96 33.102 39.96 27.054 15.012 20.79 39.96 9.612 39.96 0 2.052 9.882 2.052 15.336 29.646 22.086 2.052 32.238 2.052 38.718 29.646 44.226 2.052"></polygon>
            <path d="M87.21,24.408 C87.21,25.272 87.156,26.172 87.048,27.108 L66.15,27.108 C66.294,28.98 66.897,30.411 67.959,31.401 C69.021,32.391 70.326,32.886 71.874,32.886 C74.178,32.886 75.78,31.914 76.68,29.97 L86.508,29.97 C86.004,31.95 85.095,33.732 83.781,35.316 C82.467,36.9 80.82,38.142 78.84,39.042 C76.86,39.942 74.646,40.392 72.198,40.392 C69.246,40.392 66.618,39.762 64.314,38.502 C62.01,37.242 60.21,35.442 58.914,33.102 C57.618,30.762 56.97,28.026 56.97,24.894 C56.97,21.762 57.609,19.026 58.887,16.686 C60.165,14.346 61.956,12.546 64.26,11.286 C66.564,10.026 69.21,9.396 72.198,9.396 C75.114,9.396 77.706,10.008 79.974,11.232 C82.242,12.456 84.015,14.202 85.293,16.47 C86.571,18.738 87.21,21.384 87.21,24.408 Z M77.76,21.978 C77.76,20.394 77.22,19.134 76.14,18.198 C75.06,17.262 73.71,16.794 72.09,16.794 C70.542,16.794 69.237,17.244 68.175,18.144 C67.113,19.044 66.456,20.322 66.204,21.978 L77.76,21.978 Z" id="Shape"></path>
            <path d="M101.304,14.094 C102.168,12.69 103.41,11.556 105.03,10.692 C106.65,9.828 108.504,9.396 110.592,9.396 C113.076,9.396 115.326,10.026 117.342,11.286 C119.358,12.546 120.951,14.346 122.121,16.686 C123.291,19.026 123.876,21.744 123.876,24.84 C123.876,27.936 123.291,30.663 122.121,33.021 C120.951,35.379 119.358,37.197 117.342,38.475 C115.326,39.753 113.076,40.392 110.592,40.392 C108.468,40.392 106.614,39.969 105.03,39.123 C103.446,38.277 102.204,37.152 101.304,35.748 L101.304,39.96 L92.07,39.96 L92.07,5.68434189e-14 L101.304,5.68434189e-14 L101.304,14.094 Z M114.48,24.84 C114.48,22.536 113.841,20.727 112.563,19.413 C111.285,18.099 109.71,17.442 107.838,17.442 C106.002,17.442 104.445,18.108 103.167,19.44 C101.889,20.772 101.25,22.59 101.25,24.894 C101.25,27.198 101.889,29.016 103.167,30.348 C104.445,31.68 106.002,32.346 107.838,32.346 C109.674,32.346 111.24,31.671 112.536,30.321 C113.832,28.971 114.48,27.144 114.48,24.84 Z" id="Shape"></path>
            <polygon id="Path" points="171.666 2.052 171.666 39.96 162.432 39.96 162.432 17.226 153.954 39.96 146.502 39.96 137.97 17.172 137.97 39.96 128.736 39.96 128.736 2.052 139.644 2.052 150.282 28.296 160.812 2.052"></polygon>
            <path d="M192.024,40.392 C189.072,40.392 186.417,39.762 184.059,38.502 C181.701,37.242 179.847,35.442 178.497,33.102 C177.147,30.762 176.472,28.026 176.472,24.894 C176.472,21.798 177.156,19.071 178.524,16.713 C179.892,14.355 181.764,12.546 184.14,11.286 C186.516,10.026 189.18,9.396 192.132,9.396 C195.084,9.396 197.748,10.026 200.124,11.286 C202.5,12.546 204.372,14.355 205.74,16.713 C207.108,19.071 207.792,21.798 207.792,24.894 C207.792,27.99 207.099,30.717 205.713,33.075 C204.327,35.433 202.437,37.242 200.043,38.502 C197.649,39.762 194.976,40.392 192.024,40.392 Z M192.024,32.4 C193.788,32.4 195.291,31.752 196.533,30.456 C197.775,29.16 198.396,27.306 198.396,24.894 C198.396,22.482 197.793,20.628 196.587,19.332 C195.381,18.036 193.896,17.388 192.132,17.388 C190.332,17.388 188.838,18.027 187.65,19.305 C186.462,20.583 185.868,22.446 185.868,24.894 C185.868,27.306 186.453,29.16 187.623,30.456 C188.793,31.752 190.26,32.4 192.024,32.4 Z" id="Shape"></path>
            <path d="M221.94,14.094 C222.804,12.69 224.046,11.556 225.666,10.692 C227.286,9.828 229.14,9.396 231.228,9.396 C233.712,9.396 235.962,10.026 237.978,11.286 C239.994,12.546 241.587,14.346 242.757,16.686 C243.927,19.026 244.512,21.744 244.512,24.84 C244.512,27.936 243.927,30.663 242.757,33.021 C241.587,35.379 239.994,37.197 237.978,38.475 C235.962,39.753 233.712,40.392 231.228,40.392 C229.104,40.392 227.25,39.969 225.666,39.123 C224.082,38.277 222.84,37.152 221.94,35.748 L221.94,39.96 L212.706,39.96 L212.706,5.68434189e-14 L221.94,5.68434189e-14 L221.94,14.094 Z M235.116,24.84 C235.116,22.536 234.477,20.727 233.199,19.413 C231.921,18.099 230.346,17.442 228.474,17.442 C226.638,17.442 225.081,18.108 223.803,19.44 C222.525,20.772 221.886,22.59 221.886,24.894 C221.886,27.198 222.525,29.016 223.803,30.348 C225.081,31.68 226.638,32.346 228.474,32.346 C230.31,32.346 231.876,31.671 233.172,30.321 C234.468,28.971 235.116,27.144 235.116,24.84 Z" id="Shape"></path>
        </g>
        <rect id="Rectangle" fill="#CFCED7" opacity="0.243344262" x="0" y="1080" width="1080" height="1"></rect>
        <rect id="Rectangle" fill="#CFCED7" opacity="0.243344262" x="0" y="540" width="1080" height="1"></rect>
        <g id="Group" transform="translate(481.000000, 162.000000)" fill="url(#linearGradient-1)" fill-rule="nonzero">
            <path d="M1.30054645,53.0475062 C1.472051,53.0475062 1.64186198,53.0815567 1.80020421,53.1476975 L21.5116113,61.3813113 C21.9965499,61.583874 22.3125,62.0593631 22.3125,62.5866085 L22.3125,104.673471 C22.3125,105.394473 22.8947745,105.97896 23.6130464,105.97896 C23.8138796,105.97896 24.0119843,105.932272 24.1918332,105.842555 L58.9211988,88.5179075 C59.2857952,88.3360296 59.7142027,88.3360339 60.0787955,88.517919 L94.8081436,105.843424 C95.4513598,106.164306 96.2319316,105.901022 96.5515995,105.255362 C96.6409844,105.074823 96.6875,104.875957 96.6875,104.674352 L96.6875,90.4137532 C96.6875,89.8865078 97.0034501,89.4110187 97.4883887,89.208456 L117.199796,80.9748422 C117.862943,80.6978403 118.624235,81.0129157 118.900188,81.678583 C118.966078,81.8375269 119,82.0079832 119,82.1801394 L119,140.694223 C119,141.415224 118.417726,142 117.699454,142 C117.498618,142 117.300512,141.953022 117.120662,141.863304 L60.0787919,113.40781 C59.7142008,113.225933 59.2857992,113.225933 58.9212081,113.40781 L1.87933834,141.863304 C1.2361172,142.184176 0.455549493,141.92088 0.135891559,141.275214 C0.0465123965,141.094681 0,140.895821 0,140.694223 L0,54.3529947 C0,53.6319933 0.582274478,53.0475062 1.30054645,53.0475062 Z M117.699454,0 C118.39596,0 118.964586,0.5498879 118.998408,1.24061899 L119,1.30577604 L119,70.2527348 C119,70.7566955 118.711335,71.2134074 118.262282,71.4296537 L118.200065,71.4576332 L98.4886581,79.7096964 C98.3300472,79.7760979 98.1598988,79.8102866 97.9880464,79.8102866 C97.2915403,79.8102866 96.7229142,79.2606863 96.6890916,78.5699552 L96.6875,78.5047981 L96.6875,37.4063588 C96.6875,37.20436 96.6408027,37.0051167 96.5510823,36.824306 C96.2408479,36.1991002 95.4983854,35.9331328 94.8677646,36.2093745 L94.8071042,36.2378063 L60.0798348,53.6010938 C59.7374955,53.7722601 59.3387427,53.7829617 58.9893487,53.6331978 L58.9201594,53.6011055 L24.1928726,36.2386773 C24.0127524,36.1486236 23.8142718,36.1017529 23.6130464,36.1017529 C22.9165403,36.1017529 22.3479142,36.6513533 22.3140916,37.3420844 L22.3125,37.4072414 L22.3125,50.6152995 C22.3125,50.7878049 22.2784407,50.9585999 22.2122906,51.1178135 C21.9444504,51.7624652 21.2213924,52.0777316 20.5737625,51.8444893 L20.5113419,51.8201978 L0.799934801,43.5681346 C0.336566009,43.374148 0.0277544454,42.9309132 0.00177719939,42.4316471 L0,42.3632362 L0,1.30577604 C0,1.10378406 0.046694159,0.904547335 0.136408668,0.723741423 C0.446633382,0.0985308187 1.18909185,-0.167448168 1.81971686,0.108783649 L1.88037771,0.137214548 L58.9201687,28.6554305 C59.2625064,28.8265893 59.661254,28.8372867 60.0106429,28.6875228 L60.0798313,28.6554305 L117.119622,0.137214548 C117.299744,0.0471591257 117.498226,0 117.699454,0 Z" id="Shape"></path>
        </g>
        <g id="Group" transform="translate(310.000000, 734.000000)" fill="url(#linearGradient-1)" fill-rule="nonzero">
            <path d="M1.30054645,53.0475062 C1.472051,53.0475062 1.64186198,53.0815567 1.80020421,53.1476975 L21.5116113,61.3813113 C21.9965499,61.583874 22.3125,62.0593631 22.3125,62.5866085 L22.3125,104.673471 C22.3125,105.394473 22.8947745,105.97896 23.6130464,105.97896 C23.8138796,105.97896 24.0119843,105.932272 24.1918332,105.842555 L58.9211988,88.5179075 C59.2857952,88.3360296 59.7142027,88.3360339 60.0787955,88.517919 L94.8081436,105.843424 C95.4513598,106.164306 96.2319316,105.901022 96.5515995,105.255362 C96.6409844,105.074823 96.6875,104.875957 96.6875,104.674352 L96.6875,90.4137532 C96.6875,89.8865078 97.0034501,89.4110187 97.4883887,89.208456 L117.199796,80.9748422 C117.862943,80.6978403 118.624235,81.0129157 118.900188,81.678583 C118.966078,81.8375269 119,82.0079832 119,82.1801394 L119,140.694223 C119,141.415224 118.417726,142 117.699454,142 C117.498618,142 117.300512,141.953022 117.120662,141.863304 L60.0787919,113.40781 C59.7142008,113.225933 59.2857992,113.225933 58.9212081,113.40781 L1.87933834,141.863304 C1.2361172,142.184176 0.455549493,141.92088 0.135891559,141.275214 C0.0465123965,141.094681 0,140.895821 0,140.694223 L0,54.3529947 C0,53.6319933 0.582274478,53.0475062 1.30054645,53.0475062 Z M117.699454,0 C118.39596,0 118.964586,0.5498879 118.998408,1.24061899 L119,1.30577604 L119,70.2527348 C119,70.7566955 118.711335,71.2134074 118.262282,71.4296537 L118.200065,71.4576332 L98.4886581,79.7096964 C98.3300472,79.7760979 98.1598988,79.8102866 97.9880464,79.8102866 C97.2915403,79.8102866 96.7229142,79.2606863 96.6890916,78.5699552 L96.6875,78.5047981 L96.6875,37.4063588 C96.6875,37.20436 96.6408027,37.0051167 96.5510823,36.824306 C96.2408479,36.1991002 95.4983854,35.9331328 94.8677646,36.2093745 L94.8071042,36.2378063 L60.0798348,53.6010938 C59.7374955,53.7722601 59.3387427,53.7829617 58.9893487,53.6331978 L58.9201594,53.6011055 L24.1928726,36.2386773 C24.0127524,36.1486236 23.8142718,36.1017529 23.6130464,36.1017529 C22.9165403,36.1017529 22.3479142,36.6513533 22.3140916,37.3420844 L22.3125,37.4072414 L22.3125,50.6152995 C22.3125,50.7878049 22.2784407,50.9585999 22.2122906,51.1178135 C21.9444504,51.7624652 21.2213924,52.0777316 20.5737625,51.8444893 L20.5113419,51.8201978 L0.799934801,43.5681346 C0.336566009,43.374148 0.0277544454,42.9309132 0.00177719939,42.4316471 L0,42.3632362 L0,1.30577604 C0,1.10378406 0.046694159,0.904547335 0.136408668,0.723741423 C0.446633382,0.0985308187 1.18909185,-0.167448168 1.81971686,0.108783649 L1.88037771,0.137214548 L58.9201687,28.6554305 C59.2625064,28.8265893 59.661254,28.8372867 60.0106429,28.6875228 L60.0798313,28.6554305 L117.119622,0.137214548 C117.299744,0.0471591257 117.498226,0 117.699454,0 Z" id="Shape"></path>
        </g>
        <g id="Group" transform="translate(482.000000, 1279.000000)" fill="url(#linearGradient-1)" fill-rule="nonzero">
            <path d="M1.30054645,53.0475062 C1.472051,53.0475062 1.64186198,53.0815567 1.80020421,53.1476975 L21.5116113,61.3813113 C21.9965499,61.583874 22.3125,62.0593631 22.3125,62.5866085 L22.3125,104.673471 C22.3125,105.394473 22.8947745,105.97896 23.6130464,105.97896 C23.8138796,105.97896 24.0119843,105.932272 24.1918332,105.842555 L58.9211988,88.5179075 C59.2857952,88.3360296 59.7142027,88.3360339 60.0787955,88.517919 L94.8081436,105.843424 C95.4513598,106.164306 96.2319316,105.901022 96.5515995,105.255362 C96.6409844,105.074823 96.6875,104.875957 96.6875,104.674352 L96.6875,90.4137532 C96.6875,89.8865078 97.0034501,89.4110187 97.4883887,89.208456 L117.199796,80.9748422 C117.862943,80.6978403 118.624235,81.0129157 118.900188,81.678583 C118.966078,81.8375269 119,82.0079832 119,82.1801394 L119,140.694223 C119,141.415224 118.417726,142 117.699454,142 C117.498618,142 117.300512,141.953022 117.120662,141.863304 L60.0787919,113.40781 C59.7142008,113.225933 59.2857992,113.225933 58.9212081,113.40781 L1.87933834,141.863304 C1.2361172,142.184176 0.455549493,141.92088 0.135891559,141.275214 C0.0465123965,141.094681 0,140.895821 0,140.694223 L0,54.3529947 C0,53.6319933 0.582274478,53.0475062 1.30054645,53.0475062 Z M117.699454,0 C118.39596,0 118.964586,0.5498879 118.998408,1.24061899 L119,1.30577604 L119,70.2527348 C119,70.7566955 118.711335,71.2134074 118.262282,71.4296537 L118.200065,71.4576332 L98.4886581,79.7096964 C98.3300472,79.7760979 98.1598988,79.8102866 97.9880464,79.8102866 C97.2915403,79.8102866 96.7229142,79.2606863 96.6890916,78.5699552 L96.6875,78.5047981 L96.6875,37.4063588 C96.6875,37.20436 96.6408027,37.0051167 96.5510823,36.824306 C96.2408479,36.1991002 95.4983854,35.9331328 94.8677646,36.2093745 L94.8071042,36.2378063 L60.0798348,53.6010938 C59.7374955,53.7722601 59.3387427,53.7829617 58.9893487,53.6331978 L58.9201594,53.6011055 L24.1928726,36.2386773 C24.0127524,36.1486236 23.8142718,36.1017529 23.6130464,36.1017529 C22.9165403,36.1017529 22.3479142,36.6513533 22.3140916,37.3420844 L22.3125,37.4072414 L22.3125,50.6152995 C22.3125,50.7878049 22.2784407,50.9585999 22.2122906,51.1178135 C21.9444504,51.7624652 21.2213924,52.0777316 20.5737625,51.8444893 L20.5113419,51.8201978 L0.799934801,43.5681346 C0.336566009,43.374148 0.0277544454,42.9309132 0.00177719939,42.4316471 L0,42.3632362 L0,1.30577604 C0,1.10378406 0.046694159,0.904547335 0.136408668,0.723741423 C0.446633382,0.0985308187 1.18909185,-0.167448168 1.81971686,0.108783649 L1.88037771,0.137214548 L58.9201687,28.6554305 C59.2625064,28.8265893 59.661254,28.8372867 60.0106429,28.6875228 L60.0798313,28.6554305 L117.119622,0.137214548 C117.299744,0.0471591257 117.498226,0 117.699454,0 Z" id="Shape"></path>
        </g>
    </g>
</svg>