<?xml version="1.0" encoding="UTF-8"?>
<svg width="1080px" height="1620px" viewBox="0 0 1080 1620" version="1.1" xmlns="http://www.w3.org/2000/svg" xmlns:xlink="http://www.w3.org/1999/xlink">
    <title>uniform-type</title>
    <defs>
        <linearGradient x1="50%" y1="100%" x2="52.0534101%" y2="0%" id="linearGradient-1">
            <stop stop-color="#7C39FF" offset="0%"></stop>
            <stop stop-color="#04B9FF" offset="49.7267007%"></stop>
            <stop stop-color="#00EBBF" offset="100%"></stop>
        </linearGradient>
        <linearGradient x1="50%" y1="100%" x2="52.0532793%" y2="0%" id="linearGradient-2">
            <stop stop-color="#00EBBF" offset="0%"></stop>
            <stop stop-color="#04B9FF" offset="50.2732993%"></stop>
            <stop stop-color="#7C39FF" offset="100%"></stop>
        </linearGradient>
        <linearGradient x1="50%" y1="82.4793941%" x2="52.1686491%" y2="17.5206059%" id="linearGradient-3">
            <stop stop-color="#7C39FF" offset="0%"></stop>
            <stop stop-color="#04B9FF" offset="49.7267007%"></stop>
            <stop stop-color="#00EBBF" offset="100%"></stop>
        </linearGradient>
        <linearGradient x1="50%" y1="82.0235486%" x2="52.1686491%" y2="17.9764514%" id="linearGradient-4">
            <stop stop-color="#7C39FF" offset="0%"></stop>
            <stop stop-color="#04B9FF" offset="49.7267007%"></stop>
            <stop stop-color="#00EBBF" offset="100%"></stop>
        </linearGradient>
        <linearGradient x1="50%" y1="82.1423061%" x2="52.1686491%" y2="17.8576939%" id="linearGradient-5">
            <stop stop-color="#00EBBF" offset="0%"></stop>
            <stop stop-color="#04B9FF" offset="50.2732993%"></stop>
            <stop stop-color="#7C39FF" offset="100%"></stop>
        </linearGradient>
        <linearGradient x1="50%" y1="82.0237598%" x2="52.1686491%" y2="17.9762402%" id="linearGradient-6">
            <stop stop-color="#7C39FF" offset="0%"></stop>
            <stop stop-color="#04B9FF" offset="49.7267007%"></stop>
            <stop stop-color="#00EBBF" offset="100%"></stop>
        </linearGradient>
        <linearGradient x1="50%" y1="82.1423061%" x2="52.1686491%" y2="17.8576939%" id="linearGradient-7">
            <stop stop-color="#7C39FF" offset="0%"></stop>
            <stop stop-color="#04B9FF" offset="49.7267007%"></stop>
            <stop stop-color="#00EBBF" offset="100%"></stop>
        </linearGradient>
    </defs>
    <g id="uniform-type" stroke="none" stroke-width="1" fill="none" fill-rule="evenodd">
        <rect fill="#1D1D21" x="0" y="0" width="1080" height="1620"></rect>
        <g id="Mob" transform="translate(674.930000, 1322.240000)" fill="#FFFFFF" fill-rule="nonzero">
            <polygon id="Path" points="58.83 2.812 58.83 54.76 46.176 54.76 46.176 23.606 34.558 54.76 24.346 54.76 12.654 23.532 12.654 54.76 0 54.76 0 2.812 14.948 2.812 29.526 38.776 43.956 2.812"></polygon>
            <path d="M86.728,55.352 C82.6826667,55.352 79.0443333,54.4886667 75.813,52.762 C72.5816667,51.0353333 70.041,48.5686667 68.191,45.362 C66.341,42.1553333 65.416,38.406 65.416,34.114 C65.416,29.8713333 66.3533333,26.1343333 68.228,22.903 C70.1026667,19.6716667 72.668,17.1926667 75.924,15.466 C79.18,13.7393333 82.8306667,12.876 86.876,12.876 C90.9213333,12.876 94.572,13.7393333 97.828,15.466 C101.084,17.1926667 103.649333,19.6716667 105.524,22.903 C107.398667,26.1343333 108.336,29.8713333 108.336,34.114 C108.336,38.3566667 107.386333,42.0936667 105.487,45.325 C103.587667,48.5563333 100.997667,51.0353333 97.717,52.762 C94.4363333,54.4886667 90.7733333,55.352 86.728,55.352 Z M86.728,44.4 C89.1453333,44.4 91.205,43.512 92.907,41.736 C94.609,39.96 95.46,37.4193333 95.46,34.114 C95.46,30.8086667 94.6336667,28.268 92.981,26.492 C91.3283333,24.716 89.2933333,23.828 86.876,23.828 C84.4093333,23.828 82.362,24.7036667 80.734,26.455 C79.106,28.2063333 78.292,30.7593333 78.292,34.114 C78.292,37.4193333 79.0936667,39.96 80.697,41.736 C82.3003333,43.512 84.3106667,44.4 86.728,44.4 Z" id="Shape"></path>
            <path d="M127.724,19.314 C128.908,17.39 130.61,15.836 132.83,14.652 C135.05,13.468 137.590667,12.876 140.452,12.876 C143.856,12.876 146.939333,13.7393333 149.702,15.466 C152.464667,17.1926667 154.647667,19.6593333 156.251,22.866 C157.854333,26.0726667 158.656,29.7973333 158.656,34.04 C158.656,38.2826667 157.854333,42.0196667 156.251,45.251 C154.647667,48.4823333 152.464667,50.9736667 149.702,52.725 C146.939333,54.4763333 143.856,55.352 140.452,55.352 C137.541333,55.352 135.000667,54.7723333 132.83,53.613 C130.659333,52.4536667 128.957333,50.912 127.724,48.988 L127.724,54.76 L115.07,54.76 L115.07,-2.27373675e-13 L127.724,-2.27373675e-13 L127.724,19.314 Z M145.78,34.04 C145.78,30.8826667 144.904333,28.4036667 143.153,26.603 C141.401667,24.8023333 139.243333,23.902 136.678,23.902 C134.162,23.902 132.028333,24.8146667 130.277,26.64 C128.525667,28.4653333 127.65,30.9566667 127.65,34.114 C127.65,37.2713333 128.525667,39.7626667 130.277,41.588 C132.028333,43.4133333 134.162,44.326 136.678,44.326 C139.194,44.326 141.34,43.401 143.116,41.551 C144.892,39.701 145.78,37.1973333 145.78,34.04 Z" id="Shape"></path>
        </g>
        <g id="Group" transform="translate(455.000000, 1323.000000)" fill-rule="nonzero">
            <path d="M112.945458,1.64594535 C117.165596,4.53527949 118.259666,10.2464472 115.429539,14.4678915 L115.342575,14.5953536 L90.7817163,49.9735398 C88.951905,52.609254 85.9981876,54.0170763 83.0005619,53.9998437 C80.1058533,54.016785 77.2520872,52.7049455 75.4115614,50.2418411 L75.2182837,49.9735398 L64.4553202,34.469 L75.8413202,18.067 L83,28.377 L99.9057345,4.02646019 C102.844609,-0.206781178 108.682692,-1.27257397 112.945458,1.64594535 Z" id="Combined-Shape" fill="url(#linearGradient-1)"></path>
            <path d="M148.000248,0.000161023988 C150.950167,-0.0167411614 153.857053,1.345946 155.692685,3.900414 L155.781716,4.02646019 L166.544,19.529 L155.157,35.931 L148,25.622 L131.094265,49.9735398 L131.005234,50.099586 C128.038787,54.2276986 122.274681,55.2433888 118.054542,52.3540546 C113.869281,49.4885993 112.758631,43.8477595 115.501097,39.6370752 L115.657425,39.4046464 L140.218284,4.02646019 L140.307315,3.900414 C142.143154,1.34565752 145.05049,-0.0170489243 148.000248,0.000161023988 Z" id="Combined-Shape" fill="url(#linearGradient-2)"></path>
            <path d="M50.1257068,4.02652416 C53.0267632,-0.206784463 58.7897204,-1.27259419 62.9976322,1.6459715 C67.1634648,4.53535154 68.2434564,10.24661 65.4497475,14.4681213 L65.3639032,14.5955855 L41.1190982,49.9743337 C37.4775343,55.2882132 29.7164589,55.341352 25.9925048,50.1337501 L25.8809018,49.9743337 L1.63609683,14.5955855 C-1.26495952,10.3622769 -0.205543901,4.5645372 4.00236783,1.6459715 C8.16820044,-1.24340853 13.8581332,-0.22770222 16.7864073,3.90047597 L16.8742932,4.02652416 L33.5000293,28.2870982 L50.1257068,4.02652416 Z" id="Path" fill="url(#linearGradient-3)"></path>
            <path d="M213.125707,4.02652416 C216.026763,-0.206784463 221.78972,-1.27259419 225.997632,1.6459715 C230.163465,4.53535154 231.243456,10.24661 228.449748,14.4681213 L228.363903,14.5955855 L204.119098,49.9743337 C200.477534,55.2882132 192.716459,55.341352 188.992505,50.1337501 L188.880902,49.9743337 L164.636097,14.5955855 C161.73504,10.3622769 162.794456,4.5645372 167.002368,1.6459715 C171.1682,-1.24340853 176.858133,-0.22770222 179.786407,3.90047597 L179.874293,4.02652416 L196.500146,28.2870982 L213.125707,4.02652416 Z" id="Path" fill="url(#linearGradient-3)" transform="translate(196.500000, 27.000000) scale(1, -1) translate(-196.500000, -27.000000) "></path>
        </g>
        <g id="Group-2" transform="translate(299.000000, 756.577164)" fill-rule="nonzero">
            <g id="Group-4">
                <g id="Group-2" transform="translate(20.000000, 60.000000)">
                    <path d="M54.04,30.6081517 L56.0776862,33.566921 C58.5618417,37.1730155 57.6546711,42.1117523 54.0514639,44.5978984 C51.0320403,46.6812447 47.0775655,46.3812452 44.4136503,44.1073661 C44.8988126,43.6951987 45.3401546,43.2172736 45.7256135,42.6766943 L45.8008696,42.5693216 L54.04,30.6081517 Z M28.8348563,0.000151698887 C31.2952471,0.015362766 33.7098395,1.17415944 35.2417628,3.32257489 L35.3170188,3.42994757 L44.415,16.6361517 L34.79,30.6081517 L28.739,21.826 L14.4493465,42.5700524 L14.3740904,42.6774251 C11.8666285,46.1939655 6.99437643,47.059183 3.42720131,44.5978984 C-0.102471053,42.16249 -1.04502628,37.3735751 1.2531193,33.7893352 L1.40097897,33.566921 L22.1616464,3.42994757 L22.2369024,3.32257489 C23.7688257,1.17415944 26.1834181,0.015362766 28.6438089,0.000151698887 L28.8348563,0.000151698887 Z" id="Combined-Shape" fill="url(#linearGradient-4)"></path>
                    <path d="M84.5506535,3.42994757 C87.034809,-0.176146929 91.9695915,-1.0840445 95.5727987,1.4021016 C99.1399738,3.86338623 100.064764,8.72845502 97.672529,12.3245002 L97.599021,12.433079 L76.8383536,42.5700524 C73.7201064,47.0966186 67.0743484,47.1418842 63.885551,42.7058494 L63.7899861,42.5700524 L43.0293187,12.433079 C40.5451632,8.8269845 41.4523338,3.88824769 45.055541,1.4021016 C48.6227162,-1.05918303 53.4949682,-0.193965476 56.0024302,3.32257489 L56.0776862,3.42994757 L70.3142953,24.0960341 L84.5506535,3.42994757 Z" id="Path" fill="url(#linearGradient-5)" transform="translate(70.314170, 22.999635) scale(1, -1) translate(-70.314170, -22.999635) "></path>
                </g>
                <g id="Group-3">
                    <path d="M95.5727987,1.4021016 C99.1399738,3.86338623 100.064764,8.72845502 97.672529,12.3245002 L97.599021,12.433079 L76.8383536,42.5700524 C75.2915846,44.8154012 72.7947127,46.0146647 70.2607675,45.9998646 C67.8204794,46.0141166 65.4147548,44.9025701 63.8587079,42.8152222 L63.6829812,42.5700524 L54.5843348,29.363 L64.2103348,15.39 L70.2603348,24.173 L84.5506535,3.42994757 C87.034809,-0.176146929 91.9695915,-1.0840445 95.5727987,1.4021016 Z M54.5845888,1.89113129 L54.40278,2.05170294 C53.9589019,2.4547001 53.5540097,2.91479121 53.1991304,3.42994757 L53.1991304,3.42994757 L44.9593348,15.391 L42.9223138,12.433079 L42.8488058,12.3245002 C40.4565713,8.72845502 41.381361,3.86338623 44.9485361,1.4021016 C47.9672945,-0.68078568 51.9206921,-0.38137725 54.5845888,1.89113129 Z" id="Combined-Shape" fill="url(#linearGradient-6)"></path>
                    <path d="M42.9223138,3.42994757 C45.4064693,-0.176146929 50.3412518,-1.0840445 53.944459,1.4021016 C57.5116341,3.86338623 58.4364238,8.72845502 56.0441893,12.3245002 L55.9706813,12.433079 L35.2100139,42.5700524 C32.0917667,47.0966186 25.4460087,47.1418842 22.2572113,42.7058494 L22.1616464,42.5700524 L1.40097897,12.433079 C-1.08317653,8.8269845 -0.176005893,3.88824769 3.42720131,1.4021016 C6.99437643,-1.05918303 11.8666285,-0.193965476 14.3740904,3.32257489 L14.4493465,3.42994757 L28.6858552,24.0960341 L42.9223138,3.42994757 Z" id="Path" fill="url(#linearGradient-7)"></path>
                </g>
            </g>
            <g id="WebMob" transform="translate(163.853000, 24.240000)" fill="#FFFFFF">
                <polygon id="Path" points="74.222 2.812 60.68 54.76 45.362 54.76 37.074 20.572 28.49 54.76 13.172 54.76 0 2.812 13.542 2.812 21.016 40.626 30.266 2.812 44.178 2.812 53.058 40.626 60.606 2.812"></polygon>
                <path d="M119.51,33.448 C119.51,34.632 119.436,35.8653333 119.288,37.148 L90.65,37.148 C90.8473333,39.7133333 91.6736667,41.6743333 93.129,43.031 C94.5843333,44.3876667 96.3726667,45.066 98.494,45.066 C101.651333,45.066 103.846667,43.734 105.08,41.07 L118.548,41.07 C117.857333,43.7833333 116.611667,46.2253333 114.811,48.396 C113.010333,50.5666667 110.753333,52.2686667 108.04,53.502 C105.326667,54.7353333 102.292667,55.352 98.938,55.352 C94.8926667,55.352 91.2913333,54.4886667 88.134,52.762 C84.9766667,51.0353333 82.51,48.5686667 80.734,45.362 C78.958,42.1553333 78.07,38.406 78.07,34.114 C78.07,29.822 78.9456667,26.0726667 80.697,22.866 C82.4483333,19.6593333 84.9026667,17.1926667 88.06,15.466 C91.2173333,13.7393333 94.8433333,12.876 98.938,12.876 C102.934,12.876 106.486,13.7146667 109.594,15.392 C112.702,17.0693333 115.131667,19.462 116.883,22.57 C118.634333,25.678 119.51,29.304 119.51,33.448 Z M106.56,30.118 C106.56,27.9473333 105.82,26.2206667 104.34,24.938 C102.86,23.6553333 101.01,23.014 98.79,23.014 C96.6686667,23.014 94.8803333,23.6306667 93.425,24.864 C91.9696667,26.0973333 91.0693333,27.8486667 90.724,30.118 L106.56,30.118 Z" id="Shape"></path>
                <path d="M138.824,19.314 C140.008,17.39 141.71,15.836 143.93,14.652 C146.15,13.468 148.690667,12.876 151.552,12.876 C154.956,12.876 158.039333,13.7393333 160.802,15.466 C163.564667,17.1926667 165.747667,19.6593333 167.351,22.866 C168.954333,26.0726667 169.756,29.7973333 169.756,34.04 C169.756,38.2826667 168.954333,42.0196667 167.351,45.251 C165.747667,48.4823333 163.564667,50.9736667 160.802,52.725 C158.039333,54.4763333 154.956,55.352 151.552,55.352 C148.641333,55.352 146.100667,54.7723333 143.93,53.613 C141.759333,52.4536667 140.057333,50.912 138.824,48.988 L138.824,54.76 L126.17,54.76 L126.17,0 L138.824,0 L138.824,19.314 Z M156.88,34.04 C156.88,30.8826667 156.004333,28.4036667 154.253,26.603 C152.501667,24.8023333 150.343333,23.902 147.778,23.902 C145.262,23.902 143.128333,24.8146667 141.377,26.64 C139.625667,28.4653333 138.75,30.9566667 138.75,34.114 C138.75,37.2713333 139.625667,39.7626667 141.377,41.588 C143.128333,43.4133333 145.262,44.326 147.778,44.326 C150.294,44.326 152.44,43.401 154.216,41.551 C155.992,39.701 156.88,37.1973333 156.88,34.04 Z" id="Shape"></path>
                <polygon id="Path" points="235.246 2.812 235.246 54.76 222.592 54.76 222.592 23.606 210.974 54.76 200.762 54.76 189.07 23.532 189.07 54.76 176.416 54.76 176.416 2.812 191.364 2.812 205.942 38.776 220.372 2.812"></polygon>
                <path d="M263.144,55.352 C259.098667,55.352 255.460333,54.4886667 252.229,52.762 C248.997667,51.0353333 246.457,48.5686667 244.607,45.362 C242.757,42.1553333 241.832,38.406 241.832,34.114 C241.832,29.8713333 242.769333,26.1343333 244.644,22.903 C246.518667,19.6716667 249.084,17.1926667 252.34,15.466 C255.596,13.7393333 259.246667,12.876 263.292,12.876 C267.337333,12.876 270.988,13.7393333 274.244,15.466 C277.5,17.1926667 280.065333,19.6716667 281.94,22.903 C283.814667,26.1343333 284.752,29.8713333 284.752,34.114 C284.752,38.3566667 283.802333,42.0936667 281.903,45.325 C280.003667,48.5563333 277.413667,51.0353333 274.133,52.762 C270.852333,54.4886667 267.189333,55.352 263.144,55.352 Z M263.144,44.4 C265.561333,44.4 267.621,43.512 269.323,41.736 C271.025,39.96 271.876,37.4193333 271.876,34.114 C271.876,30.8086667 271.049667,28.268 269.397,26.492 C267.744333,24.716 265.709333,23.828 263.292,23.828 C260.825333,23.828 258.778,24.7036667 257.15,26.455 C255.522,28.2063333 254.708,30.7593333 254.708,34.114 C254.708,37.4193333 255.509667,39.96 257.113,41.736 C258.716333,43.512 260.726667,44.4 263.144,44.4 Z" id="Shape"></path>
                <path d="M304.14,19.314 C305.324,17.39 307.026,15.836 309.246,14.652 C311.466,13.468 314.006667,12.876 316.868,12.876 C320.272,12.876 323.355333,13.7393333 326.118,15.466 C328.880667,17.1926667 331.063667,19.6593333 332.667,22.866 C334.270333,26.0726667 335.072,29.7973333 335.072,34.04 C335.072,38.2826667 334.270333,42.0196667 332.667,45.251 C331.063667,48.4823333 328.880667,50.9736667 326.118,52.725 C323.355333,54.4763333 320.272,55.352 316.868,55.352 C313.957333,55.352 311.416667,54.7723333 309.246,53.613 C307.075333,52.4536667 305.373333,50.912 304.14,48.988 L304.14,54.76 L291.486,54.76 L291.486,0 L304.14,0 L304.14,19.314 Z M322.196,34.04 C322.196,30.8826667 321.320333,28.4036667 319.569,26.603 C317.817667,24.8023333 315.659333,23.902 313.094,23.902 C310.578,23.902 308.444333,24.8146667 306.693,26.64 C304.941667,28.4653333 304.066,30.9566667 304.066,34.114 C304.066,37.2713333 304.941667,39.7626667 306.693,41.588 C308.444333,43.4133333 310.578,44.326 313.094,44.326 C315.61,44.326 317.756,43.401 319.532,41.551 C321.308,39.701 322.196,37.1973333 322.196,34.04 Z" id="Shape"></path>
            </g>
        </g>
        <g id="Group-4" transform="translate(480.000000, 197.000000)" fill-rule="nonzero">
            <g id="Group-2" transform="translate(20.000000, 60.000000)">
                <path d="M54.04,30.6081517 L56.0776862,33.566921 C58.5618417,37.1730155 57.6546711,42.1117523 54.0514639,44.5978984 C51.0320403,46.6812447 47.0775655,46.3812452 44.4136503,44.1073661 C44.8988126,43.6951987 45.3401546,43.2172736 45.7256135,42.6766943 L45.8008696,42.5693216 L54.04,30.6081517 Z M28.8348563,0.000151698887 C31.2952471,0.015362766 33.7098395,1.17415944 35.2417628,3.32257489 L35.3170188,3.42994757 L44.415,16.6361517 L34.79,30.6081517 L28.739,21.826 L14.4493465,42.5700524 L14.3740904,42.6774251 C11.8666285,46.1939655 6.99437643,47.059183 3.42720131,44.5978984 C-0.102471053,42.16249 -1.04502628,37.3735751 1.2531193,33.7893352 L1.40097897,33.566921 L22.1616464,3.42994757 L22.2369024,3.32257489 C23.7688257,1.17415944 26.1834181,0.015362766 28.6438089,0.000151698887 L28.8348563,0.000151698887 Z" id="Combined-Shape" fill="url(#linearGradient-4)"></path>
                <path d="M84.5506535,3.42994757 C87.034809,-0.176146929 91.9695915,-1.0840445 95.5727987,1.4021016 C99.1399738,3.86338623 100.064764,8.72845502 97.672529,12.3245002 L97.599021,12.433079 L76.8383536,42.5700524 C73.7201064,47.0966186 67.0743484,47.1418842 63.885551,42.7058494 L63.7899861,42.5700524 L43.0293187,12.433079 C40.5451632,8.8269845 41.4523338,3.88824769 45.055541,1.4021016 C48.6227162,-1.05918303 53.4949682,-0.193965476 56.0024302,3.32257489 L56.0776862,3.42994757 L70.3142953,24.0960341 L84.5506535,3.42994757 Z" id="Path" fill="url(#linearGradient-5)" transform="translate(70.314170, 22.999635) scale(1, -1) translate(-70.314170, -22.999635) "></path>
            </g>
            <g id="Group-3">
                <path d="M95.5727987,1.4021016 C99.1399738,3.86338623 100.064764,8.72845502 97.672529,12.3245002 L97.599021,12.433079 L76.8383536,42.5700524 C75.2915846,44.8154012 72.7947127,46.0146647 70.2607675,45.9998646 C67.8204794,46.0141166 65.4147548,44.9025701 63.8587079,42.8152222 L63.6829812,42.5700524 L54.5843348,29.363 L64.2103348,15.39 L70.2603348,24.173 L84.5506535,3.42994757 C87.034809,-0.176146929 91.9695915,-1.0840445 95.5727987,1.4021016 Z M54.5845888,1.89113129 L54.40278,2.05170294 C53.9589019,2.4547001 53.5540097,2.91479121 53.1991304,3.42994757 L53.1991304,3.42994757 L44.9593348,15.391 L42.9223138,12.433079 L42.8488058,12.3245002 C40.4565713,8.72845502 41.381361,3.86338623 44.9485361,1.4021016 C47.9672945,-0.68078568 51.9206921,-0.38137725 54.5845888,1.89113129 Z" id="Combined-Shape" fill="url(#linearGradient-6)"></path>
                <path d="M42.9223138,3.42994757 C45.4064693,-0.176146929 50.3412518,-1.0840445 53.944459,1.4021016 C57.5116341,3.86338623 58.4364238,8.72845502 56.0441893,12.3245002 L55.9706813,12.433079 L35.2100139,42.5700524 C32.0917667,47.0966186 25.4460087,47.1418842 22.2572113,42.7058494 L22.1616464,42.5700524 L1.40097897,12.433079 C-1.08317653,8.8269845 -0.176005893,3.88824769 3.42720131,1.4021016 C6.99437643,-1.05918303 11.8666285,-0.193965476 14.3740904,3.32257489 L14.4493465,3.42994757 L28.6858552,24.0960341 L42.9223138,3.42994757 Z" id="Path" fill="url(#linearGradient-7)"></path>
            </g>
        </g>
        <g id="Web" transform="translate(300.011000, 1322.240000)" fill="#FFFFFF" fill-rule="nonzero">
            <polygon id="Path" points="74.222 2.812 60.68 54.76 45.362 54.76 37.074 20.572 28.49 54.76 13.172 54.76 0 2.812 13.542 2.812 21.016 40.626 30.266 2.812 44.178 2.812 53.058 40.626 60.606 2.812"></polygon>
            <path d="M119.51,33.448 C119.51,34.632 119.436,35.8653333 119.288,37.148 L90.65,37.148 C90.8473333,39.7133333 91.6736667,41.6743333 93.129,43.031 C94.5843333,44.3876667 96.3726667,45.066 98.494,45.066 C101.651333,45.066 103.846667,43.734 105.08,41.07 L118.548,41.07 C117.857333,43.7833333 116.611667,46.2253333 114.811,48.396 C113.010333,50.5666667 110.753333,52.2686667 108.04,53.502 C105.326667,54.7353333 102.292667,55.352 98.938,55.352 C94.8926667,55.352 91.2913333,54.4886667 88.134,52.762 C84.9766667,51.0353333 82.51,48.5686667 80.734,45.362 C78.958,42.1553333 78.07,38.406 78.07,34.114 C78.07,29.822 78.9456667,26.0726667 80.697,22.866 C82.4483333,19.6593333 84.9026667,17.1926667 88.06,15.466 C91.2173333,13.7393333 94.8433333,12.876 98.938,12.876 C102.934,12.876 106.486,13.7146667 109.594,15.392 C112.702,17.0693333 115.131667,19.462 116.883,22.57 C118.634333,25.678 119.51,29.304 119.51,33.448 Z M106.56,30.118 C106.56,27.9473333 105.82,26.2206667 104.34,24.938 C102.86,23.6553333 101.01,23.014 98.79,23.014 C96.6686667,23.014 94.8803333,23.6306667 93.425,24.864 C91.9696667,26.0973333 91.0693333,27.8486667 90.724,30.118 L106.56,30.118 Z" id="Shape"></path>
            <path d="M138.824,19.314 C140.008,17.39 141.71,15.836 143.93,14.652 C146.15,13.468 148.690667,12.876 151.552,12.876 C154.956,12.876 158.039333,13.7393333 160.802,15.466 C163.564667,17.1926667 165.747667,19.6593333 167.351,22.866 C168.954333,26.0726667 169.756,29.7973333 169.756,34.04 C169.756,38.2826667 168.954333,42.0196667 167.351,45.251 C165.747667,48.4823333 163.564667,50.9736667 160.802,52.725 C158.039333,54.4763333 154.956,55.352 151.552,55.352 C148.641333,55.352 146.100667,54.7723333 143.93,53.613 C141.759333,52.4536667 140.057333,50.912 138.824,48.988 L138.824,54.76 L126.17,54.76 L126.17,-2.27373675e-13 L138.824,-2.27373675e-13 L138.824,19.314 Z M156.88,34.04 C156.88,30.8826667 156.004333,28.4036667 154.253,26.603 C152.501667,24.8023333 150.343333,23.902 147.778,23.902 C145.262,23.902 143.128333,24.8146667 141.377,26.64 C139.625667,28.4653333 138.75,30.9566667 138.75,34.114 C138.75,37.2713333 139.625667,39.7626667 141.377,41.588 C143.128333,43.4133333 145.262,44.326 147.778,44.326 C150.294,44.326 152.44,43.401 154.216,41.551 C155.992,39.701 156.88,37.1973333 156.88,34.04 Z" id="Shape"></path>
        </g>
        <g id="WebMob" transform="translate(417.663000, 361.040000)" fill="#FFFFFF" fill-rule="nonzero">
            <polygon id="Path" points="54.162 2.052 44.28 39.96 33.102 39.96 27.054 15.012 20.79 39.96 9.612 39.96 0 2.052 9.882 2.052 15.336 29.646 22.086 2.052 32.238 2.052 38.718 29.646 44.226 2.052"></polygon>
            <path d="M87.21,24.408 C87.21,25.272 87.156,26.172 87.048,27.108 L66.15,27.108 C66.294,28.98 66.897,30.411 67.959,31.401 C69.021,32.391 70.326,32.886 71.874,32.886 C74.178,32.886 75.78,31.914 76.68,29.97 L86.508,29.97 C86.004,31.95 85.095,33.732 83.781,35.316 C82.467,36.9 80.82,38.142 78.84,39.042 C76.86,39.942 74.646,40.392 72.198,40.392 C69.246,40.392 66.618,39.762 64.314,38.502 C62.01,37.242 60.21,35.442 58.914,33.102 C57.618,30.762 56.97,28.026 56.97,24.894 C56.97,21.762 57.609,19.026 58.887,16.686 C60.165,14.346 61.956,12.546 64.26,11.286 C66.564,10.026 69.21,9.396 72.198,9.396 C75.114,9.396 77.706,10.008 79.974,11.232 C82.242,12.456 84.015,14.202 85.293,16.47 C86.571,18.738 87.21,21.384 87.21,24.408 Z M77.76,21.978 C77.76,20.394 77.22,19.134 76.14,18.198 C75.06,17.262 73.71,16.794 72.09,16.794 C70.542,16.794 69.237,17.244 68.175,18.144 C67.113,19.044 66.456,20.322 66.204,21.978 L77.76,21.978 Z" id="Shape"></path>
            <path d="M101.304,14.094 C102.168,12.69 103.41,11.556 105.03,10.692 C106.65,9.828 108.504,9.396 110.592,9.396 C113.076,9.396 115.326,10.026 117.342,11.286 C119.358,12.546 120.951,14.346 122.121,16.686 C123.291,19.026 123.876,21.744 123.876,24.84 C123.876,27.936 123.291,30.663 122.121,33.021 C120.951,35.379 119.358,37.197 117.342,38.475 C115.326,39.753 113.076,40.392 110.592,40.392 C108.468,40.392 106.614,39.969 105.03,39.123 C103.446,38.277 102.204,37.152 101.304,35.748 L101.304,39.96 L92.07,39.96 L92.07,5.68434189e-14 L101.304,5.68434189e-14 L101.304,14.094 Z M114.48,24.84 C114.48,22.536 113.841,20.727 112.563,19.413 C111.285,18.099 109.71,17.442 107.838,17.442 C106.002,17.442 104.445,18.108 103.167,19.44 C101.889,20.772 101.25,22.59 101.25,24.894 C101.25,27.198 101.889,29.016 103.167,30.348 C104.445,31.68 106.002,32.346 107.838,32.346 C109.674,32.346 111.24,31.671 112.536,30.321 C113.832,28.971 114.48,27.144 114.48,24.84 Z" id="Shape"></path>
            <polygon id="Path" points="171.666 2.052 171.666 39.96 162.432 39.96 162.432 17.226 153.954 39.96 146.502 39.96 137.97 17.172 137.97 39.96 128.736 39.96 128.736 2.052 139.644 2.052 150.282 28.296 160.812 2.052"></polygon>
            <path d="M192.024,40.392 C189.072,40.392 186.417,39.762 184.059,38.502 C181.701,37.242 179.847,35.442 178.497,33.102 C177.147,30.762 176.472,28.026 176.472,24.894 C176.472,21.798 177.156,19.071 178.524,16.713 C179.892,14.355 181.764,12.546 184.14,11.286 C186.516,10.026 189.18,9.396 192.132,9.396 C195.084,9.396 197.748,10.026 200.124,11.286 C202.5,12.546 204.372,14.355 205.74,16.713 C207.108,19.071 207.792,21.798 207.792,24.894 C207.792,27.99 207.099,30.717 205.713,33.075 C204.327,35.433 202.437,37.242 200.043,38.502 C197.649,39.762 194.976,40.392 192.024,40.392 Z M192.024,32.4 C193.788,32.4 195.291,31.752 196.533,30.456 C197.775,29.16 198.396,27.306 198.396,24.894 C198.396,22.482 197.793,20.628 196.587,19.332 C195.381,18.036 193.896,17.388 192.132,17.388 C190.332,17.388 188.838,18.027 187.65,19.305 C186.462,20.583 185.868,22.446 185.868,24.894 C185.868,27.306 186.453,29.16 187.623,30.456 C188.793,31.752 190.26,32.4 192.024,32.4 Z" id="Shape"></path>
            <path d="M221.94,14.094 C222.804,12.69 224.046,11.556 225.666,10.692 C227.286,9.828 229.14,9.396 231.228,9.396 C233.712,9.396 235.962,10.026 237.978,11.286 C239.994,12.546 241.587,14.346 242.757,16.686 C243.927,19.026 244.512,21.744 244.512,24.84 C244.512,27.936 243.927,30.663 242.757,33.021 C241.587,35.379 239.994,37.197 237.978,38.475 C235.962,39.753 233.712,40.392 231.228,40.392 C229.104,40.392 227.25,39.969 225.666,39.123 C224.082,38.277 222.84,37.152 221.94,35.748 L221.94,39.96 L212.706,39.96 L212.706,5.68434189e-14 L221.94,5.68434189e-14 L221.94,14.094 Z M235.116,24.84 C235.116,22.536 234.477,20.727 233.199,19.413 C231.921,18.099 230.346,17.442 228.474,17.442 C226.638,17.442 225.081,18.108 223.803,19.44 C222.525,20.772 221.886,22.59 221.886,24.894 C221.886,27.198 222.525,29.016 223.803,30.348 C225.081,31.68 226.638,32.346 228.474,32.346 C230.31,32.346 231.876,31.671 233.172,30.321 C234.468,28.971 235.116,27.144 235.116,24.84 Z" id="Shape"></path>
        </g>
        <rect id="Rectangle" fill="#CFCED7" opacity="0.243344262" x="0" y="1080" width="1080" height="1"></rect>
        <rect id="Rectangle" fill="#CFCED7" opacity="0.243344262" x="0" y="540" width="1080" height="1"></rect>
    </g>
</svg>