<?xml version="1.0" encoding="UTF-8"?>
<svg width="1080px" height="1080px" viewBox="0 0 1080 1080" version="1.1" xmlns="http://www.w3.org/2000/svg" xmlns:xlink="http://www.w3.org/1999/xlink">
    <title>uniform-basic-color</title>
    <defs>
        <linearGradient x1="50%" y1="100%" x2="51.3823445%" y2="0%" id="linearGradient-1">
            <stop stop-color="#7C39FF" offset="0%"></stop>
            <stop stop-color="#04B9FF" offset="49.7267007%"></stop>
            <stop stop-color="#00EBBF" offset="100%"></stop>
        </linearGradient>
        <linearGradient x1="50%" y1="82%" x2="52.1686491%" y2="18%" id="linearGradient-2">
            <stop stop-color="#7C39FF" offset="0%"></stop>
            <stop stop-color="#04B9FF" offset="49.7267007%"></stop>
            <stop stop-color="#00EBBF" offset="100%"></stop>
        </linearGradient>
        <linearGradient x1="50%" y1="100%" x2="51.3823445%" y2="0%" id="linearGradient-3">
            <stop stop-color="#00EBBF" offset="0%"></stop>
            <stop stop-color="#04B9FF" offset="50.2732993%"></stop>
            <stop stop-color="#7C39FF" offset="100%"></stop>
        </linearGradient>
    </defs>
    <g id="uniform-basic-color" stroke="none" stroke-width="1" fill="none" fill-rule="evenodd">
        <rect fill="#1D1D21" x="0" y="0" width="1080" height="1080"></rect>
        <g id="Group" transform="translate(379.000000, 392.000000)" fill-rule="nonzero">
            <path d="M227.927438,9.24594562 C234.644857,-0.474830853 247.989031,-2.9222069 257.732485,3.77957822 C267.378504,10.4143455 269.879233,23.5288787 263.410378,33.2225656 L263.211605,33.5152564 L207.072562,114.754054 C200.355143,124.474831 187.010969,126.922207 177.267515,120.220422 C167.621496,113.585655 165.120767,100.471121 171.589622,90.7774344 L171.788395,90.4847436 L227.927438,9.24594562 Z" id="Path" fill="url(#linearGradient-1)"></path>
            <path d="M171.927438,9.24594562 C178.644857,-0.474830853 191.989031,-2.9222069 201.732485,3.77957822 C211.378504,10.4143455 213.879233,23.5288787 207.410378,33.2225656 L207.211605,33.5152564 L151.072562,114.754054 C144.355143,124.474831 131.010969,126.922207 121.267515,120.220422 C111.621496,113.585655 109.120767,100.471121 115.589622,90.7774344 L115.788395,90.4847436 L171.927438,9.24594562 Z" id="Path" fill="url(#linearGradient-1)" transform="translate(161.500000, 62.000000) scale(1, -1) translate(-161.500000, -62.000000) "></path>
            <path d="M115.962456,9.24609251 C122.673855,-0.474838396 136.00607,-2.92225333 145.740791,3.77963827 C155.378165,10.4145109 157.876653,23.5292526 151.413595,33.2230934 L151.215,33.5157889 L95.1262719,114.755877 C86.7017585,126.958119 68.7470317,127.080142 60.131914,115.121945 L59.8737281,114.755877 L3.78500012,33.5157889 C-2.92639888,23.794858 -0.475512009,10.4815299 9.25920916,3.77963827 C18.8965831,-2.85523441 32.0598604,-0.522871764 38.8342259,8.95664852 L39.0375439,9.24609251 L77.4993541,64.9555588 L115.962456,9.24609251 Z" id="Path" fill="url(#linearGradient-2)"></path>
            <path d="M65.2675151,176.779578 C74.9135342,170.144811 88.0886196,172.477137 94.869062,181.956506 L95.0725624,182.245946 L151.211605,263.484744 C157.929024,273.20552 155.475939,286.518637 145.732485,293.220422 C136.086466,299.855189 122.91138,297.522863 116.130938,288.043494 L115.927438,287.754054 L59.7883954,206.515256 C53.070976,196.79448 55.5240614,183.481363 65.2675151,176.779578 Z" id="Path" fill="url(#linearGradient-1)" transform="translate(105.500000, 235.000000) scale(1, -1) translate(-105.500000, -235.000000) "></path>
            <path d="M121.267515,176.779578 C130.913534,170.144811 144.08862,172.477137 150.869062,181.956506 L151.072562,182.245946 L207.211605,263.484744 C213.929024,273.20552 211.475939,286.518637 201.732485,293.220422 C192.086466,299.855189 178.91138,297.522863 172.130938,288.043494 L171.927438,287.754054 L115.788395,206.515256 C109.070976,196.79448 111.524061,183.481363 121.267515,176.779578 Z" id="Path" fill="url(#linearGradient-3)" transform="translate(161.500000, 235.000000) scale(-1, -1) translate(-161.500000, -235.000000) "></path>
            <path d="M283.962456,182.246093 C290.673855,172.525162 304.00607,170.077747 313.740791,176.779638 C323.378165,183.414511 325.876653,196.529253 319.413595,206.223093 L319.215,206.515789 L263.126272,287.755877 C254.701758,299.958119 236.747032,300.080142 228.131914,288.121945 L227.873728,287.755877 L171.785,206.515789 C165.073601,196.794858 167.524488,183.48153 177.259209,176.779638 C186.896583,170.144766 200.05986,172.477128 206.834226,181.956649 L207.037544,182.246093 L245.499625,237.955559 L283.962456,182.246093 Z" id="Path" fill="url(#linearGradient-2)" transform="translate(245.500000, 235.000000) scale(1, -1) translate(-245.500000, -235.000000) "></path>
        </g>
    </g>
</svg>