<?xml version="1.0" encoding="UTF-8"?>
<svg width="1080px" height="1080px" viewBox="0 0 1080 1080" version="1.1" xmlns="http://www.w3.org/2000/svg" xmlns:xlink="http://www.w3.org/1999/xlink">
    <title>uniform-basic-white</title>
    <g id="uniform-basic-white" stroke="none" stroke-width="1" fill="none" fill-rule="evenodd">
        <rect fill="#1D1D21" x="0" y="0" width="1080" height="1080"></rect>
        <g id="Group" transform="translate(275.000000, 478.000000)" fill="#FFFFFF" fill-rule="nonzero">
            <path d="M227.927438,9.24594562 C234.644857,-0.474830853 247.989031,-2.9222069 257.732485,3.77957822 C267.378504,10.4143455 269.879233,23.5288787 263.410378,33.2225656 L263.211605,33.5152564 L207.072562,114.754054 C200.355143,124.474831 187.010969,126.922207 177.267515,120.220422 C167.621496,113.585655 165.120767,100.471121 171.589622,90.7774344 L171.788395,90.4847436 L227.927438,9.24594562 Z" id="Path"></path>
            <path d="M171.927438,9.24594562 C178.644857,-0.474830853 191.989031,-2.9222069 201.732485,3.77957822 C211.378504,10.4143455 213.879233,23.5288787 207.410378,33.2225656 L207.211605,33.5152564 L151.072562,114.754054 C144.355143,124.474831 131.010969,126.922207 121.267515,120.220422 C111.621496,113.585655 109.120767,100.471121 115.589622,90.7774344 L115.788395,90.4847436 L171.927438,9.24594562 Z" id="Path" transform="translate(161.500000, 62.000000) scale(1, -1) translate(-161.500000, -62.000000) "></path>
            <path d="M115.962456,9.24609251 C122.673855,-0.474838396 136.00607,-2.92225333 145.740791,3.77963827 C155.378165,10.4145109 157.876653,23.5292526 151.413595,33.2230934 L151.215,33.5157889 L95.1262719,114.755877 C86.7017585,126.958119 68.7470317,127.080142 60.131914,115.121945 L59.8737281,114.755877 L3.78500012,33.5157889 C-2.92639888,23.794858 -0.475512009,10.4815299 9.25920916,3.77963827 C18.8965831,-2.85523441 32.0598604,-0.522871764 38.8342259,8.95664852 L39.0375439,9.24609251 L77.4993541,64.9555588 L115.962456,9.24609251 Z" id="Path"></path>
            <path d="M272.267515,3.77957822 C281.913534,-2.85518905 295.08862,-0.522863458 301.869062,8.95650622 L302.072562,9.24594562 L358.211605,90.4847436 C364.929024,100.20552 362.475939,113.518637 352.732485,120.220422 C343.086466,126.855189 329.91138,124.522863 323.130938,115.043494 L322.927438,114.754054 L266.788395,33.5152564 C260.070976,23.7944799 262.524061,10.4813633 272.267515,3.77957822 Z" id="Path" transform="translate(312.500000, 62.000000) scale(1, -1) translate(-312.500000, -62.000000) "></path>
            <path d="M328.267515,3.77957822 C337.913534,-2.85518905 351.08862,-0.522863458 357.869062,8.95650622 L358.072562,9.24594562 L414.211605,90.4847436 C420.929024,100.20552 418.475939,113.518637 408.732485,120.220422 C399.086466,126.855189 385.91138,124.522863 379.130938,115.043494 L378.927438,114.754054 L322.788395,33.5152564 C316.070976,23.7944799 318.524061,10.4813633 328.267515,3.77957822 Z" id="Path" transform="translate(368.500000, 62.000000) scale(-1, -1) translate(-368.500000, -62.000000) "></path>
            <path d="M490.962456,9.24609251 C497.673855,-0.474838396 511.00607,-2.92225333 520.740791,3.77963827 C530.378165,10.4145109 532.876653,23.5292526 526.413595,33.2230934 L526.215,33.5157889 L470.126272,114.755877 C461.701758,126.958119 443.747032,127.080142 435.131914,115.121945 L434.873728,114.755877 L378.785,33.5157889 C372.073601,23.794858 374.524488,10.4815299 384.259209,3.77963827 C393.896583,-2.85523441 407.05986,-0.522871764 413.834226,8.95664852 L414.037544,9.24609251 L452.499625,64.9555588 L490.962456,9.24609251 Z" id="Path" transform="translate(452.500000, 62.000000) scale(1, -1) translate(-452.500000, -62.000000) "></path>
        </g>
    </g>
</svg>