<?xml version="1.0" encoding="UTF-8"?>
<svg width="1080px" height="1080px" viewBox="0 0 1080 1080" version="1.1" xmlns="http://www.w3.org/2000/svg" xmlns:xlink="http://www.w3.org/1999/xlink">
    <title>uniform-notch-white</title>
    <g id="uniform-notch-white" stroke="none" stroke-width="1" fill="none" fill-rule="evenodd">
        <rect fill="#1D1D21" x="0" y="0" width="1080" height="1080"></rect>
        <g id="Group" transform="translate(254.000000, 473.000000)" fill="#FFFFFF" fill-rule="nonzero">
            <path d="M278.995342,4.08438292 C289.40861,11.2542121 292.108249,25.426369 285.124857,35.9018048 L284.910273,36.2180997 L224.305901,124.008414 C219.79046,130.549394 212.501333,134.042913 205.104049,133.999602 C197.844387,134.042111 190.68829,130.67757 186.156539,124.368663 L185.902844,124.008414 L159.343745,85.535 L187.441745,44.833 L205.103745,70.419 L246.819584,9.9915864 C254.071311,-0.513123663 268.476888,-3.15786875 278.995342,4.08438292 Z M159.344306,5.51015264 L159.328423,5.52285226 C157.829321,6.80142514 156.470468,8.29385548 155.298472,9.9915864 L155.298472,9.9915864 L131.245745,44.833 L125.298472,36.2180997 L125.083888,35.9018048 C118.100496,25.426369 120.800135,11.2542121 131.213403,4.08438292 C140.026273,-1.98352641 151.567865,-1.11086265 159.344306,5.51015264 Z" id="Combined-Shape" style="mix-blend-mode: normal;"></path>
            <path d="M440.753,89.165 L446.701528,97.7819003 C453.953255,108.28661 451.30505,122.673365 440.786597,129.915617 C431.973349,135.983787 420.431144,135.110788 412.654693,128.488995 C414.067578,127.286741 415.356319,125.894208 416.481842,124.319066 L416.701528,124.006285 L440.753,89.165 Z M366.905997,0.000337746232 C374.180814,-0.0389047547 381.349781,3.34241234 385.877469,9.67880511 L386.097156,9.9915864 L412.655,48.463 L384.557,89.165 L366.895,63.58 L325.180416,124.008414 L324.960729,124.321195 C317.640966,134.56503 303.417927,137.085446 293.004658,129.915617 C282.592452,122.746519 279.892302,108.576523 286.873005,98.1014018 L287.089727,97.7819003 L347.694099,9.9915864 L347.913786,9.67880511 C352.441474,3.34241234 359.610441,-0.0389047547 366.885258,0.000337746232 L366.905997,0.000337746232 Z" id="Combined-Shape" style="mix-blend-mode: normal;"></path>
            <path d="M125.298472,9.9915864 C132.550198,-0.513123663 146.955775,-3.15786875 157.474229,4.08438292 C167.887498,11.2542121 170.587136,25.426369 163.603744,35.9018048 L163.389161,36.2180997 L102.784788,124.008414 C93.6820259,137.194498 74.281783,137.326358 64.9730712,124.403996 L64.694099,124.008414 L4.0897265,36.2180997 C-3.16200018,25.7133896 -0.513794982,11.3266346 10.0046584,4.08438292 C20.4179272,-3.08544623 34.640966,-0.565029865 41.9607286,9.67880511 L42.1804156,9.9915864 L83.7395168,70.1927951 L125.298472,9.9915864 Z" id="Path"></path>
            <path d="M529.819584,9.9915864 C537.071311,-0.513123663 551.476888,-3.15786875 561.995342,4.08438292 C572.40861,11.2542121 575.108249,25.426369 568.124857,35.9018048 L567.910273,36.2180997 L507.305901,124.008414 C498.203139,137.194498 478.802896,137.326358 469.494184,124.403996 L469.215212,124.008414 L408.610839,36.2180997 C401.359113,25.7133896 404.007318,11.3266346 414.525771,4.08438292 C424.93904,-3.08544623 439.162079,-0.565029865 446.481842,9.67880511 L446.701528,9.9915864 L488.260923,70.1927951 L529.819584,9.9915864 Z" id="Path" transform="translate(488.260556, 66.998936) scale(1, -1) translate(-488.260556, -66.998936) "></path>
        </g>
    </g>
</svg>