<?xml version="1.0" encoding="UTF-8"?>
<svg width="180px" height="120px" viewBox="0 0 180 120" version="1.1" xmlns="http://www.w3.org/2000/svg" xmlns:xlink="http://www.w3.org/1999/xlink">
    <title>Artboard Copy 5</title>
    <defs>
        <linearGradient x1="0%" y1="27.7777778%" x2="100%" y2="72.2222222%" id="linearGradient-1">
            <stop stop-color="#B97EFF" offset="0%"></stop>
            <stop stop-color="#8348FF" offset="100%"></stop>
        </linearGradient>
    </defs>
    <g id="Artboard-Copy-5" stroke="none" stroke-width="1" fill="none" fill-rule="evenodd">
        <rect id="Rectangle" fill="url(#linearGradient-1)" x="0" y="0" width="180" height="120"></rect>
        <g id="Group" transform="translate(50.000000, 20.000000)">
            <polygon id="Path" points="0 0 80 0 80 80 0 80"></polygon>
            <path d="M66.6666667,73 L13.3333333,73 C11.4923842,73 10,71.5001539 10,69.65 L10,9.35 C10,7.49984609 11.4923842,6 13.3333333,6 L66.6666667,6 C68.5076158,6 70,7.49984609 70,9.35 L70,69.65 C70,71.5001539 68.5076158,73 66.6666667,73 Z M23.3333333,19.4 L23.3333333,32.8 L36.6666667,32.8 L36.6666667,19.4 L23.3333333,19.4 Z M23.3333333,39.5 L23.3333333,46.2 L56.6666667,46.2 L56.6666667,39.5 L23.3333333,39.5 Z M23.3333333,52.9 L23.3333333,59.6 L56.6666667,59.6 L56.6666667,52.9 L23.3333333,52.9 Z M43.3333333,22.75 L43.3333333,29.45 L56.6666667,29.45 L56.6666667,22.75 L43.3333333,22.75 Z" id="Shape" fill="#FFFFFF" fill-rule="nonzero"></path>
        </g>
    </g>
</svg>