<?xml version="1.0" encoding="UTF-8"?>
<svg width="180px" height="120px" viewBox="0 0 180 120" version="1.1" xmlns="http://www.w3.org/2000/svg" xmlns:xlink="http://www.w3.org/1999/xlink">
    <title>Artboard Copy 5</title>
    <defs>
        <linearGradient x1="0%" y1="27.7777778%" x2="100%" y2="72.2222222%" id="linearGradient-1">
            <stop stop-color="#B97EFF" offset="0%"></stop>
            <stop stop-color="#8348FF" offset="100%"></stop>
        </linearGradient>
    </defs>
    <g id="Artboard-Copy-5" stroke="none" stroke-width="1" fill="none" fill-rule="evenodd">
        <rect id="Rectangle" fill="url(#linearGradient-1)" x="0" y="0" width="180" height="120"></rect>
        <g id="Group" transform="translate(50.000000, 20.000000)">
            <polygon id="Path" points="0 0 80 0 80 80 0 80"></polygon>
            <path d="M10.35,10 L70.65,10 C72.5001539,10 74,11.4923842 74,13.3333333 L74,66.6666667 C74,68.5076158 72.5001539,70 70.65,70 L10.35,70 C8.49984609,70 7,68.5076158 7,66.6666667 L7,13.3333333 C7,11.4923842 8.49984609,10 10.35,10 Z M23.75,43.3333333 L23.75,56.6666667 L30.45,56.6666667 L30.45,43.3333333 L23.75,43.3333333 Z M37.15,23.3333333 L37.15,56.6666667 L43.85,56.6666667 L43.85,23.3333333 L37.15,23.3333333 Z M50.55,33.3333333 L50.55,56.6666667 L57.25,56.6666667 L57.25,33.3333333 L50.55,33.3333333 Z" id="Shape" fill="#FFFFFF" fill-rule="nonzero"></path>
        </g>
    </g>
</svg>