<?xml version="1.0" encoding="UTF-8"?>
<svg width="180px" height="120px" viewBox="0 0 180 120" version="1.1" xmlns="http://www.w3.org/2000/svg" xmlns:xlink="http://www.w3.org/1999/xlink">
    <title>Artboard Copy 5</title>
    <defs>
        <linearGradient x1="0%" y1="27.7777778%" x2="100%" y2="72.2222222%" id="linearGradient-1">
            <stop stop-color="#B97EFF" offset="0%"></stop>
            <stop stop-color="#8348FF" offset="100%"></stop>
        </linearGradient>
    </defs>
    <g id="Artboard-Copy-5" stroke="none" stroke-width="1" fill="none" fill-rule="evenodd">
        <rect id="Rectangle" fill="url(#linearGradient-1)" x="0" y="0" width="180" height="120"></rect>
        <g id="Group" transform="translate(50.000000, 20.000000)">
            <polygon id="Path" points="0 0 80 0 80 80 0 80"></polygon>
            <path d="M41.8869,16.6666667 L70.65,16.6666667 C72.5001539,16.6666667 74,18.1590508 74,20 L74,66.6666667 C74,68.5076158 72.5001539,70 70.65,70 L10.35,70 C8.49984609,70 7,68.5076158 7,66.6666667 L7,13.3333333 C7,11.4923842 8.49984609,10 10.35,10 L35.1869,10 L41.8869,16.6666667 Z M37.15,43.5 C33.6802749,42.7952691 30.1400974,44.338173 28.3079678,47.3535939 C26.4758382,50.3690148 26.7477946,54.205131 28.9872126,56.9347699 C31.2266307,59.6644088 34.9494316,60.6975241 38.2853696,59.5151035 C41.6213076,58.3326829 43.8492772,55.1903217 43.85,51.6666667 L43.85,36.6666667 L53.9,36.6666667 L53.9,30 L37.15,30 L37.15,43.5 Z" id="Shape" fill="#FFFFFF" fill-rule="nonzero"></path>
        </g>
    </g>
</svg>