<?xml version="1.0" encoding="UTF-8"?>
<svg width="180px" height="120px" viewBox="0 0 180 120" version="1.1" xmlns="http://www.w3.org/2000/svg" xmlns:xlink="http://www.w3.org/1999/xlink">
    <title>Artboard Copy 5</title>
    <defs>
        <linearGradient x1="0%" y1="27.7777778%" x2="100%" y2="72.2222222%" id="linearGradient-1">
            <stop stop-color="#B97EFF" offset="0%"></stop>
            <stop stop-color="#8348FF" offset="100%"></stop>
        </linearGradient>
    </defs>
    <g id="Artboard-Copy-5" stroke="none" stroke-width="1" fill="none" fill-rule="evenodd">
        <rect id="Rectangle" fill="url(#linearGradient-1)" x="0" y="0" width="180" height="120"></rect>
        <g id="Group" transform="translate(50.000000, 20.000000)">
            <polygon id="Path" points="0 0 80 0 80 80 0 80"></polygon>
            <path d="M63.95,73 L17.05,73 C11.4995383,73 7,68.5004617 7,62.95 L7,9.35 C7,7.49984609 8.49984609,6 10.35,6 L57.25,6 C59.1001539,6 60.6,7.49984609 60.6,9.35 L60.6,32.8 L74,32.8 L74,62.95 C74,68.5004617 69.5004617,73 63.95,73 Z M60.6,39.5 L60.6,62.95 C60.6,64.8001539 62.0998461,66.3 63.95,66.3 C65.8001539,66.3 67.3,64.8001539 67.3,62.95 L67.3,39.5 L60.6,39.5 Z M17.05,19.4 L17.05,39.5 L37.15,39.5 L37.15,19.4 L17.05,19.4 Z M17.05,42.85 L17.05,49.55 L50.55,49.55 L50.55,42.85 L17.05,42.85 Z M17.05,52.9 L17.05,59.6 L50.55,59.6 L50.55,52.9 L17.05,52.9 Z M23.75,26.1 L30.45,26.1 L30.45,32.8 L23.75,32.8 L23.75,26.1 Z" id="Shape" fill="#FFFFFF" fill-rule="nonzero"></path>
        </g>
    </g>
</svg>