<?xml version="1.0" encoding="UTF-8"?>
<svg width="180px" height="120px" viewBox="0 0 180 120" version="1.1" xmlns="http://www.w3.org/2000/svg" xmlns:xlink="http://www.w3.org/1999/xlink">
    <title>Artboard Copy 5</title>
    <defs>
        <linearGradient x1="0%" y1="27.7777778%" x2="100%" y2="72.2222222%" id="linearGradient-1">
            <stop stop-color="#B97EFF" offset="0%"></stop>
            <stop stop-color="#8348FF" offset="100%"></stop>
        </linearGradient>
    </defs>
    <g id="Artboard-Copy-5" stroke="none" stroke-width="1" fill="none" fill-rule="evenodd">
        <rect id="Rectangle" fill="url(#linearGradient-1)" x="0" y="0" width="180" height="120"></rect>
        <g id="Group" transform="translate(50.000000, 20.000000)">
            <polygon id="Path" points="0 0 80 0 80 80 0 80"></polygon>
            <path d="M40.5,73 C21.99795,73 7,58.00205 7,39.5 C7,20.99795 21.99795,6 40.5,6 C59.00205,6 74,20.99795 74,39.5 C74,58.00205 59.00205,73 40.5,73 Z M35.8837,27.49025 C35.4729093,27.2161744 34.9446682,27.1902503 34.5090149,27.4227855 C34.0733616,27.6553207 33.8009132,28.1086225 33.8,28.60245 L33.8,50.39755 C33.8009132,50.8913775 34.0733616,51.3446793 34.5090149,51.5772145 C34.9446682,51.8097497 35.4729093,51.7838256 35.8837,51.50975 L52.22835,40.61555 C52.6016583,40.367115 52.8259564,39.9484184 52.8259564,39.5 C52.8259564,39.0515816 52.6016583,38.632885 52.22835,38.38445 L35.88035,27.49025 L35.8837,27.49025 Z" id="Shape" fill="#FFFFFF" fill-rule="nonzero"></path>
        </g>
    </g>
</svg>