<?xml version="1.0" encoding="UTF-8"?>
<svg width="1080px" height="1080px" viewBox="0 0 1080 1080" version="1.1" xmlns="http://www.w3.org/2000/svg" xmlns:xlink="http://www.w3.org/1999/xlink">
    <title>waveform-02-white</title>
    <g id="waveform-02-white" stroke="none" stroke-width="1" fill="none" fill-rule="evenodd">
        <rect fill="#1D1D21" x="0" y="0" width="1080" height="1080"></rect>
        <path d="M483.379523,538 C504.180483,538 519.462959,547.443468 527.895531,564.253963 C531.022181,570.486999 533.098231,577.418785 534.559459,585.48114 L534.685033,586.183935 L534.806745,586.885433 L534.982576,587.938506 L535.09564,588.643276 L535.259578,589.708239 L535.417418,590.787037 L535.519641,591.516405 L535.669044,592.629433 L535.814423,593.7697 L535.956555,594.942232 L536.096217,596.152057 L536.234186,597.404199 L536.371241,598.703686 L536.50816,600.055544 L536.691848,601.948174 L536.925868,604.475604 L537.462848,610.510882 L537.699165,613.04209 L537.892748,615.014456 L538.0079,616.140575 L538.122577,617.225173 L538.275126,618.608772 L538.389561,619.601117 L538.504265,620.555909 L538.658007,621.772607 L538.813152,622.927482 L538.970229,624.023355 L539.129767,625.063048 L539.251354,625.807648 L539.374846,626.523424 L539.500466,627.211567 L539.628438,627.873268 L539.758985,628.509716 L539.892329,629.122102 L540.028695,629.711616 L540.168304,630.279449 L540.311381,630.826792 L540.458149,631.354834 L540.558154,631.696727 L540.711569,632.195247 L540.869269,632.67764 L541.031479,633.145098 L541.142233,633.449027 L541.312453,633.894238 L541.487777,634.327687 L541.668429,634.750565 L541.922676,635.318755 L542.042275,635.57418 L542.215596,635.923355 L542.328817,636.134471 L542.441557,636.329031 C542.987213,637.230471 543.557481,637.57516 544.753535,637.702177 L545.010121,637.725462 C545.054439,637.728862 545.099551,637.732031 545.14548,637.734983 L545.431072,637.750201 L545.73748,637.760876 L546.23871,637.769829 L546.793433,637.772312 C550.147371,637.772312 552.277638,637.336008 553.503634,636.730359 C553.994459,636.487889 554.291753,636.231886 554.662202,635.688876 L554.81539,635.455037 L554.931815,635.266233 L555.046502,635.070536 L555.159552,634.867527 L555.271067,634.656784 L555.38115,634.437885 L555.489903,634.210409 L555.597428,633.973934 L555.703828,633.728041 L555.809204,633.472307 L555.91366,633.206311 L556.06884,632.787154 L556.171441,632.49366 L556.273478,632.188429 L556.425702,631.707657 L556.526779,631.371242 L556.627651,631.021617 L556.778797,630.471488 L556.930058,629.889265 L557.031131,629.482584 L557.183348,628.843712 L557.285378,628.397948 L557.491227,627.456889 L557.64758,626.706095 L557.806002,625.915151 L557.966839,625.082634 L558.18564,623.905487 L558.410164,622.648535 L558.64123,621.308409 L558.940508,619.511153 L559.450689,616.372209 L559.805157,614.242068 L560.13221,612.346985 L560.339927,611.19114 L560.492396,610.370885 L560.693625,609.328297 L560.844612,608.577106 L560.997038,607.845792 L561.152146,607.128522 L561.36528,606.183925 L561.588342,605.240099 L561.763928,604.524416 L561.948001,603.795556 C563.565268,597.476717 565.711973,592.014618 568.85681,587.046351 C577.098793,574.025526 590.664576,567.17602 608.455837,567.17602 C609.312521,567.17602 610.168256,567.233263 611.017366,567.34737 C628.632331,569.714534 641.095895,578.977262 647.614501,593.629083 C650.03133,599.06137 651.527589,604.908557 652.492024,611.637978 L652.631064,612.633348 C652.653337,612.797254 652.675179,612.960344 652.696619,613.122887 L652.789827,613.846389 L652.905134,614.795138 L653.039587,615.994705 L653.140973,616.979984 L653.238262,618.001124 L653.309312,618.797779 L653.425688,620.199301 L653.541689,621.713471 L653.708238,624.067472 L654.081091,629.754459 L654.189928,631.306311 L654.32827,633.133494 L654.412831,634.171782 L654.527782,635.490862 L654.645657,636.737813 L654.736249,637.627334 L654.828921,638.478971 L654.923862,639.293874 L654.988507,639.817305 L655.054299,640.325263 L655.121293,640.81809 L655.189543,641.296128 L655.294397,641.9862 L655.402391,642.644916 L655.513712,643.273426 L655.589866,643.676221 L655.667637,644.066446 L655.787447,644.628958 L655.869503,644.989248 L655.95337,645.338161 L656.082687,645.840948 L656.171323,646.162913 L656.308053,646.626878 L656.401805,646.924029 L656.497699,647.211852 L656.595792,647.490687 L656.696139,647.760877 L656.798796,648.022763 L656.903816,648.276685 L657.011257,648.522985 L657.121173,648.762005 L657.23362,648.994086 L657.348653,649.219569 L657.466327,649.438795 L657.526172,649.546169 L657.526172,649.546169 C658.099869,650.562777 658.64685,651.098835 659.627883,651.595694 C661.089343,652.335873 663.298878,652.894281 666.403959,653.122644 L667.016164,653.162682 C667.743543,653.204492 668.517069,653.228985 669.338441,653.234456 L669.693392,653.23563 L689,653.23563 L689,692 L669.693392,692 C648.283388,692 632.630933,684.072575 623.929906,668.654103 C620.644682,662.832591 618.607869,656.436509 617.327407,649.082988 L617.17245,648.1667 L617.036911,647.324504 L616.868342,646.21467 L616.750186,645.385354 L616.638398,644.552868 L616.53233,643.711994 L616.431332,642.857519 L616.334755,641.984227 L616.241952,641.086903 L616.152272,640.160331 L616.036437,638.870393 L615.895487,637.152981 L615.783928,635.679994 L615.643458,633.694658 L615.469429,631.069033 L615.326779,628.858866 L615.196218,626.946951 L615.091758,625.510511 L614.960321,623.825981 L614.853854,622.563206 L614.745656,621.372321 L614.60719,619.979852 L614.493213,618.938815 L614.375828,617.959085 L614.315697,617.491192 L614.25452,617.037404 L614.160654,616.382279 L614.064074,615.7566 L613.96456,615.158994 L613.861897,614.588087 L613.755866,614.042504 L613.683199,613.692173 L613.571071,613.185745 L613.494139,612.860244 L613.415387,612.543963 L613.293708,612.085938 L613.210126,611.790925 L613.124498,611.503707 L612.992082,611.086605 L612.90106,610.817093 L612.807767,610.55395 L612.712139,610.296771 L612.614111,610.045147 L612.462428,609.677237 L612.358118,609.437721 L612.29564,609.299222 L612.170075,609.033388 L612.04258,608.78198 C611.226156,607.234255 610.212645,606.521421 607.464497,606.014341 L607.184369,605.964277 L607.049593,605.970297 C604.856404,606.068103 603.40433,606.396308 602.518818,606.813755 L602.415265,606.864268 C602.055976,607.045677 601.844065,607.232129 601.527936,607.711021 L601.391513,607.925075 L601.228792,608.198375 L601.122274,608.388661 L601.01721,608.585901 L600.9135,608.790509 L600.811045,609.0029 L600.709745,609.22349 L600.609501,609.452694 L600.460896,609.813558 L600.362856,610.066111 L600.265524,610.328731 L600.120634,610.742443 L600.024635,611.032044 L599.881279,611.488174 L599.785992,611.80735 L599.690815,612.139084 L599.54804,612.661135 L599.452705,613.026076 L599.357132,613.405026 L599.213109,614.000626 L599.019319,614.847666 L598.872221,615.524442 L598.673112,616.484799 L598.469868,617.514476 L598.314244,618.334221 L598.101851,619.493195 L597.827375,621.052622 L597.599637,622.392777 L597.423552,623.454098 L596.774308,627.434927 L596.463745,629.281483 L596.228042,630.638284 L596.000113,631.904183 L595.832292,632.802926 L595.610064,633.945639 L595.442747,634.769123 L595.330125,635.305632 L595.100448,636.357086 L594.922696,637.134151 L594.738694,637.908329 L594.547058,638.685913 L594.414375,639.209301 L594.277272,639.738864 C592.604938,646.134077 590.372968,651.676018 587.113642,656.700667 C578.662831,669.72862 564.881477,676.536682 546.793433,676.536682 C527.522849,676.536682 513.573321,666.882797 506.331154,650.376115 C503.772245,644.543731 502.098233,638.107057 500.895673,630.507449 C500.755187,629.619646 500.625532,628.758621 500.503093,627.895531 L500.396198,627.128029 L500.229565,625.870346 L500.100757,624.840837 L499.974621,623.779972 L499.818842,622.394905 L499.63152,620.621113 L499.439873,618.694297 L499.239766,616.581467 L498.876222,612.557121 L498.47742,608.056947 L498.308258,606.240835 L498.1384,604.502842 L498.010237,603.249186 L497.837907,601.64219 L497.663446,600.106786 L497.530889,599.000787 L497.39662,597.932721 L497.306047,597.241257 L497.168435,596.234189 L497.028524,595.262383 L496.886094,594.324839 L496.740924,593.420555 L496.642514,592.835682 L496.542723,592.264849 L496.390306,591.434277 L496.286778,590.897248 L496.128449,590.115989 L495.966281,589.362984 L495.800052,588.637229 L495.686868,588.168038 L495.571717,587.710217 L495.454533,587.263469 L495.335251,586.827497 L495.213805,586.402006 L495.027438,585.782768 C495.006444,585.7152 494.985353,585.648037 494.964164,585.581274 L494.835837,585.185441 L494.705086,584.798901 L494.571846,584.421356 L494.43605,584.052512 L494.297635,583.692069 L494.156535,583.339733 L494.012685,582.995206 C493.988477,582.938419 493.964152,582.881945 493.939708,582.825778 L493.79161,582.492408 L493.640598,582.166106 L493.486608,581.846574 L493.408475,581.689255 C493.319208,581.5113 493.229785,581.339111 493.139747,581.172543 L492.958714,580.84686 C491.592778,578.459805 490.019636,577.315787 486.69128,576.925607 L486.236962,576.878007 L485.761026,576.839084 C485.436348,576.81597 485.096714,576.798469 484.741038,576.786237 L484.50761,576.778583 L484.364461,576.8011 C480.954193,577.346765 479.275761,578.478181 477.87054,581.183238 L477.688679,581.545077 C477.598404,581.73054 477.509021,581.922879 477.420126,582.122367 L477.242866,582.530959 L477.066187,582.959104 L476.910156,583.353673 L476.777145,583.702378 L476.647218,584.05501 L476.520303,584.411993 L476.335421,584.95655 L476.215723,585.326259 L476.098785,585.7018 L475.984538,586.083595 L475.872908,586.472067 L475.710216,587.06822 L475.55301,587.681776 L475.401051,588.314162 L475.302539,588.74692 L475.206179,589.189104 L475.111899,589.641138 L475.019629,590.103445 L474.884833,590.817092 L474.754153,591.556232 L474.669201,592.06386 L474.585899,592.583876 L474.504176,593.116703 L474.384395,593.940889 L474.267764,594.796278 L474.154039,595.6843 L474.006511,596.921556 L473.898629,597.89127 L473.792849,598.898375 L473.654658,600.301811 L473.5192,601.777643 L473.419053,602.934061 L473.286996,604.544725 L473.188742,605.806154 L473.090896,607.114968 L472.928069,609.405501 L472.731709,612.342424 L472.417693,617.21665 L472.238506,619.85071 L472.095661,621.83213 L471.987921,623.251511 L471.842359,625.063316 L471.69336,626.79227 L471.539552,628.448605 L471.460417,629.25274 L471.296824,630.819337 L471.168798,631.96286 L471.080588,632.712642 L470.943554,633.821665 L470.800344,634.915744 L470.701153,635.63896 L470.546363,636.717727 L470.438917,637.434733 L470.27094,638.510182 L470.154167,639.228972 C468.628738,648.477808 466.289907,656.410176 462.621705,663.500035 C453.141984,681.822335 435.921182,691.799297 412.032546,691.997004 L411.306608,692 L392,692 L392,653.23563 L411.306608,653.23563 C417.11128,653.23563 421.078482,652.312637 423.70242,650.812102 C425.612039,649.720061 427.053744,648.14729 428.355174,645.6319 L428.446519,645.453613 L428.626249,645.092265 L428.802091,644.724288 C428.831077,644.662389 428.859905,644.6002 428.888574,644.537715 L429.058709,644.159202 L429.225124,643.773269 C429.252553,643.708311 429.27983,643.643031 429.306957,643.577421 L429.467918,643.179765 C429.494447,643.112813 429.520828,643.045519 429.547063,642.977877 L429.702722,642.567785 C429.728376,642.498721 429.753886,642.429295 429.779254,642.359501 L429.929763,641.936261 L430.076924,641.50386 C430.101176,641.431012 430.12529,641.357769 430.14927,641.284125 L430.291534,640.837388 L430.430619,640.3807 L430.566591,639.913742 L430.699518,639.436199 L430.829467,638.947754 L430.956507,638.448091 L431.080705,637.936892 L431.202128,637.413842 L431.320843,636.878624 C431.340407,636.788389 431.359861,636.697634 431.379207,636.606353 L431.493988,636.052289 L431.60623,635.485265 L431.716002,634.904966 L431.82337,634.311073 L431.928402,633.703272 L432.031166,633.081245 L432.131729,632.444675 L432.230159,631.793247 L432.326523,631.126644 L432.467343,630.097592 L432.558837,629.391665 L432.69267,628.302145 L432.822615,627.174919 L432.948898,626.00892 L433.031167,625.209518 L433.191396,623.556325 L433.308065,622.267593 L433.421986,620.935814 L433.569997,619.0913 L433.642491,618.138841 L433.784792,616.171936 L433.923962,614.120273 L434.330881,607.80735 L434.541927,604.683928 L434.71708,602.250011 L434.888428,600.04421 L435.011175,598.581321 L435.110941,597.464989 L435.213081,596.386793 L435.372718,594.821123 L435.484747,593.798508 L435.602313,592.782221 L435.665752,592.254746 L435.731048,591.725262 C435.786271,591.282836 435.843561,590.836998 435.903245,590.384449 C436.98141,582.209397 438.575862,575.249005 441.077215,568.907923 C447.962683,551.452851 461.492109,540.351652 481.219283,538.121711 C481.936531,538.040634 482.657743,538 483.379523,538 Z M411.306608,387 C432.716612,387 448.369067,394.927425 457.070094,410.345897 C460.355318,416.167409 462.392131,422.563491 463.672593,429.917012 L463.82755,430.8333 L463.963089,431.675496 L464.131658,432.78533 L464.249814,433.614646 L464.361602,434.447132 L464.46767,435.288006 L464.568668,436.142481 L464.665245,437.015773 L464.758048,437.913097 L464.847728,438.839669 L464.963563,440.129607 L465.104513,441.847019 L465.216072,443.320006 L465.356542,445.305342 L465.530571,447.930967 L465.673221,450.141134 L465.803782,452.053049 L465.908242,453.489489 L466.039679,455.174019 L466.146146,456.436794 L466.254344,457.627679 L466.39281,459.020148 L466.506787,460.061185 L466.624172,461.040915 L466.684303,461.508808 L466.74548,461.962596 L466.839346,462.617721 L466.935926,463.2434 L467.03544,463.841006 L467.138103,464.411913 L467.244134,464.957496 L467.316801,465.307827 L467.428929,465.814255 L467.505861,466.139756 L467.584613,466.456037 L467.706292,466.914062 L467.789874,467.209075 L467.875502,467.496293 L468.007918,467.913395 L468.09894,468.182907 L468.192233,468.44605 L468.287861,468.703229 L468.385889,468.954853 L468.537572,469.322763 L468.641882,469.562279 L468.70436,469.700778 L468.829925,469.966612 L468.95742,470.21802 C469.773844,471.765745 470.787355,472.478579 473.535503,472.985659 L473.815631,473.035077 L473.950407,473.029703 C476.143596,472.931897 477.59567,472.603692 478.481182,472.186245 L478.584735,472.135732 C478.944024,471.954323 479.155935,471.767871 479.472064,471.288979 L479.608487,471.074925 L479.771208,470.801625 L479.877726,470.611339 L479.98279,470.414099 L480.0865,470.209491 L480.188955,469.9971 L480.290255,469.77651 L480.390499,469.547306 L480.539104,469.186442 L480.637144,468.933889 L480.734476,468.671269 L480.879366,468.257557 L480.975365,467.967956 L481.118721,467.511826 L481.214008,467.19265 L481.309185,466.860916 L481.45196,466.338865 L481.547295,465.973924 L481.642868,465.594974 L481.786891,464.999374 L481.980681,464.152334 L482.127779,463.475558 L482.326888,462.515201 L482.530132,461.485524 L482.685756,460.665779 L482.898149,459.506805 L483.172625,457.947378 L483.400363,456.607223 L483.576448,455.545902 L484.225692,451.565073 L484.536255,449.718517 L484.771958,448.361716 L484.999887,447.095817 L485.167708,446.197074 L485.389936,445.054361 L485.557253,444.230877 L485.669875,443.694368 L485.899552,442.642914 L486.077304,441.865849 L486.261306,441.091671 L486.452942,440.314087 L486.585625,439.790699 L486.722728,439.261136 C488.395062,432.865923 490.627032,427.323982 493.886358,422.299333 C502.337169,409.27138 516.118523,402.463318 534.206567,402.463318 C553.477151,402.463318 567.426679,412.117203 574.668846,428.623885 C577.227755,434.456269 578.901767,440.892943 580.104327,448.492551 C580.244813,449.380354 580.374468,450.241379 580.496907,451.104469 L580.603802,451.871971 L580.770435,453.129654 L580.899243,454.159163 L581.025379,455.220028 L581.181158,456.605095 L581.36848,458.378887 L581.560127,460.305703 L581.760234,462.418533 L582.123778,466.442879 L582.52258,470.943053 L582.691742,472.759165 L582.8616,474.497158 L582.989763,475.750814 L583.162093,477.35781 L583.336554,478.893214 L583.469111,479.999213 L583.60338,481.067279 L583.693953,481.758743 L583.831565,482.765811 L583.971476,483.737617 L584.113906,484.675161 L584.259076,485.579445 L584.357486,486.164318 L584.457277,486.735151 L584.609694,487.565723 L584.713222,488.102752 L584.871551,488.884011 L585.033719,489.637016 L585.199948,490.362771 L585.313132,490.831962 L585.428283,491.289783 L585.545467,491.736531 L585.664749,492.172503 L585.786195,492.597994 L585.972562,493.217232 C585.993556,493.2848 586.014647,493.351963 586.035836,493.418726 L586.164163,493.814559 L586.294914,494.201099 L586.428154,494.578644 L586.56395,494.947488 L586.702365,495.307931 L586.843465,495.660267 L586.987315,496.004794 C587.011523,496.061581 587.035848,496.118055 587.060292,496.174222 L587.20839,496.507592 L587.359402,496.833894 L587.513392,497.153426 L587.591525,497.310745 C587.680792,497.4887 587.770215,497.660889 587.860253,497.827457 L588.041286,498.15314 C589.407222,500.540195 590.980364,501.684213 594.30872,502.074393 L594.763038,502.121993 L595.238974,502.160916 C595.563652,502.18403 595.903286,502.201531 596.258962,502.213763 L596.49239,502.220771 L596.635539,502.1989 C600.045807,501.653235 601.724239,500.521819 603.12946,497.816762 L603.311321,497.454923 C603.401596,497.26946 603.490979,497.077121 603.579874,496.877633 L603.757134,496.469041 L603.933813,496.040896 L604.089844,495.646327 L604.222855,495.297622 L604.352782,494.94499 L604.479697,494.588007 L604.664579,494.04345 L604.784277,493.673741 L604.901215,493.2982 L605.015462,492.916405 L605.127092,492.527933 L605.289784,491.93178 L605.44699,491.318224 L605.598949,490.685838 L605.697461,490.25308 L605.793821,489.810896 L605.888101,489.358862 L605.980371,488.896555 L606.115167,488.182908 L606.245847,487.443768 L606.330799,486.93614 L606.414101,486.416124 L606.495824,485.883297 L606.615605,485.059111 L606.732236,484.203722 L606.845961,483.3157 L606.993489,482.078444 L607.101371,481.10873 L607.207151,480.101625 L607.345342,478.698189 L607.4808,477.222357 L607.580947,476.065939 L607.713004,474.455275 L607.811258,473.193846 L607.909104,471.885032 L608.071931,469.594499 L608.268291,466.657576 L608.582307,461.78335 L608.761494,459.14929 L608.904339,457.16787 L609.012079,455.748489 L609.157641,453.936684 L609.30664,452.20773 L609.460448,450.551395 L609.539583,449.74726 L609.703176,448.180663 L609.831202,447.03714 L609.919412,446.287358 L610.056446,445.178335 L610.199656,444.084256 L610.298847,443.36104 L610.453637,442.282273 L610.561083,441.565267 L610.72906,440.489818 L610.845833,439.771028 C612.371262,430.522192 614.710093,422.589824 618.378295,415.499965 C627.858016,397.177665 645.078818,387.200703 668.967454,387.002996 L669.693392,387 L689,387 L689,425.76437 L669.693392,425.76437 C663.88872,425.76437 659.921518,426.687363 657.29758,428.187898 C655.387961,429.279939 653.946256,430.85271 652.644826,433.3681 L652.553481,433.546387 L652.373751,433.907735 L652.197909,434.275712 C652.168923,434.337611 652.140095,434.3998 652.111426,434.462285 L651.941291,434.840798 L651.774876,435.226731 C651.747447,435.291689 651.72017,435.356969 651.693043,435.422579 L651.532082,435.820235 C651.505553,435.887187 651.479172,435.954481 651.452937,436.022123 L651.297278,436.432215 C651.271624,436.501279 651.246114,436.570705 651.220746,436.640499 L651.070237,437.063739 L650.923076,437.49614 C650.898824,437.568988 650.87471,437.642231 650.85073,437.715875 L650.708466,438.162612 L650.569381,438.6193 L650.433409,439.086258 L650.300482,439.563801 L650.170533,440.052246 L650.043493,440.551909 L649.919295,441.063108 L649.797872,441.586158 L649.679157,442.121376 C649.659593,442.211611 649.640139,442.302366 649.620793,442.393647 L649.506012,442.947711 L649.39377,443.514735 L649.283998,444.095034 L649.17663,444.688927 L649.071598,445.296728 L648.968834,445.918755 L648.868271,446.555325 L648.769841,447.206753 L648.673477,447.873356 L648.532657,448.902408 L648.441163,449.608335 L648.30733,450.697855 L648.177385,451.825081 L648.051102,452.99108 L647.968833,453.790482 L647.808604,455.443675 L647.691935,456.732407 L647.578014,458.064186 L647.430003,459.9087 L647.357509,460.861159 L647.215208,462.828064 L647.076038,464.879727 L646.669119,471.19265 L646.458073,474.316072 L646.28292,476.749989 L646.111572,478.95579 L645.988825,480.418679 L645.889059,481.535011 L645.786919,482.613207 L645.627282,484.178877 L645.515253,485.201492 L645.397687,486.217779 L645.334248,486.745254 L645.268952,487.274738 C645.213729,487.717164 645.156439,488.163002 645.096755,488.615551 C644.01859,496.790603 642.424138,503.750995 639.922785,510.092077 C633.037317,527.547149 619.507891,538.648348 599.780717,540.878289 C599.063469,540.959366 598.342257,541 597.620477,541 C576.819517,541 561.537041,531.556532 553.104469,514.746037 C549.977819,508.513001 547.901769,501.581215 546.440541,493.51886 L546.314967,492.816065 L546.193255,492.114567 L546.017424,491.061494 L545.90436,490.356724 L545.740422,489.291761 L545.582582,488.212963 L545.480359,487.483595 L545.330956,486.370567 L545.185577,485.2303 L545.043445,484.057768 L544.903783,482.847943 L544.765814,481.595801 L544.628759,480.296314 L544.49184,478.944456 L544.308152,477.051826 L544.074132,474.524396 L543.537152,468.489118 L543.300835,465.95791 L543.107252,463.985544 L542.9921,462.859425 L542.877423,461.774827 L542.724874,460.391228 L542.610439,459.398883 L542.495735,458.444091 L542.341993,457.227393 L542.186848,456.072518 L542.029771,454.976645 L541.870233,453.936952 L541.748646,453.192352 L541.625154,452.476576 L541.499534,451.788433 L541.371562,451.126732 L541.241015,450.490284 L541.107671,449.877898 L540.971305,449.288384 L540.831696,448.720551 L540.688619,448.173208 L540.541851,447.645166 L540.441846,447.303273 L540.288431,446.804753 L540.130731,446.32236 L539.968521,445.854902 L539.857767,445.550973 L539.687547,445.105762 L539.512223,444.672313 L539.331571,444.249435 L539.077324,443.681245 L538.957725,443.42582 L538.784404,443.076645 L538.671183,442.865529 L538.558443,442.670969 C538.012787,441.769529 537.442519,441.42484 536.246465,441.297823 L535.989879,441.274538 C535.945561,441.271138 535.900449,441.267969 535.85452,441.265017 L535.568928,441.249799 L535.26252,441.239124 L534.76129,441.230171 L534.206567,441.227688 C530.852629,441.227688 528.722362,441.663992 527.496366,442.269641 C527.005541,442.512111 526.708247,442.768114 526.337798,443.311124 L526.18461,443.544963 L526.068185,443.733767 L525.953498,443.929464 L525.840448,444.132473 L525.728933,444.343216 L525.61885,444.562115 L525.510097,444.789591 L525.402572,445.026066 L525.296172,445.271959 L525.190796,445.527693 L525.08634,445.793689 L524.93116,446.212846 L524.828559,446.50634 L524.726522,446.811571 L524.574298,447.292343 L524.473221,447.628758 L524.372349,447.978383 L524.221203,448.528512 L524.069942,449.110735 L523.968869,449.517416 L523.816652,450.156288 L523.714622,450.602052 L523.508773,451.543111 L523.35242,452.293905 L523.193998,453.084849 L523.033161,453.917366 L522.81436,455.094513 L522.589836,456.351465 L522.35877,457.691591 L522.059492,459.488847 L521.549311,462.627791 L521.194843,464.757932 L520.86779,466.653015 L520.660073,467.80886 L520.507604,468.629115 L520.306375,469.671703 L520.155388,470.422894 L520.002962,471.154208 L519.847854,471.871478 L519.63472,472.816075 L519.411658,473.759901 L519.236072,474.475584 L519.051999,475.204444 C517.434732,481.523283 515.288027,486.985382 512.14319,491.953649 C503.901207,504.974474 490.335424,511.82398 472.544163,511.82398 C471.687479,511.82398 470.831744,511.766737 469.982634,511.65263 C452.367669,509.285466 439.904105,500.022738 433.385499,485.370917 C430.96867,479.93863 429.472411,474.091443 428.507976,467.362022 L428.368936,466.366652 C428.346663,466.202746 428.324821,466.039656 428.303381,465.877113 L428.210173,465.153611 L428.094866,464.204862 L427.960413,463.005295 L427.859027,462.020016 L427.761738,460.998876 L427.690688,460.202221 L427.574312,458.800699 L427.458311,457.286529 L427.291762,454.932528 L426.918909,449.245541 L426.810072,447.693689 L426.67173,445.866506 L426.587169,444.828218 L426.472218,443.509138 L426.354343,442.262187 L426.263751,441.372666 L426.171079,440.521029 L426.076138,439.706126 L426.011493,439.182695 L425.945701,438.674737 L425.878707,438.18191 L425.810457,437.703872 L425.705603,437.0138 L425.597609,436.355084 L425.486288,435.726574 L425.410134,435.323779 L425.332363,434.933554 L425.212553,434.371042 L425.130497,434.010752 L425.04663,433.661839 L424.917313,433.159052 L424.828677,432.837087 L424.691947,432.373122 L424.598195,432.075971 L424.502301,431.788148 L424.404208,431.509313 L424.303861,431.239123 L424.201204,430.977237 L424.096184,430.723315 L423.988743,430.477015 L423.878827,430.237995 L423.76638,430.005914 L423.651347,429.780431 L423.533673,429.561205 L423.473828,429.453831 L423.473828,429.453831 C422.900131,428.437223 422.35315,427.901165 421.372117,427.404306 C419.910657,426.664127 417.701122,426.105719 414.596041,425.877356 L413.983836,425.837318 C413.256457,425.795508 412.482931,425.771015 411.661559,425.765544 L411.306608,425.76437 L392,425.76437 L392,387 L411.306608,387 Z" id="Combined-Shape" fill="#FFFFFF" fill-rule="nonzero" transform="translate(540.500000, 539.500000) rotate(-45.000000) translate(-540.500000, -539.500000) "></path>
        <text id="Waveform-White-Tilte" opacity="0.2" font-family="Poppins-Regular, Poppins" font-size="34" font-weight="normal" fill="#FFFFFF">
            <tspan x="348.774" y="948">Waveform White Tilted</tspan>
        </text>
    </g>
</svg>