<?xml version="1.0" encoding="UTF-8"?>
<svg width="1080px" height="1080px" viewBox="0 0 1080 1080" version="1.1" xmlns="http://www.w3.org/2000/svg" xmlns:xlink="http://www.w3.org/1999/xlink">
    <title>waveform-01-color</title>
    <defs>
        <linearGradient x1="50%" y1="100%" x2="52.0165117%" y2="0%" id="linearGradient-1">
            <stop stop-color="#7C39FF" offset="0%"></stop>
            <stop stop-color="#04B9FF" offset="49.7267007%"></stop>
            <stop stop-color="#00EBBF" offset="100%"></stop>
        </linearGradient>
    </defs>
    <g id="waveform-01-color" stroke="none" stroke-width="1" fill="none" fill-rule="evenodd">
        <rect fill="#1D1D21" x="0" y="0" width="1080" height="1080"></rect>
        <path d="M482.379523,542 C503.180483,542 518.462959,551.443468 526.895531,568.253963 C530.022181,574.486999 532.098231,581.418785 533.559459,589.48114 L533.685033,590.183935 L533.806745,590.885433 L533.982576,591.938506 L534.09564,592.643276 L534.259578,593.708239 L534.417418,594.787037 L534.519641,595.516405 L534.669044,596.629433 L534.814423,597.7697 L534.956555,598.942232 L535.096217,600.152057 L535.234186,601.404199 L535.371241,602.703686 L535.50816,604.055544 L535.691848,605.948174 L535.925868,608.475604 L536.462848,614.510882 L536.699165,617.04209 L536.892748,619.014456 L537.0079,620.140575 L537.122577,621.225173 L537.275126,622.608772 L537.389561,623.601117 L537.504265,624.555909 L537.658007,625.772607 L537.813152,626.927482 L537.970229,628.023355 L538.129767,629.063048 L538.251354,629.807648 L538.374846,630.523424 L538.500466,631.211567 L538.628438,631.873268 L538.758985,632.509716 L538.892329,633.122102 L539.028695,633.711616 L539.168304,634.279449 L539.311381,634.826792 L539.458149,635.354834 L539.558154,635.696727 L539.711569,636.195247 L539.869269,636.67764 L540.031479,637.145098 L540.142233,637.449027 L540.312453,637.894238 L540.487777,638.327687 L540.668429,638.750565 L540.922676,639.318755 L541.042275,639.57418 L541.215596,639.923355 L541.328817,640.134471 L541.441557,640.329031 C541.987213,641.230471 542.557481,641.57516 543.753535,641.702177 L544.010121,641.725462 C544.054439,641.728862 544.099551,641.732031 544.14548,641.734983 L544.431072,641.750201 L544.73748,641.760876 L545.23871,641.769829 L545.793433,641.772312 C549.147371,641.772312 551.277638,641.336008 552.503634,640.730359 C552.994459,640.487889 553.291753,640.231886 553.662202,639.688876 L553.81539,639.455037 L553.931815,639.266233 L554.046502,639.070536 L554.159552,638.867527 L554.271067,638.656784 L554.38115,638.437885 L554.489903,638.210409 L554.597428,637.973934 L554.703828,637.728041 L554.809204,637.472307 L554.91366,637.206311 L555.06884,636.787154 L555.171441,636.49366 L555.273478,636.188429 L555.425702,635.707657 L555.526779,635.371242 L555.627651,635.021617 L555.778797,634.471488 L555.930058,633.889265 L556.031131,633.482584 L556.183348,632.843712 L556.285378,632.397948 L556.491227,631.456889 L556.64758,630.706095 L556.806002,629.915151 L556.966839,629.082634 L557.18564,627.905487 L557.410164,626.648535 L557.64123,625.308409 L557.940508,623.511153 L558.450689,620.372209 L558.805157,618.242068 L559.13221,616.346985 L559.339927,615.19114 L559.492396,614.370885 L559.693625,613.328297 L559.844612,612.577106 L559.997038,611.845792 L560.152146,611.128522 L560.36528,610.183925 L560.588342,609.240099 L560.763928,608.524416 L560.948001,607.795556 C562.565268,601.476717 564.711973,596.014618 567.85681,591.046351 C576.098793,578.025526 589.664576,571.17602 607.455837,571.17602 C608.312521,571.17602 609.168256,571.233263 610.017366,571.34737 C627.632331,573.714534 640.095895,582.977262 646.614501,597.629083 C649.03133,603.06137 650.527589,608.908557 651.492024,615.637978 L651.631064,616.633348 C651.653337,616.797254 651.675179,616.960344 651.696619,617.122887 L651.789827,617.846389 L651.905134,618.795138 L652.039587,619.994705 L652.140973,620.979984 L652.238262,622.001124 L652.309312,622.797779 L652.425688,624.199301 L652.541689,625.713471 L652.708238,628.067472 L653.081091,633.754459 L653.189928,635.306311 L653.32827,637.133494 L653.412831,638.171782 L653.527782,639.490862 L653.645657,640.737813 L653.736249,641.627334 L653.828921,642.478971 L653.923862,643.293874 L653.988507,643.817305 L654.054299,644.325263 L654.121293,644.81809 L654.189543,645.296128 L654.294397,645.9862 L654.402391,646.644916 L654.513712,647.273426 L654.589866,647.676221 L654.667637,648.066446 L654.787447,648.628958 L654.869503,648.989248 L654.95337,649.338161 L655.082687,649.840948 L655.171323,650.162913 L655.308053,650.626878 L655.401805,650.924029 L655.497699,651.211852 L655.595792,651.490687 L655.696139,651.760877 L655.798796,652.022763 L655.903816,652.276685 L656.011257,652.522985 L656.121173,652.762005 L656.23362,652.994086 L656.348653,653.219569 L656.466327,653.438795 L656.526172,653.546169 L656.526172,653.546169 C657.099869,654.562777 657.64685,655.098835 658.627883,655.595694 C660.089343,656.335873 662.298878,656.894281 665.403959,657.122644 L666.016164,657.162682 C666.743543,657.204492 667.517069,657.228985 668.338441,657.234456 L668.693392,657.23563 L688,657.23563 L688,696 L668.693392,696 C647.283388,696 631.630933,688.072575 622.929906,672.654103 C619.644682,666.832591 617.607869,660.436509 616.327407,653.082988 L616.17245,652.1667 L616.036911,651.324504 L615.868342,650.21467 L615.750186,649.385354 L615.638398,648.552868 L615.53233,647.711994 L615.431332,646.857519 L615.334755,645.984227 L615.241952,645.086903 L615.152272,644.160331 L615.036437,642.870393 L614.895487,641.152981 L614.783928,639.679994 L614.643458,637.694658 L614.469429,635.069033 L614.326779,632.858866 L614.196218,630.946951 L614.091758,629.510511 L613.960321,627.825981 L613.853854,626.563206 L613.745656,625.372321 L613.60719,623.979852 L613.493213,622.938815 L613.375828,621.959085 L613.315697,621.491192 L613.25452,621.037404 L613.160654,620.382279 L613.064074,619.7566 L612.96456,619.158994 L612.861897,618.588087 L612.755866,618.042504 L612.683199,617.692173 L612.571071,617.185745 L612.494139,616.860244 L612.415387,616.543963 L612.293708,616.085938 L612.210126,615.790925 L612.124498,615.503707 L611.992082,615.086605 L611.90106,614.817093 L611.807767,614.55395 L611.712139,614.296771 L611.614111,614.045147 L611.462428,613.677237 L611.358118,613.437721 L611.29564,613.299222 L611.170075,613.033388 L611.04258,612.78198 C610.226156,611.234255 609.212645,610.521421 606.464497,610.014341 L606.184369,609.964277 L606.049593,609.970297 C603.856404,610.068103 602.40433,610.396308 601.518818,610.813755 L601.415265,610.864268 C601.055976,611.045677 600.844065,611.232129 600.527936,611.711021 L600.391513,611.925075 L600.228792,612.198375 L600.122274,612.388661 L600.01721,612.585901 L599.9135,612.790509 L599.811045,613.0029 L599.709745,613.22349 L599.609501,613.452694 L599.460896,613.813558 L599.362856,614.066111 L599.265524,614.328731 L599.120634,614.742443 L599.024635,615.032044 L598.881279,615.488174 L598.785992,615.80735 L598.690815,616.139084 L598.54804,616.661135 L598.452705,617.026076 L598.357132,617.405026 L598.213109,618.000626 L598.019319,618.847666 L597.872221,619.524442 L597.673112,620.484799 L597.469868,621.514476 L597.314244,622.334221 L597.101851,623.493195 L596.827375,625.052622 L596.599637,626.392777 L596.423552,627.454098 L595.774308,631.434927 L595.463745,633.281483 L595.228042,634.638284 L595.000113,635.904183 L594.832292,636.802926 L594.610064,637.945639 L594.442747,638.769123 L594.330125,639.305632 L594.100448,640.357086 L593.922696,641.134151 L593.738694,641.908329 L593.547058,642.685913 L593.414375,643.209301 L593.277272,643.738864 C591.604938,650.134077 589.372968,655.676018 586.113642,660.700667 C577.662831,673.72862 563.881477,680.536682 545.793433,680.536682 C526.522849,680.536682 512.573321,670.882797 505.331154,654.376115 C502.772245,648.543731 501.098233,642.107057 499.895673,634.507449 C499.755187,633.619646 499.625532,632.758621 499.503093,631.895531 L499.396198,631.128029 L499.229565,629.870346 L499.100757,628.840837 L498.974621,627.779972 L498.818842,626.394905 L498.63152,624.621113 L498.439873,622.694297 L498.239766,620.581467 L497.876222,616.557121 L497.47742,612.056947 L497.308258,610.240835 L497.1384,608.502842 L497.010237,607.249186 L496.837907,605.64219 L496.663446,604.106786 L496.530889,603.000787 L496.39662,601.932721 L496.306047,601.241257 L496.168435,600.234189 L496.028524,599.262383 L495.886094,598.324839 L495.740924,597.420555 L495.642514,596.835682 L495.542723,596.264849 L495.390306,595.434277 L495.286778,594.897248 L495.128449,594.115989 L494.966281,593.362984 L494.800052,592.637229 L494.686868,592.168038 L494.571717,591.710217 L494.454533,591.263469 L494.335251,590.827497 L494.213805,590.402006 L494.027438,589.782768 C494.006444,589.7152 493.985353,589.648037 493.964164,589.581274 L493.835837,589.185441 L493.705086,588.798901 L493.571846,588.421356 L493.43605,588.052512 L493.297635,587.692069 L493.156535,587.339733 L493.012685,586.995206 C492.988477,586.938419 492.964152,586.881945 492.939708,586.825778 L492.79161,586.492408 L492.640598,586.166106 L492.486608,585.846574 L492.408475,585.689255 C492.319208,585.5113 492.229785,585.339111 492.139747,585.172543 L491.958714,584.84686 C490.592778,582.459805 489.019636,581.315787 485.69128,580.925607 L485.236962,580.878007 L484.761026,580.839084 C484.436348,580.81597 484.096714,580.798469 483.741038,580.786237 L483.50761,580.778583 L483.364461,580.8011 C479.954193,581.346765 478.275761,582.478181 476.87054,585.183238 L476.688679,585.545077 C476.598404,585.73054 476.509021,585.922879 476.420126,586.122367 L476.242866,586.530959 L476.066187,586.959104 L475.910156,587.353673 L475.777145,587.702378 L475.647218,588.05501 L475.520303,588.411993 L475.335421,588.95655 L475.215723,589.326259 L475.098785,589.7018 L474.984538,590.083595 L474.872908,590.472067 L474.710216,591.06822 L474.55301,591.681776 L474.401051,592.314162 L474.302539,592.74692 L474.206179,593.189104 L474.111899,593.641138 L474.019629,594.103445 L473.884833,594.817092 L473.754153,595.556232 L473.669201,596.06386 L473.585899,596.583876 L473.504176,597.116703 L473.384395,597.940889 L473.267764,598.796278 L473.154039,599.6843 L473.006511,600.921556 L472.898629,601.89127 L472.792849,602.898375 L472.654658,604.301811 L472.5192,605.777643 L472.419053,606.934061 L472.286996,608.544725 L472.188742,609.806154 L472.090896,611.114968 L471.928069,613.405501 L471.731709,616.342424 L471.417693,621.21665 L471.238506,623.85071 L471.095661,625.83213 L470.987921,627.251511 L470.842359,629.063316 L470.69336,630.79227 L470.539552,632.448605 L470.460417,633.25274 L470.296824,634.819337 L470.168798,635.96286 L470.080588,636.712642 L469.943554,637.821665 L469.800344,638.915744 L469.701153,639.63896 L469.546363,640.717727 L469.438917,641.434733 L469.27094,642.510182 L469.154167,643.228972 C467.628738,652.477808 465.289907,660.410176 461.621705,667.500035 C452.141984,685.822335 434.921182,695.799297 411.032546,695.997004 L410.306608,696 L391,696 L391,657.23563 L410.306608,657.23563 C416.11128,657.23563 420.078482,656.312637 422.70242,654.812102 C424.612039,653.720061 426.053744,652.14729 427.355174,649.6319 L427.446519,649.453613 L427.626249,649.092265 L427.802091,648.724288 C427.831077,648.662389 427.859905,648.6002 427.888574,648.537715 L428.058709,648.159202 L428.225124,647.773269 C428.252553,647.708311 428.27983,647.643031 428.306957,647.577421 L428.467918,647.179765 C428.494447,647.112813 428.520828,647.045519 428.547063,646.977877 L428.702722,646.567785 C428.728376,646.498721 428.753886,646.429295 428.779254,646.359501 L428.929763,645.936261 L429.076924,645.50386 C429.101176,645.431012 429.12529,645.357769 429.14927,645.284125 L429.291534,644.837388 L429.430619,644.3807 L429.566591,643.913742 L429.699518,643.436199 L429.829467,642.947754 L429.956507,642.448091 L430.080705,641.936892 L430.202128,641.413842 L430.320843,640.878624 C430.340407,640.788389 430.359861,640.697634 430.379207,640.606353 L430.493988,640.052289 L430.60623,639.485265 L430.716002,638.904966 L430.82337,638.311073 L430.928402,637.703272 L431.031166,637.081245 L431.131729,636.444675 L431.230159,635.793247 L431.326523,635.126644 L431.467343,634.097592 L431.558837,633.391665 L431.69267,632.302145 L431.822615,631.174919 L431.948898,630.00892 L432.031167,629.209518 L432.191396,627.556325 L432.308065,626.267593 L432.421986,624.935814 L432.569997,623.0913 L432.642491,622.138841 L432.784792,620.171936 L432.923962,618.120273 L433.330881,611.80735 L433.541927,608.683928 L433.71708,606.250011 L433.888428,604.04421 L434.011175,602.581321 L434.110941,601.464989 L434.213081,600.386793 L434.372718,598.821123 L434.484747,597.798508 L434.602313,596.782221 L434.665752,596.254746 L434.731048,595.725262 C434.786271,595.282836 434.843561,594.836998 434.903245,594.384449 C435.98141,586.209397 437.575862,579.249005 440.077215,572.907923 C446.962683,555.452851 460.492109,544.351652 480.219283,542.121711 C480.936531,542.040634 481.657743,542 482.379523,542 Z M410.306608,388 C431.716612,388 447.369067,395.927425 456.070094,411.345897 C459.355318,417.167409 461.392131,423.563491 462.672593,430.917012 L462.82755,431.8333 L462.963089,432.675496 L463.131658,433.78533 L463.249814,434.614646 L463.361602,435.447132 L463.46767,436.288006 L463.568668,437.142481 L463.665245,438.015773 L463.758048,438.913097 L463.847728,439.839669 L463.963563,441.129607 L464.104513,442.847019 L464.216072,444.320006 L464.356542,446.305342 L464.530571,448.930967 L464.673221,451.141134 L464.803782,453.053049 L464.908242,454.489489 L465.039679,456.174019 L465.146146,457.436794 L465.254344,458.627679 L465.39281,460.020148 L465.506787,461.061185 L465.624172,462.040915 L465.684303,462.508808 L465.74548,462.962596 L465.839346,463.617721 L465.935926,464.2434 L466.03544,464.841006 L466.138103,465.411913 L466.244134,465.957496 L466.316801,466.307827 L466.428929,466.814255 L466.505861,467.139756 L466.584613,467.456037 L466.706292,467.914062 L466.789874,468.209075 L466.875502,468.496293 L467.007918,468.913395 L467.09894,469.182907 L467.192233,469.44605 L467.287861,469.703229 L467.385889,469.954853 L467.537572,470.322763 L467.641882,470.562279 L467.70436,470.700778 L467.829925,470.966612 L467.95742,471.21802 C468.773844,472.765745 469.787355,473.478579 472.535503,473.985659 L472.815631,474.035077 L472.950407,474.029703 C475.143596,473.931897 476.59567,473.603692 477.481182,473.186245 L477.584735,473.135732 C477.944024,472.954323 478.155935,472.767871 478.472064,472.288979 L478.608487,472.074925 L478.771208,471.801625 L478.877726,471.611339 L478.98279,471.414099 L479.0865,471.209491 L479.188955,470.9971 L479.290255,470.77651 L479.390499,470.547306 L479.539104,470.186442 L479.637144,469.933889 L479.734476,469.671269 L479.879366,469.257557 L479.975365,468.967956 L480.118721,468.511826 L480.214008,468.19265 L480.309185,467.860916 L480.45196,467.338865 L480.547295,466.973924 L480.642868,466.594974 L480.786891,465.999374 L480.980681,465.152334 L481.127779,464.475558 L481.326888,463.515201 L481.530132,462.485524 L481.685756,461.665779 L481.898149,460.506805 L482.172625,458.947378 L482.400363,457.607223 L482.576448,456.545902 L483.225692,452.565073 L483.536255,450.718517 L483.771958,449.361716 L483.999887,448.095817 L484.167708,447.197074 L484.389936,446.054361 L484.557253,445.230877 L484.669875,444.694368 L484.899552,443.642914 L485.077304,442.865849 L485.261306,442.091671 L485.452942,441.314087 L485.585625,440.790699 L485.722728,440.261136 C487.395062,433.865923 489.627032,428.323982 492.886358,423.299333 C501.337169,410.27138 515.118523,403.463318 533.206567,403.463318 C552.477151,403.463318 566.426679,413.117203 573.668846,429.623885 C576.227755,435.456269 577.901767,441.892943 579.104327,449.492551 C579.244813,450.380354 579.374468,451.241379 579.496907,452.104469 L579.603802,452.871971 L579.770435,454.129654 L579.899243,455.159163 L580.025379,456.220028 L580.181158,457.605095 L580.36848,459.378887 L580.560127,461.305703 L580.760234,463.418533 L581.123778,467.442879 L581.52258,471.943053 L581.691742,473.759165 L581.8616,475.497158 L581.989763,476.750814 L582.162093,478.35781 L582.336554,479.893214 L582.469111,480.999213 L582.60338,482.067279 L582.693953,482.758743 L582.831565,483.765811 L582.971476,484.737617 L583.113906,485.675161 L583.259076,486.579445 L583.357486,487.164318 L583.457277,487.735151 L583.609694,488.565723 L583.713222,489.102752 L583.871551,489.884011 L584.033719,490.637016 L584.199948,491.362771 L584.313132,491.831962 L584.428283,492.289783 L584.545467,492.736531 L584.664749,493.172503 L584.786195,493.597994 L584.972562,494.217232 C584.993556,494.2848 585.014647,494.351963 585.035836,494.418726 L585.164163,494.814559 L585.294914,495.201099 L585.428154,495.578644 L585.56395,495.947488 L585.702365,496.307931 L585.843465,496.660267 L585.987315,497.004794 C586.011523,497.061581 586.035848,497.118055 586.060292,497.174222 L586.20839,497.507592 L586.359402,497.833894 L586.513392,498.153426 L586.591525,498.310745 C586.680792,498.4887 586.770215,498.660889 586.860253,498.827457 L587.041286,499.15314 C588.407222,501.540195 589.980364,502.684213 593.30872,503.074393 L593.763038,503.121993 L594.238974,503.160916 C594.563652,503.18403 594.903286,503.201531 595.258962,503.213763 L595.49239,503.220771 L595.635539,503.1989 C599.045807,502.653235 600.724239,501.521819 602.12946,498.816762 L602.311321,498.454923 C602.401596,498.26946 602.490979,498.077121 602.579874,497.877633 L602.757134,497.469041 L602.933813,497.040896 L603.089844,496.646327 L603.222855,496.297622 L603.352782,495.94499 L603.479697,495.588007 L603.664579,495.04345 L603.784277,494.673741 L603.901215,494.2982 L604.015462,493.916405 L604.127092,493.527933 L604.289784,492.93178 L604.44699,492.318224 L604.598949,491.685838 L604.697461,491.25308 L604.793821,490.810896 L604.888101,490.358862 L604.980371,489.896555 L605.115167,489.182908 L605.245847,488.443768 L605.330799,487.93614 L605.414101,487.416124 L605.495824,486.883297 L605.615605,486.059111 L605.732236,485.203722 L605.845961,484.3157 L605.993489,483.078444 L606.101371,482.10873 L606.207151,481.101625 L606.345342,479.698189 L606.4808,478.222357 L606.580947,477.065939 L606.713004,475.455275 L606.811258,474.193846 L606.909104,472.885032 L607.071931,470.594499 L607.268291,467.657576 L607.582307,462.78335 L607.761494,460.14929 L607.904339,458.16787 L608.012079,456.748489 L608.157641,454.936684 L608.30664,453.20773 L608.460448,451.551395 L608.539583,450.74726 L608.703176,449.180663 L608.831202,448.03714 L608.919412,447.287358 L609.056446,446.178335 L609.199656,445.084256 L609.298847,444.36104 L609.453637,443.282273 L609.561083,442.565267 L609.72906,441.489818 L609.845833,440.771028 C611.371262,431.522192 613.710093,423.589824 617.378295,416.499965 C626.858016,398.177665 644.078818,388.200703 667.967454,388.002996 L668.693392,388 L688,388 L688,426.76437 L668.693392,426.76437 C662.88872,426.76437 658.921518,427.687363 656.29758,429.187898 C654.387961,430.279939 652.946256,431.85271 651.644826,434.3681 L651.553481,434.546387 L651.373751,434.907735 L651.197909,435.275712 C651.168923,435.337611 651.140095,435.3998 651.111426,435.462285 L650.941291,435.840798 L650.774876,436.226731 C650.747447,436.291689 650.72017,436.356969 650.693043,436.422579 L650.532082,436.820235 C650.505553,436.887187 650.479172,436.954481 650.452937,437.022123 L650.297278,437.432215 C650.271624,437.501279 650.246114,437.570705 650.220746,437.640499 L650.070237,438.063739 L649.923076,438.49614 C649.898824,438.568988 649.87471,438.642231 649.85073,438.715875 L649.708466,439.162612 L649.569381,439.6193 L649.433409,440.086258 L649.300482,440.563801 L649.170533,441.052246 L649.043493,441.551909 L648.919295,442.063108 L648.797872,442.586158 L648.679157,443.121376 C648.659593,443.211611 648.640139,443.302366 648.620793,443.393647 L648.506012,443.947711 L648.39377,444.514735 L648.283998,445.095034 L648.17663,445.688927 L648.071598,446.296728 L647.968834,446.918755 L647.868271,447.555325 L647.769841,448.206753 L647.673477,448.873356 L647.532657,449.902408 L647.441163,450.608335 L647.30733,451.697855 L647.177385,452.825081 L647.051102,453.99108 L646.968833,454.790482 L646.808604,456.443675 L646.691935,457.732407 L646.578014,459.064186 L646.430003,460.9087 L646.357509,461.861159 L646.215208,463.828064 L646.076038,465.879727 L645.669119,472.19265 L645.458073,475.316072 L645.28292,477.749989 L645.111572,479.95579 L644.988825,481.418679 L644.889059,482.535011 L644.786919,483.613207 L644.627282,485.178877 L644.515253,486.201492 L644.397687,487.217779 L644.334248,487.745254 L644.268952,488.274738 C644.213729,488.717164 644.156439,489.163002 644.096755,489.615551 C643.01859,497.790603 641.424138,504.750995 638.922785,511.092077 C632.037317,528.547149 618.507891,539.648348 598.780717,541.878289 C598.063469,541.959366 597.342257,542 596.620477,542 C575.819517,542 560.537041,532.556532 552.104469,515.746037 C548.977819,509.513001 546.901769,502.581215 545.440541,494.51886 L545.314967,493.816065 L545.193255,493.114567 L545.017424,492.061494 L544.90436,491.356724 L544.740422,490.291761 L544.582582,489.212963 L544.480359,488.483595 L544.330956,487.370567 L544.185577,486.2303 L544.043445,485.057768 L543.903783,483.847943 L543.765814,482.595801 L543.628759,481.296314 L543.49184,479.944456 L543.308152,478.051826 L543.074132,475.524396 L542.537152,469.489118 L542.300835,466.95791 L542.107252,464.985544 L541.9921,463.859425 L541.877423,462.774827 L541.724874,461.391228 L541.610439,460.398883 L541.495735,459.444091 L541.341993,458.227393 L541.186848,457.072518 L541.029771,455.976645 L540.870233,454.936952 L540.748646,454.192352 L540.625154,453.476576 L540.499534,452.788433 L540.371562,452.126732 L540.241015,451.490284 L540.107671,450.877898 L539.971305,450.288384 L539.831696,449.720551 L539.688619,449.173208 L539.541851,448.645166 L539.441846,448.303273 L539.288431,447.804753 L539.130731,447.32236 L538.968521,446.854902 L538.857767,446.550973 L538.687547,446.105762 L538.512223,445.672313 L538.331571,445.249435 L538.077324,444.681245 L537.957725,444.42582 L537.784404,444.076645 L537.671183,443.865529 L537.558443,443.670969 C537.012787,442.769529 536.442519,442.42484 535.246465,442.297823 L534.989879,442.274538 C534.945561,442.271138 534.900449,442.267969 534.85452,442.265017 L534.568928,442.249799 L534.26252,442.239124 L533.76129,442.230171 L533.206567,442.227688 C529.852629,442.227688 527.722362,442.663992 526.496366,443.269641 C526.005541,443.512111 525.708247,443.768114 525.337798,444.311124 L525.18461,444.544963 L525.068185,444.733767 L524.953498,444.929464 L524.840448,445.132473 L524.728933,445.343216 L524.61885,445.562115 L524.510097,445.789591 L524.402572,446.026066 L524.296172,446.271959 L524.190796,446.527693 L524.08634,446.793689 L523.93116,447.212846 L523.828559,447.50634 L523.726522,447.811571 L523.574298,448.292343 L523.473221,448.628758 L523.372349,448.978383 L523.221203,449.528512 L523.069942,450.110735 L522.968869,450.517416 L522.816652,451.156288 L522.714622,451.602052 L522.508773,452.543111 L522.35242,453.293905 L522.193998,454.084849 L522.033161,454.917366 L521.81436,456.094513 L521.589836,457.351465 L521.35877,458.691591 L521.059492,460.488847 L520.549311,463.627791 L520.194843,465.757932 L519.86779,467.653015 L519.660073,468.80886 L519.507604,469.629115 L519.306375,470.671703 L519.155388,471.422894 L519.002962,472.154208 L518.847854,472.871478 L518.63472,473.816075 L518.411658,474.759901 L518.236072,475.475584 L518.051999,476.204444 C516.434732,482.523283 514.288027,487.985382 511.14319,492.953649 C502.901207,505.974474 489.335424,512.82398 471.544163,512.82398 C470.687479,512.82398 469.831744,512.766737 468.982634,512.65263 C451.367669,510.285466 438.904105,501.022738 432.385499,486.370917 C429.96867,480.93863 428.472411,475.091443 427.507976,468.362022 L427.368936,467.366652 C427.346663,467.202746 427.324821,467.039656 427.303381,466.877113 L427.210173,466.153611 L427.094866,465.204862 L426.960413,464.005295 L426.859027,463.020016 L426.761738,461.998876 L426.690688,461.202221 L426.574312,459.800699 L426.458311,458.286529 L426.291762,455.932528 L425.918909,450.245541 L425.810072,448.693689 L425.67173,446.866506 L425.587169,445.828218 L425.472218,444.509138 L425.354343,443.262187 L425.263751,442.372666 L425.171079,441.521029 L425.076138,440.706126 L425.011493,440.182695 L424.945701,439.674737 L424.878707,439.18191 L424.810457,438.703872 L424.705603,438.0138 L424.597609,437.355084 L424.486288,436.726574 L424.410134,436.323779 L424.332363,435.933554 L424.212553,435.371042 L424.130497,435.010752 L424.04663,434.661839 L423.917313,434.159052 L423.828677,433.837087 L423.691947,433.373122 L423.598195,433.075971 L423.502301,432.788148 L423.404208,432.509313 L423.303861,432.239123 L423.201204,431.977237 L423.096184,431.723315 L422.988743,431.477015 L422.878827,431.237995 L422.76638,431.005914 L422.651347,430.780431 L422.533673,430.561205 L422.473828,430.453831 L422.473828,430.453831 C421.900131,429.437223 421.35315,428.901165 420.372117,428.404306 C418.910657,427.664127 416.701122,427.105719 413.596041,426.877356 L412.983836,426.837318 C412.256457,426.795508 411.482931,426.771015 410.661559,426.765544 L410.306608,426.76437 L391,426.76437 L391,388 L410.306608,388 Z" id="Combined-Shape" fill="url(#linearGradient-1)" fill-rule="nonzero"></path>
        <text id="Waveform-White" opacity="0.2" font-family="Poppins-Regular, Poppins" font-size="34" font-weight="normal" fill="#FFFFFF">
            <tspan x="399.094" y="948">Waveform White</tspan>
        </text>
    </g>
</svg>