<?xml version="1.0" encoding="UTF-8"?>
<svg width="1080px" height="1080px" viewBox="0 0 1080 1080" version="1.1" xmlns="http://www.w3.org/2000/svg" xmlns:xlink="http://www.w3.org/1999/xlink">
    <title>waveform-02-gradient</title>
    <defs>
        <linearGradient x1="103.608751%" y1="100%" x2="-4.42459244%" y2="100%" id="linearGradient-1">
            <stop stop-color="#77F6FF" offset="0%"></stop>
            <stop stop-color="#1D1E1F" offset="100%"></stop>
            <stop stop-color="#1D1E1F" offset="100%"></stop>
        </linearGradient>
        <linearGradient x1="50%" y1="64.3961927%" x2="52.1686491%" y2="35.6038073%" id="linearGradient-2">
            <stop stop-color="#8348FF" offset="0%"></stop>
            <stop stop-color="#4FF0FF" offset="49.7267007%"></stop>
            <stop stop-color="#3EEE91" offset="100%"></stop>
        </linearGradient>
    </defs>
    <g id="waveform-02-gradient" stroke="none" stroke-width="1" fill="none" fill-rule="evenodd">
        <rect fill="#1D1D21" x="0" y="0" width="1080" height="1080"></rect>
        <g id="Group-2" transform="translate(540.500000, 540.000000) rotate(-45.000000) translate(-540.500000, -540.000000) translate(397.000000, 386.000000)" fill-rule="nonzero">
            <path d="M81.3795227,9.09494702e-13 C102.180483,9.09494702e-13 117.462959,9.44346788 125.895531,26.2539625 C129.022181,32.4869991 131.098231,39.4187851 132.559459,47.4811399 L132.685033,48.1839349 L132.806745,48.8854329 L132.982576,49.9385055 L133.09564,50.6432762 L133.259578,51.7082389 L133.417418,52.7870375 L133.519641,53.5164052 L133.669044,54.6294329 L133.814423,55.7696999 L133.956555,56.9422324 L134.096217,58.1520567 L134.234186,59.4041992 L134.371241,60.7036861 L134.50816,62.0555438 L134.691848,63.9481736 L134.925868,66.475604 L135.462848,72.5108822 L135.699165,75.0420896 L135.892748,77.0144561 L136.0079,78.1405748 L136.122577,79.2251727 L136.275126,80.6087724 L136.389561,81.6011174 L136.504265,82.5559093 L136.658007,83.7726069 L136.813152,84.9274816 L136.970229,86.0233549 L137.129767,87.0630485 L137.251354,87.8076482 L137.374846,88.5234244 L137.500466,89.2115674 L137.628438,89.8732677 L137.758985,90.5097157 L137.892329,91.1221017 L138.028695,91.7116161 L138.168304,92.2794493 L138.311381,92.8267916 L138.458149,93.3548335 L138.558154,93.6967268 L138.711569,94.1952466 L138.869269,94.6776404 L139.031479,95.1450984 L139.142233,95.4490273 L139.312453,95.8942377 L139.487777,96.3276868 L139.668429,96.750565 L139.922676,97.3187551 L140.042275,97.5741795 L140.215596,97.9233548 L140.328817,98.1344707 L140.441557,98.3290309 C140.987213,99.2304712 141.557481,99.5751605 142.753535,99.7021771 L143.010121,99.7254617 C143.054439,99.7288619 143.099551,99.7320311 143.14548,99.7349831 L143.431072,99.7502012 L143.73748,99.7608759 L144.23871,99.7698287 L144.793433,99.7723124 C148.147371,99.7723124 150.277638,99.3360077 151.503634,98.7303592 C151.994459,98.4878893 152.291753,98.2318862 152.662202,97.6888764 L152.81539,97.455037 L152.931815,97.2662326 L153.046502,97.0705365 L153.159552,96.8675273 L153.271067,96.6567837 L153.38115,96.4378846 L153.489903,96.2104086 L153.597428,95.9739344 L153.703828,95.7280409 L153.809204,95.4723067 L153.91366,95.2063106 L154.06884,94.7871538 L154.171441,94.4936598 L154.273478,94.1884294 L154.425702,93.7076567 L154.526779,93.3712425 L154.627651,93.0216174 L154.778797,92.4714881 L154.930058,91.8892649 L155.031131,91.4825841 L155.183348,90.8437115 L155.285378,90.397948 L155.491227,89.4568889 L155.64758,88.7060953 L155.806002,87.915151 L155.966839,87.0826344 L156.18564,85.9054868 L156.410164,84.648535 L156.64123,83.308409 L156.940508,81.5111535 L157.450689,78.3722088 L157.805157,76.2420684 L158.13221,74.3469854 L158.339927,73.1911397 L158.492396,72.3708855 L158.693625,71.3282966 L158.844612,70.577106 L158.997038,69.8457922 L159.152146,69.128522 L159.36528,68.1839255 L159.588342,67.2400988 L159.763928,66.5244163 L159.948001,65.7955562 C161.565268,59.476717 163.711973,54.0146183 166.85681,49.0463507 C175.098793,36.0255256 188.664576,29.1760204 206.455837,29.1760204 C207.312521,29.1760204 208.168256,29.2332635 209.017366,29.3473701 C226.632331,31.7145344 239.095895,40.9772618 245.614501,55.6290833 C248.03133,61.0613698 249.527589,66.9085569 250.492024,73.6379782 L250.631064,74.6333481 C250.653337,74.797254 250.675179,74.9603443 250.696619,75.1228873 L250.789827,75.8463885 L250.905134,76.7951378 L251.039587,77.9947054 L251.140973,78.9799841 L251.238262,80.0011244 L251.309312,80.7977794 L251.425688,82.199301 L251.541689,83.713471 L251.708238,86.0674723 L252.081091,91.7544586 L252.189928,93.3063108 L252.32827,95.1334942 L252.412831,96.171782 L252.527782,97.4908624 L252.645657,98.7378134 L252.736249,99.6273344 L252.828921,100.478971 L252.923862,101.293874 L252.988507,101.817305 L253.054299,102.325263 L253.121293,102.81809 L253.189543,103.296128 L253.294397,103.9862 L253.402391,104.644916 L253.513712,105.273426 L253.589866,105.676221 L253.667637,106.066446 L253.787447,106.628958 L253.869503,106.989248 L253.95337,107.338161 L254.082687,107.840948 L254.171323,108.162913 L254.308053,108.626878 L254.401805,108.924029 L254.497699,109.211852 L254.595792,109.490687 L254.696139,109.760877 L254.798796,110.022763 L254.903816,110.276685 L255.011257,110.522985 L255.121173,110.762005 L255.23362,110.994086 L255.348653,111.219569 L255.466327,111.438795 C255.486163,111.474831 255.50611,111.510619 255.526172,111.546169 C256.099869,112.562777 256.64685,113.098835 257.627883,113.595694 C259.089343,114.335873 261.298878,114.894281 264.403959,115.122644 L265.016164,115.162682 C265.743543,115.204492 266.517069,115.228985 267.338441,115.234456 L267.693392,115.23563 L287,115.23563 L287,154 L267.693392,154 C246.283388,154 230.630933,146.072575 221.929906,130.654103 C218.644682,124.832591 216.607869,118.436509 215.327407,111.082988 L215.17245,110.1667 L215.036911,109.324504 L214.868342,108.21467 L214.750186,107.385354 L214.638398,106.552868 L214.53233,105.711994 L214.431332,104.857519 L214.334755,103.984227 L214.241952,103.086903 L214.152272,102.160331 L214.036437,100.870393 L213.895487,99.1529808 L213.783928,97.679994 L213.643458,95.6946577 L213.469429,93.069033 L213.326779,90.858866 L213.196218,88.946951 L213.091758,87.5105107 L212.960321,85.8259815 L212.853854,84.5632056 L212.745656,83.3723213 L212.60719,81.9798516 L212.493213,80.9388149 L212.375828,79.9590846 L212.315697,79.4911915 L212.25452,79.0374037 L212.160654,78.3822786 L212.064074,77.7566001 L211.96456,77.1589943 L211.861897,76.5880871 L211.755866,76.0425044 L211.683199,75.6921732 L211.571071,75.1857446 L211.494139,74.860244 L211.415387,74.543963 L211.293708,74.085938 L211.210126,73.7909252 L211.124498,73.5037072 L210.992082,73.0866048 L210.90106,72.8170926 L210.807767,72.5539503 L210.712139,72.2967707 L210.614111,72.0451468 L210.462428,71.677237 L210.358118,71.4377209 L210.29564,71.2992218 L210.170075,71.0333876 L210.04258,70.7819801 C209.226156,69.2342551 208.212645,68.5214212 205.464497,68.0143409 L205.184369,67.9649234 L205.049593,67.9702966 C202.856404,68.0681026 201.40433,68.396308 200.518818,68.813755 L200.415265,68.8642679 C200.055976,69.0456768 199.844065,69.2321293 199.527936,69.7110208 L199.391513,69.9250753 L199.228792,70.198375 L199.122274,70.3886612 L199.01721,70.5859008 L198.9135,70.7905088 L198.811045,71.0029003 L198.709745,71.2234904 L198.609501,71.452694 L198.460896,71.8135578 L198.362856,72.0661113 L198.265524,72.328731 L198.120634,72.7424427 L198.024635,73.032044 L197.881279,73.4881735 L197.785992,73.8073504 L197.690815,74.1390838 L197.54804,74.6611354 L197.452705,75.0260761 L197.357132,75.4050261 L197.213109,76.0006263 L197.019319,76.8476662 L196.872221,77.5244416 L196.673112,78.4847994 L196.469868,79.514476 L196.314244,80.3342212 L196.101851,81.4931952 L195.827375,83.0526219 L195.599637,84.3927774 L195.423552,85.4540979 L194.774308,89.4349268 L194.463745,91.2814831 L194.228042,92.6382841 L194.000113,93.9041831 L193.832292,94.802926 L193.610064,95.945639 L193.442747,96.769123 L193.330125,97.3056317 L193.100448,98.3570863 L192.922696,99.1341514 L192.738694,99.9083292 L192.547058,100.685913 L192.414375,101.209301 L192.277272,101.738864 C190.604938,108.134077 188.372968,113.676018 185.113642,118.700667 C176.662831,131.72862 162.881477,138.536682 144.793433,138.536682 C125.522849,138.536682 111.573321,128.882797 104.331154,112.376115 C101.772245,106.543731 100.098233,100.107057 98.8956731,92.5074492 C98.7551874,91.6196459 98.6255323,90.7586214 98.5030926,89.8955314 L98.3961979,89.1280287 L98.2295651,87.870346 L98.1007574,86.8408371 L97.9746213,85.779972 L97.8188416,84.3949053 L97.6315203,82.6211132 L97.4398732,80.694297 L97.2397657,78.5814674 L96.8762223,74.5571214 L96.47742,70.0569465 L96.3082578,68.2408346 L96.1384003,66.5028421 L96.010237,65.2491856 L95.8379069,63.6421902 L95.6634465,62.1067862 L95.5308891,61.000787 L95.3966198,59.9327214 L95.306047,59.2412572 L95.1684351,58.2341886 L95.0285241,57.2623829 L94.8860939,56.3248387 L94.7409243,55.4205546 L94.642514,54.8356818 L94.5427231,54.2648493 L94.3903055,53.4342774 L94.2867779,52.8972479 L94.1284493,52.1159895 L93.9662808,51.3629838 L93.8000519,50.6372294 L93.6868683,50.1680383 L93.5717171,49.7102171 L93.454533,49.263469 L93.3352508,48.8274974 L93.2138054,48.4020055 L93.0274383,47.782768 C93.0064441,47.7151997 92.985353,47.648037 92.9641636,47.581274 L92.8358369,47.1854409 L92.7050859,46.7989006 L92.5718455,46.4213564 L92.4360504,46.0525115 L92.2976355,45.6920693 L92.1565354,45.339733 L92.0126849,44.9952059 C91.988477,44.938419 91.9641518,44.8819451 91.9397079,44.8257781 L91.7916096,44.4924084 L91.6405979,44.1661061 L91.4866075,43.8465744 L91.4084749,43.6892548 C91.3192082,43.5112998 91.229785,43.339111 91.1397466,43.1725435 L90.9587138,42.8468604 C89.592778,40.4598054 88.0196365,39.315787 84.6912798,38.9256068 L84.2369617,38.8780071 L83.7610257,38.839084 C83.4363478,38.8159702 83.0967143,38.7984691 82.741038,38.7862371 L82.5076104,38.7792294 L82.3644612,38.8010999 C78.9541927,39.3467647 77.2757605,40.478181 75.8705396,43.1832382 L75.6886794,43.5450772 C75.5984041,43.73054 75.5090212,43.9228787 75.4201259,44.1223672 L75.2428658,44.5309588 L75.066187,44.9591038 L74.9101564,45.353673 L74.7771453,45.7023778 L74.647218,46.05501 L74.5203029,46.4119928 L74.335421,46.9565495 L74.2157226,47.3262593 L74.0987854,47.7018001 L73.9845379,48.083595 L73.8729083,48.472067 L73.7102158,49.0682199 L73.5530105,49.6817759 L73.4010506,50.3141624 L73.3025387,50.74692 L73.2061788,51.1891042 L73.1118994,51.6411383 L73.0196289,52.103445 L72.8848327,52.817092 L72.7541531,53.5562321 L72.6692009,54.0638601 L72.5858993,54.583876 L72.5041763,55.1167027 L72.3843954,55.9408885 L72.2677637,56.7962783 L72.1540391,57.6842997 L72.0065108,58.9215561 L71.8986293,59.8912701 L71.7928488,60.8983746 L71.6546583,62.3018114 L71.5191996,63.7776426 L71.4190535,64.9340605 L71.2869959,66.544725 L71.1887421,67.8061544 L71.0908962,69.1149682 L70.9280692,71.4055009 L70.7317089,74.342424 L70.4176933,79.2166503 L70.2385062,81.8507098 L70.0956607,83.8321297 L69.9879206,85.2515109 L69.8423593,87.063316 L69.6933604,88.7922695 L69.5395525,90.4486054 L69.4604166,91.2527396 L69.2968238,92.8193369 L69.1687984,93.9628595 L69.0805881,94.7126419 L68.9435543,95.8216646 L68.8003441,96.9157438 L68.7011535,97.63896 L68.5463635,98.7177275 L68.4389173,99.4347334 L68.2709404,100.510182 L68.1541673,101.228972 C66.6287384,110.477808 64.2899066,118.410176 60.621705,125.500035 C51.1419842,143.822335 33.9211819,153.799297 10.0325455,153.997004 L9.30660761,154 L5.68434189e-13,154 L5.68434189e-13,115.23563 L9.30660761,115.23563 C15.1112802,115.23563 19.0784817,114.312637 21.7024198,112.812102 C23.6120389,111.720061 25.0537435,110.14729 26.3551739,107.6319 L26.4465186,107.453613 L26.6262491,107.092265 L26.8020907,106.724288 C26.8310773,106.662389 26.8599047,106.6002 26.8885742,106.537715 L27.058709,106.159202 L27.2251236,105.773269 C27.2525531,105.708311 27.2798305,105.643031 27.306957,105.577421 L27.467918,105.179765 C27.4944471,105.112813 27.5208281,105.045519 27.5470626,104.977877 L27.702722,104.567785 C27.7283758,104.498721 27.7538859,104.429295 27.7792537,104.359501 L27.9297633,103.936261 L28.0769242,103.50386 C28.1011757,103.431012 28.1252905,103.357769 28.14927,103.284125 L28.2915343,102.837388 L28.4306187,102.3807 L28.5665907,101.913742 L28.6995178,101.436199 L28.8294675,100.947754 L28.9565073,100.448091 L29.0807048,99.9368924 L29.2021275,99.4138423 L29.3208429,98.878624 C29.340407,98.7883893 29.359861,98.6976345 29.3792065,98.6063528 L29.4939876,98.0522888 L29.6062302,97.4852652 L29.7160018,96.9049655 L29.82337,96.3110732 L29.9284023,95.7032718 L30.0311662,95.0812446 L30.1317292,94.4446752 L30.2301589,93.7932471 L30.3265227,93.1266435 L30.4673428,92.0975921 L30.5588375,91.3916653 L30.6926703,90.3021452 L30.8226147,89.1749194 L30.9488985,88.0089197 L31.0311665,87.2095178 L31.1913959,85.5563249 L31.3080652,84.2675932 L31.4219856,82.9358142 L31.569997,81.0912998 L31.6424907,80.1388408 L31.7847919,78.1719364 L31.9239616,76.1202733 L32.3308811,69.8073504 L32.5419274,66.6839277 L32.7170798,64.2500109 L32.8884285,62.0442099 L33.011175,60.5813213 L33.110941,59.464989 L33.2130807,58.3867925 L33.3727182,56.8211232 L33.4847467,55.7985077 L33.6023127,54.7822211 L33.6657516,54.2547457 L33.7310484,53.7252616 C33.7862714,53.2828361 33.843561,52.8369984 33.9032453,52.3844495 C34.9814098,44.2093966 36.5758615,37.2490049 39.0772154,30.9079228 C45.9626826,13.4528508 59.4921092,2.35165178 79.2192833,0.121711121 C79.9365308,0.0406341648 80.6577428,9.09494702e-13 81.3795227,9.09494702e-13 Z" id="Path" fill="url(#linearGradient-1)" transform="translate(143.500000, 77.000000) rotate(-180.000000) translate(-143.500000, -77.000000) "></path>
            <path d="M91.3795227,154 C112.180483,154 127.462959,163.443468 135.895531,180.253963 C139.022181,186.486999 141.098231,193.418785 142.559459,201.48114 L142.685033,202.183935 L142.806745,202.885433 L142.982576,203.938506 L143.09564,204.643276 L143.259578,205.708239 L143.417418,206.787037 L143.519641,207.516405 L143.669044,208.629433 L143.814423,209.7697 L143.956555,210.942232 L144.096217,212.152057 L144.234186,213.404199 L144.371241,214.703686 L144.50816,216.055544 L144.691848,217.948174 L144.925868,220.475604 L145.462848,226.510882 L145.699165,229.04209 L145.892748,231.014456 L146.0079,232.140575 L146.122577,233.225173 L146.275126,234.608772 L146.389561,235.601117 L146.504265,236.555909 L146.658007,237.772607 L146.813152,238.927482 L146.970229,240.023355 L147.129767,241.063048 L147.251354,241.807648 L147.374846,242.523424 L147.500466,243.211567 L147.628438,243.873268 L147.758985,244.509716 L147.892329,245.122102 L148.028695,245.711616 L148.168304,246.279449 L148.311381,246.826792 L148.458149,247.354834 L148.558154,247.696727 L148.711569,248.195247 L148.869269,248.67764 L149.031479,249.145098 L149.142233,249.449027 L149.312453,249.894238 L149.487777,250.327687 L149.668429,250.750565 L149.922676,251.318755 L150.042275,251.57418 L150.215596,251.923355 L150.328817,252.134471 L150.441557,252.329031 C150.987213,253.230471 151.557481,253.57516 152.753535,253.702177 L153.010121,253.725462 C153.054439,253.728862 153.099551,253.732031 153.14548,253.734983 L153.431072,253.750201 L153.73748,253.760876 L154.23871,253.769829 L154.793433,253.772312 C158.147371,253.772312 160.277638,253.336008 161.503634,252.730359 C161.994459,252.487889 162.291753,252.231886 162.662202,251.688876 L162.81539,251.455037 L162.931815,251.266233 L163.046502,251.070536 L163.159552,250.867527 L163.271067,250.656784 L163.38115,250.437885 L163.489903,250.210409 L163.597428,249.973934 L163.703828,249.728041 L163.809204,249.472307 L163.91366,249.206311 L164.06884,248.787154 L164.171441,248.49366 L164.273478,248.188429 L164.425702,247.707657 L164.526779,247.371242 L164.627651,247.021617 L164.778797,246.471488 L164.930058,245.889265 L165.031131,245.482584 L165.183348,244.843712 L165.285378,244.397948 L165.491227,243.456889 L165.64758,242.706095 L165.806002,241.915151 L165.966839,241.082634 L166.18564,239.905487 L166.410164,238.648535 L166.64123,237.308409 L166.940508,235.511153 L167.450689,232.372209 L167.805157,230.242068 L168.13221,228.346985 L168.339927,227.19114 L168.492396,226.370885 L168.693625,225.328297 L168.844612,224.577106 L168.997038,223.845792 L169.152146,223.128522 L169.36528,222.183925 L169.588342,221.240099 L169.763928,220.524416 L169.948001,219.795556 C171.565268,213.476717 173.711973,208.014618 176.85681,203.046351 C185.098793,190.025526 198.664576,183.17602 216.455837,183.17602 C217.312521,183.17602 218.168256,183.233263 219.017366,183.34737 C236.632331,185.714534 249.095895,194.977262 255.614501,209.629083 C258.03133,215.06137 259.527589,220.908557 260.492024,227.637978 L260.631064,228.633348 C260.653337,228.797254 260.675179,228.960344 260.696619,229.122887 L260.789827,229.846389 L260.905134,230.795138 L261.039587,231.994705 L261.140973,232.979984 L261.238262,234.001124 L261.309312,234.797779 L261.425688,236.199301 L261.541689,237.713471 L261.708238,240.067472 L262.081091,245.754459 L262.189928,247.306311 L262.32827,249.133494 L262.412831,250.171782 L262.527782,251.490862 L262.645657,252.737813 L262.736249,253.627334 L262.828921,254.478971 L262.923862,255.293874 L262.988507,255.817305 L263.054299,256.325263 L263.121293,256.81809 L263.189543,257.296128 L263.294397,257.9862 L263.402391,258.644916 L263.513712,259.273426 L263.589866,259.676221 L263.667637,260.066446 L263.787447,260.628958 L263.869503,260.989248 L263.95337,261.338161 L264.082687,261.840948 L264.171323,262.162913 L264.308053,262.626878 L264.401805,262.924029 L264.497699,263.211852 L264.595792,263.490687 L264.696139,263.760877 L264.798796,264.022763 L264.903816,264.276685 L265.011257,264.522985 L265.121173,264.762005 L265.23362,264.994086 L265.348653,265.219569 L265.466327,265.438795 C265.486163,265.474831 265.50611,265.510619 265.526172,265.546169 C266.099869,266.562777 266.64685,267.098835 267.627883,267.595694 C269.089343,268.335873 271.298878,268.894281 274.403959,269.122644 L275.016164,269.162682 C275.743543,269.204492 276.517069,269.228985 277.338441,269.234456 L277.693392,269.23563 L287,269.23563 L287,308 L277.693392,308 C256.283388,308 240.630933,300.072575 231.929906,284.654103 C228.644682,278.832591 226.607869,272.436509 225.327407,265.082988 L225.17245,264.1667 L225.036911,263.324504 L224.868342,262.21467 L224.750186,261.385354 L224.638398,260.552868 L224.53233,259.711994 L224.431332,258.857519 L224.334755,257.984227 L224.241952,257.086903 L224.152272,256.160331 L224.036437,254.870393 L223.895487,253.152981 L223.783928,251.679994 L223.643458,249.694658 L223.469429,247.069033 L223.326779,244.858866 L223.196218,242.946951 L223.091758,241.510511 L222.960321,239.825981 L222.853854,238.563206 L222.745656,237.372321 L222.60719,235.979852 L222.493213,234.938815 L222.375828,233.959085 L222.315697,233.491192 L222.25452,233.037404 L222.160654,232.382279 L222.064074,231.7566 L221.96456,231.158994 L221.861897,230.588087 L221.755866,230.042504 L221.683199,229.692173 L221.571071,229.185745 L221.494139,228.860244 L221.415387,228.543963 L221.293708,228.085938 L221.210126,227.790925 L221.124498,227.503707 L220.992082,227.086605 L220.90106,226.817093 L220.807767,226.55395 L220.712139,226.296771 L220.614111,226.045147 L220.462428,225.677237 L220.358118,225.437721 L220.29564,225.299222 L220.170075,225.033388 L220.04258,224.78198 C219.226156,223.234255 218.212645,222.521421 215.464497,222.014341 L215.184369,221.964277 L215.049593,221.970297 C212.856404,222.068103 211.40433,222.396308 210.518818,222.813755 L210.415265,222.864268 C210.055976,223.045677 209.844065,223.232129 209.527936,223.711021 L209.391513,223.925075 L209.228792,224.198375 L209.122274,224.388661 L209.01721,224.585901 L208.9135,224.790509 L208.811045,225.0029 L208.709745,225.22349 L208.609501,225.452694 L208.460896,225.813558 L208.362856,226.066111 L208.265524,226.328731 L208.120634,226.742443 L208.024635,227.032044 L207.881279,227.488174 L207.785992,227.80735 L207.690815,228.139084 L207.54804,228.661135 L207.452705,229.026076 L207.357132,229.405026 L207.213109,230.000626 L207.019319,230.847666 L206.872221,231.524442 L206.673112,232.484799 L206.469868,233.514476 L206.314244,234.334221 L206.101851,235.493195 L205.827375,237.052622 L205.599637,238.392777 L205.423552,239.454098 L204.774308,243.434927 L204.463745,245.281483 L204.228042,246.638284 L204.000113,247.904183 L203.832292,248.802926 L203.610064,249.945639 L203.442747,250.769123 L203.330125,251.305632 L203.100448,252.357086 L202.922696,253.134151 L202.738694,253.908329 L202.547058,254.685913 L202.414375,255.209301 L202.277272,255.738864 C200.604938,262.134077 198.372968,267.676018 195.113642,272.700667 C186.662831,285.72862 172.881477,292.536682 154.793433,292.536682 C135.522849,292.536682 121.573321,282.882797 114.331154,266.376115 C111.772245,260.543731 110.098233,254.107057 108.895673,246.507449 C108.755187,245.619646 108.625532,244.758621 108.503093,243.895531 L108.396198,243.128029 L108.229565,241.870346 L108.100757,240.840837 L107.974621,239.779972 L107.818842,238.394905 L107.63152,236.621113 L107.439873,234.694297 L107.239766,232.581467 L106.876222,228.557121 L106.47742,224.056947 L106.308258,222.240835 L106.1384,220.502842 L106.010237,219.249186 L105.837907,217.64219 L105.663446,216.106786 L105.530889,215.000787 L105.39662,213.932721 L105.306047,213.241257 L105.168435,212.234189 L105.028524,211.262383 L104.886094,210.324839 L104.740924,209.420555 L104.642514,208.835682 L104.542723,208.264849 L104.390306,207.434277 L104.286778,206.897248 L104.128449,206.115989 L103.966281,205.362984 L103.800052,204.637229 L103.686868,204.168038 L103.571717,203.710217 L103.454533,203.263469 L103.335251,202.827497 L103.213805,202.402006 L103.027438,201.782768 C103.006444,201.7152 102.985353,201.648037 102.964164,201.581274 L102.835837,201.185441 L102.705086,200.798901 L102.571846,200.421356 L102.43605,200.052512 L102.297635,199.692069 L102.156535,199.339733 L102.012685,198.995206 C101.988477,198.938419 101.964152,198.881945 101.939708,198.825778 L101.79161,198.492408 L101.640598,198.166106 L101.486608,197.846574 L101.408475,197.689255 C101.319208,197.5113 101.229785,197.339111 101.139747,197.172543 L100.958714,196.84686 C99.592778,194.459805 98.0196365,193.315787 94.6912798,192.925607 L94.2369617,192.878007 L93.7610257,192.839084 C93.4363478,192.81597 93.0967143,192.798469 92.741038,192.786237 L92.5076104,192.778583 L92.3644612,192.8011 C88.9541927,193.346765 87.2757605,194.478181 85.8705396,197.183238 L85.6886794,197.545077 C85.5984041,197.73054 85.5090212,197.922879 85.4201259,198.122367 L85.2428658,198.530959 L85.066187,198.959104 L84.9101564,199.353673 L84.7771453,199.702378 L84.647218,200.05501 L84.5203029,200.411993 L84.335421,200.95655 L84.2157226,201.326259 L84.0987854,201.7018 L83.9845379,202.083595 L83.8729083,202.472067 L83.7102158,203.06822 L83.5530105,203.681776 L83.4010506,204.314162 L83.3025387,204.74692 L83.2061788,205.189104 L83.1118994,205.641138 L83.0196289,206.103445 L82.8848327,206.817092 L82.7541531,207.556232 L82.6692009,208.06386 L82.5858993,208.583876 L82.5041763,209.116703 L82.3843954,209.940889 L82.2677637,210.796278 L82.1540391,211.6843 L82.0065108,212.921556 L81.8986293,213.89127 L81.7928488,214.898375 L81.6546583,216.301811 L81.5191996,217.777643 L81.4190535,218.934061 L81.2869959,220.544725 L81.1887421,221.806154 L81.0908962,223.114968 L80.9280692,225.405501 L80.7317089,228.342424 L80.4176933,233.21665 L80.2385062,235.85071 L80.0956607,237.83213 L79.9879206,239.251511 L79.8423593,241.063316 L79.6933604,242.79227 L79.5395525,244.448605 L79.4604166,245.25274 L79.2968238,246.819337 L79.1687984,247.96286 L79.0805881,248.712642 L78.9435543,249.821665 L78.8003441,250.915744 L78.7011535,251.63896 L78.5463635,252.717727 L78.4389173,253.434733 L78.2709404,254.510182 L78.1541673,255.228972 C76.6287384,264.477808 74.2899066,272.410176 70.621705,279.500035 C61.1419842,297.822335 43.9211819,307.799297 20.0325455,307.997004 L19.3066076,308 L-1.13686838e-13,308 L-1.13686838e-13,269.23563 L19.3066076,269.23563 C25.1112802,269.23563 29.0784817,268.312637 31.7024198,266.812102 C33.6120389,265.720061 35.0537435,264.14729 36.3551739,261.6319 L36.4465186,261.453613 L36.6262491,261.092265 L36.8020907,260.724288 C36.8310773,260.662389 36.8599047,260.6002 36.8885742,260.537715 L37.058709,260.159202 L37.2251236,259.773269 C37.2525531,259.708311 37.2798305,259.643031 37.306957,259.577421 L37.467918,259.179765 C37.4944471,259.112813 37.5208281,259.045519 37.5470626,258.977877 L37.702722,258.567785 C37.7283758,258.498721 37.7538859,258.429295 37.7792537,258.359501 L37.9297633,257.936261 L38.0769242,257.50386 C38.1011757,257.431012 38.1252905,257.357769 38.14927,257.284125 L38.2915343,256.837388 L38.4306187,256.3807 L38.5665907,255.913742 L38.6995178,255.436199 L38.8294675,254.947754 L38.9565073,254.448091 L39.0807048,253.936892 L39.2021275,253.413842 L39.3208429,252.878624 C39.340407,252.788389 39.359861,252.697634 39.3792065,252.606353 L39.4939876,252.052289 L39.6062302,251.485265 L39.7160018,250.904966 L39.82337,250.311073 L39.9284023,249.703272 L40.0311662,249.081245 L40.1317292,248.444675 L40.2301589,247.793247 L40.3265227,247.126644 L40.4673428,246.097592 L40.5588375,245.391665 L40.6926703,244.302145 L40.8226147,243.174919 L40.9488985,242.00892 L41.0311665,241.209518 L41.1913959,239.556325 L41.3080652,238.267593 L41.4219856,236.935814 L41.569997,235.0913 L41.6424907,234.138841 L41.7847919,232.171936 L41.9239616,230.120273 L42.3308811,223.80735 L42.5419274,220.683928 L42.7170798,218.250011 L42.8884285,216.04421 L43.011175,214.581321 L43.110941,213.464989 L43.2130807,212.386793 L43.3727182,210.821123 L43.4847467,209.798508 L43.6023127,208.782221 L43.6657516,208.254746 L43.7310484,207.725262 C43.7862714,207.282836 43.843561,206.836998 43.9032453,206.384449 C44.9814098,198.209397 46.5758615,191.249005 49.0772154,184.907923 C55.9626826,167.452851 69.4921092,156.351652 89.2192833,154.121711 C89.9365308,154.040634 90.6577428,154 91.3795227,154 Z" id="Path" fill="url(#linearGradient-1)" transform="translate(143.500000, 231.000000) scale(-1, -1) rotate(-180.000000) translate(-143.500000, -231.000000) "></path>
            <path d="M91.3795227,9.09494702e-13 C112.180483,9.09494702e-13 127.462959,9.44346788 135.895531,26.2539625 C139.022181,32.4869991 141.098231,39.4187851 142.559459,47.4811399 L142.685033,48.1839349 L142.806745,48.8854329 L142.982576,49.9385055 L143.09564,50.6432762 L143.259578,51.7082389 L143.417418,52.7870375 L143.519641,53.5164052 L143.669044,54.6294329 L143.814423,55.7696999 L143.956555,56.9422324 L144.096217,58.1520567 L144.234186,59.4041992 L144.371241,60.7036861 L144.50816,62.0555438 L144.691848,63.9481736 L144.925868,66.475604 L145.462848,72.5108822 L145.699165,75.0420896 L145.892748,77.0144561 L146.0079,78.1405748 L146.122577,79.2251727 L146.275126,80.6087724 L146.389561,81.6011174 L146.504265,82.5559093 L146.658007,83.7726069 L146.813152,84.9274816 L146.970229,86.0233549 L147.129767,87.0630485 L147.251354,87.8076482 L147.374846,88.5234244 L147.500466,89.2115674 L147.628438,89.8732677 L147.758985,90.5097157 L147.892329,91.1221017 L148.028695,91.7116161 L148.168304,92.2794493 L148.311381,92.8267916 L148.458149,93.3548335 L148.558154,93.6967268 L148.711569,94.1952466 L148.869269,94.6776404 L149.031479,95.1450984 L149.142233,95.4490273 L149.312453,95.8942377 L149.487777,96.3276868 L149.668429,96.750565 L149.922676,97.3187551 L150.042275,97.5741795 L150.215596,97.9233548 L150.328817,98.1344707 L150.441557,98.3290309 C150.987213,99.2304712 151.557481,99.5751605 152.753535,99.7021771 L153.010121,99.7254617 C153.054439,99.7288619 153.099551,99.7320311 153.14548,99.7349831 L153.431072,99.7502012 L153.73748,99.7608759 L154.23871,99.7698287 L154.793433,99.7723124 C158.147371,99.7723124 160.277638,99.3360077 161.503634,98.7303592 C161.994459,98.4878893 162.291753,98.2318862 162.662202,97.6888764 L162.81539,97.455037 L162.931815,97.2662326 L163.046502,97.0705365 L163.159552,96.8675273 L163.271067,96.6567837 L163.38115,96.4378846 L163.489903,96.2104086 L163.597428,95.9739344 L163.703828,95.7280409 L163.809204,95.4723067 L163.91366,95.2063106 L164.06884,94.7871538 L164.171441,94.4936598 L164.273478,94.1884294 L164.425702,93.7076567 L164.526779,93.3712425 L164.627651,93.0216174 L164.778797,92.4714881 L164.930058,91.8892649 L165.031131,91.4825841 L165.183348,90.8437115 L165.285378,90.397948 L165.491227,89.4568889 L165.64758,88.7060953 L165.806002,87.915151 L165.966839,87.0826344 L166.18564,85.9054868 L166.410164,84.648535 L166.64123,83.308409 L166.940508,81.5111535 L167.450689,78.3722088 L167.805157,76.2420684 L168.13221,74.3469854 L168.339927,73.1911397 L168.492396,72.3708855 L168.693625,71.3282966 L168.844612,70.577106 L168.997038,69.8457922 L169.152146,69.128522 L169.36528,68.1839255 L169.588342,67.2400988 L169.763928,66.5244163 L169.948001,65.7955562 C171.565268,59.476717 173.711973,54.0146183 176.85681,49.0463507 C185.098793,36.0255256 198.664576,29.1760204 216.455837,29.1760204 C217.312521,29.1760204 218.168256,29.2332635 219.017366,29.3473701 C236.632331,31.7145344 249.095895,40.9772618 255.614501,55.6290833 C258.03133,61.0613698 259.527589,66.9085569 260.492024,73.6379782 L260.631064,74.6333481 C260.653337,74.797254 260.675179,74.9603443 260.696619,75.1228873 L260.789827,75.8463885 L260.905134,76.7951378 L261.039587,77.9947054 L261.140973,78.9799841 L261.238262,80.0011244 L261.309312,80.7977794 L261.425688,82.199301 L261.541689,83.713471 L261.708238,86.0674723 L262.081091,91.7544586 L262.189928,93.3063108 L262.32827,95.1334942 L262.412831,96.171782 L262.527782,97.4908624 L262.645657,98.7378134 L262.736249,99.6273344 L262.828921,100.478971 L262.923862,101.293874 L262.988507,101.817305 L263.054299,102.325263 L263.121293,102.81809 L263.189543,103.296128 L263.294397,103.9862 L263.402391,104.644916 L263.513712,105.273426 L263.589866,105.676221 L263.667637,106.066446 L263.787447,106.628958 L263.869503,106.989248 L263.95337,107.338161 L264.082687,107.840948 L264.171323,108.162913 L264.308053,108.626878 L264.401805,108.924029 L264.497699,109.211852 L264.595792,109.490687 L264.696139,109.760877 L264.798796,110.022763 L264.903816,110.276685 L265.011257,110.522985 L265.121173,110.762005 L265.23362,110.994086 L265.348653,111.219569 L265.466327,111.438795 C265.486163,111.474831 265.50611,111.510619 265.526172,111.546169 C266.099869,112.562777 266.64685,113.098835 267.627883,113.595694 C269.089343,114.335873 271.298878,114.894281 274.403959,115.122644 L275.016164,115.162682 C275.743543,115.204492 276.517069,115.228985 277.338441,115.234456 L277.693392,115.23563 L287,115.23563 L287,154 L277.693392,154 C256.283388,154 240.630933,146.072575 231.929906,130.654103 C228.644682,124.832591 226.607869,118.436509 225.327407,111.082988 L225.17245,110.1667 L225.036911,109.324504 L224.868342,108.21467 L224.750186,107.385354 L224.638398,106.552868 L224.53233,105.711994 L224.431332,104.857519 L224.334755,103.984227 L224.241952,103.086903 L224.152272,102.160331 L224.036437,100.870393 L223.895487,99.1529808 L223.783928,97.679994 L223.643458,95.6946577 L223.469429,93.069033 L223.326779,90.858866 L223.196218,88.946951 L223.091758,87.5105107 L222.960321,85.8259815 L222.853854,84.5632056 L222.745656,83.3723213 L222.60719,81.9798516 L222.493213,80.9388149 L222.375828,79.9590846 L222.315697,79.4911915 L222.25452,79.0374037 L222.160654,78.3822786 L222.064074,77.7566001 L221.96456,77.1589943 L221.861897,76.5880871 L221.755866,76.0425044 L221.683199,75.6921732 L221.571071,75.1857446 L221.494139,74.860244 L221.415387,74.543963 L221.293708,74.085938 L221.210126,73.7909252 L221.124498,73.5037072 L220.992082,73.0866048 L220.90106,72.8170926 L220.807767,72.5539503 L220.712139,72.2967707 L220.614111,72.0451468 L220.462428,71.677237 L220.358118,71.4377209 L220.29564,71.2992218 L220.170075,71.0333876 L220.04258,70.7819801 C219.226156,69.2342551 218.212645,68.5214212 215.464497,68.0143409 L215.184369,67.9649234 L215.049593,67.9702966 C212.856404,68.0681026 211.40433,68.396308 210.518818,68.813755 L210.415265,68.8642679 C210.055976,69.0456768 209.844065,69.2321293 209.527936,69.7110208 L209.391513,69.9250753 L209.228792,70.198375 L209.122274,70.3886612 L209.01721,70.5859008 L208.9135,70.7905088 L208.811045,71.0029003 L208.709745,71.2234904 L208.609501,71.452694 L208.460896,71.8135578 L208.362856,72.0661113 L208.265524,72.328731 L208.120634,72.7424427 L208.024635,73.032044 L207.881279,73.4881735 L207.785992,73.8073504 L207.690815,74.1390838 L207.54804,74.6611354 L207.452705,75.0260761 L207.357132,75.4050261 L207.213109,76.0006263 L207.019319,76.8476662 L206.872221,77.5244416 L206.673112,78.4847994 L206.469868,79.514476 L206.314244,80.3342212 L206.101851,81.4931952 L205.827375,83.0526219 L205.599637,84.3927774 L205.423552,85.4540979 L204.774308,89.4349268 L204.463745,91.2814831 L204.228042,92.6382841 L204.000113,93.9041831 L203.832292,94.802926 L203.610064,95.945639 L203.442747,96.769123 L203.330125,97.3056317 L203.100448,98.3570863 L202.922696,99.1341514 L202.738694,99.9083292 L202.547058,100.685913 L202.414375,101.209301 L202.277272,101.738864 C200.604938,108.134077 198.372968,113.676018 195.113642,118.700667 C186.662831,131.72862 172.881477,138.536682 154.793433,138.536682 C135.522849,138.536682 121.573321,128.882797 114.331154,112.376115 C111.772245,106.543731 110.098233,100.107057 108.895673,92.5074492 C108.755187,91.6196459 108.625532,90.7586214 108.503093,89.8955314 L108.396198,89.1280287 L108.229565,87.870346 L108.100757,86.8408371 L107.974621,85.779972 L107.818842,84.3949053 L107.63152,82.6211132 L107.439873,80.694297 L107.239766,78.5814674 L106.876222,74.5571214 L106.47742,70.0569465 L106.308258,68.2408346 L106.1384,66.5028421 L106.010237,65.2491856 L105.837907,63.6421902 L105.663446,62.1067862 L105.530889,61.000787 L105.39662,59.9327214 L105.306047,59.2412572 L105.168435,58.2341886 L105.028524,57.2623829 L104.886094,56.3248387 L104.740924,55.4205546 L104.642514,54.8356818 L104.542723,54.2648493 L104.390306,53.4342774 L104.286778,52.8972479 L104.128449,52.1159895 L103.966281,51.3629838 L103.800052,50.6372294 L103.686868,50.1680383 L103.571717,49.7102171 L103.454533,49.263469 L103.335251,48.8274974 L103.213805,48.4020055 L103.027438,47.782768 C103.006444,47.7151997 102.985353,47.648037 102.964164,47.581274 L102.835837,47.1854409 L102.705086,46.7989006 L102.571846,46.4213564 L102.43605,46.0525115 L102.297635,45.6920693 L102.156535,45.339733 L102.012685,44.9952059 C101.988477,44.938419 101.964152,44.8819451 101.939708,44.8257781 L101.79161,44.4924084 L101.640598,44.1661061 L101.486608,43.8465744 L101.408475,43.6892548 C101.319208,43.5112998 101.229785,43.339111 101.139747,43.1725435 L100.958714,42.8468604 C99.592778,40.4598054 98.0196365,39.315787 94.6912798,38.9256068 L94.2369617,38.8780071 L93.7610257,38.839084 C93.4363478,38.8159702 93.0967143,38.7984691 92.741038,38.7862371 L92.5076104,38.7792294 L92.3644612,38.8010999 C88.9541927,39.3467647 87.2757605,40.478181 85.8705396,43.1832382 L85.6886794,43.5450772 C85.5984041,43.73054 85.5090212,43.9228787 85.4201259,44.1223672 L85.2428658,44.5309588 L85.066187,44.9591038 L84.9101564,45.353673 L84.7771453,45.7023778 L84.647218,46.05501 L84.5203029,46.4119928 L84.335421,46.9565495 L84.2157226,47.3262593 L84.0987854,47.7018001 L83.9845379,48.083595 L83.8729083,48.472067 L83.7102158,49.0682199 L83.5530105,49.6817759 L83.4010506,50.3141624 L83.3025387,50.74692 L83.2061788,51.1891042 L83.1118994,51.6411383 L83.0196289,52.103445 L82.8848327,52.817092 L82.7541531,53.5562321 L82.6692009,54.0638601 L82.5858993,54.583876 L82.5041763,55.1167027 L82.3843954,55.9408885 L82.2677637,56.7962783 L82.1540391,57.6842997 L82.0065108,58.9215561 L81.8986293,59.8912701 L81.7928488,60.8983746 L81.6546583,62.3018114 L81.5191996,63.7776426 L81.4190535,64.9340605 L81.2869959,66.544725 L81.1887421,67.8061544 L81.0908962,69.1149682 L80.9280692,71.4055009 L80.7317089,74.342424 L80.4176933,79.2166503 L80.2385062,81.8507098 L80.0956607,83.8321297 L79.9879206,85.2515109 L79.8423593,87.063316 L79.6933604,88.7922695 L79.5395525,90.4486054 L79.4604166,91.2527396 L79.2968238,92.8193369 L79.1687984,93.9628595 L79.0805881,94.7126419 L78.9435543,95.8216646 L78.8003441,96.9157438 L78.7011535,97.63896 L78.5463635,98.7177275 L78.4389173,99.4347334 L78.2709404,100.510182 L78.1541673,101.228972 C76.6287384,110.477808 74.2899066,118.410176 70.621705,125.500035 C61.1419842,143.822335 43.9211819,153.799297 20.0325455,153.997004 L19.3066076,154 L5.68434189e-13,154 L5.68434189e-13,115.23563 L19.3066076,115.23563 C25.1112802,115.23563 29.0784817,114.312637 31.7024198,112.812102 C33.6120389,111.720061 35.0537435,110.14729 36.3551739,107.6319 L36.4465186,107.453613 L36.6262491,107.092265 L36.8020907,106.724288 C36.8310773,106.662389 36.8599047,106.6002 36.8885742,106.537715 L37.058709,106.159202 L37.2251236,105.773269 C37.2525531,105.708311 37.2798305,105.643031 37.306957,105.577421 L37.467918,105.179765 C37.4944471,105.112813 37.5208281,105.045519 37.5470626,104.977877 L37.702722,104.567785 C37.7283758,104.498721 37.7538859,104.429295 37.7792537,104.359501 L37.9297633,103.936261 L38.0769242,103.50386 C38.1011757,103.431012 38.1252905,103.357769 38.14927,103.284125 L38.2915343,102.837388 L38.4306187,102.3807 L38.5665907,101.913742 L38.6995178,101.436199 L38.8294675,100.947754 L38.9565073,100.448091 L39.0807048,99.9368924 L39.2021275,99.4138423 L39.3208429,98.878624 C39.340407,98.7883893 39.359861,98.6976345 39.3792065,98.6063528 L39.4939876,98.0522888 L39.6062302,97.4852652 L39.7160018,96.9049655 L39.82337,96.3110732 L39.9284023,95.7032718 L40.0311662,95.0812446 L40.1317292,94.4446752 L40.2301589,93.7932471 L40.3265227,93.1266435 L40.4673428,92.0975921 L40.5588375,91.3916653 L40.6926703,90.3021452 L40.8226147,89.1749194 L40.9488985,88.0089197 L41.0311665,87.2095178 L41.1913959,85.5563249 L41.3080652,84.2675932 L41.4219856,82.9358142 L41.569997,81.0912998 L41.6424907,80.1388408 L41.7847919,78.1719364 L41.9239616,76.1202733 L42.3308811,69.8073504 L42.5419274,66.6839277 L42.7170798,64.2500109 L42.8884285,62.0442099 L43.011175,60.5813213 L43.110941,59.464989 L43.2130807,58.3867925 L43.3727182,56.8211232 L43.4847467,55.7985077 L43.6023127,54.7822211 L43.6657516,54.2547457 L43.7310484,53.7252616 C43.7862714,53.2828361 43.843561,52.8369984 43.9032453,52.3844495 C44.9814098,44.2093966 46.5758615,37.2490049 49.0772154,30.9079228 C55.9626826,13.4528508 69.4921092,2.35165178 89.2192833,0.121711121 C89.9365308,0.0406341648 90.6577428,9.09494702e-13 91.3795227,9.09494702e-13 Z" id="Path" fill="url(#linearGradient-2)" style="mix-blend-mode: normal;" transform="translate(143.500000, 77.000000) rotate(-180.000000) translate(-143.500000, -77.000000) "></path>
            <path d="M81.3795227,154 C102.180483,154 117.462959,163.443468 125.895531,180.253963 C129.022181,186.486999 131.098231,193.418785 132.559459,201.48114 L132.685033,202.183935 L132.806745,202.885433 L132.982576,203.938506 L133.09564,204.643276 L133.259578,205.708239 L133.417418,206.787037 L133.519641,207.516405 L133.669044,208.629433 L133.814423,209.7697 L133.956555,210.942232 L134.096217,212.152057 L134.234186,213.404199 L134.371241,214.703686 L134.50816,216.055544 L134.691848,217.948174 L134.925868,220.475604 L135.462848,226.510882 L135.699165,229.04209 L135.892748,231.014456 L136.0079,232.140575 L136.122577,233.225173 L136.275126,234.608772 L136.389561,235.601117 L136.504265,236.555909 L136.658007,237.772607 L136.813152,238.927482 L136.970229,240.023355 L137.129767,241.063048 L137.251354,241.807648 L137.374846,242.523424 L137.500466,243.211567 L137.628438,243.873268 L137.758985,244.509716 L137.892329,245.122102 L138.028695,245.711616 L138.168304,246.279449 L138.311381,246.826792 L138.458149,247.354834 L138.558154,247.696727 L138.711569,248.195247 L138.869269,248.67764 L139.031479,249.145098 L139.142233,249.449027 L139.312453,249.894238 L139.487777,250.327687 L139.668429,250.750565 L139.922676,251.318755 L140.042275,251.57418 L140.215596,251.923355 L140.328817,252.134471 L140.441557,252.329031 C140.987213,253.230471 141.557481,253.57516 142.753535,253.702177 L143.010121,253.725462 C143.054439,253.728862 143.099551,253.732031 143.14548,253.734983 L143.431072,253.750201 L143.73748,253.760876 L144.23871,253.769829 L144.793433,253.772312 C148.147371,253.772312 150.277638,253.336008 151.503634,252.730359 C151.994459,252.487889 152.291753,252.231886 152.662202,251.688876 L152.81539,251.455037 L152.931815,251.266233 L153.046502,251.070536 L153.159552,250.867527 L153.271067,250.656784 L153.38115,250.437885 L153.489903,250.210409 L153.597428,249.973934 L153.703828,249.728041 L153.809204,249.472307 L153.91366,249.206311 L154.06884,248.787154 L154.171441,248.49366 L154.273478,248.188429 L154.425702,247.707657 L154.526779,247.371242 L154.627651,247.021617 L154.778797,246.471488 L154.930058,245.889265 L155.031131,245.482584 L155.183348,244.843712 L155.285378,244.397948 L155.491227,243.456889 L155.64758,242.706095 L155.806002,241.915151 L155.966839,241.082634 L156.18564,239.905487 L156.410164,238.648535 L156.64123,237.308409 L156.940508,235.511153 L157.450689,232.372209 L157.805157,230.242068 L158.13221,228.346985 L158.339927,227.19114 L158.492396,226.370885 L158.693625,225.328297 L158.844612,224.577106 L158.997038,223.845792 L159.152146,223.128522 L159.36528,222.183925 L159.588342,221.240099 L159.763928,220.524416 L159.948001,219.795556 C161.565268,213.476717 163.711973,208.014618 166.85681,203.046351 C175.098793,190.025526 188.664576,183.17602 206.455837,183.17602 C207.312521,183.17602 208.168256,183.233263 209.017366,183.34737 C226.632331,185.714534 239.095895,194.977262 245.614501,209.629083 C248.03133,215.06137 249.527589,220.908557 250.492024,227.637978 L250.631064,228.633348 C250.653337,228.797254 250.675179,228.960344 250.696619,229.122887 L250.789827,229.846389 L250.905134,230.795138 L251.039587,231.994705 L251.140973,232.979984 L251.238262,234.001124 L251.309312,234.797779 L251.425688,236.199301 L251.541689,237.713471 L251.708238,240.067472 L252.081091,245.754459 L252.189928,247.306311 L252.32827,249.133494 L252.412831,250.171782 L252.527782,251.490862 L252.645657,252.737813 L252.736249,253.627334 L252.828921,254.478971 L252.923862,255.293874 L252.988507,255.817305 L253.054299,256.325263 L253.121293,256.81809 L253.189543,257.296128 L253.294397,257.9862 L253.402391,258.644916 L253.513712,259.273426 L253.589866,259.676221 L253.667637,260.066446 L253.787447,260.628958 L253.869503,260.989248 L253.95337,261.338161 L254.082687,261.840948 L254.171323,262.162913 L254.308053,262.626878 L254.401805,262.924029 L254.497699,263.211852 L254.595792,263.490687 L254.696139,263.760877 L254.798796,264.022763 L254.903816,264.276685 L255.011257,264.522985 L255.121173,264.762005 L255.23362,264.994086 L255.348653,265.219569 L255.466327,265.438795 C255.486163,265.474831 255.50611,265.510619 255.526172,265.546169 C256.099869,266.562777 256.64685,267.098835 257.627883,267.595694 C259.089343,268.335873 261.298878,268.894281 264.403959,269.122644 L265.016164,269.162682 C265.743543,269.204492 266.517069,269.228985 267.338441,269.234456 L267.693392,269.23563 L287,269.23563 L287,308 L267.693392,308 C246.283388,308 230.630933,300.072575 221.929906,284.654103 C218.644682,278.832591 216.607869,272.436509 215.327407,265.082988 L215.17245,264.1667 L215.036911,263.324504 L214.868342,262.21467 L214.750186,261.385354 L214.638398,260.552868 L214.53233,259.711994 L214.431332,258.857519 L214.334755,257.984227 L214.241952,257.086903 L214.152272,256.160331 L214.036437,254.870393 L213.895487,253.152981 L213.783928,251.679994 L213.643458,249.694658 L213.469429,247.069033 L213.326779,244.858866 L213.196218,242.946951 L213.091758,241.510511 L212.960321,239.825981 L212.853854,238.563206 L212.745656,237.372321 L212.60719,235.979852 L212.493213,234.938815 L212.375828,233.959085 L212.315697,233.491192 L212.25452,233.037404 L212.160654,232.382279 L212.064074,231.7566 L211.96456,231.158994 L211.861897,230.588087 L211.755866,230.042504 L211.683199,229.692173 L211.571071,229.185745 L211.494139,228.860244 L211.415387,228.543963 L211.293708,228.085938 L211.210126,227.790925 L211.124498,227.503707 L210.992082,227.086605 L210.90106,226.817093 L210.807767,226.55395 L210.712139,226.296771 L210.614111,226.045147 L210.462428,225.677237 L210.358118,225.437721 L210.29564,225.299222 L210.170075,225.033388 L210.04258,224.78198 C209.226156,223.234255 208.212645,222.521421 205.464497,222.014341 L205.184369,221.964277 L205.049593,221.970297 C202.856404,222.068103 201.40433,222.396308 200.518818,222.813755 L200.415265,222.864268 C200.055976,223.045677 199.844065,223.232129 199.527936,223.711021 L199.391513,223.925075 L199.228792,224.198375 L199.122274,224.388661 L199.01721,224.585901 L198.9135,224.790509 L198.811045,225.0029 L198.709745,225.22349 L198.609501,225.452694 L198.460896,225.813558 L198.362856,226.066111 L198.265524,226.328731 L198.120634,226.742443 L198.024635,227.032044 L197.881279,227.488174 L197.785992,227.80735 L197.690815,228.139084 L197.54804,228.661135 L197.452705,229.026076 L197.357132,229.405026 L197.213109,230.000626 L197.019319,230.847666 L196.872221,231.524442 L196.673112,232.484799 L196.469868,233.514476 L196.314244,234.334221 L196.101851,235.493195 L195.827375,237.052622 L195.599637,238.392777 L195.423552,239.454098 L194.774308,243.434927 L194.463745,245.281483 L194.228042,246.638284 L194.000113,247.904183 L193.832292,248.802926 L193.610064,249.945639 L193.442747,250.769123 L193.330125,251.305632 L193.100448,252.357086 L192.922696,253.134151 L192.738694,253.908329 L192.547058,254.685913 L192.414375,255.209301 L192.277272,255.738864 C190.604938,262.134077 188.372968,267.676018 185.113642,272.700667 C176.662831,285.72862 162.881477,292.536682 144.793433,292.536682 C125.522849,292.536682 111.573321,282.882797 104.331154,266.376115 C101.772245,260.543731 100.098233,254.107057 98.8956731,246.507449 C98.7551874,245.619646 98.6255323,244.758621 98.5030926,243.895531 L98.3961979,243.128029 L98.2295651,241.870346 L98.1007574,240.840837 L97.9746213,239.779972 L97.8188416,238.394905 L97.6315203,236.621113 L97.4398732,234.694297 L97.2397657,232.581467 L96.8762223,228.557121 L96.47742,224.056947 L96.3082578,222.240835 L96.1384003,220.502842 L96.010237,219.249186 L95.8379069,217.64219 L95.6634465,216.106786 L95.5308891,215.000787 L95.3966198,213.932721 L95.306047,213.241257 L95.1684351,212.234189 L95.0285241,211.262383 L94.8860939,210.324839 L94.7409243,209.420555 L94.642514,208.835682 L94.5427231,208.264849 L94.3903055,207.434277 L94.2867779,206.897248 L94.1284493,206.115989 L93.9662808,205.362984 L93.8000519,204.637229 L93.6868683,204.168038 L93.5717171,203.710217 L93.454533,203.263469 L93.3352508,202.827497 L93.2138054,202.402006 L93.0274383,201.782768 C93.0064441,201.7152 92.985353,201.648037 92.9641636,201.581274 L92.8358369,201.185441 L92.7050859,200.798901 L92.5718455,200.421356 L92.4360504,200.052512 L92.2976355,199.692069 L92.1565354,199.339733 L92.0126849,198.995206 C91.988477,198.938419 91.9641518,198.881945 91.9397079,198.825778 L91.7916096,198.492408 L91.6405979,198.166106 L91.4866075,197.846574 L91.4084749,197.689255 C91.3192082,197.5113 91.229785,197.339111 91.1397466,197.172543 L90.9587138,196.84686 C89.592778,194.459805 88.0196365,193.315787 84.6912798,192.925607 L84.2369617,192.878007 L83.7610257,192.839084 C83.4363478,192.81597 83.0967143,192.798469 82.741038,192.786237 L82.5076104,192.778583 L82.3644612,192.8011 C78.9541927,193.346765 77.2757605,194.478181 75.8705396,197.183238 L75.6886794,197.545077 C75.5984041,197.73054 75.5090212,197.922879 75.4201259,198.122367 L75.2428658,198.530959 L75.066187,198.959104 L74.9101564,199.353673 L74.7771453,199.702378 L74.647218,200.05501 L74.5203029,200.411993 L74.335421,200.95655 L74.2157226,201.326259 L74.0987854,201.7018 L73.9845379,202.083595 L73.8729083,202.472067 L73.7102158,203.06822 L73.5530105,203.681776 L73.4010506,204.314162 L73.3025387,204.74692 L73.2061788,205.189104 L73.1118994,205.641138 L73.0196289,206.103445 L72.8848327,206.817092 L72.7541531,207.556232 L72.6692009,208.06386 L72.5858993,208.583876 L72.5041763,209.116703 L72.3843954,209.940889 L72.2677637,210.796278 L72.1540391,211.6843 L72.0065108,212.921556 L71.8986293,213.89127 L71.7928488,214.898375 L71.6546583,216.301811 L71.5191996,217.777643 L71.4190535,218.934061 L71.2869959,220.544725 L71.1887421,221.806154 L71.0908962,223.114968 L70.9280692,225.405501 L70.7317089,228.342424 L70.4176933,233.21665 L70.2385062,235.85071 L70.0956607,237.83213 L69.9879206,239.251511 L69.8423593,241.063316 L69.6933604,242.79227 L69.5395525,244.448605 L69.4604166,245.25274 L69.2968238,246.819337 L69.1687984,247.96286 L69.0805881,248.712642 L68.9435543,249.821665 L68.8003441,250.915744 L68.7011535,251.63896 L68.5463635,252.717727 L68.4389173,253.434733 L68.2709404,254.510182 L68.1541673,255.228972 C66.6287384,264.477808 64.2899066,272.410176 60.621705,279.500035 C51.1419842,297.822335 33.9211819,307.799297 10.0325455,307.997004 L9.30660761,308 L-1.13686838e-13,308 L-1.13686838e-13,269.23563 L9.30660761,269.23563 C15.1112802,269.23563 19.0784817,268.312637 21.7024198,266.812102 C23.6120389,265.720061 25.0537435,264.14729 26.3551739,261.6319 L26.4465186,261.453613 L26.6262491,261.092265 L26.8020907,260.724288 C26.8310773,260.662389 26.8599047,260.6002 26.8885742,260.537715 L27.058709,260.159202 L27.2251236,259.773269 C27.2525531,259.708311 27.2798305,259.643031 27.306957,259.577421 L27.467918,259.179765 C27.4944471,259.112813 27.5208281,259.045519 27.5470626,258.977877 L27.702722,258.567785 C27.7283758,258.498721 27.7538859,258.429295 27.7792537,258.359501 L27.9297633,257.936261 L28.0769242,257.50386 C28.1011757,257.431012 28.1252905,257.357769 28.14927,257.284125 L28.2915343,256.837388 L28.4306187,256.3807 L28.5665907,255.913742 L28.6995178,255.436199 L28.8294675,254.947754 L28.9565073,254.448091 L29.0807048,253.936892 L29.2021275,253.413842 L29.3208429,252.878624 C29.340407,252.788389 29.359861,252.697634 29.3792065,252.606353 L29.4939876,252.052289 L29.6062302,251.485265 L29.7160018,250.904966 L29.82337,250.311073 L29.9284023,249.703272 L30.0311662,249.081245 L30.1317292,248.444675 L30.2301589,247.793247 L30.3265227,247.126644 L30.4673428,246.097592 L30.5588375,245.391665 L30.6926703,244.302145 L30.8226147,243.174919 L30.9488985,242.00892 L31.0311665,241.209518 L31.1913959,239.556325 L31.3080652,238.267593 L31.4219856,236.935814 L31.569997,235.0913 L31.6424907,234.138841 L31.7847919,232.171936 L31.9239616,230.120273 L32.3308811,223.80735 L32.5419274,220.683928 L32.7170798,218.250011 L32.8884285,216.04421 L33.011175,214.581321 L33.110941,213.464989 L33.2130807,212.386793 L33.3727182,210.821123 L33.4847467,209.798508 L33.6023127,208.782221 L33.6657516,208.254746 L33.7310484,207.725262 C33.7862714,207.282836 33.843561,206.836998 33.9032453,206.384449 C34.9814098,198.209397 36.5758615,191.249005 39.0772154,184.907923 C45.9626826,167.452851 59.4921092,156.351652 79.2192833,154.121711 C79.9365308,154.040634 80.6577428,154 81.3795227,154 Z" id="Path" fill="url(#linearGradient-2)" style="mix-blend-mode: normal;" transform="translate(143.500000, 231.000000) scale(-1, -1) rotate(-180.000000) translate(-143.500000, -231.000000) "></path>
        </g>
    </g>
</svg>