<?xml version="1.0" encoding="UTF-8"?>
<svg width="1080px" height="1620px" viewBox="0 0 1080 1620" version="1.1" xmlns="http://www.w3.org/2000/svg" xmlns:xlink="http://www.w3.org/1999/xlink">
    <title>waveform-type</title>
    <defs>
        <linearGradient x1="50%" y1="100%" x2="52.0686397%" y2="0%" id="linearGradient-1">
            <stop stop-color="#7C39FF" offset="0%"></stop>
            <stop stop-color="#04B9FF" offset="49.7267007%"></stop>
            <stop stop-color="#00EBBF" offset="100%"></stop>
        </linearGradient>
        <linearGradient x1="50%" y1="100%" x2="52.0775044%" y2="0%" id="linearGradient-2">
            <stop stop-color="#7C39FF" offset="0%"></stop>
            <stop stop-color="#04B9FF" offset="49.7267007%"></stop>
            <stop stop-color="#00EBBF" offset="100%"></stop>
        </linearGradient>
    </defs>
    <g id="waveform-type" stroke="none" stroke-width="1" fill="none" fill-rule="evenodd">
        <rect fill="#1D1D21" x="0" y="0" width="1080" height="1620"></rect>
        <path d="M513.459172,218.296465 C523.124265,218.296465 530.225213,222.711592 534.143378,230.571044 C535.596165,233.485191 536.560794,236.726026 537.239748,240.495439 L537.298096,240.824019 L537.354649,241.151992 L537.436348,241.644337 L537.488883,241.97384 L537.565057,242.471745 L537.638396,242.976118 L537.685894,243.317122 L537.755314,243.837498 L537.822863,244.37061 L537.888904,244.918807 L537.953798,245.484439 L538.017905,246.069856 L538.081587,246.677409 L538.145205,247.309446 L538.230556,248.194312 L538.339292,249.375968 L538.588798,252.197656 L538.698602,253.381078 L538.78855,254.303223 L538.842055,254.82972 L538.895339,255.336805 L538.96622,255.983683 L539.019392,256.447636 L539.072689,256.894033 L539.144125,257.462878 L539.216212,258.00282 L539.289197,258.515176 L539.363326,259.001266 L539.419821,259.349391 L539.477201,259.68404 L539.53557,260.005769 L539.595032,260.315135 L539.65569,260.612695 L539.717648,260.899006 L539.78101,261.174623 L539.845879,261.440103 L539.912359,261.696003 L539.980554,261.94288 L540.027021,262.102726 L540.098305,262.335801 L540.17158,262.561335 L540.24695,262.779887 L540.298411,262.921984 L540.377503,263.130134 L540.458967,263.332786 L540.542906,263.530495 L540.661041,263.796142 L540.716613,263.915561 L540.797146,264.078812 L540.849753,264.177516 L540.902138,264.268479 C541.155675,264.689932 541.420648,264.851085 541.97639,264.910469 L542.095612,264.921356 C542.116204,264.922945 542.137165,264.924427 542.158506,264.925807 L542.291205,264.932922 L542.433577,264.937913 L542.666472,264.942099 L542.924221,264.94326 C544.482617,264.94326 545.472438,264.739273 546.042093,264.456113 C546.270153,264.34275 546.408289,264.223061 546.580417,263.969186 L546.651595,263.859858 L546.705692,263.771586 L546.758981,263.680092 L546.811509,263.585179 L546.863324,263.486649 L546.914474,263.384307 L546.965005,263.277954 L547.014967,263.167395 L547.064405,263.052432 L547.113368,262.932868 L547.161903,262.808506 L547.234006,262.612536 L547.281679,262.475318 L547.329091,262.332613 L547.399821,262.107837 L547.446786,261.950552 L547.493656,261.787091 L547.563886,261.529888 L547.634168,261.257679 L547.681132,261.067543 L547.751858,260.768849 L547.799267,260.56044 L547.894913,260.120465 L547.967562,259.769444 L548.041173,259.399652 L548.115905,259.010424 L548.21757,258.460069 L548.321894,257.872403 L548.429258,257.245851 L548.568317,256.405575 L548.805371,254.938017 L548.970073,253.942107 L549.122037,253.056094 L549.218552,252.515699 L549.289396,252.132203 L549.382896,251.644759 L549.453052,251.293553 L549.523876,250.95164 L549.595947,250.616293 L549.694979,250.174663 L549.798624,249.733394 L549.880209,249.398789 L549.965738,249.058023 C550.717195,246.103761 551.714654,243.550052 553.175891,241.227226 C557.0055,235.139567 563.308793,231.937201 571.575439,231.937201 C571.973495,231.937201 572.371109,231.963964 572.765645,232.017313 C580.950376,233.124039 586.741527,237.454665 589.770374,244.304867 C590.893345,246.844637 591.588577,249.578387 592.036698,252.72461 L592.101303,253.189978 C592.111652,253.266609 592.1218,253.342859 592.131762,253.418853 L592.175071,253.757114 L592.228648,254.200685 L592.291121,254.761522 L592.33823,255.222171 L592.383435,255.699588 L592.416448,256.07205 L592.470522,256.727307 L592.524421,257.43523 L592.601808,258.535802 L592.775052,261.194653 L592.825623,261.920194 L592.889903,262.774462 L592.929194,263.259895 L592.982606,263.876608 L593.037376,264.459598 L593.079469,264.875478 L593.122529,265.273646 L593.166643,265.654639 L593.19668,265.89936 L593.22725,266.136847 L593.258378,266.36726 L593.290091,266.590758 L593.338811,266.913389 L593.38899,267.22136 L593.440714,267.515209 L593.476099,267.703529 L593.512235,267.885972 L593.567905,268.148964 L593.606032,268.317412 L593.645,268.48054 L593.705087,268.715609 L593.746271,268.866138 L593.809802,269.083057 L593.853364,269.221985 L593.897921,269.356551 L593.9435,269.486916 L593.990125,269.613238 L594.037824,269.735678 L594.086622,269.854395 L594.136544,269.969549 L594.187616,270.081298 L594.239864,270.189803 L594.293313,270.295224 L594.34799,270.39772 L594.375797,270.44792 L594.375797,270.44792 C594.642363,270.923217 594.896516,271.173842 595.35235,271.40614 C596.031412,271.752197 597.058064,272.013271 598.500829,272.120038 L598.785288,272.138757 C599.123262,272.158305 599.482679,272.169756 599.864326,272.172314 L609,272.172863 L609,290.296465 L600.029253,290.296465 C590.08117,290.296465 582.808312,286.590136 578.765411,279.3815 C577.238943,276.659754 576.292545,273.669378 575.697583,270.231368 L575.625583,269.802974 L575.562605,269.409219 L575.48428,268.890336 L575.429379,268.502604 L575.377438,268.11339 L575.328153,267.720254 L575.281225,267.320759 L575.236351,266.912467 L575.19323,266.492939 L575.151561,266.059736 L575.097738,265.456648 L575.032247,264.653702 L574.980411,263.965033 L574.915142,263.036824 L574.83428,261.809259 L574.767999,260.775934 L574.707334,259.882052 L574.658797,259.21047 L574.597725,258.422897 L574.548255,257.832509 L574.497982,257.275732 L574.433644,256.624707 L574.380685,256.137988 L574.326142,255.679933 L574.298203,255.461177 L574.269777,255.249017 L574.226163,254.942725 L574.181287,254.6502 L574.135048,254.3708 L574.087346,254.103882 L574.038079,253.848804 L574.004315,253.685013 L573.952215,253.448241 L573.916469,253.296059 L573.879877,253.148188 L573.823339,252.934046 L573.784503,252.796118 L573.744716,252.661834 L573.68319,252.466825 L573.640897,252.34082 L573.597548,252.217792 L573.553115,252.097552 L573.507567,251.97991 L573.437088,251.8079 L573.388621,251.695918 L573.35959,251.631166 L573.301247,251.50688 L573.242007,251.389338 C572.862658,250.665727 572.391734,250.332454 571.114817,250.095377 L570.984656,250.071971 L570.922033,250.074785 C569.902976,250.120513 569.228275,250.273959 568.816824,250.469129 L568.768709,250.492746 C568.601766,250.57756 568.503303,250.664733 568.356415,250.88863 L568.293026,250.988708 L568.217419,251.116484 L568.167926,251.205449 L568.119108,251.297665 L568.070919,251.393326 L568.023314,251.492626 L567.976245,251.595759 L567.929667,251.702919 L567.860618,251.871634 L567.815064,251.989711 L567.769839,252.112495 L567.702517,252.305918 L567.657911,252.441316 L567.591301,252.654572 L567.547026,252.803797 L567.502803,252.958893 L567.436463,253.202969 L567.392166,253.373591 L567.347758,253.550762 L567.280839,253.829225 L567.190795,254.225244 L567.122446,254.541658 L567.029931,254.990656 L566.935494,255.472064 L566.863184,255.855321 L566.764497,256.397179 L566.636962,257.126262 L566.531144,257.752828 L566.449327,258.24903 L566.147658,260.110197 L566.003356,260.973522 L565.893838,261.60787 L565.787931,262.199719 L565.709954,262.61991 L565.606696,263.154166 L565.528953,263.539171 L565.476624,263.790007 L565.369905,264.281596 L565.287313,264.644899 L565.201818,265.006852 L565.112774,265.370398 L565.051124,265.615099 L564.987419,265.862687 C564.210375,268.852657 563.173298,271.443694 561.658864,273.79288 C557.732225,279.883872 551.328767,283.066861 542.924221,283.066861 C533.970213,283.066861 527.488614,278.553357 524.123567,270.835947 C522.934579,268.109118 522.156755,265.099764 521.59799,261.546701 C521.532713,261.131624 521.47247,260.729067 521.415578,260.325544 L521.36591,259.966712 L521.288485,259.378704 L521.228635,258.897375 L521.170026,258.401387 L521.097644,257.753823 L521.010605,256.924517 L520.921557,256.023668 L520.828578,255.035852 L520.659659,253.15434 L520.474357,251.050362 L520.395756,250.20127 L520.316832,249.388702 L520.257282,248.802577 L520.177209,248.051255 L520.096147,247.333404 L520.034555,246.816313 L519.972167,246.316958 L519.930082,245.993676 L519.866142,245.522838 L519.801132,245.068488 L519.734953,244.630155 L519.6675,244.207373 L519.621774,243.933926 L519.575407,243.667043 L519.504586,243.278724 L519.456483,243.027645 L519.382916,242.662382 L519.307565,242.310327 L519.230327,241.971013 L519.177737,241.751651 L519.124232,241.537605 L519.069783,241.328736 L519.014359,241.124905 L518.95793,240.925974 L518.871335,240.63646 L518.841935,240.542255 L518.841935,240.542255 L518.782308,240.35719 L518.721555,240.17647 L518.659645,239.999956 L518.596549,239.827509 L518.532235,239.65899 L518.466673,239.494262 L518.399833,239.333184 L518.365925,239.253971 L518.365925,239.253971 L518.297112,239.09811 L518.226944,238.945553 L518.155393,238.796162 L518.119089,238.72261 C518.077612,238.63941 518.036062,238.558906 517.994226,238.48103 L517.910109,238.328763 C517.275432,237.212737 516.544478,236.677871 514.997968,236.49545 L514.786871,236.473195 L514.565729,236.454997 C514.414869,236.444191 514.257059,236.436009 514.091795,236.43029 L513.983334,236.426711 L513.91682,236.437239 C512.332251,236.692355 511.552374,237.221328 510.899443,238.48603 L510.814942,238.655202 C510.772996,238.741912 510.731464,238.831836 510.69016,238.925104 L510.607796,239.116134 L510.525703,239.316305 L510.453204,239.500779 L510.391401,239.66381 L510.331031,239.828677 L510.27206,239.995578 L510.186155,240.250176 L510.130538,240.423027 L510.076203,240.598605 L510.023119,240.777106 L509.97125,240.95873 L509.895656,241.237451 L509.822611,241.524308 L509.752003,241.819969 L509.70623,242.022297 L509.661457,242.229033 L509.61765,242.440373 L509.574777,242.656517 L509.512144,242.99017 L509.451425,243.335742 L509.411952,243.573074 L509.373246,243.816199 L509.335274,244.065313 L509.279618,244.450646 L509.225426,244.850569 L509.172584,245.265748 L509.104035,245.844205 L509.053909,246.297578 L509.004758,246.768432 L508.940548,247.424584 L508.877608,248.114583 L508.831075,248.655246 L508.769715,249.408284 L508.724062,249.998043 L508.678598,250.609956 L508.602941,251.680855 L508.511703,253.053962 L508.365797,255.332821 L508.282538,256.564329 L508.216166,257.490707 L508.166105,258.154314 L508.09847,259.001391 L508.029238,259.809733 L507.957772,260.584124 L507.921002,260.960083 L507.844989,261.692518 L507.785502,262.227152 L507.744516,262.5777 L507.680843,263.096204 L507.614301,263.607721 L507.568213,263.945848 L507.49629,264.450207 L507.446366,264.785431 L507.368316,265.288238 L507.314058,265.624296 C506.605272,269.948427 505.518542,273.657066 503.814126,276.971806 C499.409407,285.538076 491.407822,290.202629 480.308051,290.295064 L479.970747,290.296465 L471,290.296465 L471,272.172863 L479.970747,272.172863 C482.667868,272.172863 484.511214,271.741334 485.730417,271.039785 C486.617715,270.52922 487.287598,269.793899 487.892303,268.617872 L487.934746,268.534517 L488.018257,268.365575 L488.099961,268.193534 C488.11343,268.164594 488.126824,268.135519 488.140146,268.106306 L488.219198,267.929338 L488.296522,267.748902 C488.309267,267.718532 488.321941,267.688011 488.334546,267.657337 L488.409336,267.47142 C488.421662,267.440117 488.43392,267.408655 488.44611,267.37703 L488.518436,267.185299 C488.530356,267.153009 488.54221,267.120551 488.553997,267.08792 L488.62393,266.890041 L488.692308,266.687879 C488.703577,266.653821 488.714781,266.619577 488.725923,266.585146 L488.792026,266.376282 L488.856651,266.162766 L488.91983,265.944448 L488.981594,265.721181 L489.041975,265.492817 L489.101003,265.259208 L489.158711,265.020206 L489.21513,264.775664 L489.270291,264.525432 C489.279381,264.483244 489.28842,264.440813 489.297409,264.398136 L489.350742,264.139093 L489.402895,263.873991 L489.4539,263.602682 L489.503788,263.325018 L489.552591,263.040851 L489.60034,262.750033 L489.647066,262.452417 L489.692801,262.147853 L489.737576,261.836194 L489.803008,261.355079 L489.84552,261.025035 L489.907705,260.515649 L489.968084,259.988635 L490.026761,259.443492 L490.064986,259.069746 L490.139436,258.296824 L490.193646,257.6943 L490.246579,257.07165 L490.315352,256.20928 L490.349036,255.763975 L490.415156,254.844383 L490.479821,253.885164 L490.668894,250.933667 L490.766956,249.473366 L490.84834,248.335431 L490.927957,247.304147 L490.98499,246.620199 L491.031346,246.098278 L491.078805,245.594186 L491.15298,244.862185 L491.205034,244.384079 L491.25966,243.908932 L491.289137,243.66232 L491.319477,243.414769 C491.345136,243.20792 491.371756,242.999477 491.399488,242.787895 C491.900453,238.965793 492.641309,235.711584 493.803555,232.746922 C497.002863,224.586109 503.289263,219.395938 512.455425,218.353368 C512.788691,218.315462 513.1238,218.296465 513.459172,218.296465 Z M479.970747,149 C489.91883,149 497.191688,152.706329 501.234589,159.914965 C502.761057,162.636711 503.707455,165.627087 504.302417,169.065096 L504.374417,169.493491 L504.437395,169.887245 L504.51572,170.406129 L504.570621,170.79386 L504.622562,171.183075 L504.671847,171.57621 L504.718775,171.975705 L504.763649,172.383998 L504.80677,172.803526 L504.848439,173.236728 L504.902262,173.839816 L504.967753,174.642762 L505.019589,175.331431 L505.084858,176.259641 L505.16572,177.487205 L505.232001,178.52053 L505.292666,179.414413 L505.341203,180.085995 L505.402275,180.873567 L505.451745,181.463956 L505.502018,182.020733 L505.566356,182.671758 L505.619315,183.158476 L505.673858,183.616532 L505.701797,183.835287 L505.730223,184.047448 L505.773837,184.35374 L505.818713,184.646265 L505.864952,184.925665 L505.912654,185.192583 L505.961921,185.44766 L505.995685,185.611451 L506.047785,185.848223 L506.083531,186.000405 L506.120123,186.148277 L506.176661,186.362419 L506.215497,186.500347 L506.255284,186.63463 L506.31681,186.829639 L506.359103,186.955645 L506.402452,187.078673 L506.446885,187.198912 L506.492433,187.316555 L506.562912,187.488565 L506.611379,187.600546 L506.64041,187.665299 L506.698753,187.789585 L506.757993,187.907126 C507.137342,188.630738 507.608266,188.964011 508.885183,189.201087 L509.015344,189.224192 L509.077967,189.22168 C510.097024,189.175952 510.771725,189.022505 511.183176,188.827335 L511.231291,188.803719 C511.398234,188.718904 511.496697,188.631732 511.643585,188.407834 L511.706974,188.307757 L511.782581,188.179981 L511.832074,188.091016 L511.880892,187.9988 L511.929081,187.903139 L511.976686,187.803839 L512.023755,187.700706 L512.070333,187.593546 L512.139382,187.42483 L512.184936,187.306753 L512.230161,187.18397 L512.297483,186.990546 L512.342089,186.855148 L512.408699,186.641893 L512.452974,186.492667 L512.497197,186.337571 L512.563537,186.093495 L512.607834,185.922874 L512.652242,185.745702 L512.719161,185.46724 L512.809205,185.071221 L512.877554,184.754807 L512.970069,184.305808 L513.064506,183.824401 L513.136816,183.441143 L513.235503,182.899285 L513.363038,182.170203 L513.468856,181.543637 L513.550673,181.047435 L513.852342,179.186268 L513.996644,178.322943 L514.106162,177.688594 L514.212069,177.096746 L514.290046,176.676554 L514.393304,176.142299 L514.471047,175.757293 L514.523376,175.506458 L514.630095,175.014869 L514.712687,174.651566 L514.798182,174.289612 L514.887226,173.926067 L514.948876,173.681366 L515.012581,173.433778 C515.789625,170.443808 516.826702,167.852771 518.341136,165.503584 C522.267775,159.412593 528.671233,156.229603 537.075779,156.229603 C546.029787,156.229603 552.511386,160.743108 555.876433,168.460518 C557.065421,171.187346 557.843245,174.196701 558.40201,177.749764 C558.467287,178.164841 558.52753,178.567398 558.584422,178.97092 L558.63409,179.329753 L558.711515,179.91776 L558.771365,180.399089 L558.829974,180.895078 L558.902356,181.542642 L558.989395,182.371947 L559.078443,183.272796 L559.171422,184.260613 L559.340341,186.142125 L559.525643,188.246103 L559.604244,189.095194 L559.683168,189.907762 L559.742718,190.493887 L559.822791,191.24521 L559.903853,191.963061 L559.965445,192.480152 L560.027833,192.979507 L560.069918,193.302789 L560.133858,193.773626 L560.198868,194.227977 L560.265047,194.666309 L560.3325,195.089091 L560.378226,195.362538 L560.424593,195.629421 L560.495414,196.01774 L560.543517,196.268819 L560.617084,196.634083 L560.692435,196.986137 L560.769673,197.325451 L560.822263,197.544813 L560.875768,197.75886 L560.930217,197.967729 L560.985641,198.17156 L561.04207,198.370491 L561.128665,198.660005 L561.158065,198.75421 L561.158065,198.75421 L561.217692,198.939274 L561.278445,199.119995 L561.340355,199.296509 L561.403451,199.468956 L561.467765,199.637474 L561.533327,199.802203 L561.600167,199.96328 C561.611415,199.98983 561.622717,200.016233 561.634075,200.042493 L561.702888,200.198355 L561.773056,200.350911 L561.844607,200.500303 L561.880911,200.573855 C561.922388,200.657055 561.963938,200.737558 562.005774,200.815434 L562.089891,200.967702 C562.724568,202.083727 563.455522,202.618593 565.002032,202.801015 L565.213129,202.823269 L565.434271,202.841467 C565.585131,202.852274 565.742941,202.860456 565.908205,202.866175 L566.016666,202.869451 L566.08318,202.859226 C567.667749,202.60411 568.447626,202.075136 569.100557,200.810434 L569.185058,200.641263 C569.227004,200.554553 569.268536,200.464628 569.30984,200.371361 L569.392204,200.180331 L569.474297,199.980159 L569.546796,199.795685 L569.608599,199.632655 L569.668969,199.467788 L569.72794,199.300886 L569.813845,199.046289 L569.869462,198.873437 L569.923797,198.69786 L569.976881,198.519358 L570.02875,198.337735 L570.104344,198.059014 L570.177389,197.772157 L570.247997,197.476495 L570.29377,197.274167 L570.338543,197.067432 L570.38235,196.856091 L570.425223,196.639948 L570.487856,196.306295 L570.548575,195.960723 L570.588048,195.72339 L570.626754,195.480266 L570.664726,195.231152 L570.720382,194.845818 L570.774574,194.445896 L570.827416,194.030717 L570.895965,193.452259 L570.946091,192.998887 L570.995242,192.528033 L571.059452,191.87188 L571.122392,191.181881 L571.168925,190.641218 L571.230285,189.888181 L571.275938,189.298421 L571.321402,188.686508 L571.397059,187.61561 L571.488297,186.242503 L571.634203,183.963644 L571.717462,182.732136 L571.783834,181.805758 L571.833895,181.142151 L571.90153,180.295073 L571.970762,179.486731 L572.042228,178.71234 L572.078998,178.336381 L572.155011,177.603946 L572.214498,177.069312 L572.255484,176.718765 L572.319157,176.200261 L572.385699,175.688743 L572.431787,175.350616 L572.50371,174.846257 L572.553634,174.511034 L572.631684,174.008227 L572.685942,173.672169 C573.394728,169.348038 574.481458,165.639398 576.185874,162.324659 C580.590593,153.758389 588.592178,149.093835 599.691949,149.001401 L600.029253,149 L609,149 L609,167.123601 L600.029253,167.123601 C597.332132,167.123601 595.488786,167.555131 594.269583,168.25668 C593.382285,168.767244 592.712402,169.502566 592.107697,170.678592 L592.065254,170.761947 L591.981743,170.930889 L591.900039,171.10293 C591.88657,171.13187 591.873176,171.160945 591.859854,171.190159 L591.780802,171.367126 L591.703478,171.547562 L591.665454,171.639128 L591.665454,171.639128 L591.590664,171.825045 C591.578338,171.856347 591.56608,171.887809 591.55389,171.919434 L591.481564,172.111166 C591.469644,172.143455 591.45779,172.175914 591.446003,172.208545 L591.37607,172.406424 L591.307692,172.608585 C591.296423,172.642644 591.285219,172.676887 591.274077,172.711318 L591.207974,172.920182 L591.143349,173.133699 L591.08017,173.352017 L591.018406,173.575283 L590.958025,173.803647 L590.898997,174.037256 L590.841289,174.276258 L590.78487,174.520801 L590.729709,174.771033 C590.720619,174.813221 590.71158,174.855651 590.702591,174.898329 L590.649258,175.157371 L590.597105,175.422473 L590.5461,175.693782 L590.496212,175.971446 L590.447409,176.255613 L590.39966,176.546431 L590.352934,176.844048 L590.307199,177.148612 L590.262424,177.460271 L590.196992,177.941386 L590.15448,178.271429 L590.092295,178.780815 L590.031916,179.30783 L589.973239,179.852973 L589.935014,180.226719 L589.860564,180.99964 L589.806354,181.602164 L589.753421,182.224814 L589.684648,183.087185 L589.650964,183.53249 L589.584844,184.452082 L589.520179,185.411301 L589.331106,188.362797 L589.233044,189.823099 L589.15166,190.961034 L589.072043,191.992317 L589.01501,192.676265 L588.968654,193.198187 L588.921195,193.702279 L588.84702,194.43428 L588.794966,194.912386 L588.74034,195.387533 L588.680523,195.881696 C588.654864,196.088544 588.628244,196.296988 588.600512,196.508569 C588.099547,200.330672 587.358691,203.584881 586.196445,206.549543 C582.997137,214.710355 576.710737,219.900526 567.544575,220.943096 C567.211309,220.981002 566.8762,221 566.540828,221 C556.875735,221 549.774787,216.584872 545.856622,208.72542 C544.403835,205.811273 543.439206,202.570438 542.760252,198.801026 L542.701904,198.472446 L542.645351,198.144473 L542.563652,197.652127 L542.511117,197.322624 L542.434943,196.824719 L542.361604,196.320346 L542.314106,195.979343 L542.244686,195.458966 L542.177137,194.925855 L542.111096,194.377658 L542.046202,193.812025 L541.982095,193.226608 L541.918413,192.619056 L541.854795,191.987018 L541.769444,191.102153 L541.660708,189.920497 L541.411202,187.098808 L541.301398,185.915387 L541.21145,184.993241 L541.157945,184.466744 L541.104661,183.95966 L541.03378,183.312782 L540.980608,182.848828 L540.927311,182.402432 L540.855875,181.833586 L540.783788,181.293645 L540.710803,180.781289 L540.636674,180.295198 L540.580179,179.947074 L540.522799,179.612425 L540.46443,179.290696 L540.404968,178.981329 L540.34431,178.683769 L540.282352,178.397459 L540.21899,178.121842 L540.154121,177.856361 L540.087641,177.600461 L540.019446,177.353584 L539.972979,177.193738 L539.901695,176.960664 L539.82842,176.735129 L539.75305,176.516577 L539.701589,176.374481 L539.622497,176.16633 L539.541033,175.963679 L539.457094,175.76597 L539.338959,175.500322 L539.283387,175.380903 L539.202854,175.217652 L539.150247,175.118949 L539.097862,175.027986 C538.844325,174.606533 538.579352,174.44538 538.02361,174.385995 L537.904388,174.375109 C537.883796,174.373519 537.862835,174.372037 537.841494,174.370657 L537.708795,174.363542 L537.566423,174.358552 L537.333528,174.354366 L537.075779,174.353205 C535.517383,174.353205 534.527562,174.557191 533.957907,174.840352 C533.729847,174.953714 533.591711,175.073404 533.419583,175.327279 L533.348405,175.436606 L533.294308,175.524878 L533.241019,175.616373 L533.188491,175.711286 L533.136676,175.809815 L533.085526,175.912158 L533.034995,176.01851 L532.985033,176.12907 L532.935595,176.244033 L532.886632,176.363597 L532.838097,176.487959 L532.765994,176.683928 L532.718321,176.821146 L532.670909,176.963851 L532.600179,177.188628 L532.553214,177.345913 L532.506344,177.509374 L532.436114,177.766577 L532.365832,178.038785 L532.318868,178.228922 L532.248142,178.527615 L532.200733,178.736024 L532.105087,179.176 L532.032438,179.52702 L531.958827,179.896813 L531.884095,180.286041 L531.78243,180.836396 L531.678106,181.424062 L531.570742,182.050614 L531.431683,182.890889 L531.194629,184.358448 L531.029927,185.354358 L530.877963,186.24037 L530.781448,186.780766 L530.710604,187.164261 L530.617104,187.651705 L530.546948,188.002911 L530.476124,188.344824 L530.404053,188.680172 L530.305021,189.121801 L530.201376,189.563071 L530.119791,189.897675 L530.034262,190.238441 C529.282805,193.192704 528.285346,195.746412 526.824109,198.069239 C522.9945,204.156897 516.691207,207.359263 508.424561,207.359263 C508.026505,207.359263 507.628891,207.3325 507.234355,207.279152 C499.049624,206.172425 493.258473,201.8418 490.229626,194.991597 C489.106655,192.451827 488.411423,189.718077 487.963302,186.571854 L487.898697,186.106487 C487.888348,186.029855 487.8782,185.953605 487.868238,185.877611 L487.824929,185.539351 L487.771352,185.09578 L487.708879,184.534943 L487.66177,184.074293 L487.616565,183.596877 L487.583552,183.224415 L487.529478,182.569158 L487.475579,181.861234 L487.398192,180.760662 L487.224948,178.101812 L487.174377,177.37627 L487.110097,176.522003 L487.070806,176.036569 L487.017394,175.419857 L486.962624,174.836866 L486.920531,174.420987 L486.877471,174.022819 L486.833357,173.641825 L486.80332,173.397104 L486.77275,173.159617 L486.741622,172.929205 L486.709909,172.705706 L486.661189,172.383075 L486.61101,172.075104 L486.559286,171.781255 L486.523901,171.592935 L486.487765,171.410493 L486.432095,171.1475 L486.393968,170.979053 L486.355,170.815925 L486.294913,170.580856 L486.253729,170.430326 L486.190198,170.213408 L486.146636,170.07448 L486.102079,169.939914 L486.0565,169.809549 L486.009875,169.683226 L485.962176,169.560786 L485.913378,169.442069 L485.863456,169.326916 L485.812384,169.215166 L485.760136,169.106661 L485.706687,169.001241 L485.65201,168.898745 L485.624203,168.848544 L485.624203,168.848544 C485.357637,168.373247 485.103484,168.122623 484.64765,167.890325 C483.968588,167.544267 482.941936,167.283193 481.499171,167.176426 L481.214712,167.157707 C480.876738,167.13816 480.517321,167.126708 480.135674,167.124151 L479.970747,167.123601 L471,167.123601 L471,149 L479.970747,149 Z" id="Combined-Shape" fill="url(#linearGradient-1)" fill-rule="nonzero" transform="translate(540.000000, 219.648232) rotate(-45.000000) translate(-540.000000, -219.648232) "></path>
        <g id="Group-2" transform="translate(280.000000, 741.000000)">
            <path d="M50.1556104,67.6604256 C56.8791533,67.6604256 61.8189433,70.7264866 64.5446233,76.1844394 C65.5552576,78.2081526 66.2263041,80.4587324 66.69862,83.0763801 L66.7392098,83.3045603 L66.7785511,83.5323194 L66.8353852,83.8742261 L66.8719312,84.1030477 L66.9249213,84.4488149 L66.9759403,84.7990741 L67.0089819,85.0358818 L67.057274,85.3972544 L67.1042652,85.767471 L67.1502067,86.1481634 L67.1953499,86.5409635 L67.2399462,86.9475033 L67.2842468,87.3694146 L67.3285032,87.8083294 L67.3878772,88.4228196 L67.46352,89.2434139 L67.6370893,91.2029198 L67.7134745,92.0247404 L67.7760469,92.6651191 L67.8132679,93.0307421 L67.8503352,93.3828842 L67.8996438,93.832105 L67.9366331,94.1542949 L67.973709,94.4642922 L68.0234034,94.8593239 L68.0735512,95.2342832 L68.1243236,95.5900863 L68.1758915,95.9276491 L68.2151923,96.1694023 L68.2551089,96.4017971 L68.2957135,96.6252202 L68.3370781,96.840058 L68.379275,97.0466969 L68.4223762,97.2455235 L68.4664539,97.4369243 L68.5115802,97.6212857 L68.5578274,97.7989943 L68.6052674,97.9704365 L68.6375924,98.0814408 L68.687181,98.2432979 L68.7381548,98.3999192 L68.7905861,98.5516913 L68.8263855,98.6503695 L68.8814061,98.7949184 L68.9380765,98.9356486 L68.9964689,99.0729467 L69.0786498,99.257424 L69.1173082,99.340354 L69.1733312,99.4537226 L69.2099279,99.5222667 L69.2463692,99.5854356 C69.4227426,99.878111 69.6070718,99.9900231 69.993675,100.031262 L70.0766119,100.038822 C70.0909369,100.039926 70.1055185,100.040955 70.1203644,100.041914 L70.2126769,100.046855 L70.3117178,100.05032 L70.4737317,100.053227 L70.6530359,100.054034 C71.7371371,100.054034 72.4257084,99.9123761 72.8219899,99.715737 C72.9806403,99.637013 73.0767354,99.5538951 73.1964765,99.3775932 L73.2459917,99.3016714 L73.2836242,99.2403712 L73.3206946,99.1768335 L73.3572359,99.1109215 L73.3932813,99.0424982 L73.4288637,98.9714271 L73.4640161,98.8975712 L73.4987718,98.8207939 L73.5331636,98.7409583 L73.5672247,98.6579278 L73.6009881,98.5715654 L73.6511474,98.4354755 L73.6843112,98.3401853 L73.7172929,98.2410845 L73.7664966,98.0849895 L73.799168,97.9757641 L73.831773,97.8622494 L73.8806285,97.683636 L73.9295207,97.4946025 L73.962191,97.3625633 L74.0113922,97.1551371 L74.0443718,97.0104087 L74.1109087,96.70487 L74.1614471,96.4611059 L74.2126543,96.2043058 L74.2646419,95.9340082 L74.3353654,95.5518174 L74.4079389,95.1437162 L74.482627,94.7086103 L74.5793633,94.1250858 L74.7442704,93.1059479 L74.8588459,92.4143439 L74.9645597,91.7990572 L75.0317009,91.4237826 L75.0809835,91.1574663 L75.1460272,90.8189634 L75.1948312,90.5750704 L75.2441003,90.3376308 L75.2942363,90.1047509 L75.363128,89.7980637 L75.4352289,89.4916265 L75.4919839,89.2592621 L75.5514823,89.0226192 C76.0742352,86.971048 76.7681195,85.1976393 77.7846326,83.5845654 C80.4487078,79.3570248 84.8336074,77.1331595 90.5843181,77.1331595 C90.8612261,77.1331595 91.1378271,77.1517449 91.4122871,77.1887925 C97.1060133,77.9573523 101.13464,80.9647314 103.241664,85.7218163 C104.022861,87.4855457 104.5065,89.383983 104.818237,91.5688601 L104.863179,91.8920321 C104.870379,91.9452483 104.877439,91.9981997 104.884369,92.0509734 L104.914497,92.2858764 L104.951768,92.5939119 L104.995227,92.9833819 L105.027999,93.3032776 L105.059445,93.6348166 L105.082411,93.8934708 L105.120028,94.3485103 L105.157523,94.840124 L105.211357,95.6044101 L105.331875,97.4508342 L105.367055,97.9546823 L105.411771,98.5479237 L105.439104,98.8850301 L105.47626,99.313303 L105.514361,99.7181572 L105.543643,100.006963 L105.573598,100.283468 L105.604286,100.548047 L105.625181,100.717992 L105.646447,100.882914 L105.668102,101.042922 L105.690162,101.198129 L105.724055,101.422179 L105.758962,101.636048 L105.794944,101.840109 L105.81956,101.970887 L105.844698,102.097583 L105.883424,102.280217 L105.909948,102.397194 L105.937056,102.510478 L105.978855,102.67372 L106.007505,102.778255 L106.051701,102.928892 L106.082005,103.02537 L106.113001,103.118819 L106.144708,103.20935 L106.177143,103.297074 L106.210325,103.382102 L106.244271,103.464544 L106.278999,103.544512 L106.314528,103.622116 L106.350874,103.697466 L106.388056,103.770675 L106.426093,103.841853 C106.432504,103.853552 106.438952,103.865172 106.445436,103.876714 C106.630874,104.206782 106.807676,104.380827 107.124777,104.542144 C107.597169,104.782462 108.311362,104.963764 109.315024,105.037907 L109.512909,105.050907 C109.748021,105.064481 109.99805,105.072434 110.263544,105.07421 L116.618795,105.074591 L116.618795,117.660426 L110.378275,117.660426 C103.45787,117.660426 98.3984906,115.086586 95.5860374,110.080589 C94.5241469,108.190488 93.8657829,106.113838 93.4518962,103.726331 L93.4018092,103.428835 L93.3579987,103.155394 L93.3035117,102.795059 L93.2653199,102.5258 L93.2291864,102.255513 L93.1949016,101.982502 L93.1622558,101.705075 L93.1310392,101.421538 L93.101042,101.130199 L93.0720546,100.829364 L93.0346129,100.410553 L92.9890535,99.8529518 L92.9529941,99.3747093 L92.9075895,98.7301196 L92.8513377,97.8776441 L92.8052288,97.1600574 L92.7630272,96.5393058 L92.7292622,96.072929 L92.6867776,95.526004 L92.6523639,95.1160118 L92.617391,94.7293611 L92.5726343,94.2772605 L92.5357932,93.9392616 L92.4978507,93.6211673 L92.4784143,93.469254 L92.45864,93.3219203 L92.4282995,93.1092173 L92.3970815,92.906075 L92.3649155,92.7120471 L92.3317314,92.5266876 L92.2974586,92.3495504 L92.2739706,92.2358065 L92.2377271,92.0713816 L92.2128602,91.9656996 L92.1874051,91.863011 L92.1480743,91.7143016 L92.1210579,91.6185182 L92.0933804,91.5252656 L92.0505791,91.3898427 L92.0211579,91.3023388 L91.9910026,91.216903 L91.9600925,91.1334031 L91.9284066,91.051707 L91.8793778,90.9322558 L91.8456615,90.8544908 L91.8254664,90.8095236 L91.7848799,90.7232138 L91.7436693,90.641588 C91.4797747,90.1390798 91.1521751,89.9076403 90.2638851,89.7430038 L90.1733386,89.7267494 L90.1297747,89.7287037 C89.4208651,89.7604589 88.9515079,89.8670191 88.6652816,90.0025538 L88.6318099,90.0189541 C88.515676,90.0778531 88.4471797,90.1383896 88.3449966,90.2938739 L88.3009001,90.3633721 L88.2483037,90.4521058 L88.2138736,90.513887 L88.1799135,90.5779258 L88.1463911,90.644357 L88.1132742,90.7133153 L88.0805308,90.7849354 L88.0481286,90.8593522 L88.0000948,90.9765158 L87.9684051,91.0585137 L87.9369441,91.1437798 L87.890111,91.2781018 L87.859081,91.3721282 L87.8127437,91.5202222 L87.7819438,91.623851 L87.7511797,91.7315567 L87.7050302,91.901054 L87.6742147,92.0195412 L87.6433225,92.1425769 L87.5967697,92.3359536 L87.5341305,92.6109666 L87.4865837,92.8306988 L87.4222251,93.1425033 L87.3565303,93.4768139 L87.3062275,93.7429649 L87.2375752,94.1192552 L87.1488557,94.6255626 L87.0752433,95.060678 L87.0183271,95.4052626 L86.8084702,96.6977395 L86.7080863,97.2972707 L86.6318996,97.7377905 L86.5582255,98.1487967 L86.5039802,98.4405964 L86.4321489,98.8116071 L86.3780667,99.078972 L86.3416636,99.2531632 L86.2674248,99.5945445 L86.2099695,99.8468384 L86.1504943,100.098195 L86.0885512,100.350657 L86.0456636,100.520588 L86.0013475,100.692524 C85.4607953,102.768892 84.7393504,104.568224 83.6858308,106.199603 C80.9542556,110.429458 76.4996764,112.639868 70.6530359,112.639868 C64.4241603,112.639868 59.9152221,109.50549 57.5743196,104.146177 C56.7471975,102.252546 56.2061026,100.162717 55.8173964,97.6953117 C55.7719869,97.4070639 55.7300782,97.1275105 55.6905017,96.8472864 L55.6559499,96.5980972 L55.6020888,96.1897587 L55.560454,95.8555026 L55.5196827,95.5110659 L55.4693297,95.0613689 L55.4087814,94.4854623 L55.3468349,93.8598727 L55.2821536,93.173889 L55.1646447,91.8672832 L55.0357388,90.4061874 L54.9810602,89.8165407 L54.9261568,89.2522574 L54.8847302,88.8452261 L54.8290276,88.3234743 L54.7726363,87.8249665 L54.7297895,87.4658759 L54.6863893,87.1191014 L54.6571133,86.8946 L54.6126326,86.5676297 L54.5674089,86.2521084 L54.5213708,85.9477109 L54.4744473,85.6541121 L54.4426379,85.4642184 L54.4103823,85.2788832 L54.361116,85.009217 L54.3276525,84.8348567 L54.2764756,84.5812014 L54.2240575,84.336719 L54.170327,84.1010845 L54.1337424,83.9487497 L54.0965218,83.8001065 L54.0586441,83.6550584 L54.0200882,83.5135092 L53.9808331,83.3753624 L53.9205933,83.1743113 L53.9001408,83.1088912 L53.9001408,83.1088912 L53.8586615,82.9803739 L53.8163986,82.8548738 L53.773331,82.7322945 L53.7294376,82.6125397 L53.6846974,82.495513 L53.6390893,82.3811181 L53.5925922,82.2692587 C53.5847674,82.2508214 53.5769047,82.2324857 53.5690036,82.2142496 L53.5211335,82.1060127 L53.4723216,82.0000704 L53.4225469,81.8963264 L53.397292,81.8452486 C53.3684381,81.787471 53.3395336,81.7315655 53.3104303,81.6774852 L53.2519146,81.5717439 C52.8104,80.796726 52.3019098,80.4252915 51.2260774,80.2986096 L51.0792271,80.2831552 L50.9253892,80.2705178 C50.8204428,80.2630133 50.7106623,80.2573311 50.5956962,80.2533597 L50.5202448,80.2508747 L50.4739744,80.2581853 C49.3716654,80.4353492 48.8291419,80.8026921 48.374929,81.6809575 L48.3161459,81.7984377 C48.2869661,81.8586529 48.2580746,81.9211005 48.2293408,81.9858695 L48.1720446,82.1185291 L48.1149363,82.2575372 L48.0645021,82.3856441 L48.0215087,82.4988599 L47.979512,82.6133509 L47.9384889,82.7292544 L47.8787291,82.9060585 L47.8400387,83.0260942 L47.8022408,83.148023 L47.7653123,83.2719824 L47.72923,83.3981097 L47.6766425,83.5916658 L47.6258287,83.7908723 L47.5767104,83.9961926 L47.5448681,84.1366983 L47.5137215,84.2802646 L47.4832474,84.4270289 L47.4534225,84.5771285 L47.409852,84.8088321 L47.3676122,85.0488126 L47.3401529,85.2136269 L47.3132271,85.3824632 L47.2868116,85.5554589 L47.2480946,85.8230517 L47.2103954,86.1007757 L47.173636,86.3890943 L47.12595,86.7908009 L47.0910792,87.1056431 L47.0568876,87.4326251 L47.0122199,87.8882864 L46.9684353,88.3674524 L46.9360648,88.7429128 L46.8933795,89.2658558 L46.8616208,89.6754108 L46.8299938,90.1003503 L46.7773629,90.8440298 L46.7138929,91.7975763 L46.6123929,93.3801172 L46.5544738,94.2353314 L46.5083015,94.8786495 L46.4734764,95.3394876 L46.4264263,95.927736 L46.378265,96.4890845 L46.3285494,97.0268559 L46.3029701,97.2879385 L46.2500916,97.7965739 L46.2087097,98.1678475 L46.1801973,98.4112834 L46.1359035,98.7713557 L46.0896133,99.1265762 L46.0575517,99.3613866 L46.0075186,99.7116358 L45.9727885,99.9444299 L45.9184929,100.293601 L45.8807481,100.526975 C45.3876802,103.529844 44.6316941,106.105288 43.4460128,108.40719 C40.3818606,114.355989 34.8155407,117.595262 27.0939613,117.659453 L26.8593147,117.660426 L20.618795,117.660426 L20.618795,105.074591 L26.8593147,105.074591 C28.7355725,105.074591 30.0179002,104.774918 30.8660418,104.287731 C31.4832925,103.933173 31.949298,103.422533 32.3699624,102.605848 L32.3994879,102.547962 L32.4575826,102.430641 L32.5144203,102.311169 C32.5237897,102.291071 32.5331076,102.27088 32.5423746,102.250593 L32.5973676,102.127699 L32.6511582,102.002396 L32.6776094,101.938809 L32.6776094,101.938809 L32.7296372,101.8097 L32.7552193,101.744152 L32.7552193,101.744152 L32.8055334,101.611005 C32.8138256,101.588582 32.8220713,101.566041 32.830271,101.54338 L32.8789205,101.405965 L32.9264877,101.265575 C32.9343266,101.241923 32.9421212,101.218143 32.9498722,101.194232 L32.9958566,101.049188 L33.0408132,100.900913 L33.0847637,100.749303 L33.1277301,100.594257 L33.169734,100.435671 L33.2107974,100.273442 L33.250942,100.107469 L33.2901898,99.9376471 L33.3285624,99.7638749 C33.3348862,99.734578 33.3411744,99.7051121 33.3474274,99.6754752 L33.3845284,99.4955843 L33.4208088,99.3114857 L33.4562906,99.1230767 L33.4909954,98.9302546 L33.5249453,98.7329164 L33.5581619,98.5309596 L33.5906671,98.3242812 L33.6224827,98.1127785 L33.6536306,97.8963488 L33.6991482,97.5622412 L33.7287223,97.3330442 L33.7719814,96.9793039 L33.8139836,96.6133215 L33.8548026,96.2347502 L33.8813943,95.9752041 L33.9331856,95.4384532 L33.9708969,95.0200338 L34.0077197,94.587638 L34.0555617,93.9887697 L34.078994,93.6795297 L34.1249904,93.0409244 L34.1699745,92.3748 L34.3015041,90.3251497 L34.3697211,89.3110515 L34.426336,88.5208187 L34.4817214,87.8046496 L34.5213971,87.3296858 L34.5536447,86.9672402 L34.5866595,86.6171764 L34.6382595,86.1088422 L34.6744707,85.7768242 L34.7124719,85.446861 L34.7329774,85.2756028 L34.7540834,85.1036924 C34.7719333,84.9600477 34.7904511,84.8152952 34.809743,84.6683637 C35.1582406,82.0141258 35.6736189,79.7542583 36.4821374,77.6954655 C38.7077429,72.0282343 43.0808909,68.4239489 49.4573513,67.6999422 C49.6891888,67.6736185 49.9223078,67.6604256 50.1556104,67.6604256 Z M26.8593147,19.5771645 C33.7797201,19.5771645 38.8390994,22.1510038 41.6515527,27.1570012 C42.7134432,29.0471023 43.3718072,31.1237523 43.7856939,33.5112592 L43.8357808,33.8087554 L43.8795913,34.0821958 L43.9340783,34.4425315 L43.9722702,34.7117897 L44.0084037,34.9820775 L44.0426884,35.2550883 L44.0753343,35.5325153 L44.1065509,35.8160517 L44.136548,36.1073907 L44.1655354,36.4082257 L44.2029771,36.8270369 L44.2485366,37.3846382 L44.2845959,37.8628807 L44.3300005,38.5074704 L44.3862523,39.359946 L44.4323613,40.0775326 L44.4745629,40.6982843 L44.5083279,41.164661 L44.5508125,41.7115861 L44.5852261,42.1215782 L44.620199,42.508229 L44.6649558,42.9603295 L44.7017969,43.2983285 L44.7397394,43.6164227 L44.7591758,43.768336 L44.77895,43.9156698 L44.8092905,44.1283727 L44.8405086,44.3315151 L44.8726745,44.5255429 L44.9058587,44.7109024 L44.9401314,44.8880397 L44.9636195,45.0017836 L44.9998629,45.1662084 L45.0247299,45.2718905 L45.050185,45.3745791 L45.0895158,45.5232885 L45.1165322,45.6190719 L45.1442097,45.7123245 L45.1870109,45.8477473 L45.2164322,45.9352513 L45.2465875,46.0206871 L45.2774976,46.104187 L45.3091834,46.1858831 L45.3582122,46.3053343 L45.3919285,46.3830993 L45.4121236,46.4280665 L45.4527102,46.5143763 L45.4939208,46.5960021 C45.7578154,47.0985102 46.085415,47.3299498 46.973705,47.4945862 L47.0642514,47.5106309 L47.1078154,47.5088864 C47.816725,47.4771312 48.2860822,47.370571 48.5723084,47.2350362 L48.6057802,47.2186359 C48.721914,47.1597369 48.7904103,47.0992004 48.8925934,46.9437162 L48.93669,46.8742179 L48.9892864,46.7854843 L49.0237164,46.723703 L49.0576765,46.6596642 L49.091199,46.593233 L49.1243158,46.5242748 L49.1570592,46.4526546 L49.1894614,46.3782378 L49.2374952,46.2610743 L49.2691849,46.1790764 L49.300646,46.0938103 L49.3474791,45.9594883 L49.3785091,45.8654619 L49.4248463,45.7173679 L49.4556462,45.613739 L49.4864104,45.5060334 L49.5325599,45.3365361 L49.5633753,45.2180488 L49.5942676,45.0950131 L49.6408203,44.9016364 L49.7034595,44.6266235 L49.7510063,44.4068912 L49.8153649,44.0950867 L49.8810598,43.7607762 L49.9313626,43.4946251 L50.0000148,43.1183349 L50.0887343,42.6120275 L50.1623467,42.1769121 L50.219263,41.8323275 L50.4291199,40.5398506 L50.5295038,39.9403193 L50.6056905,39.4997995 L50.6793646,39.0887933 L50.7336098,38.7969937 L50.8054412,38.425983 L50.8595234,38.158618 L50.8959264,37.9844269 L50.9701653,37.6430455 L51.0276205,37.3907517 L51.0870958,37.1393952 L51.1490389,36.8869331 L51.1919264,36.7170018 L51.2362425,36.5450656 C51.7767948,34.4686978 52.4982396,32.6693663 53.5517593,31.0379869 C56.2833344,26.8081319 60.7379136,24.5977222 66.5845541,24.5977222 C72.8134298,24.5977222 77.322368,27.7321005 79.6632704,33.0914128 C80.4903926,34.9850439 81.0314875,37.0748733 81.4201936,39.5422784 C81.4656031,39.8305262 81.5075119,40.1100796 81.5470883,40.3903036 L81.5816401,40.6394928 L81.6355012,41.0478313 L81.6771361,41.3820875 L81.7179073,41.7265242 L81.7682604,42.1762212 L81.8288087,42.7521277 L81.8907552,43.3777174 L81.9554364,44.063701 L82.0729454,45.3703069 L82.2018512,46.8314026 L82.2565299,47.4210493 L82.3114333,47.9853326 L82.3528598,48.3923639 L82.4085625,48.9141157 L82.4649537,49.4126235 L82.5078006,49.7717141 L82.5512008,50.1184887 L82.5804768,50.34299 L82.6249574,50.6699604 L82.6701812,50.9854817 L82.7162192,51.2898792 L82.7631427,51.5834779 L82.7949521,51.7733717 L82.8272078,51.9587069 L82.8764741,52.2283731 L82.9099375,52.4027333 L82.9611144,52.6563887 L83.0135326,52.900871 L83.0672631,53.1365056 L83.1038477,53.2888403 L83.1410683,53.4374836 L83.178946,53.5825317 L83.2175018,53.7240809 L83.2567569,53.8622276 L83.3169968,54.0632787 C83.3237828,54.0852165 83.3306001,54.1070226 83.3374492,54.1286989 L83.3789286,54.2572161 L83.4211915,54.3827162 L83.4642591,54.5052955 L83.5081525,54.6250503 L83.5528927,54.742077 L83.5985008,54.8564719 L83.6449979,54.9683314 C83.6528227,54.9867687 83.6606854,55.0051044 83.6685864,55.0233404 L83.7164566,55.1315773 L83.7652684,55.2375196 L83.8150431,55.3412637 L83.8402981,55.3923415 C83.869152,55.4501191 83.8980565,55.5060245 83.9271598,55.5601049 L83.9856754,55.6658462 C84.42719,56.440864 84.9356802,56.8122985 86.0115127,56.9389804 L86.158363,56.9544349 L86.3122009,56.9670723 C86.4171473,56.9745767 86.5269278,56.9802589 86.6418938,56.9842303 L86.7173452,56.9865056 L86.7636157,56.9794048 C87.8659246,56.8022409 88.4084482,56.4348979 88.862661,55.5566326 L88.9214441,55.4391524 C88.950624,55.3789372 88.9795155,55.3164896 89.0082493,55.2517206 L89.0655455,55.119061 L89.1226538,54.9800528 L89.1730879,54.851946 L89.2160814,54.7387301 L89.2580781,54.6242391 L89.2991012,54.5083356 L89.358861,54.3315315 L89.3975514,54.2114959 L89.4353492,54.089567 L89.4722777,53.9656077 L89.50836,53.8394804 L89.5609475,53.6459242 L89.6117613,53.4467178 L89.6608797,53.2413974 L89.6927219,53.1008918 L89.7238685,52.9573254 L89.7543427,52.8105611 L89.7841675,52.6604615 L89.827738,52.428758 L89.8699779,52.1887774 L89.8974371,52.0239631 L89.9243629,51.8551268 L89.9507784,51.6821311 L89.9894955,51.4145383 L90.0271947,51.1368144 L90.0639541,50.8484957 L90.11164,50.4467891 L90.1465108,50.1319469 L90.1807025,49.8049649 L90.2253701,49.3493036 L90.2691547,48.8701377 L90.3015252,48.4946773 L90.3442105,47.9717343 L90.3759693,47.5621793 L90.4075963,47.1372397 L90.4602272,46.3935603 L90.5236972,45.4400138 L90.6251972,43.8574728 L90.6831162,43.0022587 L90.7292885,42.3589405 L90.7641136,41.8981025 L90.8111637,41.3098541 L90.859325,40.7485055 L90.9090407,40.2107342 L90.93462,39.9496516 L90.9874984,39.4410161 L91.0288804,39.0697425 L91.0573928,38.8263067 L91.1016866,38.4662344 L91.1479767,38.1110139 L91.1800383,37.8762034 L91.2300715,37.5259542 L91.2648015,37.2931601 L91.3190971,36.9439886 L91.356842,36.710615 C91.8499099,33.7077463 92.6058959,31.1323022 93.7915773,28.8303998 C96.8557294,22.8816012 102.422049,19.6423279 110.143629,19.5781373 L116.618795,19.5771645 L116.618795,32.1629988 L110.378275,32.1629988 C108.502018,32.1629988 107.21969,32.462672 106.371548,32.9498586 C105.754298,33.3044175 105.288292,33.8150572 104.867628,34.6317424 L104.838102,34.6896278 L104.780007,34.8069486 L104.72317,34.9264215 L104.695215,34.9869971 L104.695215,34.9869971 L104.640222,35.109891 L104.586432,35.2351939 C104.577566,35.2562842 104.568749,35.2774792 104.559981,35.2987809 L104.507953,35.4278902 L104.482371,35.4934382 L104.482371,35.4934382 L104.432057,35.626585 C104.423764,35.6490083 104.415519,35.6715491 104.407319,35.6942096 L104.35867,35.8316253 L104.311102,35.9720153 L104.287718,36.0433578 L104.287718,36.0433578 L104.241733,36.188402 L104.196777,36.3366775 L104.152826,36.4882871 L104.10986,36.6433335 L104.067856,36.8019195 L104.026793,36.9641479 L103.986648,37.1301215 L103.9474,37.2999429 L103.909028,37.4737151 C103.902704,37.5030121 103.896416,37.5324779 103.890163,37.5621148 L103.853062,37.7420058 L103.816781,37.9261043 L103.781299,38.1145133 L103.746595,38.3073355 L103.712645,38.5046736 L103.679428,38.7066305 L103.646923,38.9133089 L103.615107,39.1248115 L103.583959,39.3412412 L103.538442,39.6753489 L103.508868,39.9045459 L103.465609,40.2582862 L103.423606,40.6242686 L103.382787,41.0028399 L103.356196,41.2623859 L103.304404,41.7991369 L103.266693,42.2175563 L103.22987,42.6499521 L103.182028,43.2488204 L103.158596,43.5580603 L103.1126,44.1966656 L103.067616,44.86279 L102.936086,46.9124403 L102.867869,47.9265386 L102.811254,48.7167713 L102.755869,49.4329405 L102.716193,49.9079043 L102.683945,50.2703499 L102.650931,50.6204137 L102.599331,51.1287478 L102.563119,51.4607659 L102.525118,51.7907291 L102.504613,51.9619873 L102.483507,52.1338977 C102.465657,52.2775424 102.447139,52.4222948 102.427847,52.5692263 C102.079349,55.2234643 101.563971,57.4833317 100.755453,59.5421246 C98.5298471,65.2093558 94.1566991,68.8136412 87.7802388,69.5376479 C87.5484012,69.5639716 87.3152822,69.5771645 87.0819796,69.5771645 C80.3584368,69.5771645 75.4186467,66.5111035 72.6929668,61.0531507 C71.6823324,59.0294375 71.0112859,56.7788576 70.53897,54.16121 L70.4983803,53.9330297 L70.4590389,53.7052707 L70.4022049,53.363364 L70.3656589,53.1345423 L70.3126687,52.7887752 L70.2616498,52.4385159 L70.2286081,52.2017082 L70.180316,51.8403356 L70.1333249,51.4701191 L70.0873834,51.0894267 L70.0422401,50.6966266 L69.9976439,50.2900868 L69.9533432,49.8681755 L69.9090869,49.4292606 L69.8497128,48.8147704 L69.77407,47.9941762 L69.6005008,46.0346703 L69.5241156,45.2128497 L69.4615432,44.5724709 L69.4243222,44.206848 L69.3872549,43.8547058 L69.3379462,43.4054851 L69.300957,43.0832952 L69.263881,42.7732978 L69.2141867,42.3782661 L69.1640388,42.0033068 L69.1132665,41.6475038 L69.0616986,41.3099409 L69.0223978,41.0681878 L68.9824811,40.8357929 L68.9418766,40.6123698 L68.9005119,40.3975321 L68.8583151,40.1908931 L68.8152139,39.9920665 L68.7711362,39.8006657 L68.7260098,39.6163043 L68.6797627,39.4385958 L68.6323227,39.2671536 L68.5999976,39.1561493 L68.5504091,38.9942922 L68.4994352,38.8376708 L68.447004,38.6858988 L68.4112045,38.5872205 L68.3561839,38.4426717 L68.2995135,38.3019415 L68.2411212,38.1646434 L68.1589402,37.9801661 L68.1202819,37.897236 L68.0642589,37.7838674 L68.0276622,37.7153233 L67.9912209,37.6521544 C67.8148474,37.359479 67.6305183,37.2475669 67.243915,37.2063277 L67.1609782,37.1987678 C67.1466531,37.1976639 67.1320716,37.1966349 67.1172256,37.1956764 L67.0249132,37.1907355 L66.9258722,37.1872697 L66.7638583,37.1843629 L66.5845541,37.1835565 C65.5004529,37.1835565 64.8118817,37.3252139 64.4156002,37.521853 C64.2569498,37.600577 64.1608546,37.6836949 64.0411136,37.8599968 L63.9915984,37.9359187 L63.9539659,37.9972188 L63.9168955,38.0607565 L63.8803541,38.1266686 L63.8443088,38.1950918 L63.8087264,38.266163 L63.7735739,38.3400188 L63.7388183,38.4167961 L63.7044264,38.4966317 L63.6703653,38.5796623 L63.6366019,38.6660247 L63.5864427,38.8021145 L63.5532789,38.8974048 L63.5202971,38.9965056 L63.4710934,39.1526006 L63.4384221,39.261826 L63.405817,39.3753406 L63.3569615,39.553954 L63.3080693,39.7429875 L63.2753991,39.8750268 L63.2261978,40.0824529 L63.1932183,40.2271813 L63.1266813,40.53272 L63.0761429,40.7764842 L63.0249357,41.0332843 L62.9729482,41.3035819 L62.9022247,41.6857726 L62.8296511,42.0938739 L62.7549631,42.5289797 L62.6582267,43.1125042 L62.4933197,44.1316421 L62.3787442,44.8232461 L62.2730303,45.4385328 L62.2058892,45.8138074 L62.1566065,46.0801237 L62.0915629,46.4186266 L62.0427588,46.6625197 L61.9934898,46.8999592 L61.9433537,47.1328391 L61.874462,47.4395263 L61.8023611,47.7459636 L61.7456061,47.978328 L61.6861078,48.2149709 C61.1633549,50.2665421 60.4694705,52.0399507 59.4529575,53.6530246 C56.7888823,57.8805652 52.4039827,60.1044306 46.653272,60.1044306 C46.376364,60.1044306 46.0997629,60.0858452 45.8253029,60.0487975 C40.1315768,59.2802377 36.1029503,56.2728587 33.9959259,51.5157738 C33.2147288,49.7520444 32.7310896,47.853607 32.419353,45.66873 L32.3744106,45.3455579 C32.3672113,45.2923417 32.3601512,45.2393904 32.3532213,45.1866166 L32.3230933,44.9517137 L32.2858225,44.6436782 L32.2423628,44.2542082 L32.2095915,43.9343125 L32.1781448,43.6027734 L32.1551789,43.3441192 L32.1175624,42.8890797 L32.0800674,42.3974661 L32.0262331,41.63318 L31.9057151,39.7867558 L31.8705353,39.2829077 L31.8258189,38.6896663 L31.798486,38.3525599 L31.7613301,37.9242871 L31.723229,37.5194328 L31.6939469,37.2306273 L31.6639921,36.9541221 L31.6333044,36.689543 L31.6124089,36.519598 L31.5911428,36.3546765 L31.5694884,36.1946676 L31.5474276,36.0394606 L31.5135354,35.8154112 L31.4786282,35.6015425 L31.4426458,35.3974807 L31.4180303,35.266703 L31.3928921,35.1400068 L31.3541657,34.9573729 L31.3276425,34.8403956 L31.300534,34.727112 L31.2587347,34.5638698 L31.2300846,34.4593355 L31.185889,34.3086977 L31.1555854,34.21222 L31.1245892,34.1187711 L31.0928823,34.02824 L31.0604469,33.940516 L31.0272651,33.8554883 L30.993319,33.773046 L30.9585907,33.6930784 L30.9230623,33.6154745 L30.8867159,33.5401236 L30.8495336,33.4669148 L30.8114974,33.3957374 C30.8050859,33.3840376 30.7986381,33.3724179 30.7921536,33.3608758 C30.6067161,33.0308083 30.4299141,32.8567635 30.1128127,32.6954456 C29.6404214,32.4551278 28.9262284,32.2738263 27.922566,32.1996827 L27.7246814,32.1866834 C27.489569,32.1731087 27.2395403,32.1651562 26.9740463,32.1633802 L26.8593147,32.1629988 L20.618795,32.1629988 L20.618795,19.5771645 L26.8593147,19.5771645 Z" id="Combined-Shape" fill="url(#linearGradient-2)" fill-rule="nonzero" transform="translate(68.618795, 68.618795) rotate(-45.000000) translate(-68.618795, -68.618795) "></path>
            <text id="WebMob" font-family="Poppins-Bold, Poppins" font-size="74" font-weight="bold" fill="#FFFFFF">
                <tspan x="180.621795" y="94.5771645">WebMob</tspan>
            </text>
        </g>
        <g id="Group" transform="translate(310.000000, 1281.000000)">
            <path d="M218.036815,67.6604256 C224.760358,67.6604256 229.700148,70.7264866 232.425828,76.1844394 C233.436463,78.2081526 234.107509,80.4587324 234.579825,83.0763801 L234.620415,83.3045603 L234.659756,83.5323194 L234.71659,83.8742261 L234.753136,84.1030477 L234.806126,84.4488149 L234.857145,84.7990741 L234.890187,85.0358818 L234.938479,85.3972544 L234.98547,85.767471 L235.031412,86.1481634 L235.076555,86.5409635 L235.121151,86.9475033 L235.165452,87.3694146 L235.209708,87.8083294 L235.269082,88.4228196 L235.344725,89.2434139 L235.518294,91.2029198 L235.594679,92.0247404 L235.657252,92.6651191 L235.694473,93.0307421 L235.73154,93.3828842 L235.780849,93.832105 L235.817838,94.1542949 L235.854914,94.4642922 L235.904608,94.8593239 L235.954756,95.2342832 L236.005529,95.5900863 L236.057096,95.9276491 L236.096397,96.1694023 L236.136314,96.4017971 L236.176918,96.6252202 L236.218283,96.840058 L236.26048,97.0466969 L236.303581,97.2455235 L236.347659,97.4369243 L236.392785,97.6212857 L236.439032,97.7989943 L236.486472,97.9704365 L236.518797,98.0814408 L236.568386,98.2432979 L236.61936,98.3999192 L236.671791,98.5516913 L236.707591,98.6503695 L236.762611,98.7949184 L236.819282,98.9356486 L236.877674,99.0729467 L236.959855,99.257424 L236.998513,99.340354 L237.054536,99.4537226 L237.091133,99.5222667 L237.127574,99.5854356 C237.303948,99.878111 237.488277,99.9900231 237.87488,100.031262 L237.957817,100.038822 C237.972142,100.039926 237.986723,100.040955 238.001569,100.041914 L238.093882,100.046855 L238.192923,100.05032 L238.354937,100.053227 L238.534241,100.054034 C239.618342,100.054034 240.306913,99.9123761 240.703195,99.715737 C240.861845,99.637013 240.95794,99.5538951 241.077681,99.3775932 L241.127197,99.3016714 L241.164829,99.2403712 L241.2019,99.1768335 L241.238441,99.1109215 L241.274486,99.0424982 L241.310069,98.9714271 L241.345221,98.8975712 L241.379977,98.8207939 L241.414369,98.7409583 L241.44843,98.6579278 L241.482193,98.5715654 L241.532352,98.4354755 L241.565516,98.3401853 L241.598498,98.2410845 L241.647702,98.0849895 L241.680373,97.9757641 L241.712978,97.8622494 L241.761833,97.683636 L241.810726,97.4946025 L241.843396,97.3625633 L241.892597,97.1551371 L241.925577,97.0104087 L241.992114,96.70487 L242.042652,96.4611059 L242.093859,96.2043058 L242.145847,95.9340082 L242.21657,95.5518174 L242.289144,95.1437162 L242.363832,94.7086103 L242.460568,94.1250858 L242.625475,93.1059479 L242.740051,92.4143439 L242.845765,91.7990572 L242.912906,91.4237826 L242.962188,91.1574663 L243.027232,90.8189634 L243.076036,90.5750704 L243.125305,90.3376308 L243.175441,90.1047509 L243.244333,89.7980637 L243.316434,89.4916265 L243.373189,89.2592621 L243.432687,89.0226192 C243.95544,86.971048 244.649325,85.1976393 245.665838,83.5845654 C248.329913,79.3570248 252.714812,77.1331595 258.465523,77.1331595 C258.742431,77.1331595 259.019032,77.1517449 259.293492,77.1887925 C264.987218,77.9573523 269.015845,80.9647314 271.122869,85.7218163 C271.904066,87.4855457 272.387705,89.383983 272.699442,91.5688601 L272.744384,91.8920321 C272.751584,91.9452483 272.758644,91.9981997 272.765574,92.0509734 L272.795702,92.2858764 L272.832973,92.5939119 L272.876432,92.9833819 L272.909203,93.3032776 L272.94065,93.6348166 L272.963616,93.8934708 L273.001233,94.3485103 L273.038728,94.840124 L273.092562,95.6044101 L273.21308,97.4508342 L273.24826,97.9546823 L273.292976,98.5479237 L273.320309,98.8850301 L273.357465,99.313303 L273.395566,99.7181572 L273.424848,100.006963 L273.454803,100.283468 L273.485491,100.548047 L273.506386,100.717992 L273.527652,100.882914 L273.549307,101.042922 L273.571367,101.198129 L273.60526,101.422179 L273.640167,101.636048 L273.676149,101.840109 L273.700765,101.970887 L273.725903,102.097583 L273.764629,102.280217 L273.791153,102.397194 L273.818261,102.510478 L273.86006,102.67372 L273.88871,102.778255 L273.932906,102.928892 L273.96321,103.02537 L273.994206,103.118819 L274.025913,103.20935 L274.058348,103.297074 L274.09153,103.382102 L274.125476,103.464544 L274.160204,103.544512 L274.195733,103.622116 L274.232079,103.697466 L274.269261,103.770675 L274.307298,103.841853 C274.313709,103.853552 274.320157,103.865172 274.326641,103.876714 C274.512079,104.206782 274.688881,104.380827 275.005982,104.542144 C275.478374,104.782462 276.192567,104.963764 277.196229,105.037907 L277.394114,105.050907 C277.629226,105.064481 277.879255,105.072434 278.144749,105.07421 L284.5,105.074591 L284.5,117.660426 L278.25948,117.660426 C271.339075,117.660426 266.279696,115.086586 263.467242,110.080589 C262.405352,108.190488 261.746988,106.113838 261.333101,103.726331 L261.283014,103.428835 L261.239204,103.155394 L261.184717,102.795059 L261.146525,102.5258 L261.110391,102.255513 L261.076107,101.982502 L261.043461,101.705075 L261.012244,101.421538 L260.982247,101.130199 L260.95326,100.829364 L260.915818,100.410553 L260.870258,99.8529518 L260.834199,99.3747093 L260.788794,98.7301196 L260.732543,97.8776441 L260.686434,97.1600574 L260.644232,96.5393058 L260.610467,96.072929 L260.567983,95.526004 L260.533569,95.1160118 L260.498596,94.7293611 L260.453839,94.2772605 L260.416998,93.9392616 L260.379056,93.6211673 L260.359619,93.469254 L260.339845,93.3219203 L260.309504,93.1092173 L260.278286,92.906075 L260.246121,92.7120471 L260.212936,92.5266876 L260.178664,92.3495504 L260.155176,92.2358065 L260.118932,92.0713816 L260.094065,91.9656996 L260.06861,91.863011 L260.029279,91.7143016 L260.002263,91.6185182 L259.974585,91.5252656 L259.931784,91.3898427 L259.902363,91.3023388 L259.872208,91.216903 L259.841297,91.1334031 L259.809612,91.051707 L259.760583,90.9322558 L259.726867,90.8544908 L259.706671,90.8095236 L259.666085,90.7232138 L259.624874,90.641588 C259.36098,90.1390798 259.03338,89.9076403 258.14509,89.7430038 L258.054544,89.7267494 L258.01098,89.7287037 C257.30207,89.7604589 256.832713,89.8670191 256.546487,90.0025538 L256.513015,90.0189541 C256.396881,90.0778531 256.328385,90.1383896 256.226202,90.2938739 L256.182105,90.3633721 L256.129509,90.4521058 L256.095079,90.513887 L256.061118,90.5779258 L256.027596,90.644357 L255.994479,90.7133153 L255.961736,90.7849354 L255.929334,90.8593522 L255.8813,90.9765158 L255.84961,91.0585137 L255.818149,91.1437798 L255.771316,91.2781018 L255.740286,91.3721282 L255.693949,91.5202222 L255.663149,91.623851 L255.632385,91.7315567 L255.586235,91.901054 L255.55542,92.0195412 L255.524527,92.1425769 L255.477975,92.3359536 L255.415335,92.6109666 L255.367789,92.8306988 L255.30343,93.1425033 L255.237735,93.4768139 L255.187432,93.7429649 L255.11878,94.1192552 L255.030061,94.6255626 L254.956448,95.060678 L254.899532,95.4052626 L254.689675,96.6977395 L254.589291,97.2972707 L254.513105,97.7377905 L254.43943,98.1487967 L254.385185,98.4405964 L254.313354,98.8116071 L254.259272,99.078972 L254.222869,99.2531632 L254.14863,99.5945445 L254.091175,99.8468384 L254.031699,100.098195 L253.969756,100.350657 L253.926869,100.520588 L253.882552,100.692524 C253.342,102.768892 252.620555,104.568224 251.567036,106.199603 C248.835461,110.429458 244.380881,112.639868 238.534241,112.639868 C232.305365,112.639868 227.796427,109.50549 225.455525,104.146177 C224.628402,102.252546 224.087308,100.162717 223.698601,97.6953117 C223.653192,97.4070639 223.611283,97.1275105 223.571707,96.8472864 L223.537155,96.5980972 L223.483294,96.1897587 L223.441659,95.8555026 L223.400888,95.5110659 L223.350535,95.0613689 L223.289986,94.4854623 L223.22804,93.8598727 L223.163359,93.173889 L223.04585,91.8672832 L222.916944,90.4061874 L222.862265,89.8165407 L222.807362,89.2522574 L222.765935,88.8452261 L222.710233,88.3234743 L222.653841,87.8249665 L222.610994,87.4658759 L222.567594,87.1191014 L222.538318,86.8946 L222.493838,86.5676297 L222.448614,86.2521084 L222.402576,85.9477109 L222.355652,85.6541121 L222.323843,85.4642184 L222.291587,85.2788832 L222.242321,85.009217 L222.208857,84.8348567 L222.157681,84.5812014 L222.105262,84.336719 L222.051532,84.1010845 L222.014947,83.9487497 L221.977727,83.8001065 L221.939849,83.6550584 L221.901293,83.5135092 L221.862038,83.3753624 L221.801798,83.1743113 L221.781346,83.1088912 L221.781346,83.1088912 L221.739866,82.9803739 L221.697604,82.8548738 L221.654536,82.7322945 L221.610643,82.6125397 L221.565902,82.495513 L221.520294,82.3811181 L221.473797,82.2692587 C221.465972,82.2508214 221.45811,82.2324857 221.450209,82.2142496 L221.402338,82.1060127 L221.353527,82.0000704 L221.303752,81.8963264 L221.278497,81.8452486 C221.249643,81.787471 221.220739,81.7315655 221.191635,81.6774852 L221.13312,81.5717439 C220.691605,80.796726 220.183115,80.4252915 219.107282,80.2986096 L218.960432,80.2831552 L218.806594,80.2705178 C218.701648,80.2630133 218.591867,80.2573311 218.476901,80.2533597 L218.40145,80.2508747 L218.355179,80.2581853 C217.25287,80.4353492 216.710347,80.8026921 216.256134,81.6809575 L216.197351,81.7984377 C216.168171,81.8586529 216.13928,81.9211005 216.110546,81.9858695 L216.05325,82.1185291 L215.996141,82.2575372 L215.945707,82.3856441 L215.902714,82.4988599 L215.860717,82.6133509 L215.819694,82.7292544 L215.759934,82.9060585 L215.721244,83.0260942 L215.683446,83.148023 L215.646517,83.2719824 L215.610435,83.3981097 L215.557848,83.5916658 L215.507034,83.7908723 L215.457915,83.9961926 L215.426073,84.1366983 L215.394926,84.2802646 L215.364452,84.4270289 L215.334628,84.5771285 L215.291057,84.8088321 L215.248817,85.0488126 L215.221358,85.2136269 L215.194432,85.3824632 L215.168017,85.5554589 L215.1293,85.8230517 L215.0916,86.1007757 L215.054841,86.3890943 L215.007155,86.7908009 L214.972284,87.1056431 L214.938093,87.4326251 L214.893425,87.8882864 L214.84964,88.3674524 L214.81727,88.7429128 L214.774585,89.2658558 L214.742826,89.6754108 L214.711199,90.1003503 L214.658568,90.8440298 L214.595098,91.7975763 L214.493598,93.3801172 L214.435679,94.2353314 L214.389506,94.8786495 L214.354681,95.3394876 L214.307631,95.927736 L214.25947,96.4890845 L214.209754,97.0268559 L214.184175,97.2879385 L214.131297,97.7965739 L214.089915,98.1678475 L214.061402,98.4112834 L214.017108,98.7713557 L213.970818,99.1265762 L213.938757,99.3613866 L213.888724,99.7116358 L213.853993,99.9444299 L213.799698,100.293601 L213.761953,100.526975 C213.268885,103.529844 212.512899,106.105288 211.327218,108.40719 C208.263066,114.355989 202.696746,117.595262 194.975166,117.659453 L194.74052,117.660426 L188.5,117.660426 L188.5,105.074591 L194.74052,105.074591 C196.616777,105.074591 197.899105,104.774918 198.747247,104.287731 C199.364497,103.933173 199.830503,103.422533 200.251167,102.605848 L200.280693,102.547962 L200.338788,102.430641 L200.395625,102.311169 C200.404995,102.291071 200.414313,102.27088 200.42358,102.250593 L200.478573,102.127699 L200.532363,102.002396 L200.558814,101.938809 L200.558814,101.938809 L200.610842,101.8097 L200.636424,101.744152 L200.636424,101.744152 L200.686738,101.611005 C200.695031,101.588582 200.703276,101.566041 200.711476,101.54338 L200.760126,101.405965 L200.807693,101.265575 C200.815532,101.241923 200.823326,101.218143 200.831077,101.194232 L200.877062,101.049188 L200.922018,100.900913 L200.965969,100.749303 L201.008935,100.594257 L201.050939,100.435671 L201.092002,100.273442 L201.132147,100.107469 L201.171395,99.9376471 L201.209767,99.7638749 C201.216091,99.734578 201.222379,99.7051121 201.228632,99.6754752 L201.265733,99.4955843 L201.302014,99.3114857 L201.337496,99.1230767 L201.3722,98.9302546 L201.40615,98.7329164 L201.439367,98.5309596 L201.471872,98.3242812 L201.503688,98.1127785 L201.534836,97.8963488 L201.580353,97.5622412 L201.609927,97.3330442 L201.653186,96.9793039 L201.695189,96.6133215 L201.736008,96.2347502 L201.762599,95.9752041 L201.814391,95.4384532 L201.852102,95.0200338 L201.888925,94.587638 L201.936767,93.9887697 L201.960199,93.6795297 L202.006195,93.0409244 L202.051179,92.3748 L202.182709,90.3251497 L202.250926,89.3110515 L202.307541,88.5208187 L202.362926,87.8046496 L202.402602,87.3296858 L202.43485,86.9672402 L202.467864,86.6171764 L202.519464,86.1088422 L202.555676,85.7768242 L202.593677,85.446861 L202.614182,85.2756028 L202.635288,85.1036924 C202.653138,84.9600477 202.671656,84.8152952 202.690948,84.6683637 C203.039446,82.0141258 203.554824,79.7542583 204.363342,77.6954655 C206.588948,72.0282343 210.962096,68.4239489 217.338556,67.6999422 C217.570394,67.6736185 217.803513,67.6604256 218.036815,67.6604256 Z M194.74052,19.5771645 C201.660925,19.5771645 206.720304,22.1510038 209.532758,27.1570012 C210.594648,29.0471023 211.253012,31.1237523 211.666899,33.5112592 L211.716986,33.8087554 L211.760796,34.0821958 L211.815283,34.4425315 L211.853475,34.7117897 L211.889609,34.9820775 L211.923893,35.2550883 L211.956539,35.5325153 L211.987756,35.8160517 L212.017753,36.1073907 L212.04674,36.4082257 L212.084182,36.8270369 L212.129742,37.3846382 L212.165801,37.8628807 L212.211206,38.5074704 L212.267457,39.359946 L212.313566,40.0775326 L212.355768,40.6982843 L212.389533,41.164661 L212.432017,41.7115861 L212.466431,42.1215782 L212.501404,42.508229 L212.546161,42.9603295 L212.583002,43.2983285 L212.620944,43.6164227 L212.640381,43.768336 L212.660155,43.9156698 L212.690496,44.1283727 L212.721714,44.3315151 L212.753879,44.5255429 L212.787064,44.7109024 L212.821336,44.8880397 L212.844824,45.0017836 L212.881068,45.1662084 L212.905935,45.2718905 L212.93139,45.3745791 L212.970721,45.5232885 L212.997737,45.6190719 L213.025415,45.7123245 L213.068216,45.8477473 L213.097637,45.9352513 L213.127792,46.0206871 L213.158703,46.104187 L213.190388,46.1858831 L213.239417,46.3053343 L213.273133,46.3830993 L213.293329,46.4280665 L213.333915,46.5143763 L213.375126,46.5960021 C213.63902,47.0985102 213.96662,47.3299498 214.85491,47.4945862 L214.945456,47.5106309 L214.98902,47.5088864 C215.69793,47.4771312 216.167287,47.370571 216.453513,47.2350362 L216.486985,47.2186359 C216.603119,47.1597369 216.671615,47.0992004 216.773798,46.9437162 L216.817895,46.8742179 L216.870491,46.7854843 L216.904921,46.723703 L216.938882,46.6596642 L216.972404,46.593233 L217.005521,46.5242748 L217.038264,46.4526546 L217.070666,46.3782378 L217.1187,46.2610743 L217.15039,46.1790764 L217.181851,46.0938103 L217.228684,45.9594883 L217.259714,45.8654619 L217.306051,45.7173679 L217.336851,45.613739 L217.367615,45.5060334 L217.413765,45.3365361 L217.44458,45.2180488 L217.475473,45.0950131 L217.522025,44.9016364 L217.584665,44.6266235 L217.632211,44.4068912 L217.69657,44.0950867 L217.762265,43.7607762 L217.812568,43.4946251 L217.88122,43.1183349 L217.969939,42.6120275 L218.043552,42.1769121 L218.100468,41.8323275 L218.310325,40.5398506 L218.410709,39.9403193 L218.486895,39.4997995 L218.56057,39.0887933 L218.614815,38.7969937 L218.686646,38.425983 L218.740728,38.158618 L218.777131,37.9844269 L218.85137,37.6430455 L218.908825,37.3907517 L218.968301,37.1393952 L219.030244,36.8869331 L219.073131,36.7170018 L219.117448,36.5450656 C219.658,34.4686978 220.379445,32.6693663 221.432964,31.0379869 C224.164539,26.8081319 228.619119,24.5977222 234.465759,24.5977222 C240.694635,24.5977222 245.203573,27.7321005 247.544475,33.0914128 C248.371598,34.9850439 248.912692,37.0748733 249.301399,39.5422784 C249.346808,39.8305262 249.388717,40.1100796 249.428293,40.3903036 L249.462845,40.6394928 L249.516706,41.0478313 L249.558341,41.3820875 L249.599112,41.7265242 L249.649465,42.1762212 L249.710014,42.7521277 L249.77196,43.3777174 L249.836641,44.063701 L249.95415,45.3703069 L250.083056,46.8314026 L250.137735,47.4210493 L250.192638,47.9853326 L250.234065,48.3923639 L250.289767,48.9141157 L250.346159,49.4126235 L250.389006,49.7717141 L250.432406,50.1184887 L250.461682,50.34299 L250.506162,50.6699604 L250.551386,50.9854817 L250.597424,51.2898792 L250.644348,51.5834779 L250.676157,51.7733717 L250.708413,51.9587069 L250.757679,52.2283731 L250.791143,52.4027333 L250.842319,52.6563887 L250.894738,52.900871 L250.948468,53.1365056 L250.985053,53.2888403 L251.022273,53.4374836 L251.060151,53.5825317 L251.098707,53.7240809 L251.137962,53.8622276 L251.198202,54.0632787 C251.204988,54.0852165 251.211805,54.1070226 251.218654,54.1286989 L251.260134,54.2572161 L251.302396,54.3827162 L251.345464,54.5052955 L251.389357,54.6250503 L251.434098,54.742077 L251.479706,54.8564719 L251.526203,54.9683314 C251.534028,54.9867687 251.54189,55.0051044 251.549791,55.0233404 L251.597662,55.1315773 L251.646473,55.2375196 L251.696248,55.3412637 L251.721503,55.3923415 C251.750357,55.4501191 251.779261,55.5060245 251.808365,55.5601049 L251.86688,55.6658462 C252.308395,56.440864 252.816885,56.8122985 253.892718,56.9389804 L254.039568,56.9544349 L254.193406,56.9670723 C254.298352,56.9745767 254.408133,56.9802589 254.523099,56.9842303 L254.59855,56.9865056 L254.644821,56.9794048 C255.74713,56.8022409 256.289653,56.4348979 256.743866,55.5566326 L256.802649,55.4391524 C256.831829,55.3789372 256.86072,55.3164896 256.889454,55.2517206 L256.94675,55.119061 L257.003859,54.9800528 L257.054293,54.851946 L257.097286,54.7387301 L257.139283,54.6242391 L257.180306,54.5083356 L257.240066,54.3315315 L257.278756,54.2114959 L257.316554,54.089567 L257.353483,53.9656077 L257.389565,53.8394804 L257.442152,53.6459242 L257.492966,53.4467178 L257.542085,53.2413974 L257.573927,53.1008918 L257.605074,52.9573254 L257.635548,52.8105611 L257.665372,52.6604615 L257.708943,52.428758 L257.751183,52.1887774 L257.778642,52.0239631 L257.805568,51.8551268 L257.831983,51.6821311 L257.8707,51.4145383 L257.9084,51.1368144 L257.945159,50.8484957 L257.992845,50.4467891 L258.027716,50.1319469 L258.061907,49.8049649 L258.106575,49.3493036 L258.15036,48.8701377 L258.18273,48.4946773 L258.225415,47.9717343 L258.257174,47.5621793 L258.288801,47.1372397 L258.341432,46.3935603 L258.404902,45.4400138 L258.506402,43.8574728 L258.564321,43.0022587 L258.610494,42.3589405 L258.645319,41.8981025 L258.692369,41.3098541 L258.74053,40.7485055 L258.790246,40.2107342 L258.815825,39.9496516 L258.868703,39.4410161 L258.910085,39.0697425 L258.938598,38.8263067 L258.982892,38.4662344 L259.029182,38.1110139 L259.061243,37.8762034 L259.111276,37.5259542 L259.146007,37.2931601 L259.200302,36.9439886 L259.238047,36.710615 C259.731115,33.7077463 260.487101,31.1323022 261.672782,28.8303998 C264.736934,22.8816012 270.303254,19.6423279 278.024834,19.5781373 L284.5,19.5771645 L284.5,32.1629988 L278.25948,32.1629988 C276.383223,32.1629988 275.100895,32.462672 274.252753,32.9498586 C273.635503,33.3044175 273.169497,33.8150572 272.748833,34.6317424 L272.719307,34.6896278 L272.661212,34.8069486 L272.604375,34.9264215 L272.57642,34.9869971 L272.57642,34.9869971 L272.521427,35.109891 L272.467637,35.2351939 C272.458771,35.2562842 272.449954,35.2774792 272.441186,35.2987809 L272.389158,35.4278902 L272.363576,35.4934382 L272.363576,35.4934382 L272.313262,35.626585 C272.304969,35.6490083 272.296724,35.6715491 272.288524,35.6942096 L272.239874,35.8316253 L272.192307,35.9720153 L272.168923,36.0433578 L272.168923,36.0433578 L272.122938,36.188402 L272.077982,36.3366775 L272.034031,36.4882871 L271.991065,36.6433335 L271.949061,36.8019195 L271.907998,36.9641479 L271.867853,37.1301215 L271.828605,37.2999429 L271.790233,37.4737151 C271.783909,37.5030121 271.777621,37.5324779 271.771368,37.5621148 L271.734267,37.7420058 L271.697986,37.9261043 L271.662504,38.1145133 L271.6278,38.3073355 L271.59385,38.5046736 L271.560633,38.7066305 L271.528128,38.9133089 L271.496312,39.1248115 L271.465164,39.3412412 L271.419647,39.6753489 L271.390073,39.9045459 L271.346814,40.2582862 L271.304811,40.6242686 L271.263992,41.0028399 L271.237401,41.2623859 L271.185609,41.7991369 L271.147898,42.2175563 L271.111075,42.6499521 L271.063233,43.2488204 L271.039801,43.5580603 L270.993805,44.1966656 L270.948821,44.86279 L270.817291,46.9124403 L270.749074,47.9265386 L270.692459,48.7167713 L270.637074,49.4329405 L270.597398,49.9079043 L270.56515,50.2703499 L270.532136,50.6204137 L270.480536,51.1287478 L270.444324,51.4607659 L270.406323,51.7907291 L270.385818,51.9619873 L270.364712,52.1338977 C270.346862,52.2775424 270.328344,52.4222948 270.309052,52.5692263 C269.960554,55.2234643 269.445176,57.4833317 268.636658,59.5421246 C266.411052,65.2093558 262.037904,68.8136412 255.661444,69.5376479 C255.429606,69.5639716 255.196487,69.5771645 254.963185,69.5771645 C248.239642,69.5771645 243.299852,66.5111035 240.574172,61.0531507 C239.563537,59.0294375 238.892491,56.7788576 238.420175,54.16121 L238.379585,53.9330297 L238.340244,53.7052707 L238.28341,53.363364 L238.246864,53.1345423 L238.193874,52.7887752 L238.142855,52.4385159 L238.109813,52.2017082 L238.061521,51.8403356 L238.01453,51.4701191 L237.968588,51.0894267 L237.923445,50.6966266 L237.878849,50.2900868 L237.834548,49.8681755 L237.790292,49.4292606 L237.730918,48.8147704 L237.655275,47.9941762 L237.481706,46.0346703 L237.405321,45.2128497 L237.342748,44.5724709 L237.305527,44.206848 L237.26846,43.8547058 L237.219151,43.4054851 L237.182162,43.0832952 L237.145086,42.7732978 L237.095392,42.3782661 L237.045244,42.0033068 L236.994471,41.6475038 L236.942904,41.3099409 L236.903603,41.0681878 L236.863686,40.8357929 L236.823082,40.6123698 L236.781717,40.3975321 L236.73952,40.1908931 L236.696419,39.9920665 L236.652341,39.8006657 L236.607215,39.6163043 L236.560968,39.4385958 L236.513528,39.2671536 L236.481203,39.1561493 L236.431614,38.9942922 L236.38064,38.8376708 L236.328209,38.6858988 L236.292409,38.5872205 L236.237389,38.4426717 L236.180718,38.3019415 L236.122326,38.1646434 L236.040145,37.9801661 L236.001487,37.897236 L235.945464,37.7838674 L235.908867,37.7153233 L235.872426,37.6521544 C235.696052,37.359479 235.511723,37.2475669 235.12512,37.2063277 L235.042183,37.1987678 C235.027858,37.1976639 235.013277,37.1966349 234.998431,37.1956764 L234.906118,37.1907355 L234.807077,37.1872697 L234.645063,37.1843629 L234.465759,37.1835565 C233.381658,37.1835565 232.693087,37.3252139 232.296805,37.521853 C232.138155,37.600577 232.04206,37.6836949 231.922319,37.8599968 L231.872803,37.9359187 L231.835171,37.9972188 L231.7981,38.0607565 L231.761559,38.1266686 L231.725514,38.1950918 L231.689931,38.266163 L231.654779,38.3400188 L231.620023,38.4167961 L231.585631,38.4966317 L231.55157,38.5796623 L231.517807,38.6660247 L231.467648,38.8021145 L231.434484,38.8974048 L231.401502,38.9965056 L231.352298,39.1526006 L231.319627,39.261826 L231.287022,39.3753406 L231.238167,39.553954 L231.189274,39.7429875 L231.156604,39.8750268 L231.107403,40.0824529 L231.074423,40.2271813 L231.007886,40.53272 L230.957348,40.7764842 L230.906141,41.0332843 L230.854153,41.3035819 L230.78343,41.6857726 L230.710856,42.0938739 L230.636168,42.5289797 L230.539432,43.1125042 L230.374525,44.1316421 L230.259949,44.8232461 L230.154235,45.4385328 L230.087094,45.8138074 L230.037812,46.0801237 L229.972768,46.4186266 L229.923964,46.6625197 L229.874695,46.8999592 L229.824559,47.1328391 L229.755667,47.4395263 L229.683566,47.7459636 L229.626811,47.978328 L229.567313,48.2149709 C229.04456,50.2665421 228.350675,52.0399507 227.334162,53.6530246 C224.670087,57.8805652 220.285188,60.1044306 214.534477,60.1044306 C214.257569,60.1044306 213.980968,60.0858452 213.706508,60.0487975 C208.012782,59.2802377 203.984155,56.2728587 201.877131,51.5157738 C201.095934,49.7520444 200.612295,47.853607 200.300558,45.66873 L200.255616,45.3455579 C200.248416,45.2923417 200.241356,45.2393904 200.234426,45.1866166 L200.204298,44.9517137 L200.167027,44.6436782 L200.123568,44.2542082 L200.090797,43.9343125 L200.05935,43.6027734 L200.036384,43.3441192 L199.998767,42.8890797 L199.961272,42.3974661 L199.907438,41.63318 L199.78692,39.7867558 L199.75174,39.2829077 L199.707024,38.6896663 L199.679691,38.3525599 L199.642535,37.9242871 L199.604434,37.5194328 L199.575152,37.2306273 L199.545197,36.9541221 L199.514509,36.689543 L199.493614,36.519598 L199.472348,36.3546765 L199.450693,36.1946676 L199.428633,36.0394606 L199.39474,35.8154112 L199.359833,35.6015425 L199.323851,35.3974807 L199.299235,35.266703 L199.274097,35.1400068 L199.235371,34.9573729 L199.208847,34.8403956 L199.181739,34.727112 L199.13994,34.5638698 L199.11129,34.4593355 L199.067094,34.3086977 L199.03679,34.21222 L199.005794,34.1187711 L198.974087,34.02824 L198.941652,33.940516 L198.90847,33.8554883 L198.874524,33.773046 L198.839796,33.6930784 L198.804267,33.6154745 L198.767921,33.5401236 L198.730739,33.4669148 L198.692702,33.3957374 C198.686291,33.3840376 198.679843,33.3724179 198.673359,33.3608758 C198.487921,33.0308083 198.311119,32.8567635 197.994018,32.6954456 C197.521626,32.4551278 196.807433,32.2738263 195.803771,32.1996827 L195.605886,32.1866834 C195.370774,32.1731087 195.120745,32.1651562 194.855251,32.1633802 L194.74052,32.1629988 L188.5,32.1629988 L188.5,19.5771645 L194.74052,19.5771645 Z" id="Combined-Shape" fill="url(#linearGradient-2)" fill-rule="nonzero" transform="translate(236.500000, 68.618795) rotate(-45.000000) translate(-236.500000, -68.618795) "></path>
            <text id="Web" font-family="Poppins-Bold, Poppins" font-size="74" font-weight="bold" fill="#1D1D21">
                <tspan x="5.161" y="94.5771645">Web</tspan>
            </text>
            <text id="Web" font-family="Poppins-Bold, Poppins" font-size="74" font-weight="bold" fill="#FFFFFF">
                <tspan x="0.161" y="94.5771645">Web</tspan>
            </text>
            <text id="Mob" font-family="Poppins-Bold, Poppins" font-size="74" font-weight="bold" fill="#1D1D21">
                <tspan x="291.342" y="94.5771645">Mob</tspan>
            </text>
            <text id="Mob" font-family="Poppins-Bold, Poppins" font-size="74" font-weight="bold" fill="#FFFFFF">
                <tspan x="296.342" y="94.5771645">Mob</tspan>
            </text>
        </g>
        <text id="WebMob" font-family="Poppins-Bold, Poppins" font-size="54" font-weight="bold" fill="#FFFFFF">
            <tspan x="416.313" y="401">WebMob</tspan>
        </text>
        <rect id="Rectangle" fill="#CFCED7" opacity="0.243344262" x="0" y="1080" width="1080" height="1"></rect>
        <rect id="Rectangle" fill="#CFCED7" opacity="0.243344262" x="0" y="540" width="1080" height="1"></rect>
    </g>
</svg>