<?xml version="1.0" encoding="UTF-8"?>
<svg width="1080px" height="1080px" viewBox="0 0 1080 1080" version="1.1" xmlns="http://www.w3.org/2000/svg" xmlns:xlink="http://www.w3.org/1999/xlink">
    <title>waveform-02-mixed</title>
    <defs>
        <linearGradient x1="50%" y1="100%" x2="50.5995717%" y2="0%" id="linearGradient-1">
            <stop stop-color="#7C39FF" offset="0%"></stop>
            <stop stop-color="#04B9FF" offset="49.7267007%"></stop>
            <stop stop-color="#00EBBF" offset="100%"></stop>
        </linearGradient>
    </defs>
    <g id="waveform-02-mixed" stroke="none" stroke-width="1" fill="none" fill-rule="evenodd">
        <rect fill="#1D1D21" x="0" y="0" width="1080" height="1080"></rect>
        <g id="Group" transform="translate(539.500000, 540.000000) rotate(-45.000000) translate(-539.500000, -540.000000) translate(378.000000, 375.000000)" fill-rule="nonzero">
            <path d="M125.069474,106.446785 L125.069474,125.756852 C125.069474,131.562564 125.987827,135.530476 127.480817,138.154885 C128.567368,140.064846 130.132231,141.506809 132.634975,142.808473 L132.991327,142.990205 L133.354116,143.168015 L133.723658,143.341968 L134.100268,143.512134 L134.484261,143.678578 L134.875951,143.841369 C134.941892,143.8682 135.008167,143.894882 135.074782,143.921416 L135.478609,144.078854 C135.614615,144.130749 135.752035,144.182063 135.890921,144.232807 L136.312034,144.383344 L136.742261,144.530531 C136.814742,144.554787 136.887617,144.578906 136.960891,144.60289 L137.405381,144.74518 L137.859774,144.884289 L138.324383,145.020286 L138.799525,145.153236 L139.285515,145.283209 L139.782666,145.410272 L140.291294,145.534492 L140.811715,145.655936 L141.344242,145.774673 L141.889191,145.890769 L142.446878,146.004293 L143.017616,146.115312 L143.601721,146.223893 L144.199507,146.330103 L145.122529,146.485123 L145.755898,146.585704 L146.404051,146.684152 L147.067303,146.780533 L148.091181,146.921378 L149.150803,147.057954 L149.877601,147.146746 L150.999159,147.276714 L152.159297,147.40302 L153.359076,147.525893 L154.599561,147.645561 L155.881813,147.762251 L157.206896,147.876192 L158.575873,147.987611 L159.989807,148.096737 L161.946823,148.239063 L163.98817,148.378258 L171.217188,148.848409 L173.950498,149.036777 L176.399457,149.217028 L178.313212,149.369165 L180.377476,149.548679 L181.769248,149.681072 L182.580684,149.76312 L183.907354,149.905587 L185.218941,150.05691 L186.535141,150.219059 L187.335268,150.322364 L187.604658,150.357896 C195.738609,151.436254 202.664006,153.030991 208.973207,155.532794 C226.166847,162.350627 246.938632,176.666488 249.309693,196.077108 L249.378901,196.667169 L249.5,197.744079 L249.5,198.827795 C249.5,219.632483 230.329745,233.932582 213.603768,242.366665 C207.402069,245.493875 200.505134,247.570297 192.483315,249.031786 L191.784053,249.157384 L191.086082,249.279118 L190.038304,249.454979 L189.337077,249.568064 L188.277468,249.732032 L187.204094,249.8899 L186.478393,249.992141 L185.370961,250.141571 L184.236427,250.286976 L183.06979,250.429133 L181.866048,250.56882 L180.620201,250.706814 L178.884931,250.889518 L177.521389,251.026588 L175.611041,251.210882 L173.584349,251.39862 L167.579415,251.935696 L165.060933,252.172055 L163.098483,252.365673 L160.898882,252.595544 L159.522238,252.74812 L158.534882,252.862576 L157.584891,252.9773 L156.374311,253.131069 L155.225242,253.286242 L154.134879,253.443347 L153.100412,253.602914 L152.359556,253.724523 L151.647379,253.848037 L150.962696,253.97368 L150.304322,254.101674 L149.671074,254.232244 L149.061767,254.365613 L148.475216,254.502002 L147.910238,254.641637 L147.365648,254.78474 L146.840261,254.931534 L146.500086,255.031557 L146.167569,255.133387 L145.842359,255.237088 L145.524104,255.342728 L145.058997,255.504966 L144.756596,255.615741 L144.313624,255.785991 L143.882354,255.961347 L143.461602,256.14203 L142.896268,256.396323 L142.642128,256.515944 L142.40612,256.632125 C142.36826,256.651268 142.331127,256.670317 142.294708,256.689296 L142.084654,256.802537 L141.891072,256.915298 C140.994164,257.461051 140.651208,258.031421 140.52483,259.22769 L140.501662,259.484321 L140.484011,259.759998 L140.471213,260.055903 L140.459661,260.540277 L140.455294,261.076821 L140.455047,261.267953 C140.455047,264.622492 140.889158,266.753141 141.491761,267.979356 C141.753117,268.511178 142.030274,268.81583 142.669185,269.232439 L142.853768,269.349794 L143.045,269.465358 L143.243298,269.579234 L143.449081,269.691524 L143.66277,269.80233 L143.884783,269.911755 L144.11554,270.0199 L144.355459,270.126869 L144.733433,270.28534 L144.998092,270.389814 L145.415142,270.545022 L145.70716,270.647641 L146.167214,270.800545 L146.489211,270.901948 L146.823934,271.003043 L147.171801,271.103933 L147.719165,271.255106 L148.298461,271.406394 L148.703097,271.507485 L149.338757,271.659729 L149.78228,271.761778 L150.718607,271.967663 L151.465626,272.124045 L152.252594,272.282495 L153.080925,272.443361 L154.252154,272.662201 L155.502786,272.886765 L156.836175,273.117873 L158.624394,273.417205 L162.917659,274.121886 L164.634323,274.413453 L165.892381,274.633993 L167.345363,274.899028 L167.895341,275.003015 L168.692695,275.158076 L169.462518,275.313234 L170.45701,275.522594 L170.944769,275.629239 L171.415649,275.734768 C172.354923,275.947817 173.28273,276.17355 174.260978,276.425236 C180.548048,278.042793 185.982685,280.189882 190.925973,283.335283 C203.75178,291.496308 219.529418,302.182947 219.664289,319.715664 L219.666333,320.248228 L219.666333,321.53491 L219.495845,322.810216 C217.140582,340.428338 198.954493,355.587311 184.376337,362.107086 C178.971362,364.524348 173.153573,366.020874 166.457985,366.985483 C165.453609,367.130179 164.497674,367.257296 163.5325,367.373004 L162.574033,367.483811 L161.609422,367.587258 L160.360335,367.710141 L159.311898,367.80486 L157.629403,367.943941 L156.101065,368.059834 L153.721691,368.227083 L148.432589,368.574834 L146.888539,368.683691 L145.070542,368.822058 L144.037475,368.906634 L142.725026,369.021606 L141.484345,369.139502 L140.599296,369.23011 L139.751941,369.322799 L138.941135,369.417756 L138.165731,369.515168 L137.424582,369.615222 L136.948948,369.683485 L136.48769,369.753061 L135.822014,369.860006 L135.395209,369.933106 L134.981591,370.007712 L134.580821,370.08388 L134.192559,370.161665 L133.632874,370.281496 L133.274396,370.363567 L132.927237,370.447449 L132.426978,370.576789 L132.106631,370.665441 L131.796415,370.756098 L131.49599,370.848815 L131.205016,370.943648 L130.923153,371.040653 L130.650063,371.139884 C130.60526,371.156611 130.560809,371.173433 130.516702,371.190351 L130.256133,371.293026 L130.003487,371.398065 L129.758425,371.505525 L129.520607,371.615461 L129.289693,371.727928 L129.065344,371.842981 L128.84722,371.960677 C128.811365,371.980516 128.775756,372.000468 128.740386,372.020533 C127.728889,372.594333 127.195526,373.141412 126.701165,374.12262 C125.964708,375.584342 125.409107,377.794273 125.181892,380.89991 L125.142056,381.512225 C125.136113,381.616155 125.130522,381.721027 125.125287,381.826846 L125.098198,382.473161 C125.083043,382.911665 125.073753,383.365479 125.070643,383.834919 L137.859774,390.569603 L125.069474,403.5 L86.5,403.5 L86.5,384.189933 C86.5,362.776093 94.3875685,347.120833 109.728521,338.418247 C115.520764,335.132435 121.884688,333.095256 129.201238,331.814565 L130.112919,331.65958 L130.950881,331.524017 L132.055135,331.355418 L132.880281,331.237241 L133.708582,331.125433 L134.545228,331.019345 L135.395407,330.918329 L135.972274,330.853482 L136.85654,330.759476 L137.768176,330.668811 L139.362487,330.523363 L141.071265,330.382388 L142.536846,330.27081 L144.5122,330.130314 L147.124624,329.956254 L149.323679,329.813579 L151.225982,329.682994 L152.6552,329.578515 L154.33126,329.447055 L155.587687,329.340569 L156.772584,329.232352 L158.158052,329.093861 L159.193855,328.979863 L160.16866,328.862458 L160.6342,328.802315 L161.085707,328.741128 L161.737538,328.647245 L162.360071,328.550647 L162.954672,328.451116 L163.522709,328.348434 L164.065548,328.242384 L164.414118,328.169704 L164.918001,328.057556 L165.241865,327.98061 L165.556556,327.901844 L166.012278,327.780143 L166.449638,327.653984 L166.731686,327.567295 L167.141483,327.433224 L167.536563,327.294115 L167.79245,327.19847 L168.042809,327.100424 L168.408869,326.948714 L168.64718,326.844386 L168.784983,326.781896 L169.049481,326.656309 C170.721471,325.835174 171.483769,324.891659 172.013081,322.16331 L172.102376,321.672928 L172.097172,321.53491 C171.999857,319.341328 171.673302,317.888994 171.257954,317.003323 L171.207695,316.899751 C171.027198,316.540397 170.841683,316.328449 170.365199,316.012263 L170.152221,315.875815 L169.880295,315.713066 L169.690966,315.606529 L169.494718,315.501446 L169.291139,315.397717 L169.079815,315.295244 L168.860334,315.193926 L168.632283,315.093663 L168.395248,314.994358 L168.148817,314.895909 L167.892577,314.798217 L167.626115,314.701184 L167.349018,314.604709 L167.060873,314.508692 L166.607037,314.365311 L166.289465,314.270007 L165.959399,314.174813 L165.439972,314.032012 L165.076866,313.93666 L164.699822,313.84107 L164.107216,313.697022 L163.264435,313.503197 L162.591062,313.356072 L161.635532,313.156927 L160.611033,312.953648 L159.795409,312.797995 L158.642262,312.585564 L157.090676,312.311039 L155.757258,312.08326 L154.701274,311.907144 L151.074045,311.313233 L149.52345,311.053148 L147.749576,310.746205 L146.760801,310.569047 L145.820363,310.3953 L144.921446,310.223458 L144.057238,310.052012 L143.497017,309.93719 L142.675516,309.763053 L142.137458,309.645041 L141.604732,309.524971 L141.089999,309.40584 C140.23369,309.205086 139.382701,308.992757 138.498382,308.7603 C132.135322,307.087667 126.621245,304.855297 121.621858,301.595386 C108.659406,293.143061 101.885573,279.359238 101.885573,261.267953 C101.885573,241.993916 114.52719,222.605434 130.950881,215.361969 C136.753942,212.802602 140.121985,216.564744 147.683384,215.361969 C148.655058,215.207407 149.594492,215.065953 150.539886,214.932793 L151.553729,214.793491 L153.072018,214.597686 L154.118192,214.471106 L155.202869,214.346267 L156.923292,214.159597 L159.111198,213.937787 L160.820441,213.773258 L163.45873,213.529306 L170.021013,212.943283 L171.827994,212.77409 L173.557248,212.604202 L174.804602,212.476016 L176.403518,212.303655 L177.931202,212.129163 L179.03164,211.996582 L180.094336,211.862289 L180.782324,211.7717 L181.784329,211.634063 L182.751249,211.494127 L183.684079,211.351672 L184.583817,211.206476 L185.165749,211.108048 L185.733712,211.008239 L186.560108,210.855794 L187.094437,210.752248 L187.871768,210.593891 L188.620988,210.431694 L189.343093,210.265435 L189.809925,210.152231 L190.265445,210.037059 L190.709947,209.919854 L191.143726,209.800551 L191.567079,209.679083 L192.183203,209.492683 C192.250432,209.471685 192.317257,209.45059 192.383684,209.429397 L192.777527,209.301047 L193.162124,209.170273 L193.53777,209.037009 L193.90476,208.901189 L194.26339,208.762749 L194.613955,208.621624 L194.95675,208.477748 C195.013252,208.453536 195.069442,208.429206 195.125326,208.404758 L195.45702,208.256633 L195.781682,208.105594 L196.099607,207.951576 L196.431289,207.784078 L196.770249,207.604653 C199.808634,205.953654 200.967158,204.095865 201.134502,199.20444 L201.141333,198.968395 L201.119714,198.827795 C200.51778,195.046168 199.199456,193.393706 195.825201,191.882216 L195.418663,191.704924 L194.992671,191.528213 L194.600085,191.372155 L194.253134,191.23912 L193.902275,191.109169 L193.547087,190.982232 L193.005268,190.797317 L192.637417,190.677597 L192.263764,190.560639 L191.883889,190.446371 L191.49737,190.334721 L190.904214,190.171999 L190.293743,190.014766 L189.664536,189.862779 L189.233954,189.764249 L188.793993,189.667872 L188.344232,189.573576 L187.884249,189.481289 L187.17419,189.346468 L186.686814,189.25889 L185.933691,189.130798 L185.416289,189.047481 L184.886141,188.965744 L184.066099,188.845941 L183.21501,188.729289 L182.331453,188.615544 L181.100418,188.467989 L180.135579,188.360088 L179.133538,188.254289 L177.737157,188.116073 L176.642786,188.014236 L175.118142,187.880426 L173.515576,187.748345 L172.260488,187.650074 L170.958255,187.55221 L168.679238,187.389354 L165.757081,187.192959 L160.907361,186.878887 L158.286545,186.699668 L156.315087,186.556797 L154.902842,186.449037 L153.100146,186.30345 L151.379885,186.154424 L149.731877,186.000589 L148.931786,185.921439 L147.373065,185.757817 L146.235292,185.629768 L145.489279,185.541542 L144.385832,185.404484 L143.297253,185.261248 L142.577673,185.162039 L141.50433,185.007222 L140.790929,184.899756 L139.720887,184.731749 L139.00571,184.614955 C129.803375,183.089253 121.910889,180.750002 114.856675,177.081143 C96.6264948,167.599724 86.6996942,150.375836 86.5029812,126.48292 L86.5,125.756852 L86.5,106.446785 L99.2900666,93.5 L125.069474,106.446785 Z" id="Combined-Shape" fill="url(#linearGradient-1)" transform="translate(168.000000, 248.500000) rotate(-90.000000) translate(-168.000000, -248.500000) "></path>
            <path d="M112.101497,-60.6523319 L112.101497,-41.3358219 C112.101497,-35.528172 113.020613,-31.5589358 114.514843,-28.9336518 C115.602296,-27.0230533 117.168458,-25.5806092 119.67328,-24.2785113 L120.029927,-24.0967178 L120.393018,-23.918849 L120.762867,-23.7448374 L121.13979,-23.5746154 L121.524101,-23.4081154 L121.916117,-23.2452699 C121.982112,-23.2184298 122.048442,-23.1917391 122.115112,-23.1651965 L122.519275,-23.007706 C122.655393,-22.9557939 122.792928,-22.9044627 122.931929,-22.8537011 L123.353391,-22.7031143 L123.783976,-22.5558779 C123.856518,-22.531614 123.929453,-22.5074868 124.002788,-22.4834951 L124.447647,-22.3411577 L124.902417,-22.202002 L125.367412,-22.0659603 L125.842949,-21.932965 L126.329341,-21.8029487 L126.826905,-21.6758437 L127.335956,-21.5515825 L127.856809,-21.4300975 L128.389778,-21.3113212 L128.93518,-21.195186 L129.493329,-21.0816244 L130.064541,-20.9705688 L130.649131,-20.8619517 L131.247414,-20.7557054 L132.171202,-20.6006336 L132.805097,-20.500019 L133.453788,-20.4015389 L134.117591,-20.3051256 L135.142319,-20.1642333 L136.202821,-20.0276115 L136.930222,-19.9387902 L138.052712,-19.8087792 L139.213812,-19.6824306 L140.414588,-19.5595165 L141.656102,-19.4398089 L142.939419,-19.3230797 L144.265603,-19.2091009 L145.635716,-19.0976445 L147.050824,-18.9884826 L149.009464,-18.8461084 L151.052507,-18.7068674 L158.287527,-18.2365594 L161.023106,-18.0481286 L163.474098,-17.8678173 L165.389442,-17.7156297 L167.455421,-17.5360558 L168.848348,-17.4036191 L169.660457,-17.3215435 L170.988229,-17.1790292 L172.300906,-17.0276555 L173.618198,-16.8654522 L174.41899,-16.7621126 L174.688603,-16.7265685 C182.829307,-15.647851 189.760454,-14.0525815 196.074894,-11.5499447 C213.282809,-4.72983587 233.936505,9.59080107 236.309535,29.0078978 L236.3788,29.5981559 L236.5,30.6754258 L236.5,31.7595032 C236.5,52.5711327 217.449163,66.876003 200.7093,75.3129004 C194.502452,78.441154 187.59979,80.5182689 179.57131,81.9802457 L178.871468,82.1058847 L178.172918,82.2276594 L177.12427,82.4035799 L176.42246,82.5167021 L175.361972,82.6807245 L174.287706,82.8386454 L173.561403,82.9409203 L172.453052,83.0904007 L171.317576,83.2358541 L170.14997,83.3780586 L168.945229,83.517792 L167.698347,83.6558325 L165.961636,83.8385975 L164.596962,83.975713 L162.685028,84.1600687 L160.656654,84.3478689 L154.646733,84.8851242 L152.126161,85.1215621 L150.162081,85.3152448 L147.960653,85.545192 L146.582867,85.6978189 L145.594691,85.812313 L144.643911,85.9270757 L143.432326,86.0808964 L142.282303,86.2361209 L141.191034,86.3932785 L140.155709,86.5528984 L139.414238,86.6745477 L138.701469,86.7981031 L138.016217,86.9237878 L137.357297,87.0518253 L136.723524,87.1824388 L136.113711,87.3158516 L135.526673,87.4522869 L134.961226,87.5919682 L134.416183,87.7351186 L133.89036,87.8819615 L133.549903,87.9820184 L133.21711,88.0838818 L132.89163,88.1876179 L132.573111,88.2932928 L132.107617,88.4555852 L131.804965,88.5663966 L131.361625,88.7367039 L130.929997,88.9121179 L130.508896,89.0928619 L129.943093,89.3472396 L129.688742,89.4669002 L129.452538,89.5831204 C129.414646,89.6022695 129.377482,89.6213245 129.341034,89.6403102 L129.130805,89.7535893 L128.937062,89.8663873 C128.039409,90.4123226 127.696168,90.9828835 127.569685,92.1795508 L127.546498,92.4362681 L127.528833,92.7120368 L127.516024,93.0080404 L127.504463,93.4925761 L127.500092,94.0292993 L127.499844,94.2204948 C127.499844,97.5761531 127.934316,99.707513 128.53742,100.934138 C128.798992,101.466137 129.07638,101.770891 129.715821,102.187639 L129.900558,102.305033 L130.091948,102.420635 L130.29041,102.534549 L130.496365,102.646876 L130.710231,102.757719 L130.932429,102.867181 L131.163377,102.975363 L131.403495,103.082367 L131.781783,103.240891 L132.046662,103.3454 L132.464058,103.500659 L132.756318,103.603312 L133.216754,103.756268 L133.539019,103.857704 L133.87402,103.958833 L134.222176,104.059757 L134.769994,104.210981 L135.349771,104.362319 L135.754743,104.463444 L136.390931,104.615739 L136.834822,104.717821 L137.771927,104.923776 L138.519566,105.080209 L139.307187,105.238713 L140.136206,105.399632 L141.308407,105.618545 L142.560078,105.843184 L143.894573,106.074369 L145.684277,106.3738 L149.981106,107.078717 L151.699197,107.370382 L152.958299,107.590995 L154.412487,107.856118 L154.962921,107.96014 L155.760938,108.115253 L156.5314,108.270462 L157.526718,108.479892 L158.014882,108.586573 L158.486152,108.692137 C159.426206,108.905257 160.354784,109.131065 161.333844,109.382836 C167.626134,111.000932 173.065283,113.148738 178.012676,116.295188 C190.849132,124.458936 209.546401,129.34031 209.681385,146.878876 L209.68343,147.411618 L209.68343,148.698729 L209.5128,149.974462 C207.155582,167.598462 186.047862,188.571325 171.457601,195.093275 C166.048139,197.511343 160.22552,199.008369 153.524373,199.973299 C152.519162,200.118044 151.562434,200.245203 150.596459,200.36095 L149.637196,200.471794 L148.671784,200.575275 L147.421659,200.6982 L146.372352,200.792949 L144.68846,200.932078 L143.158853,201.048008 L140.777504,201.215314 L135.484011,201.563181 L133.938679,201.672074 L132.119172,201.810487 L131.085247,201.895091 L129.771709,202.010101 L128.529997,202.128037 L127.644213,202.218675 L126.796155,202.311395 L125.984676,202.406384 L125.208628,202.503829 L124.466864,202.603916 L123.990835,202.672202 L123.529193,202.7418 L122.862965,202.848782 L122.435805,202.921906 L122.021844,202.996536 L121.620741,203.07273 L121.232157,203.150541 L120.672008,203.270412 L120.313232,203.35251 L119.965784,203.43642 L119.465111,203.565803 L119.144498,203.654485 L118.834024,203.745172 L118.533349,203.837921 L118.242133,203.932785 L117.960037,204.029822 L117.68672,204.129086 C117.64188,204.145819 117.597392,204.162647 117.553248,204.179571 L117.292463,204.28228 L117.039607,204.387354 L116.794342,204.49485 L116.556326,204.604822 L116.32522,204.717327 L116.100685,204.832419 L115.88238,204.950153 C115.846496,204.969999 115.810857,204.989957 115.775457,205.010029 C114.76312,205.58402 114.229315,206.131282 113.734543,207.112818 C112.997474,208.575028 112.441412,210.785696 112.214009,213.892369 L112.174139,214.504889 C112.168192,214.608853 112.162596,214.71376 112.157357,214.819614 L112.130245,215.466145 C112.115078,215.904796 112.10578,216.358761 112.102667,216.828357 L124.902417,223.657028 L112.101497,236.5 L73.5,236.5 L73.5,217.18349 C73.5,195.762504 81.3941173,180.102021 96.7478071,171.396531 C102.544859,168.109623 108.914067,166.071764 116.236692,164.790646 L117.14913,164.63561 L117.987788,164.5 L119.092959,164.331346 L119.91879,164.213129 L120.747778,164.101284 L121.585119,163.995161 L122.436004,163.894111 L123.01335,163.829242 L123.89835,163.735205 L124.810743,163.644509 L126.406378,163.499014 L128.116574,163.357992 L129.583372,163.246376 L131.560367,163.105833 L134.174959,162.931715 L136.37584,162.788992 L138.279722,162.658364 L139.710127,162.55385 L141.387579,162.422346 L142.645049,162.315824 L143.830929,162.207571 L145.217549,162.069034 L146.254211,161.954998 L147.229825,161.837554 L147.695752,161.777391 L148.147633,161.716183 L148.800006,161.622269 L149.423056,161.525639 L150.01815,161.426075 L150.586659,161.323358 L151.129949,161.217273 L151.478809,161.144569 L151.983109,161.032384 L152.307242,160.955412 L152.622195,160.87662 L153.078295,160.754878 L153.516019,160.628677 L153.798301,160.541959 L154.208438,160.407843 L154.603846,160.268688 L154.859945,160.173011 L155.110512,160.074932 L155.476876,159.923172 L155.715385,159.818809 L155.853303,159.756298 L156.11802,159.630669 C157.791399,158.80926 158.55433,157.86543 159.08408,155.13617 L159.17345,154.645625 L159.168241,154.507561 C159.070846,152.313247 158.74402,150.860428 158.328327,149.974462 L158.278026,149.870855 C158.097379,149.511382 157.91171,149.299363 157.434831,148.983072 L157.221675,148.846578 L156.949524,148.683774 L156.760037,148.577202 L156.563627,148.472084 L156.359878,148.368321 L156.148379,148.265813 L155.928716,148.164461 L155.700475,148.064165 L155.463244,147.964826 L155.216609,147.866345 L154.960156,147.76862 L154.693473,147.671555 L154.416146,147.575047 L154.127761,147.478999 L153.673548,147.33557 L153.355712,147.240234 L153.025373,147.145008 L152.505514,147.00216 L152.142107,146.906776 L151.764749,146.811154 L151.171652,146.667057 L150.328171,146.473168 L149.654239,146.325995 L148.697916,146.126783 L147.672566,145.923435 L146.856265,145.767731 L145.70216,145.555229 L144.149286,145.280613 L142.814761,145.052758 L141.7579,144.876583 L138.127659,144.282473 L136.575777,144.022302 L134.80043,143.715257 L133.810835,143.538039 L132.869615,143.364234 L131.969952,143.192335 L131.105026,143.020831 L130.54434,142.905971 L129.722157,142.731776 L129.183653,142.613725 L128.650485,142.493615 L128.135324,142.374444 C127.278304,142.173623 126.426608,141.961223 125.541555,141.728688 C119.173212,140.055497 113.654556,137.822382 108.651019,134.561384 C95.6778041,126.106239 88.8983471,112.317816 88.8983471,94.2204948 C88.8983471,74.9400269 99.7993643,55.5450755 116.236692,48.2991941 C122.04457,45.7389725 127.166506,49.5023704 134.734184,48.2991941 C135.706664,48.1445805 136.646878,48.0030787 137.593057,47.8698744 L138.607742,47.7305264 L140.127291,47.5346556 L141.174334,47.4080338 L142.259911,47.2831527 L143.981763,47.0964209 L146.171485,46.8745367 L147.882148,46.7099524 L150.522627,46.4659197 L157.090358,45.8797006 L158.89884,45.7104517 L160.62953,45.5405071 L161.877919,45.412278 L163.478162,45.2398595 L165.007115,45.0653096 L166.108467,44.9326843 L167.172046,44.798346 L167.860604,44.7077268 L168.863442,44.5700443 L169.831164,44.4300616 L170.764769,44.2875583 L171.665254,44.1423142 L172.247669,44.0438534 L172.816103,43.9440114 L173.643186,43.7915156 L174.177959,43.6879349 L174.955935,43.5295252 L175.705777,43.3672734 L176.428482,43.2009593 L176.895701,43.0877176 L177.351599,42.9725073 L177.79647,42.8552631 L178.23061,42.7359198 L178.654314,42.6144121 L179.27095,42.4279494 C179.338234,42.4069445 179.405115,42.3858425 179.471597,42.3646423 L179.865767,42.2362497 L180.250683,42.1054317 L180.626641,41.9721229 L180.993936,41.8362582 L181.352864,41.6977723 L181.70372,41.5565998 L182.0468,41.4126755 C182.103348,41.3884552 182.159584,41.3641175 182.215515,41.3396611 L182.547484,41.1914869 L182.872416,41.0403977 L183.190605,40.8863283 L183.522562,40.718774 L183.861804,40.5392895 C186.902712,38.8877397 188.062197,37.0293302 188.229681,32.1362732 L188.236517,31.9001503 L188.21488,31.7595032 C187.612446,27.9766142 186.293028,26.3236006 182.915971,24.8116062 L182.509096,24.6342552 L182.08275,24.4574857 L181.689839,24.3013751 L181.342599,24.1682958 L180.991448,24.0383019 L180.635965,23.9113216 L180.093697,23.726345 L179.72554,23.6065851 L179.351577,23.489588 L178.971387,23.3752819 L178.584547,23.263595 L177.990899,23.100819 L177.379921,22.9435331 L176.750191,22.7914953 L176.319252,22.6929328 L175.878925,22.5965236 L175.428791,22.5021958 L174.968426,22.4098779 L174.257778,22.2750126 L173.769997,22.1874055 L173.016248,22.0592703 L172.498417,21.9759259 L171.967829,21.894161 L171.147106,21.7743187 L170.295311,21.6576271 L169.41102,21.5438442 L168.178962,21.3962402 L167.213323,21.2883034 L166.21045,21.1824686 L164.812909,21.0442073 L163.71763,20.9423363 L162.19172,20.8084816 L160.587823,20.6763562 L159.331694,20.5780521 L158.028379,20.480156 L155.74747,20.3172455 L152.822887,20.1207845 L147.96914,19.8066078 L145.346148,19.6273289 L143.373053,19.4844101 L141.959635,19.3766147 L140.155443,19.2309787 L138.433754,19.0819034 L136.784377,18.9280166 L135.983621,18.8488401 L134.423606,18.6851634 L133.284888,18.5570723 L132.538256,18.4688169 L131.433893,18.3317127 L130.344411,18.188429 L129.624233,18.0891876 L128.549999,17.9343182 L127.836005,17.8268169 L126.765075,17.6587539 L126.049305,17.5419209 C116.839329,16.0157096 108.94029,13.6756781 101.880219,10.0055951 C83.6349026,0.52101213 73.69986,-16.7086228 73.5029837,-40.6095116 L73.5,-41.3358219 L73.5,-60.6523319 L86.3901643,-73.5 L112.101497,-60.6523319 Z" id="Combined-Shape" fill="url(#linearGradient-1)" transform="translate(155.000000, 81.500000) scale(-1, -1) rotate(-90.000000) translate(-155.000000, -81.500000) "></path>
            <path d="M103.879523,12.5 C124.680483,12.5 139.962959,21.9434679 148.395531,38.7539625 C151.522181,44.9869991 153.598231,51.9187851 155.059459,59.9811399 L155.185033,60.6839349 L155.306745,61.3854329 L155.482576,62.4385055 L155.59564,63.1432762 L155.759578,64.2082389 L155.917418,65.2870375 L156.019641,66.0164052 L156.169044,67.1294329 L156.314423,68.2696999 L156.456555,69.4422324 L156.596217,70.6520567 L156.734186,71.9041992 L156.871241,73.2036861 L157.00816,74.5555438 L157.191848,76.4481736 L157.425868,78.975604 L157.962848,85.0108822 L158.199165,87.5420896 L158.392748,89.5144561 L158.5079,90.6405748 L158.622577,91.7251727 L158.775126,93.1087724 L158.889561,94.1011174 L159.004265,95.0559093 L159.158007,96.2726069 L159.313152,97.4274816 L159.470229,98.5233549 L159.629767,99.5630485 L159.751354,100.307648 L159.874846,101.023424 L160.000466,101.711567 L160.128438,102.373268 L160.258985,103.009716 L160.392329,103.622102 L160.528695,104.211616 L160.668304,104.779449 L160.811381,105.326792 L160.958149,105.854834 L161.058154,106.196727 L161.211569,106.695247 L161.369269,107.17764 L161.531479,107.645098 L161.642233,107.949027 L161.812453,108.394238 L161.987777,108.827687 L162.168429,109.250565 L162.422676,109.818755 L162.542275,110.07418 L162.715596,110.423355 L162.828817,110.634471 L162.941557,110.829031 C163.487213,111.730471 164.057481,112.07516 165.253535,112.202177 L165.510121,112.225462 C165.554439,112.228862 165.599551,112.232031 165.64548,112.234983 L165.931072,112.250201 L166.23748,112.260876 L166.73871,112.269829 L167.293433,112.272312 C170.647371,112.272312 172.777638,111.836008 174.003634,111.230359 C174.494459,110.987889 174.791753,110.731886 175.162202,110.188876 L175.31539,109.955037 L175.431815,109.766233 L175.546502,109.570536 L175.659552,109.367527 L175.771067,109.156784 L175.88115,108.937885 L175.989903,108.710409 L176.097428,108.473934 L176.203828,108.228041 L176.309204,107.972307 L176.41366,107.706311 L176.56884,107.287154 L176.671441,106.99366 L176.773478,106.688429 L176.925702,106.207657 L177.026779,105.871242 L177.127651,105.521617 L177.278797,104.971488 L177.430058,104.389265 L177.531131,103.982584 L177.683348,103.343712 L177.785378,102.897948 L177.991227,101.956889 L178.14758,101.206095 L178.306002,100.415151 L178.466839,99.5826344 L178.68564,98.4054868 L178.910164,97.148535 L179.14123,95.808409 L179.440508,94.0111535 L179.950689,90.8722088 L180.305157,88.7420684 L180.63221,86.8469854 L180.839927,85.6911397 L180.992396,84.8708855 L181.193625,83.8282966 L181.344612,83.077106 L181.497038,82.3457922 L181.652146,81.628522 L181.86528,80.6839255 L182.088342,79.7400988 L182.263928,79.0244163 L182.448001,78.2955562 C184.065268,71.976717 186.211973,66.5146183 189.35681,61.5463507 C197.598793,48.5255256 211.164576,41.6760204 228.955837,41.6760204 C229.812521,41.6760204 230.668256,41.7332635 231.517366,41.8473701 C249.132331,44.2145344 261.595895,53.4772618 268.114501,68.1290833 C270.53133,73.5613698 272.027589,79.4085569 272.992024,86.1379782 L273.131064,87.1333481 C273.153337,87.297254 273.175179,87.4603443 273.196619,87.6228873 L273.289827,88.3463885 L273.405134,89.2951378 L273.539587,90.4947054 L273.640973,91.4799841 L273.738262,92.5011244 L273.809312,93.2977794 L273.925688,94.699301 L274.041689,96.213471 L274.208238,98.5674723 L274.581091,104.254459 L274.689928,105.806311 L274.82827,107.633494 L274.912831,108.671782 L275.027782,109.990862 L275.145657,111.237813 L275.236249,112.127334 L275.328921,112.978971 L275.423862,113.793874 L275.488507,114.317305 L275.554299,114.825263 L275.621293,115.31809 L275.689543,115.796128 L275.794397,116.4862 L275.902391,117.144916 L276.013712,117.773426 L276.089866,118.176221 L276.167637,118.566446 L276.287447,119.128958 L276.369503,119.489248 L276.45337,119.838161 L276.582687,120.340948 L276.671323,120.662913 L276.808053,121.126878 L276.901805,121.424029 L276.997699,121.711852 L277.095792,121.990687 L277.196139,122.260877 L277.298796,122.522763 L277.403816,122.776685 L277.511257,123.022985 L277.621173,123.262005 L277.73362,123.494086 L277.848653,123.719569 L277.966327,123.938795 C277.986163,123.974831 278.00611,124.010619 278.026172,124.046169 C278.599869,125.062777 279.14685,125.598835 280.127883,126.095694 C281.589343,126.835873 283.798878,127.394281 286.903959,127.622644 L287.516164,127.662682 C288.243543,127.704492 289.017069,127.728985 289.838441,127.734456 L290.193392,127.73563 L309.5,127.73563 L309.5,166.5 L290.193392,166.5 C268.783388,166.5 253.130933,158.572575 244.429906,143.154103 C241.144682,137.332591 239.107869,130.936509 237.827407,123.582988 L237.67245,122.6667 L237.536911,121.824504 L237.368342,120.71467 L237.250186,119.885354 L237.138398,119.052868 L237.03233,118.211994 L236.931332,117.357519 L236.834755,116.484227 L236.741952,115.586903 L236.652272,114.660331 L236.536437,113.370393 L236.395487,111.652981 L236.283928,110.179994 L236.143458,108.194658 L235.969429,105.569033 L235.826779,103.358866 L235.696218,101.446951 L235.591758,100.010511 L235.460321,98.3259815 L235.353854,97.0632056 L235.245656,95.8723213 L235.10719,94.4798516 L234.993213,93.4388149 L234.875828,92.4590846 L234.815697,91.9911915 L234.75452,91.5374037 L234.660654,90.8822786 L234.564074,90.2566001 L234.46456,89.6589943 L234.361897,89.0880871 L234.255866,88.5425044 L234.183199,88.1921732 L234.071071,87.6857446 L233.994139,87.360244 L233.915387,87.043963 L233.793708,86.585938 L233.710126,86.2909252 L233.624498,86.0037072 L233.492082,85.5866048 L233.40106,85.3170926 L233.307767,85.0539503 L233.212139,84.7967707 L233.114111,84.5451468 L232.962428,84.177237 L232.858118,83.9377209 L232.79564,83.7992218 L232.670075,83.5333876 L232.54258,83.2819801 C231.726156,81.7342551 230.712645,81.0214212 227.964497,80.5143409 L227.684369,80.4649234 L227.549593,80.4702966 C225.356404,80.5681026 223.90433,80.896308 223.018818,81.313755 L222.915265,81.3642679 C222.555976,81.5456768 222.344065,81.7321293 222.027936,82.2110208 L221.891513,82.4250753 L221.728792,82.698375 L221.622274,82.8886612 L221.51721,83.0859008 L221.4135,83.2905088 L221.311045,83.5029003 L221.209745,83.7234904 L221.109501,83.952694 L220.960896,84.3135578 L220.862856,84.5661113 L220.765524,84.828731 L220.620634,85.2424427 L220.524635,85.532044 L220.381279,85.9881735 L220.285992,86.3073504 L220.190815,86.6390838 L220.04804,87.1611354 L219.952705,87.5260761 L219.857132,87.9050261 L219.713109,88.5006263 L219.519319,89.3476662 L219.372221,90.0244416 L219.173112,90.9847994 L218.969868,92.014476 L218.814244,92.8342212 L218.601851,93.9931952 L218.327375,95.5526219 L218.099637,96.8927774 L217.923552,97.9540979 L217.274308,101.934927 L216.963745,103.781483 L216.728042,105.138284 L216.500113,106.404183 L216.332292,107.302926 L216.110064,108.445639 L215.942747,109.269123 L215.830125,109.805632 L215.600448,110.857086 L215.422696,111.634151 L215.238694,112.408329 L215.047058,113.185913 L214.914375,113.709301 L214.777272,114.238864 C213.104938,120.634077 210.872968,126.176018 207.613642,131.200667 C199.162831,144.22862 185.381477,151.036682 167.293433,151.036682 C148.022849,151.036682 134.073321,141.382797 126.831154,124.876115 C124.272245,119.043731 122.598233,112.607057 121.395673,105.007449 C121.255187,104.119646 121.125532,103.258621 121.003093,102.395531 L120.896198,101.628029 L120.729565,100.370346 L120.600757,99.3408371 L120.474621,98.279972 L120.318842,96.8949053 L120.13152,95.1211132 L119.939873,93.194297 L119.739766,91.0814674 L119.376222,87.0571214 L118.97742,82.5569465 L118.808258,80.7408346 L118.6384,79.0028421 L118.510237,77.7491856 L118.337907,76.1421902 L118.163446,74.6067862 L118.030889,73.500787 L117.89662,72.4327214 L117.806047,71.7412572 L117.668435,70.7341886 L117.528524,69.7623829 L117.386094,68.8248387 L117.240924,67.9205546 L117.142514,67.3356818 L117.042723,66.7648493 L116.890306,65.9342774 L116.786778,65.3972479 L116.628449,64.6159895 L116.466281,63.8629838 L116.300052,63.1372294 L116.186868,62.6680383 L116.071717,62.2102171 L115.954533,61.763469 L115.835251,61.3274974 L115.713805,60.9020055 L115.527438,60.282768 C115.506444,60.2151997 115.485353,60.148037 115.464164,60.081274 L115.335837,59.6854409 L115.205086,59.2989006 L115.071846,58.9213564 L114.93605,58.5525115 L114.797635,58.1920693 L114.656535,57.839733 L114.512685,57.4952059 C114.488477,57.438419 114.464152,57.3819451 114.439708,57.3257781 L114.29161,56.9924084 L114.140598,56.6661061 L113.986608,56.3465744 L113.908475,56.1892548 C113.819208,56.0112998 113.729785,55.839111 113.639747,55.6725435 L113.458714,55.3468604 C112.092778,52.9598054 110.519636,51.815787 107.19128,51.4256068 L106.736962,51.3780071 L106.261026,51.339084 C105.936348,51.3159702 105.596714,51.2984691 105.241038,51.2862371 L105.00761,51.2792294 L104.864461,51.3010999 C101.454193,51.8467647 99.7757605,52.978181 98.3705396,55.6832382 L98.1886794,56.0450772 C98.0984041,56.23054 98.0090212,56.4228787 97.9201259,56.6223672 L97.7428658,57.0309588 L97.566187,57.4591038 L97.4101564,57.853673 L97.2771453,58.2023778 L97.147218,58.55501 L97.0203029,58.9119928 L96.835421,59.4565495 L96.7157226,59.8262593 L96.5987854,60.2018001 L96.4845379,60.583595 L96.3729083,60.972067 L96.2102158,61.5682199 L96.0530105,62.1817759 L95.9010506,62.8141624 L95.8025387,63.24692 L95.7061788,63.6891042 L95.6118994,64.1411383 L95.5196289,64.603445 L95.3848327,65.317092 L95.2541531,66.0562321 L95.1692009,66.5638601 L95.0858993,67.083876 L95.0041763,67.6167027 L94.8843954,68.4408885 L94.7677637,69.2962783 L94.6540391,70.1842997 L94.5065108,71.4215561 L94.3986293,72.3912701 L94.2928488,73.3983746 L94.1546583,74.8018114 L94.0191996,76.2776426 L93.9190535,77.4340605 L93.7869959,79.044725 L93.6887421,80.3061544 L93.5908962,81.6149682 L93.4280692,83.9055009 L93.2317089,86.842424 L92.9176933,91.7166503 L92.7385062,94.3507098 L92.5956607,96.3321297 L92.4879206,97.7515109 L92.3423593,99.563316 L92.1933604,101.29227 L92.0395525,102.948605 L91.9604166,103.75274 L91.7968238,105.319337 L91.6687984,106.46286 L91.5805881,107.212642 L91.4435543,108.321665 L91.3003441,109.415744 L91.2011535,110.13896 L91.0463635,111.217727 L90.9389173,111.934733 L90.7709404,113.010182 L90.6541673,113.728972 C89.1287384,122.977808 86.7899066,130.910176 83.121705,138.000035 C73.6419842,156.322335 56.4211819,166.299297 32.5325455,166.497004 L31.8066076,166.5 L12.5,166.5 L12.5,127.73563 L31.8066076,127.73563 C37.6112802,127.73563 41.5784817,126.812637 44.2024198,125.312102 C46.1120389,124.220061 47.5537435,122.64729 48.8551739,120.1319 L48.9465186,119.953613 L49.1262491,119.592265 L49.3020907,119.224288 C49.3310773,119.162389 49.3599047,119.1002 49.3885742,119.037715 L49.558709,118.659202 L49.7251236,118.273269 C49.7525531,118.208311 49.7798305,118.143031 49.806957,118.077421 L49.967918,117.679765 C49.9944471,117.612813 50.0208281,117.545519 50.0470626,117.477877 L50.202722,117.067785 C50.2283758,116.998721 50.2538859,116.929295 50.2792537,116.859501 L50.4297633,116.436261 L50.5769242,116.00386 C50.6011757,115.931012 50.6252905,115.857769 50.64927,115.784125 L50.7915343,115.337388 L50.9306187,114.8807 L51.0665907,114.413742 L51.1995178,113.936199 L51.3294675,113.447754 L51.4565073,112.948091 L51.5807048,112.436892 L51.7021275,111.913842 L51.8208429,111.378624 C51.840407,111.288389 51.859861,111.197634 51.8792065,111.106353 L51.9939876,110.552289 L52.1062302,109.985265 L52.2160018,109.404966 L52.32337,108.811073 L52.4284023,108.203272 L52.5311662,107.581245 L52.6317292,106.944675 L52.7301589,106.293247 L52.8265227,105.626644 L52.9673428,104.597592 L53.0588375,103.891665 L53.1926703,102.802145 L53.3226147,101.674919 L53.4488985,100.50892 L53.5311665,99.7095178 L53.6913959,98.0563249 L53.8080652,96.7675932 L53.9219856,95.4358142 L54.069997,93.5912998 L54.1424907,92.6388408 L54.2847919,90.6719364 L54.4239616,88.6202733 L54.8308811,82.3073504 L55.0419274,79.1839277 L55.2170798,76.7500109 L55.3884285,74.5442099 L55.511175,73.0813213 L55.610941,71.964989 L55.7130807,70.8867925 L55.8727182,69.3211232 L55.9847467,68.2985077 L56.1023127,67.2822211 L56.1657516,66.7547457 L56.2310484,66.2252616 C56.2862714,65.7828361 56.343561,65.3369984 56.4032453,64.8844495 C57.4814098,56.7093966 59.0758615,49.7490049 61.5772154,43.4079228 C68.4626826,25.9528508 81.9921092,14.8516518 101.719283,12.6217111 C102.436531,12.5406342 103.157743,12.5 103.879523,12.5 Z" id="Path" fill="#FFFFFF" transform="translate(161.000000, 89.500000) rotate(-180.000000) translate(-161.000000, -89.500000) "></path>
            <path d="M103.879523,163.5 C124.680483,163.5 139.962959,172.943468 148.395531,189.753963 C151.522181,195.986999 153.598231,202.918785 155.059459,210.98114 L155.185033,211.683935 L155.306745,212.385433 L155.482576,213.438506 L155.59564,214.143276 L155.759578,215.208239 L155.917418,216.287037 L156.019641,217.016405 L156.169044,218.129433 L156.314423,219.2697 L156.456555,220.442232 L156.596217,221.652057 L156.734186,222.904199 L156.871241,224.203686 L157.00816,225.555544 L157.191848,227.448174 L157.425868,229.975604 L157.962848,236.010882 L158.199165,238.54209 L158.392748,240.514456 L158.5079,241.640575 L158.622577,242.725173 L158.775126,244.108772 L158.889561,245.101117 L159.004265,246.055909 L159.158007,247.272607 L159.313152,248.427482 L159.470229,249.523355 L159.629767,250.563048 L159.751354,251.307648 L159.874846,252.023424 L160.000466,252.711567 L160.128438,253.373268 L160.258985,254.009716 L160.392329,254.622102 L160.528695,255.211616 L160.668304,255.779449 L160.811381,256.326792 L160.958149,256.854834 L161.058154,257.196727 L161.211569,257.695247 L161.369269,258.17764 L161.531479,258.645098 L161.642233,258.949027 L161.812453,259.394238 L161.987777,259.827687 L162.168429,260.250565 L162.422676,260.818755 L162.542275,261.07418 L162.715596,261.423355 L162.828817,261.634471 L162.941557,261.829031 C163.487213,262.730471 164.057481,263.07516 165.253535,263.202177 L165.510121,263.225462 C165.554439,263.228862 165.599551,263.232031 165.64548,263.234983 L165.931072,263.250201 L166.23748,263.260876 L166.73871,263.269829 L167.293433,263.272312 C170.647371,263.272312 172.777638,262.836008 174.003634,262.230359 C174.494459,261.987889 174.791753,261.731886 175.162202,261.188876 L175.31539,260.955037 L175.431815,260.766233 L175.546502,260.570536 L175.659552,260.367527 L175.771067,260.156784 L175.88115,259.937885 L175.989903,259.710409 L176.097428,259.473934 L176.203828,259.228041 L176.309204,258.972307 L176.41366,258.706311 L176.56884,258.287154 L176.671441,257.99366 L176.773478,257.688429 L176.925702,257.207657 L177.026779,256.871242 L177.127651,256.521617 L177.278797,255.971488 L177.430058,255.389265 L177.531131,254.982584 L177.683348,254.343712 L177.785378,253.897948 L177.991227,252.956889 L178.14758,252.206095 L178.306002,251.415151 L178.466839,250.582634 L178.68564,249.405487 L178.910164,248.148535 L179.14123,246.808409 L179.440508,245.011153 L179.950689,241.872209 L180.305157,239.742068 L180.63221,237.846985 L180.839927,236.69114 L180.992396,235.870885 L181.193625,234.828297 L181.344612,234.077106 L181.497038,233.345792 L181.652146,232.628522 L181.86528,231.683925 L182.088342,230.740099 L182.263928,230.024416 L182.448001,229.295556 C184.065268,222.976717 186.211973,217.514618 189.35681,212.546351 C197.598793,199.525526 211.164576,192.67602 228.955837,192.67602 C229.812521,192.67602 230.668256,192.733263 231.517366,192.84737 C249.132331,195.214534 261.595895,204.477262 268.114501,219.129083 C270.53133,224.56137 272.027589,230.408557 272.992024,237.137978 L273.131064,238.133348 C273.153337,238.297254 273.175179,238.460344 273.196619,238.622887 L273.289827,239.346389 L273.405134,240.295138 L273.539587,241.494705 L273.640973,242.479984 L273.738262,243.501124 L273.809312,244.297779 L273.925688,245.699301 L274.041689,247.213471 L274.208238,249.567472 L274.581091,255.254459 L274.689928,256.806311 L274.82827,258.633494 L274.912831,259.671782 L275.027782,260.990862 L275.145657,262.237813 L275.236249,263.127334 L275.328921,263.978971 L275.423862,264.793874 L275.488507,265.317305 L275.554299,265.825263 L275.621293,266.31809 L275.689543,266.796128 L275.794397,267.4862 L275.902391,268.144916 L276.013712,268.773426 L276.089866,269.176221 L276.167637,269.566446 L276.287447,270.128958 L276.369503,270.489248 L276.45337,270.838161 L276.582687,271.340948 L276.671323,271.662913 L276.808053,272.126878 L276.901805,272.424029 L276.997699,272.711852 L277.095792,272.990687 L277.196139,273.260877 L277.298796,273.522763 L277.403816,273.776685 L277.511257,274.022985 L277.621173,274.262005 L277.73362,274.494086 L277.848653,274.719569 L277.966327,274.938795 C277.986163,274.974831 278.00611,275.010619 278.026172,275.046169 C278.599869,276.062777 279.14685,276.598835 280.127883,277.095694 C281.589343,277.835873 283.798878,278.394281 286.903959,278.622644 L287.516164,278.662682 C288.243543,278.704492 289.017069,278.728985 289.838441,278.734456 L290.193392,278.73563 L309.5,278.73563 L309.5,317.5 L290.193392,317.5 C268.783388,317.5 253.130933,309.572575 244.429906,294.154103 C241.144682,288.332591 239.107869,281.936509 237.827407,274.582988 L237.67245,273.6667 L237.536911,272.824504 L237.368342,271.71467 L237.250186,270.885354 L237.138398,270.052868 L237.03233,269.211994 L236.931332,268.357519 L236.834755,267.484227 L236.741952,266.586903 L236.652272,265.660331 L236.536437,264.370393 L236.395487,262.652981 L236.283928,261.179994 L236.143458,259.194658 L235.969429,256.569033 L235.826779,254.358866 L235.696218,252.446951 L235.591758,251.010511 L235.460321,249.325981 L235.353854,248.063206 L235.245656,246.872321 L235.10719,245.479852 L234.993213,244.438815 L234.875828,243.459085 L234.815697,242.991192 L234.75452,242.537404 L234.660654,241.882279 L234.564074,241.2566 L234.46456,240.658994 L234.361897,240.088087 L234.255866,239.542504 L234.183199,239.192173 L234.071071,238.685745 L233.994139,238.360244 L233.915387,238.043963 L233.793708,237.585938 L233.710126,237.290925 L233.624498,237.003707 L233.492082,236.586605 L233.40106,236.317093 L233.307767,236.05395 L233.212139,235.796771 L233.114111,235.545147 L232.962428,235.177237 L232.858118,234.937721 L232.79564,234.799222 L232.670075,234.533388 L232.54258,234.28198 C231.726156,232.734255 230.712645,232.021421 227.964497,231.514341 L227.684369,231.464277 L227.549593,231.470297 C225.356404,231.568103 223.90433,231.896308 223.018818,232.313755 L222.915265,232.364268 C222.555976,232.545677 222.344065,232.732129 222.027936,233.211021 L221.891513,233.425075 L221.728792,233.698375 L221.622274,233.888661 L221.51721,234.085901 L221.4135,234.290509 L221.311045,234.5029 L221.209745,234.72349 L221.109501,234.952694 L220.960896,235.313558 L220.862856,235.566111 L220.765524,235.828731 L220.620634,236.242443 L220.524635,236.532044 L220.381279,236.988174 L220.285992,237.30735 L220.190815,237.639084 L220.04804,238.161135 L219.952705,238.526076 L219.857132,238.905026 L219.713109,239.500626 L219.519319,240.347666 L219.372221,241.024442 L219.173112,241.984799 L218.969868,243.014476 L218.814244,243.834221 L218.601851,244.993195 L218.327375,246.552622 L218.099637,247.892777 L217.923552,248.954098 L217.274308,252.934927 L216.963745,254.781483 L216.728042,256.138284 L216.500113,257.404183 L216.332292,258.302926 L216.110064,259.445639 L215.942747,260.269123 L215.830125,260.805632 L215.600448,261.857086 L215.422696,262.634151 L215.238694,263.408329 L215.047058,264.185913 L214.914375,264.709301 L214.777272,265.238864 C213.104938,271.634077 210.872968,277.176018 207.613642,282.200667 C199.162831,295.22862 185.381477,302.036682 167.293433,302.036682 C148.022849,302.036682 134.073321,292.382797 126.831154,275.876115 C124.272245,270.043731 122.598233,263.607057 121.395673,256.007449 C121.255187,255.119646 121.125532,254.258621 121.003093,253.395531 L120.896198,252.628029 L120.729565,251.370346 L120.600757,250.340837 L120.474621,249.279972 L120.318842,247.894905 L120.13152,246.121113 L119.939873,244.194297 L119.739766,242.081467 L119.376222,238.057121 L118.97742,233.556947 L118.808258,231.740835 L118.6384,230.002842 L118.510237,228.749186 L118.337907,227.14219 L118.163446,225.606786 L118.030889,224.500787 L117.89662,223.432721 L117.806047,222.741257 L117.668435,221.734189 L117.528524,220.762383 L117.386094,219.824839 L117.240924,218.920555 L117.142514,218.335682 L117.042723,217.764849 L116.890306,216.934277 L116.786778,216.397248 L116.628449,215.615989 L116.466281,214.862984 L116.300052,214.137229 L116.186868,213.668038 L116.071717,213.210217 L115.954533,212.763469 L115.835251,212.327497 L115.713805,211.902006 L115.527438,211.282768 C115.506444,211.2152 115.485353,211.148037 115.464164,211.081274 L115.335837,210.685441 L115.205086,210.298901 L115.071846,209.921356 L114.93605,209.552512 L114.797635,209.192069 L114.656535,208.839733 L114.512685,208.495206 C114.488477,208.438419 114.464152,208.381945 114.439708,208.325778 L114.29161,207.992408 L114.140598,207.666106 L113.986608,207.346574 L113.908475,207.189255 C113.819208,207.0113 113.729785,206.839111 113.639747,206.672543 L113.458714,206.34686 C112.092778,203.959805 110.519636,202.815787 107.19128,202.425607 L106.736962,202.378007 L106.261026,202.339084 C105.936348,202.31597 105.596714,202.298469 105.241038,202.286237 L105.00761,202.278583 L104.864461,202.3011 C101.454193,202.846765 99.7757605,203.978181 98.3705396,206.683238 L98.1886794,207.045077 C98.0984041,207.23054 98.0090212,207.422879 97.9201259,207.622367 L97.7428658,208.030959 L97.566187,208.459104 L97.4101564,208.853673 L97.2771453,209.202378 L97.147218,209.55501 L97.0203029,209.911993 L96.835421,210.45655 L96.7157226,210.826259 L96.5987854,211.2018 L96.4845379,211.583595 L96.3729083,211.972067 L96.2102158,212.56822 L96.0530105,213.181776 L95.9010506,213.814162 L95.8025387,214.24692 L95.7061788,214.689104 L95.6118994,215.141138 L95.5196289,215.603445 L95.3848327,216.317092 L95.2541531,217.056232 L95.1692009,217.56386 L95.0858993,218.083876 L95.0041763,218.616703 L94.8843954,219.440889 L94.7677637,220.296278 L94.6540391,221.1843 L94.5065108,222.421556 L94.3986293,223.39127 L94.2928488,224.398375 L94.1546583,225.801811 L94.0191996,227.277643 L93.9190535,228.434061 L93.7869959,230.044725 L93.6887421,231.306154 L93.5908962,232.614968 L93.4280692,234.905501 L93.2317089,237.842424 L92.9176933,242.71665 L92.7385062,245.35071 L92.5956607,247.33213 L92.4879206,248.751511 L92.3423593,250.563316 L92.1933604,252.29227 L92.0395525,253.948605 L91.9604166,254.75274 L91.7968238,256.319337 L91.6687984,257.46286 L91.5805881,258.212642 L91.4435543,259.321665 L91.3003441,260.415744 L91.2011535,261.13896 L91.0463635,262.217727 L90.9389173,262.934733 L90.7709404,264.010182 L90.6541673,264.728972 C89.1287384,273.977808 86.7899066,281.910176 83.121705,289.000035 C73.6419842,307.322335 56.4211819,317.299297 32.5325455,317.497004 L31.8066076,317.5 L12.5,317.5 L12.5,278.73563 L31.8066076,278.73563 C37.6112802,278.73563 41.5784817,277.812637 44.2024198,276.312102 C46.1120389,275.220061 47.5537435,273.64729 48.8551739,271.1319 L48.9465186,270.953613 L49.1262491,270.592265 L49.3020907,270.224288 C49.3310773,270.162389 49.3599047,270.1002 49.3885742,270.037715 L49.558709,269.659202 L49.7251236,269.273269 C49.7525531,269.208311 49.7798305,269.143031 49.806957,269.077421 L49.967918,268.679765 C49.9944471,268.612813 50.0208281,268.545519 50.0470626,268.477877 L50.202722,268.067785 C50.2283758,267.998721 50.2538859,267.929295 50.2792537,267.859501 L50.4297633,267.436261 L50.5769242,267.00386 C50.6011757,266.931012 50.6252905,266.857769 50.64927,266.784125 L50.7915343,266.337388 L50.9306187,265.8807 L51.0665907,265.413742 L51.1995178,264.936199 L51.3294675,264.447754 L51.4565073,263.948091 L51.5807048,263.436892 L51.7021275,262.913842 L51.8208429,262.378624 C51.840407,262.288389 51.859861,262.197634 51.8792065,262.106353 L51.9939876,261.552289 L52.1062302,260.985265 L52.2160018,260.404966 L52.32337,259.811073 L52.4284023,259.203272 L52.5311662,258.581245 L52.6317292,257.944675 L52.7301589,257.293247 L52.8265227,256.626644 L52.9673428,255.597592 L53.0588375,254.891665 L53.1926703,253.802145 L53.3226147,252.674919 L53.4488985,251.50892 L53.5311665,250.709518 L53.6913959,249.056325 L53.8080652,247.767593 L53.9219856,246.435814 L54.069997,244.5913 L54.1424907,243.638841 L54.2847919,241.671936 L54.4239616,239.620273 L54.8308811,233.30735 L55.0419274,230.183928 L55.2170798,227.750011 L55.3884285,225.54421 L55.511175,224.081321 L55.610941,222.964989 L55.7130807,221.886793 L55.8727182,220.321123 L55.9847467,219.298508 L56.1023127,218.282221 L56.1657516,217.754746 L56.2310484,217.225262 C56.2862714,216.782836 56.343561,216.336998 56.4032453,215.884449 C57.4814098,207.709397 59.0758615,200.749005 61.5772154,194.407923 C68.4626826,176.952851 81.9921092,165.851652 101.719283,163.621711 C102.436531,163.540634 103.157743,163.5 103.879523,163.5 Z" id="Path" fill="#FFFFFF" transform="translate(161.000000, 240.500000) scale(-1, -1) rotate(-180.000000) translate(-161.000000, -240.500000) "></path>
        </g>
        <text id="Waveform-Mixed-Tilte" opacity="0.2" font-family="Poppins-Regular, Poppins" font-size="34" font-weight="normal" fill="#FFFFFF">
            <tspan x="348.162" y="948">Waveform Mixed Tilted</tspan>
        </text>
    </g>
</svg>