<?xml version="1.0" encoding="UTF-8"?>
<svg width="1080px" height="1080px" viewBox="0 0 1080 1080" version="1.1" xmlns="http://www.w3.org/2000/svg" xmlns:xlink="http://www.w3.org/1999/xlink">
    <title>waveform-01-gradient</title>
    <defs>
        <linearGradient x1="103.608751%" y1="100%" x2="-4.42459244%" y2="100%" id="linearGradient-1">
            <stop stop-color="#77F6FF" offset="0%"></stop>
            <stop stop-color="#1D1E1F" offset="100%"></stop>
            <stop stop-color="#1D1E1F" offset="100%"></stop>
        </linearGradient>
        <linearGradient x1="50%" y1="64.3961927%" x2="52.1686491%" y2="35.6038073%" id="linearGradient-2">
            <stop stop-color="#8348FF" offset="0%"></stop>
            <stop stop-color="#4FF0FF" offset="49.7267007%"></stop>
            <stop stop-color="#3EEE91" offset="100%"></stop>
        </linearGradient>
    </defs>
    <g id="waveform-01-gradient" stroke="none" stroke-width="1" fill="none" fill-rule="evenodd">
        <rect fill="#1D1D21" x="0" y="0" width="1080" height="1080"></rect>
        <path d="M472.379523,388 C493.180483,388 508.462959,397.443468 516.895531,414.253963 C520.022181,420.486999 522.098231,427.418785 523.559459,435.48114 L523.685033,436.183935 L523.806745,436.885433 L523.982576,437.938506 L524.09564,438.643276 L524.259578,439.708239 L524.417418,440.787037 L524.519641,441.516405 L524.669044,442.629433 L524.814423,443.7697 L524.956555,444.942232 L525.096217,446.152057 L525.234186,447.404199 L525.371241,448.703686 L525.50816,450.055544 L525.691848,451.948174 L525.925868,454.475604 L526.462848,460.510882 L526.699165,463.04209 L526.892748,465.014456 L527.0079,466.140575 L527.122577,467.225173 L527.275126,468.608772 L527.389561,469.601117 L527.504265,470.555909 L527.658007,471.772607 L527.813152,472.927482 L527.970229,474.023355 L528.129767,475.063048 L528.251354,475.807648 L528.374846,476.523424 L528.500466,477.211567 L528.628438,477.873268 L528.758985,478.509716 L528.892329,479.122102 L529.028695,479.711616 L529.168304,480.279449 L529.311381,480.826792 L529.458149,481.354834 L529.558154,481.696727 L529.711569,482.195247 L529.869269,482.67764 L530.031479,483.145098 L530.142233,483.449027 L530.312453,483.894238 L530.487777,484.327687 L530.668429,484.750565 L530.922676,485.318755 L531.042275,485.57418 L531.215596,485.923355 L531.328817,486.134471 L531.441557,486.329031 C531.987213,487.230471 532.557481,487.57516 533.753535,487.702177 L534.010121,487.725462 C534.054439,487.728862 534.099551,487.732031 534.14548,487.734983 L534.431072,487.750201 L534.73748,487.760876 L535.23871,487.769829 L535.793433,487.772312 C539.147371,487.772312 541.277638,487.336008 542.503634,486.730359 C542.994459,486.487889 543.291753,486.231886 543.662202,485.688876 L543.81539,485.455037 L543.931815,485.266233 L544.046502,485.070536 L544.159552,484.867527 L544.271067,484.656784 L544.38115,484.437885 L544.489903,484.210409 L544.597428,483.973934 L544.703828,483.728041 L544.809204,483.472307 L544.91366,483.206311 L545.06884,482.787154 L545.171441,482.49366 L545.273478,482.188429 L545.425702,481.707657 L545.526779,481.371242 L545.627651,481.021617 L545.778797,480.471488 L545.930058,479.889265 L546.031131,479.482584 L546.183348,478.843712 L546.285378,478.397948 L546.491227,477.456889 L546.64758,476.706095 L546.806002,475.915151 L546.966839,475.082634 L547.18564,473.905487 L547.410164,472.648535 L547.64123,471.308409 L547.940508,469.511153 L548.450689,466.372209 L548.805157,464.242068 L549.13221,462.346985 L549.339927,461.19114 L549.492396,460.370885 L549.693625,459.328297 L549.844612,458.577106 L549.997038,457.845792 L550.152146,457.128522 L550.36528,456.183925 L550.588342,455.240099 L550.763928,454.524416 L550.948001,453.795556 C552.565268,447.476717 554.711973,442.014618 557.85681,437.046351 C566.098793,424.025526 579.664576,417.17602 597.455837,417.17602 C598.312521,417.17602 599.168256,417.233263 600.017366,417.34737 C617.632331,419.714534 630.095895,428.977262 636.614501,443.629083 C639.03133,449.06137 640.527589,454.908557 641.492024,461.637978 L641.631064,462.633348 C641.653337,462.797254 641.675179,462.960344 641.696619,463.122887 L641.789827,463.846389 L641.905134,464.795138 L642.039587,465.994705 L642.140973,466.979984 L642.238262,468.001124 L642.309312,468.797779 L642.425688,470.199301 L642.541689,471.713471 L642.708238,474.067472 L643.081091,479.754459 L643.189928,481.306311 L643.32827,483.133494 L643.412831,484.171782 L643.527782,485.490862 L643.645657,486.737813 L643.736249,487.627334 L643.828921,488.478971 L643.923862,489.293874 L643.988507,489.817305 L644.054299,490.325263 L644.121293,490.81809 L644.189543,491.296128 L644.294397,491.9862 L644.402391,492.644916 L644.513712,493.273426 L644.589866,493.676221 L644.667637,494.066446 L644.787447,494.628958 L644.869503,494.989248 L644.95337,495.338161 L645.082687,495.840948 L645.171323,496.162913 L645.308053,496.626878 L645.401805,496.924029 L645.497699,497.211852 L645.595792,497.490687 L645.696139,497.760877 L645.798796,498.022763 L645.903816,498.276685 L646.011257,498.522985 L646.121173,498.762005 L646.23362,498.994086 L646.348653,499.219569 L646.466327,499.438795 C646.486163,499.474831 646.50611,499.510619 646.526172,499.546169 C647.099869,500.562777 647.64685,501.098835 648.627883,501.595694 C650.089343,502.335873 652.298878,502.894281 655.403959,503.122644 L656.016164,503.162682 C656.743543,503.204492 657.517069,503.228985 658.338441,503.234456 L658.693392,503.23563 L678,503.23563 L678,542 L658.693392,542 C637.283388,542 621.630933,534.072575 612.929906,518.654103 C609.644682,512.832591 607.607869,506.436509 606.327407,499.082988 L606.17245,498.1667 L606.036911,497.324504 L605.868342,496.21467 L605.750186,495.385354 L605.638398,494.552868 L605.53233,493.711994 L605.431332,492.857519 L605.334755,491.984227 L605.241952,491.086903 L605.152272,490.160331 L605.036437,488.870393 L604.895487,487.152981 L604.783928,485.679994 L604.643458,483.694658 L604.469429,481.069033 L604.326779,478.858866 L604.196218,476.946951 L604.091758,475.510511 L603.960321,473.825981 L603.853854,472.563206 L603.745656,471.372321 L603.60719,469.979852 L603.493213,468.938815 L603.375828,467.959085 L603.315697,467.491192 L603.25452,467.037404 L603.160654,466.382279 L603.064074,465.7566 L602.96456,465.158994 L602.861897,464.588087 L602.755866,464.042504 L602.683199,463.692173 L602.571071,463.185745 L602.494139,462.860244 L602.415387,462.543963 L602.293708,462.085938 L602.210126,461.790925 L602.124498,461.503707 L601.992082,461.086605 L601.90106,460.817093 L601.807767,460.55395 L601.712139,460.296771 L601.614111,460.045147 L601.462428,459.677237 L601.358118,459.437721 L601.29564,459.299222 L601.170075,459.033388 L601.04258,458.78198 C600.226156,457.234255 599.212645,456.521421 596.464497,456.014341 L596.184369,455.964923 L596.049593,455.970297 C593.856404,456.068103 592.40433,456.396308 591.518818,456.813755 L591.415265,456.864268 C591.055976,457.045677 590.844065,457.232129 590.527936,457.711021 L590.391513,457.925075 L590.228792,458.198375 L590.122274,458.388661 L590.01721,458.585901 L589.9135,458.790509 L589.811045,459.0029 L589.709745,459.22349 L589.609501,459.452694 L589.460896,459.813558 L589.362856,460.066111 L589.265524,460.328731 L589.120634,460.742443 L589.024635,461.032044 L588.881279,461.488174 L588.785992,461.80735 L588.690815,462.139084 L588.54804,462.661135 L588.452705,463.026076 L588.357132,463.405026 L588.213109,464.000626 L588.019319,464.847666 L587.872221,465.524442 L587.673112,466.484799 L587.469868,467.514476 L587.314244,468.334221 L587.101851,469.493195 L586.827375,471.052622 L586.599637,472.392777 L586.423552,473.454098 L585.774308,477.434927 L585.463745,479.281483 L585.228042,480.638284 L585.000113,481.904183 L584.832292,482.802926 L584.610064,483.945639 L584.442747,484.769123 L584.330125,485.305632 L584.100448,486.357086 L583.922696,487.134151 L583.738694,487.908329 L583.547058,488.685913 L583.414375,489.209301 L583.277272,489.738864 C581.604938,496.134077 579.372968,501.676018 576.113642,506.700667 C567.662831,519.72862 553.881477,526.536682 535.793433,526.536682 C516.522849,526.536682 502.573321,516.882797 495.331154,500.376115 C492.772245,494.543731 491.098233,488.107057 489.895673,480.507449 C489.755187,479.619646 489.625532,478.758621 489.503093,477.895531 L489.396198,477.128029 L489.229565,475.870346 L489.100757,474.840837 L488.974621,473.779972 L488.818842,472.394905 L488.63152,470.621113 L488.439873,468.694297 L488.239766,466.581467 L487.876222,462.557121 L487.47742,458.056947 L487.308258,456.240835 L487.1384,454.502842 L487.010237,453.249186 L486.837907,451.64219 L486.663446,450.106786 L486.530889,449.000787 L486.39662,447.932721 L486.306047,447.241257 L486.168435,446.234189 L486.028524,445.262383 L485.886094,444.324839 L485.740924,443.420555 L485.642514,442.835682 L485.542723,442.264849 L485.390306,441.434277 L485.286778,440.897248 L485.128449,440.115989 L484.966281,439.362984 L484.800052,438.637229 L484.686868,438.168038 L484.571717,437.710217 L484.454533,437.263469 L484.335251,436.827497 L484.213805,436.402006 L484.027438,435.782768 C484.006444,435.7152 483.985353,435.648037 483.964164,435.581274 L483.835837,435.185441 L483.705086,434.798901 L483.571846,434.421356 L483.43605,434.052512 L483.297635,433.692069 L483.156535,433.339733 L483.012685,432.995206 C482.988477,432.938419 482.964152,432.881945 482.939708,432.825778 L482.79161,432.492408 L482.640598,432.166106 L482.486608,431.846574 L482.408475,431.689255 C482.319208,431.5113 482.229785,431.339111 482.139747,431.172543 L481.958714,430.84686 C480.592778,428.459805 479.019636,427.315787 475.69128,426.925607 L475.236962,426.878007 L474.761026,426.839084 C474.436348,426.81597 474.096714,426.798469 473.741038,426.786237 L473.50761,426.779229 L473.364461,426.8011 C469.954193,427.346765 468.275761,428.478181 466.87054,431.183238 L466.688679,431.545077 C466.598404,431.73054 466.509021,431.922879 466.420126,432.122367 L466.242866,432.530959 L466.066187,432.959104 L465.910156,433.353673 L465.777145,433.702378 L465.647218,434.05501 L465.520303,434.411993 L465.335421,434.95655 L465.215723,435.326259 L465.098785,435.7018 L464.984538,436.083595 L464.872908,436.472067 L464.710216,437.06822 L464.55301,437.681776 L464.401051,438.314162 L464.302539,438.74692 L464.206179,439.189104 L464.111899,439.641138 L464.019629,440.103445 L463.884833,440.817092 L463.754153,441.556232 L463.669201,442.06386 L463.585899,442.583876 L463.504176,443.116703 L463.384395,443.940889 L463.267764,444.796278 L463.154039,445.6843 L463.006511,446.921556 L462.898629,447.89127 L462.792849,448.898375 L462.654658,450.301811 L462.5192,451.777643 L462.419053,452.934061 L462.286996,454.544725 L462.188742,455.806154 L462.090896,457.114968 L461.928069,459.405501 L461.731709,462.342424 L461.417693,467.21665 L461.238506,469.85071 L461.095661,471.83213 L460.987921,473.251511 L460.842359,475.063316 L460.69336,476.79227 L460.539552,478.448605 L460.460417,479.25274 L460.296824,480.819337 L460.168798,481.96286 L460.080588,482.712642 L459.943554,483.821665 L459.800344,484.915744 L459.701153,485.63896 L459.546363,486.717727 L459.438917,487.434733 L459.27094,488.510182 L459.154167,489.228972 C457.628738,498.477808 455.289907,506.410176 451.621705,513.500035 C442.141984,531.822335 424.921182,541.799297 401.032546,541.997004 L400.306608,542 L391,542 L391,503.23563 L400.306608,503.23563 C406.11128,503.23563 410.078482,502.312637 412.70242,500.812102 C414.612039,499.720061 416.053744,498.14729 417.355174,495.6319 L417.446519,495.453613 L417.626249,495.092265 L417.802091,494.724288 C417.831077,494.662389 417.859905,494.6002 417.888574,494.537715 L418.058709,494.159202 L418.225124,493.773269 C418.252553,493.708311 418.27983,493.643031 418.306957,493.577421 L418.467918,493.179765 C418.494447,493.112813 418.520828,493.045519 418.547063,492.977877 L418.702722,492.567785 C418.728376,492.498721 418.753886,492.429295 418.779254,492.359501 L418.929763,491.936261 L419.076924,491.50386 C419.101176,491.431012 419.12529,491.357769 419.14927,491.284125 L419.291534,490.837388 L419.430619,490.3807 L419.566591,489.913742 L419.699518,489.436199 L419.829467,488.947754 L419.956507,488.448091 L420.080705,487.936892 L420.202128,487.413842 L420.320843,486.878624 C420.340407,486.788389 420.359861,486.697634 420.379207,486.606353 L420.493988,486.052289 L420.60623,485.485265 L420.716002,484.904966 L420.82337,484.311073 L420.928402,483.703272 L421.031166,483.081245 L421.131729,482.444675 L421.230159,481.793247 L421.326523,481.126644 L421.467343,480.097592 L421.558837,479.391665 L421.69267,478.302145 L421.822615,477.174919 L421.948898,476.00892 L422.031167,475.209518 L422.191396,473.556325 L422.308065,472.267593 L422.421986,470.935814 L422.569997,469.0913 L422.642491,468.138841 L422.784792,466.171936 L422.923962,464.120273 L423.330881,457.80735 L423.541927,454.683928 L423.71708,452.250011 L423.888428,450.04421 L424.011175,448.581321 L424.110941,447.464989 L424.213081,446.386793 L424.372718,444.821123 L424.484747,443.798508 L424.602313,442.782221 L424.665752,442.254746 L424.731048,441.725262 C424.786271,441.282836 424.843561,440.836998 424.903245,440.384449 C425.98141,432.209397 427.575862,425.249005 430.077215,418.907923 C436.962683,401.452851 450.492109,390.351652 470.219283,388.121711 C470.936531,388.040634 471.657743,388 472.379523,388 Z" id="Path" fill="url(#linearGradient-1)" fill-rule="nonzero" transform="translate(534.500000, 465.000000) rotate(-180.000000) translate(-534.500000, -465.000000) "></path>
        <path d="M482.379523,542 C503.180483,542 518.462959,551.443468 526.895531,568.253963 C530.022181,574.486999 532.098231,581.418785 533.559459,589.48114 L533.685033,590.183935 L533.806745,590.885433 L533.982576,591.938506 L534.09564,592.643276 L534.259578,593.708239 L534.417418,594.787037 L534.519641,595.516405 L534.669044,596.629433 L534.814423,597.7697 L534.956555,598.942232 L535.096217,600.152057 L535.234186,601.404199 L535.371241,602.703686 L535.50816,604.055544 L535.691848,605.948174 L535.925868,608.475604 L536.462848,614.510882 L536.699165,617.04209 L536.892748,619.014456 L537.0079,620.140575 L537.122577,621.225173 L537.275126,622.608772 L537.389561,623.601117 L537.504265,624.555909 L537.658007,625.772607 L537.813152,626.927482 L537.970229,628.023355 L538.129767,629.063048 L538.251354,629.807648 L538.374846,630.523424 L538.500466,631.211567 L538.628438,631.873268 L538.758985,632.509716 L538.892329,633.122102 L539.028695,633.711616 L539.168304,634.279449 L539.311381,634.826792 L539.458149,635.354834 L539.558154,635.696727 L539.711569,636.195247 L539.869269,636.67764 L540.031479,637.145098 L540.142233,637.449027 L540.312453,637.894238 L540.487777,638.327687 L540.668429,638.750565 L540.922676,639.318755 L541.042275,639.57418 L541.215596,639.923355 L541.328817,640.134471 L541.441557,640.329031 C541.987213,641.230471 542.557481,641.57516 543.753535,641.702177 L544.010121,641.725462 C544.054439,641.728862 544.099551,641.732031 544.14548,641.734983 L544.431072,641.750201 L544.73748,641.760876 L545.23871,641.769829 L545.793433,641.772312 C549.147371,641.772312 551.277638,641.336008 552.503634,640.730359 C552.994459,640.487889 553.291753,640.231886 553.662202,639.688876 L553.81539,639.455037 L553.931815,639.266233 L554.046502,639.070536 L554.159552,638.867527 L554.271067,638.656784 L554.38115,638.437885 L554.489903,638.210409 L554.597428,637.973934 L554.703828,637.728041 L554.809204,637.472307 L554.91366,637.206311 L555.06884,636.787154 L555.171441,636.49366 L555.273478,636.188429 L555.425702,635.707657 L555.526779,635.371242 L555.627651,635.021617 L555.778797,634.471488 L555.930058,633.889265 L556.031131,633.482584 L556.183348,632.843712 L556.285378,632.397948 L556.491227,631.456889 L556.64758,630.706095 L556.806002,629.915151 L556.966839,629.082634 L557.18564,627.905487 L557.410164,626.648535 L557.64123,625.308409 L557.940508,623.511153 L558.450689,620.372209 L558.805157,618.242068 L559.13221,616.346985 L559.339927,615.19114 L559.492396,614.370885 L559.693625,613.328297 L559.844612,612.577106 L559.997038,611.845792 L560.152146,611.128522 L560.36528,610.183925 L560.588342,609.240099 L560.763928,608.524416 L560.948001,607.795556 C562.565268,601.476717 564.711973,596.014618 567.85681,591.046351 C576.098793,578.025526 589.664576,571.17602 607.455837,571.17602 C608.312521,571.17602 609.168256,571.233263 610.017366,571.34737 C627.632331,573.714534 640.095895,582.977262 646.614501,597.629083 C649.03133,603.06137 650.527589,608.908557 651.492024,615.637978 L651.631064,616.633348 C651.653337,616.797254 651.675179,616.960344 651.696619,617.122887 L651.789827,617.846389 L651.905134,618.795138 L652.039587,619.994705 L652.140973,620.979984 L652.238262,622.001124 L652.309312,622.797779 L652.425688,624.199301 L652.541689,625.713471 L652.708238,628.067472 L653.081091,633.754459 L653.189928,635.306311 L653.32827,637.133494 L653.412831,638.171782 L653.527782,639.490862 L653.645657,640.737813 L653.736249,641.627334 L653.828921,642.478971 L653.923862,643.293874 L653.988507,643.817305 L654.054299,644.325263 L654.121293,644.81809 L654.189543,645.296128 L654.294397,645.9862 L654.402391,646.644916 L654.513712,647.273426 L654.589866,647.676221 L654.667637,648.066446 L654.787447,648.628958 L654.869503,648.989248 L654.95337,649.338161 L655.082687,649.840948 L655.171323,650.162913 L655.308053,650.626878 L655.401805,650.924029 L655.497699,651.211852 L655.595792,651.490687 L655.696139,651.760877 L655.798796,652.022763 L655.903816,652.276685 L656.011257,652.522985 L656.121173,652.762005 L656.23362,652.994086 L656.348653,653.219569 L656.466327,653.438795 C656.486163,653.474831 656.50611,653.510619 656.526172,653.546169 C657.099869,654.562777 657.64685,655.098835 658.627883,655.595694 C660.089343,656.335873 662.298878,656.894281 665.403959,657.122644 L666.016164,657.162682 C666.743543,657.204492 667.517069,657.228985 668.338441,657.234456 L668.693392,657.23563 L678,657.23563 L678,696 L668.693392,696 C647.283388,696 631.630933,688.072575 622.929906,672.654103 C619.644682,666.832591 617.607869,660.436509 616.327407,653.082988 L616.17245,652.1667 L616.036911,651.324504 L615.868342,650.21467 L615.750186,649.385354 L615.638398,648.552868 L615.53233,647.711994 L615.431332,646.857519 L615.334755,645.984227 L615.241952,645.086903 L615.152272,644.160331 L615.036437,642.870393 L614.895487,641.152981 L614.783928,639.679994 L614.643458,637.694658 L614.469429,635.069033 L614.326779,632.858866 L614.196218,630.946951 L614.091758,629.510511 L613.960321,627.825981 L613.853854,626.563206 L613.745656,625.372321 L613.60719,623.979852 L613.493213,622.938815 L613.375828,621.959085 L613.315697,621.491192 L613.25452,621.037404 L613.160654,620.382279 L613.064074,619.7566 L612.96456,619.158994 L612.861897,618.588087 L612.755866,618.042504 L612.683199,617.692173 L612.571071,617.185745 L612.494139,616.860244 L612.415387,616.543963 L612.293708,616.085938 L612.210126,615.790925 L612.124498,615.503707 L611.992082,615.086605 L611.90106,614.817093 L611.807767,614.55395 L611.712139,614.296771 L611.614111,614.045147 L611.462428,613.677237 L611.358118,613.437721 L611.29564,613.299222 L611.170075,613.033388 L611.04258,612.78198 C610.226156,611.234255 609.212645,610.521421 606.464497,610.014341 L606.184369,609.964277 L606.049593,609.970297 C603.856404,610.068103 602.40433,610.396308 601.518818,610.813755 L601.415265,610.864268 C601.055976,611.045677 600.844065,611.232129 600.527936,611.711021 L600.391513,611.925075 L600.228792,612.198375 L600.122274,612.388661 L600.01721,612.585901 L599.9135,612.790509 L599.811045,613.0029 L599.709745,613.22349 L599.609501,613.452694 L599.460896,613.813558 L599.362856,614.066111 L599.265524,614.328731 L599.120634,614.742443 L599.024635,615.032044 L598.881279,615.488174 L598.785992,615.80735 L598.690815,616.139084 L598.54804,616.661135 L598.452705,617.026076 L598.357132,617.405026 L598.213109,618.000626 L598.019319,618.847666 L597.872221,619.524442 L597.673112,620.484799 L597.469868,621.514476 L597.314244,622.334221 L597.101851,623.493195 L596.827375,625.052622 L596.599637,626.392777 L596.423552,627.454098 L595.774308,631.434927 L595.463745,633.281483 L595.228042,634.638284 L595.000113,635.904183 L594.832292,636.802926 L594.610064,637.945639 L594.442747,638.769123 L594.330125,639.305632 L594.100448,640.357086 L593.922696,641.134151 L593.738694,641.908329 L593.547058,642.685913 L593.414375,643.209301 L593.277272,643.738864 C591.604938,650.134077 589.372968,655.676018 586.113642,660.700667 C577.662831,673.72862 563.881477,680.536682 545.793433,680.536682 C526.522849,680.536682 512.573321,670.882797 505.331154,654.376115 C502.772245,648.543731 501.098233,642.107057 499.895673,634.507449 C499.755187,633.619646 499.625532,632.758621 499.503093,631.895531 L499.396198,631.128029 L499.229565,629.870346 L499.100757,628.840837 L498.974621,627.779972 L498.818842,626.394905 L498.63152,624.621113 L498.439873,622.694297 L498.239766,620.581467 L497.876222,616.557121 L497.47742,612.056947 L497.308258,610.240835 L497.1384,608.502842 L497.010237,607.249186 L496.837907,605.64219 L496.663446,604.106786 L496.530889,603.000787 L496.39662,601.932721 L496.306047,601.241257 L496.168435,600.234189 L496.028524,599.262383 L495.886094,598.324839 L495.740924,597.420555 L495.642514,596.835682 L495.542723,596.264849 L495.390306,595.434277 L495.286778,594.897248 L495.128449,594.115989 L494.966281,593.362984 L494.800052,592.637229 L494.686868,592.168038 L494.571717,591.710217 L494.454533,591.263469 L494.335251,590.827497 L494.213805,590.402006 L494.027438,589.782768 C494.006444,589.7152 493.985353,589.648037 493.964164,589.581274 L493.835837,589.185441 L493.705086,588.798901 L493.571846,588.421356 L493.43605,588.052512 L493.297635,587.692069 L493.156535,587.339733 L493.012685,586.995206 C492.988477,586.938419 492.964152,586.881945 492.939708,586.825778 L492.79161,586.492408 L492.640598,586.166106 L492.486608,585.846574 L492.408475,585.689255 C492.319208,585.5113 492.229785,585.339111 492.139747,585.172543 L491.958714,584.84686 C490.592778,582.459805 489.019636,581.315787 485.69128,580.925607 L485.236962,580.878007 L484.761026,580.839084 C484.436348,580.81597 484.096714,580.798469 483.741038,580.786237 L483.50761,580.778583 L483.364461,580.8011 C479.954193,581.346765 478.275761,582.478181 476.87054,585.183238 L476.688679,585.545077 C476.598404,585.73054 476.509021,585.922879 476.420126,586.122367 L476.242866,586.530959 L476.066187,586.959104 L475.910156,587.353673 L475.777145,587.702378 L475.647218,588.05501 L475.520303,588.411993 L475.335421,588.95655 L475.215723,589.326259 L475.098785,589.7018 L474.984538,590.083595 L474.872908,590.472067 L474.710216,591.06822 L474.55301,591.681776 L474.401051,592.314162 L474.302539,592.74692 L474.206179,593.189104 L474.111899,593.641138 L474.019629,594.103445 L473.884833,594.817092 L473.754153,595.556232 L473.669201,596.06386 L473.585899,596.583876 L473.504176,597.116703 L473.384395,597.940889 L473.267764,598.796278 L473.154039,599.6843 L473.006511,600.921556 L472.898629,601.89127 L472.792849,602.898375 L472.654658,604.301811 L472.5192,605.777643 L472.419053,606.934061 L472.286996,608.544725 L472.188742,609.806154 L472.090896,611.114968 L471.928069,613.405501 L471.731709,616.342424 L471.417693,621.21665 L471.238506,623.85071 L471.095661,625.83213 L470.987921,627.251511 L470.842359,629.063316 L470.69336,630.79227 L470.539552,632.448605 L470.460417,633.25274 L470.296824,634.819337 L470.168798,635.96286 L470.080588,636.712642 L469.943554,637.821665 L469.800344,638.915744 L469.701153,639.63896 L469.546363,640.717727 L469.438917,641.434733 L469.27094,642.510182 L469.154167,643.228972 C467.628738,652.477808 465.289907,660.410176 461.621705,667.500035 C452.141984,685.822335 434.921182,695.799297 411.032546,695.997004 L410.306608,696 L391,696 L391,657.23563 L410.306608,657.23563 C416.11128,657.23563 420.078482,656.312637 422.70242,654.812102 C424.612039,653.720061 426.053744,652.14729 427.355174,649.6319 L427.446519,649.453613 L427.626249,649.092265 L427.802091,648.724288 C427.831077,648.662389 427.859905,648.6002 427.888574,648.537715 L428.058709,648.159202 L428.225124,647.773269 C428.252553,647.708311 428.27983,647.643031 428.306957,647.577421 L428.467918,647.179765 C428.494447,647.112813 428.520828,647.045519 428.547063,646.977877 L428.702722,646.567785 C428.728376,646.498721 428.753886,646.429295 428.779254,646.359501 L428.929763,645.936261 L429.076924,645.50386 C429.101176,645.431012 429.12529,645.357769 429.14927,645.284125 L429.291534,644.837388 L429.430619,644.3807 L429.566591,643.913742 L429.699518,643.436199 L429.829467,642.947754 L429.956507,642.448091 L430.080705,641.936892 L430.202128,641.413842 L430.320843,640.878624 C430.340407,640.788389 430.359861,640.697634 430.379207,640.606353 L430.493988,640.052289 L430.60623,639.485265 L430.716002,638.904966 L430.82337,638.311073 L430.928402,637.703272 L431.031166,637.081245 L431.131729,636.444675 L431.230159,635.793247 L431.326523,635.126644 L431.467343,634.097592 L431.558837,633.391665 L431.69267,632.302145 L431.822615,631.174919 L431.948898,630.00892 L432.031167,629.209518 L432.191396,627.556325 L432.308065,626.267593 L432.421986,624.935814 L432.569997,623.0913 L432.642491,622.138841 L432.784792,620.171936 L432.923962,618.120273 L433.330881,611.80735 L433.541927,608.683928 L433.71708,606.250011 L433.888428,604.04421 L434.011175,602.581321 L434.110941,601.464989 L434.213081,600.386793 L434.372718,598.821123 L434.484747,597.798508 L434.602313,596.782221 L434.665752,596.254746 L434.731048,595.725262 C434.786271,595.282836 434.843561,594.836998 434.903245,594.384449 C435.98141,586.209397 437.575862,579.249005 440.077215,572.907923 C446.962683,555.452851 460.492109,544.351652 480.219283,542.121711 C480.936531,542.040634 481.657743,542 482.379523,542 Z" id="Path" fill="url(#linearGradient-1)" fill-rule="nonzero" transform="translate(534.500000, 619.000000) scale(-1, -1) rotate(-180.000000) translate(-534.500000, -619.000000) "></path>
        <path d="M482.379523,388 C503.180483,388 518.462959,397.443468 526.895531,414.253963 C530.022181,420.486999 532.098231,427.418785 533.559459,435.48114 L533.685033,436.183935 L533.806745,436.885433 L533.982576,437.938506 L534.09564,438.643276 L534.259578,439.708239 L534.417418,440.787037 L534.519641,441.516405 L534.669044,442.629433 L534.814423,443.7697 L534.956555,444.942232 L535.096217,446.152057 L535.234186,447.404199 L535.371241,448.703686 L535.50816,450.055544 L535.691848,451.948174 L535.925868,454.475604 L536.462848,460.510882 L536.699165,463.04209 L536.892748,465.014456 L537.0079,466.140575 L537.122577,467.225173 L537.275126,468.608772 L537.389561,469.601117 L537.504265,470.555909 L537.658007,471.772607 L537.813152,472.927482 L537.970229,474.023355 L538.129767,475.063048 L538.251354,475.807648 L538.374846,476.523424 L538.500466,477.211567 L538.628438,477.873268 L538.758985,478.509716 L538.892329,479.122102 L539.028695,479.711616 L539.168304,480.279449 L539.311381,480.826792 L539.458149,481.354834 L539.558154,481.696727 L539.711569,482.195247 L539.869269,482.67764 L540.031479,483.145098 L540.142233,483.449027 L540.312453,483.894238 L540.487777,484.327687 L540.668429,484.750565 L540.922676,485.318755 L541.042275,485.57418 L541.215596,485.923355 L541.328817,486.134471 L541.441557,486.329031 C541.987213,487.230471 542.557481,487.57516 543.753535,487.702177 L544.010121,487.725462 C544.054439,487.728862 544.099551,487.732031 544.14548,487.734983 L544.431072,487.750201 L544.73748,487.760876 L545.23871,487.769829 L545.793433,487.772312 C549.147371,487.772312 551.277638,487.336008 552.503634,486.730359 C552.994459,486.487889 553.291753,486.231886 553.662202,485.688876 L553.81539,485.455037 L553.931815,485.266233 L554.046502,485.070536 L554.159552,484.867527 L554.271067,484.656784 L554.38115,484.437885 L554.489903,484.210409 L554.597428,483.973934 L554.703828,483.728041 L554.809204,483.472307 L554.91366,483.206311 L555.06884,482.787154 L555.171441,482.49366 L555.273478,482.188429 L555.425702,481.707657 L555.526779,481.371242 L555.627651,481.021617 L555.778797,480.471488 L555.930058,479.889265 L556.031131,479.482584 L556.183348,478.843712 L556.285378,478.397948 L556.491227,477.456889 L556.64758,476.706095 L556.806002,475.915151 L556.966839,475.082634 L557.18564,473.905487 L557.410164,472.648535 L557.64123,471.308409 L557.940508,469.511153 L558.450689,466.372209 L558.805157,464.242068 L559.13221,462.346985 L559.339927,461.19114 L559.492396,460.370885 L559.693625,459.328297 L559.844612,458.577106 L559.997038,457.845792 L560.152146,457.128522 L560.36528,456.183925 L560.588342,455.240099 L560.763928,454.524416 L560.948001,453.795556 C562.565268,447.476717 564.711973,442.014618 567.85681,437.046351 C576.098793,424.025526 589.664576,417.17602 607.455837,417.17602 C608.312521,417.17602 609.168256,417.233263 610.017366,417.34737 C627.632331,419.714534 640.095895,428.977262 646.614501,443.629083 C649.03133,449.06137 650.527589,454.908557 651.492024,461.637978 L651.631064,462.633348 C651.653337,462.797254 651.675179,462.960344 651.696619,463.122887 L651.789827,463.846389 L651.905134,464.795138 L652.039587,465.994705 L652.140973,466.979984 L652.238262,468.001124 L652.309312,468.797779 L652.425688,470.199301 L652.541689,471.713471 L652.708238,474.067472 L653.081091,479.754459 L653.189928,481.306311 L653.32827,483.133494 L653.412831,484.171782 L653.527782,485.490862 L653.645657,486.737813 L653.736249,487.627334 L653.828921,488.478971 L653.923862,489.293874 L653.988507,489.817305 L654.054299,490.325263 L654.121293,490.81809 L654.189543,491.296128 L654.294397,491.9862 L654.402391,492.644916 L654.513712,493.273426 L654.589866,493.676221 L654.667637,494.066446 L654.787447,494.628958 L654.869503,494.989248 L654.95337,495.338161 L655.082687,495.840948 L655.171323,496.162913 L655.308053,496.626878 L655.401805,496.924029 L655.497699,497.211852 L655.595792,497.490687 L655.696139,497.760877 L655.798796,498.022763 L655.903816,498.276685 L656.011257,498.522985 L656.121173,498.762005 L656.23362,498.994086 L656.348653,499.219569 L656.466327,499.438795 C656.486163,499.474831 656.50611,499.510619 656.526172,499.546169 C657.099869,500.562777 657.64685,501.098835 658.627883,501.595694 C660.089343,502.335873 662.298878,502.894281 665.403959,503.122644 L666.016164,503.162682 C666.743543,503.204492 667.517069,503.228985 668.338441,503.234456 L668.693392,503.23563 L678,503.23563 L678,542 L668.693392,542 C647.283388,542 631.630933,534.072575 622.929906,518.654103 C619.644682,512.832591 617.607869,506.436509 616.327407,499.082988 L616.17245,498.1667 L616.036911,497.324504 L615.868342,496.21467 L615.750186,495.385354 L615.638398,494.552868 L615.53233,493.711994 L615.431332,492.857519 L615.334755,491.984227 L615.241952,491.086903 L615.152272,490.160331 L615.036437,488.870393 L614.895487,487.152981 L614.783928,485.679994 L614.643458,483.694658 L614.469429,481.069033 L614.326779,478.858866 L614.196218,476.946951 L614.091758,475.510511 L613.960321,473.825981 L613.853854,472.563206 L613.745656,471.372321 L613.60719,469.979852 L613.493213,468.938815 L613.375828,467.959085 L613.315697,467.491192 L613.25452,467.037404 L613.160654,466.382279 L613.064074,465.7566 L612.96456,465.158994 L612.861897,464.588087 L612.755866,464.042504 L612.683199,463.692173 L612.571071,463.185745 L612.494139,462.860244 L612.415387,462.543963 L612.293708,462.085938 L612.210126,461.790925 L612.124498,461.503707 L611.992082,461.086605 L611.90106,460.817093 L611.807767,460.55395 L611.712139,460.296771 L611.614111,460.045147 L611.462428,459.677237 L611.358118,459.437721 L611.29564,459.299222 L611.170075,459.033388 L611.04258,458.78198 C610.226156,457.234255 609.212645,456.521421 606.464497,456.014341 L606.184369,455.964923 L606.049593,455.970297 C603.856404,456.068103 602.40433,456.396308 601.518818,456.813755 L601.415265,456.864268 C601.055976,457.045677 600.844065,457.232129 600.527936,457.711021 L600.391513,457.925075 L600.228792,458.198375 L600.122274,458.388661 L600.01721,458.585901 L599.9135,458.790509 L599.811045,459.0029 L599.709745,459.22349 L599.609501,459.452694 L599.460896,459.813558 L599.362856,460.066111 L599.265524,460.328731 L599.120634,460.742443 L599.024635,461.032044 L598.881279,461.488174 L598.785992,461.80735 L598.690815,462.139084 L598.54804,462.661135 L598.452705,463.026076 L598.357132,463.405026 L598.213109,464.000626 L598.019319,464.847666 L597.872221,465.524442 L597.673112,466.484799 L597.469868,467.514476 L597.314244,468.334221 L597.101851,469.493195 L596.827375,471.052622 L596.599637,472.392777 L596.423552,473.454098 L595.774308,477.434927 L595.463745,479.281483 L595.228042,480.638284 L595.000113,481.904183 L594.832292,482.802926 L594.610064,483.945639 L594.442747,484.769123 L594.330125,485.305632 L594.100448,486.357086 L593.922696,487.134151 L593.738694,487.908329 L593.547058,488.685913 L593.414375,489.209301 L593.277272,489.738864 C591.604938,496.134077 589.372968,501.676018 586.113642,506.700667 C577.662831,519.72862 563.881477,526.536682 545.793433,526.536682 C526.522849,526.536682 512.573321,516.882797 505.331154,500.376115 C502.772245,494.543731 501.098233,488.107057 499.895673,480.507449 C499.755187,479.619646 499.625532,478.758621 499.503093,477.895531 L499.396198,477.128029 L499.229565,475.870346 L499.100757,474.840837 L498.974621,473.779972 L498.818842,472.394905 L498.63152,470.621113 L498.439873,468.694297 L498.239766,466.581467 L497.876222,462.557121 L497.47742,458.056947 L497.308258,456.240835 L497.1384,454.502842 L497.010237,453.249186 L496.837907,451.64219 L496.663446,450.106786 L496.530889,449.000787 L496.39662,447.932721 L496.306047,447.241257 L496.168435,446.234189 L496.028524,445.262383 L495.886094,444.324839 L495.740924,443.420555 L495.642514,442.835682 L495.542723,442.264849 L495.390306,441.434277 L495.286778,440.897248 L495.128449,440.115989 L494.966281,439.362984 L494.800052,438.637229 L494.686868,438.168038 L494.571717,437.710217 L494.454533,437.263469 L494.335251,436.827497 L494.213805,436.402006 L494.027438,435.782768 C494.006444,435.7152 493.985353,435.648037 493.964164,435.581274 L493.835837,435.185441 L493.705086,434.798901 L493.571846,434.421356 L493.43605,434.052512 L493.297635,433.692069 L493.156535,433.339733 L493.012685,432.995206 C492.988477,432.938419 492.964152,432.881945 492.939708,432.825778 L492.79161,432.492408 L492.640598,432.166106 L492.486608,431.846574 L492.408475,431.689255 C492.319208,431.5113 492.229785,431.339111 492.139747,431.172543 L491.958714,430.84686 C490.592778,428.459805 489.019636,427.315787 485.69128,426.925607 L485.236962,426.878007 L484.761026,426.839084 C484.436348,426.81597 484.096714,426.798469 483.741038,426.786237 L483.50761,426.779229 L483.364461,426.8011 C479.954193,427.346765 478.275761,428.478181 476.87054,431.183238 L476.688679,431.545077 C476.598404,431.73054 476.509021,431.922879 476.420126,432.122367 L476.242866,432.530959 L476.066187,432.959104 L475.910156,433.353673 L475.777145,433.702378 L475.647218,434.05501 L475.520303,434.411993 L475.335421,434.95655 L475.215723,435.326259 L475.098785,435.7018 L474.984538,436.083595 L474.872908,436.472067 L474.710216,437.06822 L474.55301,437.681776 L474.401051,438.314162 L474.302539,438.74692 L474.206179,439.189104 L474.111899,439.641138 L474.019629,440.103445 L473.884833,440.817092 L473.754153,441.556232 L473.669201,442.06386 L473.585899,442.583876 L473.504176,443.116703 L473.384395,443.940889 L473.267764,444.796278 L473.154039,445.6843 L473.006511,446.921556 L472.898629,447.89127 L472.792849,448.898375 L472.654658,450.301811 L472.5192,451.777643 L472.419053,452.934061 L472.286996,454.544725 L472.188742,455.806154 L472.090896,457.114968 L471.928069,459.405501 L471.731709,462.342424 L471.417693,467.21665 L471.238506,469.85071 L471.095661,471.83213 L470.987921,473.251511 L470.842359,475.063316 L470.69336,476.79227 L470.539552,478.448605 L470.460417,479.25274 L470.296824,480.819337 L470.168798,481.96286 L470.080588,482.712642 L469.943554,483.821665 L469.800344,484.915744 L469.701153,485.63896 L469.546363,486.717727 L469.438917,487.434733 L469.27094,488.510182 L469.154167,489.228972 C467.628738,498.477808 465.289907,506.410176 461.621705,513.500035 C452.141984,531.822335 434.921182,541.799297 411.032546,541.997004 L410.306608,542 L391,542 L391,503.23563 L410.306608,503.23563 C416.11128,503.23563 420.078482,502.312637 422.70242,500.812102 C424.612039,499.720061 426.053744,498.14729 427.355174,495.6319 L427.446519,495.453613 L427.626249,495.092265 L427.802091,494.724288 C427.831077,494.662389 427.859905,494.6002 427.888574,494.537715 L428.058709,494.159202 L428.225124,493.773269 C428.252553,493.708311 428.27983,493.643031 428.306957,493.577421 L428.467918,493.179765 C428.494447,493.112813 428.520828,493.045519 428.547063,492.977877 L428.702722,492.567785 C428.728376,492.498721 428.753886,492.429295 428.779254,492.359501 L428.929763,491.936261 L429.076924,491.50386 C429.101176,491.431012 429.12529,491.357769 429.14927,491.284125 L429.291534,490.837388 L429.430619,490.3807 L429.566591,489.913742 L429.699518,489.436199 L429.829467,488.947754 L429.956507,488.448091 L430.080705,487.936892 L430.202128,487.413842 L430.320843,486.878624 C430.340407,486.788389 430.359861,486.697634 430.379207,486.606353 L430.493988,486.052289 L430.60623,485.485265 L430.716002,484.904966 L430.82337,484.311073 L430.928402,483.703272 L431.031166,483.081245 L431.131729,482.444675 L431.230159,481.793247 L431.326523,481.126644 L431.467343,480.097592 L431.558837,479.391665 L431.69267,478.302145 L431.822615,477.174919 L431.948898,476.00892 L432.031167,475.209518 L432.191396,473.556325 L432.308065,472.267593 L432.421986,470.935814 L432.569997,469.0913 L432.642491,468.138841 L432.784792,466.171936 L432.923962,464.120273 L433.330881,457.80735 L433.541927,454.683928 L433.71708,452.250011 L433.888428,450.04421 L434.011175,448.581321 L434.110941,447.464989 L434.213081,446.386793 L434.372718,444.821123 L434.484747,443.798508 L434.602313,442.782221 L434.665752,442.254746 L434.731048,441.725262 C434.786271,441.282836 434.843561,440.836998 434.903245,440.384449 C435.98141,432.209397 437.575862,425.249005 440.077215,418.907923 C446.962683,401.452851 460.492109,390.351652 480.219283,388.121711 C480.936531,388.040634 481.657743,388 482.379523,388 Z" id="Path" fill="url(#linearGradient-2)" fill-rule="nonzero" style="mix-blend-mode: normal;" transform="translate(534.500000, 465.000000) rotate(-180.000000) translate(-534.500000, -465.000000) "></path>
        <path d="M472.379523,542 C493.180483,542 508.462959,551.443468 516.895531,568.253963 C520.022181,574.486999 522.098231,581.418785 523.559459,589.48114 L523.685033,590.183935 L523.806745,590.885433 L523.982576,591.938506 L524.09564,592.643276 L524.259578,593.708239 L524.417418,594.787037 L524.519641,595.516405 L524.669044,596.629433 L524.814423,597.7697 L524.956555,598.942232 L525.096217,600.152057 L525.234186,601.404199 L525.371241,602.703686 L525.50816,604.055544 L525.691848,605.948174 L525.925868,608.475604 L526.462848,614.510882 L526.699165,617.04209 L526.892748,619.014456 L527.0079,620.140575 L527.122577,621.225173 L527.275126,622.608772 L527.389561,623.601117 L527.504265,624.555909 L527.658007,625.772607 L527.813152,626.927482 L527.970229,628.023355 L528.129767,629.063048 L528.251354,629.807648 L528.374846,630.523424 L528.500466,631.211567 L528.628438,631.873268 L528.758985,632.509716 L528.892329,633.122102 L529.028695,633.711616 L529.168304,634.279449 L529.311381,634.826792 L529.458149,635.354834 L529.558154,635.696727 L529.711569,636.195247 L529.869269,636.67764 L530.031479,637.145098 L530.142233,637.449027 L530.312453,637.894238 L530.487777,638.327687 L530.668429,638.750565 L530.922676,639.318755 L531.042275,639.57418 L531.215596,639.923355 L531.328817,640.134471 L531.441557,640.329031 C531.987213,641.230471 532.557481,641.57516 533.753535,641.702177 L534.010121,641.725462 C534.054439,641.728862 534.099551,641.732031 534.14548,641.734983 L534.431072,641.750201 L534.73748,641.760876 L535.23871,641.769829 L535.793433,641.772312 C539.147371,641.772312 541.277638,641.336008 542.503634,640.730359 C542.994459,640.487889 543.291753,640.231886 543.662202,639.688876 L543.81539,639.455037 L543.931815,639.266233 L544.046502,639.070536 L544.159552,638.867527 L544.271067,638.656784 L544.38115,638.437885 L544.489903,638.210409 L544.597428,637.973934 L544.703828,637.728041 L544.809204,637.472307 L544.91366,637.206311 L545.06884,636.787154 L545.171441,636.49366 L545.273478,636.188429 L545.425702,635.707657 L545.526779,635.371242 L545.627651,635.021617 L545.778797,634.471488 L545.930058,633.889265 L546.031131,633.482584 L546.183348,632.843712 L546.285378,632.397948 L546.491227,631.456889 L546.64758,630.706095 L546.806002,629.915151 L546.966839,629.082634 L547.18564,627.905487 L547.410164,626.648535 L547.64123,625.308409 L547.940508,623.511153 L548.450689,620.372209 L548.805157,618.242068 L549.13221,616.346985 L549.339927,615.19114 L549.492396,614.370885 L549.693625,613.328297 L549.844612,612.577106 L549.997038,611.845792 L550.152146,611.128522 L550.36528,610.183925 L550.588342,609.240099 L550.763928,608.524416 L550.948001,607.795556 C552.565268,601.476717 554.711973,596.014618 557.85681,591.046351 C566.098793,578.025526 579.664576,571.17602 597.455837,571.17602 C598.312521,571.17602 599.168256,571.233263 600.017366,571.34737 C617.632331,573.714534 630.095895,582.977262 636.614501,597.629083 C639.03133,603.06137 640.527589,608.908557 641.492024,615.637978 L641.631064,616.633348 C641.653337,616.797254 641.675179,616.960344 641.696619,617.122887 L641.789827,617.846389 L641.905134,618.795138 L642.039587,619.994705 L642.140973,620.979984 L642.238262,622.001124 L642.309312,622.797779 L642.425688,624.199301 L642.541689,625.713471 L642.708238,628.067472 L643.081091,633.754459 L643.189928,635.306311 L643.32827,637.133494 L643.412831,638.171782 L643.527782,639.490862 L643.645657,640.737813 L643.736249,641.627334 L643.828921,642.478971 L643.923862,643.293874 L643.988507,643.817305 L644.054299,644.325263 L644.121293,644.81809 L644.189543,645.296128 L644.294397,645.9862 L644.402391,646.644916 L644.513712,647.273426 L644.589866,647.676221 L644.667637,648.066446 L644.787447,648.628958 L644.869503,648.989248 L644.95337,649.338161 L645.082687,649.840948 L645.171323,650.162913 L645.308053,650.626878 L645.401805,650.924029 L645.497699,651.211852 L645.595792,651.490687 L645.696139,651.760877 L645.798796,652.022763 L645.903816,652.276685 L646.011257,652.522985 L646.121173,652.762005 L646.23362,652.994086 L646.348653,653.219569 L646.466327,653.438795 C646.486163,653.474831 646.50611,653.510619 646.526172,653.546169 C647.099869,654.562777 647.64685,655.098835 648.627883,655.595694 C650.089343,656.335873 652.298878,656.894281 655.403959,657.122644 L656.016164,657.162682 C656.743543,657.204492 657.517069,657.228985 658.338441,657.234456 L658.693392,657.23563 L678,657.23563 L678,696 L658.693392,696 C637.283388,696 621.630933,688.072575 612.929906,672.654103 C609.644682,666.832591 607.607869,660.436509 606.327407,653.082988 L606.17245,652.1667 L606.036911,651.324504 L605.868342,650.21467 L605.750186,649.385354 L605.638398,648.552868 L605.53233,647.711994 L605.431332,646.857519 L605.334755,645.984227 L605.241952,645.086903 L605.152272,644.160331 L605.036437,642.870393 L604.895487,641.152981 L604.783928,639.679994 L604.643458,637.694658 L604.469429,635.069033 L604.326779,632.858866 L604.196218,630.946951 L604.091758,629.510511 L603.960321,627.825981 L603.853854,626.563206 L603.745656,625.372321 L603.60719,623.979852 L603.493213,622.938815 L603.375828,621.959085 L603.315697,621.491192 L603.25452,621.037404 L603.160654,620.382279 L603.064074,619.7566 L602.96456,619.158994 L602.861897,618.588087 L602.755866,618.042504 L602.683199,617.692173 L602.571071,617.185745 L602.494139,616.860244 L602.415387,616.543963 L602.293708,616.085938 L602.210126,615.790925 L602.124498,615.503707 L601.992082,615.086605 L601.90106,614.817093 L601.807767,614.55395 L601.712139,614.296771 L601.614111,614.045147 L601.462428,613.677237 L601.358118,613.437721 L601.29564,613.299222 L601.170075,613.033388 L601.04258,612.78198 C600.226156,611.234255 599.212645,610.521421 596.464497,610.014341 L596.184369,609.964277 L596.049593,609.970297 C593.856404,610.068103 592.40433,610.396308 591.518818,610.813755 L591.415265,610.864268 C591.055976,611.045677 590.844065,611.232129 590.527936,611.711021 L590.391513,611.925075 L590.228792,612.198375 L590.122274,612.388661 L590.01721,612.585901 L589.9135,612.790509 L589.811045,613.0029 L589.709745,613.22349 L589.609501,613.452694 L589.460896,613.813558 L589.362856,614.066111 L589.265524,614.328731 L589.120634,614.742443 L589.024635,615.032044 L588.881279,615.488174 L588.785992,615.80735 L588.690815,616.139084 L588.54804,616.661135 L588.452705,617.026076 L588.357132,617.405026 L588.213109,618.000626 L588.019319,618.847666 L587.872221,619.524442 L587.673112,620.484799 L587.469868,621.514476 L587.314244,622.334221 L587.101851,623.493195 L586.827375,625.052622 L586.599637,626.392777 L586.423552,627.454098 L585.774308,631.434927 L585.463745,633.281483 L585.228042,634.638284 L585.000113,635.904183 L584.832292,636.802926 L584.610064,637.945639 L584.442747,638.769123 L584.330125,639.305632 L584.100448,640.357086 L583.922696,641.134151 L583.738694,641.908329 L583.547058,642.685913 L583.414375,643.209301 L583.277272,643.738864 C581.604938,650.134077 579.372968,655.676018 576.113642,660.700667 C567.662831,673.72862 553.881477,680.536682 535.793433,680.536682 C516.522849,680.536682 502.573321,670.882797 495.331154,654.376115 C492.772245,648.543731 491.098233,642.107057 489.895673,634.507449 C489.755187,633.619646 489.625532,632.758621 489.503093,631.895531 L489.396198,631.128029 L489.229565,629.870346 L489.100757,628.840837 L488.974621,627.779972 L488.818842,626.394905 L488.63152,624.621113 L488.439873,622.694297 L488.239766,620.581467 L487.876222,616.557121 L487.47742,612.056947 L487.308258,610.240835 L487.1384,608.502842 L487.010237,607.249186 L486.837907,605.64219 L486.663446,604.106786 L486.530889,603.000787 L486.39662,601.932721 L486.306047,601.241257 L486.168435,600.234189 L486.028524,599.262383 L485.886094,598.324839 L485.740924,597.420555 L485.642514,596.835682 L485.542723,596.264849 L485.390306,595.434277 L485.286778,594.897248 L485.128449,594.115989 L484.966281,593.362984 L484.800052,592.637229 L484.686868,592.168038 L484.571717,591.710217 L484.454533,591.263469 L484.335251,590.827497 L484.213805,590.402006 L484.027438,589.782768 C484.006444,589.7152 483.985353,589.648037 483.964164,589.581274 L483.835837,589.185441 L483.705086,588.798901 L483.571846,588.421356 L483.43605,588.052512 L483.297635,587.692069 L483.156535,587.339733 L483.012685,586.995206 C482.988477,586.938419 482.964152,586.881945 482.939708,586.825778 L482.79161,586.492408 L482.640598,586.166106 L482.486608,585.846574 L482.408475,585.689255 C482.319208,585.5113 482.229785,585.339111 482.139747,585.172543 L481.958714,584.84686 C480.592778,582.459805 479.019636,581.315787 475.69128,580.925607 L475.236962,580.878007 L474.761026,580.839084 C474.436348,580.81597 474.096714,580.798469 473.741038,580.786237 L473.50761,580.778583 L473.364461,580.8011 C469.954193,581.346765 468.275761,582.478181 466.87054,585.183238 L466.688679,585.545077 C466.598404,585.73054 466.509021,585.922879 466.420126,586.122367 L466.242866,586.530959 L466.066187,586.959104 L465.910156,587.353673 L465.777145,587.702378 L465.647218,588.05501 L465.520303,588.411993 L465.335421,588.95655 L465.215723,589.326259 L465.098785,589.7018 L464.984538,590.083595 L464.872908,590.472067 L464.710216,591.06822 L464.55301,591.681776 L464.401051,592.314162 L464.302539,592.74692 L464.206179,593.189104 L464.111899,593.641138 L464.019629,594.103445 L463.884833,594.817092 L463.754153,595.556232 L463.669201,596.06386 L463.585899,596.583876 L463.504176,597.116703 L463.384395,597.940889 L463.267764,598.796278 L463.154039,599.6843 L463.006511,600.921556 L462.898629,601.89127 L462.792849,602.898375 L462.654658,604.301811 L462.5192,605.777643 L462.419053,606.934061 L462.286996,608.544725 L462.188742,609.806154 L462.090896,611.114968 L461.928069,613.405501 L461.731709,616.342424 L461.417693,621.21665 L461.238506,623.85071 L461.095661,625.83213 L460.987921,627.251511 L460.842359,629.063316 L460.69336,630.79227 L460.539552,632.448605 L460.460417,633.25274 L460.296824,634.819337 L460.168798,635.96286 L460.080588,636.712642 L459.943554,637.821665 L459.800344,638.915744 L459.701153,639.63896 L459.546363,640.717727 L459.438917,641.434733 L459.27094,642.510182 L459.154167,643.228972 C457.628738,652.477808 455.289907,660.410176 451.621705,667.500035 C442.141984,685.822335 424.921182,695.799297 401.032546,695.997004 L400.306608,696 L391,696 L391,657.23563 L400.306608,657.23563 C406.11128,657.23563 410.078482,656.312637 412.70242,654.812102 C414.612039,653.720061 416.053744,652.14729 417.355174,649.6319 L417.446519,649.453613 L417.626249,649.092265 L417.802091,648.724288 C417.831077,648.662389 417.859905,648.6002 417.888574,648.537715 L418.058709,648.159202 L418.225124,647.773269 C418.252553,647.708311 418.27983,647.643031 418.306957,647.577421 L418.467918,647.179765 C418.494447,647.112813 418.520828,647.045519 418.547063,646.977877 L418.702722,646.567785 C418.728376,646.498721 418.753886,646.429295 418.779254,646.359501 L418.929763,645.936261 L419.076924,645.50386 C419.101176,645.431012 419.12529,645.357769 419.14927,645.284125 L419.291534,644.837388 L419.430619,644.3807 L419.566591,643.913742 L419.699518,643.436199 L419.829467,642.947754 L419.956507,642.448091 L420.080705,641.936892 L420.202128,641.413842 L420.320843,640.878624 C420.340407,640.788389 420.359861,640.697634 420.379207,640.606353 L420.493988,640.052289 L420.60623,639.485265 L420.716002,638.904966 L420.82337,638.311073 L420.928402,637.703272 L421.031166,637.081245 L421.131729,636.444675 L421.230159,635.793247 L421.326523,635.126644 L421.467343,634.097592 L421.558837,633.391665 L421.69267,632.302145 L421.822615,631.174919 L421.948898,630.00892 L422.031167,629.209518 L422.191396,627.556325 L422.308065,626.267593 L422.421986,624.935814 L422.569997,623.0913 L422.642491,622.138841 L422.784792,620.171936 L422.923962,618.120273 L423.330881,611.80735 L423.541927,608.683928 L423.71708,606.250011 L423.888428,604.04421 L424.011175,602.581321 L424.110941,601.464989 L424.213081,600.386793 L424.372718,598.821123 L424.484747,597.798508 L424.602313,596.782221 L424.665752,596.254746 L424.731048,595.725262 C424.786271,595.282836 424.843561,594.836998 424.903245,594.384449 C425.98141,586.209397 427.575862,579.249005 430.077215,572.907923 C436.962683,555.452851 450.492109,544.351652 470.219283,542.121711 C470.936531,542.040634 471.657743,542 472.379523,542 Z" id="Path" fill="url(#linearGradient-2)" fill-rule="nonzero" style="mix-blend-mode: normal;" transform="translate(534.500000, 619.000000) scale(-1, -1) rotate(-180.000000) translate(-534.500000, -619.000000) "></path>
    </g>
</svg>