<?xml version="1.0" encoding="UTF-8"?>
<svg width="150px" height="150px" viewBox="0 0 150 150" version="1.1" xmlns="http://www.w3.org/2000/svg" xmlns:xlink="http://www.w3.org/1999/xlink">
    <title>bible</title>
    <defs>
        <linearGradient x1="49.65%" y1="50%" x2="88.925%" y2="50%" id="linearGradient-1">
            <stop stop-color="#999998" offset="44.1%"></stop>
            <stop stop-color="#C1C1C0" offset="65.3%"></stop>
            <stop stop-color="#E5E5E5" offset="88%"></stop>
            <stop stop-color="#F3F3F3" offset="100%"></stop>
        </linearGradient>
        <linearGradient x1="48.6595%" y1="11.43%" x2="51.67275%" y2="93.5125%" id="linearGradient-2">
            <stop stop-color="#0176D0" offset="0%"></stop>
            <stop stop-color="#16538C" offset="100%"></stop>
        </linearGradient>
        <linearGradient x1="38.2675%" y1="2.885%" x2="61.724375%" y2="101.1875%" id="linearGradient-3">
            <stop stop-color="#63D6FF" offset="0%"></stop>
            <stop stop-color="#1A8DC2" offset="100%"></stop>
        </linearGradient>
    </defs>
    <g id="bible" stroke="none" stroke-width="1" fill="none" fill-rule="evenodd">
        <path d="M126,21 L126,129 C126,132.315 123.315,135 120,135 L105,135 L105,15 L120,15 C123.315,15 126,17.685 126,21 Z" id="Path" fill="#1783BD" fill-rule="nonzero"></path>
        <path d="M120,21 L120,129 C120,132.315 117.315,135 114,135 L96,135 L96,15 L114,15 C117.315,15 120,17.685 120,21 Z" id="Path" fill="url(#linearGradient-1)" fill-rule="nonzero"></path>
        <path d="M24,21 L24,129 C24,132.315 26.685,135 30,135 L36,135 L36,15 L30,15 C26.685,15 24,17.685 24,21 Z" id="Path" fill="url(#linearGradient-2)" fill-rule="nonzero"></path>
        <path d="M108,15 L36,15 L36,135 L108,135 C111.315,135 114,132.315 114,129 L114,21 C114,17.685 111.315,15 108,15 Z" id="Path" fill="url(#linearGradient-3)" fill-rule="nonzero"></path>
        <path d="M75,96 C71.691,96 69,93.309 69,90 L69,63 L60,63 C56.691,63 54,60.309 54,57 C54,53.691 56.691,51 60,51 L69,51 L69,42 C69,38.691 71.691,36 75,36 C78.309,36 81,38.691 81,42 L81,51 L90,51 C93.309,51 96,53.691 96,57 C96,60.309 93.309,63 90,63 L81,63 L81,90 C81,93.309 78.309,96 75,96 Z M60,54 C58.344,54 57,55.347 57,57 C57,58.653 58.344,60 60,60 L72,60 L72,90 C72,91.653 73.344,93 75,93 C76.656,93 78,91.653 78,90 L78,60 L90,60 C91.656,60 93,58.653 93,57 C93,55.347 91.656,54 90,54 L78,54 L78,42 C78,40.347 76.656,39 75,39 C73.344,39 72,40.347 72,42 L72,54 L60,54 Z" id="Shape" fill="#000000" fill-rule="nonzero" opacity="0.05"></path>
        <path d="M75,94.5 C72.519,94.5 70.5,92.481 70.5,90 L70.5,61.5 L60,61.5 C57.519,61.5 55.5,59.481 55.5,57 C55.5,54.519 57.519,52.5 60,52.5 L70.5,52.5 L70.5,42 C70.5,39.519 72.519,37.5 75,37.5 C77.481,37.5 79.5,39.519 79.5,42 L79.5,52.5 L90,52.5 C92.481,52.5 94.5,54.519 94.5,57 C94.5,59.481 92.481,61.5 90,61.5 L79.5,61.5 L79.5,90 C79.5,92.481 77.481,94.5 75,94.5 Z M60,55.5 C59.175,55.5 58.5,56.172 58.5,57 C58.5,57.828 59.175,58.5 60,58.5 L73.5,58.5 L73.5,90 C73.5,90.828 74.175,91.5 75,91.5 C75.825,91.5 76.5,90.828 76.5,90 L76.5,58.5 L90,58.5 C90.825,58.5 91.5,57.828 91.5,57 C91.5,56.172 90.825,55.5 90,55.5 L76.5,55.5 L76.5,42 C76.5,41.172 75.825,40.5 75,40.5 C74.175,40.5 73.5,41.172 73.5,42 L73.5,55.5 L60,55.5 Z" id="Shape" fill="#000000" fill-rule="nonzero" opacity="0.07"></path>
        <path d="M90,54 L78,54 L78,42 C78,40.344 76.656,39 75,39 L75,39 C73.344,39 72,40.344 72,42 L72,54 L60,54 C58.344,54 57,55.344 57,57 L57,57 C57,58.656 58.344,60 60,60 L72,60 L72,90 C72,91.656 73.344,93 75,93 L75,93 C76.656,93 78,91.656 78,90 L78,60 L90,60 C91.656,60 93,58.656 93,57 L93,57 C93,55.344 91.656,54 90,54 Z" id="Path" fill="#FFFFFF" fill-rule="nonzero"></path>
    </g>
</svg>