<?xml version="1.0" encoding="UTF-8"?>
<svg width="190px" height="190px" viewBox="0 0 190 190" version="1.1" xmlns="http://www.w3.org/2000/svg" xmlns:xlink="http://www.w3.org/1999/xlink">
    <title>browser-mockup</title>
    <defs>
        <linearGradient x1="50%" y1="0%" x2="50%" y2="100%" id="linearGradient-1">
            <stop stop-color="#995FE3" offset="0%"></stop>
            <stop stop-color="#6031C2" offset="100%"></stop>
        </linearGradient>
        <linearGradient x1="50%" y1="0%" x2="50%" y2="100%" id="linearGradient-2">
            <stop stop-color="#B97EFF" offset="0%"></stop>
            <stop stop-color="#8348FF" offset="100%"></stop>
        </linearGradient>
        <rect id="path-3" x="38" y="83" width="46" height="46" rx="5"></rect>
        <filter x="-4.3%" y="-4.3%" width="117.4%" height="117.4%" filterUnits="objectBoundingBox" id="filter-4">
            <feOffset dx="4" dy="4" in="SourceAlpha" result="shadowOffsetOuter1"></feOffset>
            <feColorMatrix values="0 0 0 0 0   0 0 0 0 0   0 0 0 0 0  0 0 0 0.159538216 0" type="matrix" in="shadowOffsetOuter1"></feColorMatrix>
        </filter>
    </defs>
    <g id="browser-mockup" stroke="none" stroke-width="1" fill="none" fill-rule="evenodd">
        <path d="M25,15 L165,15 C170.522847,15 175,19.4771525 175,25 L175,47 L175,47 L15,47 L15,25 C15,19.4771525 19.4771525,15 25,15 Z" id="Rectangle" fill="url(#linearGradient-1)"></path>
        <circle id="Oval" fill="#FFFFFF" cx="31" cy="31" r="7"></circle>
        <circle id="Oval" fill="#FFFFFF" cx="55" cy="31" r="7"></circle>
        <path d="M15,47 L175,47 L175,165 C175,170.522847 170.522847,175 165,175 L25,175 C19.4771525,175 15,170.522847 15,165 L15,47 L15,47 Z" id="Rectangle" fill="url(#linearGradient-2)"></path>
        <g id="Rectangle">
            <use fill="black" fill-opacity="1" filter="url(#filter-4)" xlink:href="#path-3"></use>
            <use fill="#FFE350" fill-rule="evenodd" xlink:href="#path-3"></use>
        </g>
        <circle id="Oval" fill="#FFFFFF" opacity="0.597999209" cx="74.9393939" cy="92.0606061" r="3.48484848"></circle>
        <rect id="Rectangle" fill="#FFFFFF" x="102" y="89" width="32.0869565" height="6.26086957" rx="3.13043478"></rect>
        <rect id="Rectangle" fill="#FFFFFF" x="102" y="103.869565" width="50.0869565" height="6.26086957" rx="3.13043478"></rect>
        <rect id="Rectangle" fill="#FFFFFF" x="102" y="118.73913" width="50.0869565" height="6.26086957" rx="3.13043478"></rect>
        <path d="M38,106.69697 L49.6857762,99.1012152 C51.0929676,98.1865408 52.8651953,98.038886 54.4043485,98.708083 L84,111.575758 L84,111.575758 L84,124 C84,126.761424 81.7614237,129 79,129 L43,129 C40.2385763,129 38,126.761424 38,124 L38,106.69697 L38,106.69697 Z" id="Rectangle" fill="#FFFFFF" opacity="0.597999209"></path>
    </g>
</svg>