<?xml version="1.0" encoding="UTF-8"?>
<svg width="150px" height="150px" viewBox="0 0 150 150" version="1.1" xmlns="http://www.w3.org/2000/svg" xmlns:xlink="http://www.w3.org/1999/xlink">
    <title>calendar</title>
    <defs>
        <linearGradient x1="50%" y1="0%" x2="50%" y2="100%" id="linearGradient-1">
            <stop stop-color="#B97EFF" offset="0%"></stop>
            <stop stop-color="#8348FF" offset="100%"></stop>
        </linearGradient>
        <linearGradient x1="50%" y1="0%" x2="50%" y2="100%" id="linearGradient-2">
            <stop stop-color="#995FE3" offset="0%"></stop>
            <stop stop-color="#6031C2" offset="100%"></stop>
        </linearGradient>
    </defs>
    <g id="calendar" stroke="none" stroke-width="1" fill="none" fill-rule="evenodd">
        <path d="M21,126 L21,42 L129,42 L129,126 C129,129.3 126.3,132 123,132 L27,132 C23.7,132 21,129.3 21,126 Z" id="Path" fill="url(#linearGradient-1)"></path>
        <path d="M129,30 L129,48 L21,48 L21,30 C21,26.7 23.7,24 27,24 L123,24 C126.3,24 129,26.7 129,30 Z" id="Path" fill="url(#linearGradient-2)"></path>
        <path d="M109.5,43.5 L109.5,43.5 C104.529,43.5 100.5,39.471 100.5,34.5 L100.5,24 L118.5,24 L118.5,34.5 C118.5,39.471 114.471,43.5 109.5,43.5 Z" id="Path" fill="#000000" fill-rule="nonzero" opacity="0.05"></path>
        <path d="M109.5,41.25 L109.5,41.25 C105.771,41.25 102.75,38.229 102.75,34.5 L102.75,24 L116.25,24 L116.25,34.5 C116.25,38.229 113.229,41.25 109.5,41.25 Z" id="Path" fill="#000000" fill-rule="nonzero" opacity="0.07"></path>
        <path d="M40.5,43.5 L40.5,43.5 C35.529,43.5 31.5,39.471 31.5,34.5 L31.5,24 L49.5,24 L49.5,34.5 C49.5,39.471 45.471,43.5 40.5,43.5 Z" id="Path" fill="#000000" fill-rule="nonzero" opacity="0.05"></path>
        <path d="M40.5,41.25 L40.5,41.25 C36.771,41.25 33.75,38.229 33.75,34.5 L33.75,24 L47.25,24 L47.25,34.5 C47.25,38.229 44.229,41.25 40.5,41.25 Z" id="Path" fill="#000000" fill-rule="nonzero" opacity="0.07"></path>
        <path d="M40.5,39 L40.5,39 C38.016,39 36,36.984 36,34.5 L36,22.5 C36,20.016 38.016,18 40.5,18 L40.5,18 C42.984,18 45,20.016 45,22.5 L45,34.5 C45,36.984 42.984,39 40.5,39 Z" id="Path" fill="#FFFFFF" fill-rule="nonzero"></path>
        <path d="M117,64.5 L117,73.5 C117,74.328 116.328,75 115.5,75 L106.5,75 C105.672,75 105,74.328 105,73.5 L105,64.5 C105,63.672 105.672,63 106.5,63 L115.5,63 C116.328,63 117,63.672 117,64.5 Z M93,64.5 L93,73.5 C93,74.328 92.328,75 91.5,75 L82.5,75 C81.672,75 81,74.328 81,73.5 L81,64.5 C81,63.672 81.672,63 82.5,63 L91.5,63 C92.328,63 93,63.672 93,64.5 Z M69,64.5 L69,73.5 C69,74.328 68.328,75 67.5,75 L58.5,75 C57.672,75 57,74.328 57,73.5 L57,64.5 C57,63.672 57.672,63 58.5,63 L67.5,63 C68.328,63 69,63.672 69,64.5 Z" id="Shape" fill="#FFFFFF" fill-rule="nonzero"></path>
        <path d="M117,85.5 L117,94.5 C117,95.328 116.328,96 115.5,96 L106.5,96 C105.672,96 105,95.328 105,94.5 L105,85.5 C105,84.672 105.672,84 106.5,84 L115.5,84 C116.328,84 117,84.672 117,85.5 Z M93,85.5 L93,94.5 C93,95.328 92.328,96 91.5,96 L82.5,96 C81.672,96 81,95.328 81,94.5 L81,85.5 C81,84.672 81.672,84 82.5,84 L91.5,84 C92.328,84 93,84.672 93,85.5 Z M69,85.5 L69,94.5 C69,95.328 68.328,96 67.5,96 L58.5,96 C57.672,96 57,95.328 57,94.5 L57,85.5 C57,84.672 57.672,84 58.5,84 L67.5,84 C68.328,84 69,84.672 69,85.5 Z M45,85.5 L45,94.5 C45,95.328 44.328,96 43.5,96 L34.5,96 C33.672,96 33,95.328 33,94.5 L33,85.5 C33,84.672 33.672,84 34.5,84 L43.5,84 C44.328,84 45,84.672 45,85.5 Z" id="Shape" fill="#FFFFFF" fill-rule="nonzero"></path>
        <path d="M93,106.5 L93,115.5 C93,116.328 92.328,117 91.5,117 L82.5,117 C81.672,117 81,116.328 81,115.5 L81,106.5 C81,105.672 81.672,105 82.5,105 L91.5,105 C92.328,105 93,105.672 93,106.5 Z M69,106.5 L69,115.5 C69,116.328 68.328,117 67.5,117 L58.5,117 C57.672,117 57,116.328 57,115.5 L57,106.5 C57,105.672 57.672,105 58.5,105 L67.5,105 C68.328,105 69,105.672 69,106.5 Z M45,106.5 L45,115.5 C45,116.328 44.328,117 43.5,117 L34.5,117 C33.672,117 33,116.328 33,115.5 L33,106.5 C33,105.672 33.672,105 34.5,105 L43.5,105 C44.328,105 45,105.672 45,106.5 Z" id="Shape" fill="#FFFFFF" fill-rule="nonzero"></path>
        <path d="M109.5,39 L109.5,39 C107.016,39 105,36.984 105,34.5 L105,22.5 C105,20.016 107.016,18 109.5,18 L109.5,18 C111.984,18 114,20.016 114,22.5 L114,34.5 C114,36.984 111.984,39 109.5,39 Z" id="Path" fill="#FFFFFF" fill-rule="nonzero"></path>
    </g>
</svg>