<?xml version="1.0" encoding="UTF-8"?>
<svg width="150px" height="150px" viewBox="0 0 150 150" version="1.1" xmlns="http://www.w3.org/2000/svg" xmlns:xlink="http://www.w3.org/1999/xlink">
    <title>content</title>
    <defs>
        <linearGradient x1="50%" y1="0%" x2="50%" y2="100%" id="linearGradient-1">
            <stop stop-color="#B97EFF" offset="0%"></stop>
            <stop stop-color="#8348FF" offset="100%"></stop>
        </linearGradient>
        <linearGradient x1="50%" y1="0%" x2="50%" y2="100%" id="linearGradient-2">
            <stop stop-color="#C495FF" offset="0%"></stop>
            <stop stop-color="#6031C2" offset="100%"></stop>
        </linearGradient>
        <linearGradient x1="50%" y1="0%" x2="50%" y2="100%" id="linearGradient-3">
            <stop stop-color="#995FE3" offset="0%"></stop>
            <stop stop-color="#5427B1" offset="100%"></stop>
        </linearGradient>
        <radialGradient cx="74.9875%" cy="75.2%" fx="74.9875%" fy="75.2%" r="76.1625%" id="radialGradient-4">
            <stop stop-color="#000000" offset="34.8%"></stop>
            <stop stop-color="#000000" stop-opacity="0.098" offset="93.6%"></stop>
            <stop stop-color="#000000" stop-opacity="0" offset="100%"></stop>
        </radialGradient>
        <linearGradient x1="50%" y1="0%" x2="50%" y2="100%" id="linearGradient-5">
            <stop stop-color="#3EEE91" offset="0%"></stop>
            <stop stop-color="#16C368" offset="100%"></stop>
        </linearGradient>
        <circle id="path-6" cx="110" cy="111" r="30"></circle>
    </defs>
    <g id="content" stroke="none" stroke-width="1" fill="none" fill-rule="evenodd">
        <path d="M116,15 L20,15 C16.685,15 14,17.685 14,21 L14,111 C14,114.315 16.685,117 20,117 L116,117 C119.315,117 122,114.315 122,111 L122,21 C122,17.685 119.315,15 116,15 Z" id="Path" fill="url(#linearGradient-1)"></path>
        <path d="M92.195,66.195 C88.748,62.748 83.18,62.673 79.64,66.024 L50,94.104 L50,123 L116,123 C119.315,123 122,120.315 122,117 L122,96 L92.195,66.195 Z" id="Path" fill="url(#linearGradient-2)"></path>
        <circle id="Oval" fill="#FFF8DE" fill-rule="nonzero" cx="90.5" cy="36.5" r="10.5"></circle>
        <path d="M20,123 L116,123 C118.433,123 120.521,121.545 121.46,119.46 L56.195,54.195 C52.748,50.748 47.18,50.673 43.64,54.024 L14,82.104 L14,117 C14,120.315 16.685,123 20,123 Z" id="Path" fill="url(#linearGradient-3)"></path>
        <path d="M122,123 L122,77.091 C118.241,75.762 114.215,75 110,75 C90.119,75 74,91.119 74,111 C74,115.215 74.762,119.241 76.091,123 L122,123 Z" id="Path" fill="url(#radialGradient-4)" fill-rule="nonzero" opacity="0.3"></path>
        <g id="Oval" fill-rule="nonzero">
            <use fill="#3EEE91" xlink:href="#path-6"></use>
            <use fill="url(#linearGradient-5)" xlink:href="#path-6"></use>
        </g>
        <path d="M111.5,126 L108.5,126 C107.672,126 107,125.328 107,124.5 L107,97.5 C107,96.672 107.672,96 108.5,96 L111.5,96 C112.328,96 113,96.672 113,97.5 L113,124.5 C113,125.328 112.328,126 111.5,126 Z" id="Path" fill="#FFFFFF" fill-rule="nonzero"></path>
        <path d="M95,112.5 L95,109.5 C95,108.672 95.672,108 96.5,108 L123.5,108 C124.328,108 125,108.672 125,109.5 L125,112.5 C125,113.328 124.328,114 123.5,114 L96.5,114 C95.672,114 95,113.328 95,112.5 Z" id="Path" fill="#FFFFFF" fill-rule="nonzero"></path>
    </g>
</svg>