<?xml version="1.0" encoding="UTF-8"?>
<svg width="150px" height="150px" viewBox="0 0 150 150" version="1.1" xmlns="http://www.w3.org/2000/svg" xmlns:xlink="http://www.w3.org/1999/xlink">
    <title>lock</title>
    <defs>
        <linearGradient x1="50%" y1="0.511764706%" x2="50%" y2="102.447059%" id="linearGradient-1">
            <stop stop-color="#FFCC42" offset="0%"></stop>
            <stop stop-color="#FDC429" offset="72.8%"></stop>
            <stop stop-color="#FAC023" offset="100%"></stop>
        </linearGradient>
        <linearGradient x1="50%" y1="0.511764706%" x2="50%" y2="102.447059%" id="linearGradient-2">
            <stop stop-color="#FFCC42" offset="0%"></stop>
            <stop stop-color="#FDC429" offset="72.8%"></stop>
            <stop stop-color="#FAC023" offset="100%"></stop>
        </linearGradient>
        <path d="M49.5,67.5 C40.663444,67.5 33.5,74.663444 33.5,83.5 C33.5,92.336556 40.663444,99.5 49.5,99.5 C58.336556,99.5 65.5,92.336556 65.5,83.5 C65.5,74.663444 58.336556,67.5 49.5,67.5 L49.5,67.5 Z" id="path-3"></path>
    </defs>
    <g id="lock" stroke="none" stroke-width="1" fill="none" fill-rule="evenodd">
        <g id="icons8-lock" transform="translate(26.000000, 13.000000)" fill-rule="nonzero">
            <path d="M49,0 C31.95,0 18,13.8214286 18,30.7142857 L18,43 L30.4,43 L30.4,30.7142857 C30.4,20.5785714 38.77,12.2857143 49,12.2857143 C59.23,12.2857143 67.6,20.5785714 67.6,30.7142857 L67.6,43 L80,43 L80,30.7142857 C80,13.8214286 66.05,0 49,0 Z" id="Path" fill="#424242"></path>
            <path d="M86.625,124 L12.375,124 C5.56875,124 0,118.392308 0,111.538462 L0,55.4615385 C0,48.6076923 5.56875,43 12.375,43 L86.625,43 C93.43125,43 99,48.6076923 99,55.4615385 L99,111.538462 C99,118.392308 93.43125,124 86.625,124 Z" id="Path" fill="url(#linearGradient-1)"></path>
            <g id="Path">
                <use fill="url(#linearGradient-2)" xlink:href="#path-3"></use>
                <use fill-opacity="0.410087959" fill="#18181B" xlink:href="#path-3"></use>
            </g>
        </g>
    </g>
</svg>