<?xml version="1.0" encoding="UTF-8"?>
<svg width="150px" height="150px" viewBox="0 0 150 150" version="1.1" xmlns="http://www.w3.org/2000/svg" xmlns:xlink="http://www.w3.org/1999/xlink">
    <title>map</title>
    <defs>
        <linearGradient x1="0%" y1="50%" x2="100%" y2="50%" id="linearGradient-1">
            <stop stop-color="#C965EB" offset="0%"></stop>
            <stop stop-color="#C767E5" offset="100%"></stop>
        </linearGradient>
        <linearGradient x1="-0.0245941958%" y1="50.0096454%" x2="100.024594%" y2="50.0096454%" id="linearGradient-2">
            <stop stop-color="#AE4CD5" offset="0%"></stop>
            <stop stop-color="#AC4AD5" offset="100%"></stop>
        </linearGradient>
    </defs>
    <g id="map" stroke="none" stroke-width="1" fill="none" fill-rule="evenodd">
        <g id="icons8-waypoint-map" transform="translate(21.000000, 15.000000)" fill-rule="nonzero">
            <path d="M102,119.649 L48,119.649 L48,11.649 L102,11.649 C105.315,11.649 108,14.334 108,17.649 L108,113.649 C108,116.964 105.315,119.649 102,119.649 Z" id="Path" fill="#35C1F1"></path>
            <path d="M25.341,0.321 C24.918,0.108 24.459,0.003 24,0.003 L24,108.003 C24.459,108.003 24.918,108.108 25.341,108.321 L48,119.649 L48,11.649 L25.341,0.321 Z" id="Path" fill="#199BE2"></path>
            <path d="M22.659,0.321 L3.318,9.99 C1.284,11.007 0,13.086 0,15.357 L0,114.795 C0,117.024 2.346,118.476 4.341,117.477 L22.659,108.318 C23.082,108.108 23.541,108 24,108 L24,0 C23.541,0.003 23.082,0.108 22.659,0.321 Z" id="Path" fill="#50E6FF"></path>
            <path d="M69,41.649 C80.577,41.649 90,51.072 90,62.649 C90,74.226 80.577,83.649 69,83.649 L60,83.649 C58.341,83.649 57,84.99 57,86.649 C57,88.308 58.341,89.649 60,89.649 L69,89.649 C83.889,89.649 96,77.538 96,62.649 C96,47.76 83.889,35.649 69,35.649 L48.708,35.649 L48,35.295 L48,41.649 L69,41.649 Z" id="Path" fill="#1A7ECF"></path>
            <polygon id="Path" fill="#235199" points="24 30.003 47.292 41.649 48 41.649 48 35.295 24 23.295"></polygon>
            <circle id="Oval" fill="url(#linearGradient-1)" cx="93" cy="62.649" r="7.5"></circle>
            <circle id="Oval" fill="url(#linearGradient-1)" cx="60" cy="86.649" r="7.5"></circle>
            <path d="M43.599,36.468 C43.599,40.959 40.869,43.206 37.5,41.487 C34.131,39.768 31.401,34.731 31.401,30.237 C31.401,25.743 34.131,23.499 37.5,25.218 C40.869,26.937 43.599,31.977 43.599,36.468 Z" id="Path" fill="url(#linearGradient-2)"></path>
            <polygon id="Path" fill="#199BE2" points="6 32.304 6 39.015 24 30.003 24 23.295"></polygon>
        </g>
    </g>
</svg>