<?xml version="1.0" encoding="UTF-8"?>
<svg width="150px" height="150px" viewBox="0 0 150 150" version="1.1" xmlns="http://www.w3.org/2000/svg" xmlns:xlink="http://www.w3.org/1999/xlink">
    <title>music</title>
    <defs>
        <linearGradient x1="50%" y1="2.3125%" x2="50%" y2="97.225%" id="linearGradient-1">
            <stop stop-color="#0D61A9" offset="0%"></stop>
            <stop stop-color="#16528C" offset="100%"></stop>
        </linearGradient>
        <linearGradient x1="50%" y1="0.942857143%" x2="50%" y2="101.928571%" id="linearGradient-2">
            <stop stop-color="#199AE0" offset="0%"></stop>
            <stop stop-color="#0782D8" offset="100%"></stop>
        </linearGradient>
        <linearGradient x1="22.2307692%" y1="26.91365%" x2="77.75%" y2="75.081875%" id="linearGradient-3">
            <stop stop-color="#63D6FF" offset="0%"></stop>
            <stop stop-color="#1A8DC2" offset="100%"></stop>
        </linearGradient>
    </defs>
    <g id="music" stroke="none" stroke-width="1" fill="none" fill-rule="evenodd">
        <path d="M123,21 L27,21 C23.685,21 21,23.685 21,27 L21,45 L129,45 L129,27 C129,23.685 126.315,21 123,21 Z" id="Path" fill="url(#linearGradient-1)" fill-rule="nonzero"></path>
        <path d="M126,33 L24,33 C20.685,33 18,35.685 18,39 L18,54 L132,54 L132,39 C132,35.685 129.315,33 126,33 Z" id="Path" fill="url(#linearGradient-2)" fill-rule="nonzero"></path>
        <path d="M129,45 L21,45 C17.685,45 15,47.685 15,51 L15,123 C15,126.315 17.685,129 21,129 L129,129 C132.315,129 135,126.315 135,123 L135,51 C135,47.685 132.315,45 129,45 Z" id="Path" fill="url(#linearGradient-3)" fill-rule="nonzero"></path>
        <path d="M91.5,60 L78,60 C74.691,60 72,62.691 72,66 L72,84.312 C71.016,84.105 70.017,84 69,84 C60.729,84 54,90.729 54,99 C54,107.271 60.729,114 69,114 C77.271,114 84,107.271 84,99 L84,75 L91.5,75 C93.981,75 96,72.981 96,70.5 L96,64.5 C96,62.019 93.981,60 91.5,60 Z" id="Path" fill="#000000" fill-rule="nonzero" opacity="0.05"></path>
        <path d="M91.5,61.5 L78,61.5 C75.519,61.5 73.5,63.519 73.5,66 L73.5,86.304 C72.048,85.77 70.542,85.5 69,85.5 C61.557,85.5 55.5,91.557 55.5,99 C55.5,106.443 61.557,112.5 69,112.5 C76.443,112.5 82.5,106.443 82.5,99 L82.5,73.5 L91.5,73.5 C93.156,73.5 94.5,72.156 94.5,70.5 L94.5,64.5 C94.5,62.844 93.156,61.5 91.5,61.5 Z" id="Path" fill="#000000" fill-rule="nonzero" opacity="0.07"></path>
        <path d="M69,87 C62.373,87 57,92.373 57,99 C57,105.627 62.373,111 69,111 C75.627,111 81,105.627 81,99 C81,92.373 75.627,87 69,87 Z" id="Path" fill="#FFFFFF" fill-rule="nonzero"></path>
        <path d="M91.5,63 L78,63 C76.344,63 75,64.344 75,66 L75,99 L81,99 L81,72 L91.5,72 C92.328,72 93,71.328 93,70.5 L93,64.5 C93,63.672 92.328,63 91.5,63 Z" id="Path" fill="#FFFFFF" fill-rule="nonzero"></path>
    </g>
</svg>