<?xml version="1.0" encoding="UTF-8"?>
<svg width="150px" height="150px" viewBox="0 0 150 150" version="1.1" xmlns="http://www.w3.org/2000/svg" xmlns:xlink="http://www.w3.org/1999/xlink">
    <title>news</title>
    <defs>
        <linearGradient x1="97.04%" y1="50%" x2="15.42%" y2="50%" id="linearGradient-1">
            <stop stop-color="#D69400" offset="0%"></stop>
            <stop stop-color="#D49200" offset="5.7%"></stop>
            <stop stop-color="#C78600" offset="55.4%"></stop>
            <stop stop-color="#C28200" offset="100%"></stop>
        </linearGradient>
        <linearGradient x1="50%" y1="0.511764706%" x2="50%" y2="102.447059%" id="linearGradient-2">
            <stop stop-color="#FFCC42" offset="0%"></stop>
            <stop stop-color="#FDC429" offset="72.8%"></stop>
            <stop stop-color="#FAC023" offset="100%"></stop>
        </linearGradient>
    </defs>
    <g id="news" stroke="none" stroke-width="1" fill="none" fill-rule="evenodd">
        <path d="M132,36 L123,36 L123,126 L132,126 C135.315,126 138,123.315 138,120 L138,42 C138,38.685 135.315,36 132,36 Z" id="Path" fill="url(#linearGradient-1)" fill-rule="nonzero"></path>
        <path d="M126,120 L126,30 C126,26.685 123.315,24 120,24 L18,24 C14.685,24 12,26.685 12,30 L12,120 C12,123.315 14.685,126 18,126 L132,126 C128.685,126 126,123.315 126,120 Z" id="Path" fill="url(#linearGradient-2)" fill-rule="nonzero"></path>
        <path d="M114,54 L24,54 C22.344,54 21,52.656 21,51 L21,45 C21,43.344 22.344,42 24,42 L114,42 C115.656,42 117,43.344 117,45 L117,51 C117,52.656 115.656,54 114,54 Z" id="Path" fill="#FFFFFF" fill-rule="nonzero"></path>
        <path d="M60,108 L24,108 C22.344,108 21,106.656 21,105 L21,69 C21,67.344 22.344,66 24,66 L60,66 C61.656,66 63,67.344 63,69 L63,105 C63,106.656 61.656,108 60,108 Z" id="Path" fill="#FFFFFF" fill-rule="nonzero"></path>
        <path d="M117,75 L75,75 L75,69 C75,67.344 76.344,66 78,66 L114,66 C115.656,66 117,67.344 117,69 L117,75 Z" id="Path" fill="#FFFFFF" fill-rule="nonzero"></path>
        <rect id="Rectangle" fill="#FFF0C7" fill-rule="nonzero" x="75" y="75" width="42" height="9"></rect>
        <path d="M114,93 L78,93 C76.344,93 75,91.656 75,90 L75,84 L117,84 L117,90 C117,91.656 115.656,93 114,93 Z" id="Path" fill="#FFE396" fill-rule="nonzero"></path>
    </g>
</svg>