<?xml version="1.0" encoding="UTF-8"?>
<svg width="150px" height="150px" viewBox="0 0 150 150" version="1.1" xmlns="http://www.w3.org/2000/svg" xmlns:xlink="http://www.w3.org/1999/xlink">
    <title>promotion</title>
    <defs>
        <linearGradient x1="50%" y1="27.3998739%" x2="50%" y2="73.5958167%" id="linearGradient-1">
            <stop stop-color="#FF6CE5" offset="0%"></stop>
            <stop stop-color="#FE3AC6" offset="100%"></stop>
        </linearGradient>
        <linearGradient x1="50%" y1="27.3998739%" x2="50%" y2="73.5958167%" id="linearGradient-2">
            <stop stop-color="#FF6CE5" offset="0%"></stop>
            <stop stop-color="#EF32B9" offset="100%"></stop>
        </linearGradient>
    </defs>
    <g id="promotion" stroke="none" stroke-width="1" fill="none" fill-rule="evenodd">
        <g id="icons8-commercial" transform="translate(75.500000, 75.000000) rotate(-15.000000) translate(-75.500000, -75.000000) translate(20.000000, 22.000000)" fill-rule="nonzero">
            <path d="M33.5,80 L28,80 L28,64 L39,64 L39,74.6666667 C39,77.6133333 36.53875,80 33.5,80 Z" id="Path" fill="#FFFFFF"></path>
            <path d="M34,66 L18,66 L18,98 C18,102.418667 21.5813333,106 26,106 L31.3333333,106 C32.8053333,106 34,104.805333 34,103.333333 L34,66 Z" id="Path" fill="#6A1953"></path>
            <path d="M103,40 C107.418667,40 111,43.5813333 111,48 C111,52.4186667 107.418667,56 103,56 L103,40 Z" id="Path" fill="#FFFFFF"></path>
            <path d="M95,0 C95,0 84.3913043,29.0277778 34,29.0277778 L34,65.9722222 C84.3913043,65.9722222 95,95 95,95 L95,0 Z" id="Path" fill="url(#linearGradient-1)"></path>
            <path d="M97.6666667,0 L95,0 L95,95 L97.6666667,95 C100.613333,95 103,92.6381944 103,89.7222222 L103,5.27777778 C103,2.36180556 100.613333,0 97.6666667,0 Z" id="Path" fill="#6A1953"></path>
            <path d="M18.3076923,29 C8.19661538,29 0,37.2827143 0,47.5 C0,57.7172857 8.19661538,66 18.3076923,66 L34,66 L34,29 L18.3076923,29 Z" id="Path" fill="url(#linearGradient-2)"></path>
        </g>
    </g>
</svg>