<?xml version="1.0" encoding="UTF-8"?>
<svg width="1080px" height="1080px" viewBox="0 0 1080 1080" version="1.1" xmlns="http://www.w3.org/2000/svg" xmlns:xlink="http://www.w3.org/1999/xlink">
    <title>bounce-icon-laptop</title>
    <defs>
        <linearGradient x1="50%" y1="79.3465469%" x2="52.1686491%" y2="20.6534531%" id="linearGradient-1">
            <stop stop-color="#7C39FF" offset="0%"></stop>
            <stop stop-color="#04B9FF" offset="49.7267007%"></stop>
            <stop stop-color="#00EBBF" offset="100%"></stop>
        </linearGradient>
    </defs>
    <g id="bounce-icon-laptop" stroke="none" stroke-width="1" fill="none" fill-rule="evenodd">
        <rect fill="#1D1D21" x="0" y="0" width="1080" height="1080"></rect>
        <g id="Group-3" transform="translate(268.000000, 332.000000)" fill-rule="nonzero">
            <path d="M463.377397,0 L79.6219375,0 L78.2782633,0.00535965449 C78.0565398,0.0067044408 77.8359194,0.00827628177 77.6163904,0.0100771265 L76.3122173,0.0236458322 L75.0336672,0.0428041833 L73.7801715,0.0676457353 L72.5511614,0.0982640439 C72.3483353,0.103853689 72.1465056,0.109687931 71.9456607,0.115768718 L70.7523125,0.155227578 L69.582028,0.200697084 C69.3888709,0.208781419 69.1966511,0.217120097 69.0053568,0.225715065 L67.8686014,0.280375955 L66.7534877,0.341281381 C66.5694073,0.35195786 66.3862049,0.362898427 66.2038687,0.37410503 L65.1201513,0.444552674 C64.4044761,0.493666849 63.7022808,0.547099973 63.0128071,0.604976787 L61.988043,0.695140368 C53.0185652,1.52130025 46.215948,3.13855533 39.816122,5.83707804 L39.0932393,6.14720593 C37.4100857,6.88168846 35.7503922,7.69238126 34.0816448,8.58463259 C23.1311321,14.4396886 14.4429989,23.1258304 8.58660065,34.0738333 C4.1880681,42.296489 1.77111295,50.299267 0.695299732,61.9738352 L0.60511548,62.9983645 C0.547225398,63.6876802 0.493780024,64.3897145 0.444654589,65.1052256 L0.374190795,66.1886947 C0.362981623,66.3709891 0.352038548,66.5541495 0.341359621,66.7381877 L0.280440233,67.8530458 L0.225766811,68.9895407 C0.217169872,69.1807912 0.208829283,69.3729669 0.200743094,69.5660797 L0.155263165,70.736096 C0.148186778,70.9330044 0.141360892,71.1308737 0.134783557,71.3297155 L0.0982865713,72.5345326 L0.0676612434,73.763261 L0.0428139963,75.0164694 L0.0236512531,76.2947264 L0.0100794367,77.5986006 C0.00827817914,77.8180793 0.00670597782,78.0386491 0,78.2603218 L0,79.603688 L0,273.395646 L0,274.739013 C0.00670597782,274.960685 0.00827817914,275.181255 0.0100794367,275.400734 L0.0236512531,276.704608 L0.0428139963,277.982865 L0.0676612434,279.236073 L0.0982865713,280.464802 L0.134783557,281.669619 C0.141360892,281.868461 0.148186778,282.06633 0.155263165,282.263238 L0.200743094,283.433255 C0.208829283,283.626368 0.217169872,283.818543 0.225766811,284.009794 L0.280440233,285.146289 L0.341359621,286.261147 C0.352038548,286.445185 0.362981623,286.628345 0.374190795,286.81064 L0.444654589,287.894109 C0.493780024,288.60962 0.547225398,289.311654 0.60511548,290.00097 L0.695299732,291.025499 C1.77111295,302.700067 4.1880681,310.702845 8.58660065,318.925501 C14.4429989,329.873504 23.1311321,338.559646 34.0816448,344.414702 C35.7503922,345.306953 37.4100857,346.117646 39.0932393,346.852129 L39.816122,347.162256 C46.215948,349.860779 53.0185652,351.478034 61.988043,352.304194 L63.0128071,352.394358 C63.7022808,352.452234 64.4044761,352.505668 65.1201513,352.554782 L66.2038687,352.625229 C66.3862049,352.636436 66.5694073,352.647377 66.7534877,352.658053 L67.8686014,352.718958 L69.0053568,352.773619 C69.1966511,352.782214 69.3888709,352.790553 69.582028,352.798637 L70.7523125,352.844107 L71.9456607,352.883566 C72.1465056,352.889646 72.3483353,352.895481 72.5511614,352.90107 L73.7801715,352.931689 L75.0336672,352.95653 L76.3122173,352.975689 L77.6163904,352.989257 C77.8359194,352.991058 78.0565398,352.99263 78.2782633,352.993975 L79.6219375,353 C79.8481211,353 80.0754317,353 80.3038809,353 L462.695453,353 L464.052579,353 C464.500462,352.995545 464.943886,352.992859 465.382944,352.989257 L466.687117,352.975689 L467.965667,352.95653 L469.219163,352.931689 L470.448173,352.90107 C470.650999,352.895481 470.852829,352.889646 471.053674,352.883566 L472.247022,352.844107 L473.417306,352.798637 C473.610463,352.790553 473.802683,352.782214 473.993977,352.773619 L475.130733,352.718958 L476.245847,352.658053 C476.429927,352.647377 476.613129,352.636436 476.795466,352.625229 L477.879183,352.554782 C478.594858,352.505668 479.297053,352.452234 479.986527,352.394358 L481.011291,352.304194 C489.980769,351.478034 496.783386,349.860779 503.183212,347.162256 L503.906095,346.852129 C505.589249,346.117646 507.248942,345.306953 508.917689,344.414702 C519.868202,338.559646 528.556335,329.873504 534.412734,318.925501 C535.177696,317.495474 535.882724,316.072097 536.531186,314.6349 L536.850719,313.915055 L537.160918,313.192338 C540.165623,306.069637 541.83008,298.447898 542.55468,287.894109 L542.625143,286.81064 C542.636353,286.628345 542.647296,286.445185 542.657975,286.261147 L542.718894,285.146289 L542.773567,284.009794 C542.782164,283.818543 542.790505,283.626368 542.798591,283.433255 L542.844071,282.263238 L542.883539,281.070164 L542.917088,279.853462 L542.944813,278.612565 C542.948954,278.403701 542.952855,278.193805 542.95652,277.982865 L542.975683,276.704608 L542.989255,275.400734 C542.991056,275.181255 542.992628,274.960685 542.993973,274.739013 L543,273.395646 C543,273.169515 543,272.942256 543,272.713859 L543,80.2854751 L543,78.9286606 C543,78.4808798 542.992857,78.037558 542.989255,77.5986006 L542.975683,76.2947264 L542.95652,75.0164694 L542.931673,73.763261 C542.927053,73.5564488 542.922192,73.3506565 542.917088,73.1458724 L542.883539,71.9291707 L542.844071,70.736096 L542.798591,69.5660797 C542.790505,69.3729669 542.782164,69.1807912 542.773567,68.9895407 L542.718894,67.8530458 L542.657975,66.7381877 C542.647296,66.5541495 542.636353,66.3709891 542.625143,66.1886947 L542.55468,65.1052256 C541.83008,54.5514364 540.165623,46.9296978 537.160918,39.8069961 L536.850719,39.0842791 L536.531186,38.3644341 C535.882724,36.9272371 535.177696,35.5038604 534.412734,34.0738333 C528.556335,23.1258304 519.868202,14.4396886 508.917689,8.58463259 C507.248942,7.69238126 505.589249,6.88168846 503.906095,6.14720593 L503.183212,5.83707804 C496.783386,3.13855533 489.980769,1.52130025 481.011291,0.695140368 L479.986527,0.604976787 C479.297053,0.547099973 478.594858,0.493666849 477.879183,0.444552674 L476.795466,0.37410503 C476.613129,0.362898427 476.429927,0.35195786 476.245847,0.341281381 L475.130733,0.280375955 L473.993977,0.225715065 C473.802683,0.217120097 473.610463,0.208781419 473.417306,0.200697084 L472.247022,0.155227578 L471.053674,0.115768718 C470.852829,0.109687931 470.650999,0.103853689 470.448173,0.0982640439 L469.219163,0.0676457353 L467.965667,0.0428041833 L466.687117,0.0236458322 L465.382944,0.0100771265 C465.163415,0.00827628177 464.942794,0.0067044408 464.721071,0.00535965449 L463.377397,0 Z M79.7645481,31.4707994 L463.234786,31.4707994 L464.811929,31.4765562 L465.830014,31.4843049 L466.822082,31.4952423 L467.788697,31.50942 L468.73042,31.5268895 L469.647816,31.5477023 L470.541447,31.5719098 L471.411876,31.5995636 L472.259667,31.6307152 L473.085383,31.6654161 L473.889587,31.7037178 L474.672841,31.7456718 L475.43571,31.7913297 L476.178756,31.8407428 C476.300976,31.8492941 476.422394,31.8580041 476.543022,31.8668737 L477.257389,31.9220164 L477.953342,31.9810432 L478.631443,32.0440055 L479.292256,32.1109549 C479.400982,32.1224483 479.509011,32.1341099 479.616355,32.1459409 L480.25229,32.2189676 C480.35694,32.2314802 480.460928,32.2441644 480.564267,32.2570211 L481.176592,32.3362409 L481.773881,32.4196537 L482.356697,32.5073112 C482.452659,32.5222774 482.54804,32.5374226 482.642854,32.5527478 L483.205016,32.6468688 C483.575374,32.7110682 483.937021,32.7781832 484.290709,32.8482824 L484.815365,32.9556781 C485.247761,33.0470539 485.668306,33.1431463 486.078469,33.2440894 L486.565773,33.3675581 C486.646191,33.3885271 486.726217,33.4096923 486.805864,33.4310547 L487.279272,33.561605 C487.51379,33.6280721 487.745097,33.6963338 487.973511,33.766419 L488.426575,33.9090294 C488.501474,33.9332059 488.576075,33.9575871 488.65039,33.9821742 L489.092937,34.1321751 C489.166153,34.1575898 489.239107,34.1832125 489.311809,34.2090442 L489.745106,34.3665516 C489.888596,34.419896 490.031176,34.4740852 490.17294,34.5291278 L490.595873,34.6968242 C490.736097,34.753582 490.875598,34.8112019 491.014471,34.8696923 L491.429294,35.0477836 C491.498148,35.0779036 491.566869,35.1082434 491.635467,35.138804 L492.045686,35.3248268 C492.113843,35.3562751 492.181902,35.3879465 492.249874,35.4198419 L492.656755,35.6139119 L493.062116,35.8134112 L493.466519,36.0183912 L493.870527,36.2289035 C493.93786,36.2644528 494.0052,36.3002347 494.072559,36.3362503 C499.537397,39.2582076 503.732127,43.4519759 506.654754,48.9155609 L506.8681,49.3194902 C506.903193,49.3868056 506.938055,49.4541257 506.972686,49.5214622 L507.177713,49.9257724 L507.377258,50.3310403 L507.571372,50.7378289 L507.760108,51.1467012 C507.791118,51.2150514 507.821907,51.283512 507.852475,51.3520946 L508.033238,51.765148 C508.092615,51.903383 508.151117,52.0421999 508.208752,52.1816925 L508.379067,52.6022912 C508.462933,52.8136979 508.544869,53.0268361 508.624904,53.2420224 L508.782448,53.6752197 C508.808285,53.7479056 508.833914,53.8208426 508.859334,53.8940424 L509.00937,54.3364878 L509.154464,54.7858023 C509.249558,55.0877602 509.341392,55.3946729 509.430035,55.707291 L509.560615,56.1805911 C509.581983,56.2602189 509.603153,56.3402268 509.624127,56.4206264 L509.747624,56.9078194 L509.866463,57.4049781 C509.885884,57.4886996 509.905113,57.5728599 509.924152,57.6574705 L510.036101,58.1706333 L510.143521,58.6951694 C510.213637,59.0487762 510.280767,59.4103405 510.344981,59.7806129 L510.439124,60.3426465 C510.454452,60.4374386 510.469601,60.5327983 510.484571,60.6287376 L510.572248,61.21142 L510.65568,61.8085722 L510.734918,62.4207571 L510.810013,63.0485376 C510.822187,63.1544987 510.83419,63.2611329 510.846024,63.3684522 L510.915002,64.020682 L510.979966,64.6899149 L511.040968,65.376714 C511.050808,65.4926757 511.060485,65.6093927 511.07,65.7268768 L511.125155,66.4410809 L511.176477,67.1742586 L511.224017,67.926973 L511.267826,68.6997872 L511.307957,69.493264 L511.34446,70.3079666 L511.377387,71.1444578 L511.406791,72.0033008 L511.432721,72.8850584 L511.45523,73.7902938 L511.474369,74.7195699 L511.490189,75.6734497 L511.502743,76.6524962 L511.512082,77.6572724 L511.521701,79.2139115 L511.521701,80.2854751 L511.521701,273.253068 L511.515562,274.829849 L511.507812,275.847702 L511.496872,276.839543 L511.482691,277.805935 L511.465217,278.747443 L511.4444,279.664628 L511.420186,280.558054 C511.415865,280.70501 511.4114,280.850999 511.406791,280.996034 L511.361368,282.275881 L511.326659,283.101408 L511.288348,283.905427 L511.246385,284.688502 L511.200716,285.451196 L511.151292,286.194072 L511.09806,286.917692 C511.088868,287.036722 511.079515,287.154973 511.07,287.272458 L511.010959,287.968251 L510.947983,288.646197 L510.881018,289.306858 C510.869522,289.415559 510.857857,289.523563 510.846024,289.630882 L510.77298,290.266672 C510.760465,290.371298 510.747778,290.475263 510.734918,290.578577 L510.65568,291.190762 L510.572248,291.787914 L510.484571,292.370597 C510.469601,292.466536 510.454452,292.561896 510.439124,292.656688 L510.344981,293.218721 C510.280767,293.588994 510.213637,293.950558 510.143521,294.304165 L510.036101,294.828701 L509.924152,295.341864 C509.905113,295.426475 509.885884,295.510635 509.866463,295.594356 L509.747624,296.091515 L509.624127,296.578708 C509.603153,296.659108 509.581983,296.739116 509.560615,296.818743 L509.430035,297.292043 C509.363553,297.526507 509.295275,297.757761 509.225174,297.986123 L509.082531,298.439083 C509.058349,298.513965 509.033962,298.588549 509.00937,298.662847 L508.859334,299.105292 C508.833914,299.178492 508.808285,299.251429 508.782448,299.324115 L508.624904,299.757312 C508.571547,299.90077 508.517346,300.043317 508.462291,300.185048 L508.294556,300.607885 C508.237785,300.748076 508.180152,300.887545 508.121648,301.026386 L507.943516,301.441114 C507.913389,301.509953 507.883042,301.578657 507.852475,301.64724 L507.666409,302.057365 C507.634954,302.125507 507.603275,302.193549 507.571372,302.261506 L507.377258,302.668294 L507.177713,303.073562 L506.972686,303.477872 L506.762125,303.881788 C506.726568,303.949105 506.690778,304.01643 506.654754,304.083774 C503.732127,309.547359 499.537397,313.741127 494.072559,316.663084 L493.668537,316.876382 C493.601207,316.911467 493.533871,316.94632 493.466519,316.980943 L493.062116,317.185923 L492.656755,317.385423 L492.249874,317.579493 L491.840908,317.768185 C491.772542,317.799188 491.704065,317.82997 491.635467,317.86053 L491.222319,318.041253 C491.084052,318.100616 490.945204,318.159104 490.805679,318.216726 L490.384984,318.387002 C490.173529,318.470849 489.960342,318.552766 489.745106,318.632783 L489.311809,318.79029 C489.239107,318.816122 489.166153,318.841745 489.092937,318.867159 L488.65039,319.01716 C488.576075,319.041747 488.501474,319.066129 488.426575,319.090305 L487.973511,319.232915 C487.745097,319.303001 487.51379,319.371262 487.279272,319.437729 L486.805864,319.56828 C486.726217,319.589642 486.646191,319.610807 486.565773,319.631776 L486.078469,319.755245 C485.668306,319.856188 485.247761,319.952281 484.815365,320.043656 L484.290709,320.151052 C483.937021,320.221151 483.575374,320.288266 483.205016,320.352466 L482.642854,320.446587 C482.54804,320.461912 482.452659,320.477057 482.356697,320.492023 L481.773881,320.579681 L481.176592,320.663094 L480.564267,320.742313 L479.936343,320.817391 C479.830357,320.829562 479.723698,320.841563 479.616355,320.853394 L478.963975,320.922356 L478.294589,320.987305 L477.607632,321.048293 C477.491644,321.058131 477.3749,321.067805 477.257389,321.077318 L476.543022,321.132461 L475.809676,321.183771 C475.685839,321.192006 475.561187,321.200084 475.43571,321.208005 L474.672841,321.253663 L473.889587,321.295617 L473.085383,321.333918 L472.259667,321.368619 L471.411876,321.399771 L470.541447,321.427425 L469.647816,321.451632 L468.73042,321.472445 L467.788697,321.489914 L466.822082,321.504092 L465.830014,321.51503 L464.811929,321.522778 L463.767263,321.528915 L462.695453,321.528915 L79.7645481,321.528915 L78.1874058,321.522778 L77.1693202,321.51503 L76.1772518,321.504092 L75.2106375,321.489914 L74.2689141,321.472445 L73.3515185,321.451632 L72.4578875,321.427425 L71.5874581,321.399771 L70.739667,321.368619 L69.9139513,321.333918 L69.1097476,321.295617 L68.326493,321.253663 L67.5636242,321.208005 L66.8205782,321.158592 C66.6983578,321.15004 66.5769399,321.14133 66.4563127,321.132461 L65.741945,321.077318 L65.0459921,321.018291 L64.367891,320.955329 L63.7070786,320.888379 C63.5983527,320.876886 63.4903236,320.865224 63.3829797,320.853394 L62.7470444,320.780367 C62.6423942,320.767854 62.5384058,320.75517 62.4350673,320.742313 L61.8227421,320.663094 L61.225453,320.579681 L60.6426369,320.492023 C60.5466757,320.477057 60.4512941,320.461912 60.3564803,320.446587 L59.7943179,320.352466 C59.4239606,320.288266 59.0623134,320.221151 58.7086254,320.151052 L58.1839692,320.043656 C57.7515737,319.952281 57.3310281,319.856188 56.9208657,319.755245 L56.4335611,319.631776 C56.353143,319.610807 56.2731168,319.589642 56.1934707,319.56828 L55.7200621,319.437729 C55.4855448,319.371262 55.2542375,319.303001 55.0258235,319.232915 L54.5727593,319.090305 C54.4978603,319.066129 54.4232593,319.041747 54.3489446,319.01716 L53.9063978,318.867159 C53.8331812,318.841745 53.7602275,318.816122 53.6875249,318.79029 L53.2542283,318.632783 C53.1107379,318.579438 52.968158,318.525249 52.8263947,318.470207 L52.4034608,318.30251 C52.2632369,318.245752 52.1237358,318.188133 51.9848636,318.129642 L51.57004,317.951551 C51.5011859,317.921431 51.4324655,317.891091 51.3638673,317.86053 L50.953648,317.674508 C50.8854909,317.643059 50.8174324,317.611388 50.7494608,317.579493 L50.3425789,317.385423 L49.9372181,317.185923 L49.5328152,316.980943 L49.128807,316.770431 C49.0614739,316.734882 48.9941338,316.6991 48.9267749,316.663084 C43.4619374,313.741127 39.2672077,309.547359 36.3445806,304.083774 L36.1333398,303.683883 C36.0985885,303.617241 36.0640642,303.550595 36.029766,303.483932 L35.8266802,303.083679 L35.6289686,302.682501 L35.4365812,302.279852 C35.4049576,302.21259 35.3735537,302.145245 35.3423685,302.077805 L35.1578736,301.671924 C35.1275592,301.604056 35.0974613,301.53607 35.0675791,301.467955 L34.8908643,301.057614 L34.7192738,300.643618 C34.6910996,300.574283 34.6631369,300.504774 34.6353845,300.435078 L34.4713867,300.014573 C34.4175567,299.873598 34.36456,299.731786 34.3123881,299.589046 L34.1583388,299.157951 C34.1330736,299.085607 34.1080125,299.013009 34.0831545,298.940144 L33.9364354,298.499673 L33.7945407,298.052267 L33.6574202,297.597381 L33.5250241,297.134469 C33.503349,297.056618 33.4818687,296.978409 33.4605821,296.899832 L33.3351788,296.423856 C33.2531153,296.103469 33.174118,295.77682 33.0981203,295.443181 L32.9863652,294.93739 C32.8220821,294.170566 32.6728157,293.366513 32.537807,292.516933 L32.449905,291.943711 C32.435604,291.84702 32.4214769,291.749744 32.4075226,291.651871 L32.3258637,291.057391 C32.3125969,290.957088 32.2995009,290.856167 32.2865746,290.754614 L32.2110462,290.137647 L32.1395423,289.505005 L32.0720129,288.856143 L32.0084081,288.190514 C31.9981316,288.078148 31.9880165,287.965061 31.9780618,287.851241 L31.92025,287.159437 L31.8662379,286.4495 L31.8159754,285.720885 L31.7694124,284.973044 L31.7264991,284.205432 L31.6871854,283.417502 L31.6514213,282.608709 L31.619157,281.778504 L31.5903422,280.926344 L31.5649272,280.05168 L31.5428619,279.153968 L31.5240962,278.23266 L31.5020254,276.805261 L31.4912904,275.822575 L31.4836801,274.814381 L31.4780142,273.780133 C31.4780142,273.605557 31.4780142,273.429873 31.4780142,273.253068 L31.4780142,79.746266 L31.4837723,78.1694851 L31.4915228,77.1516329 L31.5024627,76.1597919 L31.5166437,75.1933991 L31.5341172,74.2518916 L31.5549347,73.3347062 L31.5791478,72.4412801 L31.606808,71.5710502 L31.6379667,70.7234534 L31.6726756,69.8979269 L31.710986,69.0939076 L31.7529497,68.3108325 L31.7986179,67.5481385 L31.8480424,66.8052628 C31.8565957,66.6830705 31.8653076,66.5616804 31.8741793,66.4410809 L31.9293346,65.7268768 L31.9883749,65.0310835 L32.0513517,64.3531378 L32.1183165,63.6924769 C32.1298125,63.5837759 32.1414768,63.4757715 32.1533105,63.3684522 L32.2263539,62.7326627 C32.2388694,62.6280365 32.2515565,62.5240719 32.2644162,62.4207571 L32.3436541,61.8085722 L32.4270861,61.21142 L32.5147636,60.6287376 C32.5297332,60.5327983 32.5448819,60.4374386 32.5602106,60.3426465 L32.6543532,59.7806129 C32.7185673,59.4103405 32.7856977,59.0487762 32.855813,58.6951694 L32.9632333,58.1706333 C33.0546301,57.738337 33.1507445,57.3178878 33.2517108,56.9078194 L33.3752077,56.4206264 L33.5034139,55.9428361 C33.5904659,55.6273183 33.6806918,55.3176937 33.7741601,55.0132115 L33.9168032,54.5602512 C33.9409852,54.4853694 33.965372,54.4107854 33.9899647,54.3364878 L34.1400001,53.8940424 C34.1654206,53.8208426 34.1910491,53.7479056 34.2168867,53.6752197 L34.3744303,53.2420224 C34.4277869,53.0985649 34.4819885,52.9560176 34.5370437,52.8142868 L34.7047785,52.3914499 C34.7615494,52.2512581 34.8191825,52.111789 34.8776863,51.9729486 L35.0558184,51.5582201 C35.0859453,51.4893817 35.1162921,51.4206772 35.1468597,51.3520946 L35.3329251,50.9419694 C35.3643807,50.8738279 35.3960593,50.805785 35.427962,50.7378289 L35.6220765,50.3310403 C35.6548801,50.2633846 35.6879099,50.1957922 35.721167,50.1282515 L35.9234466,49.7235328 C35.9576174,49.6561516 35.9920177,49.5887987 36.0266486,49.5214622 L36.2372091,49.1175466 C36.2727665,49.0502289 36.3085567,48.9829043 36.3445806,48.9155609 C39.2672077,43.4519759 43.4619374,39.2582076 48.9267749,36.3362503 L49.3267571,36.125058 L49.7268446,35.9193136 L50.127584,35.7189671 C50.1944586,35.686023 50.2613831,35.6533018 50.3283689,35.6208024 L50.7311105,35.4284591 C50.7983871,35.3968427 50.8657477,35.365446 50.9332038,35.334268 L51.3391771,35.1498154 C51.4070606,35.1195079 51.4750623,35.0894169 51.5431936,35.0595415 L51.953628,34.8828673 L52.3677193,34.7113161 C52.4370697,34.6831484 52.5065952,34.6551921 52.5763072,34.6274461 L52.9969086,34.4634858 C53.1379159,34.4096682 53.2797604,34.3566836 53.4225331,34.3045237 L53.8537271,34.1505097 C53.9260873,34.1252502 53.9987022,34.1001949 54.0715834,34.0753426 L54.5121561,33.9286572 L54.9596642,33.7867949 L55.4146543,33.6497059 L55.8776726,33.5173402 C55.9555417,33.49567 56.0337681,33.4741946 56.1123631,33.4529129 L56.5884484,33.3275383 C56.9089092,33.2454936 57.235633,33.1665145 57.5693481,33.0905342 L58.0752555,32.9788047 C58.6718107,32.8510582 59.2908927,32.7323939 59.9364059,32.6224546 L60.496267,32.5303493 C60.5906863,32.5153517 60.6856679,32.5005302 60.781223,32.4858836 L61.3615275,32.4000948 L61.9561439,32.3184546 C62.0564696,32.3051908 62.1574145,32.2920978 62.2589898,32.2791745 L62.8760986,32.2036634 L63.5088854,32.1321759 L64.1578965,32.064662 L64.8236784,32.0010717 C64.93607,31.9907976 65.0491831,31.9806848 65.1630292,31.9707324 L65.8549917,31.9129339 L66.565091,31.8589341 L67.2938735,31.8086831 L68.0418855,31.7621308 L68.8096736,31.7192273 L69.597784,31.6799226 L70.4067632,31.6441668 L71.2371577,31.6119098 L72.0895137,31.5831017 L72.9643777,31.5576925 L73.8622962,31.5356322 L74.7838154,31.5168709 L75.7294819,31.5013585 L76.699842,31.4890452 L78.202878,31.476464 L79.2373627,31.4707994 C79.4119788,31.4707994 79.5877035,31.4707994 79.7645481,31.4707994 Z M373.263393,385 C381.954481,385 389,391.939586 389,400.5 C389,408.974809 382.094687,415.861046 373.523626,415.997923 L373.263393,416 L169.736607,416 C161.045519,416 154,409.060414 154,400.5 C154,392.025191 160.905313,385.138954 169.476374,385.002077 L169.736607,385 L373.263393,385 Z" id="Combined-Shape" fill="url(#linearGradient-1)"></path>
            <path d="M97.5962792,102 C101.159539,130.283557 107.307131,150.975694 115.563407,163.889705 C122.506317,174.74942 130.303354,179.429474 140.285627,179.429474 C151.467821,179.429474 159.655804,175.914697 166.040406,168.647839 C171.089212,162.901364 175.197969,154.608816 178.195096,143.708238 L178.449266,142.767514 C179.329305,139.452616 180.108857,135.902836 180.783287,132.116502 L180.973117,131.028253 C181.097759,130.298461 181.21857,129.560081 181.335519,128.813101 L181.422506,128.251253 L212.703595,130.628259 C212.703595,153.855256 216.660531,170.44017 223.841907,180.473397 C230.066486,189.169865 239.187121,193.475374 252.853481,193.560615 L253.269006,193.561906 L269,193.561906 L269,225 L253.269006,225 C229.635403,225 210.729512,216.195416 198.251496,198.762163 C195.818837,195.363452 193.657759,191.675573 191.761477,187.699363 L191.526427,187.201215 L191.404415,187.352789 C190.953989,187.906901 190.496824,188.452135 190.032888,188.98848 L189.683666,189.389072 C177.172611,203.628968 160.309654,210.867568 140.285627,210.867568 C119.061678,210.867568 101.539413,200.350092 89.0499374,180.814746 C88.1558487,179.416262 87.2859408,177.970294 86.43997,176.476746 L86.3563411,176.32835 L86.2648818,176.555149 C84.1799,181.650788 81.8025237,186.365647 79.1264401,190.700744 L78.7421097,191.31746 C64.9038829,213.313604 43.5589618,224.76964 16.5511443,224.996561 L15.7309942,225 L0,225 L0,193.561906 L15.7309942,193.561906 C32.5066556,193.561906 43.9982775,187.473184 52.1060969,174.58564 C61.2210612,160.097218 66.1581657,136.844102 66.2559963,104.932993 L66.2574789,103.963339 L97.5962792,102 Z" id="Path" fill="#1D1E1F" transform="translate(134.500000, 163.500000) scale(-1, -1) translate(-134.500000, -163.500000) "></path>
            <path d="M97.5962792,71 C101.159539,99.2835569 107.307131,119.975694 115.563407,132.889705 C122.506317,143.74942 130.303354,148.429474 140.285627,148.429474 C151.467821,148.429474 159.655804,144.914697 166.040406,137.647839 C171.089212,131.901364 175.197969,123.608816 178.195096,112.708238 L178.449266,111.767514 C179.329305,108.452616 180.108857,104.902836 180.783287,101.116502 L180.973117,100.028253 C181.097759,99.2984615 181.21857,98.5600812 181.335519,97.8131011 L181.422506,97.2512534 L212.703595,99.6282592 C212.703595,122.855256 216.660531,139.44017 223.841907,149.473397 C230.066486,158.169865 239.187121,162.475374 252.853481,162.560615 L253.269006,162.561906 L269,162.561906 L269,194 L253.269006,194 C229.635403,194 210.729512,185.195416 198.251496,167.762163 C195.818837,164.363452 193.657759,160.675573 191.761477,156.699363 L191.526427,156.201215 L191.404415,156.352789 C190.953989,156.906901 190.496824,157.452135 190.032888,157.98848 L189.683666,158.389072 C177.172611,172.628968 160.309654,179.867568 140.285627,179.867568 C119.061678,179.867568 101.539413,169.350092 89.0499374,149.814746 C88.1558487,148.416262 87.2859408,146.970294 86.43997,145.476746 L86.3563411,145.32835 L86.2648818,145.555149 C84.1799,150.650788 81.8025237,155.365647 79.1264401,159.700744 L78.7421097,160.31746 C64.9038829,182.313604 43.5589618,193.76964 16.5511443,193.996561 L15.7309942,194 L0,194 L0,162.561906 L15.7309942,162.561906 C32.5066556,162.561906 43.9982775,156.473184 52.1060969,143.58564 C61.2210612,129.097218 66.1581657,105.844102 66.2559963,73.9329926 L66.2574789,72.9633393 L97.5962792,71 Z" id="Path" fill="#FFFFFF" transform="translate(134.500000, 132.500000) scale(-1, -1) translate(-134.500000, -132.500000) "></path>
            <path d="M371.590844,129 C375.154856,157.295165 381.304162,177.997195 389.563572,190.918681 C396.50895,201.784421 404.306403,206.465656 414.285821,206.465656 C425.465692,206.465656 433.652508,202.95068 440.038686,195.68058 C446.100406,188.779847 450.807608,178.210494 453.863612,163.866556 L454.079086,162.835568 C454.398072,161.279453 454.698023,159.679978 454.978572,158.037014 L455.162726,156.93526 C455.223151,156.56586 455.282613,156.194311 455.341109,155.820611 L455.428127,155.258449 L486.701702,157.629684 C486.701702,180.869374 490.66061,197.465861 497.846432,207.507297 C504.073384,216.208814 513.193233,220.514837 526.857537,220.600087 L527.272999,220.601379 L543,220.601379 L543,252 L527.272999,252 C503.636032,252 484.728368,243.192837 472.252119,225.758579 C469.820261,222.36031 467.659888,218.672887 465.764222,214.697127 L465.527763,214.196824 L465.40859,214.34557 C464.958285,214.899642 464.501243,215.444838 464.037431,215.981147 L463.688302,216.381712 C451.178187,230.623373 434.313222,237.864278 414.285821,237.864278 C393.057969,237.864278 375.535267,227.344445 363.047607,207.808047 C362.153717,206.409595 361.284,204.963652 360.438212,203.470121 L360.354493,203.321912 L360.261808,203.551692 C358.177341,208.647182 355.800563,213.361836 353.125167,217.696686 L352.740935,218.313367 C338.904733,240.310673 317.558657,251.769582 290.54726,251.996561 L289.727001,252 L274,252 L274,220.601379 L289.727001,220.601379 C306.500483,220.601379 317.992019,214.511489 326.102626,201.616946 C335.221609,187.11925 340.16036,163.853774 340.258223,131.928635 L340.259707,130.958556 L371.590844,129 Z" id="Path" fill="#1D1E1F"></path>
            <path d="M371.590844,160 C375.154856,188.295165 381.304162,208.997195 389.563572,221.918681 C396.50895,232.784421 404.306403,237.465656 414.285821,237.465656 C425.465692,237.465656 433.652508,233.95068 440.038686,226.68058 C446.100406,219.779847 450.807608,209.210494 453.863612,194.866556 L454.079086,193.835568 C454.398072,192.279453 454.698023,190.679978 454.978572,189.037014 L455.162726,187.93526 C455.223151,187.56586 455.282613,187.194311 455.341109,186.820611 L455.428127,186.258449 L486.701702,188.629684 C486.701702,211.869374 490.66061,228.465861 497.846432,238.507297 C504.073384,247.208814 513.193233,251.514837 526.857537,251.600087 L527.272999,251.601379 L543,251.601379 L543,283 L527.272999,283 C503.636032,283 484.728368,274.192837 472.252119,256.758579 C469.820261,253.36031 467.659888,249.672887 465.764222,245.697127 L465.527763,245.196824 L465.40859,245.34557 C464.958285,245.899642 464.501243,246.444838 464.037431,246.981147 L463.688302,247.381712 C451.178187,261.623373 434.313222,268.864278 414.285821,268.864278 C393.057969,268.864278 375.535267,258.344445 363.047607,238.808047 C362.153717,237.409595 361.284,235.963652 360.438212,234.470121 L360.354493,234.321912 L360.261808,234.551692 C358.177341,239.647182 355.800563,244.361836 353.125167,248.696686 L352.740935,249.313367 C338.904733,271.310673 317.558657,282.769582 290.54726,282.996561 L289.727001,283 L274,283 L274,251.601379 L289.727001,251.601379 C306.500483,251.601379 317.992019,245.511489 326.102626,232.616946 C335.221609,218.11925 340.16036,194.853774 340.258223,162.928635 L340.259707,161.958556 L371.590844,160 Z" id="Path" fill="#FFFFFF"></path>
        </g>
    </g>
</svg>