<?xml version="1.0" encoding="UTF-8"?>
<svg width="1080px" height="1080px" viewBox="0 0 1080 1080" version="1.1" xmlns="http://www.w3.org/2000/svg" xmlns:xlink="http://www.w3.org/1999/xlink">
    <title>bounce-enclosed</title>
    <defs>
        <linearGradient x1="50%" y1="0%" x2="50%" y2="100%" id="linearGradient-1">
            <stop stop-color="#FFFFFF" offset="0%"></stop>
            <stop stop-color="#FFFFFF" offset="100%"></stop>
        </linearGradient>
    </defs>
    <g id="bounce-enclosed" stroke="none" stroke-width="1" fill="none" fill-rule="evenodd">
        <rect fill="#1D1D21" x="0" y="0" width="1080" height="1080"></rect>
        <path d="M273.501708,508.227253 L273.938859,508.228618 C288.316479,508.31871 297.911793,512.869248 304.460328,522.060638 C312.015457,532.664861 316.17833,550.193632 316.17833,574.74249 L316.17833,574.74249 L349.08743,577.254773 L349.178945,576.66095 C349.301981,575.871459 349.429079,575.091057 349.560207,574.319732 L349.560207,574.319732 L349.759917,573.169551 C350.469448,569.167734 351.289571,565.415934 352.215412,561.912384 L352.215412,561.912384 L352.48281,560.918123 C355.635921,549.397186 359.958517,540.632704 365.270085,534.559195 C371.986972,526.878776 380.601095,523.16397 392.365262,523.16397 C402.867058,523.16397 411.06989,528.11037 418.37414,539.588117 C427.060112,553.237071 433.527653,575.10681 437.276361,605 L437.276361,605 L470.246176,602.924926 L470.247736,601.900089 C470.350658,568.172901 475.544713,543.596436 485.134062,528.28347 C493.663849,514.662489 505.753548,508.227253 523.402292,508.227253 L523.402292,508.227253 L539.952,508.227253 L539.952,475 L523.402292,475 L522.539458,475.003634 C494.126029,475.24347 471.67022,487.351476 457.111788,510.599433 L457.111788,510.599433 L456.707455,511.251247 C453.892096,515.833056 451.39099,520.816241 449.197496,526.201875 L449.197496,526.201875 L449.101277,526.441581 L449.013296,526.28474 C448.123297,524.706193 447.208115,523.177934 446.267493,521.699862 C433.128008,501.052748 414.693804,489.936717 392.365262,489.936717 C371.299092,489.936717 353.55851,497.58727 340.396321,512.637566 L340.396321,512.637566 L340.028924,513.060956 C339.540843,513.627825 339.059886,514.204089 338.586017,514.789735 L338.586017,514.789735 L338.457655,514.949935 L338.210372,514.423437 C336.215399,510.220939 333.941848,506.323181 331.382582,502.731048 C318.255153,484.305658 298.365312,475 273.501708,475 L273.501708,475 L269.498069,475.000335 C270.673983,455.392032 273.914724,445.910327 279.017863,436.368286 C285.554379,424.146064 295.146451,414.553992 307.368673,408.017476 C319.590895,401.48096 331.714129,398 365.146082,398 L715.757918,398 C749.189871,398 761.313105,401.48096 773.535327,408.017476 C785.757549,414.553992 795.349621,424.146064 801.886137,436.368286 C808.422652,448.590508 811.903613,460.713742 811.903613,494.145695 L811.903,571.772 L806.402292,571.772747 L805.965141,571.771382 C791.587521,571.68129 781.992207,567.130752 775.443672,557.939362 C767.888543,547.335139 763.72567,529.806368 763.72567,505.25751 L763.72567,505.25751 L730.81657,502.745227 L730.725055,503.33905 C730.632778,503.931168 730.538216,504.518174 730.441383,505.100072 L730.441383,505.100072 L730.244692,506.25706 C729.878555,508.365724 729.482012,510.405767 729.055761,512.377442 L729.055761,512.377442 L728.820318,513.446122 C725.602187,527.781812 720.780158,538.412887 714.633915,545.440805 C707.917028,553.121224 699.302905,556.83603 687.538738,556.83603 C677.036942,556.83603 668.83411,551.88963 661.52986,540.411883 C652.843888,526.762929 646.376347,504.89319 642.627639,475 L642.627639,475 L609.657824,477.075074 L609.656264,478.099911 C609.553342,511.827099 604.359287,536.403564 594.769938,551.71653 C586.240151,565.337511 574.150452,571.772747 556.501708,571.772747 L556.501708,571.772747 L539.952,571.772747 L539.952,605 L556.501708,605 L557.364542,604.996366 C585.777971,604.75653 608.23378,592.648524 622.792212,569.400567 L622.792212,569.400567 L623.196545,568.748753 C626.011904,564.166944 628.51301,559.183759 630.706504,553.798125 L630.706504,553.798125 L630.802883,553.55812 L630.890704,553.71526 C631.780703,555.293807 632.695885,556.822066 633.636507,558.300138 C646.775992,578.947252 665.210196,590.063283 687.538738,590.063283 C708.604908,590.063283 726.34549,582.41273 739.507679,567.362434 L739.507679,567.362434 L739.875076,566.939044 C740.363157,566.372175 740.844114,565.795911 741.317983,565.210265 L741.317983,565.210265 L741.445953,565.050319 L741.693628,565.576563 C743.688601,569.779061 745.962152,573.676819 748.521418,577.268952 C761.648847,595.694342 781.538688,605 806.402292,605 L806.402292,605 L811.405872,605.000659 C810.229908,624.608288 806.989189,634.089835 801.886137,643.631714 C795.349621,655.853936 785.757549,665.446008 773.535327,671.982524 C761.313105,678.51904 749.189871,682 715.757918,682 L365.146082,682 C331.714129,682 319.590895,678.51904 307.368673,671.982524 C295.146451,665.446008 285.554379,655.853936 279.017863,643.631714 C272.481348,631.409492 269.000387,619.286258 269.000387,585.854305 L269,508.227 L273.501708,508.227253 Z" id="Combined-Shape" fill="url(#linearGradient-1)" fill-rule="nonzero"></path>
    </g>
</svg>