<?xml version="1.0" encoding="UTF-8"?>
<svg width="1080px" height="1080px" viewBox="0 0 1080 1080" version="1.1" xmlns="http://www.w3.org/2000/svg" xmlns:xlink="http://www.w3.org/1999/xlink">
    <title>bounce-icon-img</title>
    <defs>
        <linearGradient x1="50%" y1="100%" x2="52.1686491%" y2="0%" id="linearGradient-1">
            <stop stop-color="#7C39FF" offset="0%"></stop>
            <stop stop-color="#04B9FF" offset="49.7267007%"></stop>
            <stop stop-color="#00EBBF" offset="100%"></stop>
        </linearGradient>
    </defs>
    <g id="bounce-icon-img" stroke="none" stroke-width="1" fill="none" fill-rule="evenodd">
        <rect fill="#1D1D21" x="0" y="0" width="1080" height="1080"></rect>
        <g id="Group" transform="translate(319.000000, 319.000000)" fill-rule="nonzero">
            <path d="M361.09406,0 L362.476266,0.00551461724 C362.704348,0.00689828512 362.931295,0.00851557245 363.15712,0.0103684847 L363.15712,0.0103684847 L364.498693,0.0243295 L365.813908,0.0440417732 L367.10335,0.0696015646 L368.367604,0.101105135 C368.576247,0.106856393 368.783864,0.112859319 368.990469,0.119115919 L368.990469,0.119115919 L370.218039,0.159715646 L371.421884,0.206499803 C371.62058,0.21481788 371.818312,0.223397652 372.015092,0.232241125 L372.015092,0.232241125 L373.184446,0.288482416 L374.331538,0.351148789 C374.520897,0.362133956 374.709353,0.373390846 374.896918,0.384921463 L374.896918,0.384921463 L376.011714,0.457405947 C376.747912,0.507940152 377.470244,0.562918179 378.17949,0.622468375 L378.17949,0.622468375 L379.233641,0.71523884 C388.460337,1.56528534 395.458033,3.22929983 402.041386,6.00584445 L402.041386,6.00584445 L402.784999,6.32493901 C404.516421,7.08065751 406.223709,7.91478973 407.940311,8.83283856 C419.204852,14.8571808 428.142134,23.7944635 434.166477,35.059004 C435.084525,36.7756061 435.918658,38.4828946 436.674376,40.214316 L436.674376,40.214316 L436.993471,40.9579288 C439.770015,47.5412825 441.43403,54.5389784 442.284076,63.7656739 L442.284076,63.7656739 L442.376847,64.8198252 C442.436397,65.5290709 442.491375,66.251403 442.541909,66.9876016 L442.541909,66.9876016 L442.614394,68.1023969 C442.625924,68.2899619 442.637181,68.4784179 442.648166,68.6677772 L442.648166,68.6677772 L442.710833,69.814869 L442.767074,70.9842232 C442.775918,71.1810033 442.784497,71.3787353 442.792815,71.5774315 L442.792815,71.5774315 L442.8396,72.7812763 L442.880199,74.0088462 C442.886456,74.2154507 442.892459,74.4230682 442.89821,74.6317108 L442.89821,74.6317108 L442.929714,75.8959653 L442.955273,77.1854075 L442.974986,78.5006225 L442.988947,79.8421953 C442.992653,80.2938443 442.995416,80.7499837 443,81.2107112 L443,81.2107112 L443,360.09406 L442.993801,361.476266 C442.992417,361.704348 442.9908,361.931295 442.988947,362.15712 L442.988947,362.15712 L442.974986,363.498693 L442.955273,364.813908 L442.929714,366.10335 L442.89821,367.367604 C442.892459,367.576247 442.886456,367.783864 442.880199,367.990469 L442.880199,367.990469 L442.8396,369.218039 L442.792815,370.421884 C442.784497,370.62058 442.775918,370.818312 442.767074,371.015092 L442.767074,371.015092 L442.710833,372.184446 L442.648166,373.331538 C442.637181,373.520897 442.625924,373.709353 442.614394,373.896918 L442.614394,373.896918 L442.541909,375.011714 C442.491375,375.747912 442.436397,376.470244 442.376847,377.17949 L442.376847,377.17949 L442.284076,378.233641 C441.43403,387.460337 439.770015,394.458033 436.993471,401.041386 L436.993471,401.041386 L436.674376,401.784999 C435.918658,403.516421 435.084525,405.223709 434.166477,406.940311 C428.142134,418.204852 419.204852,427.142134 407.940311,433.166477 C406.223709,434.084525 404.516421,434.918658 402.784999,435.674376 L402.784999,435.674376 L402.041386,435.993471 C395.458033,438.770015 388.460337,440.43403 379.233641,441.284076 L379.233641,441.284076 L378.17949,441.376847 C377.470244,441.436397 376.747912,441.491375 376.011714,441.541909 L376.011714,441.541909 L374.896918,441.614394 C374.709353,441.625924 374.520897,441.637181 374.331538,441.648166 L374.331538,441.648166 L373.184446,441.710833 L372.015092,441.767074 C371.818312,441.775918 371.62058,441.784497 371.421884,441.792815 L371.421884,441.792815 L370.218039,441.8396 L368.990469,441.880199 C368.783864,441.886456 368.576247,441.892459 368.367604,441.89821 L368.367604,441.89821 L367.10335,441.929714 L365.813908,441.955273 L364.498693,441.974986 L363.15712,441.988947 C362.705471,441.992653 362.249331,441.995416 361.788604,442 L361.788604,442 L82.9052555,442 L81.5230488,441.993801 C81.2949669,441.992417 81.0680198,441.9908 80.8421953,441.988947 L80.8421953,441.988947 L79.5006225,441.974986 L78.1854075,441.955273 L76.8959653,441.929714 L75.6317108,441.89821 C75.4230682,441.892459 75.2154507,441.886456 75.0088462,441.880199 L75.0088462,441.880199 L73.7812763,441.8396 L72.5774315,441.792815 C72.3787353,441.784497 72.1810033,441.775918 71.9842232,441.767074 L71.9842232,441.767074 L70.814869,441.710833 L69.6677772,441.648166 C69.4784179,441.637181 69.2899619,441.625924 69.1023969,441.614394 L69.1023969,441.614394 L67.9876016,441.541909 C67.251403,441.491375 66.5290709,441.436397 65.8198252,441.376847 L65.8198252,441.376847 L64.7656739,441.284076 C55.5389784,440.43403 48.5412825,438.770015 41.9579288,435.993471 L41.9579288,435.993471 L41.214316,435.674376 C39.4828946,434.918658 37.7756061,434.084525 36.059004,433.166477 C24.7944635,427.142134 15.8571808,418.204852 9.83283856,406.940311 C8.91478973,405.223709 8.08065751,403.516421 7.32493901,401.784999 L7.32493901,401.784999 L7.00584445,401.041386 C4.22929983,394.458033 2.56528534,387.460337 1.71523884,378.233641 L1.71523884,378.233641 L1.62246838,377.17949 C1.56291818,376.470244 1.50794015,375.747912 1.45740595,375.011714 L1.45740595,375.011714 L1.38492146,373.896918 C1.37339085,373.709353 1.36213396,373.520897 1.35114879,373.331538 L1.35114879,373.331538 L1.28848242,372.184446 L1.23224112,371.015092 C1.22339765,370.818312 1.21481788,370.62058 1.2064998,370.421884 L1.2064998,370.421884 L1.15971565,369.218039 L1.11911592,367.990469 C1.11285932,367.783864 1.10685639,367.576247 1.10110513,367.367604 L1.10110513,367.367604 L1.06960156,366.10335 L1.04404177,364.813908 L1.0243295,363.498693 L1.01036848,362.15712 C1.00851557,361.931295 1.00689829,361.704348 1.00551462,361.476266 L1.00551462,361.476266 L1,360.09406 L1,81.9052555 L1.00551462,80.5230488 C1.00689829,80.2949669 1.00851557,80.0680198 1.01036848,79.8421953 L1.01036848,79.8421953 L1.0243295,78.5006225 L1.04404177,77.1854075 L1.06960156,75.8959653 L1.10110513,74.6317108 C1.10685639,74.4230682 1.11285932,74.2154507 1.11911592,74.0088462 L1.11911592,74.0088462 L1.15971565,72.7812763 L1.2064998,71.5774315 C1.21481788,71.3787353 1.22339765,71.1810033 1.23224112,70.9842232 L1.23224112,70.9842232 L1.28848242,69.814869 L1.35114879,68.6677772 C1.36213396,68.4784179 1.37339085,68.2899619 1.38492146,68.1023969 L1.38492146,68.1023969 L1.45740595,66.9876016 C1.50794015,66.251403 1.56291818,65.5290709 1.62246838,64.8198252 L1.62246838,64.8198252 L1.71523884,63.7656739 C2.56528534,54.5389784 4.22929983,47.5412825 7.00584445,40.9579288 L7.00584445,40.9579288 L7.32493901,40.214316 C8.08065751,38.4828946 8.91478973,36.7756061 9.83283856,35.059004 C15.8571808,23.7944635 24.7944635,14.8571808 36.059004,8.83283856 C37.7756061,7.91478973 39.4828946,7.08065751 41.214316,6.32493901 L41.214316,6.32493901 L41.9579288,6.00584445 C48.5412825,3.22929983 55.5389784,1.56528534 64.7656739,0.71523884 L64.7656739,0.71523884 L65.8198252,0.622468375 C66.5290709,0.562918179 67.251403,0.507940152 67.9876016,0.457405947 L67.9876016,0.457405947 L69.1023969,0.384921463 C69.2899619,0.373390846 69.4784179,0.362133956 69.6677772,0.351148789 L69.6677772,0.351148789 L70.814869,0.288482416 L71.9842232,0.232241125 C72.1810033,0.223397652 72.3787353,0.21481788 72.5774315,0.206499803 L72.5774315,0.206499803 L73.7812763,0.159715646 L75.0088462,0.119115919 C75.2154507,0.112859319 75.4230682,0.106856393 75.6317108,0.101105135 L75.6317108,0.101105135 L76.8959653,0.0696015646 L78.1854075,0.0440417732 L79.5006225,0.0243295 L80.8421953,0.0103684847 C81.0680198,0.00851557245 81.2949669,0.00689828512 81.5230488,0.00551461724 L81.5230488,0.00551461724 L82.9052555,0 L361.09406,0 Z M360.947359,32.3807091 L82.5096522,32.3807091 L81.4455016,32.3865374 L79.8993631,32.3994824 L78.901176,32.4121518 L77.9283906,32.4281126 L76.980445,32.4474164 L76.0567769,32.4701145 L75.1568244,32.4962584 L74.2800254,32.5258994 L73.4258177,32.559089 L72.5936394,32.5958787 L71.7829284,32.6363198 L70.9931225,32.6804637 L70.2236597,32.728362 L69.4739779,32.7800659 L68.7435151,32.835627 L68.0317091,32.8950965 C67.9145983,32.9053367 67.7982415,32.9157419 67.6826268,32.9263131 L67.6826268,32.9263131 L66.9977523,32.9917419 L66.3301295,33.0612078 L65.6791963,33.1347623 L65.0443906,33.2124566 L65.0443906,33.2124566 L64.73286,33.2528724 L64.1211918,33.3368731 L63.5242459,33.4251422 C62.5412925,33.5758431 61.6173403,33.7445437 60.7406794,33.9323151 L60.7406794,33.9323151 L60.2202641,34.047275 C59.876979,34.1254521 59.5408858,34.2067148 59.2112351,34.2911316 L59.2112351,34.2911316 L58.7214972,34.4201311 C58.6406482,34.4420281 58.5601786,34.4641245 58.4800764,34.4864211 L58.4800764,34.4864211 L58.0037801,34.6226139 L57.5357423,34.7636666 L57.075401,34.9096305 L56.622194,35.060557 C56.5472228,35.0861279 56.4725255,35.1119076 56.3980903,35.1378974 L56.3980903,35.1378974 L55.9545309,35.2963643 C55.8076639,35.3500323 55.6617518,35.4045489 55.5167008,35.4599225 L55.5167008,35.4599225 L55.0840378,35.6286233 C55.0123266,35.6571716 54.9408074,35.6859362 54.8694683,35.7149183 L54.8694683,35.7149183 L54.443502,35.8914295 L54.0212976,36.0732119 C53.9512125,36.1039511 53.8812607,36.1349121 53.8114305,36.1660959 L53.8114305,36.1660959 L53.3938152,36.3558815 C53.3244246,36.3879609 53.2551323,36.4202654 53.1859264,36.4527959 L53.1859264,36.4527959 L52.7716353,36.6507004 L52.3588579,36.8540818 L51.9470321,37.0629915 C51.8784425,37.0982733 51.8098692,37.1337876 51.7413003,37.1695355 L51.7413003,37.1695355 L51.3298479,37.386834 C45.7082952,40.3932732 41.3932732,44.7082952 38.386834,50.3298479 L38.386834,50.3298479 L38.2763834,50.5376736 L38.0597847,50.9532675 L37.8488781,51.3692675 L37.6436107,51.7862529 L37.4439296,52.2048029 C37.411112,52.2747238 37.3785249,52.344734 37.3461673,52.4148456 L37.3461673,52.4148456 L37.1547661,52.8368287 C37.1233219,52.9073942 37.0921049,52.9780852 37.061114,53.0489138 L37.061114,53.0489138 L36.8778736,53.4756334 C36.8176921,53.618488 36.7584063,53.7619896 36.7000074,53.9062347 L36.7000074,53.9062347 L36.5274624,54.341297 C36.4708284,54.4871257 36.4150725,54.6337944 36.3601857,54.7813997 L36.3601857,54.7813997 L36.1981243,55.2271219 C36.1715457,55.3019094 36.1451822,55.3769552 36.1190327,55.4522714 L36.1190327,55.4522714 L35.9646948,55.9075091 C35.9393969,55.9839549 35.9143107,56.0606953 35.8894352,56.1377422 L35.8894352,56.1377422 L35.7427016,56.6037988 C35.67059,56.8387631 35.6003547,57.0767035 35.5319658,57.3179461 L35.5319658,57.3179461 L35.397641,57.8049307 C35.3756609,57.8868608 35.3538837,57.9691819 35.3323084,58.0519061 L35.3323084,58.0519061 L35.20527,58.5531852 C35.1014083,58.9751098 35.0025376,59.4077154 34.9085198,59.8525107 L34.9085198,59.8525107 L34.798019,60.3922125 C34.725893,60.7560431 34.6568376,61.1280613 34.590782,61.5090393 L34.590782,61.5090393 L34.4939397,62.0873229 L34.4939397,62.0873229 L34.4471894,62.3816856 L34.3569975,62.9812151 L34.2711729,63.5956326 L34.1896627,64.2255175 C34.1764343,64.3318194 34.1633834,64.43879 34.1505089,64.5464412 L34.1505089,64.5464412 L34.0753709,65.2006132 C34.0631978,65.3110354 34.051199,65.4221624 34.0393734,65.5340063 L34.0393734,65.5340063 L33.9704882,66.2137688 L33.9057054,66.9113158 L33.8449721,67.6272265 L33.788235,68.3620802 C33.779109,68.4861666 33.7701472,68.6110664 33.7613486,68.7367917 L33.7613486,68.7367917 L33.7105068,69.501146 L33.6635289,70.2858916 L33.6203619,71.0916076 L33.5809528,71.9188734 L33.5452486,72.7682682 L33.5131963,73.6403714 L33.4847429,74.5357621 L33.4598355,75.4550197 L33.438421,76.3987235 L33.4204464,77.3674527 L33.4058588,78.3617866 L33.3946051,79.3823045 L33.3866323,80.4295857 L33.3807091,82.0519558 L33.3807091,360.489663 L33.3865374,361.553814 L33.3994824,363.099952 L33.4121518,364.098139 L33.4281126,365.070925 L33.4474164,366.01887 L33.4701145,366.942538 L33.4962584,367.842491 L33.5258994,368.71929 L33.559089,369.573497 L33.5958787,370.405676 L33.6363198,371.216387 L33.6804637,372.006193 L33.728362,372.775656 L33.7800659,373.525337 L33.835627,374.2558 L33.8950965,374.967606 C33.9053367,375.084717 33.9157419,375.201074 33.9263131,375.316688 L33.9263131,375.316688 L33.9917419,376.001563 L34.0612078,376.669186 L34.1347623,377.320119 L34.2124566,377.954925 C34.2257536,378.059413 34.2392251,378.163252 34.2528724,378.266455 L34.2528724,378.266455 L34.3368731,378.878123 L34.4251422,379.475069 C34.5758431,380.458023 34.7445437,381.381975 34.9323151,382.258636 L34.9323151,382.258636 L35.047275,382.779051 C35.1254521,383.122336 35.2067148,383.458429 35.2911316,383.78808 L35.2911316,383.78808 L35.4201311,384.277818 L35.4201311,384.277818 L35.4864211,384.519239 L35.6226139,384.995535 L35.7636666,385.463573 L35.9096305,385.923914 L36.060557,386.377121 C36.0861279,386.452092 36.1119076,386.52679 36.1378974,386.601225 L36.1378974,386.601225 L36.2963643,387.044784 C36.3500323,387.191651 36.4045489,387.337563 36.4599225,387.482614 L36.4599225,387.482614 L36.6286233,387.915277 L36.6286233,387.915277 L36.7149183,388.129847 L36.8914295,388.555813 L37.0732119,388.978018 C37.1039511,389.048103 37.1349121,389.118054 37.1660959,389.187885 L37.1660959,389.187885 L37.3558815,389.6055 C37.3879609,389.674891 37.4202654,389.744183 37.4527959,389.813389 L37.4527959,389.813389 L37.6507004,390.22768 L37.8540818,390.640457 L38.0629915,391.052283 C38.0982733,391.120873 38.1337876,391.189446 38.1695355,391.258015 L38.1695355,391.258015 L38.386834,391.669467 C41.3932732,397.29102 45.7082952,401.606042 51.3298479,404.612481 L51.3298479,404.612481 L51.5376736,404.722932 L51.9532675,404.939531 L52.3692675,405.150437 L52.7862529,405.355704 L53.2048029,405.555386 L53.2048029,405.555386 L53.4148456,405.653148 L53.8368287,405.844549 L53.8368287,405.844549 L54.0489138,405.938201 L54.4756334,406.121442 C54.618488,406.181623 54.7619896,406.240909 54.9062347,406.299308 L54.9062347,406.299308 L55.341297,406.471853 C55.4871257,406.528487 55.6337944,406.584243 55.7813997,406.639129 L55.7813997,406.639129 L56.2271219,406.801191 C56.3019094,406.827769 56.3769552,406.854133 56.4522714,406.880282 L56.4522714,406.880282 L56.9075091,407.03462 C56.9839549,407.059918 57.0606953,407.085004 57.1377422,407.10988 L57.1377422,407.10988 L57.6037988,407.256614 C57.8387631,407.328725 58.0767035,407.398961 58.3179461,407.467349 L58.3179461,407.467349 L58.8049307,407.601674 C58.8868608,407.623654 58.9691819,407.645431 59.0519061,407.667007 L59.0519061,407.667007 L59.5531852,407.794045 C59.9751098,407.897907 60.4077154,407.996778 60.8525107,408.090795 L60.8525107,408.090795 L61.3922125,408.201296 C61.7560431,408.273422 62.1280613,408.342478 62.5090393,408.408533 L62.5090393,408.408533 L63.0873229,408.505375 C63.1848556,408.521144 63.2829725,408.536727 63.3816856,408.552126 L63.3816856,408.552126 L63.9812151,408.642318 L64.5956326,408.728142 L65.2255175,408.809652 C65.3318194,408.822881 65.43879,408.835932 65.5464412,408.848806 L65.5464412,408.848806 L66.2006132,408.923944 C66.3110354,408.936117 66.4221624,408.948116 66.5340063,408.959942 L66.5340063,408.959942 L67.2137688,409.028827 L67.9113158,409.09361 L68.6272265,409.154343 L69.3620802,409.21108 C69.4861666,409.220206 69.6110664,409.229168 69.7367917,409.237967 L69.7367917,409.237967 L70.501146,409.288808 L71.2858916,409.335786 L72.0916076,409.378953 L72.9188734,409.418362 L73.7682682,409.454067 L74.6403714,409.486119 L75.5357621,409.514572 L76.4550197,409.53948 L77.3987235,409.560894 L78.3674527,409.578869 L79.3617866,409.593456 L80.3823045,409.60471 L81.4295857,409.612683 L83.0519558,409.618997 L361.495106,409.618997 L362.569729,409.612683 L363.617011,409.60471 L364.637529,409.593456 L365.631862,409.578869 L366.600592,409.560894 L367.544295,409.53948 L368.463553,409.514572 L369.358944,409.486119 L370.231047,409.454067 L371.080442,409.418362 L371.907708,409.378953 L372.713424,409.335786 L373.498169,409.288808 C373.627245,409.280658 373.755471,409.272347 373.882859,409.263874 L373.882859,409.263874 L374.637235,409.21108 L375.372089,409.154343 L375.372089,409.154343 L375.732376,409.124479 L376.439032,409.061728 L377.127614,408.994901 L377.798702,408.923944 C377.909124,408.911771 378.018842,408.899424 378.127866,408.886901 L378.127866,408.886901 L378.773798,408.809652 L379.403683,408.728142 L380.0181,408.642318 L380.61763,408.552126 C380.716343,408.536727 380.81446,408.521144 380.911992,408.505375 L380.911992,408.505375 L381.490276,408.408533 C381.871254,408.342478 382.243272,408.273422 382.607103,408.201296 L382.607103,408.201296 L383.146805,408.090795 C383.5916,407.996778 384.024205,407.897907 384.44613,407.794045 L384.44613,407.794045 L384.947409,407.667007 C385.030133,407.645431 385.112454,407.623654 385.194384,407.601674 L385.194384,407.601674 L385.681369,407.467349 C386.003026,407.376164 386.318812,407.281696 386.629501,407.183875 L386.629501,407.183875 L387.091806,407.03462 L387.547044,406.880282 C387.62236,406.854133 387.697406,406.827769 387.772193,406.801191 L387.772193,406.801191 L388.217916,406.639129 C388.439323,406.556799 388.658624,406.472514 388.876143,406.386242 L388.876143,406.386242 L389.308903,406.211043 C389.452428,406.151755 389.595259,406.091576 389.737491,406.030497 L389.737491,406.030497 L390.162486,405.844549 C390.233052,405.813105 390.303492,405.781433 390.373818,405.749534 L390.373818,405.749534 L390.794512,405.555386 L391.213062,405.355704 L391.630048,405.150437 L392.046048,404.939531 C392.115331,404.903907 392.184598,404.868045 392.253859,404.831946 L392.253859,404.831946 L392.669467,404.612481 C398.29102,401.606042 402.606042,397.29102 405.612481,391.669467 L405.612481,391.669467 L405.722932,391.461642 L405.939531,391.046048 L406.150437,390.630048 L406.355704,390.213062 L406.555386,389.794512 L406.555386,389.794512 L406.653148,389.58447 L406.844549,389.162486 L406.844549,389.162486 L406.938201,388.950401 L407.121442,388.523682 C407.181623,388.380827 407.240909,388.237326 407.299308,388.09308 L407.299308,388.09308 L407.471853,387.658018 C407.528487,387.51219 407.584243,387.365521 407.639129,387.217916 L407.639129,387.217916 L407.801191,386.772193 C407.827769,386.697406 407.854133,386.62236 407.880282,386.547044 L407.880282,386.547044 L408.03462,386.091806 C408.059918,386.01536 408.085004,385.93862 408.10988,385.861573 L408.10988,385.861573 L408.256614,385.395516 C408.328725,385.160552 408.398961,384.922612 408.467349,384.681369 L408.467349,384.681369 L408.601674,384.194384 C408.623654,384.112454 408.645431,384.030133 408.667007,383.947409 L408.667007,383.947409 L408.794045,383.44613 C408.897907,383.024205 408.996778,382.5916 409.090795,382.146805 L409.090795,382.146805 L409.201296,381.607103 C409.273422,381.243272 409.342478,380.871254 409.408533,380.490276 L409.408533,380.490276 L409.505375,379.911992 C409.521144,379.81446 409.536727,379.716343 409.552126,379.61763 L409.552126,379.61763 L409.642318,379.0181 L409.728142,378.403683 L409.809652,377.773798 C409.822881,377.667496 409.835932,377.560525 409.848806,377.452874 L409.848806,377.452874 L409.923944,376.798702 C409.936117,376.68828 409.948116,376.577153 409.959942,376.465309 L409.959942,376.465309 L410.028827,375.785546 L410.09361,375.087999 L410.154343,374.372089 L410.21108,373.637235 C410.220206,373.513149 410.229168,373.388249 410.237967,373.262523 L410.237967,373.262523 L410.288808,372.498169 L410.335786,371.713424 L410.378953,370.907708 L410.418362,370.080442 L410.454067,369.231047 L410.486119,368.358944 L410.514572,367.463553 L410.53948,366.544295 L410.560894,365.600592 L410.578869,364.631862 L410.593456,363.637529 L410.60471,362.617011 L410.612683,361.569729 L410.618997,359.947359 L410.618997,81.5042095 L410.612683,80.4295857 L410.60471,79.3823045 L410.593456,78.3617866 L410.578869,77.3674527 L410.560894,76.3987235 L410.53948,75.4550197 L410.514572,74.5357621 L410.486119,73.6403714 L410.454067,72.7682682 L410.418362,71.9188734 L410.378953,71.0916076 L410.335786,70.2858916 L410.288808,69.501146 C410.280658,69.3720705 410.272347,69.2438445 410.263874,69.1164562 L410.263874,69.1164562 L410.21108,68.3620802 L410.154343,67.6272265 C410.144555,67.5063456 410.134601,67.3862539 410.124479,67.2669395 L410.124479,67.2669395 L410.061728,66.5602831 L409.994901,65.8717007 L409.923944,65.2006132 C409.911771,65.090191 409.899424,64.9804736 409.886901,64.871449 L409.886901,64.871449 L409.809652,64.2255175 L409.728142,63.5956326 L409.642318,62.9812151 L409.552126,62.3816856 C409.536727,62.2829725 409.521144,62.1848556 409.505375,62.0873229 L409.505375,62.0873229 L409.408533,61.5090393 C409.342478,61.1280613 409.273422,60.7560431 409.201296,60.3922125 L409.201296,60.3922125 L409.090795,59.8525107 C408.996778,59.4077154 408.897907,58.9751098 408.794045,58.5531852 L408.794045,58.5531852 L408.667007,58.0519061 C408.645431,57.9691819 408.623654,57.8868608 408.601674,57.8049307 L408.601674,57.8049307 L408.467349,57.3179461 C408.376164,56.9962893 408.281696,56.680503 408.183875,56.3698146 L408.183875,56.3698146 L408.03462,55.9075091 L407.880282,55.4522714 C407.854133,55.3769552 407.827769,55.3019094 407.801191,55.2271219 L407.801191,55.2271219 L407.639129,54.7813997 C407.556799,54.5599917 407.472514,54.3406911 407.386242,54.123172 L407.386242,54.123172 L407.211043,53.6904126 C407.151755,53.5468869 407.091576,53.4040564 407.030497,53.2618246 L407.030497,53.2618246 L406.844549,52.8368287 C406.813105,52.7662632 406.781433,52.6958233 406.749534,52.6254968 L406.749534,52.6254968 L406.555386,52.2048029 L406.355704,51.7862529 L406.150437,51.3692675 L405.939531,50.9532675 L405.939531,50.9532675 L405.831946,50.745456 L405.612481,50.3298479 C402.606042,44.7082952 398.29102,40.3932732 392.669467,37.386834 L392.669467,37.386834 L392.461642,37.2763834 L392.046048,37.0597847 L391.630048,36.8488781 L391.213062,36.6436107 L390.794512,36.4439296 C390.724591,36.411112 390.654581,36.3785249 390.58447,36.3461673 L390.58447,36.3461673 L390.162486,36.1547661 C390.091921,36.1233219 390.02123,36.0921049 389.950401,36.061114 L389.950401,36.061114 L389.523682,35.8778736 C389.380827,35.8176921 389.237326,35.7584063 389.09308,35.7000074 L389.09308,35.7000074 L388.658018,35.5274624 C388.51219,35.4708284 388.365521,35.4150725 388.217916,35.3601857 L388.217916,35.3601857 L387.772193,35.1981243 C387.697406,35.1715457 387.62236,35.1451822 387.547044,35.1190327 L387.547044,35.1190327 L387.091806,34.9646948 C387.01536,34.9393969 386.93862,34.9143107 386.861573,34.8894352 L386.861573,34.8894352 L386.395516,34.7427016 C386.160552,34.67059 385.922612,34.6003547 385.681369,34.5319658 L385.681369,34.5319658 L385.194384,34.397641 C385.112454,34.3756609 385.030133,34.3538837 384.947409,34.3323084 L384.947409,34.3323084 L384.44613,34.20527 C384.024205,34.1014083 383.5916,34.0025376 383.146805,33.9085198 L383.146805,33.9085198 L382.607103,33.798019 C382.243272,33.725893 381.871254,33.6568376 381.490276,33.590782 L381.490276,33.590782 L380.911992,33.4939397 C380.81446,33.4781713 380.716343,33.4625883 380.61763,33.4471894 L380.61763,33.4471894 L380.0181,33.3569975 L379.403683,33.2711729 L378.773798,33.1896627 C378.667496,33.1764343 378.560525,33.1633834 378.452874,33.1505089 L378.452874,33.1505089 L377.798702,33.0753709 C377.68828,33.0631978 377.577153,33.051199 377.465309,33.0393734 L377.465309,33.0393734 L376.785546,32.9704882 L376.087999,32.9057054 L375.372089,32.8449721 L374.637235,32.788235 C374.513149,32.779109 374.388249,32.7701472 374.262523,32.7613486 L374.262523,32.7613486 L373.498169,32.7105068 L372.713424,32.6635289 L371.907708,32.6203619 L371.080442,32.5809528 L370.231047,32.5452486 L369.358944,32.5131963 L368.463553,32.4847429 L367.544295,32.4598355 L366.600592,32.438421 L365.631862,32.4204464 L364.637529,32.4058588 L363.617011,32.3946051 L362.569729,32.3866323 L360.947359,32.3807091 Z M297.5,83 C315.449254,83 330,97.5507456 330,115.5 C330,133.449254 315.449254,148 297.5,148 C279.550746,148 265,133.449254 265,115.5 C265,97.5507456 279.550746,83 297.5,83 Z" id="Combined-Shape" fill="url(#linearGradient-1)"></path>
            <path d="M322.774993,312.231637 C318.566039,319.647472 313.859497,326.320396 308.64222,332.251183 C289.153628,354.405016 263.02957,365.604992 231.499514,365.604992 C198.731216,365.604992 171.834386,349.4808 152.18161,318.779526 C146.509411,309.918501 141.408791,299.814749 136.86514,288.462526 L136.487272,287.511654 L136.238548,288.452597 C131.35579,306.694153 124.784687,322.531768 116.480259,335.972746 L115.854176,336.976326 C93.9627241,371.729641 60.5550232,389.639895 17.5337227,389.994625 L16.2271062,390 L0,390 L0,357.632704 L16.2271062,357.632704 C48.9187787,357.632704 72.3137591,345.252634 88.3729372,319.758222 C105.394948,292.735286 114.335475,250.695705 114.512583,193.750222 L114.515267,192.020039 L146.842574,190 C153.186766,240.294267 164.248239,277.479358 179.536537,301.362509 C193.469474,323.128336 210.332938,333.237696 231.499514,333.237696 C253.904333,333.237696 271.076746,325.875493 284.246223,310.904971 C298.130911,295.121426 307.973736,270.422762 313.273759,236.629437 L313.432975,235.602612 L345.700827,238.048277 C345.700827,280.226968 353.052433,311.00154 367.000229,330.463837 C379.89436,348.455884 398.977624,357.451884 425.953039,357.630005 L426.772894,357.632704 L443,357.632704 L443,390 L426.772894,390 C389.315897,390 360.005482,376.367069 340.596799,349.28483 C333.202694,338.967338 327.347844,326.839329 322.983901,312.90668 L322.774993,312.231637 Z" id="Path" fill="#1D1E1F" transform="translate(221.500000, 290.000000) scale(-1, -1) translate(-221.500000, -290.000000) "></path>
            <path d="M322.774993,280.231637 C318.566039,287.647472 313.859497,294.320396 308.64222,300.251183 C289.153628,322.405016 263.02957,333.604992 231.499514,333.604992 C198.731216,333.604992 171.834386,317.4808 152.18161,286.779526 C146.509411,277.918501 141.408791,267.814749 136.86514,256.462526 L136.487272,255.511654 L136.238548,256.452597 C131.35579,274.694153 124.784687,290.531768 116.480259,303.972746 L115.854176,304.976326 C93.9627241,339.729641 60.5550232,357.639895 17.5337227,357.994625 L16.2271062,358 L0,358 L0,325.632704 L16.2271062,325.632704 C48.9187787,325.632704 72.3137591,313.252634 88.3729372,287.758222 C105.394948,260.735286 114.335475,218.695705 114.512583,161.750222 L114.515267,160.020039 L146.842574,158 C153.186766,208.294267 164.248239,245.479358 179.536537,269.362509 C193.469474,291.128336 210.332938,301.237696 231.499514,301.237696 C253.904333,301.237696 271.076746,293.875493 284.246223,278.904971 C298.130911,263.121426 307.973736,238.422762 313.273759,204.629437 L313.432975,203.602612 L345.700827,206.048277 C345.700827,248.226968 353.052433,279.00154 367.000229,298.463837 C379.89436,316.455884 398.977624,325.451884 425.953039,325.630005 L426.772894,325.632704 L443,325.632704 L443,358 L426.772894,358 C389.315897,358 360.005482,344.367069 340.596799,317.28483 C333.202694,306.967338 327.347844,294.839329 322.983901,280.90668 L322.774993,280.231637 Z" id="Path" fill="#FFFFFF" transform="translate(221.500000, 258.000000) scale(-1, -1) translate(-221.500000, -258.000000) "></path>
        </g>
    </g>
</svg>