<?xml version="1.0" encoding="UTF-8"?>
<svg width="1080px" height="1080px" viewBox="0 0 1080 1080" version="1.1" xmlns="http://www.w3.org/2000/svg" xmlns:xlink="http://www.w3.org/1999/xlink">
    <title>bounce-icon-speaker</title>
    <defs>
        <linearGradient x1="50%" y1="100%" x2="50.6046584%" y2="0%" id="linearGradient-1">
            <stop stop-color="#7C39FF" offset="0%"></stop>
            <stop stop-color="#04B9FF" offset="49.7267007%"></stop>
            <stop stop-color="#00EBBF" offset="100%"></stop>
        </linearGradient>
    </defs>
    <g id="bounce-icon-speaker" stroke="none" stroke-width="1" fill="none" fill-rule="evenodd">
        <rect fill="#1D1D21" x="0" y="0" width="1080" height="1080"></rect>
        <g id="Group-5" transform="translate(370.000000, 221.195391)" fill-rule="nonzero">
            <path d="M169.5,-2.27373675e-13 C236.898905,-2.14992697e-13 287.014089,15.3767744 319.218309,47.0130074 C331.298427,58.8768066 338.10311,75.0956399 338.10311,92.025142 L338.10311,92.025142 L338.10311,545.294972 C338.10311,562.870223 330.771545,579.649101 317.874358,591.590506 C283.803394,623.143464 234.129787,638.609217 169.5,638.609217 C104.870213,638.609217 55.1966059,623.143464 21.1268475,591.591622 C8.22845475,579.649101 0.896890153,562.870223 0.896890153,545.294948 L0.896890153,545.294948 L0.896890153,92.0248304 C0.896890153,75.0956399 7.70157253,58.8768066 19.7802176,47.0144547 C51.9859109,15.3767744 102.101095,-2.39754653e-13 169.5,-2.27373675e-13 Z M169.5,30.0521985 C109.283404,30.0521985 66.6092666,43.1458465 40.8503436,68.4504582 C34.5237693,74.6637422 30.9598518,83.1582731 30.9598518,92.025142 L30.9598518,92.025142 L30.9598518,545.294924 C30.9598518,554.500673 34.7998812,563.288891 41.5566078,569.544892 C69.4165213,595.345826 111.848831,608.557019 169.5,608.557019 C227.151169,608.557019 269.583479,595.345826 297.444598,569.543775 C304.200119,563.288891 308.040148,554.500673 308.040148,545.294948 L308.040148,545.294948 L308.040148,92.0254537 C308.040148,83.1582731 304.476231,74.6637422 298.148183,68.4490109 C272.390733,43.1458465 229.716596,30.0521985 169.5,30.0521985 Z M169.5,55.0010709 C229.388847,55.0010709 277.938349,71.9377926 277.938349,92.8302976 C277.938349,113.722803 229.388847,130.659524 169.5,130.659524 C109.611153,130.659524 61.0616506,113.722803 61.0616506,92.8302976 C61.0616506,71.9377926 109.611153,55.0010709 169.5,55.0010709 Z" id="Combined-Shape" fill="url(#linearGradient-1)"></path>
            <path d="M85.4373215,259.804609 C85.7916053,262.61366 86.176437,265.331273 86.5910307,267.957141 L86.8008041,269.262429 C86.8361785,269.478702 86.8717587,269.694337 86.9075441,269.909335 L87.1247171,271.19167 C87.3809516,272.678797 87.6472019,274.134662 87.9233123,275.559203 L88.1623893,276.772566 C91.1406976,291.642729 95.2159261,303.0104 100.203792,310.803558 C100.60381,311.428556 101.00633,312.02697 101.411843,312.599352 L101.760171,313.083604 C106.821891,320.013189 112.36789,322.946223 119.345372,322.946223 C128.190755,322.946223 134.537511,320.22481 139.522316,314.557423 C141.24868,312.594664 142.843723,310.2454 144.29468,307.50499 L144.592817,306.932425 C145.283656,305.583412 145.940708,304.143166 146.562539,302.611163 L146.826878,301.948971 C147.263834,300.83595 147.682715,299.676077 148.082997,298.469162 L148.320931,297.739366 C148.674471,296.636199 149.012862,295.494898 149.335721,294.315322 L149.548656,293.523266 C149.58376,293.390311 149.618671,293.256884 149.653389,293.122983 L149.859374,292.3139 C150.538229,289.598021 151.139341,286.692754 151.658522,283.596576 L151.811814,282.661994 C151.836951,282.505275 151.861883,282.348079 151.886608,282.190405 L151.960165,281.715948 L181.852645,283.988842 C181.852645,285.896194 181.884904,287.747874 181.948724,289.543971 L181.990797,290.614959 C182.00608,290.969733 182.02262,291.322283 182.040411,291.672612 L182.097532,292.716933 C182.148252,293.581647 182.206756,294.432478 182.272958,295.269438 L182.35609,296.267132 C183.470213,308.985435 186.401541,318.414957 190.830409,324.595796 C195.679,331.362392 202.75312,334.699732 213.626156,334.767824 L213.967177,334.768888 L229,334.768888 L229,364.804609 L213.967177,364.804609 C193.602045,364.804609 177.1996,357.174301 166.382912,342.078747 C164.788671,339.853856 163.330931,337.488497 162.006826,334.983031 L161.846376,334.677279 L161.781396,334.751039 C151.083953,346.710312 136.754629,352.857104 119.863254,352.980062 L119.345372,352.981944 C100.909941,352.981944 85.6617416,343.839514 74.8733956,326.98355 L74.5883555,326.534812 L74.4455449,326.306824 L74.2112259,326.818911 C72.8377512,329.785137 71.3354852,332.589345 69.7022279,335.231885 L69.3738292,335.758237 C57.4401283,354.706223 38.9746154,364.605546 15.7384087,364.801637 L15.0328228,364.804609 L0,364.804609 L0,334.768888 L15.0328228,334.768888 C28.4578026,334.768888 37.4839241,329.991749 43.9262134,319.762868 C51.3429456,307.986795 55.4078214,288.860039 55.4883772,262.483475 L55.4895981,261.681966 L85.4373215,259.804609 Z" id="Path" fill="#1D1E1F" transform="translate(114.500000, 312.304609) scale(1, -1) translate(-114.500000, -312.304609) "></path>
            <path d="M85.4373215,289.804609 C85.7916053,292.61366 86.176437,295.331273 86.5910307,297.957141 L86.8008041,299.262429 C86.8361785,299.478702 86.8717587,299.694337 86.9075441,299.909335 L87.1247171,301.19167 C87.3809516,302.678797 87.6472019,304.134662 87.9233123,305.559203 L88.1623893,306.772566 C91.1406976,321.642729 95.2159261,333.0104 100.203792,340.803558 C100.60381,341.428556 101.00633,342.02697 101.411843,342.599352 L101.760171,343.083604 C106.821891,350.013189 112.36789,352.946223 119.345372,352.946223 C128.190755,352.946223 134.537511,350.22481 139.522316,344.557423 C141.24868,342.594664 142.843723,340.2454 144.29468,337.50499 L144.592817,336.932425 C145.283656,335.583412 145.940708,334.143166 146.562539,332.611163 L146.826878,331.948971 C147.263834,330.83595 147.682715,329.676077 148.082997,328.469162 L148.320931,327.739366 C148.674471,326.636199 149.012862,325.494898 149.335721,324.315322 L149.548656,323.523266 C149.58376,323.390311 149.618671,323.256884 149.653389,323.122983 L149.859374,322.3139 C150.538229,319.598021 151.139341,316.692754 151.658522,313.596576 L151.811814,312.661994 C151.836951,312.505275 151.861883,312.348079 151.886608,312.190405 L151.960165,311.715948 L181.852645,313.988842 C181.852645,315.896194 181.884904,317.747874 181.948724,319.543971 L181.990797,320.614959 C182.00608,320.969733 182.02262,321.322283 182.040411,321.672612 L182.097532,322.716933 C182.148252,323.581647 182.206756,324.432478 182.272958,325.269438 L182.35609,326.267132 C183.470213,338.985435 186.401541,348.414957 190.830409,354.595796 C195.679,361.362392 202.75312,364.699732 213.626156,364.767824 L213.967177,364.768888 L229,364.768888 L229,394.804609 L213.967177,394.804609 C193.602045,394.804609 177.1996,387.174301 166.382912,372.078747 C164.788671,369.853856 163.330931,367.488497 162.006826,364.983031 L161.846376,364.677279 L161.781396,364.751039 C151.083953,376.710312 136.754629,382.857104 119.863254,382.980062 L119.345372,382.981944 C100.909941,382.981944 85.6617416,373.839514 74.8733956,356.98355 L74.5883555,356.534812 L74.4455449,356.306824 L74.2112259,356.818911 C72.8377512,359.785137 71.3354852,362.589345 69.7022279,365.231885 L69.3738292,365.758237 C57.4401283,384.706223 38.9746154,394.605546 15.7384087,394.801637 L15.0328228,394.804609 L0,394.804609 L0,364.768888 L15.0328228,364.768888 C28.4578026,364.768888 37.4839241,359.991749 43.9262134,349.762868 C51.3429456,337.986795 55.4078214,318.860039 55.4883772,292.483475 L55.4895981,291.681966 L85.4373215,289.804609 Z" id="Path" fill="#FFFFFF" transform="translate(114.500000, 342.304609) scale(1, -1) translate(-114.500000, -342.304609) "></path>
            <path d="M194.437321,423.804609 C194.732558,426.145485 195.049008,428.422862 195.386218,430.636563 L195.591031,431.957141 C195.763778,433.051253 195.941693,434.129437 196.124717,435.19167 L196.346796,436.458693 L196.573759,437.710395 C197.109019,440.613152 197.683987,443.39072 198.297414,446.042612 L198.562663,447.171441 C198.74106,447.918862 198.922582,448.656018 199.1072,449.382897 L199.386445,450.465508 C202.061265,460.677065 205.361787,468.80072 209.203792,474.803558 C214.689763,483.374966 220.646081,486.946223 228.345372,486.946223 C237.190755,486.946223 243.537511,484.22481 248.522316,478.557423 C251.320216,475.3764 253.773185,471.180169 255.826878,465.948971 L256.086878,465.275535 C256.774406,463.464704 257.415395,461.533834 258.007699,459.482145 L258.227527,458.707096 C258.263783,458.576977 258.299848,458.446386 258.335721,458.315322 L258.548656,457.523266 C258.58376,457.390311 258.618671,457.256884 258.653389,457.122983 L258.859374,456.3139 C258.893317,456.178106 258.927065,456.041838 258.960619,455.905097 L259.159597,455.078965 C259.192369,454.940329 259.224945,454.801218 259.257325,454.661634 L259.44924,453.818433 C259.512423,453.535468 259.574817,453.250605 259.636416,452.963841 L259.818826,452.09785 C259.878832,451.807285 259.938041,451.514819 259.996446,451.22045 L260.169251,450.331632 L260.337215,449.431386 C260.447572,448.827411 260.554685,448.215812 260.658522,447.596576 L260.811814,446.661994 C260.836951,446.505275 260.861883,446.348079 260.886608,446.190405 L260.960165,445.715948 L290.852645,447.988842 C290.852645,467.062358 294.078633,480.568732 299.830409,488.595796 C304.679,495.362392 311.75312,498.699732 322.626156,498.767824 L322.967177,498.768888 L338,498.768888 L338,528.804609 L322.967177,528.804609 C302.602045,528.804609 286.1996,521.174301 275.382912,506.078747 C273.788671,503.853856 272.330931,501.488497 271.006826,498.983031 L270.846507,498.677157 L270.781396,498.751039 C260.083953,510.710312 245.754629,516.857104 228.863254,516.980062 L228.345372,516.981944 C209.909941,516.981944 194.661742,507.839514 183.873396,490.98355 L183.588355,490.534812 L183.445675,490.306702 L183.211226,490.818911 C181.837751,493.785137 180.335485,496.589345 178.702228,499.231885 L178.373829,499.758237 C166.440128,518.706223 147.974615,528.605546 124.738409,528.801637 L124.032823,528.804609 L109,528.804609 L109,498.768888 L124.032823,498.768888 C137.457803,498.768888 146.483924,493.991749 152.926213,483.762868 C160.342946,471.986795 164.407821,452.860039 164.488377,426.483475 L164.489598,425.681966 L194.437321,423.804609 Z" id="Path" fill="#1D1E1F" transform="translate(223.500000, 476.304609) scale(-1, 1) translate(-223.500000, -476.304609) "></path>
            <path d="M194.437321,393.804609 C194.732558,396.145485 195.049008,398.422862 195.386218,400.636563 L195.591031,401.957141 C195.763778,403.051253 195.941693,404.129437 196.124717,405.19167 L196.346796,406.458693 L196.573759,407.710395 C197.109019,410.613152 197.683987,413.39072 198.297414,416.042612 L198.562663,417.171441 C198.74106,417.918862 198.922582,418.656018 199.1072,419.382897 L199.386445,420.465508 C202.061265,430.677065 205.361787,438.80072 209.203792,444.803558 C214.689763,453.374966 220.646081,456.946223 228.345372,456.946223 C237.190755,456.946223 243.537511,454.22481 248.522316,448.557423 C251.320216,445.3764 253.773185,441.180169 255.826878,435.948971 L256.086878,435.275535 C256.774406,433.464704 257.415395,431.533834 258.007699,429.482145 L258.227527,428.707096 C258.263783,428.576977 258.299848,428.446386 258.335721,428.315322 L258.548656,427.523266 C258.58376,427.390311 258.618671,427.256884 258.653389,427.122983 L258.859374,426.3139 C258.893317,426.178106 258.927065,426.041838 258.960619,425.905097 L259.159597,425.078965 C259.192369,424.940329 259.224945,424.801218 259.257325,424.661634 L259.44924,423.818433 C259.512423,423.535468 259.574817,423.250605 259.636416,422.963841 L259.818826,422.09785 C259.878832,421.807285 259.938041,421.514819 259.996446,421.22045 L260.169251,420.331632 L260.337215,419.431386 C260.447572,418.827411 260.554685,418.215812 260.658522,417.596576 L260.811814,416.661994 C260.836951,416.505275 260.861883,416.348079 260.886608,416.190405 L260.960165,415.715948 L290.852645,417.988842 C290.852645,437.062358 294.078633,450.568732 299.830409,458.595796 C304.679,465.362392 311.75312,468.699732 322.626156,468.767824 L322.967177,468.768888 L338,468.768888 L338,498.804609 L322.967177,498.804609 C302.602045,498.804609 286.1996,491.174301 275.382912,476.078747 C273.788671,473.853856 272.330931,471.488497 271.006826,468.983031 L270.846507,468.677157 L270.781396,468.751039 C260.083953,480.710312 245.754629,486.857104 228.863254,486.980062 L228.345372,486.981944 C209.909941,486.981944 194.661742,477.839514 183.873396,460.98355 L183.588355,460.534812 L183.445675,460.306702 L183.211226,460.818911 C181.837751,463.785137 180.335485,466.589345 178.702228,469.231885 L178.373829,469.758237 C166.440128,488.706223 147.974615,498.605546 124.738409,498.801637 L124.032823,498.804609 L109,498.804609 L109,468.768888 L124.032823,468.768888 C137.457803,468.768888 146.483924,463.991749 152.926213,453.762868 C160.342946,441.986795 164.407821,422.860039 164.488377,396.483475 L164.489598,395.681966 L194.437321,393.804609 Z" id="Path" fill="#FFFFFF" transform="translate(223.500000, 446.304609) scale(-1, 1) translate(-223.500000, -446.304609) "></path>
        </g>
    </g>
</svg>