<?xml version="1.0" encoding="UTF-8"?>
<svg width="1080px" height="1080px" viewBox="0 0 1080 1080" version="1.1" xmlns="http://www.w3.org/2000/svg" xmlns:xlink="http://www.w3.org/1999/xlink">
    <title>bounce-full</title>
    <defs>
        <linearGradient x1="0%" y1="50%" x2="100%" y2="49.7456642%" id="linearGradient-1">
            <stop stop-color="#7C39FF" offset="0%"></stop>
            <stop stop-color="#04B9FF" offset="49.7267007%"></stop>
            <stop stop-color="#00EBBF" offset="100%"></stop>
        </linearGradient>
    </defs>
    <g id="bounce-full" stroke="none" stroke-width="1" fill="none" fill-rule="evenodd">
        <rect fill="#1D1D21" x="0" y="0" width="1080" height="1080"></rect>
        <path d="M571.350258,496.774086 C604.948951,496.774086 628.037665,484.434838 644.364374,458.326384 C662.694994,429.013426 672.624768,382.084403 672.82153,317.896614 L672.824512,315.946247 L735.763413,312 C742.919641,368.84901 755.266083,410.439518 771.847477,436.396251 C785.791184,458.223917 801.450271,467.630671 821.498047,467.630671 C843.955671,467.630671 860.399908,460.566085 873.222347,445.959942 C884.955436,432.594684 894.16062,412.377167 900.303986,385.114443 L900.753442,383.082094 C901.567148,379.332485 902.324145,375.452859 903.023094,371.442732 L903.398574,369.242445 C903.583428,368.135827 903.763946,367.019496 903.940101,365.893443 L904.114801,364.764147 L966.937796,369.54185 C966.937796,416.227342 974.88466,449.562468 989.307291,469.728921 C1001.80835,487.208533 1020.12567,495.862464 1047.57233,496.033795 L1048.40685,496.03639 L1080,496.03639 L1080,559.225914 L1048.40685,559.225914 C1000.94259,559.225914 962.97317,541.528993 937.9131,506.488732 C933.027498,499.657436 928.687322,492.244923 924.878948,484.252873 L924.406139,483.252096 L924.161846,483.556271 C923.257238,484.670017 922.339097,485.765919 921.407357,486.843956 L920.706002,487.649133 C895.579574,516.27085 861.71306,530.820195 821.498047,530.820195 C778.873186,530.820195 743.682557,509.680418 718.59947,470.415022 C717.10311,468.0726 715.640475,465.663899 714.21128,463.188808 L713.249098,461.502262 L713.024813,462.06055 C708.842499,472.333076 704.074314,481.841689 698.707946,490.587022 L697.937251,491.831163 C670.145578,536.273529 627.245116,559.496621 572.997592,559.956639 L571.350258,559.96361 L508.649742,559.96361 C474.958545,559.96361 451.879485,572.20174 435.596244,598.105276 C417.290316,627.226522 407.374942,673.964513 407.178465,738.104782 L407.175488,740.053753 L344.236587,744 C337.080359,687.15099 324.733917,645.560482 308.152523,619.603749 C294.208816,597.776083 278.549729,588.369329 258.501953,588.369329 C236.044329,588.369329 219.600092,595.433915 206.777653,610.040058 C196.637946,621.590281 188.386173,638.258027 182.366931,660.167828 L181.856471,662.058651 C180.089054,668.721486 178.523452,675.856425 177.168967,683.466832 L176.787724,685.654175 C176.537402,687.121032 176.294773,688.605152 176.059899,690.106557 L175.885199,691.235853 L113.062204,686.45815 C113.062204,639.772658 105.11534,606.437532 90.6927089,586.271079 C78.1916514,568.791467 59.8743347,560.137536 32.4276667,559.966205 L31.5931516,559.96361 L0,559.96361 L0,496.774086 L31.5931516,496.774086 C79.0574115,496.774086 117.02683,514.471007 142.0869,549.511268 C146.972502,556.342564 151.312678,563.755077 155.121052,571.747127 L155.592059,572.747419 L155.838154,572.443729 C156.742762,571.329983 157.660903,570.234081 158.592643,569.156044 L159.293998,568.350867 C184.420426,539.72915 218.28694,525.179805 258.501953,525.179805 C301.126814,525.179805 336.317443,546.319582 361.40053,585.584978 C363.196162,588.395885 364.943231,591.302233 366.642226,594.304214 L366.809128,594.601516 L366.993862,594.146628 C371.18121,583.904562 375.955785,574.427853 381.330265,565.714452 L382.10213,564.474873 C409.893966,520.263354 452.76178,497.237101 507.002603,496.780997 L508.649742,496.774086 L571.350258,496.774086 Z" id="Path" fill="url(#linearGradient-1)" fill-rule="nonzero"></path>
    </g>
</svg>