<?xml version="1.0" encoding="UTF-8"?>
<svg width="1080px" height="1080px" viewBox="0 0 1080 1080" version="1.1" xmlns="http://www.w3.org/2000/svg" xmlns:xlink="http://www.w3.org/1999/xlink">
    <title>bounce-icon-phone</title>
    <defs>
        <linearGradient x1="50%" y1="100%" x2="50.7700041%" y2="0%" id="linearGradient-1">
            <stop stop-color="#7C39FF" offset="0%"></stop>
            <stop stop-color="#04B9FF" offset="49.7267007%"></stop>
            <stop stop-color="#00EBBF" offset="100%"></stop>
        </linearGradient>
    </defs>
    <g id="bounce-icon-phone" stroke="none" stroke-width="1" fill="none" fill-rule="evenodd">
        <rect fill="#1D1D21" x="0" y="0" width="1080" height="1080"></rect>
        <g id="Group-4" transform="translate(372.000000, 279.000000)">
            <path d="M255.119549,-4.09316659e-14 C255.315526,0.00591553511 255.510528,0.00730241893 255.704565,0.00889135982 L255.704565,0.00889135982 L256.857297,0.0208634478 L257.987382,0.0377674525 L259.095322,0.0596859208 L260.18162,0.0867013997 L261.246777,0.118896436 C261.42257,0.124698491 261.597503,0.130719801 261.771586,0.136962085 L261.771586,0.136962085 L262.805977,0.177081233 C262.976705,0.184214292 263.146604,0.191571765 263.315685,0.19915537 L263.315685,0.19915537 L264.320441,0.247384362 L265.306068,0.301123099 C265.468773,0.310543286 265.630701,0.320196486 265.791865,0.330084418 L265.791865,0.330084418 L266.749741,0.392242549 C267.382312,0.435577502 268.002968,0.482723197 268.61238,0.533789697 L268.61238,0.533789697 L269.518149,0.613343809 C279.839432,1.56234946 286.91455,3.69441483 294.184057,7.57448637 C303.862996,12.740583 311.542264,20.4046342 316.718617,30.0643951 C317.507441,31.536445 318.22416,33.0005081 318.873504,34.4852661 L318.873504,34.4852661 L319.147682,35.1229416 C321.5334,40.7684114 322.963187,46.7691949 323.69358,54.6814282 L323.69358,54.6814282 L323.773292,55.585402 C323.82446,56.1936065 323.8717,56.8130331 323.915121,57.4443506 L323.915121,57.4443506 L323.977402,58.4003289 C323.98731,58.5611728 323.996982,58.7227809 324.006421,58.8851635 L324.006421,58.8851635 L324.060266,59.8688372 L324.108591,60.8716017 C324.11619,61.040348 324.123562,61.2099105 324.130709,61.3802999 L324.130709,61.3802999 L324.170908,62.4126414 L324.205793,63.465328 C324.211169,63.6424991 324.216327,63.8205388 324.221268,63.9994575 L324.221268,63.9994575 L324.248337,65.0836026 L324.270299,66.189347 L324.287237,67.3171926 L324.299233,68.4676411 C324.302417,68.8549468 324.304791,69.2461033 324.30873,69.6411941 L324.30873,69.6411941 L324.30873,452.724331 L324.303404,453.909624 C324.302215,454.105213 324.300825,454.299829 324.299233,454.493481 L324.299233,454.493481 L324.287237,455.64393 L324.270299,456.771775 L324.248337,457.87752 L324.221268,458.961665 C324.216327,459.140584 324.211169,459.318623 324.205793,459.495794 L324.205793,459.495794 L324.170908,460.548481 L324.130709,461.580823 C324.123562,461.751212 324.11619,461.920775 324.108591,462.089521 L324.108591,462.089521 L324.060266,463.092285 L324.006421,464.075959 C323.996982,464.238342 323.98731,464.39995 323.977402,464.560794 L323.977402,464.560794 L323.915121,465.516772 C323.8717,466.148089 323.82446,466.767516 323.773292,467.37572 L323.773292,467.37572 L323.69358,468.279694 C322.963187,476.191928 321.5334,482.192711 319.147682,487.838181 L319.147682,487.838181 L318.873504,488.475856 C318.22416,489.960614 317.507441,491.424678 316.718617,492.896727 C311.542264,502.556488 303.862996,510.220539 294.184057,515.386636 C293.130505,515.948965 292.081036,516.474579 291.025177,516.965198 L291.025177,516.965198 L290.390811,517.255384 L289.754409,517.537253 L289.115467,517.810888 C282.81841,520.461424 276.080163,521.929689 266.749741,522.56888 L266.749741,522.56888 L265.791865,522.631038 C265.630701,522.640926 265.468773,522.650579 265.306068,522.659999 L265.306068,522.659999 L264.320441,522.713738 L263.315685,522.761967 C263.146604,522.769551 262.976705,522.776908 262.805977,522.784041 L262.805977,522.784041 L261.771586,522.82416 L260.71681,522.858976 L259.641145,522.888571 C259.460099,522.893073 259.278161,522.897361 259.095322,522.901437 L259.095322,522.901437 L257.987382,522.923355 L256.857297,522.940259 L255.704565,522.952231 C255.31649,522.955409 254.924557,522.96171 254.528682,522.96171 L254.528682,522.96171 L83.0675097,522.96171 L81.879863,522.956394 C81.683886,522.955207 81.488884,522.95382 81.2948467,522.952231 L81.2948467,522.952231 L80.1421141,522.940259 L79.0120293,522.923355 C78.8255412,522.920122 78.6399758,522.91668 78.4553227,522.913028 L78.4553227,522.913028 L77.3582669,522.888571 L76.282602,522.858976 L75.2278254,522.82416 L74.1934343,522.784041 C74.0227066,522.776908 73.8528074,522.769551 73.6837262,522.761967 L73.6837262,522.761967 L72.6789707,522.713738 L71.693344,522.659999 C71.530639,522.650579 71.3687101,522.640926 71.2075468,522.631038 L71.2075468,522.631038 L70.2496706,522.56888 C60.9192485,521.929689 54.1810016,520.461424 47.8839445,517.810888 L47.8839445,517.810888 L47.245003,517.537253 L46.6086005,517.255384 L45.9742344,516.965198 C44.9183753,516.474579 43.8689065,515.948965 42.8153547,515.386636 C33.1364153,510.220539 25.4571479,502.556488 20.2807945,492.896727 C19.4919706,491.424678 18.7752511,489.960614 18.1259078,488.475856 L18.1259078,488.475856 L17.8517292,487.838181 C15.466012,482.192711 14.0362249,476.191928 13.3058312,468.279694 L13.3058312,468.279694 L13.2261192,467.37572 C13.1749513,466.767516 13.127712,466.148089 13.084291,465.516772 L13.084291,465.516772 L13.0220095,464.560794 C13.0121019,464.39995 13.0024295,464.238342 12.9929906,464.075959 L12.9929906,464.075959 L12.9391452,463.092285 L12.8908205,462.089521 C12.8832218,461.920775 12.8758497,461.751212 12.8687025,461.580823 L12.8687025,461.580823 L12.8285037,460.548481 L12.7936188,459.495794 C12.7882429,459.318623 12.7830849,459.140584 12.7781432,458.961665 L12.7781432,458.961665 L12.7510741,457.87752 L12.7291121,456.771775 L12.7121746,455.64393 L12.7001787,454.493481 C12.6985866,454.299829 12.697197,454.105213 12.6960081,453.909624 L12.6960081,453.909624 L12.6912697,452.724331 L12.6912697,70.2367916 L12.6960081,69.0514982 C12.697197,68.8559095 12.6985866,68.6612939 12.7001787,68.4676411 L12.7001787,68.4676411 L12.7121746,67.3171926 L12.7291121,66.189347 L12.7510741,65.0836026 L12.7781432,63.9994575 C12.7830849,63.8205388 12.7882429,63.6424991 12.7936188,63.465328 L12.7936188,63.465328 L12.8285037,62.4126414 L12.8687025,61.3802999 C12.8758497,61.2099105 12.8832218,61.040348 12.8908205,60.8716017 L12.8908205,60.8716017 L12.9391452,59.8688372 L12.9929906,58.8851635 C13.0024295,58.7227809 13.0121019,58.5611728 13.0220095,58.4003289 L13.0220095,58.4003289 L13.084291,57.4443506 C13.127712,56.8130331 13.1749513,56.1936065 13.2261192,55.585402 L13.2261192,55.585402 L13.3058312,54.6814282 C14.0362249,46.7691949 15.466012,40.7684114 17.8517292,35.1229416 L17.8517292,35.1229416 L18.1259078,34.4852661 C18.7752511,33.0005081 19.4919706,31.536445 20.2807945,30.0643951 C25.4571479,20.4046342 33.1364153,12.740583 42.8153547,7.57448637 C50.0848621,3.69441483 57.1599793,1.56234946 67.4812626,0.613343809 L67.4812626,0.613343809 L68.3870312,0.533789697 C68.9964432,0.482723197 69.6170996,0.435577502 70.2496706,0.392242549 L70.2496706,0.392242549 L71.2075468,0.330084418 C71.3687101,0.320196486 71.530639,0.310543286 71.693344,0.301123099 L71.693344,0.301123099 L72.6789707,0.247384362 L73.6837262,0.19915537 C73.8528074,0.191571765 74.0227066,0.184214292 74.1934343,0.177081233 L74.1934343,0.177081233 L75.2278254,0.136962085 C75.4019087,0.130719801 75.5768415,0.124698491 75.7526341,0.118896436 L75.7526341,0.118896436 L76.817792,0.0867013997 L77.9040895,0.0596859208 L79.0120293,0.0377674525 L80.1421141,0.0208634478 L81.2948467,0.00889135982 C81.488884,0.00730241893 81.683886,0.00591553511 81.879863,-7.27552799e-14 L81.879863,-7.27552799e-14 Z M253.805851,27.7676579 L82.7275917,27.7676579 L81.8132314,27.772656 L80.9219046,27.7793692 L80.0531285,27.7888389 L78.7911903,27.8083082 L77.9766778,27.8248619 L77.1830256,27.8443264 L76.4097508,27.8667457 L75.6563703,27.892164 L74.9224013,27.9206253 L74.2073607,27.9521738 L73.5107656,27.9868536 L72.8321331,28.0247086 L72.1709802,28.0657831 L71.5268239,28.1101212 L70.8991813,28.1577668 L70.2875695,28.2087642 L69.6915054,28.2631574 C69.5934302,28.2725084 69.4959827,28.2820027 69.3991528,28.2916412 L69.3991528,28.2916412 L68.8255049,28.3512108 C68.6367058,28.3716492 68.4502967,28.392672 68.2661973,28.4142865 L68.2661973,28.4142865 L67.7207471,28.4809123 C67.6309667,28.4923149 67.5417436,28.5038672 67.4530676,28.5155703 L67.4530676,28.5155703 L66.9274981,28.587604 C66.8409707,28.5999134 66.7549705,28.6123753 66.6694872,28.6249907 L66.6694872,28.6249907 L66.1627116,28.7025315 C65.4116131,28.8216266 64.7007635,28.9532987 64.0228279,29.0982176 L64.0228279,29.0982176 L63.5756665,29.1968 C63.2807024,29.2638397 62.9919178,29.3335254 62.7086688,29.405916 L62.7086688,29.405916 L62.2878665,29.5165379 C62.218398,29.5353154 62.1492552,29.5542638 62.0804283,29.573384 L62.0804283,29.573384 L61.6711757,29.6901744 L61.2690191,29.8111323 L60.8734755,29.9363017 L60.4840621,30.0657268 C60.4196439,30.0876548 60.355461,30.1097619 60.2915033,30.132049 L60.2915033,30.132049 L59.9103796,30.2679403 C59.7841856,30.3139626 59.6588121,30.3607126 59.5341786,30.4081975 L59.5341786,30.4081975 L59.1624174,30.5528647 C59.1008003,30.5773459 59.0393481,30.6020126 58.9780507,30.6268659 L58.9780507,30.6268659 L58.6120436,30.7782308 L58.2492689,30.9341159 C58.189049,30.9604759 58.1289437,30.9870261 58.0689428,31.0137673 L58.0689428,31.0137673 L57.7101111,31.1765155 C57.650488,31.2040249 57.5909493,31.2317272 57.5314849,31.2596233 L57.5314849,31.2596233 L57.1755096,31.4293337 L56.8208349,31.6037408 L56.4669778,31.7828886 C56.4080429,31.813144 56.349122,31.8435989 56.2902049,31.874254 L56.2902049,31.874254 L55.9366687,32.0605955 C51.106408,34.6387286 47.3987701,38.3390198 44.8155184,43.1597096 C44.7836776,43.2191287 44.7520435,43.2785314 44.720615,43.3379278 L44.720615,43.3379278 L44.5345047,43.694315 L44.3532854,44.0510504 L44.1769116,44.4086308 L44.0053376,44.7675529 C43.9771394,44.8275127 43.9491393,44.8875491 43.9213364,44.9476724 L43.9213364,44.9476724 L43.7568769,45.3095385 L43.7568769,45.3095385 L43.6764073,45.4914094 L43.5189599,45.8573372 C43.4672495,45.9798403 43.4163088,46.1028983 43.3661302,46.2265938 L43.3661302,46.2265938 L43.2178727,46.5996758 C43.1692106,46.7247293 43.1213028,46.8505031 43.074142,46.9770802 L43.074142,46.9770802 L42.9348924,47.3593035 C42.912055,47.4234365 42.8894025,47.4877911 42.8669338,47.5523775 L42.8669338,47.5523775 L42.7343205,47.9427607 C42.7125835,48.0083159 42.6910285,48.0741236 42.6696545,48.1401941 L42.6696545,48.1401941 L42.5435752,48.539855 C42.481614,48.7413455 42.421265,48.9453883 42.3625026,49.1522628 L42.3625026,49.1522628 L42.2470854,49.56987 L42.2470854,49.56987 L42.1909491,49.7816606 L42.0817926,50.211526 C42.0460958,50.3562524 42.0110851,50.5024443 41.976753,50.6501845 L41.976753,50.6501845 L41.8757847,51.0981327 C41.8592934,51.1735925 41.8429699,51.2494601 41.8268131,51.3257457 L41.8268131,51.3257457 L41.7318665,51.7885601 C41.669893,52.1005583 41.6105578,52.4195777 41.5538002,52.7462805 L41.5538002,52.7462805 L41.4705895,53.24218 L41.4705895,53.24218 L41.4304198,53.494607 L41.3529233,54.0087257 L41.2791794,54.5356115 L41.2091426,55.0757612 C41.1977762,55.166919 41.1865624,55.2586502 41.1755001,55.3509651 L41.1755001,55.3509651 L41.1109386,55.9119419 C41.100479,56.006633 41.0901691,56.1019285 41.0800081,56.1978388 L41.0800081,56.1978388 L41.0208192,56.7807604 L40.9651553,57.3789327 L40.9129708,57.9928527 L40.8642201,58.6230169 C40.8563786,58.7294256 40.8486783,58.8365318 40.8411182,58.9443459 L40.8411182,58.9443459 L40.7974329,59.5998081 L40.7570676,60.2727565 L40.7199768,60.9636879 L40.6861149,61.6730989 L40.6554365,62.4014865 L40.6278959,63.1493472 L40.6034476,63.917178 L40.5820462,64.7054754 L40.563646,65.5147364 L40.5482015,66.3454576 L40.5356672,67.1981358 L40.5259976,68.0732677 L40.5191471,68.9713501 L40.5140576,70.3625926 L40.5140576,453.063575 L40.5190656,453.976124 L40.5301884,455.301995 L40.5410744,456.157977 L40.5627201,457.401259 L40.5807594,458.203687 L40.6017374,458.985538 L40.6256982,459.747293 L40.6526859,460.489434 L40.6827449,461.212443 L40.7159192,461.916802 L40.7522531,462.602993 L40.7917907,463.271498 L40.8345763,463.922799 L40.8806539,464.557379 L40.9300678,465.175718 L40.9828622,465.778299 L41.0390813,466.365604 L41.0987691,466.938116 L41.16197,467.496315 C41.1944561,467.771917 41.2282761,468.042333 41.2634549,468.307833 L41.2634549,468.307833 L41.3356316,468.832362 L41.4114759,469.344265 C41.5409641,470.187184 41.6859183,470.979507 41.847259,471.731276 L41.847259,471.731276 L41.9460371,472.177552 C42.0132099,472.471931 42.083034,472.760144 42.1555683,473.042831 L42.1555683,473.042831 L42.2664098,473.4628 L42.3813608,473.874963 C42.4008642,473.943034 42.4205406,474.010799 42.4403911,474.078269 L42.4403911,474.078269 L42.5615891,474.479628 L42.6870071,474.874388 C42.7507784,475.070198 42.8161487,475.263714 42.883143,475.455207 L42.883143,475.455207 L43.0193041,475.835576 C43.0654178,475.96152 43.1122606,476.086645 43.1598398,476.211031 L43.1598398,476.211031 L43.3047942,476.582056 L43.3047942,476.582056 L43.3789423,476.766057 L43.5306077,477.131339 L43.6868023,477.493395 L43.6868023,477.493395 L43.7666119,477.673364 L43.9296832,478.031485 C43.9572472,478.09099 43.9850044,478.15041 44.012956,478.209757 L44.012956,478.209757 L44.1830033,478.565027 L44.3577567,478.918999 L44.5372601,479.272155 L44.5372601,479.272155 L44.6288069,479.448577 L44.8155184,479.801413 C47.3987701,484.622103 51.106408,488.322394 55.9366687,490.900527 L55.9366687,490.900527 L56.2937757,491.088726 L56.6509827,491.272021 C56.7105532,491.302164 56.7701486,491.332105 56.8297792,491.361844 L56.8297792,491.361844 L57.1880696,491.537868 L57.5477043,491.709102 C57.6077831,491.737245 57.6679387,491.765189 57.7281813,491.792937 L57.7281813,491.792937 L58.0907659,491.957071 L58.0907659,491.957071 L58.2729979,492.037381 L58.6396522,492.194516 C58.7623986,492.246124 58.8857008,492.296964 59.0096419,492.347043 L59.0096419,492.347043 L59.3834647,492.495007 C59.5087665,492.543573 59.63479,492.591386 59.7616183,492.638453 L59.7616183,492.638453 L60.1446005,492.777427 C60.2088609,492.800219 60.2733432,492.822826 60.3380579,492.845251 L60.3380579,492.845251 L60.7292162,492.977601 C60.7949015,492.999295 60.8608398,493.020807 60.9270415,493.042139 L60.9270415,493.042139 L61.3274959,493.167968 C61.5293864,493.229807 61.7338343,493.290036 61.9411195,493.348682 L61.9411195,493.348682 L62.359556,493.463871 C62.4299535,493.48272 62.5006871,493.501394 62.571767,493.519896 L62.571767,493.519896 L63.0024859,493.628836 L63.4420153,493.733668 C63.516032,493.7508 63.5904366,493.767762 63.6652394,493.784557 L63.6652394,493.784557 L64.1189178,493.88331 L64.582651,493.978069 C64.8952687,494.03992 65.2149214,494.099137 65.5422728,494.155782 L65.5422728,494.155782 L66.039157,494.238828 C66.122961,494.25235 66.2072669,494.265713 66.2920851,494.278918 L66.2920851,494.278918 L66.8072246,494.356261 L67.3351564,494.429859 L67.8763785,494.499757 C67.9677173,494.511101 68.0596306,494.522292 68.1521288,494.533333 L68.1521288,494.533333 L68.7142193,494.597766 C68.8090985,494.608205 68.9045832,494.618495 69.0006839,494.628636 L69.0006839,494.628636 L69.5847628,494.687707 L70.1841228,494.743261 L70.7992616,494.795342 L71.430677,494.843996 L72.0788667,494.889268 L72.7443285,494.931205 L73.4275601,494.96985 L74.1290592,495.005251 L74.8493236,495.037451 L75.588851,495.066498 L76.3481392,495.092435 C76.4763616,495.096501 76.6054281,495.10044 76.7353491,495.104252 L76.7353491,495.104252 L77.5252116,495.125611 L78.3360793,495.143975 L79.5928542,495.166003 L80.8996903,495.181548 L81.7995558,495.188385 L83.1935604,495.1938 L254.276497,495.1938 L255.199856,495.188385 L256.099721,495.181548 L257.406557,495.166003 L258.249866,495.152047 L259.071423,495.135164 L259.871726,495.115309 L260.651272,495.092435 L261.410561,495.066498 L262.150088,495.037451 L262.870352,495.005251 L263.571851,494.96985 L264.255083,494.931205 L264.920545,494.889268 L265.568735,494.843996 L266.20015,494.795342 C266.304016,494.786949 266.407203,494.778412 266.509723,494.769733 L266.509723,494.769733 L267.11691,494.715921 L267.708567,494.658614 L268.285192,494.597766 C268.380071,494.587328 268.474345,494.576739 268.568023,494.566001 L268.568023,494.566001 L269.123033,494.499757 L269.664255,494.429859 L270.192187,494.356261 L270.707326,494.278918 L270.707326,494.278918 L270.960255,494.238828 L271.457139,494.155782 C271.78449,494.099137 272.104143,494.03992 272.416761,493.978069 L272.416761,493.978069 L272.880494,493.88331 L273.334172,493.784557 C273.408975,493.767762 273.48338,493.7508 273.557396,493.733668 L273.557396,493.733668 L273.996926,493.628836 L274.427645,493.519896 C274.498725,493.501394 274.569458,493.48272 274.639856,493.463871 L274.639856,493.463871 L275.058292,493.348682 C275.334672,493.270488 275.606008,493.189478 275.872964,493.105593 L275.872964,493.105593 L276.270195,492.977601 L276.661354,492.845251 C276.726068,492.822826 276.790551,492.800219 276.854811,492.777427 L276.854811,492.777427 L277.237793,492.638453 C277.428036,492.567852 277.616467,492.495574 277.803369,492.421593 L277.803369,492.421593 L278.175213,492.271353 C278.298536,492.220511 278.421261,492.168906 278.543472,492.116528 L278.543472,492.116528 L278.908646,491.957071 C278.969278,491.930106 279.029803,491.902947 279.09023,491.875591 L279.09023,491.875591 L279.451707,491.709102 C279.511786,491.68096 279.571788,491.65262 279.631724,491.624081 L279.631724,491.624081 L279.990624,491.450458 L280.348429,491.272021 L280.705636,491.088726 L281.062743,490.900527 C285.893004,488.322394 289.600641,484.622103 292.183893,479.801413 C292.215734,479.741994 292.247368,479.682591 292.278797,479.623195 L292.278797,479.623195 L292.464907,479.266808 L292.646126,478.910072 L292.8225,478.552492 L292.994074,478.19357 L293.160894,477.832809 C293.215713,477.712194 293.269747,477.591189 293.323004,477.469713 L293.323004,477.469713 L293.480452,477.103785 C293.532162,476.981282 293.583103,476.858224 293.633281,476.734529 L293.633281,476.734529 L293.781539,476.361447 C293.830201,476.236393 293.878109,476.110619 293.92527,475.984042 L293.92527,475.984042 L294.064519,475.601819 C294.087357,475.537686 294.110009,475.473331 294.132478,475.408745 L294.132478,475.408745 L294.265091,475.018362 C294.308565,474.887251 294.351311,474.755131 294.393337,474.621918 L294.393337,474.621918 L294.517261,474.218916 C294.557854,474.083434 294.597734,473.946776 294.636909,473.80886 L294.636909,473.80886 L294.752326,473.391252 L294.752326,473.391252 L294.808462,473.179462 L294.917619,472.749596 C295.006861,472.387781 295.091815,472.016805 295.172598,471.635377 L295.172598,471.635377 L295.267545,471.172562 C295.329519,470.860564 295.388854,470.541545 295.445611,470.214842 L295.445611,470.214842 L295.528822,469.718942 C295.542371,469.635305 295.55576,469.551166 295.568992,469.466516 L295.568992,469.466516 L295.646488,468.952397 L295.720232,468.425511 L295.790269,467.885361 L295.856644,467.331451 C295.878164,467.144466 295.899081,466.955104 295.919404,466.763284 L295.919404,466.763284 L295.978592,466.180362 L296.034256,465.58219 L296.086441,464.96827 L296.135192,464.338106 L296.135192,464.338106 L296.158293,464.016777 L296.201979,463.361314 L296.242344,462.688366 L296.279435,461.997435 L296.313297,461.288024 L296.343975,460.559636 L296.371516,459.811775 L296.395964,459.043945 L296.417365,458.255647 L296.435766,457.446386 L296.45121,456.615665 L296.463744,455.762987 L296.473414,454.887855 L296.480264,453.989772 L296.485354,452.59853 L296.485354,69.8928798 L296.480264,68.9713501 L296.473414,68.0732677 L296.463744,67.1981358 L296.45121,66.3454576 L296.435766,65.5147364 L296.417365,64.7054754 L296.395964,63.917178 L296.371516,63.1493472 L296.343975,62.4014865 L296.313297,61.6730989 L296.279435,60.9636879 L296.242344,60.2727565 L296.201979,59.5998081 C296.194976,59.489121 296.187834,59.3791625 296.180554,59.2699223 L296.180554,59.2699223 L296.135192,58.6230169 L296.086441,57.9928527 C296.078031,57.8891928 296.069478,57.7862097 296.060781,57.6838932 L296.060781,57.6838932 L296.006862,57.0779091 L295.949441,56.4874243 L295.888473,55.9119419 L295.888473,55.9119419 L295.856644,55.6296713 L295.790269,55.0757612 L295.720232,54.5356115 L295.646488,54.0087257 L295.568992,53.494607 L295.568992,53.494607 L295.528822,53.24218 L295.445611,52.7462805 C295.388854,52.4195777 295.329519,52.1005583 295.267545,51.7885601 L295.267545,51.7885601 L295.172598,51.3257457 C295.156442,51.2494601 295.140118,51.1735925 295.123627,51.0981327 L295.123627,51.0981327 L295.022659,50.6501845 C294.988326,50.5024443 294.953316,50.3562524 294.917619,50.211526 L294.917619,50.211526 L294.808462,49.7816606 L294.808462,49.7816606 L294.752326,49.56987 L294.636909,49.1522628 C294.558559,48.8764301 294.477389,48.6056316 294.393337,48.3392048 L294.393337,48.3392048 L294.265091,47.9427607 L294.132478,47.5523775 C294.110009,47.4877911 294.087357,47.4234365 294.064519,47.3593035 L294.064519,47.3593035 L293.92527,46.9770802 C293.854528,46.7872146 293.782107,46.5991563 293.707979,46.4126256 L293.707979,46.4126256 L293.557441,46.0415183 C293.506498,45.9184397 293.45479,45.7959573 293.402308,45.6739882 L293.402308,45.6739882 L293.242535,45.3095385 C293.215517,45.249026 293.188303,45.1886211 293.160894,45.1283135 L293.160894,45.1283135 L292.994074,44.7675529 L292.8225,44.4086308 L292.646126,44.0510504 L292.464907,43.694315 L292.464907,43.694315 L292.372466,43.5161089 L292.183893,43.1597096 C289.600641,38.3390198 285.893004,34.6387286 281.062743,32.0605955 C281.003206,32.0288178 280.943685,31.9972463 280.884171,31.9658801 L280.884171,31.9658801 L280.527076,31.7801386 C280.467545,31.7495897 280.407999,31.7192442 280.348429,31.6891012 L280.348429,31.6891012 L279.990624,31.5106646 C279.930913,31.4813275 279.871155,31.452191 279.811342,31.423254 L279.811342,31.423254 L279.451707,31.2520201 C279.391628,31.2238777 279.331473,31.1959331 279.27123,31.1681853 L279.27123,31.1681853 L278.908646,31.0040517 C278.848013,30.9770871 278.787272,30.9503173 278.726414,30.9237415 L278.726414,30.9237415 L278.359759,30.766606 C278.237013,30.7149982 278.113711,30.6641584 277.98977,30.6140792 L277.98977,30.6140792 L277.615947,30.4661155 C277.490645,30.4175498 277.364622,30.369737 277.237793,30.3226695 L277.237793,30.3226695 L276.854811,30.1836959 C276.790551,30.1609037 276.726068,30.1382961 276.661354,30.1158719 L276.661354,30.1158719 L276.270195,29.9835214 C276.20451,29.9618275 276.138572,29.9403152 276.07237,29.9189835 L276.07237,29.9189835 L275.671916,29.793154 C275.402728,29.7107029 275.128994,29.6311121 274.850051,29.554321 L274.850051,29.554321 L274.427645,29.4412267 L273.996926,29.3322865 C273.634391,29.2432213 273.262679,29.158436 272.880494,29.0778122 L272.880494,29.0778122 L272.416761,28.9830537 C272.104143,28.921203 271.78449,28.8619854 271.457139,28.8053403 L271.457139,28.8053403 L270.960255,28.7222944 L270.960255,28.7222944 L270.707326,28.6822043 L270.192187,28.6048614 L269.664255,28.5312637 L269.123033,28.4613656 C269.031694,28.4500218 268.939781,28.4388301 268.847283,28.4277898 L268.847283,28.4277898 L268.285192,28.3633561 C268.190313,28.3529173 268.094828,28.3426279 267.998728,28.3324869 L267.998728,28.3324869 L267.414649,28.2734154 L266.815289,28.2178618 L266.20015,28.1657806 L265.568735,28.1171265 C265.462115,28.1093006 265.354796,28.1016155 265.246768,28.0940704 L265.246768,28.0940704 L264.590004,28.0504717 L263.91572,28.0101864 L263.223416,27.9731691 L262.512597,27.9393743 L261.782763,27.9087566 L261.033418,27.8812706 L260.264063,27.8568708 L259.4742,27.8355117 L258.663332,27.817148 L257.830962,27.8017341 L256.976591,27.7892247 L256.099721,27.7795742 L255.199856,27.7727373 L253.805851,27.7676579 Z M189.094239,59.7641084 C196.762136,59.7641084 202.978194,65.9925081 202.978194,73.6756285 C202.978194,81.2819176 196.885835,87.462435 189.323836,87.5852848 L189.094239,87.5871485 L148.367972,87.5871485 C140.700075,87.5871485 134.484017,81.3587488 134.484017,73.6756285 C134.484017,66.0693393 140.576376,59.8888219 148.138375,59.7659722 L148.367972,59.7641084 L189.094239,59.7641084 Z" id="Combined-Shape" fill="url(#linearGradient-1)" fill-rule="nonzero"></path>
            <rect id="Rectangle" fill="#1D1E1F" x="0" y="190" width="84" height="242"></rect>
            <rect id="Rectangle" fill="#1D1E1F" x="252" y="123" width="84" height="242"></rect>
            <path d="M34.0948129,277.480855 C34.4227962,280.075883 34.7790596,282.58644 35.1628756,285.012242 L35.3570763,286.218079 C35.3898246,286.417874 35.4227635,286.617081 35.4558924,286.815698 L35.6569434,288.000331 C35.894156,289.374153 36.1406411,290.719094 36.3962541,292.035099 L36.6175831,293.156015 C39.3747943,306.893214 43.1474949,317.394776 47.7650822,324.59417 C48.1354052,325.171549 48.5080433,325.724369 48.8834533,326.253142 L49.2059228,326.700498 C53.891882,333.102115 59.0261689,335.811679 65.4856716,335.811679 C73.6744103,335.811679 79.5500099,333.297612 84.1647641,328.062026 C86.6447384,325.248416 88.8319866,321.575067 90.6823509,317.025958 L90.927066,316.414219 C91.3315842,315.385999 91.7193692,314.314497 92.0899365,313.199537 L92.3102069,312.525345 C92.6375016,311.506229 92.9507715,310.451884 93.2496632,309.36218 L93.4467904,308.630472 C93.4792886,308.507647 93.5116084,308.384385 93.5437492,308.260686 L93.7344424,307.513247 C94.3629024,305.004293 94.9193901,302.32038 95.4000287,299.460101 L95.541941,298.596725 C95.5652125,298.451947 95.5882934,298.306728 95.6111832,298.161067 L95.679279,297.722759 L123.352667,299.82248 C123.352667,301.58451 123.382532,303.29511 123.441614,304.954361 L123.480563,305.94375 C123.494712,306.271493 123.510024,306.597183 123.526494,306.92082 L123.579375,307.885574 C123.626329,308.684405 123.680491,309.470411 123.741778,310.243602 L123.818738,311.165281 C124.850154,322.91457 127.563872,331.625653 131.66396,337.335571 C136.152611,343.586617 142.701579,346.669683 152.767446,346.732587 L153.083151,346.73357 L167,346.73357 L167,374.480855 L153.083151,374.480855 C134.229841,374.480855 119.045045,367.431904 109.031342,353.486487 C107.555451,351.431112 106.205928,349.245971 104.980118,346.931397 L104.83158,346.648911 L104.771423,346.717081 C94.868114,357.765171 81.6025388,363.443637 65.9651083,363.557226 L65.4856716,363.558964 C48.4188103,363.558964 34.302573,355.113101 24.3151086,339.541401 L24.0512286,339.126852 L23.9190197,338.916206 L23.7020955,339.389306 C22.4305819,342.129534 21.0398378,344.720087 19.5278267,347.161291 L19.223807,347.64754 C8.17601396,365.15187 -8.91869663,374.296959 -30.4299448,374.47811 L-31.083151,374.480855 L-45,374.480855 L-45,346.73357 L-31.083151,346.73357 C-18.6547854,346.73357 -10.2987253,342.320404 -4.33468457,332.870866 C2.53146056,321.992017 6.29457697,304.322539 6.36915268,279.955617 L6.37028292,279.215176 L34.0948129,277.480855 Z" id="Path" fill="#FFFFFF" fill-rule="nonzero" transform="translate(61.000000, 325.980855) scale(1, -1) rotate(-270.000000) translate(-61.000000, -325.980855) "></path>
            <path d="M319.771423,249.717081 C309.76706,260.877907 296.331463,266.558964 280.485672,266.558964 C263.41881,266.558964 249.302573,258.113101 239.315109,242.541401 L239.051229,242.126852 L238.919175,241.916235 L238.702096,242.389306 C237.430582,245.129534 236.039838,247.720087 234.527827,250.161291 L234.223807,250.64754 C223.176014,268.15187 206.081303,277.296959 184.570055,277.47811 L183.916849,277.480855 L170,277.480855 L170,249.73357 L183.916849,249.73357 C196.345215,249.73357 204.701275,245.320404 210.665315,235.870866 C217.531461,224.992017 221.294577,207.322539 221.369153,182.955617 L221.370283,182.215176 L249.094813,180.480855 C249.559456,184.157145 250.080855,187.663906 250.656943,191.000331 L250.862536,192.170819 L251.07265,193.327153 C251.638964,196.391832 252.253291,199.305458 252.913906,202.067357 L253.163803,203.095955 C253.247823,203.43645 253.332563,203.774573 253.418019,204.110322 L253.676534,205.110448 C256.152787,214.543982 259.208292,222.048691 262.765082,227.59417 C267.843798,235.512519 273.357944,238.811679 280.485672,238.811679 C288.67441,238.811679 294.55001,236.297612 299.164764,231.062026 C302.030512,227.810744 304.505381,223.411444 306.521233,217.839406 L306.75179,217.191272 C307.17073,215.993481 307.569012,214.743169 307.945992,213.440102 L308.149501,212.724105 L308.348761,211.997636 C308.513034,211.387879 308.672858,210.767205 308.828171,210.135592 L309.012378,209.372403 C309.042717,209.24433 309.072875,209.115818 309.102851,208.986868 L309.280519,208.207912 C309.455998,207.423695 309.624894,206.623694 309.787103,205.80787 L309.947079,204.986771 L310.102575,204.155116 C310.153657,203.876137 310.203989,203.595397 310.253566,203.312895 L310.400029,202.460101 L310.541941,201.596725 C310.565212,201.451947 310.588293,201.306728 310.611183,201.161067 L310.679279,200.722759 L338.352667,202.82248 C338.352667,203.703495 338.360133,204.571652 338.374984,205.426962 L338.396346,206.447168 C338.466885,209.320283 338.622422,212.04493 338.859774,214.621508 L338.946937,215.524741 C340.063717,226.5888 342.723616,234.848117 346.66396,240.335571 C351.152611,246.586617 357.701579,249.669683 367.767446,249.732587 L368.083151,249.73357 L382,249.73357 L382,277.480855 L368.083151,277.480855 C349.229841,277.480855 334.045045,270.431904 324.031342,256.486487 C322.555451,254.431112 321.205928,252.245971 319.980118,249.931397 L319.831735,249.648478 L319.771423,249.717081 Z" id="Path" fill="#FFFFFF" fill-rule="nonzero" transform="translate(276.000000, 228.980855) scale(-1, 1) rotate(-270.000000) translate(-276.000000, -228.980855) "></path>
        </g>
    </g>
</svg>