<?xml version="1.0" encoding="UTF-8"?>
<svg width="1080px" height="1080px" viewBox="0 0 1080 1080" version="1.1" xmlns="http://www.w3.org/2000/svg" xmlns:xlink="http://www.w3.org/1999/xlink">
    <title>bounce-white</title>
    <g id="bounce-white" stroke="none" stroke-width="1" fill="none" fill-rule="evenodd">
        <rect fill="#1D1D21" x="0" y="0" width="1080" height="1080"></rect>
        <path d="M283.906433,478 C307.803607,478 326.920345,486.947748 339.53752,504.664469 C341.99731,508.118444 344.182489,511.866288 346.099919,515.907151 L346.337591,516.413399 L346.460964,516.25936 C346.916413,515.696239 347.378676,515.142139 347.847786,514.597073 L348.200902,514.189967 C360.851487,499.718528 377.902506,492.362228 398.149849,492.362228 C419.610497,492.362228 437.328178,503.050719 449.956941,522.903713 C450.861001,524.324937 451.74061,525.794417 452.596015,527.31225 L452.680577,527.463059 L452.773056,527.232573 C454.881291,522.054077 457.28518,517.262554 459.991109,512.856968 L460.379725,512.230224 C474.372282,489.876419 495.955251,478.234105 523.26427,478.003494 L524.093567,478 L540,478 L540,509.949282 L524.093567,509.949282 C507.130817,509.949282 495.511035,516.137008 487.312794,529.234106 C478.096176,543.958112 473.104011,567.589328 473.005089,600.019316 L473.00359,601.004737 L441.315286,603 C437.712288,574.256548 431.496136,553.227953 423.147782,540.103958 C416.127442,529.067663 408.243448,524.31151 398.149849,524.31151 C386.842947,524.31151 378.563648,527.883438 372.107842,535.268457 C367.00273,541.10837 362.84815,549.535756 359.817599,560.61358 L359.560594,561.5696 C358.67074,564.938398 357.882494,568.545898 357.200542,572.393799 L357.008595,573.499742 C356.882564,574.241401 356.760405,574.991787 356.642152,575.750913 L356.554194,576.321897 L324.924246,573.906241 C324.924246,550.301569 320.923181,533.446982 313.661715,523.250613 C307.367717,514.412739 298.145365,510.037221 284.326592,509.950595 L283.906433,509.949282 L268,509.949282 L268,478 L283.906433,478 Z M638.684714,478 C642.287712,506.743452 648.503864,527.772047 656.852218,540.896042 C663.872558,551.932337 671.756552,556.68849 681.850151,556.68849 C693.157053,556.68849 701.436352,553.116562 707.892158,545.731543 C713.799502,538.97393 718.434102,528.751742 721.527147,514.967425 L721.753438,513.939848 C722.163121,512.044007 722.544251,510.082427 722.896156,508.054865 L723.085202,506.942377 C723.178271,506.38286 723.269158,505.818431 723.357848,505.249087 L723.445806,504.678103 L755.075754,507.093759 C755.075754,530.698431 759.076819,547.553018 766.338285,557.749387 C772.632283,566.587261 781.854635,570.962779 795.673408,571.049405 L796.093567,571.050718 L812,571.050718 L812,603 L796.093567,603 C772.196393,603 753.079655,594.052252 740.46248,576.335531 C738.00269,572.881556 735.817511,569.133712 733.900081,565.092849 L733.662033,564.586846 L733.539036,564.74064 C733.083587,565.303761 732.621324,565.857861 732.152214,566.402927 L731.799098,566.810033 C719.148513,581.281472 702.097494,588.637772 681.850151,588.637772 C660.389503,588.637772 642.671822,577.949281 630.043059,558.096287 C629.138999,556.675063 628.25939,555.205583 627.403985,553.68775 L627.319577,553.536654 L627.226944,553.767427 C625.118709,558.945923 622.71482,563.737446 620.008891,568.143032 L619.620275,568.769776 C605.627718,591.123581 584.044749,602.765895 556.73573,602.996506 L555.906433,603 L540,603 L540,571.050718 L555.906433,571.050718 C572.869183,571.050718 584.488965,564.862992 592.687206,551.765894 C601.903824,537.041888 606.895989,513.410672 606.994911,480.980684 L606.99641,479.995263 L638.684714,478 Z" id="Combined-Shape" fill="#FFFFFF" fill-rule="nonzero" style="mix-blend-mode: normal;"></path>
    </g>
</svg>