<?xml version="1.0" encoding="UTF-8"?>
<svg width="1080px" height="1081px" viewBox="0 0 1080 1081" version="1.1" xmlns="http://www.w3.org/2000/svg" xmlns:xlink="http://www.w3.org/1999/xlink">
    <title>spring-type</title>
    <defs>
        <linearGradient x1="14.1014997%" y1="49.0498699%" x2="100%" y2="51.7807554%" id="linearGradient-1">
            <stop stop-color="#7C39FF" offset="0%"></stop>
            <stop stop-color="#04B9FF" offset="49.7267007%"></stop>
            <stop stop-color="#00EBBF" offset="100%"></stop>
        </linearGradient>
        <linearGradient x1="14.1014997%" y1="49.0521041%" x2="100%" y2="51.7765678%" id="linearGradient-2">
            <stop stop-color="#7C39FF" offset="0%"></stop>
            <stop stop-color="#04B9FF" offset="49.7267007%"></stop>
            <stop stop-color="#00EBBF" offset="100%"></stop>
        </linearGradient>
    </defs>
    <g id="spring-type" stroke="none" stroke-width="1" fill="none" fill-rule="evenodd">
        <rect fill="#1D1D21" x="0" y="0" width="1080" height="1081"></rect>
        <g id="Group-2" transform="translate(183.000000, 774.000000)" fill-rule="nonzero">
            <path d="M8.30409357,0 C20.7798244,0 30.7598861,4.65282899 37.3467937,13.8655239 C38.6309484,15.6615906 39.7717408,17.6104697 40.7727518,19.7117186 L40.8968304,19.9749677 L40.9612384,19.8948674 C41.1990097,19.6020443 41.4403383,19.3139125 41.6852412,19.030478 L41.8695888,18.8187829 C48.4739379,11.2936348 57.3755728,7.4683585 67.9458773,7.4683585 C79.1495976,7.4683585 88.3992692,13.0263741 94.9922264,23.349931 C95.4641988,24.0889672 95.9234067,24.8530967 96.3699787,25.64237 L96.4141248,25.7207905 L96.4624044,25.6009377 C97.5630268,22.9081203 98.8179986,20.4165282 100.230652,18.1256233 L100.433533,17.7997164 C107.738471,6.17573795 119.00605,0.121734787 133.262965,0.00181712195 L133.695906,0 L142,0 L142,16.6136267 L133.695906,16.6136267 C124.840353,16.6136267 118.774143,19.8312443 114.494179,26.6417352 C109.682562,34.2982181 107.076359,46.5864504 107.024716,63.4500446 L107.023933,63.962463 L90.4807745,65 C88.5997975,50.0534049 85.3546002,39.1185357 80.9962683,32.2940583 C77.3312381,26.5551848 73.2153296,24.0819852 67.9458773,24.0819852 C62.043009,24.0819852 57.7207278,25.9393878 54.3504174,29.7795975 C51.6852488,32.8163522 49.5163138,37.1985931 47.9341875,42.9590614 L47.8000159,43.4561918 C47.3354597,45.2079671 46.9239493,47.083867 46.5679301,49.0847755 L46.4677224,49.6598661 C46.4019267,50.0455285 46.3381528,50.4357294 46.2764175,50.830475 L46.2304985,51.1273864 L29.7178051,49.8712452 C29.7178051,37.5968159 27.6290136,28.8324306 23.838101,23.5303188 C20.5522639,18.9346242 15.7376536,16.659355 8.52344145,16.6143092 L8.30409357,16.6136267 L0,16.6136267 L0,0 L8.30409357,0 Z M192.519225,0 C194.400203,14.9465951 197.6454,25.8814643 202.003732,32.7059417 C205.668762,38.4448152 209.78467,40.9180148 215.054123,40.9180148 C220.956991,40.9180148 225.279272,39.0606122 228.649583,35.2204025 C231.733563,31.7064435 234.153098,26.3909059 235.767849,19.2230609 L235.885986,18.6887208 C236.099864,17.7028835 236.298837,16.6828622 236.482552,15.6285299 L236.581245,15.050036 C236.629833,14.759087 236.677281,14.4655842 236.723583,14.169525 L236.769501,13.8726136 L253.282195,15.1287548 C253.282195,27.4031841 255.370986,36.1675694 259.161899,41.4696812 C262.447736,46.0653758 267.262346,48.340645 274.476559,48.3856908 L274.695906,48.3863733 L283,48.3863733 L283,65 L274.695906,65 C262.220176,65 252.240114,60.347171 245.653206,51.1344761 C244.369052,49.3384094 243.228259,47.3895303 242.227248,45.2882814 L242.102973,45.0251597 L242.038762,45.1051326 C241.80099,45.3979557 241.559662,45.6860875 241.314759,45.969522 L241.130411,46.1812171 C234.526062,53.7063652 225.624427,57.5316415 215.054123,57.5316415 C203.850402,57.5316415 194.600731,51.9736259 188.007774,41.650069 C187.535801,40.9110328 187.076593,40.1469033 186.630021,39.35763 L186.585955,39.27906 L186.537596,39.3990623 C185.436973,42.0918797 184.182001,44.5834718 182.769348,46.8743767 L182.566467,47.2002836 C175.261529,58.8242621 163.99395,64.8782652 149.737035,64.9981829 L149.304094,65 L141,65 L141,48.3863733 L149.304094,48.3863733 C158.159647,48.3863733 164.225857,45.1687557 168.505821,38.3582648 C173.317438,30.7017819 175.923641,18.4135496 175.975284,1.54995544 L175.976067,1.03753702 L192.519225,0 Z" id="Combined-Shape" fill="url(#linearGradient-1)" style="mix-blend-mode: normal;"></path>
            <g id="WebMob" transform="translate(311.853000, 3.240000)" fill="#FFFFFF">
                <polygon id="Path" points="74.222 2.812 60.68 54.76 45.362 54.76 37.074 20.572 28.49 54.76 13.172 54.76 0 2.812 13.542 2.812 21.016 40.626 30.266 2.812 44.178 2.812 53.058 40.626 60.606 2.812"></polygon>
                <path d="M119.51,33.448 C119.51,34.632 119.436,35.8653333 119.288,37.148 L90.65,37.148 C90.8473333,39.7133333 91.6736667,41.6743333 93.129,43.031 C94.5843333,44.3876667 96.3726667,45.066 98.494,45.066 C101.651333,45.066 103.846667,43.734 105.08,41.07 L118.548,41.07 C117.857333,43.7833333 116.611667,46.2253333 114.811,48.396 C113.010333,50.5666667 110.753333,52.2686667 108.04,53.502 C105.326667,54.7353333 102.292667,55.352 98.938,55.352 C94.8926667,55.352 91.2913333,54.4886667 88.134,52.762 C84.9766667,51.0353333 82.51,48.5686667 80.734,45.362 C78.958,42.1553333 78.07,38.406 78.07,34.114 C78.07,29.822 78.9456667,26.0726667 80.697,22.866 C82.4483333,19.6593333 84.9026667,17.1926667 88.06,15.466 C91.2173333,13.7393333 94.8433333,12.876 98.938,12.876 C102.934,12.876 106.486,13.7146667 109.594,15.392 C112.702,17.0693333 115.131667,19.462 116.883,22.57 C118.634333,25.678 119.51,29.304 119.51,33.448 Z M106.56,30.118 C106.56,27.9473333 105.82,26.2206667 104.34,24.938 C102.86,23.6553333 101.01,23.014 98.79,23.014 C96.6686667,23.014 94.8803333,23.6306667 93.425,24.864 C91.9696667,26.0973333 91.0693333,27.8486667 90.724,30.118 L106.56,30.118 Z" id="Shape"></path>
                <path d="M138.824,19.314 C140.008,17.39 141.71,15.836 143.93,14.652 C146.15,13.468 148.690667,12.876 151.552,12.876 C154.956,12.876 158.039333,13.7393333 160.802,15.466 C163.564667,17.1926667 165.747667,19.6593333 167.351,22.866 C168.954333,26.0726667 169.756,29.7973333 169.756,34.04 C169.756,38.2826667 168.954333,42.0196667 167.351,45.251 C165.747667,48.4823333 163.564667,50.9736667 160.802,52.725 C158.039333,54.4763333 154.956,55.352 151.552,55.352 C148.641333,55.352 146.100667,54.7723333 143.93,53.613 C141.759333,52.4536667 140.057333,50.912 138.824,48.988 L138.824,54.76 L126.17,54.76 L126.17,0 L138.824,0 L138.824,19.314 Z M156.88,34.04 C156.88,30.8826667 156.004333,28.4036667 154.253,26.603 C152.501667,24.8023333 150.343333,23.902 147.778,23.902 C145.262,23.902 143.128333,24.8146667 141.377,26.64 C139.625667,28.4653333 138.75,30.9566667 138.75,34.114 C138.75,37.2713333 139.625667,39.7626667 141.377,41.588 C143.128333,43.4133333 145.262,44.326 147.778,44.326 C150.294,44.326 152.44,43.401 154.216,41.551 C155.992,39.701 156.88,37.1973333 156.88,34.04 Z" id="Shape"></path>
                <polygon id="Path" points="235.246 2.812 235.246 54.76 222.592 54.76 222.592 23.606 210.974 54.76 200.762 54.76 189.07 23.532 189.07 54.76 176.416 54.76 176.416 2.812 191.364 2.812 205.942 38.776 220.372 2.812"></polygon>
                <path d="M263.144,55.352 C259.098667,55.352 255.460333,54.4886667 252.229,52.762 C248.997667,51.0353333 246.457,48.5686667 244.607,45.362 C242.757,42.1553333 241.832,38.406 241.832,34.114 C241.832,29.8713333 242.769333,26.1343333 244.644,22.903 C246.518667,19.6716667 249.084,17.1926667 252.34,15.466 C255.596,13.7393333 259.246667,12.876 263.292,12.876 C267.337333,12.876 270.988,13.7393333 274.244,15.466 C277.5,17.1926667 280.065333,19.6716667 281.94,22.903 C283.814667,26.1343333 284.752,29.8713333 284.752,34.114 C284.752,38.3566667 283.802333,42.0936667 281.903,45.325 C280.003667,48.5563333 277.413667,51.0353333 274.133,52.762 C270.852333,54.4886667 267.189333,55.352 263.144,55.352 Z M263.144,44.4 C265.561333,44.4 267.621,43.512 269.323,41.736 C271.025,39.96 271.876,37.4193333 271.876,34.114 C271.876,30.8086667 271.049667,28.268 269.397,26.492 C267.744333,24.716 265.709333,23.828 263.292,23.828 C260.825333,23.828 258.778,24.7036667 257.15,26.455 C255.522,28.2063333 254.708,30.7593333 254.708,34.114 C254.708,37.4193333 255.509667,39.96 257.113,41.736 C258.716333,43.512 260.726667,44.4 263.144,44.4 Z" id="Shape"></path>
                <path d="M304.14,19.314 C305.324,17.39 307.026,15.836 309.246,14.652 C311.466,13.468 314.006667,12.876 316.868,12.876 C320.272,12.876 323.355333,13.7393333 326.118,15.466 C328.880667,17.1926667 331.063667,19.6593333 332.667,22.866 C334.270333,26.0726667 335.072,29.7973333 335.072,34.04 C335.072,38.2826667 334.270333,42.0196667 332.667,45.251 C331.063667,48.4823333 328.880667,50.9736667 326.118,52.725 C323.355333,54.4763333 320.272,55.352 316.868,55.352 C313.957333,55.352 311.416667,54.7723333 309.246,53.613 C307.075333,52.4536667 305.373333,50.912 304.14,48.988 L304.14,54.76 L291.486,54.76 L291.486,0 L304.14,0 L304.14,19.314 Z M322.196,34.04 C322.196,30.8826667 321.320333,28.4036667 319.569,26.603 C317.817667,24.8023333 315.659333,23.902 313.094,23.902 C310.578,23.902 308.444333,24.8146667 306.693,26.64 C304.941667,28.4653333 304.066,30.9566667 304.066,34.114 C304.066,37.2713333 304.941667,39.7626667 306.693,41.588 C308.444333,43.4133333 310.578,44.326 313.094,44.326 C315.61,44.326 317.756,43.401 319.532,41.551 C321.308,39.701 322.196,37.1973333 322.196,34.04 Z" id="Shape"></path>
            </g>
        </g>
        <g id="Group" transform="translate(372.353000, 287.240000)" fill="#FFFFFF" fill-rule="nonzero">
            <g id="WebMob">
                <polygon id="Path" points="74.222 2.812 60.68 54.76 45.362 54.76 37.074 20.572 28.49 54.76 13.172 54.76 0 2.812 13.542 2.812 21.016 40.626 30.266 2.812 44.178 2.812 53.058 40.626 60.606 2.812"></polygon>
                <path d="M119.51,33.448 C119.51,34.632 119.436,35.8653333 119.288,37.148 L90.65,37.148 C90.8473333,39.7133333 91.6736667,41.6743333 93.129,43.031 C94.5843333,44.3876667 96.3726667,45.066 98.494,45.066 C101.651333,45.066 103.846667,43.734 105.08,41.07 L118.548,41.07 C117.857333,43.7833333 116.611667,46.2253333 114.811,48.396 C113.010333,50.5666667 110.753333,52.2686667 108.04,53.502 C105.326667,54.7353333 102.292667,55.352 98.938,55.352 C94.8926667,55.352 91.2913333,54.4886667 88.134,52.762 C84.9766667,51.0353333 82.51,48.5686667 80.734,45.362 C78.958,42.1553333 78.07,38.406 78.07,34.114 C78.07,29.822 78.9456667,26.0726667 80.697,22.866 C82.4483333,19.6593333 84.9026667,17.1926667 88.06,15.466 C91.2173333,13.7393333 94.8433333,12.876 98.938,12.876 C102.934,12.876 106.486,13.7146667 109.594,15.392 C112.702,17.0693333 115.131667,19.462 116.883,22.57 C118.634333,25.678 119.51,29.304 119.51,33.448 Z M106.56,30.118 C106.56,27.9473333 105.82,26.2206667 104.34,24.938 C102.86,23.6553333 101.01,23.014 98.79,23.014 C96.6686667,23.014 94.8803333,23.6306667 93.425,24.864 C91.9696667,26.0973333 91.0693333,27.8486667 90.724,30.118 L106.56,30.118 Z" id="Shape"></path>
                <path d="M138.824,19.314 C140.008,17.39 141.71,15.836 143.93,14.652 C146.15,13.468 148.690667,12.876 151.552,12.876 C154.956,12.876 158.039333,13.7393333 160.802,15.466 C163.564667,17.1926667 165.747667,19.6593333 167.351,22.866 C168.954333,26.0726667 169.756,29.7973333 169.756,34.04 C169.756,38.2826667 168.954333,42.0196667 167.351,45.251 C165.747667,48.4823333 163.564667,50.9736667 160.802,52.725 C158.039333,54.4763333 154.956,55.352 151.552,55.352 C148.641333,55.352 146.100667,54.7723333 143.93,53.613 C141.759333,52.4536667 140.057333,50.912 138.824,48.988 L138.824,54.76 L126.17,54.76 L126.17,0 L138.824,0 L138.824,19.314 Z M156.88,34.04 C156.88,30.8826667 156.004333,28.4036667 154.253,26.603 C152.501667,24.8023333 150.343333,23.902 147.778,23.902 C145.262,23.902 143.128333,24.8146667 141.377,26.64 C139.625667,28.4653333 138.75,30.9566667 138.75,34.114 C138.75,37.2713333 139.625667,39.7626667 141.377,41.588 C143.128333,43.4133333 145.262,44.326 147.778,44.326 C150.294,44.326 152.44,43.401 154.216,41.551 C155.992,39.701 156.88,37.1973333 156.88,34.04 Z" id="Shape"></path>
                <polygon id="Path" points="235.246 2.812 235.246 54.76 222.592 54.76 222.592 23.606 210.974 54.76 200.762 54.76 189.07 23.532 189.07 54.76 176.416 54.76 176.416 2.812 191.364 2.812 205.942 38.776 220.372 2.812"></polygon>
                <path d="M263.144,55.352 C259.098667,55.352 255.460333,54.4886667 252.229,52.762 C248.997667,51.0353333 246.457,48.5686667 244.607,45.362 C242.757,42.1553333 241.832,38.406 241.832,34.114 C241.832,29.8713333 242.769333,26.1343333 244.644,22.903 C246.518667,19.6716667 249.084,17.1926667 252.34,15.466 C255.596,13.7393333 259.246667,12.876 263.292,12.876 C267.337333,12.876 270.988,13.7393333 274.244,15.466 C277.5,17.1926667 280.065333,19.6716667 281.94,22.903 C283.814667,26.1343333 284.752,29.8713333 284.752,34.114 C284.752,38.3566667 283.802333,42.0936667 281.903,45.325 C280.003667,48.5563333 277.413667,51.0353333 274.133,52.762 C270.852333,54.4886667 267.189333,55.352 263.144,55.352 Z M263.144,44.4 C265.561333,44.4 267.621,43.512 269.323,41.736 C271.025,39.96 271.876,37.4193333 271.876,34.114 C271.876,30.8086667 271.049667,28.268 269.397,26.492 C267.744333,24.716 265.709333,23.828 263.292,23.828 C260.825333,23.828 258.778,24.7036667 257.15,26.455 C255.522,28.2063333 254.708,30.7593333 254.708,34.114 C254.708,37.4193333 255.509667,39.96 257.113,41.736 C258.716333,43.512 260.726667,44.4 263.144,44.4 Z" id="Shape"></path>
                <path d="M304.14,19.314 C305.324,17.39 307.026,15.836 309.246,14.652 C311.466,13.468 314.006667,12.876 316.868,12.876 C320.272,12.876 323.355333,13.7393333 326.118,15.466 C328.880667,17.1926667 331.063667,19.6593333 332.667,22.866 C334.270333,26.0726667 335.072,29.7973333 335.072,34.04 C335.072,38.2826667 334.270333,42.0196667 332.667,45.251 C331.063667,48.4823333 328.880667,50.9736667 326.118,52.725 C323.355333,54.4763333 320.272,55.352 316.868,55.352 C313.957333,55.352 311.416667,54.7723333 309.246,53.613 C307.075333,52.4536667 305.373333,50.912 304.14,48.988 L304.14,54.76 L291.486,54.76 L291.486,0 L304.14,0 L304.14,19.314 Z M322.196,34.04 C322.196,30.8826667 321.320333,28.4036667 319.569,26.603 C317.817667,24.8023333 315.659333,23.902 313.094,23.902 C310.578,23.902 308.444333,24.8146667 306.693,26.64 C304.941667,28.4653333 304.066,30.9566667 304.066,34.114 C304.066,37.2713333 304.941667,39.7626667 306.693,41.588 C308.444333,43.4133333 310.578,44.326 313.094,44.326 C315.61,44.326 317.756,43.401 319.532,41.551 C321.308,39.701 322.196,37.1973333 322.196,34.04 Z" id="Shape"></path>
            </g>
        </g>
        <path d="M379.94152,176 C394.877255,176 406.825216,181.583395 414.71095,192.638629 C416.248319,194.793909 417.614056,197.132564 418.812449,199.654062 L418.960994,199.969961 L419.038102,199.873841 C419.322758,199.522453 419.611673,199.176695 419.904866,198.836574 L420.125564,198.58254 C428.032179,189.552362 438.689066,184.96203 451.343656,184.96203 C464.756561,184.96203 475.830111,191.631649 483.723088,204.019917 C484.288125,204.906761 484.837881,205.823716 485.37251,206.770844 L485.425361,206.864949 L485.48316,206.721125 C486.800807,203.489744 488.303238,200.499834 489.994443,197.750748 L490.237328,197.35966 C498.982676,183.410886 512.472032,176.146082 529.540169,176.002181 L530.05848,176 L540,176 L540,195.936352 L530.05848,195.936352 C519.45676,195.936352 512.194397,199.797493 507.070496,207.970082 C501.31011,217.157862 498.190007,231.90374 498.128181,252.140053 L498.127244,252.754956 L478.322054,254 C476.07018,236.064086 472.185085,222.942243 466.967363,214.75287 C462.579651,207.866222 457.652155,204.898382 451.343656,204.898382 C444.276842,204.898382 439.10228,207.127265 435.067401,211.735517 C431.876706,215.379623 429.280094,220.638312 427.385999,227.550874 L427.225371,228.14743 C426.669212,230.24956 426.176559,232.50064 425.750339,234.901731 L425.630372,235.591839 C425.551602,236.054634 425.475253,236.522875 425.401345,236.99657 L425.346371,237.352864 L405.577654,235.845494 C405.577654,221.116179 403.076988,210.598917 398.538572,204.236383 C394.604823,198.721549 388.840853,195.991226 380.20412,195.937171 L379.94152,195.936352 L370,195.936352 L370,176 L379.94152,176 Z M601.677946,176 C603.92982,193.935914 607.814915,207.057757 613.032637,215.24713 C617.420349,222.133778 622.347845,225.101618 628.656344,225.101618 C635.723158,225.101618 640.89772,222.872735 644.932599,218.264483 C648.624689,214.047732 651.521314,207.669087 653.454467,199.067673 L653.595899,198.426465 C653.85195,197.24346 654.090157,196.019435 654.310098,194.754236 L654.428251,194.060043 C654.48642,193.710904 654.543224,193.358701 654.598655,193.00343 L654.653629,192.647136 L674.422346,194.154506 C674.422346,208.883821 676.923012,219.401083 681.461428,225.763617 C685.395177,231.278451 691.159147,234.008774 699.79588,234.062829 L700.05848,234.063648 L710,234.063648 L710,254 L700.05848,254 C685.122745,254 673.174784,248.416605 665.28905,237.361371 C663.751681,235.206091 662.385944,232.867436 661.187551,230.345938 L661.03877,230.030192 L660.961898,230.126159 C660.677242,230.477547 660.388327,230.823305 660.095134,231.163426 L659.874436,231.41746 C651.967821,240.447638 641.310934,245.03797 628.656344,245.03797 C615.243439,245.03797 604.169889,238.368351 596.276912,225.980083 C595.711875,225.093239 595.162119,224.176284 594.62749,223.229156 L594.574735,223.134872 L594.51684,223.278875 C593.199193,226.510256 591.696762,229.500166 590.005557,232.249252 L589.762672,232.64034 C581.017324,246.589114 567.527968,253.853918 550.459831,253.997819 L549.94152,254 L540,254 L540,234.063648 L549.94152,234.063648 C560.54324,234.063648 567.805603,230.202507 572.929504,222.029918 C578.68989,212.842138 581.809993,198.09626 581.871819,177.859947 L581.872756,177.245044 L601.677946,176 Z" id="Combined-Shape" fill="url(#linearGradient-2)" fill-rule="nonzero" style="mix-blend-mode: normal;"></path>
        <rect id="Rectangle" fill="#CFCED7" opacity="0.243344262" x="0" y="540" width="1080" height="1"></rect>
    </g>
</svg>