<?xml version="1.0" encoding="UTF-8"?>
<svg width="274px" height="274px" viewBox="0 0 274 274" version="1.1" xmlns="http://www.w3.org/2000/svg" xmlns:xlink="http://www.w3.org/1999/xlink">
    <title>Path</title>
    <g id="Shapes" stroke="none" stroke-width="1" fill="none" fill-rule="evenodd">
        <path d="M137.000637,0 C149.511878,0.314986447 148.101236,32.4107962 148.101236,32.4107962 C148.101236,32.4107962 195.177908,12.6256942 205.499682,18.3551795 C215.821456,24.0846023 191.705413,57.5839765 191.705413,57.5839765 C191.705413,57.5839765 249.175799,56.9242437 255.644111,68.4966206 C262.113048,80.0686847 216.880532,101.185512 216.880532,101.185512 C216.880532,101.185512 274.311508,126.356941 274,136.99073 C273.685946,147.624519 216.880532,151.531498 216.880532,151.531498 C216.880532,151.531498 262.312602,195.163809 255.644111,205.484839 C248.976245,215.805869 191.705413,195.132533 191.705413,195.132533 C191.705413,195.132533 215.821456,250.096085 205.499682,255.625655 C195.177908,261.15585 148.101236,220.305838 148.101236,220.305838 C148.101236,220.305838 150.450221,275.229982 137.000637,273.978948 C123.551053,272.727914 97.7516223,220.305838 97.7516223,220.305838 C97.7516223,220.305838 79.1361467,261.980907 68.5015918,255.625655 C57.8669743,249.271028 54.1470069,195.132533 54.1470069,195.132533 C54.1470069,195.132533 23.8870064,215.493111 18.356725,205.484839 C12.8265062,195.476567 28.9720752,151.531498 28.9720752,151.531498 C28.9720752,151.531498 0.315268888,150.439345 0,136.99073 C-0.310293168,123.542115 28.9720752,101.185512 28.9720752,101.185512 C28.9720752,101.185512 12.9395453,79.4431677 18.356725,68.4966206 C23.7739673,57.5497607 54.1470069,57.5839765 54.1470069,57.5839765 C54.1470069,57.5839765 58.8051922,25.7615507 68.5015918,18.3551795 C78.1978036,10.9487457 97.7516223,32.4107962 97.7516223,32.4107962 C97.7516223,32.4107962 124.489396,-0.310530532 137.000637,0 Z" id="Path" fill="#FFE350" fill-rule="nonzero"></path>
    </g>
</svg>