<?xml version="1.0" encoding="UTF-8"?>
<svg width="292px" height="1049px" viewBox="0 0 292 1049" version="1.1" xmlns="http://www.w3.org/2000/svg" xmlns:xlink="http://www.w3.org/1999/xlink">
    <title>Group</title>
    <g id="Images" stroke="none" stroke-width="1" fill="none" fill-rule="evenodd" stroke-linecap="square">
        <g id="Group" transform="translate(146.000000, 524.750000) rotate(-270.000000) translate(-146.000000, -524.750000) translate(-374.250000, 382.750000)" stroke-width="7">
            <path d="M0.5,5.1119272 L0.5,5.1119272 C23.639,5.80338962 46.778,6.49485204 69.5,6.79842091 C92.222,7.10198978 114.528,7.01935159 137.5,5.67409177 C160.472,4.32883195 184.109,1.7209505 209.5,0.614610624 C234.891,-0.491729253 262.037,-0.0970897233 286.5,1.73893977 C310.963,3.57496926 332.745,6.85238871 357.5,8.48491463 C382.255,10.1174405 409.983,10.1050729 432.5,9.0470792 C455.017,7.98908547 472.322,5.88434132 495.5,3.98759805 C518.678,2.09085479 547.728,0.400988087 574.5,0.614610624 C601.272,0.828233161 625.765,2.94534494 648.5,3.42543348 C671.235,3.90552203 692.21,2.74802517 713.5,3.42543348 C734.79,4.10284179 756.392,6.6145931 779.5,7.92275005 C802.608,9.23090701 827.221,9.33434529 853.5,9.60924377 C879.779,9.88414224 907.722,10.3305009 932.5,9.60924377 C957.278,8.88798662 978.889,7.00023799 1040.5,5.1119272" id="Path" stroke="#E5D9FF"></path>
            <path d="M0.5,32.477958 L0.5,32.477958 C24.236,32.6627873 47.972,32.8481818 70.5,31.9127309 C93.028,30.97728 114.347,28.9221141 138.5,29.6518224 C162.653,30.3815306 189.641,33.8966781 214.5,35.3040936 C239.359,36.7115092 262.088,36.0106275 285.5,35.8693207 C308.912,35.728014 333.008,36.1468473 357.5,34.7388665 C381.992,33.3308857 406.882,30.0960909 429.5,30.2170495 C452.118,30.3380081 472.464,33.8135897 494.5,33.6084122 C516.536,33.4032348 540.26,29.5167331 566.5,27.956141 C592.74,26.3955489 621.494,27.1608664 645.5,27.3909138 C669.506,27.6209613 688.764,27.3168691 711.5,29.6518224 C734.236,31.9867756 760.45,36.9613396 785.5,36.999775 C810.55,37.0382104 834.437,32.1405174 857.5,31.3475037 C880.563,30.5544901 902.804,33.8661558 926.5,34.7388665 C950.196,35.6115772 975.348,34.0447676 1040.5,32.477958" id="Path" stroke="#A57AFF"></path>
            <path d="M0,59.7819046 L0,59.7819046 C24.777,60.3508264 49.554,60.9197482 74,60.3594902 C98.446,59.7992322 122.56,58.1080615 145,59.204319 C167.44,60.3005765 188.205,64.1836844 212,64.4025893 C235.795,64.6214943 262.621,61.1756186 288,58.6267334 C313.379,56.0778482 337.31,54.4259534 361,56.316391 C384.69,58.2068287 408.14,63.6395988 431,64.4025893 C453.86,65.1655799 476.13,61.2593685 500,59.204319 C523.87,57.1492694 549.343,56.9465369 572,58.6267334 C594.657,60.3069299 614.5,63.870633 640,64.4025893 C665.5,64.9345457 696.656,62.4359104 720,60.9370758 C743.344,59.4382412 758.876,58.9397848 782,59.204319 C805.124,59.4688532 835.841,60.4975331 861,59.7819046 C886.159,59.066276 905.76,56.6069166 928,56.316391 C950.24,56.0258655 975.12,57.9035962 1040,59.7819046" id="Path" stroke="#9766FF"></path>
            <path d="M1.13686838e-13,86.9611923 L1.13686838e-13,86.9611923 C23.87,88.7473665 47.739,90.5341205 70,90.4407523 C92.261,90.3473841 112.914,88.3733138 138,86.3812657 C163.086,84.3892176 192.606,82.3786118 218,84.061559 C243.394,85.7445062 264.661,91.1215862 286,90.4407523 C307.339,89.7599184 328.75,83.0205906 353,81.7418523 C377.25,80.4631141 404.343,84.6438054 431,85.2214123 C457.657,85.7990193 483.88,82.772382 506,83.4816323 C528.12,84.1908827 546.134,88.6354406 567,89.8608257 C587.866,91.0862107 611.584,89.091263 638,87.541119 C664.416,85.990975 693.531,84.8844749 717,85.2214123 C740.469,85.5583497 758.29,87.3381447 780,87.541119 C801.71,87.7440933 827.306,86.3690872 852,86.9611923 C876.694,87.5532975 900.484,90.1130938 925,90.4407523 C949.516,90.7684109 974.758,88.8650916 1040,86.9611923" id="Path" stroke="#BC9CFF"></path>
            <path d="M1.13686838e-13,114.485833 L1.13686838e-13,114.485833 C24.075,114.0318 48.15,113.577768 71,114.485833 C93.85,115.393898 115.475,117.663508 139,116.689873 C162.525,115.716238 187.95,111.498256 213,110.077752 C238.05,108.657247 262.725,110.03312 287,112.281792 C311.275,114.530465 335.15,117.652488 358,118.342904 C380.85,119.03332 402.672,117.292679 428,116.138863 C453.328,114.985048 482.162,114.416957 505,113.383812 C527.838,112.350668 544.68,110.85137 568,110.628762 C591.32,110.406154 621.12,111.459685 646,113.383812 C670.88,115.30794 690.838,118.103765 715,117.791894 C739.162,117.480022 767.528,114.061555 791,113.383812 C814.472,112.70607 833.05,114.769603 856,116.138863 C878.95,117.508123 906.271,118.183111 931,117.791894 C955.729,117.400677 977.864,115.943255 1040,114.485833" id="Path" stroke="#E3D6FF"></path>
            <path d="M1.13686838e-13,142.361948 L1.13686838e-13,142.361948 C21.456,144.846743 42.913,147.330457 66,146.143157 C89.087,144.955858 113.805,140.096463 138,139.661083 C162.195,139.225704 185.867,143.215421 211,145.062812 C236.133,146.910203 262.726,146.617429 287,146.143157 C311.274,145.668886 333.23,145.014196 356,143.982466 C378.77,142.950736 402.353,141.543586 427,141.821775 C451.647,142.099964 477.358,144.063492 501,142.90212 C524.642,141.740749 546.214,137.452857 569,137.500392 C591.786,137.547927 615.787,141.93089 641,143.442293 C666.213,144.953697 692.637,143.593542 716,141.821775 C739.363,140.050008 759.664,137.866089 783,138.580738 C806.336,139.295386 832.706,142.907522 857,142.90212 C881.294,142.896719 903.513,139.27378 927,138.580738 C950.487,137.887696 975.244,140.125092 1040,142.361948" id="Path" stroke="#A67DFF"></path>
            <path d="M0.5,170.034416 L0.5,170.034416 C21.66,169.19022 42.82,168.346024 66.5,168.962421 C90.18,169.578818 116.38,171.655274 140.5,172.714405 C164.62,173.773537 186.66,173.814808 210.5,173.786401 C234.34,173.757993 259.98,173.660441 284.5,172.178407 C309.02,170.696374 332.417,167.830394 357.5,166.81843 C382.583,165.806466 409.351,166.649591 434.5,168.426423 C459.649,170.203256 483.178,172.914332 504.5,172.714405 C525.822,172.514478 544.937,169.404083 569.5,169.498419 C594.063,169.592754 624.073,172.891284 648.5,172.714405 C672.927,172.537526 691.769,168.883629 714.5,166.81843 C737.231,164.753231 763.85,164.275657 787.5,166.282432 C811.15,168.289208 831.829,172.780333 855.5,174.322398 C879.171,175.864464 905.835,174.456398 930.5,173.250403 C955.165,172.044408 977.833,171.039412 1040.5,170.034416" id="Path" stroke="#844AFE"></path>
            <path d="M1.13686838e-13,197.987723 L1.13686838e-13,197.987723 C20.583,196.054199 41.166,194.120122 65,194.667418 C88.834,195.214715 115.92,198.242833 141,200.201259 C166.08,202.159685 189.154,203.047866 214,200.754643 C238.846,198.461419 265.463,192.986238 288,193.56065 C310.537,194.135063 328.995,200.758516 354,201.308027 C379.005,201.857537 410.557,196.334211 434,194.667418 C457.443,193.000626 472.775,195.191473 494,195.220802 C515.225,195.250132 542.34,193.11739 568,193.56065 C593.66,194.003911 617.861,197.023728 642,196.880954 C666.139,196.738181 690.214,193.433372 715,194.667418 C739.786,195.901465 765.283,201.67326 788,202.414795 C810.717,203.156329 830.655,198.86871 853,196.880954 C875.345,194.893199 900.099,195.206414 925,195.774186 C949.901,196.341958 974.95,197.16484 1040,197.987723" id="Path" stroke="#8C55FF"></path>
            <path d="M1.13686838e-13,225.262588 L1.13686838e-13,225.262588 C22.9,224.242316 45.8,223.223102 68,222.619398 C90.2,222.015693 111.699,221.828555 137,223.148036 C162.301,224.467516 191.404,227.293086 217,227.37714 C242.596,227.461193 264.687,224.802673 289,225.262588 C313.313,225.722503 339.85,229.299268 362,229.491692 C384.15,229.684116 401.915,226.492728 424,224.205312 C446.085,221.917895 472.489,220.535507 498,221.033484 C523.511,221.531461 548.13,223.910332 572,224.73395 C595.87,225.557568 618.991,224.824875 641,225.791226 C663.009,226.757576 683.906,229.421912 709,227.905778 C734.094,226.389644 763.386,220.692512 790,220.504846 C816.614,220.317179 840.55,225.638978 863,226.319864 C885.45,227.00075 906.414,223.040722 929,222.09076 C951.586,221.140797 975.793,223.201957 1040,225.262588" id="Path" stroke="#AD86FF"></path>
            <path d="M0.5,252.781812 L0.5,252.781812 C20.874,250.596753 41.247,248.410579 65.5,249.437333 C89.753,250.464088 117.885,254.702657 144.5,255.568877 C171.115,256.435097 196.212,253.928411 220.5,252.781812 C244.788,251.635213 268.265,251.848145 291.5,251.666986 C314.735,251.485827 337.727,250.911691 362.5,251.666986 C387.273,252.42228 413.828,254.50812 434.5,255.011464 C455.172,255.514808 469.96,254.436214 494.5,255.011464 C519.04,255.586715 553.333,257.816367 577.5,256.683703 C601.667,255.55104 615.71,251.055504 638.5,249.994747 C661.29,248.933989 692.828,251.307454 718.5,251.109573 C744.172,250.911691 763.98,248.14302 786.5,249.437333 C809.02,250.731647 834.256,256.088944 859.5,256.12629 C884.744,256.163637 909.998,250.881033 933.5,249.437333 C957.002,247.993634 978.75,250.387723 1040.5,252.781812" id="Path" stroke="#8F5AFF"></path>
            <path d="M0.5,280.478555 L0.5,280.478555 C25.276,279.349884 50.052,278.221213 73.5,277.729722 C96.948,277.23823 119.07,277.383369 142.5,278.829255 C165.93,280.275141 190.67,283.020676 214.5,283.777155 C238.33,284.533634 261.252,283.301607 283.5,281.028322 C305.748,278.755036 327.323,275.441043 351.5,276.080422 C375.677,276.7198 402.455,281.311451 427.5,282.127855 C452.545,282.944258 475.855,279.984315 499.5,279.928788 C523.145,279.873262 547.125,282.721603 571.5,283.227388 C595.875,283.733174 620.646,281.894754 644.5,281.578088 C668.354,281.261423 691.29,282.464862 714.5,283.227388 C737.71,283.989915 761.196,284.310429 783.5,282.677622 C805.804,281.044815 826.928,277.459236 852.5,276.630188 C878.072,275.80114 908.092,277.728622 933.5,278.829255 C958.908,279.929888 979.704,280.204221 1040.5,280.478555" id="Path" stroke="#8B54FF"></path>
        </g>
    </g>
</svg>