<?xml version="1.0" encoding="UTF-8"?>
<svg width="402px" height="398px" viewBox="0 0 402 398" version="1.1" xmlns="http://www.w3.org/2000/svg" xmlns:xlink="http://www.w3.org/1999/xlink">
    <title>Group 6</title>
    <g id="Shapes" stroke="none" stroke-width="1" fill="none" fill-rule="evenodd">
        <g id="Group-6">
            <path d="M368.73507,144.065816 C390.751565,208.087464 362.941256,292.966844 305.872185,333.523545 C248.513423,374.080245 162.185589,370.603957 102.219611,327.729731 C42.5433228,284.855504 9.22889037,202.873032 30.086622,140.299837 C51.2340443,78.0163325 126.26394,35.7214878 200.135073,36.0096996 C274.006206,36.5905599 346.428885,80.0441675 368.73507,144.065816 Z" id="Path" fill="#3EEE91"></path>
            <path d="M183.490105,0.163557509 C176.281498,0.58777485 164.147261,2.34993251 156.710229,4.04679514 C121.417247,12.0091184 97.3119939,25.9758149 68.1839362,55.2472192 C43.6222553,79.9499077 28.4218784,102.629566 18.3427846,129.649039 C17.5273151,131.802954 16.1899619,135.098638 15.3418904,136.991625 C10.1555716,148.6412 6.46965786,159.638457 3.63185761,172.071236 C2.22926267,178.173575 -0.184503109,191.879428 0.0112075124,192.499341 C0.23953683,193.152081 0.98976163,193.31495 1.31594523,192.825501 C1.41380157,192.629805 2.06617297,190.410658 2.81639651,187.832946 C4.675667,181.143099 8.39414066,168.938842 8.52463261,169.069306 C8.58987859,169.134538 8.42678468,171.2228 8.16584285,173.735701 C7.31772932,181.795839 6.95893956,193.608704 7.35037334,202.093059 C8.72032847,233.746522 15.5702303,257.372674 31.7816043,286.382772 C43.1002034,306.680413 58.0722825,326.84717 73.7287923,342.869808 C98.4865056,368.225236 124.809533,383.595134 159.026441,392.601765 C178.662492,397.790016 199.37546,399.291191 218.065844,396.876348 C229.938845,395.342767 246.345831,390.9373 259.001699,385.911918 C289.82632,373.642009 321.368184,350.407669 349.518183,319.243656 C360.803928,306.745645 372.155297,290.168326 380.375196,274.210921 C398.152306,239.653165 404.871673,205.943846 400.892132,171.092336 C398.152306,147.303315 389.769186,124.427962 376.493671,104.522132 C365.631541,88.2713936 350.920698,72.2159297 333.013181,57.1726124 C318.856782,45.2288623 311.941803,39.8446214 304.178331,34.6886922 C288.390993,24.2136699 269.146165,15.0439588 251.629871,9.59431775 C234.30961,4.24260867 219.729175,1.37093639 204.039853,0.261449545 C199.701479,-0.0322523197 187.763275,-0.0975220101 183.490105,0.163557509 Z M217.896603,24.2661577 C245.251012,25.4738239 268.455054,32.5894107 292.900792,47.2122371 C305.450522,54.7194767 314.078752,61.5085739 325.092168,72.540857 C338.197839,85.6623196 347.969559,99.2081009 354.015768,112.623387 C361.074807,128.257927 365.715784,144.153457 368.199598,161.191868 C369.833698,172.419894 370.029688,175.227216 370,189.425471 C370,201.46972 369.931482,203.656981 369.277758,208.97696 C367.807195,220.760219 365.650454,230.454299 362.022728,241.356087 C357.545288,254.804208 352.446999,265.150762 344.63603,276.640198 C338.295623,285.975627 331.105924,294.363917 320.12454,305.168045 C295.123285,329.811356 270.971322,345.935462 244.04177,355.988613 C221.752774,364.312077 201.392074,366.009351 175.410443,361.733331 C155.245733,358.436864 133.120273,351.810675 117.956068,344.597259 C98.9023941,335.52324 83.770643,323.022259 72.2341633,306.734403 C58.0178787,286.693349 48.8341311,260.058939 45.3699417,228.757025 C43.6051819,212.796248 43.5398517,193.995315 45.2064053,179.63373 C48.9647916,147.026026 61.645183,115.00597 81.2214987,88.5673023 C92.3335425,73.5856573 106.648033,59.0279099 120.341676,48.7461824 C130.636459,41.010577 135.832954,38.2035075 145.342931,35.1026985 C165.605847,28.5093434 186.260744,24.7883894 206.130835,24.1682024 C207.66715,24.102955 209.43191,24.0376655 210.052758,24.0050418 C210.673606,23.972376 214.203547,24.102955 217.896603,24.2661577 Z M112.812274,49.2297179 C112.617246,49.3927529 111.023885,50.6957726 109.202362,52.1294724 C94.6654081,63.7612655 79.9011312,79.9214827 69.4941657,95.5606602 C52.2905662,121.430286 40.6803804,152.578381 37.3957251,181.868801 C35.5745376,198.029438 35.5745376,218.26259 37.3957251,234.650972 C39.7047352,255.600973 44.4202277,274.074355 51.5423283,290.202218 C53.3638513,294.340282 53.201118,294.177247 49.1034251,287.758793 C40.1275064,273.748705 32.4199851,257.718748 28.3223342,244.42551 C22.8587716,226.798818 20.6798224,210.442791 21.0375841,190.014249 C21.3627991,170.530723 23.8994262,155.673525 29.78576,138.535518 C33.4931864,127.78361 39.5421277,115.500517 45.4285034,106.768478 C48.8433873,101.718594 63.4776452,86.8613966 75.0879149,76.6633033 C87.8687742,65.4227101 98.5030632,57.4730716 109.235076,51.1193275 C112.844988,48.969198 113.365064,48.7082579 112.812274,49.2297179 Z M381.016986,153.817467 C380.993686,154.140421 380.970486,154.019574 380.970486,153.575251 C380.962686,153.130929 380.985986,152.888713 381.009286,153.05019 C381.032486,153.171038 381.040286,153.534622 381.016986,153.817467 Z M383.833533,164.697881 C385.320699,172.783929 385.794185,177.805276 385.96335,187.620053 C386.334814,206.205472 383.901112,221.399874 377.815985,238.87682 C375.787318,244.615563 372.271486,253.223888 372.001172,252.995549 C371.967165,252.93037 372.677394,250.843363 373.589923,248.332899 C377.342498,238.257405 380.588016,225.671446 382.143196,215.237254 C383.59679,205.390518 383.867105,201.118945 383.867105,187.847971 C383.867105,174.707776 383.630361,170.827701 382.143196,160.23077 C381.703717,156.970111 381.331817,154.198509 381.365388,154.03535 C381.466974,153.448734 383.055725,160.29595 383.833533,164.697881 Z M372.596273,254.667245 C371.920767,255.22641 371.808304,255.058408 372.314752,254.331601 C372.539679,254.080319 372.8212,253.940438 372.933664,254.024439 C373.102722,254.080319 372.933664,254.387842 372.596273,254.667245 Z M129.061528,363.459555 C144.918947,369.471465 166.747515,374.84711 183.388043,376.882668 C204.498727,379.42773 224.30409,377.487346 245.512399,370.83917 C250.37432,369.312296 260.521486,365.463525 263.262576,364.09582 C264.14331,363.682309 264.926418,363.363971 264.991642,363.459555 C265.383407,363.80948 251.907714,369.598636 244.566441,372.206874 C228.709022,377.837271 216.473426,380 200.35469,380 C185.998264,380 172.65302,378.187197 157.676755,374.179257 C147.561991,371.475435 135.065078,366.990398 127.919477,363.52314 C123.808263,361.51917 123.90631,361.487172 129.061528,363.459555 Z" id="Shape" fill="#FFFFFF" fill-rule="nonzero"></path>
            <g id="Group" transform="translate(126.000000, 120.000000)" stroke="#000000" stroke-linecap="round" stroke-linejoin="round" stroke-width="16">
                <polyline id="Path" points="106 71 159 71 159 18"></polyline>
                <path d="M159,70 C159,70 158.471125,68.8451777 157.413374,66.9796954 C156.355623,65.1142132 154.768997,62.2715736 152.653495,58.9847716 C150.537994,55.6979695 148.069909,51.8781726 145.072948,47.7918782 C142.075988,43.7055838 138.638298,38.9086294 134.759878,35 C130.768112,30.4439939 126.499516,26.1421484 121.978723,22.1192893 C117.277023,17.9660986 112.234681,14.2217482 106.905775,10.9263959 C101.556613,7.57988652 95.8115476,4.92373405 89.8054711,3.02030457 C83.6832671,1.02380429 77.2888524,0.00471795821 70.8541033,0 C66.6723965,0.018772724 62.5050892,0.495342085 58.4255319,1.4213198 C54.4282582,2.31337043 50.5515471,3.68526172 46.8784195,5.50761421 C43.1756937,7.27541042 39.6611275,9.41843414 36.3890578,11.9035533 C33.173996,14.5718099 30.2221016,17.5466973 27.5744681,20.786802 C24.6271865,23.8549354 21.9985521,27.2184114 19.7294833,30.8248731 C17.4519646,34.6020411 15.5336144,38.5875985 14,42.7284264" id="Path"></path>
                <polyline id="Path" points="53 88 0 88 0 141"></polyline>
                <path d="M0,89 C0,89 0.530164534,90.1548223 1.5904936,92.0203046 C2.65082267,93.8857868 4.24131627,96.7284264 6.36197441,100.015228 C8.48263254,103.30203 10.9567337,107.121827 13.9609994,111.208122 C16.9652651,115.294416 20.4113346,120.091371 24.2992078,124 C28.300704,128.556006 32.5797053,132.857852 37.1115174,136.880711 C41.8246779,141.033901 46.8793111,144.778252 52.2212066,148.073604 C57.5834072,151.420113 63.3424767,154.076266 69.3631932,155.979695 C75.5003203,157.976196 81.9103216,158.995282 88.3607556,159 C92.5526556,158.981227 96.7301208,158.504658 100.819622,157.57868 C104.826639,156.68663 108.7128,155.314738 112.394881,153.492386 C116.106633,151.72459 119.629766,149.581566 122.909811,147.096447 C126.13271,144.42819 129.091799,141.453303 131.745887,138.213198 C134.591797,135.044306 137.108404,131.591542 139.256551,127.908629 C141.539621,124.131461 143.462647,120.145904 145,116.005076" id="Path"></path>
            </g>
        </g>
    </g>
</svg>