<?xml version="1.0" encoding="UTF-8"?>
<svg width="369px" height="124px" viewBox="0 0 369 124" version="1.1" xmlns="http://www.w3.org/2000/svg" xmlns:xlink="http://www.w3.org/1999/xlink">
    <title>Group</title>
    <g id="Shapes" stroke="none" stroke-width="1" fill="none" fill-rule="evenodd">
        <g id="Group" transform="translate(2.000000, 2.000000)">
            <path d="M0,120 C28.5680132,90.7762944 61.8905662,102.397426 92.6054866,113.607708 C112.513174,120.873584 135.903283,121.9797 156.121097,116.322904 C187.248014,107.613821 201.578807,101.330201 218.18269,54.6583639 C222.143518,43.5248747 226.74072,1.65333281 214.063617,0.0552629941 C204.28098,-1.1779317 200.961257,18.5107237 204.528336,30.823192 C209.957342,49.5624641 224.299823,59.0085705 235.766712,61.8163154 C260.572013,67.890058 281.835612,54.8884511 305.957401,46.34549 C323.725343,40.0528045 347.594482,45.1340199 365,53.9473946" id="liner" stroke="#F45D48" stroke-width="4" stroke-linecap="round" transform="translate(182.500000, 60.000000) scale(-1, 1) translate(-182.500000, -60.000000) "></path>
            <path d="M82.1080477,73.3669794 C83.0470481,74.052528 85.8640493,76.1091738 88.49403,72.1929143 C89.1876481,71.1600594 88.9483797,70.6492618 88.8700199,69.5492359 C88.7842873,68.3457092 87.9855919,66.6986264 86.7105139,66.5135252 C84.5055063,66.1934276 83.3735253,65.2311836 81.9210271,67.394074 C80.4685289,69.5569644 81.1690473,72.6814308 82.1080477,73.3669794 Z M127.809988,76.4559923 C128.048284,75.2868856 128.763276,71.7795881 124.278243,70.7855893 C123.095383,70.523437 122.737921,70.9526665 121.797396,71.4576891 C120.768377,72.0102289 119.626347,73.4203675 119.961145,74.7164869 C120.540116,76.9578815 120.132912,78.4203131 122.609928,78.9692834 C125.086943,79.5182538 127.571622,77.6250839 127.809988,76.4559923 Z M107.544676,81.0081823 C107.783006,79.8390831 107.830378,78.6276625 104.657562,77.9244849 C103.474702,77.6623326 103.117241,78.0915622 102.176715,78.5965846 C101.147696,79.1491244 99.6284843,80.7122508 100.340464,81.8553824 C101.223392,83.2729812 100.750562,84.3901094 103.227578,84.9390798 C105.704593,85.4880502 107.306345,82.1772814 107.544676,81.0081823 Z M112.560714,69.1191027 C113.071423,66.6138901 112.120401,65.5303196 109.979449,65.0558295 C109.181279,64.8789344 108.936153,65.1877884 108.296008,65.5555351 C107.595632,65.957883 106.513105,67.7787968 106.729605,68.6995783 C107.104001,70.2918967 108.160048,70.7622003 108.787795,70.9013253 C109.415542,71.0404502 112.050005,71.6243151 112.560714,69.1191027 Z M52.2452204,49.6212956 C53.3290496,49.2320948 56.5806157,48.0647205 55.0878104,43.544319 C54.6941053,42.3521307 54.1571334,42.2537227 53.2575523,41.673243 C52.2733303,41.0381463 50.525879,40.7437432 49.6327808,41.7105183 C48.0883466,43.3823702 46.6763692,43.7716435 47.5008228,46.2681924 C48.3252764,48.7647412 51.1613389,50.0103443 52.2452204,49.6212956 Z M81.5048935,12.8857137 C80.7378638,11.997494 78.4367749,9.33283479 75.0292839,12.5318613 C74.1306091,13.3755567 74.2535427,13.9293828 74.0925681,15.0195943 C73.9164475,16.2123832 74.3393213,18.0045847 75.5417843,18.4840101 C77.621218,19.3130861 78.5165862,20.5161729 80.3984915,18.7493994 C82.2803968,16.9826258 82.2719232,13.7739334 81.5048935,12.8857137 Z M73.1253637,32.6559077 C72.358334,31.767688 71.4462239,31.015673 69.0356861,33.2787382 C68.1370113,34.1224336 68.2599448,34.6762596 68.0989703,35.7664711 C67.9228498,36.95926 68.2427265,39.1595515 69.5481866,39.2308869 C71.167089,39.31935 71.7559588,40.3748301 73.6378641,38.6080565 C75.5197694,36.8412829 73.8923934,33.5441274 73.1253637,32.6559077 Z M66.8488472,21.4364763 C65.2052122,19.5331484 63.8054611,19.6984623 62.1788789,21.2255329 C61.5724713,21.7948415 61.6680335,22.1831535 61.5771043,22.9392949 C61.4776196,23.7665811 62.2541936,25.7500368 63.0958936,26.1086333 C64.5514555,26.7287585 65.5370981,26.114383 66.0140272,25.6666315 C66.4909563,25.2188801 68.4924821,23.3398042 66.8488472,21.4364763 Z M112.380197,29.3813944 C111.234064,29.3605587 107.795664,29.2979804 107.715638,34.0781223 C107.694536,35.3388132 108.166844,35.6227777 108.821762,36.4890528 C109.538301,37.4368351 111.083797,38.3366475 112.240156,37.7466665 C114.239862,36.7264053 115.694378,36.8641378 115.738575,34.2241384 C115.782769,31.5841388 113.52633,29.4022775 112.380197,29.3813944 Z M72.8349341,53.4671066 C73.2643485,54.575293 74.552592,57.8998522 78.8039445,56.1089067 C79.9251751,55.6365717 79.9913238,55.0723056 80.5002062,54.1052476 C81.0569691,53.0471996 81.2474834,51.2122787 80.2748009,50.3329521 C78.5927297,48.812322 78.1460003,47.3624901 75.7980431,48.351602 C73.450086,49.3407139 72.4055196,52.3589202 72.8349341,53.4671066 Z M87.1942217,37.8774517 C87.6236361,38.9856381 88.2340602,40.0175715 91.241565,38.7506154 C92.3627957,38.2782803 92.4289443,37.7140144 92.9378268,36.7469563 C93.4945897,35.6889083 93.9157529,33.5072383 92.7124215,32.9746608 C91.2201689,32.3142107 91.0130353,31.1123852 88.6650781,32.1014971 C86.317121,33.0906089 86.7648072,36.7692653 87.1942217,37.8774517 Z M89.7930125,50.5757574 C90.7131863,52.9504424 92.0827491,53.2942678 94.1121526,52.4393513 C94.8687365,52.1206291 94.9063133,51.7216566 95.2397915,51.0435427 C95.6046465,50.3016255 95.5255272,48.1608503 94.8522163,47.5237185 C93.6878517,46.4219189 92.5601204,46.6477499 91.9650802,46.8984194 C91.3700402,47.1490888 88.8728386,48.2010722 89.7930125,50.5757574 Z M39.8220425,26.1522914 C37.410799,25.6635952 36.3883253,26.6739544 35.970686,28.9141958 C35.8149855,29.7493822 36.1154337,29.9995374 36.4792502,30.6604762 C36.877298,31.3836023 38.6423246,32.4803658 39.5215137,32.238593 C41.0419059,31.8204927 41.4744649,30.7113468 41.5969207,30.0544871 C41.7193764,29.3976273 42.2332859,26.6409877 39.8220425,26.1522914 Z M19.8618229,20.6571693 C18.4180026,22.7292078 18.8641116,24.1224185 20.6348736,25.4638451 C21.295033,25.9639436 21.639448,25.7857469 22.3677051,25.7212734 C23.1644835,25.6507336 24.8637454,24.4463358 25.025153,23.5133444 C25.3042769,21.8999113 24.5229919,21.0224075 24.0037879,20.6290887 C23.4845838,20.2357698 21.3056433,18.5851308 19.8618229,20.6571693 Z" id="Combined-Shape" fill="#30A6CB" transform="translate(73.500001, 48.000000) rotate(-180.000000) translate(-73.500001, -48.000000) "></path>
        </g>
    </g>
</svg>