<?xml version="1.0" encoding="UTF-8"?>
<svg width="204px" height="135px" viewBox="0 0 204 135" version="1.1" xmlns="http://www.w3.org/2000/svg" xmlns:xlink="http://www.w3.org/1999/xlink">
    <title>Combined Shape</title>
    <g id="Shapes" stroke="none" stroke-width="1" fill="none" fill-rule="evenodd">
        <path d="M118.168448,113.78675 C119.912921,115.037412 125.14634,118.7894 130.032312,111.644875 C131.320914,109.760613 130.876402,108.828753 130.730825,106.82195 C130.571552,104.626328 129.087737,101.621515 126.7189,101.283831 C122.622442,100.699869 120.51945,98.9444247 117.821002,102.890237 C115.122554,106.836049 116.423975,112.536087 118.168448,113.78675 Z M203.073368,119.4221 C203.516118,117.28928 204.844429,110.890834 196.512165,109.077363 C194.314629,108.599208 193.650538,109.382262 191.903232,110.303586 C189.991522,111.311598 187.869861,113.884147 188.491849,116.248688 C189.567461,120.337718 188.810958,123.005666 193.412733,124.007254 C198.014545,125.008665 202.630577,121.554911 203.073368,119.4221 Z M165.424607,127.726787 C165.86733,125.593962 165.955337,123.383939 160.060907,122.101019 C157.863372,121.622864 157.199281,122.405918 155.451974,123.327243 C153.540265,124.335254 150.717877,127.186902 152.040592,129.272345 C153.680893,131.858504 152.802471,133.896507 157.404252,134.898065 C162.006058,135.899506 164.981789,129.859593 165.424607,127.726787 Z M174.743417,106.037263 C175.692139,101.466929 173.925333,99.4901456 169.947889,98.6244611 C168.465037,98.3018081 168.009644,98.8652578 166.820383,99.5361469 C165.519226,100.27016 163.50811,103.592096 163.910323,105.271899 C164.605875,108.176804 166.567797,109.03479 167.734024,109.288599 C168.900252,109.542407 173.794552,110.607566 174.743417,106.037263 Z M62.6893202,70.4668422 C64.7028889,69.7569078 70.7436412,67.6272392 67.9703108,59.3805637 C67.2388863,57.2056263 66.2413011,57.0260983 64.5700615,55.9671154 C62.7415759,54.8084933 59.4951648,54.2714068 57.8359766,56.0351151 C54.9667225,59.0851166 52.343554,59.7952772 53.8752221,64.3497904 C55.4068902,68.9043035 60.6757207,71.1766869 62.6893202,70.4668422 Z M117.04791,3.44934336 C115.622924,1.82894307 111.347966,-3.03225779 105.017536,2.8038021 C103.34798,4.34297559 103.576366,5.35333369 103.277308,7.34223233 C102.950111,9.51826537 103.735725,12.787821 105.969659,13.6624482 C109.832826,15.1749513 111.496239,17.369771 114.992439,14.1466041 C118.488638,10.9234372 118.472896,5.06974365 117.04791,3.44934336 Z M101.480438,39.5165769 C100.055452,37.8961766 98.3609354,36.5242578 93.8826437,40.6528212 C92.2130876,42.1919948 92.4414732,43.2023527 92.1424151,45.1912515 C91.8152188,47.3672845 92.409485,51.3813285 94.8347659,51.5114673 C97.8423592,51.6728526 98.9363603,53.5983898 102.43256,50.375223 C105.928759,47.1520561 102.905424,41.1369772 101.480438,39.5165769 Z M89.8199391,19.0487023 C86.7663977,15.576416 84.1659431,15.8780021 81.1440823,18.6638733 C80.0174997,19.7024764 80.1950348,20.4108832 80.0261067,21.7903299 C79.8412842,23.2995677 81.2840019,26.9180329 82.8477102,27.572229 C85.5518498,28.7035381 87.3829745,27.5827182 88.2690124,26.7658747 C89.1550503,25.9490312 92.8734805,22.5209885 89.8199391,19.0487023 Z M174.407981,33.5428294 C172.278696,33.5047936 165.890845,33.3906305 165.742176,42.1111568 C165.702969,44.411065 166.580423,44.9291081 167.797128,46.5094743 C169.128313,48.2385359 171.999531,49.8800851 174.147813,48.8037689 C177.862862,46.9424821 180.565058,47.1937508 180.647166,42.3775372 C180.729271,37.5613235 176.537264,33.5809022 174.407981,33.5428294 Z M100.940878,77.4829403 C101.738643,79.504631 104.131939,85.5697031 112.030093,82.3024388 C114.113112,81.4407467 114.236003,80.4113428 115.181404,78.647116 C116.215757,76.716894 116.569694,73.3694043 114.762646,71.7652279 C111.637698,68.9911063 110.807765,66.3461437 106.445736,68.1506039 C102.083706,69.9550642 100.143113,75.4612496 100.940878,77.4829403 Z M127.617531,49.0423634 C128.415296,51.0640541 129.549341,52.9466347 135.136677,50.6352966 C137.219696,49.7736045 137.342587,48.7442008 138.287988,46.9799738 C139.322341,45.0497517 140.104777,41.0696795 137.86923,40.0980856 C135.096927,38.893211 134.712115,36.7006922 130.350085,38.5051524 C125.988055,40.3096126 126.819766,47.0206727 127.617531,49.0423634 Z M132.445559,72.2081833 C134.155056,76.5403775 136.699427,77.1676262 140.469648,75.607982 C141.875228,75.0265295 141.945038,74.2986745 142.564573,73.0615752 C143.2424,71.708078 143.095412,67.8026111 141.844537,66.6402765 C139.681383,64.6302374 137.586286,65.0422261 136.480822,65.4995285 C135.375358,65.9568307 130.736062,67.8759888 132.445559,72.2081833 Z M39.6096008,27.6518756 C35.1299979,26.7603354 33.2304486,28.6035577 32.4545592,32.6904832 C32.1652991,34.2141335 32.7234712,34.6704975 33.3993687,35.8762638 C34.138861,37.1954799 37.4179236,39.1963315 39.0512791,38.7552598 C41.8758604,37.9925094 42.6794676,35.9690684 42.9070164,34.7707534 C43.1344637,33.5724187 44.0892035,28.5434157 39.6096008,27.6518756 Z M2.52754891,17.626994 C-0.154777424,21.4070629 0.674003022,23.9487303 3.96372077,26.3959267 C5.19016342,27.3082682 5.83001677,26.9831798 7.18297123,26.8655592 C8.66322444,26.7368718 11.8201095,24.5396602 12.1199721,22.837582 C12.638528,19.8941578 11.1870583,18.2933068 10.2224822,17.5757659 C9.25790614,16.858225 5.20987524,13.8469251 2.52754891,17.626994 Z" id="Combined-Shape" fill="#FE3AC6"></path>
    </g>
</svg>