<?xml version="1.0" encoding="UTF-8"?>
<svg width="1002px" height="600px" viewBox="0 0 1002 600" version="1.1" xmlns="http://www.w3.org/2000/svg" xmlns:xlink="http://www.w3.org/1999/xlink">
    <title>Group 4</title>
    <g id="Shapes" stroke="none" stroke-width="1" fill="none" fill-rule="evenodd">
        <g id="Group-4" transform="translate(3.000000, 2.000000)" stroke="#FFFFFF" stroke-width="4">
            <path d="M299.698779,62.8102101 C310.798779,97.8102101 294.298779,140.81021 261.998779,165.01021 C229.698779,189.11021 181.598779,194.51021 149.398779,172.41021 C117.198779,150.31021 100.798779,100.81021 113.798779,63.0102101 C126.798779,25.3102101 169.198779,-0.589789892 209.598779,0.010210108 C250.098779,0.610210108 288.698779,27.7102101 299.698779,62.8102101 Z" id="Path"></path>
            <path d="M168.198779,480.31021 C179.798779,514.01021 163.998779,558.71021 133.398779,580.21021 C102.798779,601.81021 57.4987786,600.21021 30.1987786,579.21021 C2.8987786,558.11021 -6.5012214,517.51021 4.4987786,484.51021 C15.5987786,451.51021 46.9987786,426.11021 82.2987786,424.91021 C117.598779,423.61021 156.598779,446.51021 168.198779,480.31021 Z" id="Path"></path>
            <path d="M994.198779,290.31021 C1001.79878,312.41021 992.198779,341.71021 972.498779,355.71021 C952.698779,369.71021 922.898779,368.51021 902.198779,353.71021 C881.598779,338.91021 870.098779,310.61021 877.298779,289.01021 C884.598779,267.51021 910.498779,252.91021 935.998779,253.0097 C961.498779,253.21021 986.498779,268.21021 994.198779,290.31021 Z" id="Path"></path>
        </g>
    </g>
</svg>