<?xml version="1.0" encoding="UTF-8"?>
<svg width="547px" height="541px" viewBox="0 0 547 541" version="1.1" xmlns="http://www.w3.org/2000/svg" xmlns:xlink="http://www.w3.org/1999/xlink">
    <title>Shape</title>
    <g id="Shapes" stroke="none" stroke-width="1" fill="none" fill-rule="evenodd">
        <path d="M249.674347,0.222323146 C239.86562,0.798960286 223.354606,3.19425499 213.235063,5.5007944 C165.212026,16.3239525 132.412091,35.3088338 92.7776445,75.0973508 C59.3566509,108.675628 38.6735509,139.504008 24.9589631,176.231482 C23.8493566,179.159291 22.0296248,183.639103 20.8756569,186.212234 C13.818651,202.047461 8.80324091,216.995993 4.941856,233.895825 C3.03334995,242.190713 -0.251052738,260.821031 0.015250023,261.663677 C0.325936931,262.550944 1.3467652,262.772332 1.79060209,262.107025 C1.92375487,261.841016 2.81143437,258.824537 3.83226092,255.320662 C6.3621638,246.227177 11.421878,229.637974 11.5994379,229.815313 C11.6882179,229.903982 11.4662966,232.74255 11.1112339,236.158328 C9.9572088,247.114444 9.46900483,263.17163 10.0016274,274.704385 C11.8657206,317.730825 21.1863581,349.84577 43.2451183,389.279095 C58.6462966,416.869607 79.0187526,444.282209 100.322511,466.061724 C134.010245,500.527268 169.827897,521.419516 216.386724,533.662198 C243.105431,540.714569 271.289494,542.755112 296.721435,539.472624 C312.876985,537.388033 335.201914,531.399696 352.422709,524.568713 C394.365664,507.890268 437.284569,476.307912 475.588175,433.946779 C490.944648,416.958277 506.390417,394.424785 517.575205,372.73394 C541.764456,325.759705 550.907476,279.938745 545.492527,232.565211 C541.764456,200.228878 530.357575,169.134491 512.293627,142.076567 C497.513565,119.986995 477.496572,98.1628592 453.129876,77.7145309 C433.867313,61.4794334 424.458124,54.1606537 413.894396,47.1522173 C392.412619,32.9135563 366.226249,20.4492003 342.391889,13.0415224 C318.82427,5.76696304 298.984723,1.86350901 277.636317,0.355387447 C271.733107,-0.0438404647 255.488834,-0.132561325 249.674347,0.222323146 Z M296.721435,32.7361601 C333.8705,34.3773465 365.383097,44.0472406 398.581997,63.9192745 C415.625347,74.1214143 427.343044,83.3476177 442.299979,98.3401982 C460.098331,116.171919 473.368962,134.580277 481.580107,152.811296 C491.166741,174.058222 497.46949,195.659825 500.842671,218.814575 C503.061884,234.073164 503.328052,237.888241 503.287733,257.183294 C503.287733,273.551109 503.194682,276.523539 502.306882,283.753249 C500.309762,299.766387 497.380767,312.940385 492.45408,327.755626 C486.373424,346.031266 479.449617,360.091959 468.841813,375.705798 C460.231129,388.3924 450.46705,399.791864 435.553617,414.474387 C401.600287,447.963995 368.800353,469.876228 332.228271,483.538194 C301.958366,494.849561 274.307211,497.156111 239.022468,491.345114 C211.637482,486.865302 181.589669,477.860486 160.995693,468.057645 C135.119566,455.726294 114.569664,438.737792 98.9023749,416.603027 C79.5957365,389.367764 67.1236103,353.172306 62.4190161,310.633834 C60.0223576,288.943561 59.9336348,263.39359 62.196923,243.876578 C67.3010558,199.563571 84.5218514,156.049162 111.10776,120.119713 C126.198638,99.7600542 145.638647,79.9764609 164.235503,66.0038656 C178.216488,55.4913825 185.273666,51.6766495 198.188833,47.4627321 C225.70719,38.5025372 253.757882,33.4458592 280.742757,32.6030414 C282.829173,32.5143719 285.225831,32.4256453 286.068983,32.3813105 C286.912135,32.3369186 291.706025,32.5143719 296.721435,32.7361601 Z M154.470851,66.4031643 C154.204683,66.6251241 152.030118,68.3990859 149.544164,70.3509588 C129.704617,86.1867576 109.554826,108.18766 95.3517485,129.479207 C71.8728522,164.698728 56.0276596,207.104482 51.5448721,246.981154 C49.0593764,268.982628 49.0593764,296.52852 51.5448721,318.840052 C54.6961318,347.361881 61.1316779,372.51198 70.8516822,394.468834 C73.3376358,400.102493 73.1155428,399.880533 67.5231488,391.142298 C55.2731157,372.068633 44.7541489,350.245069 39.1618121,332.14734 C31.705325,308.149944 28.731568,285.882461 29.2198292,258.070561 C29.6636719,231.545226 33.1255755,211.318285 41.1590466,187.986196 C46.218818,173.348294 54.4742104,156.6258 62.5077388,144.737796 C67.1682579,137.862764 87.140603,117.635823 102.98591,103.751897 C120.428799,88.4486876 134.94212,77.6258614 149.588812,68.9757236 C154.515499,66.0484864 155.225281,65.6932364 154.470851,66.4031643 Z M519.39488,208.035798 C519.261509,208.390476 519.128711,208.257758 519.128711,207.769789 C519.084064,207.281821 519.217434,207.015813 519.350804,207.193152 C519.483602,207.32587 519.52825,207.725169 519.39488,208.035798 Z M522.812708,223.472298 C524.765181,234.472463 525.386812,241.303446 525.608905,254.655355 C526.096594,279.938745 522.901431,300.609033 514.912378,324.384469 C512.248979,332.191389 507.633108,343.902054 507.278217,343.591425 C507.233569,343.502756 508.166016,340.663616 509.364059,337.24841 C514.290747,323.541823 518.551727,306.420031 520.593495,292.225476 C522.501892,278.83009 522.856783,273.019092 522.856783,254.965412 C522.856783,237.089643 522.545967,231.811234 520.593495,217.395292 C520.016511,212.959529 519.52825,209.189073 519.572325,208.967114 C519.705695,208.169088 521.791538,217.483961 522.812708,223.472298 Z M506.701233,345.321338 C506.168324,346.208605 506.079601,345.942025 506.47914,344.788749 C506.656585,344.390022 506.878678,344.168063 506.967401,344.301353 C507.100771,344.390022 506.967401,344.877991 506.701233,345.321338 Z M175.997275,493.296986 C197.567774,501.680544 227.260696,509.176834 249.89644,512.015402 C278.61284,515.56447 305.553639,512.85862 334.402837,503.587796 C341.016401,501.458584 354.819368,496.091506 358.548012,494.184253 C359.746055,493.607616 360.8113,493.163696 360.900023,493.296986 C361.432932,493.784955 343.102243,501.857883 333.116071,505.495048 C311.545572,513.346588 294.90176,516.362495 272.975798,516.362495 C253.447067,516.362495 235.293824,513.834556 214.92194,508.245518 C201.163048,504.475063 184.163773,498.220717 174.443769,493.385656 C168.851375,490.591137 168.984745,490.546516 175.997275,493.296986 Z" id="Shape" fill="#3EEE91" fill-rule="nonzero"></path>
    </g>
</svg>