<?xml version="1.0" encoding="UTF-8"?>
<svg width="323px" height="324px" viewBox="0 0 323 324" version="1.1" xmlns="http://www.w3.org/2000/svg" xmlns:xlink="http://www.w3.org/1999/xlink">
    <title>liner</title>
    <g id="Page-1" stroke="none" stroke-width="1" fill="none" fill-rule="evenodd" stroke-linecap="round">
        <g id="shape-messy-play" transform="translate(2.515449, 2.017241)" stroke="#4FF0FF" stroke-width="4">
            <path d="M277.062378,28.9999869 C239.785845,1.65040577 212.494097,-6.35434969 195.187135,4.98572051 C145.25962,37.6998113 224.021909,54.7121353 203.174964,28.9999869 C177.214521,-3.01903495 -101.361001,49.0118755 253.247105,122.407041 C265.149468,124.870538 289.472436,121.526334 299.69586,112.709873 C325.987829,90.0362473 308.532147,74.2321894 278.450888,77.2825766 C264.184522,78.729256 249.815309,82.4924967 237.911098,90.9234934 C202.569014,115.954045 3.47924907,301.161673 160.240385,248.130168 C317.001521,195.098663 124.295157,97.0404083 32.4351277,143.067752 C-59.4249011,189.095096 65.3849207,305.16405 140.270814,319.172372 C215.156707,333.180694 200.179528,164.080235 318,211.108174" id="liner"></path>
        </g>
    </g>
</svg>