<?xml version="1.0" encoding="UTF-8"?>
<svg width="1048px" height="126px" viewBox="0 0 1048 126" version="1.1" xmlns="http://www.w3.org/2000/svg" xmlns:xlink="http://www.w3.org/1999/xlink">
    <title>Group 11</title>
    <g id="Shapes" stroke="none" stroke-width="1" fill="none" fill-rule="evenodd" stroke-linecap="square">
        <g id="Group-11" transform="translate(4.000000, 4.406707)" stroke-width="7">
            <path d="M0,9.09329306 L0,9.09329306 C23.139,10.3232931 46.278,11.5532931 69,12.0932931 C91.722,12.6332931 114.028,12.4862931 137,10.0932931 C159.972,7.70029306 183.609,3.06129306 209,1.09329306 C234.391,-0.874706941 261.537,-0.172706941 286,3.09329306 C310.463,6.35929306 332.245,12.1892931 357,15.0932931 C381.755,17.9972931 409.483,17.9752931 432,16.0932931 C454.517,14.2112931 471.822,10.4672931 495,7.09329306 C518.178,3.71929306 547.228,0.713293059 574,1.09329306 C600.772,1.47329306 625.265,5.23929306 648,6.09329306 C670.735,6.94729306 691.71,4.88829306 713,6.09329306 C734.29,7.29829306 755.892,11.7662931 779,14.0932931 C802.108,16.4202931 826.721,16.6042931 853,17.0932931 C879.279,17.5822931 907.222,18.3762931 932,17.0932931 C956.778,15.8102931 978.389,12.4522931 1040,9.09329306" id="Path" stroke="#E5D9FF"></path>
            <path d="M0,59.0932931 L0,59.0932931 C23.736,59.4202931 47.472,59.7482931 70,58.0932931 C92.528,56.4382931 113.847,52.8022931 138,54.0932931 C162.153,55.3842931 189.141,61.6032931 214,64.0932931 C238.859,66.5832931 261.588,65.3432931 285,65.0932931 C308.412,64.8432931 332.508,65.5842931 357,63.0932931 C381.492,60.6022931 406.382,54.8792931 429,55.0932931 C451.618,55.3072931 471.964,61.4562931 494,61.0932931 C516.036,60.7302931 539.76,53.8542931 566,51.0932931 C592.24,48.3322931 620.994,49.6862931 645,50.0932931 C669.006,50.5002931 688.264,49.9622931 711,54.0932931 C733.736,58.2242931 759.95,67.0252931 785,67.0932931 C810.05,67.1612931 833.937,58.4962931 857,57.0932931 C880.063,55.6902931 902.304,61.5492931 926,63.0932931 C949.696,64.6372931 974.848,61.8652931 1040,59.0932931" id="Path" stroke="#A57AFF"></path>
            <path d="M0,109.093293 L0,109.093293 C24.777,110.078293 49.554,111.063293 74,110.093293 C98.446,109.123293 122.56,106.195293 145,108.093293 C167.44,109.991293 188.205,116.714293 212,117.093293 C235.795,117.472293 262.621,111.506293 288,107.093293 C313.379,102.680293 337.31,99.8202931 361,103.093293 C384.69,106.366293 408.14,115.772293 431,117.093293 C453.86,118.414293 476.13,111.651293 500,108.093293 C523.87,104.535293 549.343,104.184293 572,107.093293 C594.657,110.002293 614.5,116.172293 640,117.093293 C665.5,118.014293 696.656,113.688293 720,111.093293 C743.344,108.498293 758.876,107.635293 782,108.093293 C805.124,108.551293 835.841,110.332293 861,109.093293 C886.159,107.854293 905.76,103.596293 928,103.093293 C950.24,102.590293 975.12,105.841293 1040,109.093293" id="Path" stroke="#9766FF"></path>
        </g>
    </g>
</svg>