<?xml version="1.0" encoding="UTF-8"?>
<svg width="976px" height="387px" viewBox="0 0 976 387" version="1.1" xmlns="http://www.w3.org/2000/svg" xmlns:xlink="http://www.w3.org/1999/xlink">
    <title>Path</title>
    <g id="Shapes" stroke="none" stroke-width="1" fill="none" fill-rule="evenodd">
        <path d="M798.206175,0.324041633 L859.820967,8.6197508 L885.67,251.965 L915.739267,270.185771 L936.72,323 L976,323 L976,387 L915,387 L885.260733,366.814229 L865.202,316.323 L860.292773,316.830137 L825.179033,288.380249 L812.919,172.966 L801.27595,226.768676 L798.415821,234.715336 L769.415821,290.715336 L717.591,281.15 L714.835612,308.239413 L651.500724,310.638759 L627.387,175.937 L626.102793,175.980992 L611.211,165.046 L598.710161,257.297171 L535.370173,257.853254 L521.15,165.178 L497.787,165.765 L481.648352,273.730939 L438.774,278.888 L423.480664,362.741756 L363.808178,372.140052 L334.808178,318.140052 L331.221845,306.761496 L327.226,273.009 L304.985905,320.557923 L301.185789,326.740213 L272.185789,363.740213 L251.372397,375.699876 L222.372397,379.699876 L186.11645,350.727501 L176.668,240.289 L128.398656,241.035379 L124.804,218.478 L110.575,221.214 L110.66533,222.68338 L110.809104,225.15296 L110.942029,227.595075 L111.064092,230.009773 L111.175276,232.397098 L111.275568,234.757099 L111.364953,237.089819 L111.443415,239.395307 L111.510941,241.673607 L111.567514,243.924767 L111.613122,246.148831 L111.647748,248.345848 L111.671378,250.515862 C111.674399,250.875283 111.676962,251.233582 111.679065,251.590758 L111.686173,253.720355 L111.682249,255.823066 C111.6791,256.519493 111.67411,257.211447 111.667277,257.898936 L111.641242,259.948011 C111.625457,260.965858 111.605517,261.973674 111.581416,262.971486 L111.52766,264.953777 C111.517775,265.281938 111.507427,265.60899 111.496615,265.934933 L111.426183,267.877292 L111.344614,269.793088 C111.330091,270.110177 111.315102,270.42616 111.299649,270.74104 L111.201348,272.617077 C111.184034,272.927545 111.166254,273.23691 111.148009,273.545175 L111.032942,275.381558 C111.012832,275.685422 110.992255,275.988187 110.971212,276.289854 L110.839347,278.086686 C110.770611,278.978521 110.697669,279.86049 110.620511,280.732618 L110.460575,282.463763 C110.377794,283.322783 110.290792,284.171981 110.199562,285.011381 L110.011462,286.677128 C109.882299,287.778927 109.745609,288.863342 109.601371,289.930431 L109.379351,291.518081 C109.341404,291.780526 109.302984,292.041891 109.264092,292.302175 L109.025063,293.850932 C108.90271,294.618839 108.776098,295.377045 108.645219,296.125575 L108.486981,297.014388 L77,323.307373 L0.709777832,323.307373 L0.709777832,259.307373 L47.657,259.308 L47.6784545,257.759445 L47.6913249,256.208324 L47.6966646,254.632651 L47.6944623,253.03246 L47.6847065,251.407787 L47.667386,249.758667 L47.6424895,248.085137 L47.6100054,246.387231 L47.547028,243.794746 L47.4955256,242.036056 L47.4363961,240.253116 L47.3696279,238.44596 L47.2952099,236.614623 L47.2131306,234.759142 L47.1233788,232.879551 L46.9743399,230.015039 L46.8653569,228.07533 L46.687418,225.120807 L46.5591328,223.121203 L46.4231068,221.097702 L46.2793288,219.050341 L46.0491017,215.934638 L45.8013686,212.765447 L45.5360911,209.54289 L45.2532309,206.267085 L44.9527498,202.938152 L44.7426206,200.689407 L44.412686,197.272195 L44.0650281,193.802174 L43.6996088,190.279465 L43.4461095,187.90178 L43.0510025,184.291523 L42.6380319,180.628897 L42.2071592,176.914021 L41.7583462,173.147017 L41.4491518,170.606779 L41.2434027,168.939357 L79.768,155.184 L99.5323209,48.1874988 L151.651,48.83 L157.257981,4.94485219 L220.88355,6.2724987 L245.5,294.04 L248.562,290.133 L274.077,235.585 L302.377993,53.0960525 L365.778155,54.2385041 L385.029,216.877 L389.519336,192.258244 L429.741,188.073 L447.351648,70.2690607 L504.333,64.254 L507.510778,54.2836547 L561.067,58.477 L564.289839,34.7028286 L626.845166,30.480859 L649.125,111.15 L652.897207,111.019008 L669.23,124.217 L680.164388,16.7605868 L743.796633,16.3980377 L756.69,130.218 L767.72405,79.2313243 L769.206175,74.3240416 L798.206175,0.324041633 Z" id="Path" fill="#27272A" fill-rule="nonzero"></path>
    </g>
</svg>