<?xml version="1.0" encoding="UTF-8"?>
<svg width="64px" height="66px" viewBox="0 0 64 66" version="1.1" xmlns="http://www.w3.org/2000/svg" xmlns:xlink="http://www.w3.org/1999/xlink">
    <title>Group 14</title>
    <g id="Shapes" stroke="none" stroke-width="1" fill="none" fill-rule="evenodd">
        <g id="Group-14" transform="translate(0.676440, 0.000000)">
            <g id="Group" transform="translate(2.323560, 0.000000)" fill="#3EEE91" fill-rule="nonzero">
                <g id="Group-3" transform="translate(10.000000, 35.000000)">
                    <path d="M6.58531185,1.63071521 L42.8413684,7.54410297 L38.4145621,13.3696759 L2.15799791,7.45628814 L6.58531185,1.63071521 Z M39.3373845,14.6989206 L44.8377713,7.46099251 C45.0047727,7.24250086 45.0458885,6.94926206 44.9469059,6.69104465 C44.8479233,6.43230453 44.6240704,6.24726614 44.3575788,6.20388144 L6.38125542,0.00979984655 C6.10664216,-0.0351529819 5.8325365,0.0767063819 5.66248947,0.300947817 L0.162102653,7.5388759 C-0.00439115262,7.75789026 -0.046014604,8.05060635 0.0529679938,8.30934647 C0.151442989,8.56756388 0.375803544,8.75312497 0.64178755,8.79650968 L38.6186185,14.9905913 C38.6592268,14.9968638 38.6993274,15 38.7384128,15 C38.9703874,15 39.19221,14.8907542 39.3373845,14.6989206 L39.3373845,14.6989206 Z" id="Fill-1"></path>
                </g>
                <path d="M6.09329929,2.45582695 L15.3582185,35.9426493 L10.9066104,41.5437413 L1.64169115,8.05691897 L6.09329929,2.45582695 Z M11.1774961,43.7040157 L16.833215,36.5885734 C16.9861428,36.396903 17.0372927,36.1456246 16.9725724,35.9107899 L7.19354433,0.568413098 C7.11629753,0.286816912 6.88403517,0.0725366028 6.59331578,0.0149840977 C6.30364025,-0.0420545458 6.00456985,0.066370263 5.82189159,0.29555256 L0.16669471,7.41150873 C0.0142888499,7.60317913 -0.0373829998,7.85394361 0.0273372968,8.08877839 L9.8058434,43.431669 C9.88413408,43.7132652 10.1163964,43.9270316 10.4071158,43.9845842 C10.4577438,43.9948614 10.5099376,44 10.5616094,44 C10.7996131,44 11.0277,43.8931168 11.1774961,43.7040157 L11.1774961,43.7040157 Z" id="Fill-4"></path>
                <path d="M7.80537595,1.71989718 L44.1254903,7.54808169 L53.1951151,41.2800814 L16.8744932,35.4518969 L7.80537595,1.71989718 Z M54.805429,42.7434262 C54.9779807,42.5485535 55.0414189,42.278097 54.9729057,42.0261507 L45.465304,6.66164233 C45.3866407,6.36907621 45.1455757,6.15003725 44.8497002,6.10273307 L6.88070154,0.00974793189 C6.62339643,-0.0319003209 6.36659882,0.0616797039 6.19455457,0.256552393 C6.02200281,0.451425082 5.95907217,0.721881637 6.02657036,0.973827858 L15.5346796,36.3383363 C15.6138504,36.6314166 15.8544078,36.8499413 16.1497758,36.8977597 L54.1197895,42.9902307 C54.1593749,42.9969149 54.1994678,43 54.2385457,43 C54.4532204,43 54.659775,42.9079625 54.805429,42.7434262 L54.805429,42.7434262 Z" id="Fill-6"></path>
            </g>
            <path d="M36.4752852,58.9066539 C37.0180101,59.2957489 38.6461848,60.463034 40.1662651,58.2402928 C40.5671635,57.6540781 40.4288708,57.3641661 40.3835803,56.7398272 C40.3340284,56.0567448 39.8723972,55.1219143 39.1354256,55.0168569 C37.860972,54.8351799 37.2067079,54.2890416 36.3671907,55.5166277 C35.5276736,56.7442137 35.9325603,58.5175588 36.4752852,58.9066539 Z M62.8901491,60.6598739 C63.0278935,59.99633 63.4411459,58.0057024 60.8488859,57.4415114 C60.1652081,57.292752 59.9586021,57.5363687 59.4149956,57.823003 C58.8202415,58.1366066 58.1601692,58.9369552 58.3536766,59.6725903 C58.6883112,60.9447328 58.4529548,61.7747612 59.8846181,62.0863662 C61.3162931,62.3979165 62.7523919,61.3234151 62.8901491,60.6598739 Z M51.1772011,63.2435544 C51.3149373,62.5800088 51.3423174,61.892446 49.5084947,61.4933156 C48.824817,61.3445562 48.6182109,61.5881729 48.0746044,61.8748072 C47.4798503,62.1884107 46.601774,63.0755903 47.0132854,63.7243945 C47.5236012,64.5289773 47.2503144,65.1630228 48.6819797,65.4746187 C50.1136527,65.7861782 51.0394357,63.9070939 51.1772011,63.2435544 Z M54.0763866,56.4957024 C54.3715446,55.0738207 53.8218714,54.4588215 52.5844446,54.1894974 C52.1231129,54.0891165 51.9814349,54.2644119 51.6114427,54.473133 C51.2066382,54.7014925 50.5809579,55.7349838 50.7060908,56.2575893 C50.9224846,57.1613373 51.5328603,57.4282663 51.8956866,57.507229 C52.2585129,57.5861918 53.781184,57.9175745 54.0763866,56.4957024 Z M19.215112,45.4293493 C19.8415556,45.2084808 21.7209008,44.5459173 20.8580869,41.9802849 C20.6305326,41.3036377 20.3201727,41.2477845 19.8002315,40.9183232 C19.2313693,40.557863 18.2213748,40.3907694 17.7051829,40.9394786 C16.8125261,41.888368 15.9964292,42.1093069 16.4729481,43.5262665 C16.9494671,44.9432262 18.5886588,45.6501899 19.215112,45.4293493 Z M36.1266732,24.5794608 C35.6833442,24.0753362 34.3533573,22.5629626 32.3838904,24.3786257 C31.864473,24.8574797 31.9355263,25.1718133 31.8424859,25.7905818 C31.7406915,26.4675698 31.9851047,27.4847649 32.6801062,27.7568712 C33.8819804,28.2274277 34.3994868,28.9102605 35.4871933,27.9074974 C36.5748998,26.9047344 36.5700022,25.0835853 36.1266732,24.5794608 Z M31.2834597,35.8003779 C30.8401307,35.2962533 30.3129479,34.8694342 28.9197015,36.1538761 C28.4002841,36.6327301 28.4713374,36.9470637 28.3782971,37.5658322 C28.2765027,38.2428202 28.4613855,39.4916339 29.2159173,39.5321216 C30.151613,39.5823303 30.4919689,40.1813863 31.5796754,39.1786233 C32.667382,38.1758603 31.7267887,36.3045024 31.2834597,35.8003779 Z M27.655749,29.4325947 C26.7057583,28.3523278 25.896728,28.4461546 24.9565936,29.3128701 C24.6061012,29.6359911 24.6613343,29.8563843 24.6087789,30.2855455 C24.5512786,30.7550861 25.0001241,31.8808309 25.4866111,32.0843585 C26.327899,32.4363214 26.8975822,32.0876218 27.1732385,31.8334927 C27.4488947,31.5793636 28.6057397,30.5128615 27.655749,29.4325947 Z M53.9720286,33.9418787 C53.3095846,33.9300453 51.322253,33.8945279 51.2760006,36.6075805 C51.2638028,37.3231075 51.5367883,37.4842765 51.9153189,37.9759459 C52.3294652,38.5138762 53.2227332,39.0245804 53.8910875,38.6897265 C55.0468805,38.1106595 55.8875638,38.188832 55.9131084,36.6904544 C55.9386523,35.1920768 54.6344723,33.9537235 53.9720286,33.9418787 Z M31.1155967,47.6121354 C31.3637903,48.2411058 32.1083713,50.1280171 34.5655745,49.1115349 C35.2136251,48.8434529 35.2518578,48.5231939 35.5459825,47.9743234 C35.8677812,47.3738098 35.9778949,46.3323686 35.4157024,45.8332915 C34.4434963,44.9702315 34.1852949,44.1473542 32.828219,44.7087418 C31.4711432,45.2701295 30.8674031,46.9831649 31.1155967,47.6121354 Z M39.4149998,38.7639559 C39.6631935,39.3929263 40.0160073,39.9786181 41.7542895,39.2595351 C42.4023402,38.9914531 42.4405729,38.6711942 42.7346975,38.1223236 C43.0564962,37.52181 43.2999208,36.2835654 42.6044174,35.9812917 C41.741923,35.6064418 41.6222036,34.9243248 40.2651277,35.4857125 C38.9080518,36.0471001 39.1668062,38.1349855 39.4149998,38.7639559 Z M40.9170529,45.9710999 C41.4488964,47.3188936 42.2404784,47.5140377 43.4134362,47.028815 C43.8507277,46.8479187 43.8724464,46.6214749 44.0651906,46.2365996 C44.2760701,45.8155116 44.2303406,44.6004774 43.8411793,44.2388622 C43.1681981,43.6135167 42.5163902,43.741691 42.172468,43.8839628 C41.8285458,44.0262346 40.3852094,44.623306 40.9170529,45.9710999 Z M12.0347549,32.1091375 C10.6411006,31.8317694 10.0501297,32.4052163 9.80874192,33.6767043 C9.7187499,34.1507288 9.89240343,34.2927087 10.1026827,34.667836 C10.3327469,35.0782588 11.3528997,35.700746 11.8610548,35.5635237 C12.7398134,35.3262236 12.9898245,34.6967086 13.0606175,34.3238995 C13.1313789,33.9510842 13.428409,32.3865055 12.0347549,32.1091375 Z M0.498116501,28.9902854 C-0.336385027,30.1663069 -0.0785422217,30.9570478 0.944925523,31.7183978 C1.32648546,32.0022374 1.52555095,31.9010988 1.94647011,31.8645057 C2.40699333,31.8244696 3.38913535,31.1408927 3.48242592,30.6113572 C3.64375443,29.6956253 3.19218608,29.1975827 2.89209575,28.9743478 C2.59200542,28.7511128 1.33261802,27.814264 0.498116501,28.9902854 Z" id="Combined-Shape" fill="#2B2B30"></path>
        </g>
    </g>
</svg>