<?xml version="1.0" encoding="UTF-8"?>
<svg width="1049px" height="523px" viewBox="0 0 1049 523" version="1.1" xmlns="http://www.w3.org/2000/svg" xmlns:xlink="http://www.w3.org/1999/xlink">
    <title>Group</title>
    <g id="Images" stroke="none" stroke-width="1" fill="none" fill-rule="evenodd" stroke-linecap="square">
        <g id="Group" transform="translate(5.000000, 3.906707)" stroke-width="7">
            <path d="M0,9.09329306 L0,9.09329306 C23.139,10.3232931 46.278,11.5532931 69,12.0932931 C91.722,12.6332931 114.028,12.4862931 137,10.0932931 C159.972,7.70029306 183.609,3.06129306 209,1.09329306 C234.391,-0.874706941 261.537,-0.172706941 286,3.09329306 C310.463,6.35929306 332.245,12.1892931 357,15.0932931 C381.755,17.9972931 409.483,17.9752931 432,16.0932931 C454.517,14.2112931 471.822,10.4672931 495,7.09329306 C518.178,3.71929306 547.228,0.713293059 574,1.09329306 C600.772,1.47329306 625.265,5.23929306 648,6.09329306 C670.735,6.94729306 691.71,4.88829306 713,6.09329306 C734.29,7.29829306 755.892,11.7662931 779,14.0932931 C802.108,16.4202931 826.721,16.6042931 853,17.0932931 C879.279,17.5822931 907.222,18.3762931 932,17.0932931 C956.778,15.8102931 978.389,12.4522931 1040,9.09329306" id="Path" stroke="#E5D9FF"></path>
            <path d="M0,59.0932931 L0,59.0932931 C23.736,59.4202931 47.472,59.7482931 70,58.0932931 C92.528,56.4382931 113.847,52.8022931 138,54.0932931 C162.153,55.3842931 189.141,61.6032931 214,64.0932931 C238.859,66.5832931 261.588,65.3432931 285,65.0932931 C308.412,64.8432931 332.508,65.5842931 357,63.0932931 C381.492,60.6022931 406.382,54.8792931 429,55.0932931 C451.618,55.3072931 471.964,61.4562931 494,61.0932931 C516.036,60.7302931 539.76,53.8542931 566,51.0932931 C592.24,48.3322931 620.994,49.6862931 645,50.0932931 C669.006,50.5002931 688.264,49.9622931 711,54.0932931 C733.736,58.2242931 759.95,67.0252931 785,67.0932931 C810.05,67.1612931 833.937,58.4962931 857,57.0932931 C880.063,55.6902931 902.304,61.5492931 926,63.0932931 C949.696,64.6372931 974.848,61.8652931 1040,59.0932931" id="Path" stroke="#A57AFF"></path>
            <path d="M0,109.093293 L0,109.093293 C24.777,110.078293 49.554,111.063293 74,110.093293 C98.446,109.123293 122.56,106.195293 145,108.093293 C167.44,109.991293 188.205,116.714293 212,117.093293 C235.795,117.472293 262.621,111.506293 288,107.093293 C313.379,102.680293 337.31,99.8202931 361,103.093293 C384.69,106.366293 408.14,115.772293 431,117.093293 C453.86,118.414293 476.13,111.651293 500,108.093293 C523.87,104.535293 549.343,104.184293 572,107.093293 C594.657,110.002293 614.5,116.172293 640,117.093293 C665.5,118.014293 696.656,113.688293 720,111.093293 C743.344,108.498293 758.876,107.635293 782,108.093293 C805.124,108.551293 835.841,110.332293 861,109.093293 C886.159,107.854293 905.76,103.596293 928,103.093293 C950.24,102.590293 975.12,105.841293 1040,109.093293" id="Path" stroke="#9766FF"></path>
            <path d="M0,159.093293 L0,159.093293 C23.87,162.173293 47.739,165.254293 70,165.093293 C92.261,164.932293 112.914,161.528293 138,158.093293 C163.086,154.658293 192.606,151.191293 218,154.093293 C243.394,156.995293 264.661,166.267293 286,165.093293 C307.339,163.919293 328.75,152.298293 353,150.093293 C377.25,147.888293 404.343,155.097293 431,156.093293 C457.657,157.089293 483.88,151.870293 506,153.093293 C528.12,154.316293 546.134,161.980293 567,164.093293 C587.866,166.206293 611.584,162.766293 638,160.093293 C664.416,157.420293 693.531,155.512293 717,156.093293 C740.469,156.674293 758.29,159.743293 780,160.093293 C801.71,160.443293 827.306,158.072293 852,159.093293 C876.694,160.114293 900.484,164.528293 925,165.093293 C949.516,165.658293 974.758,162.376293 1040,159.093293" id="Path" stroke="#BC9CFF"></path>
            <path d="M0,209.093293 L0,209.093293 C24.075,208.269293 48.15,207.445293 71,209.093293 C93.85,210.741293 115.475,214.860293 139,213.093293 C162.525,211.326293 187.95,203.671293 213,201.093293 C238.05,198.515293 262.725,201.012293 287,205.093293 C311.275,209.174293 335.15,214.840293 358,216.093293 C380.85,217.346293 402.672,214.187293 428,212.093293 C453.328,209.999293 482.162,208.968293 505,207.093293 C527.838,205.218293 544.68,202.497293 568,202.093293 C591.32,201.689293 621.12,203.601293 646,207.093293 C670.88,210.585293 690.838,215.659293 715,215.093293 C739.162,214.527293 767.528,208.323293 791,207.093293 C814.472,205.863293 833.05,209.608293 856,212.093293 C878.95,214.578293 906.271,215.803293 931,215.093293 C955.729,214.383293 977.864,211.738293 1040,209.093293" id="Path" stroke="#E3D6FF"></path>
            <path d="M0,259.093293 L0,259.093293 C21.456,263.693293 42.913,268.291293 66,266.093293 C89.087,263.895293 113.805,254.899293 138,254.093293 C162.195,253.287293 185.867,260.673293 211,264.093293 C236.133,267.513293 262.726,266.971293 287,266.093293 C311.274,265.215293 333.23,264.003293 356,262.093293 C378.77,260.183293 402.353,257.578293 427,258.093293 C451.647,258.608293 477.358,262.243293 501,260.093293 C524.642,257.943293 546.214,250.005293 569,250.093293 C591.786,250.181293 615.787,258.295293 641,261.093293 C666.213,263.891293 692.637,261.373293 716,258.093293 C739.363,254.813293 759.664,250.770293 783,252.093293 C806.336,253.416293 832.706,260.103293 857,260.093293 C881.294,260.083293 903.513,253.376293 927,252.093293 C950.487,250.810293 975.244,254.952293 1040,259.093293" id="Path" stroke="#A67DFF"></path>
            <path d="M0,309.093293 L0,309.093293 C21.16,307.518293 42.32,305.943293 66,307.093293 C89.68,308.243293 115.88,312.117293 140,314.093293 C164.12,316.069293 186.16,316.146293 210,316.093293 C233.84,316.040293 259.48,315.858293 284,313.093293 C308.52,310.328293 331.917,304.981293 357,303.093293 C382.083,301.205293 408.851,302.778293 434,306.093293 C459.149,309.408293 482.678,314.466293 504,314.093293 C525.322,313.720293 544.437,307.917293 569,308.093293 C593.563,308.269293 623.573,314.423293 648,314.093293 C672.427,313.763293 691.269,306.946293 714,303.093293 C736.731,299.240293 763.35,298.349293 787,302.093293 C810.65,305.837293 831.329,314.216293 855,317.093293 C878.671,319.970293 905.335,317.343293 930,315.093293 C954.665,312.843293 977.333,310.968293 1040,309.093293" id="Path" stroke="#844AFE"></path>
            <path d="M0,359.093293 L0,359.093293 C20.583,355.599293 41.166,352.104293 65,353.093293 C88.834,354.082293 115.92,359.554293 141,363.093293 C166.08,366.632293 189.154,368.237293 214,364.093293 C238.846,359.949293 265.463,350.055293 288,351.093293 C310.537,352.131293 328.995,364.100293 354,365.093293 C379.005,366.086293 410.557,356.105293 434,353.093293 C457.443,350.081293 472.775,354.040293 494,354.093293 C515.225,354.146293 542.34,350.292293 568,351.093293 C593.66,351.894293 617.861,357.351293 642,357.093293 C666.139,356.835293 690.214,350.863293 715,353.093293 C739.786,355.323293 765.283,365.753293 788,367.093293 C810.717,368.433293 830.655,360.685293 853,357.093293 C875.345,353.501293 900.099,354.067293 925,355.093293 C949.901,356.119293 974.95,357.606293 1040,359.093293" id="Path" stroke="#8C55FF"></path>
            <path d="M0,409.093293 L0,409.093293 C22.9,407.163293 45.8,405.235293 68,404.093293 C90.2,402.951293 111.699,402.597293 137,405.093293 C162.301,407.589293 191.404,412.934293 217,413.093293 C242.596,413.252293 264.687,408.223293 289,409.093293 C313.313,409.963293 339.85,416.729293 362,417.093293 C384.15,417.457293 401.915,411.420293 424,407.093293 C446.085,402.766293 472.489,400.151293 498,401.093293 C523.511,402.035293 548.13,406.535293 572,408.093293 C595.87,409.651293 618.991,408.265293 641,410.093293 C663.009,411.921293 683.906,416.961293 709,414.093293 C734.094,411.225293 763.386,400.448293 790,400.093293 C816.614,399.738293 840.55,409.805293 863,411.093293 C885.45,412.381293 906.414,404.890293 929,403.093293 C951.586,401.296293 975.793,405.195293 1040,409.093293" id="Path" stroke="#AD86FF"></path>
            <path d="M0,459.093293 L0,459.093293 C20.374,455.173293 40.747,451.251293 65,453.093293 C89.253,454.935293 117.385,462.539293 144,464.093293 C170.615,465.647293 195.712,461.150293 220,459.093293 C244.288,457.036293 267.765,457.418293 291,457.093293 C314.235,456.768293 337.227,455.738293 362,457.093293 C386.773,458.448293 413.328,462.190293 434,463.093293 C454.672,463.996293 469.46,462.061293 494,463.093293 C518.54,464.125293 552.833,468.125293 577,466.093293 C601.167,464.061293 615.21,455.996293 638,454.093293 C660.79,452.190293 692.328,456.448293 718,456.093293 C743.672,455.738293 763.48,450.771293 786,453.093293 C808.52,455.415293 833.756,465.026293 859,465.093293 C884.244,465.160293 909.498,455.683293 933,453.093293 C956.502,450.503293 978.25,454.798293 1040,459.093293" id="Path" stroke="#8F5AFF"></path>
            <path d="M0,509.093293 L0,509.093293 C24.776,507.040293 49.552,504.987293 73,504.093293 C96.448,503.199293 118.57,503.463293 142,506.093293 C165.43,508.723293 190.17,513.717293 214,515.093293 C237.83,516.469293 260.752,514.228293 283,510.093293 C305.248,505.958293 326.823,499.930293 351,501.093293 C375.177,502.256293 401.955,510.608293 427,512.093293 C452.045,513.578293 475.355,508.194293 499,508.093293 C522.645,507.992293 546.625,513.173293 571,514.093293 C595.375,515.013293 620.146,511.669293 644,511.093293 C667.854,510.517293 690.79,512.706293 714,514.093293 C737.21,515.480293 760.696,516.063293 783,513.093293 C805.304,510.123293 826.428,503.601293 852,502.093293 C877.572,500.585293 907.592,504.091293 933,506.093293 C958.408,508.095293 979.204,508.594293 1040,509.093293" id="Path" stroke="#8B54FF"></path>
        </g>
    </g>
</svg>