<?xml version="1.0" encoding="UTF-8"?>
<svg width="657px" height="92px" viewBox="0 0 657 92" version="1.1" xmlns="http://www.w3.org/2000/svg" xmlns:xlink="http://www.w3.org/1999/xlink">
    <title>squiggle</title>
    <g id="Shapes" stroke="none" stroke-width="1" fill="none" fill-rule="evenodd" stroke-linecap="round">
        <g id="squiggle" transform="translate(327.137110, 46.019623) scale(1, -1) translate(-327.137110, -46.019623) translate(6.000000, 8.076846)" stroke="#FFE350" stroke-width="11">
            <path d="M0,52.6607522 C76.2324655,52.4855162 71.0372146,16.9231538 101.347277,16.9231538 C131.657339,16.9231538 138.815803,48.2320515 160.090305,48.2320515 C190.581164,48.2320515 190.581164,16.9231538 223.502144,16.9231538 C256.423126,16.9231538 245.96556,57.9231538 289.886499,57.9231538 C310.624963,57.9231538 336.908415,23.1445023 359.631548,22.8546393 C382.354682,22.5647762 402.263852,49.2135749 424.973661,50.0428272 C448.62091,50.9063104 466.670363,29.2046173 490.315774,28.2922768 C506.49014,27.6682014 571.993416,77.2310151 621,36.0187238"></path>
            <polyline id="Path" stroke-linejoin="round" transform="translate(604.035492, 37.942777) rotate(-139.000000) translate(-604.035492, -37.942777) " points="632.535492 34.8099899 586.488525 63.4427766 575.535492 12.4427766"></polyline>
        </g>
    </g>
</svg>