<?xml version="1.0" encoding="UTF-8"?>
<svg width="900px" height="224px" viewBox="0 0 900 224" version="1.1" xmlns="http://www.w3.org/2000/svg" xmlns:xlink="http://www.w3.org/1999/xlink">
    <title>wave-haikei(2)</title>
    <g id="Shapes" stroke="none" stroke-width="1" fill="none" fill-rule="evenodd">
        <g id="wave-haikei(2)" fill="#4FF0FF" fill-rule="nonzero">
            <path d="M0,175 L16.7,162.8 C33.3,150.7 66.7,126.3 100,126.2 C133.3,126 166.7,150 200,160.8 C233.3,171.7 266.7,169.3 300,147.8 C333.3,126.3 366.7,85.7 400,75.7 C433.3,65.7 466.7,86.3 500,114 C533.3,141.7 566.7,176.3 600,171.2 C633.3,166 666.7,121 700,128 C733.3,135 766.7,194 800,214.3 C833.3,234.7 866.7,216.3 883.3,207.2 L900,198 L900,0 L883.3,0 C866.7,0 833.3,0 800,0 C766.7,0 733.3,0 700,0 C666.7,0 633.3,0 600,0 C566.7,0 533.3,0 500,0 C466.7,0 433.3,0 400,0 C366.7,0 333.3,0 300,0 C266.7,0 233.3,0 200,0 C166.7,0 133.3,0 100,0 C66.7,0 33.3,0 16.7,0 L0,0 L0,175 Z" id="Path"></path>
        </g>
    </g>
</svg>