<?xml version="1.0" encoding="UTF-8"?>
<svg width="463px" height="456px" viewBox="0 0 463 456" version="1.1" xmlns="http://www.w3.org/2000/svg" xmlns:xlink="http://www.w3.org/1999/xlink">
    <title>Group 6</title>
    <g id="Shapes" stroke="none" stroke-width="1" fill="none" fill-rule="evenodd">
        <g id="Group-6" transform="translate(0.196301, 0.323877)">
            <path d="M254.823868,22.6072793 C253.048662,23.0412432 247.210454,24.4614079 245.159351,25.0137188 C242.437369,25.6843028 241.648142,26.2760381 240.622221,28.2879381 C238.531916,32.5090078 240.188775,39.0575204 245.316901,46.8290019 C245.908636,47.6968557 246.618718,48.9986733 246.894615,49.7087557 C247.368003,50.8528019 248.15723,51.3656145 252.615216,53.6142086 C259.202709,56.9280002 263.621492,58.6240615 267.842044,59.4524909 C291.984844,64.2263154 320.58563,77.1261448 341.730551,92.7080144 C359.364263,105.766133 379.640812,129.711441 387.964309,147.345153 C396.327748,165.097212 401.574221,184.190291 403.626063,204.427638 C404.257001,210.818379 404.257001,229.635561 403.626063,235.9871 C399.010527,280.722288 381.060977,319.382574 351.079969,349.16609 C326.976371,373.072196 293.720848,391.495135 263.699897,397.530835 C228.86666,404.552514 187.011743,398.595958 152.375257,381.711531 C142.907493,377.095996 129.100089,368.338314 120.500696,361.474184 C92.4916458,339.146532 70.9916836,308.612991 59.9462787,275.435873 C53.279345,255.514365 50.5179383,237.486409 50.9913266,217.288265 C51.9775274,175.077567 66.57364,138.784962 95.766161,106.04203 C121.841716,76.8495085 159.436878,54.4821364 194.388463,47.4601616 C197.465487,46.8290019 200.266614,46.1189196 200.54251,45.8822255 C200.818407,45.6455313 201.37094,44.6987549 201.725981,43.7914028 C202.120224,42.8446263 202.633555,41.7400784 202.830307,41.3456129 C203.067001,40.911649 203.343637,39.4520599 203.461984,38.1502423 L203.619534,35.7043784 L201.805125,34.8365247 C199.753283,33.8108255 200.148267,33.8108255 190.522213,35.6649541 C154.663054,42.5685078 125.155434,55.665607 99.789961,76.0210791 C83.1422282,89.3942967 68.2304988,106.55462 56.7509081,125.569294 C52.9243039,131.920833 46.1785215,145.530745 43.4171148,152.434076 C28.5843081,189.437503 26.1384443,230.306441 36.2768669,271.37287 C40.9713249,290.3084 46.8886039,305.259332 57.184798,323.998109 C69.7690105,346.917496 80.1044071,360.527408 98.0539575,377.609326 C108.310949,387.39219 124.24786,399.503532 136.280057,406.682761 C160.777899,421.279391 188.116069,429.760437 218.215424,432.088176 C226.302227,432.679911 247.210454,432.364072 254.232133,431.496441 C292.498175,426.723356 325.595409,412.285015 356.010603,387.037149 C360.941977,382.934944 374.275992,369.680074 378.77318,364.393658 C407.531516,330.625544 426.703739,285.258679 431.24013,240.129247 C432.028617,232.199994 431.91027,205.492761 431.042638,197.721797 C426.427103,156.537021 412.46215,123.281498 386.623289,91.997932 C381.850204,86.1597237 369.147127,73.4965884 363.308918,68.644359 C348.831375,56.6912322 338.337689,50.2216423 316.877669,40.0832196 C306.423186,35.1520675 292.971563,30.6154549 279.479998,27.499007 C276.007991,26.710002 272.379175,25.8026499 271.392456,25.5265314 C262.279733,22.804549 257.506648,21.9366953 254.823868,22.6072793 Z" id="Path" fill="#FFFFFF" fill-rule="nonzero" transform="translate(230.953007, 227.391219) rotate(82.000000) translate(-230.953007, -227.391219) "></path>
            <path d="M400.538769,172.741939 C422.555264,236.763588 394.744955,321.642968 337.675883,362.199668 C280.317121,402.756369 193.989288,399.28008 134.023309,356.405854 C74.3470217,313.531628 41.0325892,231.549155 61.8903208,168.97596 C83.0377432,106.692456 158.067639,64.3976111 231.938772,64.6858229 C305.809905,65.2666833 378.232584,108.720291 400.538769,172.741939 Z" id="Path" fill="#3EEE91"></path>
            <g id="Group" transform="translate(143.803699, 129.676123)" stroke="#000000" stroke-linecap="round" stroke-linejoin="round">
                <polygon id="Path" stroke-width="3" fill="#000000" fill-rule="nonzero" opacity="0.1" points="0 49.5 88.5 0 177 49.5 88.5 99"></polygon>
                <polygon id="Path" stroke-width="16" points="0 49.5 88.5 0 177 49.5 88.5 99"></polygon>
                <polyline id="Path" stroke-width="16" points="177 99 88.5 148 0 99"></polyline>
                <polyline id="Path" stroke-width="16" points="177 148 88.5 197 0 148"></polyline>
            </g>
        </g>
    </g>
</svg>