<?xml version="1.0" encoding="UTF-8"?>
<svg width="41px" height="45px" viewBox="0 0 41 45" version="1.1" xmlns="http://www.w3.org/2000/svg" xmlns:xlink="http://www.w3.org/1999/xlink">
    <title>Shape</title>
    <g id="Shapes" stroke="none" stroke-width="1" fill="none" fill-rule="evenodd">
        <path d="M38.1541361,0.0162878332 L38.2637837,0.024238084 C38.3968336,0.0358626911 38.509819,0.0365296196 38.5989559,0.0245139255 L38.6800031,0.00820680384 C38.9319122,-0.0616692239 39.1647927,0.00375733558 39.2878333,0.167541634 L39.3335753,0.243649097 C39.3793989,0.345548263 39.4685897,0.408086608 39.6477607,0.457959866 L39.7450604,0.481964663 C39.9451528,0.524568515 40.0035172,0.554587208 40.0525653,0.667172568 L40.0841345,0.75205369 L40.0841345,0.75205369 L40.1061684,0.843548836 L40.1061684,0.843548836 L40.1162908,0.980469251 L40.1162908,0.980469251 L40.1131264,1.20969875 L40.1131264,1.20969875 L40.0380601,2.49412206 L40.0380601,2.49412206 L39.8808334,5.05825859 L39.8808334,5.05825859 L39.8097701,6.41202584 L39.8097701,6.41202584 L39.7198354,7.88463296 L39.7198354,7.88463296 L39.6755309,8.76627535 L39.6755309,8.76627535 L39.6442038,9.60201042 C39.6400237,9.73939135 39.6363543,9.87629749 39.6331802,10.0134479 L39.6199605,10.8450329 L39.6199605,10.8450329 L39.6179067,11.7169917 L39.6179067,11.7169917 L39.6262943,12.663837 L39.6262943,12.663837 L39.666052,14.9232664 L39.666052,14.9232664 L39.6930995,17.1806568 L39.6930995,17.1806568 L39.6963878,18.3347172 L39.6963878,18.3347172 L39.6866229,18.6643971 C39.6766352,18.874491 39.6600633,19.0587161 39.6391351,19.1781732 C39.5730802,19.5676568 39.4409518,19.9281966 39.3270033,20.0263363 C39.275272,20.0704274 39.2531422,20.1017389 39.2485586,20.1468296 L39.2493772,20.197497 C39.2530514,20.2521599 39.2438544,20.2948535 39.2086683,20.3494047 L39.1208034,20.4672411 L39.1208034,20.4672411 L39.0183503,20.6297078 L39.0183503,20.6297078 L38.9722453,20.712659 C38.8576345,20.9365933 38.6668628,21.1084443 38.5038449,21.1353489 C38.3612222,21.1608193 38.33423,21.1614366 38.2319471,21.0537705 L38.1736475,20.9905276 C38.0945021,20.9067146 37.994621,20.8112653 37.947549,20.781153 C37.8395206,20.7077682 37.6967794,20.5036122 37.6030138,20.2943669 L37.4420264,19.8972989 L37.4420264,19.8972989 L37.3319533,19.6539026 L37.3319533,19.6539026 L37.241883,19.4375317 L37.241883,19.4375317 L37.1584252,19.2077553 C37.1450055,19.1680461 37.1318154,19.1275563 37.1188322,19.0861749 L37.0432302,18.8262995 C37.0309823,18.7809077 37.0188952,18.7344023 37.0069462,18.6866723 L36.9367245,18.3847086 L36.9367245,18.3847086 L36.8687143,18.0480253 L36.8687143,18.0480253 L36.8018153,17.6712941 L36.8018153,17.6712941 L36.7349273,17.2491864 L36.7349273,17.2491864 L36.6669501,16.7763737 L36.6669501,16.7763737 L36.5605349,15.9604265 L36.5605349,15.9604265 L36.4597116,15.1237701 L36.4597116,15.1237701 L36.3447834,14.1173632 L36.3447834,14.1173632 L36.245507,13.181542 L36.245507,13.181542 L36.160982,12.3039035 C36.1480738,12.1617899 36.1357427,12.0215839 36.12397,11.8830269 L36.0598839,11.0694071 L36.0598839,11.0694071 L36.0082982,10.2829628 C36.0006923,10.1534643 35.9935697,10.0245814 35.9869117,9.89605555 L35.9523883,9.12711912 L35.9523883,9.12711912 L35.9281143,8.354351 C35.9248727,8.22454796 35.9220206,8.09406847 35.9195393,7.96265415 L35.9078959,6.98708033 L35.9078959,6.98708033 L35.90969,6.08698169 L35.90969,6.08698169 L35.9274527,5.3819164 L35.9274527,5.3819164 L35.9668259,4.54580535 L35.9668259,4.54580535 L36.1646319,1.43726878 L36.1646319,1.43726878 L36.1927646,1.09926383 L36.1927646,1.09926383 L36.2173559,0.901607986 L36.2173559,0.901607986 L36.2367039,0.812160264 L36.2367039,0.812160264 L36.2680119,0.726875593 L36.2680119,0.726875593 C36.3745933,0.489526914 36.5214207,0.287868322 36.6160789,0.253770822 L36.6574191,0.241448446 L36.6574191,0.241448446 L36.7972711,0.212920953 L36.7972711,0.212920953 L36.9960106,0.181882168 L36.9960106,0.181882168 L37.3590128,0.137612762 C37.4015049,0.133179736 37.4442829,0.128975284 37.4869134,0.125066048 L37.6583484,0.100950436 C37.715223,0.0909706023 37.7690276,0.0795606437 37.8113635,0.0682540762 L37.865216,0.0515634577 C37.9439661,0.0195689983 38.0223885,0.00968951048 38.1541361,0.0162878332 L38.1541361,0.0162878332 Z M16.813202,18.3176296 L16.7533304,18.3270273 C16.7073438,18.3387233 16.6126308,18.3435174 16.5167689,18.3424373 L16.4222864,18.3394372 C16.3241897,18.331471 16.2213329,18.3354016 16.1402982,18.3500502 L16.0072161,18.3834304 L16.0072161,18.3834304 L15.8269976,18.4172342 C15.7927984,18.4227997 15.7573379,18.4281823 15.7218461,18.433159 L15.3798215,18.4725649 C15.0769659,18.510471 14.9919292,18.5525982 14.8957803,18.7147891 L14.8275226,18.8419748 L14.8275226,18.8419748 L14.7245391,19.0450919 L14.7580092,19.3537935 C14.7892526,19.6456257 14.857485,19.8927987 15.0089515,20.2388616 L15.091835,20.4207985 C15.149443,20.5448436 15.2261936,20.7222246 15.2846251,20.8680285 L15.3355627,21.0001619 C15.4487461,21.3059988 15.5430991,21.4619195 15.7331833,21.6384878 L15.9306334,21.8117121 L15.9306334,21.8117121 L16.1255277,21.9985502 L16.1255277,21.9985502 L16.2576936,22.1401244 L16.2576936,22.1401244 L16.3557928,22.2324392 L16.3557928,22.2324392 L16.4988608,22.3466957 L16.4988608,22.3466957 L16.7179612,22.5064432 L16.7179612,22.5064432 L17.6726478,23.173951 L17.6726478,23.173951 L18.1626285,23.5328099 L18.1626285,23.5328099 L18.5795789,23.8488357 L18.5795789,23.8488357 L19.4102423,24.4967213 L19.4102423,24.4967213 L20.9672471,25.7419093 C21.9171721,26.5079724 22.9204371,27.2700084 23.8191985,27.9081287 L24.4821228,28.3701791 L24.4821228,28.3701791 L25.2550783,28.8952017 L25.2550783,28.8952017 L25.709213,29.1951953 L25.709213,29.1951953 L26.1201984,29.458649 L26.1201984,29.458649 L26.4929941,29.6885434 L26.4929941,29.6885434 L26.8325595,29.8878593 L26.8325595,29.8878593 L27.1438542,30.0595772 C27.1936563,30.0860626 27.2424871,30.1115223 27.2904499,30.1360184 L27.5686375,30.271928 C27.6135417,30.292818 27.6577845,30.3128685 27.7014694,30.3321417 L27.9592037,30.4421696 C28.4554373,30.6433069 28.5708557,30.6018008 28.7622642,30.3083547 L28.8406868,30.1756011 L28.8406868,30.1756011 L28.8907581,30.0773206 C28.8956635,30.0657808 28.8985798,30.0571529 28.899103,30.052175 C28.9020481,30.024154 28.9262423,29.9732016 28.9550103,29.938478 C29.0341641,29.8429725 29.1153976,29.5179962 29.0918658,29.3834076 C29.0879995,29.3575158 29.0760688,29.3276605 29.0515233,29.2879277 L28.9842645,29.1935401 L28.9842645,29.1935401 L28.8752772,29.0622992 L28.8752772,29.0622992 L28.716472,28.8836914 L28.716472,28.8836914 L28.4647542,28.6097169 L28.4647542,28.6097169 L28.0932092,28.2190055 L28.0932092,28.2190055 L27.4440426,27.5567402 L27.4440426,27.5567402 L26.8150335,26.9349845 L26.8150335,26.9349845 L24.1838217,24.4173314 L24.1838217,24.4173314 L21.9400819,22.2279231 L21.9400819,22.2279231 L21.3940967,21.7018284 L21.3940967,21.7018284 L20.5430032,20.901383 L20.5430032,20.901383 L19.9035032,20.3256146 L19.9035032,20.3256146 L19.3084662,19.8105383 L19.3084662,19.8105383 L18.7783143,19.3698529 L18.7783143,19.3698529 L18.4561164,19.1152974 L18.4561164,19.1152974 L18.290023,18.9923383 C18.2660616,18.975353 18.2440553,18.9602001 18.2241464,18.9469969 L17.9649124,18.7905606 L17.9649124,18.7905606 L17.4968425,18.4838337 C17.3063729,18.3536983 17.2579929,18.336031 17.0744237,18.3198626 C16.9882015,18.3108003 16.8851875,18.3105895 16.813202,18.3176296 L16.813202,18.3176296 Z M14.5940317,39.7679601 C12.7313378,39.6226731 11.0855758,39.5943542 9.04553202,39.6724582 L8.06160674,39.7165382 C7.96265829,39.7217715 7.86670823,39.7271597 7.77329612,39.7327457 L7.23959507,39.7689807 L7.23959507,39.7689807 L6.74470261,39.8120302 C6.66422669,39.8198877 6.58444688,39.8281152 6.50490272,39.8367557 L6.02678186,39.8938993 C5.94633846,39.904364 5.86520979,39.9153277 5.78293539,39.9268336 L5.27185662,40.002718 L5.27185662,40.002718 L4.48643993,40.131915 L4.48643993,40.131915 L3.30768154,40.340807 L3.30768154,40.340807 L2.50389165,40.4957959 L2.50389165,40.4957959 L2.00350615,40.6008062 L2.00350615,40.6008062 L1.72629309,40.6639796 L1.72629309,40.6639796 L1.49890342,40.7207619 L1.49890342,40.7207619 L1.32538421,40.7703612 L1.32538421,40.7703612 L1.20978253,40.8119852 L1.20978253,40.8119852 C1.02534502,40.89358 0.873162312,41.0567041 0.731891754,41.3251607 C0.661277106,41.4591908 0.636248943,41.547923 0.615819083,41.7721791 C0.583107184,42.1099711 0.62778349,42.3488816 0.809986671,42.7561209 L0.884876895,42.9172479 C0.949116816,43.0530297 1.03687586,43.2638126 1.07760083,43.3843001 C1.15181627,43.5994699 1.2897384,43.8102046 1.4658188,43.982977 L1.57584165,44.0818167 C1.6431543,44.1360756 1.73998488,44.228825 1.82094767,44.3128629 L1.89494025,44.3922486 C2.19176103,44.7268434 2.40085551,44.8289629 3.05142786,44.7269206 L3.33645669,44.6752822 L3.33645669,44.6752822 L3.67610296,44.6022691 L3.67610296,44.6022691 L4.85039979,44.3264698 L4.85039979,44.3264698 L5.51995783,44.1754414 C5.62453041,44.1525691 5.72598244,44.1307798 5.8248984,44.1099735 L6.3926372,43.9961335 C6.48374682,43.9788599 6.57348934,43.9623695 6.66244926,43.9465625 L7.19149329,43.8591218 L7.19149329,43.8591218 L7.72980996,43.7832868 L7.72980996,43.7832868 L8.30545459,43.7142624 C8.40606465,43.7030595 8.50939902,43.6919405 8.61604218,43.6808057 L9.30028247,43.6130064 L9.30028247,43.6130064 C10.8860297,43.4651148 12.3598147,43.386433 14.1617035,43.3573558 L16.3906264,43.3360401 L16.3906264,43.3360401 L17.3733549,43.3170985 L17.3733549,43.3170985 L17.9653951,43.2990323 L17.9653951,43.2990323 L18.5102769,43.2764159 L18.5102769,43.2764159 L19.0108557,43.2490782 L19.0108557,43.2490782 L19.469987,43.2168483 L19.469987,43.2168483 L19.8905262,43.1795552 L19.8905262,43.1795552 L20.2753287,43.1370279 L20.2753287,43.1370279 L20.6272499,43.0890955 C20.683322,43.0806468 20.738143,43.0719658 20.7917724,43.0630489 L21.0997257,43.0066881 L21.0997257,43.0066881 L21.3690566,42.9484042 C21.5950444,42.8935288 21.7056726,42.843772 21.8329684,42.753166 C21.9513929,42.6719962 22.1803812,42.3398291 22.2445406,42.1746843 L22.261143,42.1153525 C22.2657252,42.0717555 22.3004866,42.009692 22.3417496,41.9759611 C22.428238,41.9001001 22.5591782,41.4610557 22.5508292,41.2714419 C22.5454419,41.1133951 22.455021,40.9876845 22.2990774,40.9175985 C22.2569189,40.9006117 22.1957709,40.8648882 22.1382355,40.825745 L22.057467,40.76638 C21.9074435,40.6513851 21.6775415,40.5641967 21.3066593,40.4857756 L21.0836686,40.4439157 L21.0836686,40.4439157 L20.4515966,40.3657967 L20.4515966,40.3657967 L17.7709602,40.0759695 L17.7709602,40.0759695 L15.4584371,39.844814 L15.4584371,39.844814 L14.5940317,39.7679601 L14.5940317,39.7679601 Z" id="Shape" fill="#3EEE91"></path>
    </g>
</svg>