<?xml version="1.0" encoding="UTF-8"?>
<svg width="1011px" height="412px" viewBox="0 0 1011 412" version="1.1" xmlns="http://www.w3.org/2000/svg" xmlns:xlink="http://www.w3.org/1999/xlink">
    <title>shape-jagged</title>
    <defs>
        <path d="M798.702899,0 L894.01328,12.8324251 L919.418222,251.986248 L948.79315,269.786112 L965.388222,311.561248 L1010.29022,311.561248 L1010.29022,410.561248 L931.790222,410.561248 L885.787294,379.336384 L866.195222,330.019248 L824.567164,296.290071 L821.434222,266.804248 L801.745945,304.824033 L751.130222,295.482248 L749.035935,316.072215 L651.064779,319.783704 L636.522222,238.548248 L632.841878,265.708435 L534.862834,266.568625 L526.376222,211.266248 L515.746267,282.37942 L472.881222,287.535248 L457.486875,371.943028 L365.180998,386.481017 L337.300222,334.566248 L331.74949,343.59689 L302.74949,380.59689 L270.553773,399.096994 L241.553773,403.096994 L185.470356,358.280352 L176.130222,249.104248 L145.854222,249.573248 L145.89559,251.480912 L145.935367,253.911098 C145.952032,255.118766 145.96386,256.315306 145.970835,257.500768 L145.978309,259.856932 L145.972815,262.183635 L145.954325,264.480963 L145.922813,266.749 L145.878251,268.98783 L145.820612,271.197539 C145.446194,284.002734 144.402934,295.325839 142.66663,305.242525 L142.496646,306.19666 L93.7902222,346.868621 L0,346.868621 L0,247.868621 L46.7732222,247.869248 L46.7101113,246.057133 L46.6336163,244.112753 L46.5479926,242.137399 L46.4023858,239.116459 L46.293831,237.064008 L46.1760601,234.980855 L46.0490484,232.867077 L45.9127709,230.722752 L45.7672027,228.547959 L45.6123189,226.342775 L45.3624722,222.978186 L45.0915254,219.545655 L44.7993946,216.045444 L44.5928303,213.674501 L44.3767886,211.273672 L44.1512447,208.843036 L43.7950577,205.141364 L43.5456492,202.63655 L43.2866514,200.102202 L43.0180393,197.538396 L42.739788,194.945211 L42.3042832,191.000518 L42.0018251,188.334226 L41.6896407,185.638826 L41.3677052,182.914398 L40.8664639,178.773496 L40.6667358,177.15494 L78.3062222,163.715248 L99.113656,51.0700352 L151.205222,51.7122481 L156.689286,8.78844133 L255.110088,10.8421445 L274.251222,234.600248 L301.874931,56.4754542 L399.947056,58.2426841 L415.826222,192.398248 L429.306222,190.995248 L446.834177,73.7430764 L503.572222,67.7532481 L507.627208,55.0312764 L560.921222,59.2042481 L563.738567,38.4140611 L660.503838,31.8832019 L673.612222,79.3472481 L679.54451,21.0502809 L777.975639,20.4894626 L780.822222,45.6242481 L798.702899,0 Z" id="path-1"></path>
    </defs>
    <g id="Shapes" stroke="none" stroke-width="1" fill="none" fill-rule="evenodd">
        <g id="shape-jagged" transform="translate(0.209778, 0.938752)">
            <mask id="mask-2" fill="white">
                <use xlink:href="#path-1"></use>
            </mask>
            <use id="Path" fill="#18181B" fill-rule="nonzero" xlink:href="#path-1"></use>
        </g>
    </g>
</svg>