<?xml version="1.0" encoding="UTF-8"?>
<svg width="78px" height="64px" viewBox="0 0 78 64" version="1.1" xmlns="http://www.w3.org/2000/svg" xmlns:xlink="http://www.w3.org/1999/xlink">
    <title>Group 13</title>
    <g id="Shapes" stroke="none" stroke-width="1" fill="none" fill-rule="evenodd">
        <g id="Group-13" transform="translate(0.676440, 0.000000)">
            <g id="Group" transform="translate(31.323560, 0.000000)">
                <path d="M7.14315787,15.3019882 C9.80680814,24.361053 20.0753474,32.8554607 30.0336269,34.2337853 C32.3570492,34.554693 34.5253416,34.4740276 36.4468365,34.0145861 L34.1128372,37.1009109 C32.1472713,39.6962296 28.4294431,40.8290511 23.909523,40.2012645 C14.8855483,38.9509523 5.59362207,31.2930088 3.1943977,23.1352911 C2.21249618,19.8017095 2.55624985,16.7995572 4.15867083,14.6812161 L6.50148434,11.5861233 C6.55436952,12.7785669 6.76767308,14.025372 7.14315787,15.3019882 M36.2264816,38.6826524 L42.7119676,30.1145938 L42.7154933,30.109333 C43.0127162,29.7349006 43.0827899,29.2297145 42.8986066,28.7892053 C42.7144232,28.3486962 42.3048692,28.0419515 41.82838,27.987635 C41.3518909,27.9333185 40.8831969,28.1399489 40.6036117,28.5275916 L40.5983232,28.5328523 C38.6327573,31.1246638 34.9149291,32.2539781 30.4002975,31.6296987 C21.37456,30.3776329 12.0843966,22.721443 9.68340938,14.5637253 C8.7032707,11.2283902 9.04526154,8.22623782 10.6494454,6.10789668 C11.0885341,5.52632262 10.9705412,4.70077881 10.3859009,4.26399297 C9.80126049,3.82720713 8.97136406,3.94458116 8.53227528,4.5261552 L8.5287496,4.53141599 L2.04678928,13.1012282 C-0.0721436299,15.8964565 -0.563975811,19.7227978 0.655909025,23.873554 C3.3195593,32.9326188 13.5880986,41.4270265 23.5446153,42.8071047 C24.4824458,42.9368706 25.3955966,43 26.2770163,43 C30.5607159,43 34.1022602,41.4866487 36.2247188,38.6826524" id="Shape" fill="#001207"></path>
                <path d="M7.14315787,15.3019882 C9.80680814,24.361053 20.0753474,32.8554607 30.0336269,34.2337853 C32.3570492,34.554693 34.5253416,34.4740276 36.4468365,34.0145861 L34.1128372,37.1009109 C32.1472713,39.6962296 28.4294431,40.8290511 23.909523,40.2012645 C14.8855483,38.9509523 5.59362207,31.2930088 3.1943977,23.1352911 C2.21249618,19.8017095 2.55624985,16.7995572 4.15867083,14.6812161 L6.50148434,11.5861233 C6.55436952,12.7785669 6.76767308,14.025372 7.14315787,15.3019882 M36.2264816,38.6826524 L42.7119676,30.1145938 L42.7154933,30.109333 C43.0127162,29.7349006 43.0827899,29.2297145 42.8986066,28.7892053 C42.7144232,28.3486962 42.3048692,28.0419515 41.82838,27.987635 C41.3518909,27.9333185 40.8831969,28.1399489 40.6036117,28.5275916 L40.5983232,28.5328523 C38.6327573,31.1246638 34.9149291,32.2539781 30.4002975,31.6296987 C21.37456,30.3776329 12.0843966,22.721443 9.68340938,14.5637253 C8.7032707,11.2283902 9.04526154,8.22623782 10.6494454,6.10789668 C11.0885341,5.52632262 10.9705412,4.70077881 10.3859009,4.26399297 C9.80126049,3.82720713 8.97136406,3.94458116 8.53227528,4.5261552 L8.5287496,4.53141599 L2.04678928,13.1012282 C-0.0721436299,15.8964565 -0.563975811,19.7227978 0.655909025,23.873554 C3.3195593,32.9326188 13.5880986,41.4270265 23.5446153,42.8071047 C24.4824458,42.9368706 25.3955966,43 26.2770163,43 C30.5607159,43 34.1022602,41.4866487 36.2247188,38.6826524" id="Shape" fill="#3EEE91"></path>
                <path d="M21.262128,2.85903083 C30.2181498,4.13806811 39.4436572,11.9701534 41.8252801,20.3170825 C42.8612247,23.9461041 42.4167485,27.1517698 40.5723469,29.3403049 C38.5634542,31.724373 34.9813955,32.7450914 30.737872,32.1387595 C21.7818502,30.8579283 12.5563428,23.0258431 10.1747199,14.6807078 C9.13877526,11.0498923 9.58325153,7.84602052 11.4276531,5.65748548 C13.0550662,3.72368156 15.718424,2.690406 18.9312524,2.690406 C19.6802124,2.690406 20.4589209,2.74601631 21.262128,2.86082471 M42.5584909,31.1001023 C45.0048603,28.1958087 45.6383265,24.098584 44.3433956,19.5636524 C41.7010367,10.2964622 31.5078309,1.60690176 21.6243586,0.195117271 C16.484883,-0.536786252 12.0436202,0.810418517 9.44150909,3.89948192 C6.99513971,6.80198167 6.36167353,10.8992063 7.65660439,15.4341379 C10.2989633,24.703122 20.4921691,33.3908886 30.3773913,34.8026731 C31.2960922,34.9336264 32.1920444,35 33.0582481,35 C37.0445353,35 40.421855,33.6348564 42.5602408,31.0983084" id="Shape" fill="#3EEE91"></path>
            </g>
            <path d="M36.4752852,56.9066539 C37.0180101,57.2957489 38.6461848,58.463034 40.1662651,56.2402928 C40.5671635,55.6540781 40.4288708,55.3641661 40.3835803,54.7398272 C40.3340284,54.0567448 39.8723972,53.1219143 39.1354256,53.0168569 C37.860972,52.8351799 37.2067079,52.2890416 36.3671907,53.5166277 C35.5276736,54.7442137 35.9325603,56.5175588 36.4752852,56.9066539 Z M62.8901491,58.6598739 C63.0278935,57.99633 63.4411459,56.0057024 60.8488859,55.4415114 C60.1652081,55.292752 59.9586021,55.5363687 59.4149956,55.823003 C58.8202415,56.1366066 58.1601692,56.9369552 58.3536766,57.6725903 C58.6883112,58.9447328 58.4529548,59.7747612 59.8846181,60.0863662 C61.3162931,60.3979165 62.7523919,59.3234151 62.8901491,58.6598739 Z M51.1772011,61.2435544 C51.3149373,60.5800088 51.3423174,59.892446 49.5084947,59.4933156 C48.824817,59.3445562 48.6182109,59.5881729 48.0746044,59.8748072 C47.4798503,60.1884107 46.601774,61.0755903 47.0132854,61.7243945 C47.5236012,62.5289773 47.2503144,63.1630228 48.6819797,63.4746187 C50.1136527,63.7861782 51.0394357,61.9070939 51.1772011,61.2435544 Z M54.0763866,54.4957024 C54.3715446,53.0738207 53.8218714,52.4588215 52.5844446,52.1894974 C52.1231129,52.0891165 51.9814349,52.2644119 51.6114427,52.473133 C51.2066382,52.7014925 50.5809579,53.7349838 50.7060908,54.2575893 C50.9224846,55.1613373 51.5328603,55.4282663 51.8956866,55.507229 C52.2585129,55.5861918 53.781184,55.9175745 54.0763866,54.4957024 Z M19.215112,43.4293493 C19.8415556,43.2084808 21.7209008,42.5459173 20.8580869,39.9802849 C20.6305326,39.3036377 20.3201727,39.2477845 19.8002315,38.9183232 C19.2313693,38.557863 18.2213748,38.3907694 17.7051829,38.9394786 C16.8125261,39.888368 15.9964292,40.1093069 16.4729481,41.5262665 C16.9494671,42.9432262 18.5886588,43.6501899 19.215112,43.4293493 Z M36.1266732,22.5794608 C35.6833442,22.0753362 34.3533573,20.5629626 32.3838904,22.3786257 C31.864473,22.8574797 31.9355263,23.1718133 31.8424859,23.7905818 C31.7406915,24.4675698 31.9851047,25.4847649 32.6801062,25.7568712 C33.8819804,26.2274277 34.3994868,26.9102605 35.4871933,25.9074974 C36.5748998,24.9047344 36.5700022,23.0835853 36.1266732,22.5794608 Z M31.2834597,33.8003779 C30.8401307,33.2962533 30.3129479,32.8694342 28.9197015,34.1538761 C28.4002841,34.6327301 28.4713374,34.9470637 28.3782971,35.5658322 C28.2765027,36.2428202 28.4613855,37.4916339 29.2159173,37.5321216 C30.151613,37.5823303 30.4919689,38.1813863 31.5796754,37.1786233 C32.667382,36.1758603 31.7267887,34.3045024 31.2834597,33.8003779 Z M27.655749,27.4325947 C26.7057583,26.3523278 25.896728,26.4461546 24.9565936,27.3128701 C24.6061012,27.6359911 24.6613343,27.8563843 24.6087789,28.2855455 C24.5512786,28.7550861 25.0001241,29.8808309 25.4866111,30.0843585 C26.327899,30.4363214 26.8975822,30.0876218 27.1732385,29.8334927 C27.4488947,29.5793636 28.6057397,28.5128615 27.655749,27.4325947 Z M53.9720286,31.9418787 C53.3095846,31.9300453 51.322253,31.8945279 51.2760006,34.6075805 C51.2638028,35.3231075 51.5367883,35.4842765 51.9153189,35.9759459 C52.3294652,36.5138762 53.2227332,37.0245804 53.8910875,36.6897265 C55.0468805,36.1106595 55.8875638,36.188832 55.9131084,34.6904544 C55.9386523,33.1920768 54.6344723,31.9537235 53.9720286,31.9418787 Z M31.1155967,45.6121354 C31.3637903,46.2411058 32.1083713,48.1280171 34.5655745,47.1115349 C35.2136251,46.8434529 35.2518578,46.5231939 35.5459825,45.9743234 C35.8677812,45.3738098 35.9778949,44.3323686 35.4157024,43.8332915 C34.4434963,42.9702315 34.1852949,42.1473542 32.828219,42.7087418 C31.4711432,43.2701295 30.8674031,44.9831649 31.1155967,45.6121354 Z M39.4149998,36.7639559 C39.6631935,37.3929263 40.0160073,37.9786181 41.7542895,37.2595351 C42.4023402,36.9914531 42.4405729,36.6711942 42.7346975,36.1223236 C43.0564962,35.52181 43.2999208,34.2835654 42.6044174,33.9812917 C41.741923,33.6064418 41.6222036,32.9243248 40.2651277,33.4857125 C38.9080518,34.0471001 39.1668062,36.1349855 39.4149998,36.7639559 Z M40.9170529,43.9710999 C41.4488964,45.3188936 42.2404784,45.5140377 43.4134362,45.028815 C43.8507277,44.8479187 43.8724464,44.6214749 44.0651906,44.2365996 C44.2760701,43.8155116 44.2303406,42.6004774 43.8411793,42.2388622 C43.1681981,41.6135167 42.5163902,41.741691 42.172468,41.8839628 C41.8285458,42.0262346 40.3852094,42.623306 40.9170529,43.9710999 Z M12.0347549,30.1091375 C10.6411006,29.8317694 10.0501297,30.4052163 9.80874192,31.6767043 C9.7187499,32.1507288 9.89240343,32.2927087 10.1026827,32.667836 C10.3327469,33.0782588 11.3528997,33.700746 11.8610548,33.5635237 C12.7398134,33.3262236 12.9898245,32.6967086 13.0606175,32.3238995 C13.1313789,31.9510842 13.428409,30.3865055 12.0347549,30.1091375 Z M0.498116501,26.9902854 C-0.336385027,28.1663069 -0.0785422217,28.9570478 0.944925523,29.7183978 C1.32648546,30.0022374 1.52555095,29.9010988 1.94647011,29.8645057 C2.40699333,29.8244696 3.38913535,29.1408927 3.48242592,28.6113572 C3.64375443,27.6956253 3.19218608,27.1975827 2.89209575,26.9743478 C2.59200542,26.7511128 1.33261802,25.814264 0.498116501,26.9902854 Z" id="Combined-Shape" fill="#2B2B30"></path>
        </g>
    </g>
</svg>