<?xml version="1.0" encoding="UTF-8"?>
<svg width="470px" height="476px" viewBox="0 0 470 476" version="1.1" xmlns="http://www.w3.org/2000/svg" xmlns:xlink="http://www.w3.org/1999/xlink">
    <title>Group 5</title>
    <g id="Shapes" stroke="none" stroke-width="1" fill="none" fill-rule="evenodd" stroke-linecap="square">
        <g id="Group-5" transform="translate(7.500000, 7.250000)" stroke="#3EEE91" stroke-width="14">
            <g id="Group" transform="translate(4.000000, 235.750000) rotate(-270.000000) translate(-4.000000, -235.750000) translate(-221.500000, 231.750000)">
                <path d="M0,4.47855495 L0,4.47855495 C10.7442077,3.34988399 21.4884154,2.22121303 31.6567308,1.72972163 C41.8250462,1.23823023 51.4183365,1.38336863 61.5788462,2.82925496 C71.7393558,4.27514129 82.4679519,7.02067601 92.8019231,7.77715494 C103.135894,8.53363387 113.076108,7.30160677 122.724038,5.02832162 C132.371969,2.75503646 141.728051,-0.55895699 152.2125,0.08042164 C162.696949,0.71980027 174.309332,5.31145145 185.170192,6.12785494 C196.031053,6.94425844 206.139524,3.98431472 216.393269,3.92878829 C226.647014,3.87326185 237.046034,6.72160294 247.616346,7.22738827 C258.186659,7.7331736 268.928698,5.89475388 279.273077,5.57808828 C289.617456,5.26142268 299.56374,6.46486191 309.628846,7.22738827 C319.693952,7.98991464 329.878746,8.3104286 339.550962,6.67762161 C349.223177,5.04481462 358.383681,1.45923643 369.473077,0.630188304 C380.562473,-0.198859825 393.580762,1.7286221 404.599038,2.82925496 C415.617315,3.92988782 424.635581,4.20422139 451,4.47855495" id="Path"></path>
            </g>
            <g id="Group" transform="translate(228.750000, 5.000000) rotate(-360.000000) translate(-228.750000, -5.000000) translate(3.250000, 0.000000)">
                <path d="M0,5.03441645 L0,5.03441645 C9.17611538,4.19022002 18.3522308,3.34602358 28.6211538,3.96242098 C38.8900769,4.57881837 50.2518077,6.65527359 60.7115385,7.71440511 C71.1712692,8.77353663 80.729,8.81480846 91.0673077,8.78640058 C101.405615,8.7579927 112.5245,8.66044111 123.157692,7.17840738 C133.790885,5.69637365 143.937084,2.83039377 154.814423,1.81843004 C165.691762,0.806466324 177.299809,1.64959076 188.205769,3.42642325 C199.11173,5.20325573 209.315171,7.91433227 218.561538,7.71440511 C227.807906,7.51447796 236.097199,4.40408311 246.749038,4.49841871 C257.400878,4.59275431 270.41483,7.89128437 281.007692,7.71440511 C291.600555,7.53752586 299.771461,3.88362931 309.628846,1.81843004 C319.486232,-0.246769223 331.029663,-0.724343203 341.285577,1.28243231 C351.54149,3.28920783 360.509018,7.78033283 370.774038,9.32239831 C381.039059,10.8644638 392.602005,9.45639775 403.298077,8.25040285 C413.994149,7.04440795 423.824214,6.0394122 451,5.03441645" id="Path"></path>
            </g>
        </g>
    </g>
</svg>