<?xml version="1.0" encoding="UTF-8"?>
<svg width="74px" height="81px" viewBox="0 0 74 81" version="1.1" xmlns="http://www.w3.org/2000/svg" xmlns:xlink="http://www.w3.org/1999/xlink">
    <title>Shape</title>
    <g id="Shapes" stroke="none" stroke-width="1" fill="none" fill-rule="evenodd">
        <path d="M38.1541361,0.0162878332 L38.2637837,0.024238084 C38.3968336,0.0358626911 38.509819,0.0365296196 38.5989559,0.0245139255 L38.6800031,0.00820680384 C38.9319122,-0.0616692239 39.1647927,0.00375733558 39.2878333,0.167541634 L39.3335753,0.243649097 C39.3793989,0.345548263 39.4685897,0.408086608 39.6477607,0.457959866 L39.7450604,0.481964663 C39.9451528,0.524568515 40.0035172,0.554587208 40.0525653,0.667172568 L40.0841345,0.75205369 L40.0841345,0.75205369 L40.1061684,0.843548836 L40.1061684,0.843548836 L40.1162908,0.980469251 L40.1162908,0.980469251 L40.1131264,1.20969875 L40.1131264,1.20969875 L40.0380601,2.49412206 L40.0380601,2.49412206 L39.8808334,5.05825859 L39.8808334,5.05825859 L39.8097701,6.41202584 L39.8097701,6.41202584 L39.7198354,7.88463296 L39.7198354,7.88463296 L39.6755309,8.76627535 L39.6755309,8.76627535 L39.6442038,9.60201042 C39.6400237,9.73939135 39.6363543,9.87629749 39.6331802,10.0134479 L39.6199605,10.8450329 L39.6199605,10.8450329 L39.6179067,11.7169917 L39.6179067,11.7169917 L39.6262943,12.663837 L39.6262943,12.663837 L39.666052,14.9232664 L39.666052,14.9232664 L39.6930995,17.1806568 L39.6930995,17.1806568 L39.6963878,18.3347172 L39.6963878,18.3347172 L39.6866229,18.6643971 C39.6766352,18.874491 39.6600633,19.0587161 39.6391351,19.1781732 C39.5730802,19.5676568 39.4409518,19.9281966 39.3270033,20.0263363 C39.275272,20.0704274 39.2531422,20.1017389 39.2485586,20.1468296 L39.2493772,20.197497 C39.2530514,20.2521599 39.2438544,20.2948535 39.2086683,20.3494047 L39.1208034,20.4672411 L39.1208034,20.4672411 L39.0183503,20.6297078 L39.0183503,20.6297078 L38.9722453,20.712659 C38.8576345,20.9365933 38.6668628,21.1084443 38.5038449,21.1353489 C38.3612222,21.1608193 38.33423,21.1614366 38.2319471,21.0537705 L38.1736475,20.9905276 C38.0945021,20.9067146 37.994621,20.8112653 37.947549,20.781153 C37.8395206,20.7077682 37.6967794,20.5036122 37.6030138,20.2943669 L37.4420264,19.8972989 L37.4420264,19.8972989 L37.3319533,19.6539026 L37.3319533,19.6539026 L37.241883,19.4375317 L37.241883,19.4375317 L37.1584252,19.2077553 C37.1450055,19.1680461 37.1318154,19.1275563 37.1188322,19.0861749 L37.0432302,18.8262995 C37.0309823,18.7809077 37.0188952,18.7344023 37.0069462,18.6866723 L36.9367245,18.3847086 L36.9367245,18.3847086 L36.8687143,18.0480253 L36.8687143,18.0480253 L36.8018153,17.6712941 L36.8018153,17.6712941 L36.7349273,17.2491864 L36.7349273,17.2491864 L36.6669501,16.7763737 L36.6669501,16.7763737 L36.5605349,15.9604265 L36.5605349,15.9604265 L36.4597116,15.1237701 L36.4597116,15.1237701 L36.3447834,14.1173632 L36.3447834,14.1173632 L36.245507,13.181542 L36.245507,13.181542 L36.160982,12.3039035 C36.1480738,12.1617899 36.1357427,12.0215839 36.12397,11.8830269 L36.0598839,11.0694071 L36.0598839,11.0694071 L36.0082982,10.2829628 C36.0006923,10.1534643 35.9935697,10.0245814 35.9869117,9.89605555 L35.9523883,9.12711912 L35.9523883,9.12711912 L35.9281143,8.354351 C35.9248727,8.22454796 35.9220206,8.09406847 35.9195393,7.96265415 L35.9078959,6.98708033 L35.9078959,6.98708033 L35.90969,6.08698169 L35.90969,6.08698169 L35.9274527,5.3819164 L35.9274527,5.3819164 L35.9668259,4.54580535 L35.9668259,4.54580535 L36.1646319,1.43726878 L36.1646319,1.43726878 L36.1927646,1.09926383 L36.1927646,1.09926383 L36.2173559,0.901607986 L36.2173559,0.901607986 L36.2367039,0.812160264 L36.2367039,0.812160264 L36.2680119,0.726875593 L36.2680119,0.726875593 C36.3745933,0.489526914 36.5214207,0.287868322 36.6160789,0.253770822 L36.6574191,0.241448446 L36.6574191,0.241448446 L36.7972711,0.212920953 L36.7972711,0.212920953 L36.9960106,0.181882168 L36.9960106,0.181882168 L37.3590128,0.137612762 C37.4015049,0.133179736 37.4442829,0.128975284 37.4869134,0.125066048 L37.6583484,0.100950436 C37.715223,0.0909706023 37.7690276,0.0795606437 37.8113635,0.0682540762 L37.865216,0.0515634577 C37.9439661,0.0195689983 38.0223885,0.00968951048 38.1541361,0.0162878332 L38.1541361,0.0162878332 Z M58.5279966,15.1217991 L58.7669697,15.1228752 L58.7669697,15.1228752 L58.9533309,15.116193 C58.980976,15.1141653 59.0061265,15.1116982 59.0276024,15.1088179 L59.0798253,15.0989639 C59.3409112,15.0352027 59.5718554,15.1098056 59.7504998,15.3204838 C59.8067777,15.3901123 59.8557248,15.4288793 59.9258923,15.455727 L60.0041906,15.4793032 C60.1755743,15.5193155 60.2519194,15.5997087 60.2928731,15.7770814 C60.3227544,15.9123374 60.2728921,16.3692639 60.2076214,16.6402781 L60.1578647,16.806631 L60.1578647,16.806631 L60.019734,17.2113398 C59.9796962,17.3304554 59.9136533,17.4851011 59.8562039,17.593544 L59.7479159,17.7824829 C59.7283745,17.8189879 59.7127172,17.8511734 59.7038682,17.8741125 L59.6960664,17.9009703 C59.6870972,17.986307 59.570763,18.2152441 59.4584869,18.3736191 L59.4032029,18.4459348 C59.3347725,18.5299851 59.230077,18.6888838 59.1744592,18.7994456 C59.027763,19.0961352 58.878378,19.3039364 58.5630309,19.6279853 L57.9676258,20.2217232 L57.9676258,20.2217232 L57.3876755,20.8265867 L57.3876755,20.8265867 L56.5100472,21.7688425 L56.5100472,21.7688425 L55.2946905,23.1049421 L55.2946905,23.1049421 L54.1977969,24.3777072 L54.1977969,24.3777072 L53.0282428,25.7549127 L53.0282428,25.7549127 L52.7969263,26.035449 L52.7969263,26.035449 L52.4336619,26.4908111 L52.4336619,26.4908111 L51.6728575,27.4812418 L51.6728575,27.4812418 L51.3677894,27.8676174 C50.5838789,28.8385388 50.0387673,29.3323221 49.7795835,29.3050808 C49.7588142,29.3028979 49.7125418,29.2715047 49.6656508,29.2294075 L49.4120889,28.9770199 L49.4120889,28.9770199 C49.3615406,28.9213774 49.283773,28.7936307 49.2412967,28.6916325 L49.0303445,28.1566268 L49.0303445,28.1566268 C48.7726149,27.5034629 48.7621267,26.8573714 48.9962368,26.0608344 C49.1977659,25.3783022 49.6889843,24.2450912 50.1866014,23.2929597 L50.4188752,22.8636252 L50.4188752,22.8636252 L50.7458337,22.3008716 L50.7458337,22.3008716 L50.9780328,21.919821 L50.9780328,21.919821 L51.2060239,21.5588113 L51.2060239,21.5588113 L51.4164446,21.2390534 C51.4821717,21.1416994 51.5427434,21.054756 51.5959325,20.9817581 L51.7377284,20.7979452 L51.7377284,20.7979452 L52.1808029,20.2629823 L52.1808029,20.2629823 L52.7176636,19.631879 L52.7176636,19.631879 L53.0366494,19.2674341 L53.0366494,19.2674341 L53.9385209,18.2737958 L53.9385209,18.2737958 L54.9891621,17.1419705 L54.9891621,17.1419705 L55.6929158,16.3988073 L55.6929158,16.3988073 L56.0366424,16.0540253 L56.0366424,16.0540253 L56.253825,15.847773 C56.2869155,15.8173999 56.3185547,15.7889428 56.3488956,15.7622738 L56.5165855,15.6226965 L56.5165855,15.6226965 L56.6604604,15.5199033 C56.7276682,15.4766807 56.7886994,15.4449524 56.8476852,15.4212688 C57.0220734,15.3506049 57.3319929,15.2849417 57.6500072,15.2505031 L57.8090989,15.2360073 C57.8945376,15.2308321 58.0131945,15.2114316 58.108363,15.1891398 L58.1936018,15.166304 C58.2809526,15.1400819 58.3938634,15.1254045 58.5279966,15.1217991 L58.5279966,15.1217991 Z M16.813202,18.3176296 L16.7533304,18.3270273 C16.7073438,18.3387233 16.6126308,18.3435174 16.5167689,18.3424373 L16.4222864,18.3394372 C16.3241897,18.331471 16.2213329,18.3354016 16.1402982,18.3500502 L16.0072161,18.3834304 L16.0072161,18.3834304 L15.8269976,18.4172342 C15.7927984,18.4227997 15.7573379,18.4281823 15.7218461,18.433159 L15.3798215,18.4725649 C15.0769659,18.510471 14.9919292,18.5525982 14.8957803,18.7147891 L14.8275226,18.8419748 L14.8275226,18.8419748 L14.7245391,19.0450919 L14.7580092,19.3537935 C14.7892526,19.6456257 14.857485,19.8927987 15.0089515,20.2388616 L15.091835,20.4207985 C15.149443,20.5448436 15.2261936,20.7222246 15.2846251,20.8680285 L15.3355627,21.0001619 C15.4487461,21.3059988 15.5430991,21.4619195 15.7331833,21.6384878 L15.9306334,21.8117121 L15.9306334,21.8117121 L16.1255277,21.9985502 L16.1255277,21.9985502 L16.2576936,22.1401244 L16.2576936,22.1401244 L16.3557928,22.2324392 L16.3557928,22.2324392 L16.4988608,22.3466957 L16.4988608,22.3466957 L16.7179612,22.5064432 L16.7179612,22.5064432 L17.6726478,23.173951 L17.6726478,23.173951 L18.1626285,23.5328099 L18.1626285,23.5328099 L18.5795789,23.8488357 L18.5795789,23.8488357 L19.4102423,24.4967213 L19.4102423,24.4967213 L20.9672471,25.7419093 C21.9171721,26.5079724 22.9204371,27.2700084 23.8191985,27.9081287 L24.4821228,28.3701791 L24.4821228,28.3701791 L25.2550783,28.8952017 L25.2550783,28.8952017 L25.709213,29.1951953 L25.709213,29.1951953 L26.1201984,29.458649 L26.1201984,29.458649 L26.4929941,29.6885434 L26.4929941,29.6885434 L26.8325595,29.8878593 L26.8325595,29.8878593 L27.1438542,30.0595772 C27.1936563,30.0860626 27.2424871,30.1115223 27.2904499,30.1360184 L27.5686375,30.271928 C27.6135417,30.292818 27.6577845,30.3128685 27.7014694,30.3321417 L27.9592037,30.4421696 C28.4554373,30.6433069 28.5708557,30.6018008 28.7622642,30.3083547 L28.8406868,30.1756011 L28.8406868,30.1756011 L28.8907581,30.0773206 C28.8956635,30.0657808 28.8985798,30.0571529 28.899103,30.052175 C28.9020481,30.024154 28.9262423,29.9732016 28.9550103,29.938478 C29.0341641,29.8429725 29.1153976,29.5179962 29.0918658,29.3834076 C29.0879995,29.3575158 29.0760688,29.3276605 29.0515233,29.2879277 L28.9842645,29.1935401 L28.9842645,29.1935401 L28.8752772,29.0622992 L28.8752772,29.0622992 L28.716472,28.8836914 L28.716472,28.8836914 L28.4647542,28.6097169 L28.4647542,28.6097169 L28.0932092,28.2190055 L28.0932092,28.2190055 L27.4440426,27.5567402 L27.4440426,27.5567402 L26.8150335,26.9349845 L26.8150335,26.9349845 L24.1838217,24.4173314 L24.1838217,24.4173314 L21.9400819,22.2279231 L21.9400819,22.2279231 L21.3940967,21.7018284 L21.3940967,21.7018284 L20.5430032,20.901383 L20.5430032,20.901383 L19.9035032,20.3256146 L19.9035032,20.3256146 L19.3084662,19.8105383 L19.3084662,19.8105383 L18.7783143,19.3698529 L18.7783143,19.3698529 L18.4561164,19.1152974 L18.4561164,19.1152974 L18.290023,18.9923383 C18.2660616,18.975353 18.2440553,18.9602001 18.2241464,18.9469969 L17.9649124,18.7905606 L17.9649124,18.7905606 L17.4968425,18.4838337 C17.3063729,18.3536983 17.2579929,18.336031 17.0744237,18.3198626 C16.9882015,18.3108003 16.8851875,18.3105895 16.813202,18.3176296 L16.813202,18.3176296 Z M61.8936904,37.927859 C64.1045555,37.7166399 66.4133177,37.6509513 68.2247136,37.7469685 L68.5094101,37.7689105 L68.5094101,37.7689105 L69.5422337,37.8699068 L69.5422337,37.8699068 L70.7700535,38.0018642 L70.7700535,38.0018642 L71.6853755,38.1105563 L71.6853755,38.1105563 L71.8333239,38.1322445 C71.8493452,38.1350301 71.8607871,38.1373732 71.867258,38.1392321 C72.038445,38.1849219 72.1971363,38.2715625 72.3332283,38.3900699 L72.4309021,38.4847836 C72.4900441,38.5499948 72.5494303,38.5957569 72.6152921,38.625396 L72.6835432,38.6497839 C72.9951909,38.7328691 73.1749901,38.9059214 73.2426666,39.1867622 C73.2789277,39.3478936 73.2278016,39.8647705 73.1514137,40.054975 L73.0741737,40.2703423 C73.0609008,40.3093808 73.0485667,40.3472387 73.0388795,40.379787 C73.0149563,40.4504229 72.9737622,40.5333987 72.9369019,40.5885197 L72.9022865,40.6328669 C72.849719,40.6839628 72.8100306,40.7647427 72.7890888,40.8726578 C72.7681471,40.9805729 72.7166772,41.0821138 72.6368569,41.1870061 C72.610724,41.2194902 72.5764187,41.2682339 72.539701,41.3239766 L72.4280712,41.5029413 L72.4280712,41.5029413 L72.3776289,41.5908082 C72.0994919,42.0869909 71.806996,42.3582664 71.3859696,42.5090823 L71.2634268,42.5490803 L71.2634268,42.5490803 L71.1431798,42.5780547 C71.1226566,42.5819507 71.1017239,42.5853765 71.0801292,42.5883268 L70.9405973,42.6002788 L70.9405973,42.6002788 L70.7730563,42.6005579 C70.7421253,42.5996172 70.7095222,42.5981794 70.6749944,42.5962389 L70.4427113,42.5785217 L70.4427113,42.5785217 L70.1521144,42.5484824 L70.1521144,42.5484824 L69.5803639,42.4797513 C67.0922772,42.1740266 65.2377034,42.142221 62.5506537,42.3755313 L60.9582604,42.5212308 L60.9582604,42.5212308 L60.567272,42.550248 L60.567272,42.550248 L60.2124715,42.5688942 L60.2124715,42.5688942 L59.8556316,42.5787589 L59.8556316,42.5787589 L59.4585251,42.5814316 L59.4585251,42.5814316 L58.0074199,42.5662476 L58.0074199,42.5662476 L57.0263874,42.5443275 C56.9281473,42.5412055 56.832675,42.5378079 56.7391507,42.5340877 L56.1948202,42.50752 L56.1948202,42.50752 L55.6578826,42.4709592 C55.5668225,42.4639079 55.4744306,42.4563464 55.3798868,42.4482279 L54.7802431,42.3924565 L54.7802431,42.3924565 L54.0895985,42.3210643 L54.0895985,42.3210643 L52.8851654,42.183563 L52.8851654,42.183563 L52.5835122,42.1411308 L52.5835122,42.1411308 L52.4442731,42.1144144 L52.4442731,42.1144144 L52.3801628,42.0972054 L52.3801628,42.0972054 L52.3311148,42.0793389 L52.3311148,42.0793389 C52.2967891,42.0657132 52.2500935,42.0393271 52.1945514,42.0030675 L52.0049092,41.8675556 L52.0049092,41.8675556 L51.7833294,41.6901261 L51.7833294,41.6901261 L51.5509531,41.4881018 L51.5509531,41.4881018 L51.2082588,41.1655333 C51.1715867,41.1335891 51.1401102,41.1088385 51.1187698,41.0954217 L51.0949788,41.0843144 C50.9766928,41.0718821 50.8027265,40.6949184 50.8700205,40.5950408 C50.8991026,40.5509022 50.9421021,40.5305626 51.0461463,40.5319598 L51.2033171,40.5439382 L51.2033171,40.5439382 L51.4371878,40.5759923 L51.4371878,40.5759923 L51.795622,40.6325389 L52.0537112,40.3875103 L52.0537112,40.3875103 L52.2115601,40.2294998 C52.6296477,39.7991998 53.1746254,39.5406287 54.3889517,39.2308742 L54.8767594,39.1118816 C54.9636431,39.0915045 55.0534063,39.0708186 55.1461815,39.0497696 L56.0245912,38.8676432 L56.0245912,38.8676432 L57.4881387,38.5864488 L57.4881387,38.5864488 L58.8587299,38.3407916 L58.8587299,38.3407916 L60.196564,38.1217774 L60.196564,38.1217774 L60.6364595,38.061791 L60.6364595,38.061791 L60.9923763,38.0199675 L60.9923763,38.0199675 L61.8936904,37.927859 L61.8936904,37.927859 Z M14.5940317,39.7679601 C12.7313378,39.6226731 11.0855758,39.5943542 9.04553202,39.6724582 L8.06160674,39.7165382 C7.96265829,39.7217715 7.86670823,39.7271597 7.77329612,39.7327457 L7.23959507,39.7689807 L7.23959507,39.7689807 L6.74470261,39.8120302 C6.66422669,39.8198877 6.58444688,39.8281152 6.50490272,39.8367557 L6.02678186,39.8938993 C5.94633846,39.904364 5.86520979,39.9153277 5.78293539,39.9268336 L5.27185662,40.002718 L5.27185662,40.002718 L4.48643993,40.131915 L4.48643993,40.131915 L3.30768154,40.340807 L3.30768154,40.340807 L2.50389165,40.4957959 L2.50389165,40.4957959 L2.00350615,40.6008062 L2.00350615,40.6008062 L1.72629309,40.6639796 L1.72629309,40.6639796 L1.49890342,40.7207619 L1.49890342,40.7207619 L1.32538421,40.7703612 L1.32538421,40.7703612 L1.20978253,40.8119852 L1.20978253,40.8119852 C1.02534502,40.89358 0.873162312,41.0567041 0.731891754,41.3251607 C0.661277106,41.4591908 0.636248943,41.547923 0.615819083,41.7721791 C0.583107184,42.1099711 0.62778349,42.3488816 0.809986671,42.7561209 L0.884876895,42.9172479 C0.949116816,43.0530297 1.03687586,43.2638126 1.07760083,43.3843001 C1.15181627,43.5994699 1.2897384,43.8102046 1.4658188,43.982977 L1.57584165,44.0818167 C1.6431543,44.1360756 1.73998488,44.228825 1.82094767,44.3128629 L1.89494025,44.3922486 C2.19176103,44.7268434 2.40085551,44.8289629 3.05142786,44.7269206 L3.33645669,44.6752822 L3.33645669,44.6752822 L3.67610296,44.6022691 L3.67610296,44.6022691 L4.85039979,44.3264698 L4.85039979,44.3264698 L5.51995783,44.1754414 C5.62453041,44.1525691 5.72598244,44.1307798 5.8248984,44.1099735 L6.3926372,43.9961335 C6.48374682,43.9788599 6.57348934,43.9623695 6.66244926,43.9465625 L7.19149329,43.8591218 L7.19149329,43.8591218 L7.72980996,43.7832868 L7.72980996,43.7832868 L8.30545459,43.7142624 C8.40606465,43.7030595 8.50939902,43.6919405 8.61604218,43.6808057 L9.30028247,43.6130064 L9.30028247,43.6130064 C10.8860297,43.4651148 12.3598147,43.386433 14.1617035,43.3573558 L16.3906264,43.3360401 L16.3906264,43.3360401 L17.3733549,43.3170985 L17.3733549,43.3170985 L17.9653951,43.2990323 L17.9653951,43.2990323 L18.5102769,43.2764159 L18.5102769,43.2764159 L19.0108557,43.2490782 L19.0108557,43.2490782 L19.469987,43.2168483 L19.469987,43.2168483 L19.8905262,43.1795552 L19.8905262,43.1795552 L20.2753287,43.1370279 L20.2753287,43.1370279 L20.6272499,43.0890955 C20.683322,43.0806468 20.738143,43.0719658 20.7917724,43.0630489 L21.0997257,43.0066881 L21.0997257,43.0066881 L21.3690566,42.9484042 C21.5950444,42.8935288 21.7056726,42.843772 21.8329684,42.753166 C21.9513929,42.6719962 22.1803812,42.3398291 22.2445406,42.1746843 L22.261143,42.1153525 C22.2657252,42.0717555 22.3004866,42.009692 22.3417496,41.9759611 C22.428238,41.9001001 22.5591782,41.4610557 22.5508292,41.2714419 C22.5454419,41.1133951 22.455021,40.9876845 22.2990774,40.9175985 C22.2569189,40.9006117 22.1957709,40.8648882 22.1382355,40.825745 L22.057467,40.76638 C21.9074435,40.6513851 21.6775415,40.5641967 21.3066593,40.4857756 L21.0836686,40.4439157 L21.0836686,40.4439157 L20.4515966,40.3657967 L20.4515966,40.3657967 L17.7709602,40.0759695 L17.7709602,40.0759695 L15.4584371,39.844814 L15.4584371,39.844814 L14.5940317,39.7679601 L14.5940317,39.7679601 Z M51.3581678,53.010736 C51.2974367,52.8693123 51.29777,52.8661416 51.361693,52.8287817 C51.4349858,52.7859951 51.5882519,52.7928876 51.6114244,52.8426074 C51.6165773,52.8525657 51.6329945,52.867615 51.6555174,52.8845081 L51.7362453,52.9374722 L51.7362453,52.9374722 C51.8103349,52.975393 51.8565879,52.9883328 51.961312,52.9851577 L52.052167,52.9798933 C52.6800394,52.9356582 53.0161337,53.0215727 53.7061557,53.4366149 L54.0265535,53.6356818 L54.0265535,53.6356818 L54.3110884,53.819894 L54.3110884,53.819894 L54.7619944,54.1246666 L54.7619944,54.1246666 L55.2634113,54.4789369 L55.2634113,54.4789369 L55.8396243,54.8999767 L55.8396243,54.8999767 L57.0321522,55.7969974 L57.0321522,55.7969974 L57.7803746,56.3724229 L57.7803746,56.3724229 L58.7222133,57.1162674 L58.7222133,57.1162674 L59.4546851,57.7118433 L59.4546851,57.7118433 L60.5657442,58.6372125 L60.5657442,58.6372125 L61.4038768,59.3443226 L61.4038768,59.3443226 L62.2818809,60.0681577 L62.2818809,60.0681577 L63.2227238,60.8153508 L63.2227238,60.8153508 L65.3636255,62.4301282 L65.3636255,62.4301282 L65.6257243,62.6259695 L65.6257243,62.6259695 L66.352072,63.1885101 L66.352072,63.1885101 L67.2488012,63.8900349 L67.2488012,63.8900349 L67.7538578,64.2797996 L67.7538578,64.2797996 C67.8607519,64.3663688 67.9988301,64.6357355 68.0510216,64.858408 C68.1185762,65.1708523 68.0625502,65.6430154 67.8964622,66.1196392 L67.825448,66.3147299 C67.7753323,66.4428095 67.7425514,66.4944074 67.6871884,66.5427123 L67.6509414,66.5718856 C67.5568435,66.6458115 67.5382684,66.6645071 67.5363624,66.7562854 L67.5367482,66.8211489 C67.5398591,66.9346375 67.5347906,66.9749455 67.4835131,67.0408639 L67.4357965,67.0966482 C67.4129754,67.121979 67.3824781,67.1631086 67.3496072,67.2117209 L67.2491766,67.3716898 L67.2491766,67.3716898 L67.2035631,67.4529177 C67.0030606,67.8345615 66.8130794,68.0285749 66.5034604,68.1659354 C66.3255596,68.2450114 66.0378905,68.2648654 65.8583078,68.2115291 L65.7946541,68.1860042 L65.7946541,68.1860042 L65.7073687,68.1370858 L65.7073687,68.1370858 L65.59113,68.0610184 L65.59113,68.0610184 L65.4406164,67.9540463 L65.4406164,67.9540463 L65.1389399,67.7274263 L65.1389399,67.7274263 L64.5578809,67.2751139 L64.5578809,67.2751139 L64.109296,66.9180799 L64.109296,66.9180799 L63.844309,66.7001862 L63.844309,66.7001862 L63.4520611,66.3636981 L63.4520611,66.3636981 L63.1672921,66.1097007 L63.1672921,66.1097007 L62.6593612,65.6443558 L62.6593612,65.6443558 L61.7239108,64.7704959 L61.7239108,64.7704959 L61.0382663,64.1192726 L61.0382663,64.1192726 L60.4127328,63.5119658 L60.4127328,63.5119658 L59.7952106,62.896715 L59.7952106,62.896715 L59.1336004,62.2216598 L59.1336004,62.2216598 L58.0928234,61.1389218 L58.0928234,61.1389218 L57.3560002,60.3677805 L57.3560002,60.3677805 L56.0980491,59.0676008 L56.0980491,59.0676008 L55.1564075,58.1050479 L55.1564075,58.1050479 L54.380168,57.2972098 L54.380168,57.2972098 L53.900007,56.7822021 L53.900007,56.7822021 L53.4739359,56.3086563 L53.4739359,56.3086563 L53.0719355,55.8437879 L53.0719355,55.8437879 L52.6639865,55.3548121 L52.6639865,55.3548121 L52.3738916,54.9992455 L52.3738916,54.9992455 L51.9888947,54.517257 L51.9888947,54.517257 L51.8131909,54.2841444 C51.7978381,54.2626382 51.7837019,54.2423515 51.7706091,54.2230391 L51.7031851,54.1168909 L51.7031851,54.1168909 L51.6524815,54.0223416 L51.6524815,54.0223416 L51.5569594,53.8006279 L51.5569594,53.8006279 L51.4833473,53.6191757 L51.4833473,53.6191757 L51.4440693,53.5030718 C51.4354409,53.471084 51.4306476,53.4437208 51.4278025,53.4147155 L51.4232241,53.3165063 L51.4232241,53.3165063 C51.4204164,53.2252491 51.3909797,53.0867139 51.3581678,53.010736 Z M29.3619785,51.5902239 L29.286982,51.6097979 C29.247968,51.6222268 29.1637457,51.6281009 29.0780694,51.6267784 L28.9935289,51.6230333 C28.9117447,51.6168417 28.8183782,51.6200266 28.7572002,51.631948 L28.6680473,51.6590962 L28.6680473,51.6590962 L28.5389515,51.6841437 L28.5389515,51.6841437 L28.3821161,51.7034289 L28.3821161,51.7034289 L28.1452659,51.7280795 L28.1452659,51.7280795 L27.984357,51.7529355 C27.8953058,51.7710748 27.8356054,51.7938518 27.7627022,51.8302679 L27.6759879,51.8877253 L27.6759879,51.8877253 L27.2992781,52.1757953 L27.2992781,52.1757953 L26.7296168,52.6309991 L26.7296168,52.6309991 L25.7183263,53.4598634 L25.7183263,53.4598634 L24.8000011,54.2345345 L24.8000011,54.2345345 L24.474533,54.5208768 L24.474533,54.5208768 L24.0913425,54.868864 L24.0913425,54.868864 L23.4809253,55.4352967 L23.4809253,55.4352967 L21.6232402,57.1835165 L21.6232402,57.1835165 L20.715288,58.0017092 L20.715288,58.0017092 L19.8534478,58.7410727 L19.8534478,58.7410727 L17.7165089,60.5474003 L17.7165089,60.5474003 L17.2556191,60.9543951 L17.2556191,60.9543951 L17.0781296,61.1197916 L17.0781296,61.1197916 L16.9289938,61.2665017 L16.9289938,61.2665017 L16.8029992,61.3995613 L16.8029992,61.3995613 L16.6949333,61.524006 L16.6949333,61.524006 L16.5995838,61.6448715 L16.5995838,61.6448715 L16.5117381,61.7671937 L16.5117381,61.7671937 L16.4261838,61.8960081 L16.4261838,61.8960081 C16.0624478,62.4584481 15.9381341,62.8641283 15.8398632,63.7694309 C15.786153,64.2804491 15.797246,64.5068653 15.9924747,65.0381109 L16.1179416,65.3616551 L16.1179416,65.3616551 L16.195716,65.5527431 C16.3632308,65.960645 16.4572384,66.1119776 16.6043883,66.2059836 C16.64178,66.2312517 16.7073111,66.2912589 16.7683586,66.3560355 L16.8267034,66.4212918 C16.9589745,66.5674297 16.97073,66.5750767 17.1062442,66.5704862 C17.3928614,66.5625431 17.6166501,66.3752887 17.9071538,65.9121423 L18.0620309,65.6669403 L18.0620309,65.6669403 L18.1842284,65.4891548 L18.1842284,65.4891548 L18.3129278,65.284608 L18.3129278,65.284608 L18.362922,65.2125456 L18.362922,65.2125456 L18.423857,65.1400317 L18.423857,65.1400317 L18.5041698,65.0596229 L18.5041698,65.0596229 L18.6122975,64.9638752 L18.6122975,64.9638752 L18.9457455,64.6965888 L18.9457455,64.6965888 L19.3315961,64.4004973 L19.3315961,64.4004973 C20.4424388,63.5523324 21.6666632,62.4751416 22.8751409,61.2853755 L23.4746128,60.6839782 L23.4746128,60.6839782 L24.1657065,59.9600626 L24.1657065,59.9600626 L25.8003499,58.2217367 L25.8003499,58.2217367 L26.3606078,57.6396991 L26.3606078,57.6396991 L27.2037316,56.7896582 L27.2037316,56.7896582 L27.9113696,56.080796 L27.9113696,56.080796 L28.4554967,55.5211172 L28.4554967,55.5211172 L28.7712546,55.1828023 L28.7712546,55.1828023 L29.0195285,54.9014725 C29.0437541,54.872952 29.0669244,54.8452731 29.0891041,54.8183645 L29.2637264,54.5950611 L29.2637264,54.5950611 L29.3556082,54.4636016 L29.3556082,54.4636016 L29.4314918,54.34208 L29.4314918,54.34208 L29.50769,54.2096359 L29.50769,54.2096359 L29.6215329,54.036772 C29.6410937,54.0089246 29.6601336,53.9827756 29.6774307,53.9601501 C29.7323846,53.885683 29.7812427,53.8017846 29.8065792,53.7357001 L29.8234298,53.6765626 C29.8300955,53.6331847 29.8524343,53.5732884 29.8795776,53.5209021 L29.9225371,53.4509587 C30.0577054,53.2704185 30.217447,52.7963335 30.2527718,52.4602408 C30.2872975,52.1317507 30.2686254,52.0294341 30.0801926,51.9529505 L29.9281418,51.9035899 L29.9281418,51.9035899 C29.8732113,51.8884999 29.8169909,51.8518611 29.760517,51.7966564 L29.7039969,51.7353736 C29.5991936,51.6058615 29.5037386,51.5627085 29.3619785,51.5902239 L29.3619785,51.5902239 Z M38.8639219,56.8591527 L38.9587023,56.8454536 C39.0163061,56.8356798 39.0879377,56.8266792 39.1569507,56.8198076 L39.3394874,56.8069358 L39.3394874,56.8069358 L39.5309903,56.8056066 C39.6572509,56.8090001 39.7097942,56.8255032 39.76059,56.869039 L39.7914335,56.8985158 C39.8218317,56.9289593 39.8723756,56.9656164 39.9223922,56.9943226 L39.9944376,57.029648 C40.1301289,57.0819776 40.2444336,57.2198156 40.3772442,57.4822172 C40.7811213,58.3064829 41.0715661,59.7346778 41.2106211,61.5790699 L41.2540122,62.2512784 L41.2540122,62.2512784 L41.2852947,62.9807286 L41.2852947,62.9807286 L41.3212087,64.3769298 L41.3212087,64.3769298 L41.369702,66.9160506 L41.369702,66.9160506 L41.4069231,68.3284721 L41.4069231,68.3284721 L41.4606241,69.7518504 L41.4606241,69.7518504 L41.5662357,72.111738 L41.5662357,72.111738 L41.6146199,73.3621929 L41.6146199,73.3621929 L41.6455985,74.4209258 L41.6455985,74.4209258 L41.6592579,75.3071847 L41.6592579,75.3071847 L41.6581885,75.8702717 L41.6581885,75.8702717 L41.6521082,76.20179 L41.6521082,76.20179 L41.6271143,76.770358 L41.6271143,76.770358 L41.6082223,77.0122198 L41.6082223,77.0122198 L41.5850813,77.2290082 L41.5850813,77.2290082 L41.5577021,77.423129 L41.5577021,77.423129 L41.5260954,77.5969884 L41.5260954,77.5969884 C41.4523661,77.9500598 41.2583201,78.5067324 41.1216652,78.7709409 L41.0734569,78.8553409 C41.0287303,78.9212658 40.9849631,79.0123111 40.9587325,79.0847443 L40.9389613,79.1493539 C40.925217,79.2116228 40.8850146,79.2922986 40.8274988,79.3766207 L40.7645504,79.4616115 C40.7052069,79.5353167 40.6252018,79.6514798 40.563837,79.7540493 L40.5101411,79.8500117 C40.3252556,80.2048462 40.15239,80.3882364 39.9145236,80.4670206 C39.7153359,80.5340919 39.6228787,80.5209556 39.4730471,80.3700967 L39.4048425,80.2968432 C39.3666409,80.2538786 39.3236087,80.2093805 39.2821609,80.1690497 L39.168985,80.0662597 L39.168985,80.0662597 L39.1279894,80.0349299 C38.9300111,79.9040254 38.802957,79.7422258 38.6748416,79.4466663 L38.4953983,79.0010684 L38.4953983,79.0010684 L38.2698943,78.491301 L38.2698943,78.491301 L38.144955,78.1925844 L38.144955,78.1925844 L38.0800601,78.0198643 C38.0602628,77.9623663 38.0422625,77.9045275 38.0259477,77.8451002 L37.9819479,77.6608045 L37.9819479,77.6608045 L37.9473907,77.4594899 C37.9423808,77.4241032 37.9377365,77.3876955 37.9334438,77.3501107 L37.9117946,77.109229 L37.9117946,77.109229 L37.8979133,76.8326099 L37.8979133,76.8326099 L37.89113,76.5127661 L37.89113,76.5127661 L37.8907748,76.1422101 L37.8907748,76.1422101 L37.9008294,75.4749124 L37.9008294,75.4749124 L37.926058,74.0589206 L37.926058,74.0589206 L37.9360789,72.581191 L37.9360789,72.581191 L37.9397916,69.0310757 L37.9397916,69.0310757 L37.9539607,67.6269663 L37.9539607,67.6269663 L37.9739251,66.5863542 L37.9739251,66.5863542 L38.028504,64.6807509 L38.028504,64.6807509 L38.135274,61.5984802 L38.135274,61.5984802 L38.2228399,58.4032583 L38.2228399,58.4032583 L38.2504656,57.7820571 L38.2504656,57.7820571 L38.2699857,57.5267604 L38.2699857,57.5267604 L38.2919877,57.3644122 L38.2919877,57.3644122 L38.3109426,57.2860545 L38.3109426,57.2860545 L38.3178425,57.2657654 C38.3477259,57.1903663 38.3788538,57.0738245 38.3891044,57.0059791 L38.4053099,56.8818582 L38.6611199,56.8782469 L38.6611199,56.8782469 L38.8639219,56.8591527 L38.8639219,56.8591527 Z" id="Shape" fill="#FE3AC6"></path>
    </g>
</svg>