<?xml version="1.0" encoding="UTF-8"?>
<svg width="409px" height="124px" viewBox="0 0 409 124" version="1.1" xmlns="http://www.w3.org/2000/svg" xmlns:xlink="http://www.w3.org/1999/xlink">
    <title>Group</title>
    <defs>
        <linearGradient x1="50%" y1="82%" x2="52.1686491%" y2="18%" id="linearGradient-1">
            <stop stop-color="#7C39FF" offset="0%"></stop>
            <stop stop-color="#04B9FF" offset="49.7267007%"></stop>
            <stop stop-color="#00EBBF" offset="100%"></stop>
        </linearGradient>
        <linearGradient x1="50%" y1="100%" x2="51.3823445%" y2="0%" id="linearGradient-2">
            <stop stop-color="#7C39FF" offset="0%"></stop>
            <stop stop-color="#04B9FF" offset="49.7267007%"></stop>
            <stop stop-color="#00EBBF" offset="100%"></stop>
        </linearGradient>
        <linearGradient x1="50%" y1="82%" x2="52.1686491%" y2="18%" id="linearGradient-3">
            <stop stop-color="#00EBBF" offset="0%"></stop>
            <stop stop-color="#04B9FF" offset="50.2732993%"></stop>
            <stop stop-color="#7C39FF" offset="100%"></stop>
        </linearGradient>
    </defs>
    <g id="WM-Uniform-Minimal" stroke="none" stroke-width="1" fill="none" fill-rule="evenodd">
        <g id="uniform-min-color" transform="translate(-336.000000, -478.000000)" fill-rule="nonzero">
            <g id="Group" transform="translate(336.000000, 478.000000)">
                <path d="M115.962456,9.24609251 C122.673855,-0.474838396 136.00607,-2.92225333 145.740791,3.77963827 C155.378165,10.4145109 157.876653,23.5292526 151.413595,33.2230934 L151.215,33.5157889 L95.1262719,114.755877 C86.7017585,126.958119 68.7470317,127.080142 60.131914,115.121945 L59.8737281,114.755877 L3.78500012,33.5157889 C-2.92639888,23.794858 -0.475512009,10.4815299 9.25920916,3.77963827 C18.8965831,-2.85523441 32.0598604,-0.522871764 38.8342259,8.95664852 L39.0375439,9.24609251 L77.4993541,64.9555588 L115.962456,9.24609251 Z" id="Path" fill="url(#linearGradient-1)"></path>
                <path d="M164.267515,3.77957822 C173.913534,-2.85518905 187.08862,-0.522863458 193.869062,8.95650622 L194.072562,9.24594562 L250.211605,90.4847436 C256.929024,100.20552 254.475939,113.518637 244.732485,120.220422 C235.086466,126.855189 221.91138,124.522863 215.130938,115.043494 L214.927438,114.754054 L158.788395,33.5152564 C152.070976,23.7944799 154.524061,10.4813633 164.267515,3.77957822 Z" id="Path" fill="url(#linearGradient-2)" transform="translate(204.500000, 62.000000) scale(1, -1) translate(-204.500000, -62.000000) "></path>
                <path d="M369.962456,9.24609251 C376.673855,-0.474838396 390.00607,-2.92225333 399.740791,3.77963827 C409.378165,10.4145109 411.876653,23.5292526 405.413595,33.2230934 L405.215,33.5157889 L349.126272,114.755877 C340.701758,126.958119 322.747032,127.080142 314.131914,115.121945 L313.873728,114.755877 L257.785,33.5157889 C251.073601,23.794858 253.524488,10.4815299 263.259209,3.77963827 C272.896583,-2.85523441 286.05986,-0.522871764 292.834226,8.95664852 L293.037544,9.24609251 L331.499557,64.9555588 L369.962456,9.24609251 Z" id="Path" fill="url(#linearGradient-3)" transform="translate(331.500000, 62.000000) scale(1, -1) translate(-331.500000, -62.000000) "></path>
            </g>
        </g>
    </g>
</svg>