<?xml version="1.0" encoding="UTF-8"?>
<svg width="486px" height="126px" viewBox="0 0 486 126" version="1.1" xmlns="http://www.w3.org/2000/svg" xmlns:xlink="http://www.w3.org/1999/xlink">
    <title>Combined Shape</title>
    <defs>
        <linearGradient x1="50%" y1="100%" x2="50%" y2="0%" id="linearGradient-1">
            <stop stop-color="#7C39FF" offset="0%"></stop>
            <stop stop-color="#04B9FF" offset="49.7267007%"></stop>
            <stop stop-color="#00EBBF" offset="100%"></stop>
        </linearGradient>
    </defs>
    <g id="WM-Angle" stroke="none" stroke-width="1" fill="none" fill-rule="evenodd">
        <g id="angle-color" transform="translate(-297.000000, -477.000000)" fill="url(#linearGradient-1)" fill-rule="nonzero">
            <path d="M450.463737,486.101111 L450.670252,486.395223 L479.155497,527.670429 C485.972404,537.548149 483.482987,551.076209 473.595228,557.886195 C463.806347,564.628082 450.436132,562.258101 443.555268,552.625685 L443.348753,552.331572 L432.727,536.942 L393.621736,593.606779 C385.064782,606.005831 366.827792,606.129821 358.077238,593.97875 L357.814993,593.606779 L300.844503,511.056366 C294.027596,501.178646 296.517013,487.650587 306.404772,480.8406 C316.193653,474.098713 329.563868,476.468695 336.444732,486.101111 L336.651247,486.395223 L375.717709,543.003229 L414.785483,486.395223 C419.019141,480.260639 425.846637,476.976745 432.781754,477.000124 L432.817292,477.000112 C439.591403,477.021769 446.246434,480.197372 450.463737,486.101111 Z M686.671355,486.021106 C695.419108,473.870228 713.65026,473.994217 722.204475,486.393072 L722.204475,486.393072 L779.156727,568.942173 L779.35838,569.239585 C785.920941,579.089621 783.383987,592.415679 773.598239,599.157459 C763.713645,605.967338 750.176172,603.480488 743.361446,593.602924 L743.361446,593.602924 L704.306385,536.995818 L665.252222,593.602924 L665.045774,593.897032 C660.936195,599.651719 654.511095,602.814244 647.917314,602.990231 C647.886428,602.990327 647.855068,602.991241 647.823709,602.992086 C647.792316,602.99323 647.761332,602.993858 647.730345,602.994419 C640.765746,603.152342 633.858772,599.966475 629.525847,593.899034 L629.319399,593.604926 L600.843273,552.330376 C594.028547,542.452812 596.517167,528.924968 606.401761,522.11509 C616.187509,515.37331 629.553444,517.743254 636.432106,527.375517 L636.638554,527.669624 L647.285,543.101 L686.409194,486.393072 Z M499.361126,599.159461 C509.10458,605.90124 522.412747,603.531297 529.261679,593.899034 L529.467235,593.604926 L586.173338,511.055825 C592.95861,501.178262 590.480746,487.650418 580.638874,480.840539 C570.89542,474.09876 557.587253,476.468703 550.738321,486.100966 L550.532765,486.395074 L493.826662,568.944175 C487.04139,578.821738 489.519254,592.349582 499.361126,599.159461 Z" id="Combined-Shape"></path>
        </g>
    </g>
</svg>