<?xml version="1.0" encoding="UTF-8"?>
<svg width="360px" height="360px" viewBox="0 0 360 360" version="1.1" xmlns="http://www.w3.org/2000/svg" xmlns:xlink="http://www.w3.org/1999/xlink">
    <title>Group</title>
    <defs>
        <linearGradient x1="50%" y1="100%" x2="51.1963744%" y2="0%" id="linearGradient-1">
            <stop stop-color="#7C39FF" offset="0%"></stop>
            <stop stop-color="#04B9FF" offset="49.7267007%"></stop>
            <stop stop-color="#00EBBF" offset="100%"></stop>
        </linearGradient>
        <linearGradient x1="0%" y1="73.2677461%" x2="91.6293222%" y2="13.1827433%" id="linearGradient-2">
            <stop stop-color="#7C39FF" offset="0%"></stop>
            <stop stop-color="#04B9FF" offset="21.4066939%"></stop>
            <stop stop-color="#00EBBF" offset="56.441215%"></stop>
            <stop stop-color="#1D1D21" offset="100%"></stop>
        </linearGradient>
        <linearGradient x1="0%" y1="73.3635009%" x2="91.6293222%" y2="13.0312277%" id="linearGradient-3">
            <stop stop-color="#1D1D21" offset="0%"></stop>
            <stop stop-color="#00EBBF" offset="43.558785%"></stop>
            <stop stop-color="#04B9FF" offset="78.5933061%"></stop>
            <stop stop-color="#7C39FF" offset="100%"></stop>
        </linearGradient>
    </defs>
    <g id="WM-Circle" stroke="none" stroke-width="1" fill="none" fill-rule="evenodd">
        <g id="circle-color" transform="translate(-366.000000, -366.000000)" fill-rule="nonzero">
            <g id="Group" transform="translate(366.000000, 366.000000)">
                <path d="M146.817916,86.1515071 C147.91983,77.9408472 155.469162,72.1780696 163.679822,73.279983 C171.785217,74.3677694 177.505094,81.738716 176.590352,89.8264326 L176.551346,90.1418889 L153.119584,264.738385 C151.167757,279.28198 131.727792,282.597625 124.992575,269.75661 L124.792397,269.362538 L89.13,196.843 L52.8649139,262.854518 C48.9298416,270.017063 40.0018418,272.694881 32.7909926,268.936509 L32.4956403,268.778427 C25.3330956,264.843355 22.6552776,255.915355 26.4136497,248.704506 L26.5717316,248.409153 L76.7209015,157.128575 C82.5079239,146.595145 97.663651,146.832169 103.164254,157.408262 L103.327964,157.731914 L129.947,211.861 L146.817916,86.1515071 Z" id="Path-6" fill="url(#linearGradient-1)"></path>
                <path d="M304.817916,92.1515071 C305.91983,83.9408472 313.469162,78.1780696 321.679822,79.279983 C329.785217,80.3677694 335.505094,87.738716 334.590352,95.8264326 L334.551346,96.1418889 L311.119584,270.738385 C309.167757,285.28198 289.727792,288.597625 282.992575,275.75661 L282.792397,275.362538 L247.13,202.843 L210.864914,268.854518 C206.929842,276.017063 198.001842,278.694881 190.790993,274.936509 L190.49564,274.778427 C183.333096,270.843355 180.655278,261.915355 184.41365,254.704506 L184.571732,254.409153 L234.720902,163.128575 C240.507924,152.595145 255.663651,152.832169 261.164254,163.408262 L261.327964,163.731914 L287.947,217.861 L304.817916,92.1515071 Z" id="Path-6" fill="url(#linearGradient-1)" transform="translate(258.700954, 181.448659) scale(-1, -1) translate(-258.700954, -181.448659) "></path>
                <path d="M174,0 C209.890328,0 244.186949,10.9061775 273.062526,30.934996 C279.86959,35.6565451 281.560234,45.0023328 276.838685,51.8093971 C272.117136,58.6164613 262.771348,60.3071054 255.964284,55.5855562 C232.070698,39.0123707 203.729525,30 174,30 C94.470996,30 30,94.470996 30,174 C30,200.781421 37.3081693,226.452268 50.9294775,248.808386 C55.2399148,255.882937 52.9991576,265.112294 45.924606,269.422732 C38.8500545,273.733169 29.6206974,271.492412 25.31026,264.41786 C8.84370199,237.391945 1.13686838e-13,206.327351 1.13686838e-13,174 C1.13686838e-13,77.9024535 77.9024535,0 174,0 Z" id="Path" fill="url(#linearGradient-2)"></path>
                <path d="M311.965451,87.8139603 C318.94454,83.3506117 328.220467,85.3900215 332.683816,92.3691096 C350.424897,120.109845 360,152.365422 360,186 C360,282.097546 282.097546,360 186,360 C148.977025,360 113.662466,348.392481 84.2658582,327.174538 C77.5485684,322.326119 76.0335493,312.950259 80.8819684,306.232969 C85.7303875,299.515679 95.1062471,298.00066 101.823537,302.849079 C126.150683,320.407976 155.333326,330 186,330 C265.529004,330 330,265.529004 330,186 C330,158.136925 322.087551,131.482316 307.410302,108.532324 C302.946954,101.553236 304.986363,92.2773088 311.965451,87.8139603 Z" id="Path" fill="url(#linearGradient-3)"></path>
            </g>
        </g>
    </g>
</svg>