<?xml version="1.0" encoding="UTF-8"?>
<svg width="593px" height="206px" viewBox="0 0 593 206" version="1.1" xmlns="http://www.w3.org/2000/svg" xmlns:xlink="http://www.w3.org/1999/xlink">
    <title>Combined Shape</title>
    <defs>
        <linearGradient x1="0%" y1="48.6216055%" x2="100%" y2="50%" id="linearGradient-1">
            <stop stop-color="#7C39FF" offset="0%"></stop>
            <stop stop-color="#04B9FF" offset="49.7267007%"></stop>
            <stop stop-color="#00EBBF" offset="100%"></stop>
        </linearGradient>
    </defs>
    <g id="WM-Waveform" stroke="none" stroke-width="1" fill="none" fill-rule="evenodd">
        <g id="waveform-horizontal-01-color" transform="translate(-244.000000, -437.000000)" fill="url(#linearGradient-1)" fill-rule="nonzero">
            <path d="M263.761645,486 C285.676263,486 301.697631,494.081856 310.603733,509.800687 C314.062462,515.905174 316.169295,522.629374 317.472303,530.398037 C317.585809,531.074771 317.69119,531.736749 317.789853,532.395229 L317.912247,533.234677 L318.063054,534.34056 L318.169517,535.178658 L318.237673,535.744291 L318.368052,536.898757 L318.430643,537.49054 L318.521798,538.400549 L318.639209,539.66333 L318.753252,540.993422 L318.8654,542.402625 L319.005166,544.293352 L319.11844,545.923692 L319.436397,550.77181 L319.56997,552.694175 L319.703834,554.486457 L319.811829,555.83098 L319.921199,557.099722 L320.032471,558.296001 L320.117493,559.147654 L320.233367,560.225115 L320.352597,561.239245 L320.47571,562.193364 L320.570912,562.87157 L320.668818,563.519288 L320.769651,564.137919 L320.873635,564.728865 L320.980992,565.293527 L321.054547,565.656057 L321.16802,566.180023 L321.245859,566.51672 L321.325527,566.84381 L321.407091,567.161708 L321.533134,567.622229 L321.619725,567.918963 L321.753618,568.349684 L321.845648,568.627849 L321.939969,568.899313 L322.036647,569.16449 L322.135749,569.423796 L322.237341,569.677645 L322.39454,570.049097 L322.448256,570.170635 C322.490878,570.266055 322.533486,570.358882 322.576308,570.449212 L322.705648,570.712801 C323.553527,572.378632 324.570272,573.130142 327.457215,573.660704 L327.744258,573.711085 L327.881898,573.705607 C330.126778,573.605895 331.613076,573.271296 332.519459,572.845717 L332.625453,572.79422 C333.023857,572.593866 333.245218,572.387476 333.616961,571.802536 L333.784785,571.528595 L333.894596,571.337987 L334.002868,571.140503 L334.109702,570.935718 L334.215202,570.723209 L334.37117,570.389039 L334.473777,570.15537 L334.575405,569.912497 L334.676156,569.659996 L334.776132,569.397445 L334.875435,569.124419 L335.023349,568.694317 L335.121414,568.393255 L335.219162,568.080239 L335.316695,567.754844 L335.462814,567.242618 L335.609023,566.700161 L335.755663,566.126045 L335.853834,565.725007 L336.051617,564.877124 L336.201618,564.199463 L336.404489,563.237535 L336.611389,562.205785 L336.876918,560.812751 L337.151605,559.298719 L337.43704,557.657076 L337.795991,555.509351 L338.333086,552.222181 L338.544534,550.955803 L338.851851,549.162977 L338.999631,548.325965 L339.144566,547.523694 L339.287463,546.752517 L339.499749,545.646081 L339.641075,544.936692 L339.854782,543.905849 L339.999573,543.235464 L340.147161,542.5743 L340.298351,541.918712 L340.453949,541.265054 L340.614761,540.609682 L340.781593,539.948949 L340.95525,539.27921 C342.666999,532.759415 344.951575,527.109514 348.28772,521.986982 C356.937708,508.705238 371.043876,501.764551 389.558237,501.764551 C409.28301,501.764551 423.561314,511.606499 430.974172,528.43474 C433.593392,534.380742 435.306859,540.942806 436.537762,548.690458 C436.667179,549.505046 436.787617,550.297521 436.901773,551.08932 L437.082355,552.380133 L437.25167,553.668516 L437.415215,554.995095 L437.543548,556.096973 L437.702895,557.541477 L437.798878,558.45149 L437.994158,560.388633 L438.232339,562.883878 L438.64471,567.44046 L438.969773,571.102708 L439.142827,572.974487 L439.31646,574.76602 L439.447385,576.058464 L439.623315,577.715389 L439.801293,579.298723 L439.93644,580.439385 L440.073265,581.541035 L440.165524,582.254298 L440.305645,583.293195 L440.448045,584.295802 L440.544354,584.944549 L440.641843,585.577924 L440.740579,586.196229 L440.840627,586.799766 L440.942055,587.388837 L441.044929,587.963746 L441.202099,588.800216 L441.308882,589.341042 L441.472227,590.127805 L441.639578,590.886106 L441.753482,591.376331 L441.869333,591.854662 L442.046907,592.55052 L442.167919,593.00044 L442.291111,593.439524 L442.416551,593.868077 L442.544306,594.286399 L442.674441,594.694793 L442.807025,595.093563 L442.942123,595.48301 L443.079803,595.863436 C443.102968,595.926106 443.126244,595.988412 443.149632,596.050362 L443.291309,596.417825 L443.435735,596.777025 L443.582976,597.128264 L443.733099,597.471844 L443.88617,597.808068 L444.042257,598.137237 L444.201426,598.459656 L444.38452,598.814705 L444.568876,599.154341 C444.661508,599.320349 444.754927,599.480676 444.849601,599.635469 L445.040763,599.937721 C446.360374,601.953287 447.972963,602.953679 451.076939,603.316102 L451.541965,603.364629 L452.029119,603.40431 C452.361449,603.427875 452.709087,603.445717 453.073146,603.458187 L453.312389,603.465331 L453.458599,603.443035 C457.480429,602.802086 459.149053,601.368402 460.748043,597.601555 L460.928886,597.165069 L461.088594,596.762814 L461.22474,596.407316 L461.35773,596.047814 L461.487636,595.683877 L461.676875,595.128712 L461.799395,594.751801 L461.977898,594.175152 L462.093489,593.78257 L462.261943,593.180394 L462.424699,592.560961 L462.582002,591.922816 L462.734102,591.264504 L462.881245,590.584568 L462.976709,590.118545 L463.070154,589.641834 L463.161653,589.154004 L463.295412,588.400465 L463.382367,587.882948 L463.509654,587.082858 L463.633387,586.252897 L463.753815,585.39161 L463.871184,584.49754 L463.985743,583.569233 L464.097738,582.605232 L464.243506,581.26186 L464.31503,580.56433 L464.455723,579.115426 L464.559472,577.979936 L464.695914,576.3981 L464.864254,574.30691 L464.964518,572.988864 L465.131185,570.681895 L465.231326,569.229208 L465.723797,561.687971 L465.906881,559.03959 L466.053227,557.04623 L466.163837,555.617481 L466.275834,554.240645 L466.389811,552.911321 L466.506358,551.625108 L466.62607,550.377603 L466.749537,549.164406 L466.877352,547.981115 L467.010108,546.823328 L467.148395,545.686645 L467.292808,544.566664 L467.443937,543.458982 C467.461124,543.336427 467.478447,543.214018 467.495909,543.091728 L467.602375,542.3592 C467.728601,541.505744 467.861996,540.655462 468.003815,539.799035 C469.565197,530.370027 471.959153,522.283132 475.71381,515.055159 C485.416959,496.375931 503.043639,486.204613 527.495307,486.003055 L528.238355,486 L548,486 L548,525.51952 L528.238355,525.51952 C522.296871,525.51952 518.236167,526.460494 515.550385,527.99026 C513.595758,529.103575 512.120074,530.706983 510.78797,533.271375 L510.601987,533.636504 L510.42002,534.00823 L510.33052,534.196667 L510.33052,534.196667 L510.154445,534.578893 L509.982213,534.968521 C509.953824,535.034094 509.925593,535.099989 509.897517,535.166213 L509.730918,535.567551 L509.56799,535.977099 C509.541137,536.04606 509.514434,536.115375 509.48788,536.185053 L509.330326,536.607522 C509.304361,536.678676 509.278541,536.750205 509.252865,536.822117 L509.10053,537.258232 C509.075426,537.3317 509.050463,537.405565 509.02564,537.479832 L508.878369,537.930318 L508.734388,538.39079 L508.524432,539.100925 L508.388372,539.587771 C508.365952,539.669829 508.343658,539.75235 508.321489,539.835341 L508.189975,540.33898 L508.061404,540.854216 L507.935708,541.381374 L507.812818,541.920776 L507.692664,542.472744 L507.575178,543.037602 L507.46029,543.615671 L507.347931,544.207275 L507.238032,544.812737 L507.130524,545.432379 L506.973594,546.389135 L506.871762,547.045639 L506.772078,547.717452 L506.674474,548.404898 L506.578881,549.108299 L506.48523,549.827978 L506.393452,550.564257 L506.259144,551.700507 L506.128661,552.875923 L506.043682,553.681831 L505.919054,554.924945 L505.79763,556.21013 L505.679174,557.538475 L505.563455,558.911068 L505.487714,559.851251 L505.339292,561.793358 L505.19449,563.81994 L504.550538,573.637089 L504.360702,576.348831 L504.177593,578.785039 L504.047856,580.387169 L503.916714,581.897156 L503.809434,583.052364 L503.642153,584.721424 L503.524885,585.806699 L503.370023,587.150593 L503.204082,588.499213 L503.061998,589.595074 C501.958422,597.929381 500.326391,605.025365 497.766083,611.489975 C490.788809,629.10713 477.146316,640.37554 457.281765,642.805006 L456.677905,642.875918 L455.57581,643 L454.466751,643 C433.175532,643 417.532864,633.372568 408.901544,616.234597 C405.701202,609.880137 403.576221,602.813317 402.080554,594.593903 L401.88925,593.519765 L401.706576,592.446894 L401.589194,591.729821 L401.419135,590.647675 L401.309426,589.919673 L401.14977,588.814019 L400.995294,587.687427 L400.845204,586.534773 L400.698703,585.350933 L400.554996,584.130782 L400.460349,583.294646 L400.319528,582.002592 L400.132673,580.201228 L399.945123,578.298874 L399.754993,576.283384 L399.068038,568.633413 L398.82701,566.083948 L398.629345,564.097799 L398.472543,562.595427 L398.355361,561.517246 L398.199243,560.142162 L398.081953,559.156144 L397.924862,557.899538 L397.76647,556.706679 L397.646497,555.852137 L397.484526,554.763912 L397.361246,553.984543 L397.236169,553.235368 L397.109066,552.515174 L396.936048,551.597897 L396.803328,550.940605 L396.667821,550.308247 L396.529298,549.699611 L396.43516,549.306433 L396.291103,548.734636 L396.14342,548.183325 L395.991883,547.651286 L395.888605,547.3067 L395.730137,546.804084 C395.712286,546.749151 395.694352,546.694515 395.676335,546.640169 L395.511866,546.158664 L395.399586,545.845745 L395.285119,545.538874 L395.168398,545.237693 L395.049355,544.94184 L394.866289,544.507267 L394.6067,543.922805 L394.482068,543.65286 L394.361561,543.401834 L394.243969,543.169047 C394.224546,543.131732 394.205193,543.095148 394.185887,543.059281 L394.070395,542.852576 L393.954789,542.66241 C393.490526,541.933913 392.994475,541.585998 392.117853,541.422728 L391.890567,541.385644 L391.646213,541.355573 L391.38358,541.331835 C391.338217,541.328368 391.292042,541.325137 391.24503,541.322128 L390.952707,541.306613 L390.639078,541.29573 L390.126034,541.286603 L389.558237,541.284071 C386.12525,541.284071 383.944774,541.728875 382.689883,542.346322 C382.145624,542.614115 381.833848,542.8981 381.407496,543.552748 L381.287397,543.741878 L381.16913,543.93782 L381.052591,544.141002 L380.937676,544.351855 L380.824278,544.570807 L380.712294,544.798289 L380.601619,545.03473 L380.492149,545.280558 L380.383778,545.536204 L380.276403,545.802098 L380.169917,546.078667 L380.064218,546.366343 L379.906912,546.81962 L379.802719,547.13694 L379.647182,547.636697 L379.543841,547.986345 L379.440658,548.349676 L379.337527,548.727119 L379.234345,549.119104 L379.131007,549.526061 L378.975477,550.165506 L378.87129,550.61177 L378.713997,551.312189 L378.555174,552.051126 L378.394469,552.830028 L378.231529,553.650347 L378.010186,554.811035 L377.840655,555.733628 L377.609243,557.035942 L377.370926,558.42391 L377.062044,560.284554 L376.53981,563.48166 L376.298086,564.928683 L376.014176,566.584386 L375.745038,568.0957 L375.588194,568.944635 L375.38184,570.021385 L375.175885,571.048015 L375.072115,571.54694 L374.807351,572.766412 L374.642946,573.487816 L374.472824,574.208779 L374.234902,575.179653 L374.04649,575.922712 C372.391106,582.364646 370.193806,587.933149 366.974848,592.998201 C358.622972,606.139934 344.93026,613.115328 326.987529,613.253521 L326.44251,613.255616 L325.125739,613.255616 L323.820608,613.080928 C305.790476,610.66765 293.033158,601.22448 286.360914,586.287233 C283.887124,580.749123 282.355599,574.78803 281.368433,567.927516 C281.282053,567.327198 281.201795,566.74377 281.126405,566.1655 L281.003009,565.187781 L280.861333,563.973777 L280.781109,563.233314 L280.678572,562.2212 L280.531587,560.624848 L280.388844,558.897791 L280.293849,557.653314 L280.14832,555.616199 L279.741914,549.458117 L279.602423,547.493416 L279.517476,546.375837 L279.373195,544.611501 L279.254829,543.285369 L279.19451,542.649792 L279.10245,541.729807 L279.008325,540.848837 L278.911942,540.005706 L278.813111,539.199241 L278.677196,538.17896 L278.607336,537.69161 L278.500011,536.988095 L278.426687,536.536917 L278.313899,535.886029 L278.236756,535.468848 L278.157987,535.064658 L278.077534,534.673109 L277.953574,534.108729 L277.868664,533.747263 L277.781872,533.397221 L277.648033,532.892817 L277.556289,532.569812 L277.462464,532.257014 L277.366503,531.954074 L277.21843,531.517387 L277.065231,531.100924 L276.960155,530.833937 L276.852659,530.575068 L276.742686,530.32397 L276.63018,530.080293 L276.515083,529.843692 L276.397339,529.613816 L276.276891,529.390319 C276.256588,529.353582 276.23617,529.317096 276.215635,529.280854 C275.628417,528.244442 275.068544,527.697941 274.064389,527.191403 C272.568484,526.436805 270.306872,525.867518 267.128608,525.634707 L266.501973,525.593889 C265.757451,525.551265 264.965693,525.526294 264.124962,525.520717 L263.761645,525.51952 L244,525.51952 L244,486 L263.761645,486 Z M626.533249,437 C647.824468,437 663.467136,446.627432 672.098456,463.765403 C675.298798,470.119863 677.423779,477.186683 678.919446,485.406097 L679.11075,486.480235 L679.293424,487.553106 L679.410806,488.270179 L679.580865,489.352325 L679.690574,490.080327 L679.85023,491.185981 L680.004706,492.312573 L680.154796,493.465227 L680.301297,494.649067 L680.445004,495.869218 L680.539651,496.705354 L680.680472,497.997408 L680.867327,499.798772 L681.054877,501.701126 L681.245007,503.716616 L681.931962,511.366587 L682.17299,513.916052 L682.370655,515.902201 L682.527457,517.404573 L682.644639,518.482754 L682.800757,519.857838 L682.918047,520.843856 L683.075138,522.100462 L683.23353,523.293321 L683.353503,524.147863 L683.515474,525.236088 L683.638754,526.015457 L683.763831,526.764632 L683.890934,527.484826 L684.063952,528.402103 L684.196672,529.059395 L684.332179,529.691753 L684.470702,530.300389 L684.56484,530.693567 L684.708897,531.265364 L684.85658,531.816675 L685.008117,532.348714 L685.111395,532.6933 L685.269863,533.195916 C685.287714,533.250849 685.305648,533.305485 685.323665,533.359831 L685.488134,533.841336 L685.600414,534.154255 L685.714881,534.461126 L685.831602,534.762307 L685.950645,535.05816 L686.133711,535.492733 L686.3933,536.077195 L686.517932,536.34714 L686.638439,536.598166 L686.756031,536.830953 C686.775454,536.868268 686.794807,536.904852 686.814113,536.940719 L686.929605,537.147424 L687.045211,537.33759 C687.509474,538.066087 688.005525,538.414002 688.882147,538.577272 L689.109433,538.614356 L689.353787,538.644427 L689.61642,538.668165 C689.661783,538.671632 689.707958,538.674863 689.75497,538.677872 L690.047293,538.693387 L690.360922,538.70427 L690.873966,538.713397 L691.441763,538.715929 C694.87475,538.715929 697.055226,538.271125 698.310117,537.653678 C698.854376,537.385885 699.166152,537.1019 699.592504,536.447252 L699.712603,536.258122 L699.83087,536.06218 L699.947409,535.858998 L700.062324,535.648145 L700.175722,535.429193 L700.287706,535.201711 L700.398381,534.96527 L700.507851,534.719442 L700.616222,534.463796 L700.723597,534.197902 L700.830083,533.921333 L700.935782,533.633657 L701.093088,533.18038 L701.197281,532.86306 L701.352818,532.363303 L701.456159,532.013655 L701.559342,531.650324 L701.662473,531.272881 L701.765655,530.880896 L701.868993,530.473939 L702.024523,529.834494 L702.12871,529.38823 L702.286003,528.687811 L702.444826,527.948874 L702.605531,527.169972 L702.768471,526.349653 L702.989814,525.188965 L703.159345,524.266372 L703.390757,522.964058 L703.629074,521.57609 L703.937956,519.715446 L704.46019,516.51834 L704.701914,515.071317 L704.985824,513.415614 L705.254962,511.9043 L705.411806,511.055365 L705.61816,509.978615 L705.824115,508.951985 L705.927885,508.45306 L706.192649,507.233588 L706.357054,506.512184 L706.527176,505.791221 L706.765098,504.820347 L706.95351,504.077288 C708.608894,497.635354 710.806194,492.066851 714.025152,487.001799 C722.377028,473.860066 736.06974,466.884672 754.012471,466.746479 L754.55749,466.744384 L755.874261,466.744384 L757.179392,466.919072 C775.209524,469.33235 787.966842,478.77552 794.639086,493.712767 C797.112876,499.250877 798.644401,505.21197 799.631567,512.072484 C799.717947,512.672802 799.798205,513.25623 799.873595,513.8345 L799.996991,514.812219 L800.138667,516.026223 L800.218891,516.766686 L800.321428,517.7788 L800.468413,519.375152 L800.611156,521.102209 L800.706151,522.346686 L800.85168,524.383801 L801.258086,530.541883 L801.397577,532.506584 L801.482524,533.624163 L801.626805,535.388499 L801.745171,536.714631 L801.80549,537.350208 L801.89755,538.270193 L801.991675,539.151163 L802.088058,539.994294 L802.186889,540.800759 L802.322804,541.82104 L802.392664,542.30839 L802.499989,543.011905 L802.573313,543.463083 L802.686101,544.113971 L802.763244,544.531152 L802.842013,544.935342 L802.922466,545.326891 L803.046426,545.891271 L803.131336,546.252737 L803.218128,546.602779 L803.351967,547.107183 L803.443711,547.430188 L803.537536,547.742986 L803.633497,548.045926 L803.78157,548.482613 L803.934769,548.899076 L804.039845,549.166063 L804.147341,549.424932 L804.257314,549.67603 L804.36982,549.919707 L804.484917,550.156308 L804.602661,550.386184 L804.723109,550.609681 C804.743412,550.646418 804.76383,550.682904 804.784365,550.719146 C805.371583,551.755558 805.931456,552.302059 806.935611,552.808597 C808.431516,553.563195 810.693128,554.132482 813.871392,554.365293 L814.498027,554.406111 C815.242549,554.448735 816.034307,554.473706 816.875038,554.479283 L817.238355,554.48048 L837,554.48048 L837,594 L817.238355,594 C795.323737,594 779.302369,585.918144 770.396267,570.199313 C766.937538,564.094826 764.830705,557.370626 763.527697,549.601963 C763.414191,548.925229 763.30881,548.263251 763.210147,547.604771 L763.087753,546.765323 L762.936946,545.65944 L762.830483,544.821342 L762.762327,544.255709 L762.631948,543.101243 L762.569357,542.50946 L762.478202,541.599451 L762.360791,540.33667 L762.246748,539.006578 L762.1346,537.597375 L761.994834,535.706648 L761.88156,534.076308 L761.563603,529.22819 L761.43003,527.305825 L761.296166,525.513543 L761.188171,524.16902 L761.078801,522.900278 L760.967529,521.703999 L760.882507,520.852346 L760.766633,519.774885 L760.647403,518.760755 L760.52429,517.806636 L760.429088,517.12843 L760.331182,516.480712 L760.230349,515.862081 L760.126365,515.271135 L760.019008,514.706473 L759.945453,514.343943 L759.83198,513.819977 L759.754141,513.48328 L759.674473,513.15619 L759.592909,512.838292 L759.466866,512.377771 L759.380275,512.081037 L759.246382,511.650316 L759.154352,511.372151 L759.060031,511.100687 L758.963353,510.83551 L758.864251,510.576204 L758.762659,510.322355 L758.60546,509.950903 L758.551744,509.829365 C758.509122,509.733945 758.466514,509.641118 758.423692,509.550788 L758.294352,509.287199 C757.446473,507.621368 756.429728,506.869858 753.542785,506.339296 L753.255742,506.288915 L753.118102,506.294393 C750.873222,506.394105 749.386924,506.728704 748.480541,507.154283 L748.374547,507.20578 C747.976143,507.406134 747.754782,507.612524 747.383039,508.197464 L747.215215,508.471405 L747.105404,508.662013 L746.997132,508.859497 L746.890298,509.064282 L746.784798,509.276791 L746.62883,509.610961 L746.526223,509.84463 L746.424595,510.087503 L746.323844,510.340004 L746.223868,510.602555 L746.124565,510.875581 L745.976651,511.305683 L745.878586,511.606745 L745.780838,511.919761 L745.683305,512.245156 L745.537186,512.757382 L745.390977,513.299839 L745.244337,513.873955 L745.146166,514.274993 L744.948383,515.122876 L744.798382,515.800537 L744.595511,516.762465 L744.388611,517.794215 L744.123082,519.187249 L743.848395,520.701281 L743.56296,522.342924 L743.204009,524.490649 L742.666914,527.777819 L742.455466,529.044197 L742.148149,530.837023 L742.000369,531.674035 L741.855434,532.476306 L741.712537,533.247483 L741.500251,534.353919 L741.358925,535.063308 L741.145218,536.094151 L741.000427,536.764536 L740.852839,537.4257 L740.701649,538.081288 L740.546051,538.734946 L740.385239,539.390318 L740.218407,540.051051 L740.04475,540.72079 C738.333001,547.240585 736.048425,552.890486 732.71228,558.013018 C724.062292,571.294762 709.956124,578.235449 691.441763,578.235449 C671.71699,578.235449 657.438686,568.393501 650.025828,551.56526 C647.406608,545.619258 645.693141,539.057194 644.462238,531.309542 C644.332821,530.494954 644.212383,529.702479 644.098227,528.91068 L643.917645,527.619867 L643.74833,526.331484 L643.584785,525.004905 L643.456452,523.903027 L643.297105,522.458523 L643.201122,521.54851 L643.005842,519.611367 L642.767661,517.116122 L642.35529,512.55954 L642.030227,508.897292 L641.857173,507.025513 L641.68354,505.23398 L641.552615,503.941536 L641.376685,502.284611 L641.198707,500.701277 L641.06356,499.560615 L640.926735,498.458965 L640.834476,497.745702 L640.694355,496.706805 L640.551955,495.704198 L640.455646,495.055451 L640.358157,494.422076 L640.259421,493.803771 L640.159373,493.200234 L640.057945,492.611163 L639.955071,492.036254 L639.797901,491.199784 L639.691118,490.658958 L639.527773,489.872195 L639.360422,489.113894 L639.246518,488.623669 L639.130667,488.145338 L638.953093,487.44948 L638.832081,486.99956 L638.708889,486.560476 L638.583449,486.131923 L638.455694,485.713601 L638.325559,485.305207 L638.192975,484.906437 L638.057877,484.51699 L637.920197,484.136564 C637.897032,484.073894 637.873756,484.011588 637.850368,483.949638 L637.708691,483.582175 L637.564265,483.222975 L637.417024,482.871736 L637.266901,482.528156 L637.11383,482.191932 L636.957743,481.862763 L636.798574,481.540344 L636.61548,481.185295 L636.431124,480.845659 C636.338492,480.679651 636.245073,480.519324 636.150399,480.364531 L635.959237,480.062279 C634.639626,478.046713 633.027037,477.046321 629.923061,476.683898 L629.458035,476.635371 L628.970881,476.59569 C628.638551,476.572125 628.290913,476.554283 627.926854,476.541813 L627.687611,476.534669 L627.541401,476.556965 C623.519571,477.197914 621.850947,478.631598 620.251957,482.398445 L620.071114,482.834931 L619.911406,483.237186 L619.77526,483.592684 L619.64227,483.952186 L619.512364,484.316123 L619.323125,484.871288 L619.200605,485.248199 L619.022102,485.824848 L618.906511,486.21743 L618.738057,486.819606 L618.575301,487.439039 L618.417998,488.077184 L618.265898,488.735496 L618.118755,489.415432 L618.023291,489.881455 L617.929846,490.358166 L617.838347,490.845996 L617.704588,491.599535 L617.617633,492.117052 L617.490346,492.917142 L617.366613,493.747103 L617.246185,494.60839 L617.128816,495.50246 L617.014257,496.430767 L616.902262,497.394768 L616.756494,498.73814 L616.68497,499.43567 L616.544277,500.884574 L616.440528,502.020064 L616.304086,503.6019 L616.135746,505.69309 L616.035482,507.011136 L615.868815,509.318105 L615.768674,510.770792 L615.276203,518.312029 L615.093119,520.96041 L614.946773,522.95377 L614.836163,524.382519 L614.724166,525.759355 L614.610189,527.088679 L614.493642,528.374892 L614.37393,529.622397 L614.250463,530.835594 L614.122648,532.018885 L613.989892,533.176672 L613.851605,534.313355 L613.707192,535.433336 L613.556063,536.541018 C613.538876,536.663573 613.521553,536.785982 613.504091,536.908272 L613.397625,537.6408 C613.271399,538.494256 613.138004,539.344538 612.996185,540.200965 C611.434803,549.629973 609.040847,557.716868 605.28619,564.944841 C595.583041,583.624069 577.956361,593.795387 553.504693,593.996945 L552.761645,594 L533,594 L533,554.48048 L552.761645,554.48048 C558.703129,554.48048 562.763833,553.539506 565.449615,552.00974 C567.404242,550.896425 568.879926,549.293017 570.21203,546.728625 L570.398013,546.363496 L570.57998,545.99177 L570.66948,545.803333 L570.66948,545.803333 L570.845555,545.421107 L571.017787,545.031479 C571.046176,544.965906 571.074407,544.900011 571.102483,544.833787 L571.269082,544.432449 L571.43201,544.022901 C571.458863,543.95394 571.485566,543.884625 571.51212,543.814947 L571.669674,543.392478 C571.695639,543.321324 571.721459,543.249795 571.747135,543.177883 L571.89947,542.741768 C571.924574,542.6683 571.949537,542.594435 571.97436,542.520168 L572.121631,542.069682 L572.265612,541.60921 L572.475568,540.899075 L572.611628,540.412229 C572.634048,540.330171 572.656342,540.24765 572.678511,540.164659 L572.810025,539.66102 L572.938596,539.145784 L573.064292,538.618626 L573.187182,538.079224 L573.307336,537.527256 L573.424822,536.962398 L573.53971,536.384329 L573.652069,535.792725 L573.761968,535.187263 L573.869476,534.567621 L574.026406,533.610865 L574.128238,532.954361 L574.227922,532.282548 L574.325526,531.595102 L574.421119,530.891701 L574.51477,530.172022 L574.606548,529.435743 L574.740856,528.299493 L574.871339,527.124077 L574.956318,526.318169 L575.080946,525.075055 L575.20237,523.78987 L575.320826,522.461525 L575.436545,521.088932 L575.512286,520.148749 L575.660708,518.206642 L575.80551,516.18006 L576.449462,506.362911 L576.639298,503.651169 L576.822407,501.214961 L576.952144,499.612831 L577.083286,498.102844 L577.190566,496.947636 L577.357847,495.278576 L577.475115,494.193301 L577.629977,492.849407 L577.795918,491.500787 L577.938002,490.404926 C579.041578,482.070619 580.673609,474.974635 583.233917,468.510025 C590.211191,450.89287 603.853684,439.62446 623.718235,437.194994 L624.322095,437.124082 L625.42419,437 L626.533249,437 Z" id="Combined-Shape"></path>
        </g>
    </g>
</svg>