<?xml version="1.0" encoding="UTF-8"?>
<svg width="580px" height="580px" viewBox="0 0 580 580" version="1.1" xmlns="http://www.w3.org/2000/svg" xmlns:xlink="http://www.w3.org/1999/xlink">
    <title>Artboard</title>
    <defs>
        <linearGradient x1="50%" y1="100%" x2="52.1686491%" y2="0%" id="linearGradient-1">
            <stop stop-color="#7C39FF" offset="0%"></stop>
            <stop stop-color="#04B9FF" offset="49.7267007%"></stop>
            <stop stop-color="#00EBBF" offset="100%"></stop>
        </linearGradient>
    </defs>
    <g id="Artboard" stroke="none" stroke-width="1" fill="none" fill-rule="evenodd">
        <path d="M84,82.824419 C84.4833922,82.824419 84.9504272,82.9994927 85.3147038,83.3172515 L149.962741,139.7098 C150.833572,140.469427 151.333333,141.568548 151.333333,142.724135 L151.333333,378.164759 C151.333333,379.269329 152.228764,380.164759 153.333333,380.164759 C153.66974,380.164759 154.000712,380.079903 154.295621,379.918043 L326.797659,285.240493 C327.508322,284.850446 328.384144,284.92797 329.015245,285.436783 L392.510596,336.628798 C393.452438,337.388141 394,338.532961 394,339.742783 L394,421.466439 C394,422.571009 393.104569,423.466439 392,423.466439 C391.531425,423.466439 391.077725,423.301915 390.718062,423.001573 L324.674632,367.850949 C324.043141,367.323613 323.153146,367.236785 322.43164,367.632123 L84.9610536,497.750236 C83.9923683,498.281011 82.7768152,497.926015 82.2460399,496.957329 C82.0846163,496.662725 82,496.332206 82,495.996276 L82,84.824419 C82,83.7198495 82.8954305,82.824419 84,82.824419 Z M497.75396,83.0393212 C497.915384,83.3339256 498,83.6644444 498,84.0003749 L498,495.172232 C498,496.276801 497.104569,497.172232 496,497.172232 C495.516608,497.172232 495.049573,496.997158 494.685296,496.679399 L430.037259,440.286851 C429.166428,439.527223 428.666667,438.428102 428.666667,437.272516 L428.666667,201.831891 C428.666667,200.727322 427.771236,199.831891 426.666667,199.831891 C426.33026,199.831891 425.999288,199.916748 425.704379,200.078608 L253.202341,294.756158 C252.491678,295.146205 251.615856,295.068681 250.984755,294.559867 L187.489404,243.367853 C186.547562,242.608509 186,241.46369 186,240.253868 L186,158.530211 C186,157.425642 186.895431,156.530211 188,156.530211 C188.468575,156.530211 188.922275,156.694736 189.281938,156.995078 L255.325368,212.145701 C255.956859,212.673037 256.846854,212.759865 257.56836,212.364528 L495.038946,82.2464148 C496.007632,81.7156395 497.223185,82.0706358 497.75396,83.0393212 Z" id="Combined-Shape" fill="url(#linearGradient-1)" fill-rule="nonzero"></path>
    </g>
</svg>