<?xml version="1.0" encoding="UTF-8"?>
<svg width="490px" height="350px" viewBox="0 0 490 350" version="1.1" xmlns="http://www.w3.org/2000/svg" xmlns:xlink="http://www.w3.org/1999/xlink">
    <title>Group 5</title>
    <defs>
        <linearGradient x1="50%" y1="61.1264341%" x2="52.1686491%" y2="38.8735659%" id="linearGradient-1">
            <stop stop-color="#7C39FF" offset="0%"></stop>
            <stop stop-color="#04B9FF" offset="49.7267007%"></stop>
            <stop stop-color="#00EBBF" offset="100%"></stop>
        </linearGradient>
        <linearGradient x1="50%" y1="61.1264341%" x2="52.1686491%" y2="38.8735659%" id="linearGradient-2">
            <stop stop-color="#00EBBF" offset="0%"></stop>
            <stop stop-color="#04B9FF" offset="50.2732993%"></stop>
            <stop stop-color="#7C39FF" offset="100%"></stop>
        </linearGradient>
    </defs>
    <g id="WM-Edge-Rigid" stroke="none" stroke-width="1" fill="none" fill-rule="evenodd">
        <g id="rigid-color" transform="translate(-295.000000, -361.000000)" fill-rule="nonzero">
            <g id="Group-5" transform="translate(305.000000, 382.000000)">
                <path d="M386,87.1467701 L386,-20.2215 L282,59.214 L188,-12.5833658 L94,59.214 L-10,-20.2215 L-10,87.1467701 L94,166.583366 L188,94.785 L282,166.583366 L386,87.1467701 Z M94,84.3818272 L188,12.583 L282,84.3818272 L366,20.221 L366,77.255 L282,141.416 L188,69.6181728 L94,141.416 L10,77.256 L10,20.221 L94,84.3818272 Z" id="Path" fill="url(#linearGradient-1)"></path>
                <path d="M480,249.14677 L480,141.7785 L376,221.214 L282,149.416634 L188,221.214 L84,141.7785 L84,249.14677 L188,328.583366 L282,256.785 L376,328.583366 L480,249.14677 Z M188,246.381827 L282,174.583 L376,246.381827 L460,182.221 L460,239.255 L376,303.416 L282,231.618173 L188,303.416 L104,239.256 L104,182.221 L188,246.381827 Z" id="Path" fill="url(#linearGradient-2)" transform="translate(282.000000, 235.180933) scale(1, -1) translate(-282.000000, -235.180933) "></path>
            </g>
        </g>
    </g>
</svg>