<?xml version="1.0" encoding="UTF-8"?>
<svg width="763px" height="660px" viewBox="0 0 763 660" version="1.1" xmlns="http://www.w3.org/2000/svg" xmlns:xlink="http://www.w3.org/1999/xlink">
    <title>Artboard</title>
    <defs>
        <linearGradient x1="50%" y1="87.2509635%" x2="52.1686491%" y2="12.7490365%" id="linearGradient-1">
            <stop stop-color="#7C39FF" offset="0%"></stop>
            <stop stop-color="#04B9FF" offset="49.7267007%"></stop>
            <stop stop-color="#00EBBF" offset="100%"></stop>
        </linearGradient>
    </defs>
    <g id="Artboard" stroke="none" stroke-width="1" fill="none" fill-rule="evenodd">
        <path d="M632.734956,203.686009 C632.905375,203.870713 633,204.112812 633,204.364124 L633,546.161929 C633,546.714214 632.552285,547.161929 632,547.161929 C631.722334,547.161929 631.457168,547.046481 631.267995,546.843228 L552.232701,461.92567 C552.060461,461.740611 551.964706,461.497182 551.964706,461.244371 L551.964706,389.375484 C551.964706,388.823199 551.516991,388.375484 550.964706,388.375484 C550.711961,388.375484 550.46859,388.471189 550.283546,388.643349 L415.328169,514.202352 C414.924281,514.578119 414.292382,514.555835 413.915968,514.152549 L346.268958,441.676434 C346.096124,441.491261 346,441.2474 346,440.994101 L346,317.515689 C346,316.963405 346.447715,316.515689 347,316.515689 C347.290508,316.515689 347.566657,316.642022 347.75661,316.861823 L418.43524,398.646415 C418.79636,399.06428 419.427852,399.11028 419.845716,398.74916 L419.869965,398.727505 L419.869965,398.727505 L631.321885,203.629168 C631.72779,203.254656 632.360443,203.280105 632.734956,203.686009 Z M131,113 C131.277666,113 131.542832,113.115448 131.732005,113.318701 L210.767299,198.236259 C210.939539,198.421319 211.035294,198.664747 211.035294,198.917558 L211.035294,270.786445 C211.035294,271.33873 211.483009,271.786445 212.035294,271.786445 C212.288039,271.786445 212.53141,271.69074 212.716454,271.51858 L347.671831,145.959578 C348.075719,145.58381 348.707618,145.606094 349.084032,146.00938 L416.731042,218.485495 C416.903876,218.670668 417,218.914529 417,219.167828 L417,342.64624 C417,343.198525 416.552285,343.64624 416,343.64624 C415.709492,343.64624 415.433343,343.519907 415.24339,343.300106 L344.56476,261.515514 C344.20364,261.097649 343.572148,261.051649 343.154284,261.41277 L343.130035,261.434424 L343.130035,261.434424 L131.678115,456.532761 C131.27221,456.907273 130.639557,456.881825 130.265044,456.47592 C130.094625,456.291216 130,456.049117 130,455.797805 L130,114 C130,113.447715 130.447715,113 131,113 Z" id="Combined-Shape" fill="url(#linearGradient-1)" fill-rule="nonzero"></path>
    </g>
</svg>