<?xml version="1.0" encoding="UTF-8"?>
<svg width="1117px" height="829px" viewBox="0 0 1117 829" version="1.1" xmlns="http://www.w3.org/2000/svg" xmlns:xlink="http://www.w3.org/1999/xlink">
    <title>Path</title>
    <g id="Hero" stroke="none" stroke-width="1" fill="none" fill-rule="evenodd">
        <g id="Apple-TV" transform="translate(-803.000000, 0.000000)" fill="#8348FF" fill-rule="nonzero">
            <path d="M1920,828.766129 L1914.27301,826.288961 L1911.26147,825.037561 C1910.76111,824.828688 1910.26154,824.619649 1909.76278,824.41043 L1906.78012,823.152814 L1903.81786,821.890066 C1880.69567,811.976382 1859.53416,801.517761 1842.30425,788.806949 C1769.73208,735.748817 1723.03188,660.52307 1686.36615,578.369724 C1682.6874,570.047918 1679.10314,561.651825 1675.57429,553.213099 L1673.46332,548.145001 L1671.36377,543.06819 L1669.27377,537.984185 L1667.19144,532.894506 L1663.04228,522.704203 L1656.82916,507.414176 L1653.19319,498.506668 L1650.58377,492.155126 C1650.23497,491.309021 1649.88578,490.463249 1649.53617,489.617843 L1647.43314,484.550036 L1646.08869,481.330324 L1644.06184,476.509417 L1642.02131,471.700078 L1640.65255,468.500931 L1639.2765,465.307905 C1639.04652,464.776265 1638.81622,464.244897 1638.58559,463.713809 L1637.1977,460.530696 C1636.73368,459.47082 1636.26824,458.412127 1635.80131,457.354683 L1634.39594,454.18616 C1634.16094,453.658719 1633.92554,453.131606 1633.68974,452.60483 L1632.26999,449.448277 C1631.79507,448.397483 1631.31845,447.3481 1630.84006,446.300193 L1629.39945,443.160971 C1629.15843,442.638527 1628.91695,442.116469 1628.67499,441.594804 L1627.21746,438.469607 L1625.74806,435.354249 C1624.51847,432.762327 1623.276,430.181062 1622.01938,427.611473 L1620.50458,424.533638 C1605.03347,393.300623 1587.38286,363.866337 1565.26649,338.082243 C1508.87699,272.160561 1421.47036,232.480938 1309.66993,213.034353 C1282.68319,208.625101 1254.24419,205.38188 1225.3396,202.499564 L1218.9091,201.864663 L1211.72148,201.168116 L1204.52112,200.481184 L1197.31136,199.801142 L1175.65909,197.775111 L1168.44513,197.095385 L1161.23847,196.408926 L1157.63892,196.062321 L1150.44946,195.360655 L1143.27564,194.645446 L1137.58583,194.06538 L1131.90971,193.473663 L1128.13405,193.072037 L1124.36571,192.664218 L1120.60518,192.249801 L1116.85297,191.828382 L1113.10958,191.399553 L1109.37549,190.962909 L1105.65121,190.518045 C1105.03134,190.443194 1104.4119,190.367983 1103.7929,190.292404 L1100.08426,189.83445 L1096.38666,189.367261 L1092.70061,188.890432 L1089.02661,188.403558 C1087.804,188.239547 1086.58349,188.073794 1085.36514,187.906232 L1081.71671,187.39805 C1079.89584,187.141177 1078.08004,186.880081 1076.2696,186.614533 L1072.65594,186.077435 C1066.04428,185.081625 1059.50713,184.023921 1053.05825,182.893077 L1049.54952,182.268931 C1020.96774,177.111401 994.187457,170.461961 970.427013,161.326441 C901.593602,134.552322 856.00394,78.6666421 827.105205,36.4193801 L825.244101,33.6838993 C824.937839,33.2313549 824.633532,32.7805316 824.331171,32.3314844 L822.540302,29.6589529 L820.795751,27.0316817 C820.50883,26.5977212 820.223821,26.1657564 819.940718,25.7358422 L817.878365,22.5896228 L815.884925,19.5233705 L813.959637,16.5420438 L811.197827,12.2401364 L806.924805,5.56516577 L805.328877,3.08284639 L803.796541,0.715204244 L803.386894,0 L1920,0 L1920,828.766129 Z" id="Path"></path>
        </g>
    </g>
</svg>