<?xml version="1.0" encoding="UTF-8"?>
<svg width="1080px" height="1080px" viewBox="0 0 1080 1080" version="1.1" xmlns="http://www.w3.org/2000/svg" xmlns:xlink="http://www.w3.org/1999/xlink">
    <title>rigid-git-depth</title>
    <defs>
        <linearGradient x1="50%" y1="71.8808962%" x2="52.1686491%" y2="28.1191038%" id="linearGradient-1">
            <stop stop-color="#7C39FF" offset="0%"></stop>
            <stop stop-color="#04B9FF" offset="49.7267007%"></stop>
            <stop stop-color="#00EBBF" offset="100%"></stop>
        </linearGradient>
        <path d="M642.53661,388 L704.515481,389.999318 L706.514799,451.978189 L686.525197,452.623015 L685.628,424.808 L587.227006,502.609925 L493.08,430.729212 L399.039932,502.528071 L315,438.364212 L315,495.403212 L399.039,559.566212 L493.079864,487.768353 L587.105,559.555212 L680.945091,487.55538 L785,567.000167 L785,674.3645 L680.959,594.930212 L586.920136,666.729609 L492.879,594.930212 L414.189211,655.01033 C416.004557,659.706766 417,664.81124 417,670.148212 C417,693.344171 398.195959,712.148212 375,712.148212 C351.804041,712.148212 333,693.344171 333,670.148212 C333,646.952252 351.804041,628.148212 375,628.148212 C385.625277,628.148212 395.329022,632.093757 402.726039,638.59965 L492.880204,569.768353 L586.92,641.566212 L680.960068,569.768353 L765,633.931212 L765,576.893212 L680.974,512.740212 L587.134773,584.741044 L493.08,512.930212 L399.039932,584.729609 L295,505.296257 L295,397.931924 L399.04,477.365212 L493.079864,405.566815 L587.012,477.283212 L673.371,409.004 L641.891784,407.989602 L642.53661,388 Z M375,648.148212 C362.849736,648.148212 353,657.997947 353,670.148212 C353,682.298476 362.849736,692.148212 375,692.148212 C387.150264,692.148212 397,682.298476 397,670.148212 C397,657.997947 387.150264,648.148212 375,648.148212 Z" id="path-2"></path>
        <linearGradient x1="50%" y1="71.8808962%" x2="52.1686491%" y2="28.1191038%" id="linearGradient-3">
            <stop stop-color="#8348FF" offset="0%"></stop>
            <stop stop-color="#4FF0FF" offset="49.7267007%"></stop>
            <stop stop-color="#3EEE91" offset="100%"></stop>
        </linearGradient>
    </defs>
    <g id="rigid-git-depth" stroke="none" stroke-width="1" fill="none" fill-rule="evenodd">
        <rect fill="#1D1D21" x="0" y="0" width="1080" height="1080"></rect>
        <g id="Combined-Shape" fill-rule="nonzero">
            <use fill="url(#linearGradient-1)" xlink:href="#path-2"></use>
            <use fill-opacity="0.239295373" fill="#1D1E1F" xlink:href="#path-2"></use>
        </g>
        <path d="M642.53661,368 L704.515481,369.999318 L706.514799,431.978189 L686.525197,432.623015 L685.628,404.808 L587.227006,482.609925 L493.08,410.729212 L399.039932,482.528071 L315,418.364212 L315,475.403212 L399.039,539.566212 L493.079864,467.768353 L587.105,539.555212 L680.945091,467.55538 L785,547.000167 L785,654.3645 L680.959,574.930212 L586.920136,646.729609 L492.879,574.930212 L414.189211,635.01033 C416.004557,639.706766 417,644.81124 417,650.148212 C417,673.344171 398.195959,692.148212 375,692.148212 C351.804041,692.148212 333,673.344171 333,650.148212 C333,626.952252 351.804041,608.148212 375,608.148212 C385.625277,608.148212 395.329022,612.093757 402.726039,618.59965 L492.880204,549.768353 L586.92,621.566212 L680.960068,549.768353 L765,613.931212 L765,556.893212 L680.974,492.740212 L587.134773,564.741044 L493.08,492.930212 L399.039932,564.729609 L295,485.296257 L295,377.931924 L399.04,457.365212 L493.079864,385.566815 L587.012,457.283212 L673.371,389.004 L641.891784,387.989602 L642.53661,368 Z M375,628.148212 C362.849736,628.148212 353,637.997947 353,650.148212 C353,662.298476 362.849736,672.148212 375,672.148212 C387.150264,672.148212 397,662.298476 397,650.148212 C397,637.997947 387.150264,628.148212 375,628.148212 Z" id="Combined-Shape" fill="url(#linearGradient-3)" fill-rule="nonzero"></path>
    </g>
</svg>