<?xml version="1.0" encoding="UTF-8"?>
<svg width="1080px" height="1080px" viewBox="0 0 1080 1080" version="1.1" xmlns="http://www.w3.org/2000/svg" xmlns:xlink="http://www.w3.org/1999/xlink">
    <title>rigid-duo</title>
    <defs>
        <linearGradient x1="50%" y1="65.9131548%" x2="52.1686491%" y2="34.0868452%" id="linearGradient-1">
            <stop stop-color="#7C39FF" offset="0%"></stop>
            <stop stop-color="#04B9FF" offset="49.7267007%"></stop>
            <stop stop-color="#00EBBF" offset="100%"></stop>
        </linearGradient>
    </defs>
    <g id="rigid-duo" stroke="none" stroke-width="1" fill="none" fill-rule="evenodd">
        <rect fill="#1D1D21" x="0" y="0" width="1080" height="1080"></rect>
        <polygon id="Path" fill="url(#linearGradient-1)" fill-rule="nonzero" points="295 509.148045 295 401.783712 399.04 481.217 493.079864 409.418603 587.12 481.217 687.228125 404.948243 687.228125 429.948243 587.119796 506.379859 493.08 434.581 399.039932 506.379859 315 442.216 315 499.255 399.039 563.418 493.079864 491.620141 587.105 563.407 680.945091 491.407168 785 570.851955 785 678.216288 680.959 598.782 586.920136 670.581397 492.879 598.782 404.908668 665.948243 392.771875 650.051757 492.880204 573.620141 586.92 645.418 680.960068 573.620141 765 637.783 765 580.745 680.974 516.592 587.134773 588.592832 493.08 516.782 399.039932 588.581397"></polygon>
        <polygon id="Path" fill="#FFFFFF" fill-rule="nonzero" points="295 484.148045 295 376.783712 399.04 456.217 493.079864 384.418603 587.12 456.217 675.091332 389.051757 687.228125 404.948243 587.119796 481.379859 493.08 409.581 399.039932 481.379859 315 417.216 315 474.255 399.04 538.418 493.079864 466.620141 587.105 538.407 680.945091 466.407168 785 545.851955 785 653.216288 680.96 573.782 586.920136 645.581397 492.88 573.782 392.771875 650.051757 392.771875 625.051757 492.880204 548.620141 586.919 620.418 680.960068 548.620141 765 612.783 765 555.745 680.974 491.592 587.134773 563.592832 493.08 491.782 399.039932 563.581397"></polygon>
    </g>
</svg>