<?xml version="1.0" encoding="UTF-8"?>
<svg width="1080px" height="1080px" viewBox="0 0 1080 1080" version="1.1" xmlns="http://www.w3.org/2000/svg" xmlns:xlink="http://www.w3.org/1999/xlink">
    <title>rigid-color 2</title>
    <defs>
        <linearGradient x1="50%" y1="71.8808962%" x2="52.1686491%" y2="28.1191038%" id="linearGradient-1">
            <stop stop-color="#7C39FF" offset="0%"></stop>
            <stop stop-color="#04B9FF" offset="49.7267007%"></stop>
            <stop stop-color="#00EBBF" offset="100%"></stop>
        </linearGradient>
    </defs>
    <g id="rigid-color" stroke="none" stroke-width="1" fill="none" fill-rule="evenodd">
        <rect fill="#1D1D21" x="0" y="0" width="1080" height="1080"></rect>
        <path d="M642.53661,391.851788 L704.515481,393.851106 L706.514799,455.829977 L686.525197,456.474803 L685.628,428.659788 L587.227006,506.461713 L493.08,434.581 L399.039932,506.379859 L315,442.216 L315,499.255 L399.039,563.418 L493.079864,491.620141 L587.105,563.407 L680.945091,491.407168 L785,570.851955 L785,678.216288 L680.959,598.782 L586.920136,670.581397 L492.879,598.782 L414.189211,658.862118 C416.004557,663.558554 417,668.663028 417,674 C417,697.195959 398.195959,716 375,716 C351.804041,716 333,697.195959 333,674 C333,650.804041 351.804041,632 375,632 C385.625277,632 395.329022,635.945545 402.726039,642.451438 L492.880204,573.620141 L586.92,645.418 L680.960068,573.620141 L765,637.783 L765,580.745 L680.974,516.592 L587.134773,588.592832 L493.08,516.782 L399.039932,588.581397 L295,509.148045 L295,401.783712 L399.04,481.217 L493.079864,409.418603 L587.012,481.135 L673.371,412.855788 L641.891784,411.84139 L642.53661,391.851788 Z M375,652 C362.849736,652 353,661.849736 353,674 C353,686.150264 362.849736,696 375,696 C387.150264,696 397,686.150264 397,674 C397,661.849736 387.150264,652 375,652 Z" id="Combined-Shape" fill="url(#linearGradient-1)" fill-rule="nonzero"></path>
    </g>
</svg>