<?xml version="1.0" encoding="UTF-8"?>
<svg width="1080px" height="1080px" viewBox="0 0 1080 1080" version="1.1" xmlns="http://www.w3.org/2000/svg" xmlns:xlink="http://www.w3.org/1999/xlink">
    <title>rigid-depth</title>
    <defs>
        <linearGradient x1="50%" y1="65.9131548%" x2="52.1686491%" y2="34.0868452%" id="linearGradient-1">
            <stop stop-color="#7C39FF" offset="0%"></stop>
            <stop stop-color="#04B9FF" offset="49.7267007%"></stop>
            <stop stop-color="#00EBBF" offset="100%"></stop>
        </linearGradient>
        <polygon id="path-2" points="295 519.148045 295 411.783712 399.04 491.217 493.079864 419.418603 587.12 491.217 687.228125 414.948243 687.228125 439.948243 587.119796 516.379859 493.08 444.581 399.039932 516.379859 315 452.216 315 509.255 399.039 573.418 493.079864 501.620141 587.105 573.407 680.945091 501.407168 785 580.851955 785 688.216288 680.959 608.782 586.920136 680.581397 492.879 608.782 404.908668 675.948243 392.771875 660.051757 492.880204 583.620141 586.92 655.418 680.960068 583.620141 765 647.783 765 590.745 680.974 526.592 587.134773 598.592832 493.08 526.782 399.039932 598.581397"></polygon>
        <linearGradient x1="50%" y1="65.9131548%" x2="52.1686491%" y2="34.0868452%" id="linearGradient-3">
            <stop stop-color="#8348FF" offset="0%"></stop>
            <stop stop-color="#4FF0FF" offset="49.7267007%"></stop>
            <stop stop-color="#3EEE91" offset="100%"></stop>
        </linearGradient>
    </defs>
    <g id="rigid-depth" stroke="none" stroke-width="1" fill="none" fill-rule="evenodd">
        <rect fill="#1D1D21" x="0" y="0" width="1080" height="1080"></rect>
        <g id="Path" fill-rule="nonzero">
            <use fill="url(#linearGradient-1)" xlink:href="#path-2"></use>
            <use fill-opacity="0.239295373" fill="#1D1E1F" xlink:href="#path-2"></use>
        </g>
        <polygon id="Path" fill="url(#linearGradient-3)" fill-rule="nonzero" points="295 494.148045 295 386.783712 399.04 466.217 493.079864 394.418603 587.12 466.217 675.091332 399.051757 687.228125 414.948243 587.119796 491.379859 493.08 419.581 399.039932 491.379859 315 427.216 315 484.255 399.04 548.418 493.079864 476.620141 587.105 548.407 680.945091 476.407168 785 555.851955 785 663.216288 680.96 583.782 586.920136 655.581397 492.88 583.782 392.771875 660.051757 392.771875 635.051757 492.880204 558.620141 586.919 630.418 680.960068 558.620141 765 622.783 765 565.745 680.974 501.592 587.134773 573.592832 493.08 501.782 399.039932 573.581397"></polygon>
    </g>
</svg>