<?xml version="1.0" encoding="UTF-8"?>
<svg width="1080px" height="1620px" viewBox="0 0 1080 1620" version="1.1" xmlns="http://www.w3.org/2000/svg" xmlns:xlink="http://www.w3.org/1999/xlink">
    <title>rigid-type</title>
    <defs>
        <linearGradient x1="50%" y1="65.8379839%" x2="52.1686491%" y2="34.1620161%" id="linearGradient-1">
            <stop stop-color="#7C39FF" offset="0%"></stop>
            <stop stop-color="#04B9FF" offset="49.7267007%"></stop>
            <stop stop-color="#00EBBF" offset="100%"></stop>
        </linearGradient>
    </defs>
    <g id="rigid-type" stroke="none" stroke-width="1" fill="none" fill-rule="evenodd">
        <rect fill="#1D1D21" x="0" y="0" width="1080" height="1620"></rect>
        <g id="Path-2" transform="translate(540.500000, 1350.000000) rotate(-270.000000) translate(-540.500000, -1350.000000) translate(441.000000, 1294.000000)" fill="url(#linearGradient-1)" fill-rule="nonzero">
            <polygon id="Path" points="0 43.4999575 0 0 42.2529796 32.1833569 80.4446795 3.09336831 118.63649 32.1833569 154.363622 4.97054688 159.292647 11.4112002 118.636407 42.3783933 80.4447347 13.2882178 42.252952 42.3783933 8.12244898 16.3816303 8.12244898 39.4916707 42.2529796 65.4880858 80.4446795 36.3983154 118.630398 65.483629 156.740965 36.3120266 199 68.5000425 199 112 156.74702 79.8162379 118.555321 108.906632 80.3635102 79.8162379 44.6363776 107.029453 39.7073534 100.5888 80.363593 69.6216067 118.555265 98.7113771 156.747048 69.6216067 190.877551 95.6179645 190.877551 72.5083293 156.752706 46.5159658 118.64249 75.6879734 80.4447347 46.5929466 42.252952 75.6833404"></polygon>
        </g>
        <g id="Group-2" transform="translate(249.000000, 750.000000)">
            <g id="Path-2" fill="url(#linearGradient-1)" fill-rule="nonzero">
                <polygon id="Path" points="0 43.4999575 0 0 42.2529796 32.1833569 80.4446795 3.09336831 118.63649 32.1833569 154.363622 4.97054688 159.292647 11.4112002 118.636407 42.3783933 80.4447347 13.2882178 42.252952 42.3783933 8.12244898 16.3816303 8.12244898 39.4916707 42.2529796 65.4880858 80.4446795 36.3983154 118.630398 65.483629 156.740965 36.3120266 199 68.5000425 199 112 156.74702 79.8162379 118.555321 108.906632 80.3635102 79.8162379 44.6363776 107.029453 39.7073534 100.5888 80.363593 69.6216067 118.555265 98.7113771 156.747048 69.6216067 190.877551 95.6179645 190.877551 72.5083293 156.752706 46.5159658 118.64249 75.6879734 80.4447347 46.5929466 42.252952 75.6833404"></polygon>
            </g>
            <text id="WebMob" font-family="Poppins-Bold, Poppins" font-size="74" font-weight="bold" fill="#FFFFFF">
                <tspan x="244.003" y="82">WebMob</tspan>
            </text>
        </g>
        <g id="Path-2" transform="translate(441.000000, 204.000000)" fill="url(#linearGradient-1)" fill-rule="nonzero">
            <polygon id="Path" points="0 43.4999575 0 0 42.2529796 32.1833569 80.4446795 3.09336831 118.63649 32.1833569 154.363622 4.97054688 159.292647 11.4112002 118.636407 42.3783933 80.4447347 13.2882178 42.252952 42.3783933 8.12244898 16.3816303 8.12244898 39.4916707 42.2529796 65.4880858 80.4446795 36.3983154 118.630398 65.483629 156.740965 36.3120266 199 68.5000425 199 112 156.74702 79.8162379 118.555321 108.906632 80.3635102 79.8162379 44.6363776 107.029453 39.7073534 100.5888 80.363593 69.6216067 118.555265 98.7113771 156.747048 69.6216067 190.877551 95.6179645 190.877551 72.5083293 156.752706 46.5159658 118.64249 75.6879734 80.4447347 46.5929466 42.252952 75.6833404"></polygon>
        </g>
        <g id="Group" transform="translate(294.000000, 1299.000000)" fill="#FFFFFF" font-family="Poppins-Bold, Poppins" font-size="74" font-weight="bold">
            <text id="Web">
                <tspan x="0.161" y="78">Web</tspan>
            </text>
            <text id="Mob">
                <tspan x="322.342" y="78">Mob</tspan>
            </text>
        </g>
        <text id="WebMob" font-family="Poppins-Bold, Poppins" font-size="54" font-weight="bold" fill="#FFFFFF">
            <tspan x="416.313" y="401">WebMob</tspan>
        </text>
        <rect id="Rectangle" fill="#CFCED7" opacity="0.243344262" x="0" y="1080" width="1080" height="1"></rect>
        <rect id="Rectangle" fill="#CFCED7" opacity="0.243344262" x="0" y="540" width="1080" height="1"></rect>
    </g>
</svg>