<?xml version="1.0" encoding="UTF-8"?>
<svg width="1080px" height="1621px" viewBox="0 0 1080 1621" version="1.1" xmlns="http://www.w3.org/2000/svg" xmlns:xlink="http://www.w3.org/1999/xlink">
    <title>uniform-min-type</title>
    <defs>
        <linearGradient x1="50%" y1="100%" x2="51.3659921%" y2="0%" id="linearGradient-1">
            <stop stop-color="#7C39FF" offset="0%"></stop>
            <stop stop-color="#04B9FF" offset="49.7267007%"></stop>
            <stop stop-color="#00EBBF" offset="100%"></stop>
        </linearGradient>
        <linearGradient x1="50%" y1="82.6183432%" x2="52.1686491%" y2="17.3816568%" id="linearGradient-2">
            <stop stop-color="#7C39FF" offset="0%"></stop>
            <stop stop-color="#04B9FF" offset="49.7267007%"></stop>
            <stop stop-color="#00EBBF" offset="100%"></stop>
        </linearGradient>
        <linearGradient x1="50%" y1="100%" x2="51.3659921%" y2="0%" id="linearGradient-3">
            <stop stop-color="#00EBBF" offset="0%"></stop>
            <stop stop-color="#04B9FF" offset="50.2732993%"></stop>
            <stop stop-color="#7C39FF" offset="100%"></stop>
        </linearGradient>
        <linearGradient x1="50%" y1="82.6183432%" x2="52.1686491%" y2="17.3816568%" id="linearGradient-4">
            <stop stop-color="#00EBBF" offset="0%"></stop>
            <stop stop-color="#04B9FF" offset="50.2732993%"></stop>
            <stop stop-color="#7C39FF" offset="100%"></stop>
        </linearGradient>
        <linearGradient x1="50%" y1="82.1978357%" x2="52.1686491%" y2="17.8021643%" id="linearGradient-5">
            <stop stop-color="#7C39FF" offset="0%"></stop>
            <stop stop-color="#04B9FF" offset="49.7267007%"></stop>
            <stop stop-color="#00EBBF" offset="100%"></stop>
        </linearGradient>
        <linearGradient x1="50%" y1="100%" x2="51.3879354%" y2="0%" id="linearGradient-6">
            <stop stop-color="#7C39FF" offset="0%"></stop>
            <stop stop-color="#04B9FF" offset="49.7267007%"></stop>
            <stop stop-color="#00EBBF" offset="100%"></stop>
        </linearGradient>
        <linearGradient x1="50%" y1="82.1978357%" x2="52.1686491%" y2="17.8021643%" id="linearGradient-7">
            <stop stop-color="#00EBBF" offset="0%"></stop>
            <stop stop-color="#04B9FF" offset="50.2732993%"></stop>
            <stop stop-color="#7C39FF" offset="100%"></stop>
        </linearGradient>
    </defs>
    <g id="uniform-min-type" stroke="none" stroke-width="1" fill="none" fill-rule="evenodd">
        <rect fill="#1D1D21" x="0" y="0" width="1080" height="1621"></rect>
        <g id="Group" transform="translate(372.353000, 340.240000)" fill="#FFFFFF" fill-rule="nonzero">
            <g id="WebMob">
                <polygon id="Path" points="74.222 2.812 60.68 54.76 45.362 54.76 37.074 20.572 28.49 54.76 13.172 54.76 0 2.812 13.542 2.812 21.016 40.626 30.266 2.812 44.178 2.812 53.058 40.626 60.606 2.812"></polygon>
                <path d="M119.51,33.448 C119.51,34.632 119.436,35.8653333 119.288,37.148 L90.65,37.148 C90.8473333,39.7133333 91.6736667,41.6743333 93.129,43.031 C94.5843333,44.3876667 96.3726667,45.066 98.494,45.066 C101.651333,45.066 103.846667,43.734 105.08,41.07 L118.548,41.07 C117.857333,43.7833333 116.611667,46.2253333 114.811,48.396 C113.010333,50.5666667 110.753333,52.2686667 108.04,53.502 C105.326667,54.7353333 102.292667,55.352 98.938,55.352 C94.8926667,55.352 91.2913333,54.4886667 88.134,52.762 C84.9766667,51.0353333 82.51,48.5686667 80.734,45.362 C78.958,42.1553333 78.07,38.406 78.07,34.114 C78.07,29.822 78.9456667,26.0726667 80.697,22.866 C82.4483333,19.6593333 84.9026667,17.1926667 88.06,15.466 C91.2173333,13.7393333 94.8433333,12.876 98.938,12.876 C102.934,12.876 106.486,13.7146667 109.594,15.392 C112.702,17.0693333 115.131667,19.462 116.883,22.57 C118.634333,25.678 119.51,29.304 119.51,33.448 Z M106.56,30.118 C106.56,27.9473333 105.82,26.2206667 104.34,24.938 C102.86,23.6553333 101.01,23.014 98.79,23.014 C96.6686667,23.014 94.8803333,23.6306667 93.425,24.864 C91.9696667,26.0973333 91.0693333,27.8486667 90.724,30.118 L106.56,30.118 Z" id="Shape"></path>
                <path d="M138.824,19.314 C140.008,17.39 141.71,15.836 143.93,14.652 C146.15,13.468 148.690667,12.876 151.552,12.876 C154.956,12.876 158.039333,13.7393333 160.802,15.466 C163.564667,17.1926667 165.747667,19.6593333 167.351,22.866 C168.954333,26.0726667 169.756,29.7973333 169.756,34.04 C169.756,38.2826667 168.954333,42.0196667 167.351,45.251 C165.747667,48.4823333 163.564667,50.9736667 160.802,52.725 C158.039333,54.4763333 154.956,55.352 151.552,55.352 C148.641333,55.352 146.100667,54.7723333 143.93,53.613 C141.759333,52.4536667 140.057333,50.912 138.824,48.988 L138.824,54.76 L126.17,54.76 L126.17,0 L138.824,0 L138.824,19.314 Z M156.88,34.04 C156.88,30.8826667 156.004333,28.4036667 154.253,26.603 C152.501667,24.8023333 150.343333,23.902 147.778,23.902 C145.262,23.902 143.128333,24.8146667 141.377,26.64 C139.625667,28.4653333 138.75,30.9566667 138.75,34.114 C138.75,37.2713333 139.625667,39.7626667 141.377,41.588 C143.128333,43.4133333 145.262,44.326 147.778,44.326 C150.294,44.326 152.44,43.401 154.216,41.551 C155.992,39.701 156.88,37.1973333 156.88,34.04 Z" id="Shape"></path>
                <polygon id="Path" points="235.246 2.812 235.246 54.76 222.592 54.76 222.592 23.606 210.974 54.76 200.762 54.76 189.07 23.532 189.07 54.76 176.416 54.76 176.416 2.812 191.364 2.812 205.942 38.776 220.372 2.812"></polygon>
                <path d="M263.144,55.352 C259.098667,55.352 255.460333,54.4886667 252.229,52.762 C248.997667,51.0353333 246.457,48.5686667 244.607,45.362 C242.757,42.1553333 241.832,38.406 241.832,34.114 C241.832,29.8713333 242.769333,26.1343333 244.644,22.903 C246.518667,19.6716667 249.084,17.1926667 252.34,15.466 C255.596,13.7393333 259.246667,12.876 263.292,12.876 C267.337333,12.876 270.988,13.7393333 274.244,15.466 C277.5,17.1926667 280.065333,19.6716667 281.94,22.903 C283.814667,26.1343333 284.752,29.8713333 284.752,34.114 C284.752,38.3566667 283.802333,42.0936667 281.903,45.325 C280.003667,48.5563333 277.413667,51.0353333 274.133,52.762 C270.852333,54.4886667 267.189333,55.352 263.144,55.352 Z M263.144,44.4 C265.561333,44.4 267.621,43.512 269.323,41.736 C271.025,39.96 271.876,37.4193333 271.876,34.114 C271.876,30.8086667 271.049667,28.268 269.397,26.492 C267.744333,24.716 265.709333,23.828 263.292,23.828 C260.825333,23.828 258.778,24.7036667 257.15,26.455 C255.522,28.2063333 254.708,30.7593333 254.708,34.114 C254.708,37.4193333 255.509667,39.96 257.113,41.736 C258.716333,43.512 260.726667,44.4 263.144,44.4 Z" id="Shape"></path>
                <path d="M304.14,19.314 C305.324,17.39 307.026,15.836 309.246,14.652 C311.466,13.468 314.006667,12.876 316.868,12.876 C320.272,12.876 323.355333,13.7393333 326.118,15.466 C328.880667,17.1926667 331.063667,19.6593333 332.667,22.866 C334.270333,26.0726667 335.072,29.7973333 335.072,34.04 C335.072,38.2826667 334.270333,42.0196667 332.667,45.251 C331.063667,48.4823333 328.880667,50.9736667 326.118,52.725 C323.355333,54.4763333 320.272,55.352 316.868,55.352 C313.957333,55.352 311.416667,54.7723333 309.246,53.613 C307.075333,52.4536667 305.373333,50.912 304.14,48.988 L304.14,54.76 L291.486,54.76 L291.486,0 L304.14,0 L304.14,19.314 Z M322.196,34.04 C322.196,30.8826667 321.320333,28.4036667 319.569,26.603 C317.817667,24.8023333 315.659333,23.902 313.094,23.902 C310.578,23.902 308.444333,24.8146667 306.693,26.64 C304.941667,28.4653333 304.066,30.9566667 304.066,34.114 C304.066,37.2713333 304.941667,39.7626667 306.693,41.588 C308.444333,43.4133333 310.578,44.326 313.094,44.326 C315.61,44.326 317.756,43.401 319.532,41.551 C321.308,39.701 322.196,37.1973333 322.196,34.04 Z" id="Shape"></path>
            </g>
        </g>
        <rect id="Rectangle" fill="#CFCED7" opacity="0.243344262" x="0" y="540" width="1080" height="1"></rect>
        <rect id="Rectangle" fill="#CFCED7" opacity="0.243344262" x="0" y="1079" width="1080" height="1"></rect>
        <g id="WebMob" transform="translate(494.853000, 777.240000)" fill="#FFFFFF" fill-rule="nonzero">
            <polygon id="Path" points="74.222 2.812 60.68 54.76 45.362 54.76 37.074 20.572 28.49 54.76 13.172 54.76 0 2.812 13.542 2.812 21.016 40.626 30.266 2.812 44.178 2.812 53.058 40.626 60.606 2.812"></polygon>
            <path d="M119.51,33.448 C119.51,34.632 119.436,35.8653333 119.288,37.148 L90.65,37.148 C90.8473333,39.7133333 91.6736667,41.6743333 93.129,43.031 C94.5843333,44.3876667 96.3726667,45.066 98.494,45.066 C101.651333,45.066 103.846667,43.734 105.08,41.07 L118.548,41.07 C117.857333,43.7833333 116.611667,46.2253333 114.811,48.396 C113.010333,50.5666667 110.753333,52.2686667 108.04,53.502 C105.326667,54.7353333 102.292667,55.352 98.938,55.352 C94.8926667,55.352 91.2913333,54.4886667 88.134,52.762 C84.9766667,51.0353333 82.51,48.5686667 80.734,45.362 C78.958,42.1553333 78.07,38.406 78.07,34.114 C78.07,29.822 78.9456667,26.0726667 80.697,22.866 C82.4483333,19.6593333 84.9026667,17.1926667 88.06,15.466 C91.2173333,13.7393333 94.8433333,12.876 98.938,12.876 C102.934,12.876 106.486,13.7146667 109.594,15.392 C112.702,17.0693333 115.131667,19.462 116.883,22.57 C118.634333,25.678 119.51,29.304 119.51,33.448 Z M106.56,30.118 C106.56,27.9473333 105.82,26.2206667 104.34,24.938 C102.86,23.6553333 101.01,23.014 98.79,23.014 C96.6686667,23.014 94.8803333,23.6306667 93.425,24.864 C91.9696667,26.0973333 91.0693333,27.8486667 90.724,30.118 L106.56,30.118 Z" id="Shape"></path>
            <path d="M138.824,19.314 C140.008,17.39 141.71,15.836 143.93,14.652 C146.15,13.468 148.690667,12.876 151.552,12.876 C154.956,12.876 158.039333,13.7393333 160.802,15.466 C163.564667,17.1926667 165.747667,19.6593333 167.351,22.866 C168.954333,26.0726667 169.756,29.7973333 169.756,34.04 C169.756,38.2826667 168.954333,42.0196667 167.351,45.251 C165.747667,48.4823333 163.564667,50.9736667 160.802,52.725 C158.039333,54.4763333 154.956,55.352 151.552,55.352 C148.641333,55.352 146.100667,54.7723333 143.93,53.613 C141.759333,52.4536667 140.057333,50.912 138.824,48.988 L138.824,54.76 L126.17,54.76 L126.17,0 L138.824,0 L138.824,19.314 Z M156.88,34.04 C156.88,30.8826667 156.004333,28.4036667 154.253,26.603 C152.501667,24.8023333 150.343333,23.902 147.778,23.902 C145.262,23.902 143.128333,24.8146667 141.377,26.64 C139.625667,28.4653333 138.75,30.9566667 138.75,34.114 C138.75,37.2713333 139.625667,39.7626667 141.377,41.588 C143.128333,43.4133333 145.262,44.326 147.778,44.326 C150.294,44.326 152.44,43.401 154.216,41.551 C155.992,39.701 156.88,37.1973333 156.88,34.04 Z" id="Shape"></path>
            <polygon id="Path" points="235.246 2.812 235.246 54.76 222.592 54.76 222.592 23.606 210.974 54.76 200.762 54.76 189.07 23.532 189.07 54.76 176.416 54.76 176.416 2.812 191.364 2.812 205.942 38.776 220.372 2.812"></polygon>
            <path d="M263.144,55.352 C259.098667,55.352 255.460333,54.4886667 252.229,52.762 C248.997667,51.0353333 246.457,48.5686667 244.607,45.362 C242.757,42.1553333 241.832,38.406 241.832,34.114 C241.832,29.8713333 242.769333,26.1343333 244.644,22.903 C246.518667,19.6716667 249.084,17.1926667 252.34,15.466 C255.596,13.7393333 259.246667,12.876 263.292,12.876 C267.337333,12.876 270.988,13.7393333 274.244,15.466 C277.5,17.1926667 280.065333,19.6716667 281.94,22.903 C283.814667,26.1343333 284.752,29.8713333 284.752,34.114 C284.752,38.3566667 283.802333,42.0936667 281.903,45.325 C280.003667,48.5563333 277.413667,51.0353333 274.133,52.762 C270.852333,54.4886667 267.189333,55.352 263.144,55.352 Z M263.144,44.4 C265.561333,44.4 267.621,43.512 269.323,41.736 C271.025,39.96 271.876,37.4193333 271.876,34.114 C271.876,30.8086667 271.049667,28.268 269.397,26.492 C267.744333,24.716 265.709333,23.828 263.292,23.828 C260.825333,23.828 258.778,24.7036667 257.15,26.455 C255.522,28.2063333 254.708,30.7593333 254.708,34.114 C254.708,37.4193333 255.509667,39.96 257.113,41.736 C258.716333,43.512 260.726667,44.4 263.144,44.4 Z" id="Shape"></path>
            <path d="M304.14,19.314 C305.324,17.39 307.026,15.836 309.246,14.652 C311.466,13.468 314.006667,12.876 316.868,12.876 C320.272,12.876 323.355333,13.7393333 326.118,15.466 C328.880667,17.1926667 331.063667,19.6593333 332.667,22.866 C334.270333,26.0726667 335.072,29.7973333 335.072,34.04 C335.072,38.2826667 334.270333,42.0196667 332.667,45.251 C331.063667,48.4823333 328.880667,50.9736667 326.118,52.725 C323.355333,54.4763333 320.272,55.352 316.868,55.352 C313.957333,55.352 311.416667,54.7723333 309.246,53.613 C307.075333,52.4536667 305.373333,50.912 304.14,48.988 L304.14,54.76 L291.486,54.76 L291.486,0 L304.14,0 L304.14,19.314 Z M322.196,34.04 C322.196,30.8826667 321.320333,28.4036667 319.569,26.603 C317.817667,24.8023333 315.659333,23.902 313.094,23.902 C310.578,23.902 308.444333,24.8146667 306.693,26.64 C304.941667,28.4653333 304.066,30.9566667 304.066,34.114 C304.066,37.2713333 304.941667,39.7626667 306.693,41.588 C308.444333,43.4133333 310.578,44.326 313.094,44.326 C315.61,44.326 317.756,43.401 319.532,41.551 C321.308,39.701 322.196,37.1973333 322.196,34.04 Z" id="Shape"></path>
        </g>
        <g id="WebMob" transform="translate(552.853000, 1322.240000)" fill="#FFFFFF" fill-rule="nonzero">
            <polygon id="Path" points="74.222 2.812 60.68 54.76 45.362 54.76 37.074 20.572 28.49 54.76 13.172 54.76 0 2.812 13.542 2.812 21.016 40.626 30.266 2.812 44.178 2.812 53.058 40.626 60.606 2.812"></polygon>
            <path d="M119.51,33.448 C119.51,34.632 119.436,35.8653333 119.288,37.148 L90.65,37.148 C90.8473333,39.7133333 91.6736667,41.6743333 93.129,43.031 C94.5843333,44.3876667 96.3726667,45.066 98.494,45.066 C101.651333,45.066 103.846667,43.734 105.08,41.07 L118.548,41.07 C117.857333,43.7833333 116.611667,46.2253333 114.811,48.396 C113.010333,50.5666667 110.753333,52.2686667 108.04,53.502 C105.326667,54.7353333 102.292667,55.352 98.938,55.352 C94.8926667,55.352 91.2913333,54.4886667 88.134,52.762 C84.9766667,51.0353333 82.51,48.5686667 80.734,45.362 C78.958,42.1553333 78.07,38.406 78.07,34.114 C78.07,29.822 78.9456667,26.0726667 80.697,22.866 C82.4483333,19.6593333 84.9026667,17.1926667 88.06,15.466 C91.2173333,13.7393333 94.8433333,12.876 98.938,12.876 C102.934,12.876 106.486,13.7146667 109.594,15.392 C112.702,17.0693333 115.131667,19.462 116.883,22.57 C118.634333,25.678 119.51,29.304 119.51,33.448 Z M106.56,30.118 C106.56,27.9473333 105.82,26.2206667 104.34,24.938 C102.86,23.6553333 101.01,23.014 98.79,23.014 C96.6686667,23.014 94.8803333,23.6306667 93.425,24.864 C91.9696667,26.0973333 91.0693333,27.8486667 90.724,30.118 L106.56,30.118 Z" id="Shape"></path>
            <path d="M138.824,19.314 C140.008,17.39 141.71,15.836 143.93,14.652 C146.15,13.468 148.690667,12.876 151.552,12.876 C154.956,12.876 158.039333,13.7393333 160.802,15.466 C163.564667,17.1926667 165.747667,19.6593333 167.351,22.866 C168.954333,26.0726667 169.756,29.7973333 169.756,34.04 C169.756,38.2826667 168.954333,42.0196667 167.351,45.251 C165.747667,48.4823333 163.564667,50.9736667 160.802,52.725 C158.039333,54.4763333 154.956,55.352 151.552,55.352 C148.641333,55.352 146.100667,54.7723333 143.93,53.613 C141.759333,52.4536667 140.057333,50.912 138.824,48.988 L138.824,54.76 L126.17,54.76 L126.17,-2.27373675e-13 L138.824,-2.27373675e-13 L138.824,19.314 Z M156.88,34.04 C156.88,30.8826667 156.004333,28.4036667 154.253,26.603 C152.501667,24.8023333 150.343333,23.902 147.778,23.902 C145.262,23.902 143.128333,24.8146667 141.377,26.64 C139.625667,28.4653333 138.75,30.9566667 138.75,34.114 C138.75,37.2713333 139.625667,39.7626667 141.377,41.588 C143.128333,43.4133333 145.262,44.326 147.778,44.326 C150.294,44.326 152.44,43.401 154.216,41.551 C155.992,39.701 156.88,37.1973333 156.88,34.04 Z" id="Shape"></path>
            <polygon id="Path" points="235.246 2.812 235.246 54.76 222.592 54.76 222.592 23.606 210.974 54.76 200.762 54.76 189.07 23.532 189.07 54.76 176.416 54.76 176.416 2.812 191.364 2.812 205.942 38.776 220.372 2.812"></polygon>
            <path d="M263.144,55.352 C259.098667,55.352 255.460333,54.4886667 252.229,52.762 C248.997667,51.0353333 246.457,48.5686667 244.607,45.362 C242.757,42.1553333 241.832,38.406 241.832,34.114 C241.832,29.8713333 242.769333,26.1343333 244.644,22.903 C246.518667,19.6716667 249.084,17.1926667 252.34,15.466 C255.596,13.7393333 259.246667,12.876 263.292,12.876 C267.337333,12.876 270.988,13.7393333 274.244,15.466 C277.5,17.1926667 280.065333,19.6716667 281.94,22.903 C283.814667,26.1343333 284.752,29.8713333 284.752,34.114 C284.752,38.3566667 283.802333,42.0936667 281.903,45.325 C280.003667,48.5563333 277.413667,51.0353333 274.133,52.762 C270.852333,54.4886667 267.189333,55.352 263.144,55.352 Z M263.144,44.4 C265.561333,44.4 267.621,43.512 269.323,41.736 C271.025,39.96 271.876,37.4193333 271.876,34.114 C271.876,30.8086667 271.049667,28.268 269.397,26.492 C267.744333,24.716 265.709333,23.828 263.292,23.828 C260.825333,23.828 258.778,24.7036667 257.15,26.455 C255.522,28.2063333 254.708,30.7593333 254.708,34.114 C254.708,37.4193333 255.509667,39.96 257.113,41.736 C258.716333,43.512 260.726667,44.4 263.144,44.4 Z" id="Shape"></path>
            <path d="M304.14,19.314 C305.324,17.39 307.026,15.836 309.246,14.652 C311.466,13.468 314.006667,12.876 316.868,12.876 C320.272,12.876 323.355333,13.7393333 326.118,15.466 C328.880667,17.1926667 331.063667,19.6593333 332.667,22.866 C334.270333,26.0726667 335.072,29.7973333 335.072,34.04 C335.072,38.2826667 334.270333,42.0196667 332.667,45.251 C331.063667,48.4823333 328.880667,50.9736667 326.118,52.725 C323.355333,54.4763333 320.272,55.352 316.868,55.352 C313.957333,55.352 311.416667,54.7723333 309.246,53.613 C307.075333,52.4536667 305.373333,50.912 304.14,48.988 L304.14,54.76 L291.486,54.76 L291.486,-2.27373675e-13 L304.14,-2.27373675e-13 L304.14,19.314 Z M322.196,34.04 C322.196,30.8826667 321.320333,28.4036667 319.569,26.603 C317.817667,24.8023333 315.659333,23.902 313.094,23.902 C310.578,23.902 308.444333,24.8146667 306.693,26.64 C304.941667,28.4653333 304.066,30.9566667 304.066,34.114 C304.066,37.2713333 304.941667,39.7626667 306.693,41.588 C308.444333,43.4133333 310.578,44.326 313.094,44.326 C315.61,44.326 317.756,43.401 319.532,41.551 C321.308,39.701 322.196,37.1973333 322.196,34.04 Z" id="Shape"></path>
        </g>
        <g id="Group" transform="translate(295.000000, 738.000000)" fill-rule="nonzero">
            <path d="M109.266383,4.69753689 C112.659019,-0.241244707 119.398501,-1.48466964 124.319437,1.92026958 C129.191164,5.2911594 130.454158,11.9541884 127.18706,16.8792067 L127.086669,17.0279125 L98.7336174,58.3024631 C95.3409813,63.2412447 88.6014994,64.4846696 83.6805632,61.0797304 C78.8088363,57.7088406 77.5458418,51.0458116 80.8129405,46.1207933 L80.913331,45.9720875 L109.266383,4.69753689 Z" id="Path" fill="url(#linearGradient-1)"></path>
            <path d="M58.3553005,4.69761152 C61.7326496,-0.24124854 68.4417641,-1.48469322 73.340527,1.92030009 C78.1903023,5.29124346 79.4476059,11.9543783 76.1952285,16.8794749 L76.0952903,17.0281831 L47.8699949,58.3033894 C43.6305623,64.5029154 34.5952805,64.5649107 30.2599309,58.4893752 L30.1300051,58.3033894 L1.90470974,17.0281831 C-1.47263944,12.089323 -0.239289914,5.3252934 4.659473,1.92030009 C9.50924828,-1.45064329 16.1333491,-0.26565259 19.5423847,4.55055529 L19.6446995,4.69761152 L38.999675,33.0016145 L58.3553005,4.69761152 Z" id="Path" fill="url(#linearGradient-2)"></path>
            <path d="M32.6805632,74.9202696 C37.55229,71.5493798 44.2063735,72.7343516 47.6308394,77.550483 L47.7336174,77.6975369 L76.086669,118.972087 C79.479305,123.910869 78.240373,130.674791 73.3194368,134.07973 C68.44771,137.45062 61.7936265,136.265648 58.3691606,131.449517 L58.2663826,131.302463 L29.913331,90.0279125 C26.520695,85.0891309 27.759627,78.3252088 32.6805632,74.9202696 Z" id="Path" fill="url(#linearGradient-3)" transform="translate(53.000000, 104.500000) scale(1, -1) translate(-53.000000, -104.500000) "></path>
            <path d="M136.3553,77.6976115 C139.73265,72.7587515 146.441764,71.5153068 151.340527,74.9203001 C156.190302,78.2912435 157.447606,84.9543783 154.195228,89.8794749 L154.09529,90.0281831 L125.869995,131.303389 C121.630562,137.502915 112.59528,137.564911 108.259931,131.489375 L108.130005,131.303389 L79.9047097,90.0281831 C76.5273606,85.089323 77.7607101,78.3252934 82.659473,74.9203001 C87.5092483,71.5493567 94.1333491,72.7343474 97.5423847,77.5505553 L97.6446995,77.6976115 L116.999811,106.001615 L136.3553,77.6976115 Z" id="Path" fill="url(#linearGradient-4)" transform="translate(117.000000, 104.500000) scale(1, -1) translate(-117.000000, -104.500000) "></path>
        </g>
        <g id="Group" transform="translate(462.000000, 161.000000)" fill-rule="nonzero">
            <path d="M109.266383,4.69753689 C112.659019,-0.241244707 119.398501,-1.48466964 124.319437,1.92026958 C129.191164,5.2911594 130.454158,11.9541884 127.18706,16.8792067 L127.086669,17.0279125 L98.7336174,58.3024631 C95.3409813,63.2412447 88.6014994,64.4846696 83.6805632,61.0797304 C78.8088363,57.7088406 77.5458418,51.0458116 80.8129405,46.1207933 L80.913331,45.9720875 L109.266383,4.69753689 Z" id="Path" fill="url(#linearGradient-1)"></path>
            <path d="M58.3553005,4.69761152 C61.7326496,-0.24124854 68.4417641,-1.48469322 73.340527,1.92030009 C78.1903023,5.29124346 79.4476059,11.9543783 76.1952285,16.8794749 L76.0952903,17.0281831 L47.8699949,58.3033894 C43.6305623,64.5029154 34.5952805,64.5649107 30.2599309,58.4893752 L30.1300051,58.3033894 L1.90470974,17.0281831 C-1.47263944,12.089323 -0.239289914,5.3252934 4.659473,1.92030009 C9.50924828,-1.45064329 16.1333491,-0.26565259 19.5423847,4.55055529 L19.6446995,4.69761152 L38.999675,33.0016145 L58.3553005,4.69761152 Z" id="Path" fill="url(#linearGradient-2)"></path>
            <path d="M32.6805632,74.9202696 C37.55229,71.5493798 44.2063735,72.7343516 47.6308394,77.550483 L47.7336174,77.6975369 L76.086669,118.972087 C79.479305,123.910869 78.240373,130.674791 73.3194368,134.07973 C68.44771,137.45062 61.7936265,136.265648 58.3691606,131.449517 L58.2663826,131.302463 L29.913331,90.0279125 C26.520695,85.0891309 27.759627,78.3252088 32.6805632,74.9202696 Z" id="Path" fill="url(#linearGradient-3)" transform="translate(53.000000, 104.500000) scale(1, -1) translate(-53.000000, -104.500000) "></path>
            <path d="M136.3553,77.6976115 C139.73265,72.7587515 146.441764,71.5153068 151.340527,74.9203001 C156.190302,78.2912435 157.447606,84.9543783 154.195228,89.8794749 L154.09529,90.0281831 L125.869995,131.303389 C121.630562,137.502915 112.59528,137.564911 108.259931,131.489375 L108.130005,131.303389 L79.9047097,90.0281831 C76.5273606,85.089323 77.7607101,78.3252934 82.659473,74.9203001 C87.5092483,71.5493567 94.1333491,72.7343474 97.5423847,77.5505553 L97.6446995,77.6976115 L116.999811,106.001615 L136.3553,77.6976115 Z" id="Path" fill="url(#linearGradient-4)" transform="translate(117.000000, 104.500000) scale(1, -1) translate(-117.000000, -104.500000) "></path>
        </g>
        <g id="Group" transform="translate(295.000000, 1319.000000)" fill-rule="nonzero">
            <path d="M60.5997351,4.84674204 C64.1069823,-0.248907224 71.0741396,-1.53182634 76.1613165,1.981262 C81.1976216,5.45921945 82.5032831,12.3338824 79.1258142,17.4153312 L79.0220322,17.5687603 L49.7111485,60.1542906 C45.3086609,66.550627 35.9258682,66.6145904 31.4237744,60.3461807 L31.2888515,60.1542906 L1.9779678,17.5687603 C-1.52927941,12.473111 -0.248493373,5.49435033 4.8386835,1.981262 C9.8749886,-1.49669546 16.7538625,-0.274086006 20.2940148,4.69501737 L20.4002649,4.84674204 L40.4996625,34.0492848 L60.5997351,4.84674204 Z" id="Path" fill="url(#linearGradient-5)"></path>
            <path d="M85.8677857,1.98123052 C90.9343816,-1.49667168 97.8546285,-0.274081651 101.416073,4.69494278 L101.522962,4.84666504 L131.010136,47.4315188 C134.538477,52.5270871 133.249988,59.505737 128.132214,63.0187695 C123.065618,66.4966717 116.145372,65.2740817 112.583927,60.3050572 L112.477038,60.153335 L82.9898643,17.5684812 C79.4615228,12.4729129 80.7500121,5.49426304 85.8677857,1.98123052 Z" id="Path" fill="url(#linearGradient-6)" transform="translate(107.000000, 32.500000) scale(1, -1) translate(-107.000000, -32.500000) "></path>
            <path d="M193.599735,4.84674204 C197.106982,-0.248907224 204.07414,-1.53182634 209.161317,1.981262 C214.197622,5.45921945 215.503283,12.3338824 212.125814,17.4153312 L212.022032,17.5687603 L182.711149,60.1542906 C178.308661,66.550627 168.925868,66.6145904 164.423774,60.3461807 L164.288851,60.1542906 L134.977968,17.5687603 C131.470721,12.473111 132.751507,5.49435033 137.838683,1.981262 C142.874989,-1.49669546 149.753863,-0.274086006 153.294015,4.69501737 L153.400265,4.84674204 L173.499769,34.0492848 L193.599735,4.84674204 Z" id="Path" fill="url(#linearGradient-7)" transform="translate(173.500000, 32.500000) scale(1, -1) translate(-173.500000, -32.500000) "></path>
        </g>
    </g>
</svg>