<?xml version="1.0" encoding="UTF-8"?>
<svg width="1080px" height="1080px" viewBox="0 0 1080 1080" version="1.1" xmlns="http://www.w3.org/2000/svg" xmlns:xlink="http://www.w3.org/1999/xlink">
    <title>uniform-double-color</title>
    <defs>
        <linearGradient x1="50%" y1="100%" x2="51.3659921%" y2="0%" id="linearGradient-1">
            <stop stop-color="#7C39FF" offset="0%"></stop>
            <stop stop-color="#04B9FF" offset="49.7267007%"></stop>
            <stop stop-color="#00EBBF" offset="100%"></stop>
        </linearGradient>
        <linearGradient x1="50%" y1="82.2041462%" x2="52.1686491%" y2="17.7958538%" id="linearGradient-2">
            <stop stop-color="#7C39FF" offset="0%"></stop>
            <stop stop-color="#04B9FF" offset="49.7267007%"></stop>
            <stop stop-color="#00EBBF" offset="100%"></stop>
        </linearGradient>
    </defs>
    <g id="uniform-double-color" stroke="none" stroke-width="1" fill="none" fill-rule="evenodd">
        <rect fill="#1D1D21" x="0" y="0" width="1080" height="1080"></rect>
        <g id="Group" transform="translate(282.000000, 477.000000)" fill-rule="nonzero">
            <path d="M218.532765,9.39507378 C225.318037,-0.482489415 238.797001,-2.96933927 248.638874,3.84053916 C258.382327,10.5823188 260.908316,23.9083768 254.374119,33.7584135 L254.173338,34.0558251 L197.467235,116.604926 C190.681963,126.482489 177.202999,128.969339 167.361126,122.159461 C157.617673,115.417681 155.091684,102.091623 161.625881,92.2415865 L161.826662,91.9441749 L218.532765,9.39507378 Z" id="Path" fill="url(#linearGradient-1)"></path>
            <path d="M117.458746,9.39522304 C124.256744,-0.48249708 137.760987,-2.96938644 147.621317,3.84060018 C157.383044,10.5824869 159.913771,23.9087566 153.367319,33.7589498 L153.166161,34.0563661 L96.3537077,116.606779 C87.8204909,129.005831 69.6340902,129.129821 60.9078097,116.97875 L60.6462923,116.606779 L3.83383883,34.0563661 C-2.96415886,24.178646 -0.481647648,10.6505868 9.37868283,3.84060018 C19.14041,-2.90128658 32.473536,-0.53130518 39.3353127,9.10111059 L39.5412542,9.39522304 L78.4993458,66.0032291 L117.458746,9.39522304 Z" id="Path" fill="url(#linearGradient-2)"></path>
            <path d="M267.361126,3.84053916 C277.10458,-2.90124049 290.412747,-0.531296739 297.261679,9.100966 L297.467235,9.39507378 L354.173338,91.9441749 C360.95861,101.821738 358.480746,115.349582 348.638874,122.159461 C338.89542,128.90124 325.587253,126.531297 318.738321,116.899034 L318.532765,116.604926 L261.826662,34.0558251 C255.04139,24.1782619 257.519254,10.6504176 267.361126,3.84053916 Z" id="Path" fill="url(#linearGradient-1)" transform="translate(308.000000, 63.000000) scale(1, -1) translate(-308.000000, -63.000000) "></path>
            <path d="M475.458746,9.39522304 C482.256744,-0.48249708 495.760987,-2.96938644 505.621317,3.84060018 C515.383044,10.5824869 517.913771,23.9087566 511.367319,33.7589498 L511.166161,34.0563661 L454.353708,116.606779 C445.820491,129.005831 427.63409,129.129821 418.90781,116.97875 L418.646292,116.606779 L361.833839,34.0563661 C355.035841,24.178646 357.518352,10.6505868 367.378683,3.84060018 C377.14041,-2.90128658 390.473536,-0.53130518 397.335313,9.10111059 L397.541254,9.39522304 L436.49962,66.0032291 L475.458746,9.39522304 Z" id="Path" fill="url(#linearGradient-2)" transform="translate(436.500000, 63.000000) scale(1, -1) translate(-436.500000, -63.000000) "></path>
        </g>
    </g>
</svg>