<?xml version="1.0" encoding="UTF-8"?>
<svg width="1080px" height="1080px" viewBox="0 0 1080 1080" version="1.1" xmlns="http://www.w3.org/2000/svg" xmlns:xlink="http://www.w3.org/1999/xlink">
    <title>uniform-double-stacked-color</title>
    <defs>
        <linearGradient x1="50%" y1="100%" x2="51.3659921%" y2="0%" id="linearGradient-1">
            <stop stop-color="#7C39FF" offset="0%"></stop>
            <stop stop-color="#04B9FF" offset="49.7267007%"></stop>
            <stop stop-color="#00EBBF" offset="100%"></stop>
        </linearGradient>
        <linearGradient x1="50%" y1="82.2041462%" x2="52.1686491%" y2="17.7958538%" id="linearGradient-2">
            <stop stop-color="#7C39FF" offset="0%"></stop>
            <stop stop-color="#04B9FF" offset="49.7267007%"></stop>
            <stop stop-color="#00EBBF" offset="100%"></stop>
        </linearGradient>
        <linearGradient x1="50%" y1="100%" x2="51.3659921%" y2="0%" id="linearGradient-3">
            <stop stop-color="#00EBBF" offset="0%"></stop>
            <stop stop-color="#04B9FF" offset="50.2732993%"></stop>
            <stop stop-color="#7C39FF" offset="100%"></stop>
        </linearGradient>
        <linearGradient x1="50%" y1="82.2041462%" x2="52.1686491%" y2="17.7958538%" id="linearGradient-4">
            <stop stop-color="#00EBBF" offset="0%"></stop>
            <stop stop-color="#04B9FF" offset="50.2732993%"></stop>
            <stop stop-color="#7C39FF" offset="100%"></stop>
        </linearGradient>
    </defs>
    <g id="uniform-double-stacked-color" stroke="none" stroke-width="1" fill="none" fill-rule="evenodd">
        <rect fill="#1D1D21" x="0" y="0" width="1080" height="1080"></rect>
        <g id="Group" transform="translate(383.000000, 404.000000)" fill-rule="nonzero">
            <path d="M218.532765,9.39507378 C225.318037,-0.482489415 238.797001,-2.96933927 248.638874,3.84053916 C258.382327,10.5823188 260.908316,23.9083768 254.374119,33.7584135 L254.173338,34.0558251 L197.467235,116.604926 C190.681963,126.482489 177.202999,128.969339 167.361126,122.159461 C157.617673,115.417681 155.091684,102.091623 161.625881,92.2415865 L161.826662,91.9441749 L218.532765,9.39507378 Z" id="Path" fill="url(#linearGradient-1)"></path>
            <path d="M117.458746,9.39522304 C124.256744,-0.48249708 137.760987,-2.96938644 147.621317,3.84060018 C157.383044,10.5824869 159.913771,23.9087566 153.367319,33.7589498 L153.166161,34.0563661 L96.3537077,116.606779 C87.8204909,129.005831 69.6340902,129.129821 60.9078097,116.97875 L60.6462923,116.606779 L3.83383883,34.0563661 C-2.96415886,24.178646 -0.481647648,10.6505868 9.37868283,3.84060018 C19.14041,-2.90128658 32.473536,-0.53130518 39.3353127,9.10111059 L39.5412542,9.39522304 L78.4993458,66.0032291 L117.458746,9.39522304 Z" id="Path" fill="url(#linearGradient-2)"></path>
            <path d="M66.3611264,150.840539 C76.10458,144.09876 89.412747,146.468703 96.2616788,156.100966 L96.4672348,156.395074 L153.173338,238.944175 C159.95861,248.821738 157.480746,262.349582 147.638874,269.159461 C137.89542,275.90124 124.587253,273.531297 117.738321,263.899034 L117.532765,263.604926 L60.8266621,181.055825 C54.0413899,171.178262 56.519254,157.650418 66.3611264,150.840539 Z" id="Path" fill="url(#linearGradient-3)" transform="translate(107.000000, 210.000000) scale(1, -1) translate(-107.000000, -210.000000) "></path>
            <path d="M274.458746,156.395223 C281.256744,146.517503 294.760987,144.030614 304.621317,150.8406 C314.383044,157.582487 316.913771,170.908757 310.367319,180.75895 L310.166161,181.056366 L253.353708,263.606779 C244.820491,276.005831 226.63409,276.129821 217.90781,263.97875 L217.646292,263.606779 L160.833839,181.056366 C154.035841,171.178646 156.518352,157.650587 166.378683,150.8406 C176.14041,144.098713 189.473536,146.468695 196.335313,156.101111 L196.541254,156.395223 L235.49962,213.003229 L274.458746,156.395223 Z" id="Path" fill="url(#linearGradient-4)" transform="translate(235.500000, 210.000000) scale(1, -1) translate(-235.500000, -210.000000) "></path>
        </g>
    </g>
</svg>