<?xml version="1.0" encoding="UTF-8"?>
<svg width="134px" height="87px" viewBox="0 0 134 87" version="1.1" xmlns="http://www.w3.org/2000/svg" xmlns:xlink="http://www.w3.org/1999/xlink">
    <title>Combined Shape</title>
    <g id="Page-1" stroke="none" stroke-width="1" fill="none" fill-rule="evenodd">
        <path d="M102.363129,79.1874296 C103.510131,78.5958792 103.946066,78.0931076 105.388602,78.4001755 C109.077983,79.1855226 109.19706,80.5121013 108.948203,81.8208813 L108.90953,82.0122181 C108.618877,83.3816247 106.66549,87.2596437 103.64469,86.6166157 C100.62389,85.9735874 101.200521,84.6650562 100.123763,83.0045732 C99.2554802,81.6655832 101.108208,79.8346387 102.363129,79.1874296 Z M126.291179,70.8253921 C127.43818,70.2338416 127.874116,69.7310701 129.316652,70.038138 C134.786293,71.2024437 133.914337,75.3106636 133.623685,76.6800703 C133.333033,78.0494769 130.302887,80.2670129 127.282087,79.6239849 C124.261288,78.9809566 124.757886,77.2679595 124.051812,74.6425357 C123.643515,73.1243458 125.036257,71.4726013 126.291179,70.8253921 Z M77.6606667,66.0655369 C79.4320364,63.532069 80.8125235,64.6591789 83.501601,65.0341205 C85.0565995,65.2509359 86.0306342,67.1802215 86.1351879,68.5899543 C86.2307502,69.8784531 86.5225456,70.4767681 85.6766583,71.6865886 C82.4693103,76.2738385 79.033887,73.8648175 77.8887309,73.0618319 C76.7436047,72.2588035 75.8893001,68.599007 77.6606667,66.0655369 Z M109.825803,63.9119932 C110.606481,63.4812386 110.90542,63.1194672 111.878814,63.3266704 C114.489774,63.8824574 115.649575,65.1516813 115.02675,68.0861243 C114.403924,71.020567 111.191111,70.3366657 110.425553,70.1737079 L110.327235,70.1512498 C109.554115,69.9625533 108.353088,69.3821448 107.915525,67.5947207 C107.651496,66.5161772 108.971672,64.3832773 109.825803,63.9119932 Z M70.1934925,43.760425 C73.0569019,42.6018447 73.6017027,44.3000833 75.6530426,46.0812505 C76.8392601,47.1112365 76.6069218,49.2605433 75.9279316,50.4998719 C75.8244985,50.6886633 75.7360635,50.8643491 75.6541698,51.028615 L75.4965985,51.3424197 C75.1632334,51.9915034 74.846836,52.4472496 73.8592865,52.8468291 C68.6746252,54.9446247 67.1035711,51.0504525 66.579871,49.7524013 C66.0562016,48.4543377 67.3300838,44.9190072 70.1934925,43.760425 Z M89.909713,42.058262 C90.6353837,41.7646445 92.0106883,41.5001208 93.4306682,42.7906971 C94.2517924,43.5369918 94.348281,46.0445565 93.9033286,46.9135901 C93.4966412,47.7078886 93.4508151,48.175219 92.5281373,48.5485507 C90.0532141,49.5499429 88.3829884,49.1472083 87.2608058,46.3656572 C86.1386253,43.5841051 89.1840428,42.3518803 89.909713,42.058262 Z M38.2841213,35.9814913 C39.3732782,34.8490754 41.504351,35.19392 42.7046414,35.937831 C43.8017093,36.6177672 44.4565638,36.7330359 44.9367003,38.1294874 C46.7572237,43.4243917 42.7918346,44.7917779 41.4700382,45.2475734 C40.1482418,45.7033687 36.6895727,44.2443503 35.6841246,41.3200557 C34.6786775,38.3957608 36.4006292,37.9397913 38.2841213,35.9814913 Z M61.9465787,26.1050513 C64.8863097,23.4542473 65.9986573,24.3351088 66.934077,25.3755094 C67.8694919,26.4159143 69.8541292,30.2779876 67.5590871,32.3474731 C65.2640414,34.4169546 64.5458957,33.180634 62.5715923,33.0770141 C60.9795419,32.9934565 60.589442,30.4161783 60.8042266,29.019023 C61.0005402,27.7420202 60.8506189,27.0933044 61.9465787,26.1050513 Z M85.8852543,24.7261097 C88.7486638,23.5675297 89.0012699,24.9752699 90.8211198,25.7488781 C92.2886211,26.3727048 91.774999,28.9281709 91.0960088,30.1674995 C90.4754104,31.3002484 90.3947399,31.9611928 89.0273639,32.5144573 C85.3596146,33.9984852 84.6151829,32.7897456 84.0914967,31.4916888 C83.5678134,30.1936308 83.0218457,25.8846922 85.8852543,24.7261097 Z M109.118027,27.0414012 C109.215618,21.4422541 113.408856,21.5155896 114.806603,21.5399874 C116.20435,21.5643851 118.956227,24.1201126 118.902251,27.2124348 C118.848274,30.3047569 117.074524,30.1434274 114.635818,31.338495 C113.225601,32.0295602 111.34082,30.9755786 110.466977,29.8654081 C109.668284,28.8507099 109.092251,28.5180917 109.118027,27.0414012 Z M21.622753,20.9927137 C22.1320779,18.3686409 23.3790174,17.1851718 26.3196062,17.7575984 C29.2601948,18.3300258 28.6334658,21.558974 28.4841272,22.3283768 C28.3347883,23.0977795 27.8072688,24.3969607 25.9531017,24.8866963 C24.8809024,25.1698931 22.7283958,23.8852157 22.2429638,23.0381929 C21.7992779,22.2640122 21.4328716,21.9709968 21.622753,20.9927137 Z M53.5844834,11.9867125 C55.5681544,10.1980035 57.2751958,10.0043655 59.2796633,12.2337983 C61.2841269,14.4632344 58.843202,16.6642615 58.2615723,17.1887291 C57.6799413,17.7131953 56.4779185,18.4328348 54.7028141,17.7064605 C53.676334,17.2864239 52.729277,14.963133 52.8506018,13.9941038 C52.9614929,13.108409 52.8449518,12.6535657 53.5844834,11.9867125 Z M1.97747743,11.3209699 C3.7382635,8.89391948 6.39555135,10.8273706 7.02874646,11.288066 C7.66192324,11.7487868 8.61472545,12.7766376 8.2743248,14.666508 C8.07748314,15.7593534 6.00517872,17.1701067 5.03348187,17.2527324 C4.14534897,17.3282524 3.72532388,17.5369804 2.92023783,16.9511983 C0.760737277,15.3799378 0.216692959,13.7480215 1.97747743,11.3209699 Z M69.2559644,1.80351148 C73.4115109,-1.94361773 76.2177627,1.17759054 77.1532011,2.21797425 C78.0885973,3.25839605 78.0989311,7.01684943 75.8038887,9.08633453 C73.5088434,11.1558165 72.4169131,9.74659897 69.880977,8.77547324 C68.4145348,8.21390552 67.8988267,6.11463737 68.1136113,4.71748212 C68.3099251,3.44047937 68.1600036,2.79176351 69.2559644,1.80351148 Z" id="Combined-Shape" fill="#F45D48"></path>
    </g>
</svg>