<?xml version="1.0" encoding="UTF-8"?>
<svg width="177px" height="222px" viewBox="0 0 177 222" version="1.1" xmlns="http://www.w3.org/2000/svg" xmlns:xlink="http://www.w3.org/1999/xlink">
    <title>liner-03</title>
    <g id="Page-1" stroke="none" stroke-width="1" fill="none" fill-rule="evenodd">
        <g id="liner-03" transform="translate(2.000000, 2.000000)">
            <path d="M175.674984,125.30108 C173.411354,53.5183197 67.2001537,44.6625497 24.9334437,87.8146297 C4.32062374,108.85923 -15.0214863,156.64124 7.65362374,168.63916 C30.3287237,180.63709 122.320014,84.8918197 90.2481637,35.6708597" id="liner" stroke="#078080" stroke-width="3" stroke-linecap="round" transform="translate(86.566481, 102.670208) rotate(76.000000) translate(-86.566481, -102.670208) "></path>
            <g id="dots-panel" transform="translate(46.000000, 85.000000)" fill="#F45D48" fill-rule="nonzero">
                <path d="M2.8285,131.2378 C3.7265,131.2378 4.4535,131.9658 4.4535,132.8628 C4.4535,133.7588 3.7265,134.4868 2.8285,134.4868 C1.9325,134.4868 1.2045,133.7588 1.2045,132.8628 C1.2045,131.9658 1.9325,131.2378 2.8285,131.2378 Z M11.7099,131.2378 C12.6069,131.2378 13.3349,131.9658 13.3349,132.8628 C13.3349,133.7588 12.6069,134.4868 11.7099,134.4868 C10.8129,134.4868 10.0859,133.7588 10.0859,132.8628 C10.0859,131.9658 10.8129,131.2378 11.7099,131.2378 Z M19.5907,131.2378 C20.4877,131.2378 21.2157,131.9658 21.2157,132.8628 C21.2157,133.7588 20.4877,134.4868 19.5907,134.4868 C18.6947,134.4868 17.9667,133.7588 17.9667,132.8628 C17.9667,131.9658 18.6947,131.2378 19.5907,131.2378 Z M28.4726,131.2378 C29.3696,131.2378 30.0966,131.9658 30.0966,132.8628 C30.0966,133.7588 29.3696,134.4868 28.4726,134.4868 C27.5756,134.4868 26.8476,133.7588 26.8476,132.8628 C26.8476,131.9658 27.5756,131.2378 28.4726,131.2378 Z M36.353,131.2378 C37.25,131.2378 37.978,131.9658 37.978,132.8628 C37.978,133.7588 37.25,134.4868 36.353,134.4868 C35.457,134.4868 34.729,133.7588 34.729,132.8628 C34.729,131.9658 35.457,131.2378 36.353,131.2378 Z M44.2338,131.2378 C45.1318,131.2378 45.8588,131.9658 45.8588,132.8628 C45.8588,133.7588 45.1318,134.4868 44.2338,134.4868 C43.3378,134.4868 42.6098,133.7588 42.6098,132.8628 C42.6098,131.9658 43.3378,131.2378 44.2338,131.2378 Z M52.4804,131.2378 C53.3784,131.2378 54.1054,131.9658 54.1054,132.8628 C54.1054,133.7588 53.3784,134.4868 52.4804,134.4868 C51.5844,134.4868 50.8564,133.7588 50.8564,132.8628 C50.8564,131.9658 51.5844,131.2378 52.4804,131.2378 Z M7.3735,127.1148 C8.8355,127.1148 9.4975,127.8428 9.4975,128.7388 C9.4975,129.6358 8.2705,130.3638 7.3735,130.3638 C6.4765,130.3638 5.2485,129.6358 5.2485,128.7388 C5.2485,127.8428 5.7435,127.1148 7.3735,127.1148 Z M15.7538,127.1148 C16.6508,127.1148 17.3788,127.8428 17.3788,128.7388 C17.3788,129.6358 16.6508,130.3638 15.7538,130.3638 C14.8578,130.3638 14.1298,129.6358 14.1298,128.7388 C14.1298,127.8428 14.8578,127.1148 15.7538,127.1148 Z M23.6347,127.1148 C24.5327,127.1148 25.2597,127.8428 25.2597,128.7388 C25.2597,129.6358 24.5327,130.3638 23.6347,130.3638 C22.7387,130.3638 22.0107,129.6358 22.0107,128.7388 C22.0107,127.8428 22.7387,127.1148 23.6347,127.1148 Z M32.5165,127.1148 C33.4135,127.1148 34.1405,127.8428 34.1405,128.7388 C34.1405,129.6358 33.4135,130.3638 32.5165,130.3638 C31.6195,130.3638 30.8915,129.6358 30.8915,128.7388 C30.8915,127.8428 31.6195,127.1148 32.5165,127.1148 Z M48.2778,127.1148 C49.1758,127.1148 49.9028,127.8428 49.9028,128.7388 C49.9028,129.6358 49.1758,130.3638 48.2778,130.3638 C47.3818,130.3638 46.6538,129.6358 46.6538,128.7388 C46.6538,127.8428 47.3818,127.1148 48.2778,127.1148 Z M56.5253,127.1148 C57.4223,127.1148 58.1493,127.8428 58.1493,128.7388 C58.1493,129.6358 57.4223,130.3638 56.5253,130.3638 C55.6283,130.3638 54.9003,129.6358 54.9003,128.7388 C54.9003,127.8428 55.6283,127.1148 56.5253,127.1148 Z M40.1954,127.1228 C41.0924,127.1228 41.9784,127.8428 41.9784,128.7388 C41.9784,129.6358 41.0924,130.3558 40.1954,130.3558 C39.2974,130.3558 38.4124,129.6358 38.4124,128.7388 C38.4124,127.8428 39.2974,127.1228 40.1954,127.1228 Z M2.8285,122.9918 C3.7265,122.9918 4.4535,123.7198 4.4535,124.6158 C4.4535,125.5128 3.7265,126.2408 2.8285,126.2408 C1.9325,126.2408 1.2045,125.5128 1.2045,124.6158 C1.2045,123.7198 1.9325,122.9918 2.8285,122.9918 Z M11.7099,122.9918 C12.6069,122.9918 13.3349,123.7198 13.3349,124.6158 C13.3349,125.5128 12.6069,126.2408 11.7099,126.2408 C10.8129,126.2408 10.0859,125.5128 10.0859,124.6158 C10.0859,123.7198 10.8129,122.9918 11.7099,122.9918 Z M19.5907,122.9918 C20.4877,122.9918 21.2157,123.7198 21.2157,124.6158 C21.2157,125.5128 20.4877,126.2408 19.5907,126.2408 C18.6947,126.2408 17.9667,125.5128 17.9667,124.6158 C17.9667,123.7198 18.6947,122.9918 19.5907,122.9918 Z M27.8056,122.9918 C29.1146,122.9918 30.0966,123.7198 30.0966,124.6158 C30.0966,125.5128 28.7026,126.2408 27.8056,126.2408 C26.9086,126.2408 25.8476,125.5128 25.8476,124.6158 C25.8476,123.7198 26.4376,122.9918 27.8056,122.9918 Z M36.353,122.9918 C37.25,122.9918 37.978,123.7198 37.978,124.6158 C37.978,125.5128 37.25,126.2408 36.353,126.2408 C35.457,126.2408 34.729,125.5128 34.729,124.6158 C34.729,123.7198 35.457,122.9918 36.353,122.9918 Z M44.2338,122.9918 C45.1318,122.9918 45.8588,123.7198 45.8588,124.6158 C45.8588,125.5128 45.1318,126.2408 44.2338,126.2408 C43.3378,126.2408 42.6098,125.5128 42.6098,124.6158 C42.6098,123.7198 43.3378,122.9918 44.2338,122.9918 Z M52.4804,122.9918 C53.3784,122.9918 54.1054,123.7198 54.1054,124.6158 C54.1054,125.5128 53.3784,126.2408 52.4804,126.2408 C51.5844,126.2408 50.8564,125.5128 50.8564,124.6158 C50.8564,123.7198 51.5844,122.9918 52.4804,122.9918 Z M7.3735,118.7906 C8.8355,118.7906 9.4975,119.5186 9.4975,120.4156 C9.4975,121.3126 8.2705,122.0396 7.3735,122.0396 C6.4765,122.0396 5.2485,121.3126 5.2485,120.4156 C5.2485,119.5186 5.7435,118.7906 7.3735,118.7906 Z M15.7538,118.7906 C16.6508,118.7906 17.3788,119.5186 17.3788,120.4156 C17.3788,121.3126 16.6508,122.0396 15.7538,122.0396 C14.8578,122.0396 14.1298,121.3126 14.1298,120.4156 C14.1298,119.5186 14.8578,118.7906 15.7538,118.7906 Z M23.6347,118.7906 C24.5327,118.7906 25.2597,119.5186 25.2597,120.4156 C25.2597,121.3126 24.5327,122.0396 23.6347,122.0396 C22.7387,122.0396 22.0107,121.3126 22.0107,120.4156 C22.0107,119.5186 22.7387,118.7906 23.6347,118.7906 Z M32.5165,118.7906 C33.4135,118.7906 34.1405,119.5186 34.1405,120.4156 C34.1405,121.3126 33.4135,122.0396 32.5165,122.0396 C31.6195,122.0396 30.5945,121.3126 30.5945,120.4156 C30.5945,119.5186 31.6195,118.7906 32.5165,118.7906 Z M48.2778,118.7906 C49.1758,118.7906 49.9028,119.5186 49.9028,120.4156 C49.9028,121.3126 49.1758,122.0396 48.2778,122.0396 C47.3818,122.0396 46.6538,121.3126 46.6538,120.4156 C46.6538,119.5186 47.3818,118.7906 48.2778,118.7906 Z M56.5253,118.7906 C57.4223,118.7906 58.1493,119.5186 58.1493,120.4156 C58.1493,121.3126 57.4223,122.0396 56.5253,122.0396 C55.6283,122.0396 54.9003,121.3126 54.9003,120.4156 C54.9003,119.5186 55.6283,118.7906 56.5253,118.7906 Z M40.1954,118.7986 C41.0924,118.7986 41.9784,119.5186 41.9784,120.4156 C41.9784,121.3126 41.0924,122.0316 40.1954,122.0316 C39.2974,122.0316 38.4124,121.3126 38.4124,120.4156 C38.4124,119.5186 39.2974,118.7986 40.1954,118.7986 Z M2.8285,115.0132 C3.7265,115.0132 4.4535,115.7412 4.4535,116.6382 C4.4535,117.5352 3.7265,118.2622 2.8285,118.2622 C1.9325,118.2622 1.2045,117.5352 1.2045,116.6382 C1.2045,115.7412 1.9325,115.0132 2.8285,115.0132 Z M11.7099,115.0132 C12.6069,115.0132 13.3349,115.7412 13.3349,116.6382 C13.3349,117.5352 12.6069,118.2622 11.7099,118.2622 C10.8129,118.2622 10.0859,117.5352 10.0859,116.6382 C10.0859,115.7412 10.8129,115.0132 11.7099,115.0132 Z M19.5907,115.0132 C20.4877,115.0132 21.2157,115.7412 21.2157,116.6382 C21.2157,117.5352 20.4877,118.2622 19.5907,118.2622 C18.6947,118.2622 17.9667,117.5352 17.9667,116.6382 C17.9667,115.7412 18.6947,115.0132 19.5907,115.0132 Z M28.4726,115.0132 C29.3696,115.0132 30.0966,115.7412 30.0966,116.6382 C30.0966,117.5352 29.3696,118.2622 28.4726,118.2622 C27.5756,118.2622 26.8476,117.5352 26.8476,116.6382 C26.8476,115.7412 27.5756,115.0132 28.4726,115.0132 Z M36.353,115.0132 C37.25,115.0132 37.978,115.7412 37.978,116.6382 C37.978,117.5352 37.25,118.2622 36.353,118.2622 C35.457,118.2622 34.729,117.5352 34.729,116.6382 C34.729,115.7412 35.457,115.0132 36.353,115.0132 Z M44.2338,115.0132 C45.1318,115.0132 45.8588,115.7412 45.8588,116.6382 C45.8588,117.5352 45.1318,118.2622 44.2338,118.2622 C43.3378,118.2622 42.6098,117.5352 42.6098,116.6382 C42.6098,115.7412 43.3378,115.0132 44.2338,115.0132 Z M52.4809,115.0132 C53.8479,115.0132 54.4159,115.7412 54.4159,116.6382 C54.4159,117.5352 53.7529,118.2622 52.4809,118.2622 C51.5839,118.2622 50.8569,117.5352 50.8569,116.6382 C50.8569,115.7412 51.5839,115.0132 52.4809,115.0132 Z M7.3735,110.8936 C8.8355,110.8936 9.4975,111.6206 9.4975,112.5176 C9.4975,113.4146 8.2705,114.1426 7.3735,114.1426 C6.4765,114.1426 5.2485,113.4146 5.2485,112.5176 C5.2485,111.6206 5.7435,110.8936 7.3735,110.8936 Z M15.7538,110.8936 C16.6508,110.8936 17.3788,111.6206 17.3788,112.5176 C17.3788,113.4146 16.6508,114.1426 15.7538,114.1426 C14.8578,114.1426 14.1298,113.4146 14.1298,112.5176 C14.1298,111.6206 14.8578,110.8936 15.7538,110.8936 Z M23.6347,110.8936 C24.5327,110.8936 25.2597,111.6206 25.2597,112.5176 C25.2597,113.4146 24.5327,114.1426 23.6347,114.1426 C22.7387,114.1426 22.0107,113.4146 22.0107,112.5176 C22.0107,111.6206 22.7387,110.8936 23.6347,110.8936 Z M32.5165,110.8936 C33.4135,110.8936 34.1405,111.6206 34.1405,112.5176 C34.1405,113.4146 33.4135,114.1426 32.5165,114.1426 C31.6195,114.1426 30.8915,113.4146 30.8915,112.5176 C30.8915,111.6206 31.6195,110.8936 32.5165,110.8936 Z M48.2778,110.8936 C49.1758,110.8936 49.9028,111.6206 49.9028,112.5176 C49.9028,113.4146 49.1758,114.1426 48.2778,114.1426 C47.3818,114.1426 46.6538,113.4146 46.6538,112.5176 C46.6538,111.6206 47.3818,110.8936 48.2778,110.8936 Z M56.5253,110.8936 C57.4223,110.8936 58.1493,111.6206 58.1493,112.5176 C58.1493,113.4146 57.4223,114.1426 56.5253,114.1426 C55.6283,114.1426 54.9003,113.4146 54.9003,112.5176 C54.9003,111.6206 55.6283,110.8936 56.5253,110.8936 Z M40.1954,110.9016 C41.0924,110.9016 41.9784,111.6206 41.9784,112.5176 C41.9784,113.4146 41.0924,114.1346 40.1954,114.1346 C39.2974,114.1346 38.4124,113.4146 38.4124,112.5176 C38.4124,111.6206 39.2974,110.9016 40.1954,110.9016 Z M2.8285,106.7696 C3.7265,106.7696 4.4535,107.4976 4.4535,108.3946 C4.4535,109.2916 3.7265,110.0196 2.8285,110.0196 C1.9325,110.0196 1.2045,109.2916 1.2045,108.3946 C1.2045,107.4976 1.9325,106.7696 2.8285,106.7696 Z M11.7099,106.7696 C12.6069,106.7696 13.3349,107.4976 13.3349,108.3946 C13.3349,109.2916 12.6069,110.0196 11.7099,110.0196 C10.8129,110.0196 10.0859,109.2916 10.0859,108.3946 C10.0859,107.4976 10.8129,106.7696 11.7099,106.7696 Z M19.5907,106.7696 C20.4877,106.7696 21.2157,107.4976 21.2157,108.3946 C21.2157,109.2916 20.4877,110.0196 19.5907,110.0196 C18.6947,110.0196 17.9667,109.2916 17.9667,108.3946 C17.9667,107.4976 18.6947,106.7696 19.5907,106.7696 Z M27.8056,106.7696 C29.1146,106.7696 30.0966,107.4976 30.0966,108.3946 C30.0966,109.2916 28.7026,110.0196 27.8056,110.0196 C26.9086,110.0196 25.8476,109.2916 25.8476,108.3946 C25.8476,107.4976 26.4376,106.7696 27.8056,106.7696 Z M36.353,106.7696 C37.25,106.7696 37.978,107.4976 37.978,108.3946 C37.978,109.2916 37.25,110.0196 36.353,110.0196 C35.457,110.0196 34.729,109.2916 34.729,108.3946 C34.729,107.4976 35.457,106.7696 36.353,106.7696 Z M44.2338,106.7696 C45.1318,106.7696 45.8588,107.4976 45.8588,108.3946 C45.8588,109.2916 45.1318,110.0196 44.2338,110.0196 C43.3378,110.0196 42.6098,109.2916 42.6098,108.3946 C42.6098,107.4976 43.3378,106.7696 44.2338,106.7696 Z M52.4804,106.7696 C53.3784,106.7696 54.1054,107.4976 54.1054,108.3946 C54.1054,109.2916 53.3784,110.0196 52.4804,110.0196 C51.5844,110.0196 50.8564,109.2916 50.8564,108.3946 C50.8564,107.4976 51.5844,106.7696 52.4804,106.7696 Z M7.3735,102.5689 C8.8355,102.5689 9.4975,103.2969 9.4975,104.1939 C9.4975,105.0909 8.2705,105.8189 7.3735,105.8189 C6.4765,105.8189 5.2485,105.0909 5.2485,104.1939 C5.2485,103.2969 5.7435,102.5689 7.3735,102.5689 Z M15.7538,102.5689 C16.6508,102.5689 17.3788,103.2969 17.3788,104.1939 C17.3788,105.0909 16.6508,105.8189 15.7538,105.8189 C14.8578,105.8189 14.1298,105.0909 14.1298,104.1939 C14.1298,103.2969 14.8578,102.5689 15.7538,102.5689 Z M23.6347,102.5689 C24.5327,102.5689 25.2597,103.2969 25.2597,104.1939 C25.2597,105.0909 24.5327,105.8189 23.6347,105.8189 C22.7387,105.8189 22.0107,105.0909 22.0107,104.1939 C22.0107,103.2969 22.7387,102.5689 23.6347,102.5689 Z M32.5165,102.5689 C33.4135,102.5689 34.1405,103.2969 34.1405,104.1939 C34.1405,105.0909 33.4135,105.8189 32.5165,105.8189 C31.6195,105.8189 30.5945,105.0909 30.5945,104.1939 C30.5945,103.2969 31.6195,102.5689 32.5165,102.5689 Z M48.2778,102.5689 C49.1758,102.5689 49.9028,103.2969 49.9028,104.1939 C49.9028,105.0909 49.1758,105.8189 48.2778,105.8189 C47.3818,105.8189 46.6538,105.0909 46.6538,104.1939 C46.6538,103.2969 47.3818,102.5689 48.2778,102.5689 Z M56.5253,102.5689 C57.4223,102.5689 58.1493,103.2969 58.1493,104.1939 C58.1493,105.0909 57.4223,105.8189 56.5253,105.8189 C55.6283,105.8189 54.9003,105.0909 54.9003,104.1939 C54.9003,103.2969 55.6283,102.5689 56.5253,102.5689 Z M40.1954,102.5779 C41.0924,102.5779 41.9784,103.2969 41.9784,104.1939 C41.9784,105.0909 41.0924,105.8109 40.1954,105.8109 C39.2974,105.8109 38.4124,105.0909 38.4124,104.1939 C38.4124,103.2969 39.2974,102.5779 40.1954,102.5779 Z M2.8285,98.7915 C3.7265,98.7915 4.4535,99.5195 4.4535,100.4165 C4.4535,101.3135 3.7265,102.0415 2.8285,102.0415 C1.9325,102.0415 1.2045,101.3135 1.2045,100.4165 C1.2045,99.5195 1.9325,98.7915 2.8285,98.7915 Z M11.7099,98.7915 C12.6069,98.7915 13.3349,99.5195 13.3349,100.4165 C13.3349,101.3135 12.6069,102.0415 11.7099,102.0415 C10.8129,102.0415 10.0859,101.3135 10.0859,100.4165 C10.0859,99.5195 10.8129,98.7915 11.7099,98.7915 Z M19.5907,98.7915 C20.4877,98.7915 21.2157,99.5195 21.2157,100.4165 C21.2157,101.3135 20.4877,102.0415 19.5907,102.0415 C18.6947,102.0415 17.9667,101.3135 17.9667,100.4165 C17.9667,99.5195 18.6947,98.7915 19.5907,98.7915 Z M28.4726,98.7915 C29.3696,98.7915 30.0966,99.5195 30.0966,100.4165 C30.0966,101.3135 29.3696,102.0415 28.4726,102.0415 C27.5756,102.0415 26.8476,101.3135 26.8476,100.4165 C26.8476,99.5195 27.5756,98.7915 28.4726,98.7915 Z M36.353,98.7915 C37.648,98.7915 37.978,99.5195 37.978,100.4165 C37.978,101.3135 37.25,102.0415 36.353,102.0415 C34.91,102.0415 34.328,101.3135 34.328,100.4165 C34.328,99.5195 34.958,98.7915 36.353,98.7915 Z M44.2338,98.7915 C45.1318,98.7915 45.8588,99.5195 45.8588,100.4165 C45.8588,101.3135 45.1318,102.0415 44.2338,102.0415 C43.3378,102.0415 42.6098,101.3135 42.6098,100.4165 C42.6098,99.5195 43.3378,98.7915 44.2338,98.7915 Z M52.4809,98.7915 C53.8479,98.7915 54.4159,99.5195 54.4159,100.4165 C54.4159,101.3135 53.7529,102.0415 52.4809,102.0415 C51.5839,102.0415 50.8569,101.3135 50.8569,100.4165 C50.8569,99.5195 51.5839,98.7915 52.4809,98.7915 Z M7.3735,94.1397 C8.8355,94.1397 9.4975,94.8677 9.4975,95.7647 C9.4975,96.6617 8.2705,97.3887 7.3735,97.3887 C6.4765,97.3887 5.2485,96.6617 5.2485,95.7647 C5.2485,94.8677 5.7435,94.1397 7.3735,94.1397 Z M15.7538,94.1397 C16.6508,94.1397 17.3788,94.8677 17.3788,95.7647 C17.3788,96.6617 16.6508,97.3887 15.7538,97.3887 C14.8578,97.3887 14.1298,96.6617 14.1298,95.7647 C14.1298,94.8677 14.8578,94.1397 15.7538,94.1397 Z M23.6347,94.1397 C24.5327,94.1397 25.2597,94.8677 25.2597,95.7647 C25.2597,96.6617 24.5327,97.3887 23.6347,97.3887 C22.7387,97.3887 22.0107,96.6617 22.0107,95.7647 C22.0107,94.8677 22.7387,94.1397 23.6347,94.1397 Z M32.5165,94.1397 C33.4135,94.1397 34.1405,94.8677 34.1405,95.7647 C34.1405,96.6617 33.4135,97.3887 32.5165,97.3887 C31.6195,97.3887 30.8915,96.6617 30.8915,95.7647 C30.8915,94.8677 31.6195,94.1397 32.5165,94.1397 Z M48.2778,94.1397 C49.1758,94.1397 49.9028,94.8677 49.9028,95.7647 C49.9028,96.6617 49.1758,97.3887 48.2778,97.3887 C47.3818,97.3887 46.6538,96.6617 46.6538,95.7647 C46.6538,94.8677 47.3818,94.1397 48.2778,94.1397 Z M56.5253,94.1397 C57.4223,94.1397 58.1493,94.8677 58.1493,95.7647 C58.1493,96.6617 57.4223,97.3887 56.5253,97.3887 C55.6283,97.3887 54.9003,96.6617 54.9003,95.7647 C54.9003,94.8677 55.6283,94.1397 56.5253,94.1397 Z M40.1954,94.1477 C41.0924,94.1477 41.9784,94.8677 41.9784,95.7647 C41.9784,96.6617 41.0924,97.3807 40.1954,97.3807 C39.2974,97.3807 38.4124,96.6617 38.4124,95.7647 C38.4124,94.8677 39.2974,94.1477 40.1954,94.1477 Z M2.8285,90.0161 C3.7265,90.0161 4.4535,90.7441 4.4535,91.6411 C4.4535,92.5381 3.7265,93.2661 2.8285,93.2661 C1.9325,93.2661 1.2045,92.5381 1.2045,91.6411 C1.2045,90.7441 1.9325,90.0161 2.8285,90.0161 Z M11.7099,90.0161 C12.6069,90.0161 13.3349,90.7441 13.3349,91.6411 C13.3349,92.5381 12.6069,93.2661 11.7099,93.2661 C10.8129,93.2661 10.0859,92.5381 10.0859,91.6411 C10.0859,90.7441 10.8129,90.0161 11.7099,90.0161 Z M19.5907,90.0161 C20.4877,90.0161 21.2157,90.7441 21.2157,91.6411 C21.2157,92.5381 20.4877,93.2661 19.5907,93.2661 C18.6947,93.2661 17.9667,92.5381 17.9667,91.6411 C17.9667,90.7441 18.6947,90.0161 19.5907,90.0161 Z M27.8056,90.0161 C29.1146,90.0161 30.0966,90.7441 30.0966,91.6411 C30.0966,92.5381 28.7026,93.2661 27.8056,93.2661 C26.9086,93.2661 25.8476,92.5381 25.8476,91.6411 C25.8476,90.7441 26.4376,90.0161 27.8056,90.0161 Z M36.353,90.0161 C37.25,90.0161 37.978,90.7441 37.978,91.6411 C37.978,92.5381 37.25,93.2661 36.353,93.2661 C35.457,93.2661 34.729,92.5381 34.729,91.6411 C34.729,90.7441 35.457,90.0161 36.353,90.0161 Z M44.2338,90.0161 C45.1318,90.0161 45.8588,90.7441 45.8588,91.6411 C45.8588,92.5381 45.1318,93.2661 44.2338,93.2661 C43.3378,93.2661 42.6098,92.5381 42.6098,91.6411 C42.6098,90.7441 43.3378,90.0161 44.2338,90.0161 Z M52.4804,90.0161 C53.3784,90.0161 54.1054,90.7441 54.1054,91.6411 C54.1054,92.5381 53.3784,93.2661 52.4804,93.2661 C51.5844,93.2661 50.8564,92.5381 50.8564,91.6411 C50.8564,90.7441 51.5844,90.0161 52.4804,90.0161 Z M7.3735,85.8165 C8.8355,85.8165 9.4975,86.5435 9.4975,87.4405 C9.4975,88.3375 8.2705,89.0655 7.3735,89.0655 C6.4765,89.0655 5.2485,88.3375 5.2485,87.4405 C5.2485,86.5435 5.7435,85.8165 7.3735,85.8165 Z M15.7538,85.8165 C16.6508,85.8165 17.3788,86.5435 17.3788,87.4405 C17.3788,88.3375 16.6508,89.0655 15.7538,89.0655 C14.8578,89.0655 14.1298,88.3375 14.1298,87.4405 C14.1298,86.5435 14.8578,85.8165 15.7538,85.8165 Z M23.6347,85.8165 C24.5327,85.8165 25.2597,86.5435 25.2597,87.4405 C25.2597,88.3375 24.5327,89.0655 23.6347,89.0655 C22.7387,89.0655 22.0107,88.3375 22.0107,87.4405 C22.0107,86.5435 22.7387,85.8165 23.6347,85.8165 Z M32.5165,85.8165 C33.4135,85.8165 34.1405,86.5435 34.1405,87.4405 C34.1405,88.3375 33.4135,89.0655 32.5165,89.0655 C31.6195,89.0655 30.5945,88.3375 30.5945,87.4405 C30.5945,86.5435 31.6195,85.8165 32.5165,85.8165 Z M48.2778,85.8165 C49.1758,85.8165 49.9028,86.5435 49.9028,87.4405 C49.9028,88.3375 49.1758,89.0655 48.2778,89.0655 C47.3818,89.0655 46.6538,88.3375 46.6538,87.4405 C46.6538,86.5435 47.3818,85.8165 48.2778,85.8165 Z M56.5253,85.8165 C57.4223,85.8165 58.1493,86.5435 58.1493,87.4405 C58.1493,88.3375 57.4223,89.0655 56.5253,89.0655 C55.6283,89.0655 54.9003,88.3375 54.9003,87.4405 C54.9003,86.5435 55.6283,85.8165 56.5253,85.8165 Z M40.1954,85.8245 C41.0924,85.8245 41.9784,86.5435 41.9784,87.4405 C41.9784,88.3375 41.0924,89.0575 40.1954,89.0575 C39.2974,89.0575 38.4124,88.3375 38.4124,87.4405 C38.4124,86.5435 39.2974,85.8245 40.1954,85.8245 Z M2.8285,82.0391 C3.7265,82.0391 4.4535,82.7661 4.4535,83.6631 C4.4535,84.5601 3.7265,85.2881 2.8285,85.2881 C1.9325,85.2881 1.2045,84.5601 1.2045,83.6631 C1.2045,82.7661 1.9325,82.0391 2.8285,82.0391 Z M11.7099,82.0391 C12.6069,82.0391 13.3349,82.7661 13.3349,83.6631 C13.3349,84.5601 12.6069,85.2881 11.7099,85.2881 C10.8129,85.2881 10.0859,84.5601 10.0859,83.6631 C10.0859,82.7661 10.8129,82.0391 11.7099,82.0391 Z M19.5907,82.0391 C20.4877,82.0391 21.2157,82.7661 21.2157,83.6631 C21.2157,84.5601 20.4877,85.2881 19.5907,85.2881 C18.6947,85.2881 17.9667,84.5601 17.9667,83.6631 C17.9667,82.7661 18.6947,82.0391 19.5907,82.0391 Z M28.4726,82.0391 C29.3696,82.0391 30.0966,82.7661 30.0966,83.6631 C30.0966,84.5601 29.3696,85.2881 28.4726,85.2881 C27.5756,85.2881 26.8476,84.5601 26.8476,83.6631 C26.8476,82.7661 27.5756,82.0391 28.4726,82.0391 Z M36.353,82.0391 C37.25,82.0391 37.978,82.7661 37.978,83.6631 C37.978,84.5601 37.25,85.2881 36.353,85.2881 C35.457,85.2881 34.729,84.5601 34.729,83.6631 C34.729,82.7661 35.457,82.0391 36.353,82.0391 Z M44.2338,82.0391 C45.1318,82.0391 45.8588,82.7661 45.8588,83.6631 C45.8588,84.5601 45.1318,85.2881 44.2338,85.2881 C43.3378,85.2881 42.6098,84.5601 42.6098,83.6631 C42.6098,82.7661 43.3378,82.0391 44.2338,82.0391 Z M52.4809,82.0391 C53.8479,82.0391 54.4159,82.7661 54.4159,83.6631 C54.4159,84.5601 53.7529,85.2881 52.4809,85.2881 C51.5839,85.2881 50.8569,84.5601 50.8569,83.6631 C50.8569,82.7661 51.5839,82.0391 52.4809,82.0391 Z M7.3735,77.918 C8.8355,77.918 9.4975,78.646 9.4975,79.543 C9.4975,80.44 8.2705,81.168 7.3735,81.168 C6.4765,81.168 5.2485,80.44 5.2485,79.543 C5.2485,78.646 5.7435,77.918 7.3735,77.918 Z M15.7538,77.918 C16.6508,77.918 17.3788,78.646 17.3788,79.543 C17.3788,80.44 16.6508,81.168 15.7538,81.168 C14.8578,81.168 14.1298,80.44 14.1298,79.543 C14.1298,78.646 14.8578,77.918 15.7538,77.918 Z M23.6347,77.918 C24.5327,77.918 25.2597,78.646 25.2597,79.543 C25.2597,80.44 24.5327,81.168 23.6347,81.168 C22.7387,81.168 22.0107,80.44 22.0107,79.543 C22.0107,78.646 22.7387,77.918 23.6347,77.918 Z M32.5165,77.918 C33.4135,77.918 34.1405,78.646 34.1405,79.543 C34.1405,80.44 33.4135,81.168 32.5165,81.168 C31.6195,81.168 30.8915,80.44 30.8915,79.543 C30.8915,78.646 31.6195,77.918 32.5165,77.918 Z M48.2778,77.918 C49.1758,77.918 49.9028,78.646 49.9028,79.543 C49.9028,80.44 49.1758,81.168 48.2778,81.168 C47.3818,81.168 46.6538,80.44 46.6538,79.543 C46.6538,78.646 47.3818,77.918 48.2778,77.918 Z M56.5253,77.918 C57.4223,77.918 58.1493,78.646 58.1493,79.543 C58.1493,80.44 57.4223,81.168 56.5253,81.168 C55.6283,81.168 54.9003,80.44 54.9003,79.543 C54.9003,78.646 55.6283,77.918 56.5253,77.918 Z M40.1954,77.927 C41.0924,77.927 41.9784,78.646 41.9784,79.543 C41.9784,80.44 41.0924,81.16 40.1954,81.16 C39.2974,81.16 38.4124,80.44 38.4124,79.543 C38.4124,78.646 39.2974,77.927 40.1954,77.927 Z M2.8285,73.795 C3.7265,73.795 4.4535,74.523 4.4535,75.42 C4.4535,76.317 3.7265,77.044 2.8285,77.044 C1.9325,77.044 1.2045,76.317 1.2045,75.42 C1.2045,74.523 1.9325,73.795 2.8285,73.795 Z M11.7099,73.795 C12.6069,73.795 13.3349,74.523 13.3349,75.42 C13.3349,76.317 12.6069,77.044 11.7099,77.044 C10.8129,77.044 10.0859,76.317 10.0859,75.42 C10.0859,74.523 10.8129,73.795 11.7099,73.795 Z M19.5907,73.795 C20.4877,73.795 21.2157,74.523 21.2157,75.42 C21.2157,76.317 20.4877,77.044 19.5907,77.044 C18.6947,77.044 17.9667,76.317 17.9667,75.42 C17.9667,74.523 18.6947,73.795 19.5907,73.795 Z M27.8056,73.795 C29.1146,73.795 30.0966,74.523 30.0966,75.42 C30.0966,76.317 28.7026,77.044 27.8056,77.044 C26.9086,77.044 25.8476,76.317 25.8476,75.42 C25.8476,74.523 26.4376,73.795 27.8056,73.795 Z M36.353,73.795 C37.25,73.795 37.978,74.523 37.978,75.42 C37.978,76.317 37.25,77.044 36.353,77.044 C35.457,77.044 34.729,76.317 34.729,75.42 C34.729,74.523 35.457,73.795 36.353,73.795 Z M44.2338,73.795 C45.1318,73.795 45.8588,74.523 45.8588,75.42 C45.8588,76.317 45.1318,77.044 44.2338,77.044 C43.3378,77.044 42.6098,76.317 42.6098,75.42 C42.6098,74.523 43.3378,73.795 44.2338,73.795 Z M52.4804,73.795 C53.3784,73.795 54.1054,74.523 54.1054,75.42 C54.1054,76.317 53.3784,77.044 52.4804,77.044 C51.5844,77.044 50.8564,76.317 50.8564,75.42 C50.8564,74.523 51.5844,73.795 52.4804,73.795 Z M7.3735,69.5943 C8.8355,69.5943 9.4975,70.3223 9.4975,71.2193 C9.4975,72.1163 8.2705,72.8443 7.3735,72.8443 C6.4765,72.8443 5.2485,72.1163 5.2485,71.2193 C5.2485,70.3223 5.7435,69.5943 7.3735,69.5943 Z M15.7538,69.5943 C16.6508,69.5943 17.3788,70.3223 17.3788,71.2193 C17.3788,72.1163 16.6508,72.8443 15.7538,72.8443 C14.8578,72.8443 14.1298,72.1163 14.1298,71.2193 C14.1298,70.3223 14.8578,69.5943 15.7538,69.5943 Z M23.6347,69.5943 C24.5327,69.5943 25.2597,70.3223 25.2597,71.2193 C25.2597,72.1163 24.5327,72.8443 23.6347,72.8443 C22.7387,72.8443 22.0107,72.1163 22.0107,71.2193 C22.0107,70.3223 22.7387,69.5943 23.6347,69.5943 Z M32.5165,69.5943 C33.4135,69.5943 34.1405,70.3223 34.1405,71.2193 C34.1405,72.1163 33.4135,72.8443 32.5165,72.8443 C31.6195,72.8443 30.5945,72.1163 30.5945,71.2193 C30.5945,70.3223 31.6195,69.5943 32.5165,69.5943 Z M48.2778,69.5943 C49.1758,69.5943 49.9028,70.3223 49.9028,71.2193 C49.9028,72.1163 49.1758,72.8443 48.2778,72.8443 C47.3818,72.8443 46.6538,72.1163 46.6538,71.2193 C46.6538,70.3223 47.3818,69.5943 48.2778,69.5943 Z M56.5253,69.5943 C57.4223,69.5943 58.1493,70.3223 58.1493,71.2193 C58.1493,72.1163 57.4223,72.8443 56.5253,72.8443 C55.6283,72.8443 54.9003,72.1163 54.9003,71.2193 C54.9003,70.3223 55.6283,69.5943 56.5253,69.5943 Z M40.1954,69.6033 C41.0924,69.6033 41.9784,70.3223 41.9784,71.2193 C41.9784,72.1163 41.0924,72.8363 40.1954,72.8363 C39.2974,72.8363 38.4124,72.1163 38.4124,71.2193 C38.4124,70.3223 39.2974,69.6033 40.1954,69.6033 Z M2.8285,65.8169 C3.7265,65.8169 4.4535,66.5449 4.4535,67.4419 C4.4535,68.3389 3.7265,69.0669 2.8285,69.0669 C1.9325,69.0669 1.2045,68.3389 1.2045,67.4419 C1.2045,66.5449 1.9325,65.8169 2.8285,65.8169 Z M11.7099,65.8169 C12.6069,65.8169 13.3349,66.5449 13.3349,67.4419 C13.3349,68.3389 12.6069,69.0669 11.7099,69.0669 C10.8129,69.0669 10.0859,68.3389 10.0859,67.4419 C10.0859,66.5449 10.8129,65.8169 11.7099,65.8169 Z M19.5907,65.8169 C20.4877,65.8169 21.2157,66.5449 21.2157,67.4419 C21.2157,68.3389 20.4877,69.0669 19.5907,69.0669 C18.6947,69.0669 17.9667,68.3389 17.9667,67.4419 C17.9667,66.5449 18.6947,65.8169 19.5907,65.8169 Z M28.4726,65.8169 C29.3696,65.8169 30.0966,66.5449 30.0966,67.4419 C30.0966,68.3389 29.3696,69.0669 28.4726,69.0669 C27.5756,69.0669 26.8476,68.3389 26.8476,67.4419 C26.8476,66.5449 27.5756,65.8169 28.4726,65.8169 Z M36.353,65.8169 C37.648,65.8169 37.978,66.5449 37.978,67.4419 C37.978,68.3389 37.25,69.0669 36.353,69.0669 C34.91,69.0669 34.328,68.3389 34.328,67.4419 C34.328,66.5449 34.958,65.8169 36.353,65.8169 Z M44.2338,65.8169 C45.1318,65.8169 45.8588,66.5449 45.8588,67.4419 C45.8588,68.3389 45.1318,69.0669 44.2338,69.0669 C43.3378,69.0669 42.6098,68.3389 42.6098,67.4419 C42.6098,66.5449 43.3378,65.8169 44.2338,65.8169 Z M52.4809,65.8169 C53.8479,65.8169 54.4159,66.5449 54.4159,67.4419 C54.4159,68.3389 53.7529,69.0669 52.4809,69.0669 C51.5839,69.0669 50.8569,68.3389 50.8569,67.4419 C50.8569,66.5449 51.5839,65.8169 52.4809,65.8169 Z M6.1679,61.2979 C7.6309,61.2979 8.2929,62.0249 8.2929,62.9219 C8.2929,63.8189 7.0649,64.5469 6.1679,64.5469 C5.2719,64.5469 4.0439,63.8189 4.0439,62.9219 C4.0439,62.0249 4.5389,61.2979 6.1679,61.2979 Z M14.5488,61.2979 C15.4468,61.2979 16.1738,62.0249 16.1738,62.9219 C16.1738,63.8189 15.4468,64.5469 14.5488,64.5469 C13.6528,64.5469 12.9248,63.8189 12.9248,62.9219 C12.9248,62.0249 13.6528,61.2979 14.5488,61.2979 Z M22.4301,61.2979 C23.3271,61.2979 24.0551,62.0249 24.0551,62.9219 C24.0551,63.8189 23.3271,64.5469 22.4301,64.5469 C21.5341,64.5469 20.8061,63.8189 20.8061,62.9219 C20.8061,62.0249 21.5341,61.2979 22.4301,61.2979 Z M31.311,61.2979 C32.209,61.2979 32.936,62.0249 32.936,62.9219 C32.936,63.8189 32.209,64.5469 31.311,64.5469 C30.415,64.5469 29.687,63.8189 29.687,62.9219 C29.687,62.0249 30.415,61.2979 31.311,61.2979 Z M47.0732,61.2979 C47.9702,61.2979 48.6982,62.0249 48.6982,62.9219 C48.6982,63.8189 47.9702,64.5469 47.0732,64.5469 C46.1772,64.5469 45.4492,63.8189 45.4492,62.9219 C45.4492,62.0249 46.1772,61.2979 47.0732,61.2979 Z M55.3197,61.2979 C56.2167,61.2979 56.9447,62.0249 56.9447,62.9219 C56.9447,63.8189 56.2167,64.5469 55.3197,64.5469 C54.4237,64.5469 53.6957,63.8189 53.6957,62.9219 C53.6957,62.0249 54.4237,61.2979 55.3197,61.2979 Z M38.9904,61.3059 C39.8874,61.3059 40.7734,62.0249 40.7734,62.9219 C40.7734,63.8189 39.8874,64.5389 38.9904,64.5389 C38.0934,64.5389 37.2074,63.8189 37.2074,62.9219 C37.2074,62.0249 38.0934,61.3059 38.9904,61.3059 Z M1.6239,57.1739 C2.5209,57.1739 3.2489,57.9019 3.2489,58.7989 C3.2489,59.6959 2.5209,60.4239 1.6239,60.4239 C0.7279,60.4239 -0.0001,59.6959 -0.0001,58.7989 C-0.0001,57.9019 0.7279,57.1739 1.6239,57.1739 Z M10.5048,57.1739 C11.4028,57.1739 12.1298,57.9019 12.1298,58.7989 C12.1298,59.6959 11.4028,60.4239 10.5048,60.4239 C9.6088,60.4239 8.8808,59.6959 8.8808,58.7989 C8.8808,57.9019 9.6088,57.1739 10.5048,57.1739 Z M18.3867,57.1739 C19.2837,57.1739 20.0107,57.9019 20.0107,58.7989 C20.0107,59.6959 19.2837,60.4239 18.3867,60.4239 C17.4897,60.4239 16.7617,59.6959 16.7617,58.7989 C16.7617,57.9019 17.4897,57.1739 18.3867,57.1739 Z M26.601,57.1739 C27.91,57.1739 28.892,57.9019 28.892,58.7989 C28.892,59.6959 27.498,60.4239 26.601,60.4239 C25.704,60.4239 24.643,59.6959 24.643,58.7989 C24.643,57.9019 25.233,57.1739 26.601,57.1739 Z M35.1479,57.1739 C36.0459,57.1739 36.7729,57.9019 36.7729,58.7989 C36.7729,59.6959 36.0459,60.4239 35.1479,60.4239 C34.2519,60.4239 33.5239,59.6959 33.5239,58.7989 C33.5239,57.9019 34.2519,57.1739 35.1479,57.1739 Z M43.0297,57.1739 C43.9267,57.1739 44.6537,57.9019 44.6537,58.7989 C44.6537,59.6959 43.9267,60.4239 43.0297,60.4239 C42.1327,60.4239 41.4047,59.6959 41.4047,58.7989 C41.4047,57.9019 42.1327,57.1739 43.0297,57.1739 Z M51.2758,57.1739 C52.1728,57.1739 52.9008,57.9019 52.9008,58.7989 C52.9008,59.6959 52.1728,60.4239 51.2758,60.4239 C50.3798,60.4239 49.6518,59.6959 49.6518,58.7989 C49.6518,57.9019 50.3798,57.1739 51.2758,57.1739 Z M6.1679,52.9732 C7.6309,52.9732 8.2929,53.7012 8.2929,54.5982 C8.2929,55.4952 7.0649,56.2232 6.1679,56.2232 C5.2719,56.2232 4.0439,55.4952 4.0439,54.5982 C4.0439,53.7012 4.5389,52.9732 6.1679,52.9732 Z M14.5488,52.9732 C15.4468,52.9732 16.1738,53.7012 16.1738,54.5982 C16.1738,55.4952 15.4468,56.2232 14.5488,56.2232 C13.6528,56.2232 12.9248,55.4952 12.9248,54.5982 C12.9248,53.7012 13.6528,52.9732 14.5488,52.9732 Z M22.4301,52.9732 C23.3271,52.9732 24.0551,53.7012 24.0551,54.5982 C24.0551,55.4952 23.3271,56.2232 22.4301,56.2232 C21.5341,56.2232 20.8061,55.4952 20.8061,54.5982 C20.8061,53.7012 21.5341,52.9732 22.4301,52.9732 Z M31.311,52.9732 C32.209,52.9732 32.936,53.7012 32.936,54.5982 C32.936,55.4952 32.209,56.2232 31.311,56.2232 C30.415,56.2232 29.39,55.4952 29.39,54.5982 C29.39,53.7012 30.415,52.9732 31.311,52.9732 Z M47.0732,52.9732 C47.9702,52.9732 48.6982,53.7012 48.6982,54.5982 C48.6982,55.4952 47.9702,56.2232 47.0732,56.2232 C46.1772,56.2232 45.4492,55.4952 45.4492,54.5982 C45.4492,53.7012 46.1772,52.9732 47.0732,52.9732 Z M55.3197,52.9732 C56.2167,52.9732 56.9447,53.7012 56.9447,54.5982 C56.9447,55.4952 56.2167,56.2232 55.3197,56.2232 C54.4237,56.2232 53.6957,55.4952 53.6957,54.5982 C53.6957,53.7012 54.4237,52.9732 55.3197,52.9732 Z M38.9904,52.9822 C39.8874,52.9822 40.7734,53.7012 40.7734,54.5982 C40.7734,55.4952 39.8874,56.2152 38.9904,56.2152 C38.0934,56.2152 37.2074,55.4952 37.2074,54.5982 C37.2074,53.7012 38.0934,52.9822 38.9904,52.9822 Z M1.6239,49.1958 C2.5209,49.1958 3.2489,49.9238 3.2489,50.8208 C3.2489,51.7178 2.5209,52.4458 1.6239,52.4458 C0.7279,52.4458 -0.0001,51.7178 -0.0001,50.8208 C-0.0001,49.9238 0.7279,49.1958 1.6239,49.1958 Z M10.5048,49.1958 C11.4028,49.1958 12.1298,49.9238 12.1298,50.8208 C12.1298,51.7178 11.4028,52.4458 10.5048,52.4458 C9.6088,52.4458 8.8808,51.7178 8.8808,50.8208 C8.8808,49.9238 9.6088,49.1958 10.5048,49.1958 Z M18.3867,49.1958 C19.2837,49.1958 20.0107,49.9238 20.0107,50.8208 C20.0107,51.7178 19.2837,52.4458 18.3867,52.4458 C17.4897,52.4458 16.7617,51.7178 16.7617,50.8208 C16.7617,49.9238 17.4897,49.1958 18.3867,49.1958 Z M27.267,49.1958 C28.164,49.1958 28.892,49.9238 28.892,50.8208 C28.892,51.7178 28.164,52.4458 27.267,52.4458 C26.371,52.4458 25.643,51.7178 25.643,50.8208 C25.643,49.9238 26.371,49.1958 27.267,49.1958 Z M35.1479,49.1958 C36.0459,49.1958 36.7729,49.9238 36.7729,50.8208 C36.7729,51.7178 36.0459,52.4458 35.1479,52.4458 C34.2519,52.4458 33.5239,51.7178 33.5239,50.8208 C33.5239,49.9238 34.2519,49.1958 35.1479,49.1958 Z M43.0297,49.1958 C43.9267,49.1958 44.6537,49.9238 44.6537,50.8208 C44.6537,51.7178 43.9267,52.4458 43.0297,52.4458 C42.1327,52.4458 41.4047,51.7178 41.4047,50.8208 C41.4047,49.9238 42.1327,49.1958 43.0297,49.1958 Z M51.2759,49.1958 C52.6429,49.1958 53.2109,49.9238 53.2109,50.8208 C53.2109,51.7178 52.5479,52.4458 51.2759,52.4458 C50.3789,52.4458 49.6519,51.7178 49.6519,50.8208 C49.6519,49.9238 50.3789,49.1958 51.2759,49.1958 Z M6.1679,45.0757 C7.6309,45.0757 8.2929,45.8037 8.2929,46.7007 C8.2929,47.5977 7.0649,48.3257 6.1679,48.3257 C5.2719,48.3257 4.0439,47.5977 4.0439,46.7007 C4.0439,45.8037 4.5389,45.0757 6.1679,45.0757 Z M14.5488,45.0757 C15.4468,45.0757 16.1738,45.8037 16.1738,46.7007 C16.1738,47.5977 15.4468,48.3257 14.5488,48.3257 C13.6528,48.3257 12.9248,47.5977 12.9248,46.7007 C12.9248,45.8037 13.6528,45.0757 14.5488,45.0757 Z M22.4301,45.0757 C23.3271,45.0757 24.0551,45.8037 24.0551,46.7007 C24.0551,47.5977 23.3271,48.3257 22.4301,48.3257 C21.5341,48.3257 20.8061,47.5977 20.8061,46.7007 C20.8061,45.8037 21.5341,45.0757 22.4301,45.0757 Z M31.311,45.0757 C32.209,45.0757 32.936,45.8037 32.936,46.7007 C32.936,47.5977 32.209,48.3257 31.311,48.3257 C30.415,48.3257 29.687,47.5977 29.687,46.7007 C29.687,45.8037 30.415,45.0757 31.311,45.0757 Z M47.0732,45.0757 C47.9702,45.0757 48.6982,45.8037 48.6982,46.7007 C48.6982,47.5977 47.9702,48.3257 47.0732,48.3257 C46.1772,48.3257 45.4492,47.5977 45.4492,46.7007 C45.4492,45.8037 46.1772,45.0757 47.0732,45.0757 Z M55.3197,45.0757 C56.2167,45.0757 56.9447,45.8037 56.9447,46.7007 C56.9447,47.5977 56.2167,48.3257 55.3197,48.3257 C54.4237,48.3257 53.6957,47.5977 53.6957,46.7007 C53.6957,45.8037 54.4237,45.0757 55.3197,45.0757 Z M38.9904,45.0847 C39.8874,45.0847 40.7734,45.8037 40.7734,46.7007 C40.7734,47.5977 39.8874,48.3167 38.9904,48.3167 C38.0934,48.3167 37.2074,47.5977 37.2074,46.7007 C37.2074,45.8037 38.0934,45.0847 38.9904,45.0847 Z M1.6239,40.9532 C2.5209,40.9532 3.2489,41.6802 3.2489,42.5772 C3.2489,43.4742 2.5209,44.2022 1.6239,44.2022 C0.7279,44.2022 -0.0001,43.4742 -0.0001,42.5772 C-0.0001,41.6802 0.7279,40.9532 1.6239,40.9532 Z M10.5048,40.9532 C11.4028,40.9532 12.1298,41.6802 12.1298,42.5772 C12.1298,43.4742 11.4028,44.2022 10.5048,44.2022 C9.6088,44.2022 8.8808,43.4742 8.8808,42.5772 C8.8808,41.6802 9.6088,40.9532 10.5048,40.9532 Z M18.3867,40.9532 C19.2837,40.9532 20.0107,41.6802 20.0107,42.5772 C20.0107,43.4742 19.2837,44.2022 18.3867,44.2022 C17.4897,44.2022 16.7617,43.4742 16.7617,42.5772 C16.7617,41.6802 17.4897,40.9532 18.3867,40.9532 Z M26.601,40.9532 C27.91,40.9532 28.892,41.6802 28.892,42.5772 C28.892,43.4742 27.498,44.2022 26.601,44.2022 C25.704,44.2022 24.643,43.4742 24.643,42.5772 C24.643,41.6802 25.233,40.9532 26.601,40.9532 Z M35.1479,40.9532 C36.0459,40.9532 36.7729,41.6802 36.7729,42.5772 C36.7729,43.4742 36.0459,44.2022 35.1479,44.2022 C34.2519,44.2022 33.5239,43.4742 33.5239,42.5772 C33.5239,41.6802 34.2519,40.9532 35.1479,40.9532 Z M43.0297,40.9532 C43.9267,40.9532 44.6537,41.6802 44.6537,42.5772 C44.6537,43.4742 43.9267,44.2022 43.0297,44.2022 C42.1327,44.2022 41.4047,43.4742 41.4047,42.5772 C41.4047,41.6802 42.1327,40.9532 43.0297,40.9532 Z M51.2758,40.9532 C52.1728,40.9532 52.9008,41.6802 52.9008,42.5772 C52.9008,43.4742 52.1728,44.2022 51.2758,44.2022 C50.3798,44.2022 49.6518,43.4742 49.6518,42.5772 C49.6518,41.6802 50.3798,40.9532 51.2758,40.9532 Z M6.1679,36.752 C7.6309,36.752 8.2929,37.48 8.2929,38.377 C8.2929,39.274 7.0649,40.001 6.1679,40.001 C5.2719,40.001 4.0439,39.274 4.0439,38.377 C4.0439,37.48 4.5389,36.752 6.1679,36.752 Z M14.5488,36.752 C15.4468,36.752 16.1738,37.48 16.1738,38.377 C16.1738,39.274 15.4468,40.001 14.5488,40.001 C13.6528,40.001 12.9248,39.274 12.9248,38.377 C12.9248,37.48 13.6528,36.752 14.5488,36.752 Z M22.4301,36.752 C23.3271,36.752 24.0551,37.48 24.0551,38.377 C24.0551,39.274 23.3271,40.001 22.4301,40.001 C21.5341,40.001 20.8061,39.274 20.8061,38.377 C20.8061,37.48 21.5341,36.752 22.4301,36.752 Z M31.311,36.752 C32.209,36.752 32.936,37.48 32.936,38.377 C32.936,39.274 32.209,40.001 31.311,40.001 C30.415,40.001 29.39,39.274 29.39,38.377 C29.39,37.48 30.415,36.752 31.311,36.752 Z M47.0732,36.752 C47.9702,36.752 48.6982,37.48 48.6982,38.377 C48.6982,39.274 47.9702,40.001 47.0732,40.001 C46.1772,40.001 45.4492,39.274 45.4492,38.377 C45.4492,37.48 46.1772,36.752 47.0732,36.752 Z M55.3197,36.752 C56.2167,36.752 56.9447,37.48 56.9447,38.377 C56.9447,39.274 56.2167,40.001 55.3197,40.001 C54.4237,40.001 53.6957,39.274 53.6957,38.377 C53.6957,37.48 54.4237,36.752 55.3197,36.752 Z M38.9904,36.76 C39.8874,36.76 40.7734,37.48 40.7734,38.377 C40.7734,39.274 39.8874,39.993 38.9904,39.993 C38.0934,39.993 37.2074,39.274 37.2074,38.377 C37.2074,37.48 38.0934,36.76 38.9904,36.76 Z M1.6239,32.9746 C2.5209,32.9746 3.2489,33.7026 3.2489,34.5996 C3.2489,35.4966 2.5209,36.2236 1.6239,36.2236 C0.7279,36.2236 -0.0001,35.4966 -0.0001,34.5996 C-0.0001,33.7026 0.7279,32.9746 1.6239,32.9746 Z M10.5048,32.9746 C11.4028,32.9746 12.1298,33.7026 12.1298,34.5996 C12.1298,35.4966 11.4028,36.2236 10.5048,36.2236 C9.6088,36.2236 8.8808,35.4966 8.8808,34.5996 C8.8808,33.7026 9.6088,32.9746 10.5048,32.9746 Z M18.3867,32.9746 C19.2837,32.9746 20.0107,33.7026 20.0107,34.5996 C20.0107,35.4966 19.2837,36.2236 18.3867,36.2236 C17.4897,36.2236 16.7617,35.4966 16.7617,34.5996 C16.7617,33.7026 17.4897,32.9746 18.3867,32.9746 Z M27.267,32.9746 C28.164,32.9746 28.892,33.7026 28.892,34.5996 C28.892,35.4966 28.164,36.2236 27.267,36.2236 C26.371,36.2236 25.643,35.4966 25.643,34.5996 C25.643,33.7026 26.371,32.9746 27.267,32.9746 Z M35.1479,32.9746 C36.4439,32.9746 36.7729,33.7026 36.7729,34.5996 C36.7729,35.4966 36.0459,36.2236 35.1479,36.2236 C33.7049,36.2236 33.1229,35.4966 33.1229,34.5996 C33.1229,33.7026 33.7529,32.9746 35.1479,32.9746 Z M43.0297,32.9746 C43.9267,32.9746 44.6537,33.7026 44.6537,34.5996 C44.6537,35.4966 43.9267,36.2236 43.0297,36.2236 C42.1327,36.2236 41.4047,35.4966 41.4047,34.5996 C41.4047,33.7026 42.1327,32.9746 43.0297,32.9746 Z M51.2759,32.9746 C52.6429,32.9746 53.2109,33.7026 53.2109,34.5996 C53.2109,35.4966 52.5479,36.2236 51.2759,36.2236 C50.3789,36.2236 49.6519,35.4966 49.6519,34.5996 C49.6519,33.7026 50.3789,32.9746 51.2759,32.9746 Z M6.1679,28.3223 C7.6309,28.3223 8.2929,29.0503 8.2929,29.9473 C8.2929,30.8443 7.0649,31.5723 6.1679,31.5723 C5.2719,31.5723 4.0439,30.8443 4.0439,29.9473 C4.0439,29.0503 4.5389,28.3223 6.1679,28.3223 Z M14.5488,28.3223 C15.4468,28.3223 16.1738,29.0503 16.1738,29.9473 C16.1738,30.8443 15.4468,31.5723 14.5488,31.5723 C13.6528,31.5723 12.9248,30.8443 12.9248,29.9473 C12.9248,29.0503 13.6528,28.3223 14.5488,28.3223 Z M22.4301,28.3223 C23.3271,28.3223 24.0551,29.0503 24.0551,29.9473 C24.0551,30.8443 23.3271,31.5723 22.4301,31.5723 C21.5341,31.5723 20.8061,30.8443 20.8061,29.9473 C20.8061,29.0503 21.5341,28.3223 22.4301,28.3223 Z M31.311,28.3223 C32.209,28.3223 32.936,29.0503 32.936,29.9473 C32.936,30.8443 32.209,31.5723 31.311,31.5723 C30.415,31.5723 29.687,30.8443 29.687,29.9473 C29.687,29.0503 30.415,28.3223 31.311,28.3223 Z M47.0732,28.3223 C47.9702,28.3223 48.6982,29.0503 48.6982,29.9473 C48.6982,30.8443 47.9702,31.5723 47.0732,31.5723 C46.1772,31.5723 45.4492,30.8443 45.4492,29.9473 C45.4492,29.0503 46.1772,28.3223 47.0732,28.3223 Z M55.3197,28.3223 C56.2167,28.3223 56.9447,29.0503 56.9447,29.9473 C56.9447,30.8443 56.2167,31.5723 55.3197,31.5723 C54.4237,31.5723 53.6957,30.8443 53.6957,29.9473 C53.6957,29.0503 54.4237,28.3223 55.3197,28.3223 Z M38.9904,28.3313 C39.8874,28.3313 40.7734,29.0503 40.7734,29.9473 C40.7734,30.8443 39.8874,31.5643 38.9904,31.5643 C38.0934,31.5643 37.2074,30.8443 37.2074,29.9473 C37.2074,29.0503 38.0934,28.3313 38.9904,28.3313 Z M1.6239,24.1998 C2.5209,24.1998 3.2489,24.9268 3.2489,25.8238 C3.2489,26.7208 2.5209,27.4488 1.6239,27.4488 C0.7279,27.4488 -0.0001,26.7208 -0.0001,25.8238 C-0.0001,24.9268 0.7279,24.1998 1.6239,24.1998 Z M10.5048,24.1998 C11.4028,24.1998 12.1298,24.9268 12.1298,25.8238 C12.1298,26.7208 11.4028,27.4488 10.5048,27.4488 C9.6088,27.4488 8.8808,26.7208 8.8808,25.8238 C8.8808,24.9268 9.6088,24.1998 10.5048,24.1998 Z M18.3867,24.1998 C19.2837,24.1998 20.0107,24.9268 20.0107,25.8238 C20.0107,26.7208 19.2837,27.4488 18.3867,27.4488 C17.4897,27.4488 16.7617,26.7208 16.7617,25.8238 C16.7617,24.9268 17.4897,24.1998 18.3867,24.1998 Z M26.601,24.1998 C27.91,24.1998 28.892,24.9268 28.892,25.8238 C28.892,26.7208 27.498,27.4488 26.601,27.4488 C25.704,27.4488 24.643,26.7208 24.643,25.8238 C24.643,24.9268 25.233,24.1998 26.601,24.1998 Z M35.1479,24.1998 C36.0459,24.1998 36.7729,24.9268 36.7729,25.8238 C36.7729,26.7208 36.0459,27.4488 35.1479,27.4488 C34.2519,27.4488 33.5239,26.7208 33.5239,25.8238 C33.5239,24.9268 34.2519,24.1998 35.1479,24.1998 Z M43.0297,24.1998 C43.9267,24.1998 44.6537,24.9268 44.6537,25.8238 C44.6537,26.7208 43.9267,27.4488 43.0297,27.4488 C42.1327,27.4488 41.4047,26.7208 41.4047,25.8238 C41.4047,24.9268 42.1327,24.1998 43.0297,24.1998 Z M51.2758,24.1998 C52.1728,24.1998 52.9008,24.9268 52.9008,25.8238 C52.9008,26.7208 52.1728,27.4488 51.2758,27.4488 C50.3798,27.4488 49.6518,26.7208 49.6518,25.8238 C49.6518,24.9268 50.3798,24.1998 51.2758,24.1998 Z M6.1679,19.9986 C7.6309,19.9986 8.2929,20.7266 8.2929,21.6236 C8.2929,22.5206 7.0649,23.2486 6.1679,23.2486 C5.2719,23.2486 4.0439,22.5206 4.0439,21.6236 C4.0439,20.7266 4.5389,19.9986 6.1679,19.9986 Z M14.5488,19.9986 C15.4468,19.9986 16.1738,20.7266 16.1738,21.6236 C16.1738,22.5206 15.4468,23.2486 14.5488,23.2486 C13.6528,23.2486 12.9248,22.5206 12.9248,21.6236 C12.9248,20.7266 13.6528,19.9986 14.5488,19.9986 Z M22.4301,19.9986 C23.3271,19.9986 24.0551,20.7266 24.0551,21.6236 C24.0551,22.5206 23.3271,23.2486 22.4301,23.2486 C21.5341,23.2486 20.8061,22.5206 20.8061,21.6236 C20.8061,20.7266 21.5341,19.9986 22.4301,19.9986 Z M31.311,19.9986 C32.209,19.9986 32.936,20.7266 32.936,21.6236 C32.936,22.5206 32.209,23.2486 31.311,23.2486 C30.415,23.2486 29.39,22.5206 29.39,21.6236 C29.39,20.7266 30.415,19.9986 31.311,19.9986 Z M47.0732,19.9986 C47.9702,19.9986 48.6982,20.7266 48.6982,21.6236 C48.6982,22.5206 47.9702,23.2486 47.0732,23.2486 C46.1772,23.2486 45.4492,22.5206 45.4492,21.6236 C45.4492,20.7266 46.1772,19.9986 47.0732,19.9986 Z M55.3197,19.9986 C56.2167,19.9986 56.9447,20.7266 56.9447,21.6236 C56.9447,22.5206 56.2167,23.2486 55.3197,23.2486 C54.4237,23.2486 53.6957,22.5206 53.6957,21.6236 C53.6957,20.7266 54.4237,19.9986 55.3197,19.9986 Z M38.9904,20.0076 C39.8874,20.0076 40.7734,20.7266 40.7734,21.6236 C40.7734,22.5206 39.8874,23.2396 38.9904,23.2396 C38.0934,23.2396 37.2074,22.5206 37.2074,21.6236 C37.2074,20.7266 38.0934,20.0076 38.9904,20.0076 Z M1.6239,16.2212 C2.5209,16.2212 3.2489,16.9492 3.2489,17.8462 C3.2489,18.7432 2.5209,19.4702 1.6239,19.4702 C0.7279,19.4702 -0.0001,18.7432 -0.0001,17.8462 C-0.0001,16.9492 0.7279,16.2212 1.6239,16.2212 Z M10.5048,16.2212 C11.4028,16.2212 12.1298,16.9492 12.1298,17.8462 C12.1298,18.7432 11.4028,19.4702 10.5048,19.4702 C9.6088,19.4702 8.8808,18.7432 8.8808,17.8462 C8.8808,16.9492 9.6088,16.2212 10.5048,16.2212 Z M18.3867,16.2212 C19.2837,16.2212 20.0107,16.9492 20.0107,17.8462 C20.0107,18.7432 19.2837,19.4702 18.3867,19.4702 C17.4897,19.4702 16.7617,18.7432 16.7617,17.8462 C16.7617,16.9492 17.4897,16.2212 18.3867,16.2212 Z M27.267,16.2212 C28.164,16.2212 28.892,16.9492 28.892,17.8462 C28.892,18.7432 28.164,19.4702 27.267,19.4702 C26.371,19.4702 25.643,18.7432 25.643,17.8462 C25.643,16.9492 26.371,16.2212 27.267,16.2212 Z M35.1479,16.2212 C36.0459,16.2212 36.7729,16.9492 36.7729,17.8462 C36.7729,18.7432 36.0459,19.4702 35.1479,19.4702 C34.2519,19.4702 33.5239,18.7432 33.5239,17.8462 C33.5239,16.9492 34.2519,16.2212 35.1479,16.2212 Z M43.0297,16.2212 C43.9267,16.2212 44.6537,16.9492 44.6537,17.8462 C44.6537,18.7432 43.9267,19.4702 43.0297,19.4702 C42.1327,19.4702 41.4047,18.7432 41.4047,17.8462 C41.4047,16.9492 42.1327,16.2212 43.0297,16.2212 Z M51.2759,16.2212 C52.6429,16.2212 53.2109,16.9492 53.2109,17.8462 C53.2109,18.7432 52.5479,19.4702 51.2759,19.4702 C50.3789,19.4702 49.6519,18.7432 49.6519,17.8462 C49.6519,16.9492 50.3789,16.2212 51.2759,16.2212 Z M6.1679,12.1011 C7.6309,12.1011 8.2929,12.8291 8.2929,13.7261 C8.2929,14.6231 7.0649,15.3501 6.1679,15.3501 C5.2719,15.3501 4.0439,14.6231 4.0439,13.7261 C4.0439,12.8291 4.5389,12.1011 6.1679,12.1011 Z M14.5488,12.1011 C15.4468,12.1011 16.1738,12.8291 16.1738,13.7261 C16.1738,14.6231 15.4468,15.3501 14.5488,15.3501 C13.6528,15.3501 12.9248,14.6231 12.9248,13.7261 C12.9248,12.8291 13.6528,12.1011 14.5488,12.1011 Z M22.4301,12.1011 C23.3271,12.1011 24.0551,12.8291 24.0551,13.7261 C24.0551,14.6231 23.3271,15.3501 22.4301,15.3501 C21.5341,15.3501 20.8061,14.6231 20.8061,13.7261 C20.8061,12.8291 21.5341,12.1011 22.4301,12.1011 Z M31.311,12.1011 C32.209,12.1011 32.936,12.8291 32.936,13.7261 C32.936,14.6231 32.209,15.3501 31.311,15.3501 C30.415,15.3501 29.687,14.6231 29.687,13.7261 C29.687,12.8291 30.415,12.1011 31.311,12.1011 Z M47.0732,12.1011 C47.9702,12.1011 48.6982,12.8291 48.6982,13.7261 C48.6982,14.6231 47.9702,15.3501 47.0732,15.3501 C46.1772,15.3501 45.4492,14.6231 45.4492,13.7261 C45.4492,12.8291 46.1772,12.1011 47.0732,12.1011 Z M55.3197,12.1011 C56.2167,12.1011 56.9447,12.8291 56.9447,13.7261 C56.9447,14.6231 56.2167,15.3501 55.3197,15.3501 C54.4237,15.3501 53.6957,14.6231 53.6957,13.7261 C53.6957,12.8291 54.4237,12.1011 55.3197,12.1011 Z M38.9904,12.1091 C39.8874,12.1091 40.7734,12.8291 40.7734,13.7261 C40.7734,14.6231 39.8874,15.3421 38.9904,15.3421 C38.0934,15.3421 37.2074,14.6231 37.2074,13.7261 C37.2074,12.8291 38.0934,12.1091 38.9904,12.1091 Z M1.6239,7.9776 C2.5209,7.9776 3.2489,8.7056 3.2489,9.6026 C3.2489,10.4996 2.5209,11.2276 1.6239,11.2276 C0.7279,11.2276 -0.0001,10.4996 -0.0001,9.6026 C-0.0001,8.7056 0.7279,7.9776 1.6239,7.9776 Z M10.5048,7.9776 C11.4028,7.9776 12.1298,8.7056 12.1298,9.6026 C12.1298,10.4996 11.4028,11.2276 10.5048,11.2276 C9.6088,11.2276 8.8808,10.4996 8.8808,9.6026 C8.8808,8.7056 9.6088,7.9776 10.5048,7.9776 Z M18.3867,7.9776 C19.2837,7.9776 20.0107,8.7056 20.0107,9.6026 C20.0107,10.4996 19.2837,11.2276 18.3867,11.2276 C17.4897,11.2276 16.7617,10.4996 16.7617,9.6026 C16.7617,8.7056 17.4897,7.9776 18.3867,7.9776 Z M26.601,7.9776 C27.91,7.9776 28.892,8.7056 28.892,9.6026 C28.892,10.4996 27.498,11.2276 26.601,11.2276 C25.704,11.2276 24.643,10.4996 24.643,9.6026 C24.643,8.7056 25.233,7.9776 26.601,7.9776 Z M35.1479,7.9776 C36.0459,7.9776 36.7729,8.7056 36.7729,9.6026 C36.7729,10.4996 36.0459,11.2276 35.1479,11.2276 C34.2519,11.2276 33.5239,10.4996 33.5239,9.6026 C33.5239,8.7056 34.2519,7.9776 35.1479,7.9776 Z M43.0297,7.9776 C43.9267,7.9776 44.6537,8.7056 44.6537,9.6026 C44.6537,10.4996 43.9267,11.2276 43.0297,11.2276 C42.1327,11.2276 41.4047,10.4996 41.4047,9.6026 C41.4047,8.7056 42.1327,7.9776 43.0297,7.9776 Z M51.2758,7.9776 C52.1728,7.9776 52.9008,8.7056 52.9008,9.6026 C52.9008,10.4996 52.1728,11.2276 51.2758,11.2276 C50.3798,11.2276 49.6518,10.4996 49.6518,9.6026 C49.6518,8.7056 50.3798,7.9776 51.2758,7.9776 Z M6.1679,3.7779 C7.6309,3.7779 8.2929,4.5049 8.2929,5.4019 C8.2929,6.2989 7.0649,7.0269 6.1679,7.0269 C5.2719,7.0269 4.0439,6.2989 4.0439,5.4019 C4.0439,4.5049 4.5389,3.7779 6.1679,3.7779 Z M14.5488,3.7779 C15.4468,3.7779 16.1738,4.5049 16.1738,5.4019 C16.1738,6.2989 15.4468,7.0269 14.5488,7.0269 C13.6528,7.0269 12.9248,6.2989 12.9248,5.4019 C12.9248,4.5049 13.6528,3.7779 14.5488,3.7779 Z M22.4301,3.7779 C23.3271,3.7779 24.0551,4.5049 24.0551,5.4019 C24.0551,6.2989 23.3271,7.0269 22.4301,7.0269 C21.5341,7.0269 20.8061,6.2989 20.8061,5.4019 C20.8061,4.5049 21.5341,3.7779 22.4301,3.7779 Z M31.311,3.7779 C32.209,3.7779 32.936,4.5049 32.936,5.4019 C32.936,6.2989 32.209,7.0269 31.311,7.0269 C30.415,7.0269 29.39,6.2989 29.39,5.4019 C29.39,4.5049 30.415,3.7779 31.311,3.7779 Z M47.0732,3.7779 C47.9702,3.7779 48.6982,4.5049 48.6982,5.4019 C48.6982,6.2989 47.9702,7.0269 47.0732,7.0269 C46.1772,7.0269 45.4492,6.2989 45.4492,5.4019 C45.4492,4.5049 46.1772,3.7779 47.0732,3.7779 Z M55.3197,3.7779 C56.2167,3.7779 56.9447,4.5049 56.9447,5.4019 C56.9447,6.2989 56.2167,7.0269 55.3197,7.0269 C54.4237,7.0269 53.6957,6.2989 53.6957,5.4019 C53.6957,4.5049 54.4237,3.7779 55.3197,3.7779 Z M38.9904,3.7859 C39.8874,3.7859 40.7734,4.5049 40.7734,5.4019 C40.7734,6.2989 39.8874,7.0189 38.9904,7.0189 C38.0934,7.0189 37.2074,6.2989 37.2074,5.4019 C37.2074,4.5049 38.0934,3.7859 38.9904,3.7859 Z M1.6239,-0.0005 C2.5209,-0.0005 3.2489,0.7275 3.2489,1.6245 C3.2489,2.5215 2.5209,3.2495 1.6239,3.2495 C0.7279,3.2495 -0.0001,2.5215 -0.0001,1.6245 C-0.0001,0.7275 0.7279,-0.0005 1.6239,-0.0005 Z M10.5048,-0.0005 C11.4028,-0.0005 12.1298,0.7275 12.1298,1.6245 C12.1298,2.5215 11.4028,3.2495 10.5048,3.2495 C9.6088,3.2495 8.8808,2.5215 8.8808,1.6245 C8.8808,0.7275 9.6088,-0.0005 10.5048,-0.0005 Z M18.3867,-0.0005 C19.2837,-0.0005 20.0107,0.7275 20.0107,1.6245 C20.0107,2.5215 19.2837,3.2495 18.3867,3.2495 C17.4897,3.2495 16.7617,2.5215 16.7617,1.6245 C16.7617,0.7275 17.4897,-0.0005 18.3867,-0.0005 Z M27.267,-0.0005 C28.164,-0.0005 28.892,0.7275 28.892,1.6245 C28.892,2.5215 28.164,3.2495 27.267,3.2495 C26.371,3.2495 25.643,2.5215 25.643,1.6245 C25.643,0.7275 26.371,-0.0005 27.267,-0.0005 Z M35.1479,-0.0005 C36.4439,-0.0005 36.7729,0.7275 36.7729,1.6245 C36.7729,2.5215 36.0459,3.2495 35.1479,3.2495 C33.7049,3.2495 33.1229,2.5215 33.1229,1.6245 C33.1229,0.7275 33.7529,-0.0005 35.1479,-0.0005 Z M43.0297,-0.0005 C43.9267,-0.0005 44.6537,0.7275 44.6537,1.6245 C44.6537,2.5215 43.9267,3.2495 43.0297,3.2495 C42.1327,3.2495 41.4047,2.5215 41.4047,1.6245 C41.4047,0.7275 42.1327,-0.0005 43.0297,-0.0005 Z M51.2759,-0.0005 C52.6429,-0.0005 53.2109,0.7275 53.2109,1.6245 C53.2109,2.5215 52.5479,3.2495 51.2759,3.2495 C50.3789,3.2495 49.6519,2.5215 49.6519,1.6245 C49.6519,0.7275 50.3789,-0.0005 51.2759,-0.0005 Z" id="Combined-Shape"></path>
            </g>
        </g>
    </g>
</svg>