<?xml version="1.0" encoding="UTF-8"?>
<svg width="321px" height="324px" viewBox="0 0 321 324" version="1.1" xmlns="http://www.w3.org/2000/svg" xmlns:xlink="http://www.w3.org/1999/xlink">
    <title>liner</title>
    <g id="Page-1" stroke="none" stroke-width="1" fill="none" fill-rule="evenodd" stroke-linecap="round">
        <path d="M278.577828,31.0172283 C241.301295,3.66764717 214.009546,-4.33710829 196.702585,7.00296191 C146.77507,39.7170527 225.537358,56.7293767 204.690413,31.0172283 C178.72997,-1.00179355 -99.8455518,51.0291169 254.762554,124.424282 C266.664917,126.887779 290.987885,123.543575 301.211309,114.727115 C327.503278,92.0534887 310.047596,76.2494308 279.966337,79.299818 C265.699971,80.7464974 251.330758,84.5097381 239.426547,92.9407348 C204.084464,117.971286 4.99469852,303.178914 161.755835,250.147409 C318.516971,197.115904 125.810606,99.0576497 33.9505772,145.084994 C-57.9094517,191.112337 66.9003701,307.181292 141.786263,321.189614 C216.672156,335.197936 201.694978,166.097477 319.515449,213.125415" id="liner" stroke="#078080" stroke-width="3"></path>
    </g>
</svg>