<?xml version="1.0" encoding="UTF-8"?>
<svg width="444px" height="149px" viewBox="0 0 444 149" version="1.1" xmlns="http://www.w3.org/2000/svg" xmlns:xlink="http://www.w3.org/1999/xlink">
    <title>Group</title>
    <g id="Page-1" stroke="none" stroke-width="1" fill="none" fill-rule="evenodd">
        <g id="Group" transform="translate(1.878993, 2.000000)">
            <path d="M0,145 C34.4381529,109.688022 74.6078058,123.730223 111.634011,137.275981 C135.632319,146.055581 163.828615,147.392137 188.200774,140.556843 C225.723633,130.033367 242.99911,122.440659 263.014749,66.045523 C267.789447,52.592557 273.331279,1.99777714 258.049292,0.0667761179 C246.256524,-1.42333414 242.254665,22.3671245 246.554707,37.2446903 C253.099262,59.8879774 270.388827,71.3020227 284.211927,74.6947144 C314.114208,82.0338201 339.747039,66.323545 368.82536,56.0008004 C390.244249,48.3971388 419.018006,54.5369407 440,65.1864351" id="liner" stroke="#078080" stroke-width="3" stroke-linecap="round" transform="translate(220.000000, 72.500000) scale(-1, 1) translate(-220.000000, -72.500000) "></path>
            <path d="M125.848782,92.3851277 C126.987768,91.7845605 127.420657,91.2741253 128.853125,91.5858117 C132.427354,92.3637406 132.627077,93.66462 132.405244,94.9614773 L132.369176,95.1559099 L132.369176,95.1559099 L132.349463,95.25298 C132.060812,96.6432536 130.121076,100.580384 127.121379,99.9275924 C124.121698,99.2747247 124.694299,97.9462479 123.625066,96.2604547 C122.762851,94.901055 124.602631,93.0422021 125.848782,92.3851277 Z M149.60961,83.8956305 C150.748595,83.2950631 151.181484,82.784628 152.613952,83.0963144 C158.045356,84.2784293 157.179494,88.4492695 156.890886,89.8395524 C156.602252,91.2298296 153.593282,93.4811667 150.593581,92.8283944 C147.593905,92.1755075 148.087033,90.4363998 147.385893,87.7709575 C146.980449,86.2296264 148.363458,84.5527048 149.60961,83.8956305 Z M101.318955,79.0632235 C103.077944,76.4911376 104.448784,77.6354277 107.119069,78.0160844 C108.6632,78.2362047 109.630428,80.1948978 109.734251,81.6261187 C109.829145,82.9342575 110.118901,83.5416925 109.278923,84.7699523 C106.093992,89.4271257 102.682577,86.9813848 101.545439,86.1661378 C100.408301,85.3508908 99.5599665,81.6353093 101.318955,79.0632235 Z M133.259303,76.8768529 C134.034525,76.4395325 134.331374,76.0722467 135.297975,76.2825687 C137.890679,76.8468669 139.042376,78.1354372 138.423949,81.1146188 C137.805429,84.0937803 134.61507,83.3994545 133.854862,83.2340087 C133.094654,83.0685628 131.815771,82.5092828 131.362375,80.615715 C131.100191,79.5207316 132.411141,77.3553207 133.259303,76.8768529 Z M93.9039647,56.418122 C96.7473627,55.2418809 97.2883561,56.9660052 99.3253601,58.7743221 C100.503288,59.8200078 100.272573,62.0020758 99.598328,63.2602951 C98.9820666,64.4103099 98.90196,65.081329 97.5441392,65.6430248 C92.3957117,67.7727977 90.8356369,63.819268 90.3156119,62.5014247 C89.795587,61.1835815 91.0605666,57.5943631 93.9039647,56.418122 Z M113.482397,54.690013 C114.202997,54.3919195 115.56869,54.1233638 116.978746,55.4336119 C117.794132,56.1912821 117.889946,58.7370688 117.448103,59.6193487 C117.044258,60.4257545 116.998752,60.9002083 116.082522,61.2792292 C113.624895,62.2958866 111.966342,61.8870132 110.852003,59.0630635 C109.737664,56.2391135 112.761798,54.9881064 113.482397,54.690013 Z M62.2175929,48.5206156 C63.2991382,47.3709387 65.4153179,47.7210397 66.60722,48.4762898 C67.6966211,49.16659 68.346899,49.2836157 68.8236796,50.7013531 C70.6314807,56.0769656 66.6938039,57.4651945 65.381255,57.9279667 C64.068686,58.3906804 60.6341879,56.9094226 59.6357669,53.9405538 C58.6373459,50.971685 60.3472637,50.5087654 62.2175929,48.5206156 Z M85.7146873,38.4936356 C88.5011808,35.9247509 89.6342798,36.6228203 90.5394165,37.6102622 L90.6673249,37.7529724 C91.596205,38.8092337 93.5669726,42.7301753 91.2879677,44.8312032 C89.0089628,46.9322312 88.295836,45.6770658 86.33533,45.5718664 C84.7544057,45.4870352 84.367032,42.8704723 84.5803157,41.4520207 C84.7752573,40.155553 84.6263837,39.4969491 85.7146873,38.4936356 Z M109.486064,37.0936732 C112.329462,35.9174321 112.580303,37.34663 114.387435,38.13203 C115.84468,38.7653655 115.334648,41.3597838 114.660403,42.618003 C114.044141,43.7680181 113.964034,44.439037 112.606214,45.0007328 C108.964097,46.5073832 108.224868,45.2802192 107.704843,43.962376 C107.184818,42.6445327 106.642666,38.2699144 109.486064,37.0936732 Z M137.959378,33.8554539 C138.048616,33.8561739 138.130938,33.8576445 138.205294,33.8589728 C139.593272,33.8837906 142.325841,36.4784364 142.27232,39.6178953 C142.218798,42.7573541 140.457366,42.593564 138.035703,43.8068476 C136.635342,44.5084466 134.763732,43.4383994 133.895996,42.311307 C133.102884,41.281142 132.530915,40.9434546 132.556472,39.4442546 C132.644729,34.2673056 136.106178,33.8667999 137.771996,33.8552792 Z M45.6726636,33.3033691 C46.1784287,30.6392983 47.4166539,29.43779 50.3366922,30.0189423 C53.2567305,30.6000946 52.6343814,33.8782606 52.4861194,34.6593976 C52.3377912,35.4405216 51.8139583,36.7595059 49.9727491,37.2567063 C48.9080429,37.5442198 46.7705792,36.2399605 46.2885396,35.3800268 C45.8479545,34.5940455 45.4841088,34.2965637 45.6726636,33.3033691 Z M77.4110297,24.1600945 C79.3808359,22.3441186 81.0759476,22.1475291 83.0664049,24.4109461 C85.0568621,26.674363 82.6329957,28.9089397 82.0554301,29.4414009 C81.4778645,29.973862 80.2842421,30.7044707 78.5215431,29.9670246 C77.5022366,29.5405855 76.5617981,27.1818815 76.682275,26.1980817 C76.7923911,25.2988865 76.6766645,24.8371101 77.4110297,24.1600945 Z M26.1646802,23.4842026 C27.9131602,21.0201569 30.5518775,22.9830789 31.1806384,23.4508095 C31.8093993,23.91854 32.7555428,24.962058 32.417521,26.8807351 C32.222055,27.9902383 30.164233,29.4224953 29.1993268,29.5063804 C28.3174007,29.5830516 27.900311,29.7949612 27.1008518,29.2002495 C24.9564425,27.6050394 24.4162002,25.9482483 26.1646802,23.4842026 Z M92.97299,13.8216744 C97.0994934,10.0174267 99.8861336,13.1862105 100.815014,14.2424718 C101.743894,15.2987331 101.754155,19.1144753 99.4751506,21.2155033 C97.1961457,23.3165312 96.1118464,21.8858335 93.5936328,20.8999052 C92.1374389,20.3297777 91.6253348,18.1985111 91.8386184,16.7800595 C92.0335602,15.4835918 91.8846865,14.8249878 92.97299,13.8216744 Z" id="Combined-Shape" fill="#F45D48" transform="translate(91.121007, 56.000000) rotate(-180.000000) translate(-91.121007, -56.000000) "></path>
        </g>
    </g>
</svg>