<svg xmlns="http://www.w3.org/2000/svg" viewBox="0 0 580.89 671.3"><defs><style>.cls-1{fill:#5c26ff;}.cls-2{fill:#5c28ff;}.cls-3{fill:#5c2aff;}.cls-4{fill:#5c2bff;}.cls-5{fill:#5c2dff;}.cls-6{fill:#5c2eff;}.cls-7{fill:#5c30ff;}.cls-8{fill:#5c32ff;}.cls-9{fill:#5c33ff;}.cls-10{fill:#5c35ff;}.cls-11{fill:#5c37ff;}.cls-12{fill:#5c38ff;}.cls-13{fill:#5c3aff;}.cls-14{fill:#5c3bff;}.cls-15{fill:#5c3dff;}.cls-16{fill:#5c3fff;}.cls-17{fill:#5c40ff;}.cls-18{fill:#5c42ff;}.cls-19{fill:#5c44ff;}.cls-20{fill:#5c45ff;}.cls-21{fill:#5c47ff;}.cls-22{fill:#5c48ff;}.cls-23{fill:#5c4aff;}.cls-24{fill:#5c4cff;}.cls-25{fill:#5c4dff;}.cls-26{fill:#5c4fff;}.cls-27{fill:#5c51ff;}.cls-28{fill:#5c52ff;}.cls-29{fill:#5c54ff;}.cls-30{fill:#5c55ff;}.cls-31{fill:#5b57ff;}.cls-32{fill:#5b59ff;}.cls-33{fill:#5b5aff;}.cls-34{fill:#5b5cff;}.cls-35{fill:#5b5eff;}.cls-36{fill:#5b5fff;}.cls-37{fill:#5b61ff;}.cls-38{fill:#5b62ff;}.cls-39{fill:#5b64ff;}.cls-40{fill:#5b66ff;}.cls-41{fill:#5b67ff;}.cls-42{fill:#5b69ff;}.cls-43{fill:#5b6bff;}.cls-44{fill:#5b6cff;}.cls-45{fill:#5b6eff;}.cls-46{fill:#5b6fff;}.cls-47{fill:#5b71ff;}.cls-48{fill:#5b73ff;}.cls-49{fill:#5b74ff;}.cls-50{fill:#5b76ff;}.cls-51{fill:#5b78ff;}.cls-52{fill:#5b79ff;}.cls-53{fill:#5b7bff;}.cls-54{fill:#5b7cff;}.cls-55{fill:#5b7eff;}.cls-56{fill:#5b80ff;}.cls-57{fill:#5b81ff;}.cls-58{fill:#5b83ff;}.cls-59{fill:#5b85ff;}.cls-60{fill:#5b86ff;}.cls-61{fill:#5b88ff;}.cls-62{fill:#5b89ff;}.cls-63{fill:#5a8bff;}.cls-64{fill:#5a8dff;}.cls-65{fill:#5a8eff;}.cls-66{fill:#5a90ff;}.cls-67{fill:#5a92ff;}.cls-68{fill:#5a93ff;}.cls-69{fill:#5a95ff;}.cls-70{fill:#5a96ff;}.cls-71{fill:#5a98ff;}.cls-72{fill:#5a9aff;}.cls-73{fill:#5a9bff;}.cls-74{fill:#5a9dff;}.cls-75{fill:#5a9fff;}.cls-76{fill:#5aa0ff;}.cls-77{fill:#5aa2ff;}.cls-78{fill:#5aa3ff;}.cls-79{fill:#5aa5ff;}.cls-80{fill:#5aa7ff;}.cls-81{fill:#5aa8ff;}.cls-82{fill:#5aaaff;}.cls-83{fill:#5aacff;}.cls-84{fill:#5aadff;}.cls-85{fill:#5aafff;}.cls-86{fill:#5ab0ff;}.cls-87{fill:#5ab2ff;}.cls-88{fill:#5ab4ff;}.cls-89{fill:#5ab5ff;}.cls-90{fill:#5ab7ff;}.cls-91{fill:#5ab9ff;}.cls-92{fill:#5abaff;}.cls-93{fill:#5abcff;}.cls-94{fill:#5abeff;}.cls-95{fill:#59bfff;}.cls-96{fill:#59c1ff;}.cls-97{fill:#59c2ff;}.cls-98{fill:#59c4ff;}.cls-99{fill:#59c6ff;}.cls-100{fill:#59c7ff;}.cls-101{fill:#59c9ff;}.cls-102{fill:#59cbff;}</style></defs><g id="Layer_2" data-name="Layer 2"><g id="Layer_1-2" data-name="Layer 1"><path class="cls-1" d="M283,295.31a28.61,28.61,0,0,1-40.19-4.67l-64.45-81.39a28.62,28.62,0,0,1,4.68-40.2l81.39-64.44a28.61,28.61,0,0,1,40.19,4.67l64.44,81.39a28.62,28.62,0,0,1-4.67,40.2Zm181.63-103L324.92,15.88A41.86,41.86,0,0,0,266.11,9L89.65,148.76a41.86,41.86,0,0,0-6.84,58.81L222.53,384a41.87,41.87,0,0,0,58.81,6.83L457.8,251.15A41.86,41.86,0,0,0,464.64,192.34Z"/><path class="cls-2" d="M290.84,298.11a28.73,28.73,0,0,1-40.39-4.47l-65.16-81.39a28.73,28.73,0,0,1,4.47-40.39l81.39-65.16a28.74,28.74,0,0,1,40.39,4.48l65.16,81.38A28.73,28.73,0,0,1,372.22,233ZM272.71,11.65,96.85,151.9a41.84,41.84,0,0,0-6.62,58.79L230.49,386.55a41.83,41.83,0,0,0,58.79,6.62L465.13,252.91a41.82,41.82,0,0,0,6.62-58.79L331.5,18.27A41.82,41.82,0,0,0,272.71,11.65Z"/><path class="cls-3" d="M297.66,301.2a28.87,28.87,0,0,1-40.59-4.27L191.2,215.55A28.86,28.86,0,0,1,195.47,175l81.38-65.87a28.86,28.86,0,0,1,40.59,4.27l65.87,81.38A28.87,28.87,0,0,1,379,235.33ZM278.29,14.54,103.05,155.32a41.8,41.8,0,0,0-6.4,58.78L237.43,389.34a41.81,41.81,0,0,0,58.78,6.41L471.45,255a41.8,41.8,0,0,0,6.41-58.78L337.07,20.94A41.8,41.8,0,0,0,278.29,14.54Z"/><path class="cls-4" d="M303.51,304.56a29,29,0,0,1-40.78-4.07l-66.59-81.38a29,29,0,0,1,4.08-40.78l81.37-66.59a29,29,0,0,1,40.78,4.08L389,197.19A29,29,0,0,1,384.88,238ZM282.92,17.7,108.29,159a41.79,41.79,0,0,0-6.2,58.77L243.42,392.41a41.77,41.77,0,0,0,58.76,6.2L476.81,257.29A41.78,41.78,0,0,0,483,198.52L341.68,23.89A41.77,41.77,0,0,0,282.92,17.7Z"/><path class="cls-5" d="M308.44,308.18a29.1,29.1,0,0,1-41-3.88l-67.3-81.36A29.1,29.1,0,0,1,204,182l81.36-67.3a29.11,29.11,0,0,1,41,3.87l67.3,81.37a29.11,29.11,0,0,1-3.87,41ZM286.62,21.12,112.6,163a41.76,41.76,0,0,0-6,58.75l141.86,174a41.75,41.75,0,0,0,58.75,6l174-141.86a41.74,41.74,0,0,0,6-58.75L345.37,27.1A41.75,41.75,0,0,0,286.62,21.12Z"/><path class="cls-6" d="M312.49,312a29.23,29.23,0,0,1-41.18-3.68L203.3,227A29.22,29.22,0,0,1,207,185.83l81.36-68a29.23,29.23,0,0,1,41.17,3.68l68,81.36A29.24,29.24,0,0,1,393.85,244ZM289.43,24.78,116,167.17a41.73,41.73,0,0,0-5.77,58.73L252.65,399.31a41.75,41.75,0,0,0,58.74,5.77l173.4-142.39A41.73,41.73,0,0,0,490.56,204L348.17,30.55A41.73,41.73,0,0,0,289.43,24.78Z"/><path class="cls-7" d="M315.7,316.13a29.35,29.35,0,0,1-41.37-3.48L205.6,231.29a29.35,29.35,0,0,1,3.48-41.37l81.35-68.73a29.36,29.36,0,0,1,41.37,3.48L400.53,206a29.34,29.34,0,0,1-3.48,41.37ZM291.41,28.66,118.62,171.59a41.71,41.71,0,0,0-5.55,58.72L256,403.1a41.72,41.72,0,0,0,58.73,5.56L487.51,265.73A41.71,41.71,0,0,0,493.06,207L350.14,34.22A41.72,41.72,0,0,0,291.41,28.66Z"/><path class="cls-8" d="M318.11,320.43a29.49,29.49,0,0,1-41.57-3.28L207.1,235.8a29.49,29.49,0,0,1,3.28-41.57l81.35-69.45a29.48,29.48,0,0,1,41.57,3.29l69.44,81.35A29.48,29.48,0,0,1,399.46,251ZM292.6,32.76,120.42,176.22a41.68,41.68,0,0,0-5.34,58.71L258.54,407.11a41.68,41.68,0,0,0,58.71,5.34L489.43,269a41.7,41.7,0,0,0,5.34-58.71L351.31,38.1A41.7,41.7,0,0,0,292.6,32.76Z"/><path class="cls-9" d="M319.77,324.93A29.6,29.6,0,0,1,278,321.84l-70.16-81.35a29.61,29.61,0,0,1,3.08-41.76l81.35-70.16A29.6,29.6,0,0,1,334,131.66L404.2,213a29.62,29.62,0,0,1-3.08,41.77ZM293,37.06l-171.57,144a41.67,41.67,0,0,0-5.13,58.7l144,171.56A41.65,41.65,0,0,0,319,416.44l171.57-144a41.67,41.67,0,0,0,5.13-58.7l-144-171.56A41.65,41.65,0,0,0,293,37.06Z"/><path class="cls-10" d="M320.72,329.6a29.74,29.74,0,0,1-42-2.88l-70.87-81.35a29.73,29.73,0,0,1,2.88-42l81.35-70.88a29.73,29.73,0,0,1,41.95,2.89L405,216.77a29.74,29.74,0,0,1-2.89,42Zm-28-288.07-171,144.53a41.64,41.64,0,0,0-4.91,58.68l144.53,171a41.64,41.64,0,0,0,58.68,4.91L491,276.08A41.65,41.65,0,0,0,496,217.4L351.43,46.45A41.65,41.65,0,0,0,292.75,41.53Z"/><path class="cls-11" d="M321,334.44a29.86,29.86,0,0,1-42.15-2.68l-71.59-81.34A29.86,29.86,0,0,1,210,208.27l81.33-71.59a29.87,29.87,0,0,1,42.16,2.69L405,220.7a29.87,29.87,0,0,1-2.69,42.15ZM291.8,46.18,121.46,191.24a41.61,41.61,0,0,0-4.7,58.66L261.82,420.25a41.63,41.63,0,0,0,58.67,4.7L490.83,279.88a41.61,41.61,0,0,0,4.7-58.66L350.46,50.88A41.6,41.6,0,0,0,291.8,46.18Z"/><path class="cls-12" d="M320.66,339.44A30,30,0,0,1,278.31,337L206,255.62a30,30,0,0,1,2.48-42.35L289.83,141a30,30,0,0,1,42.34,2.48l72.31,81.33A30,30,0,0,1,402,267.13ZM290.23,51,120.5,196.57A41.58,41.58,0,0,0,116,255.22L261.61,425a41.59,41.59,0,0,0,58.65,4.48L490,283.84a41.6,41.6,0,0,0,4.49-58.65L348.88,55.46A41.59,41.59,0,0,0,290.23,51Z"/><path class="cls-13" d="M319.73,344.57a30.13,30.13,0,0,1-42.54-2.29l-73-81.33a30.12,30.12,0,0,1,2.29-42.54l81.32-73a30.13,30.13,0,0,1,42.55,2.29l73,81.32a30.14,30.14,0,0,1-2.29,42.55ZM288.07,55.9,119,202a41.56,41.56,0,0,0-4.27,58.63L260.81,429.78a41.57,41.57,0,0,0,58.63,4.28L488.56,287.92a41.57,41.57,0,0,0,4.28-58.63L346.7,60.17A41.56,41.56,0,0,0,288.07,55.9Z"/><path class="cls-14" d="M318.26,349.81a30.25,30.25,0,0,1-42.74-2.09L201.79,266.4a30.25,30.25,0,0,1,2.09-42.74l81.32-73.73A30.25,30.25,0,0,1,327.94,152l73.73,81.32a30.25,30.25,0,0,1-2.09,42.74ZM285.37,60.94,116.86,207.61a41.56,41.56,0,0,0-4.06,58.62L259.47,434.74a41.55,41.55,0,0,0,58.62,4.06L486.6,292.13a41.55,41.55,0,0,0,4.06-58.62L344,65A41.56,41.56,0,0,0,285.37,60.94Z"/><path class="cls-15" d="M316.29,355.17a30.39,30.39,0,0,1-42.93-1.9L198.91,272A30.4,30.4,0,0,1,200.8,229l81.32-74.44a30.38,30.38,0,0,1,42.93,1.89l74.45,81.31a30.39,30.39,0,0,1-1.89,42.94ZM282.17,66.1,114.28,213.3a41.52,41.52,0,0,0-3.85,58.6l147.2,167.9a41.54,41.54,0,0,0,58.61,3.85L484.13,296.44a41.52,41.52,0,0,0,3.85-58.6L340.78,69.94A41.53,41.53,0,0,0,282.17,66.1Z"/><path class="cls-16" d="M313.87,360.61a30.53,30.53,0,0,1-43.13-1.69l-75.16-81.31a30.52,30.52,0,0,1,1.69-43.13l81.31-75.17a30.52,30.52,0,0,1,43.13,1.7l75.17,81.31a30.52,30.52,0,0,1-1.7,43.13ZM278.52,71.34,111.24,219.08a41.52,41.52,0,0,0-3.64,58.59L255.34,445a41.51,41.51,0,0,0,58.59,3.63L481.21,300.85a41.52,41.52,0,0,0,3.64-58.6L337.11,75A41.51,41.51,0,0,0,278.52,71.34Z"/><path class="cls-17" d="M311,366.13a30.65,30.65,0,0,1-43.32-1.5l-75.88-81.3a30.66,30.66,0,0,1,1.5-43.33l81.3-75.88a30.66,30.66,0,0,1,43.33,1.5l75.87,81.3a30.65,30.65,0,0,1-1.49,43.33ZM274.45,76.65,107.78,224.93a41.48,41.48,0,0,0-3.42,58.57L252.63,450.17a41.5,41.5,0,0,0,58.58,3.42L477.88,305.32a41.48,41.48,0,0,0,3.42-58.57L333,80.08A41.5,41.5,0,0,0,274.45,76.65Z"/><path class="cls-18" d="M307.83,371.7a30.8,30.8,0,0,1-43.53-1.29l-76.59-81.3a30.78,30.78,0,0,1,1.3-43.52l81.3-76.6a30.78,30.78,0,0,1,43.52,1.3l76.59,81.3a30.79,30.79,0,0,1-1.29,43.52ZM270,82,104,230.84a41.46,41.46,0,0,0-3.21,58.56L249.56,455.46a41.47,41.47,0,0,0,58.56,3.2l166.06-148.8a41.47,41.47,0,0,0,3.2-58.56L328.58,85.24A41.48,41.48,0,0,0,270,82Z"/><path class="cls-19" d="M304.29,377.32a30.93,30.93,0,0,1-43.72-1.09l-77.31-81.3a30.94,30.94,0,0,1,1.1-43.72l81.3-77.3a30.91,30.91,0,0,1,43.71,1.1l77.31,81.29a30.92,30.92,0,0,1-1.1,43.72Zm-39-289.87L99.8,236.79a41.46,41.46,0,0,0-3,58.55L246.15,460.78a41.45,41.45,0,0,0,58.55,3L470.14,314.44a41.45,41.45,0,0,0,3-58.55L323.8,90.45A41.45,41.45,0,0,0,265.25,87.45Z"/><path class="cls-20" d="M300.47,383a31.06,31.06,0,0,1-43.92-.9l-78-81.28a31.07,31.07,0,0,1,.9-43.92l81.29-78a31.06,31.06,0,0,1,43.91.9l78,81.29a31.07,31.07,0,0,1-.9,43.91ZM260.2,92.9,95.36,242.78a41.44,41.44,0,0,0-2.78,58.53L242.46,466.14A41.43,41.43,0,0,0,301,468.92L465.82,319.05a41.44,41.44,0,0,0,2.78-58.54L318.73,95.68A41.44,41.44,0,0,0,260.2,92.9Z"/><path class="cls-21" d="M296.4,388.64a31.2,31.2,0,0,1-44.11-.7l-78.74-81.29a31.2,31.2,0,0,1,.71-44.11l81.28-78.73a31.19,31.19,0,0,1,44.11.7l78.74,81.28a31.2,31.2,0,0,1-.71,44.11ZM254.9,98.36,90.68,248.77a41.42,41.42,0,0,0-2.57,58.52L238.52,471.51A41.42,41.42,0,0,0,297,474.08L461.26,323.67a41.42,41.42,0,0,0,2.57-58.52L313.42,100.93A41.42,41.42,0,0,0,254.9,98.36Z"/><path class="cls-22" d="M292.13,394.3a31.33,31.33,0,0,1-44.3-.5l-79.45-81.28a31.34,31.34,0,0,1,.5-44.31l81.28-79.45a31.32,31.32,0,0,1,44.3.51l79.45,81.27a31.34,31.34,0,0,1-.5,44.31ZM249.4,103.82l-163.61,151a41.4,41.4,0,0,0-2.35,58.5L234.38,476.88a41.41,41.41,0,0,0,58.51,2.36L456.5,328.29a41.4,41.4,0,0,0,2.35-58.5L307.91,106.18A41.41,41.41,0,0,0,249.4,103.82Z"/><path class="cls-23" d="M287.71,399.94a31.46,31.46,0,0,1-44.5-.3L163,318.37a31.47,31.47,0,0,1,.3-44.5l81.28-80.17a31.46,31.46,0,0,1,44.5.31l80.16,81.27a31.46,31.46,0,0,1-.3,44.5Zm-44-290.67-163,151.48a41.39,41.39,0,0,0-2.14,58.49l151.48,163a41.38,41.38,0,0,0,58.49,2.15l163-151.48a41.38,41.38,0,0,0,2.14-58.49l-151.47-163A41.39,41.39,0,0,0,243.75,109.27Z"/><path class="cls-24" d="M283.16,405.56a31.6,31.6,0,0,1-44.69-.11l-80.88-81.27a31.59,31.59,0,0,1,.1-44.69L239,198.61a31.59,31.59,0,0,1,44.69.1L364.54,280a31.61,31.61,0,0,1-.11,44.7ZM238,114.68,75.59,266.7a41.37,41.37,0,0,0-1.93,58.47l152,162.38a41.36,41.36,0,0,0,58.47,1.93l162.38-152A41.37,41.37,0,0,0,448.46,279l-152-162.38A41.38,41.38,0,0,0,238,114.68Z"/><path class="cls-25" d="M278.55,411.12a31.74,31.74,0,0,1-44.89.1L152.06,330a31.74,31.74,0,0,1-.09-44.89l81.26-81.59a31.73,31.73,0,0,1,44.89-.1l81.6,81.27a31.74,31.74,0,0,1,.09,44.89ZM232.13,120.05,70.36,272.6a41.35,41.35,0,0,0-1.72,58.46L221.19,492.83a41.36,41.36,0,0,0,58.46,1.71L441.42,342a41.35,41.35,0,0,0,1.72-58.46L290.59,121.76A41.35,41.35,0,0,0,232.13,120.05Z"/><path class="cls-26" d="M273.9,416.63a31.89,31.89,0,0,1-45.09.29L146.5,335.66a31.89,31.89,0,0,1-.29-45.09l81.26-82.31a31.87,31.87,0,0,1,45.08-.29l82.31,81.26a31.87,31.87,0,0,1,.3,45.08ZM226.25,125.35,65.09,278.43a41.35,41.35,0,0,0-1.5,58.45L216.67,498a41.35,41.35,0,0,0,58.45,1.5L436.28,346.46a41.35,41.35,0,0,0,1.5-58.45L284.7,126.85A41.35,41.35,0,0,0,226.25,125.35Z"/><path class="cls-27" d="M269.26,422.05a32,32,0,0,1-45.28.49l-83-81.25a32,32,0,0,1-.48-45.28l81.25-83a32,32,0,0,1,45.28-.49l83,81.25a32,32,0,0,1,.49,45.29ZM220.38,130.58,59.84,284.19a41.33,41.33,0,0,0-1.29,58.44L212.16,503.17a41.34,41.34,0,0,0,58.44,1.29L431.14,350.84a41.33,41.33,0,0,0,1.29-58.43L278.81,131.86A41.33,41.33,0,0,0,220.38,130.58Z"/><path class="cls-28" d="M264.68,427.39a32.17,32.17,0,0,1-45.48.68l-83.74-81.24a32.17,32.17,0,0,1-.69-45.48L216,217.61a32.16,32.16,0,0,1,45.48-.69l83.74,81.25a32.16,32.16,0,0,1,.69,45.47ZM214.57,135.71,54.64,289.86a41.32,41.32,0,0,0-1.08,58.42L207.71,508.21a41.32,41.32,0,0,0,58.42,1.08L426.06,355.13a41.31,41.31,0,0,0,1.08-58.41L273,136.78A41.31,41.31,0,0,0,214.57,135.71Z"/><path class="cls-29" d="M260.19,432.61a32.3,32.3,0,0,1-45.67.89l-84.46-81.24a32.31,32.31,0,0,1-.88-45.68l81.24-84.45a32.29,32.29,0,0,1,45.67-.89l84.46,81.24a32.3,32.3,0,0,1,.88,45.67ZM208.85,140.73,49.53,295.42a41.3,41.3,0,0,0-.86,58.4L203.36,513.14a41.29,41.29,0,0,0,58.4.87L421.08,359.32a41.29,41.29,0,0,0,.86-58.4L267.26,141.59A41.31,41.31,0,0,0,208.85,140.73Z"/><path class="cls-30" d="M255.84,437.71A32.44,32.44,0,0,1,210,438.8L124.8,357.56a32.45,32.45,0,0,1-1.08-45.87L205,226.52a32.43,32.43,0,0,1,45.86-1.08L336,306.67a32.44,32.44,0,0,1,1.09,45.87ZM203.27,145.63,44.56,300.85a41.29,41.29,0,0,0-.64,58.39L199.14,518a41.28,41.28,0,0,0,58.39.65l158.7-155.22a41.28,41.28,0,0,0,.65-58.39L261.66,146.28A41.3,41.3,0,0,0,203.27,145.63Z"/><path class="cls-31" d="M251.68,442.68A32.6,32.6,0,0,1,205.61,444l-85.88-81.23a32.58,32.58,0,0,1-1.29-46.06l81.23-85.89a32.59,32.59,0,0,1,46.07-1.28l85.88,81.23a32.58,32.58,0,0,1,1.29,46.06ZM197.88,150.4,39.78,306.15a41.28,41.28,0,0,0-.44,58.38L195.1,522.62a41.27,41.27,0,0,0,58.37.44L411.57,367.3a41.27,41.27,0,0,0,.44-58.37L256.25,150.83A41.27,41.27,0,0,0,197.88,150.4Z"/><path class="cls-32" d="M247.73,447.49A32.73,32.73,0,0,1,201.47,449l-86.6-81.23a32.73,32.73,0,0,1-1.48-46.26l81.23-86.6a32.72,32.72,0,0,1,46.25-1.48l86.61,81.23A32.72,32.72,0,0,1,329,360.88ZM192.7,155,35.22,311.3A41.26,41.26,0,0,0,35,369.66L191.29,527.14a41.26,41.26,0,0,0,58.36.22L407.13,371.07a41.26,41.26,0,0,0,.22-58.36L251.06,155.23A41.26,41.26,0,0,0,192.7,155Z"/><path class="cls-33" d="M244.05,452.13a32.87,32.87,0,0,1-46.45,1.68l-87.32-81.22a32.88,32.88,0,0,1-1.68-46.46l81.22-87.31a32.87,32.87,0,0,1,46.46-1.68l87.31,81.22a32.85,32.85,0,0,1,1.68,46.45ZM187.79,159.45,30.92,316.27a41.26,41.26,0,0,0,0,58.35L187.74,531.49a41.25,41.25,0,0,0,58.34,0L403,374.67a41.25,41.25,0,0,0,0-58.34L246.14,159.46A41.26,41.26,0,0,0,187.79,159.45Z"/><path class="cls-34" d="M240.69,456.58A33,33,0,0,1,194,458.46l-88-81.21a33,33,0,0,1-1.87-46.65l81.21-88A33,33,0,0,1,232,240.69l88,81.21a33,33,0,0,1,1.88,46.65ZM183.19,163.7,26.94,321.06a41.24,41.24,0,0,0,.2,58.33L184.5,535.65a41.25,41.25,0,0,0,58.33-.2L399.09,378.09a41.25,41.25,0,0,0-.2-58.33L241.53,163.5A41.26,41.26,0,0,0,183.19,163.7Z"/><path class="cls-35" d="M237.67,460.84a33.17,33.17,0,0,1-46.85,2.08l-88.74-81.21A33.16,33.16,0,0,1,100,334.86l81.21-88.74A33.15,33.15,0,0,1,228.05,244l88.75,81.21a33.16,33.16,0,0,1,2.08,46.85ZM179,167.76,23.3,325.65A41.24,41.24,0,0,0,23.72,384L181.61,539.62a41.24,41.24,0,0,0,58.32-.42L395.57,381.31a41.24,41.24,0,0,0-.41-58.32L237.26,167.34A41.23,41.23,0,0,0,179,167.76Z"/><path class="cls-36" d="M235,464.88a33.3,33.3,0,0,1-47,2.28L98.54,386a33.31,33.31,0,0,1-2.28-47l81.21-89.46a33.31,33.31,0,0,1,47-2.27L314,328.38a33.29,33.29,0,0,1,2.27,47ZM175.09,171.6,20.06,330a41.22,41.22,0,0,0,.63,58.3l158.43,155a41.23,41.23,0,0,0,58.3-.63l155-158.43a41.22,41.22,0,0,0-.63-58.3L233.39,171A41.23,41.23,0,0,0,175.09,171.6Z"/><path class="cls-37" d="M232.85,468.7a33.46,33.46,0,0,1-47.24,2.47L95.44,390A33.44,33.44,0,0,1,93,342.74l81.19-90.18a33.45,33.45,0,0,1,47.24-2.47l90.18,81.2a33.45,33.45,0,0,1,2.47,47.23ZM171.67,175.21l-154.42,159a41.22,41.22,0,0,0,.84,58.29l159,154.42a41.21,41.21,0,0,0,58.28-.85l154.43-159a41.22,41.22,0,0,0-.85-58.29L230,174.37A41.23,41.23,0,0,0,171.67,175.21Z"/><path class="cls-38" d="M231.14,472.27a33.6,33.6,0,0,1-47.43,2.67L92.82,393.75a33.6,33.6,0,0,1-2.67-47.44l81.19-90.89a33.6,33.6,0,0,1,47.43-2.67l90.89,81.19a33.6,33.6,0,0,1,2.67,47.44ZM168.73,178.58,14.92,338.08A41.2,41.2,0,0,0,16,396.35l159.5,153.81a41.21,41.21,0,0,0,58.27-1l153.81-159.5a41.21,41.21,0,0,0-1.06-58.28L227,177.52A41.22,41.22,0,0,0,168.73,178.58Z"/><path class="cls-39" d="M230,475.57a33.74,33.74,0,0,1-47.63,2.87l-91.6-81.18a33.74,33.74,0,0,1-2.87-47.63L169,258a33.74,33.74,0,0,1,47.63-2.88l91.61,81.19A33.75,33.75,0,0,1,311.14,384ZM166.31,181.69l-153.2,160A41.21,41.21,0,0,0,14.38,400l160,153.2a41.19,41.19,0,0,0,58.25-1.27l153.2-160a41.2,41.2,0,0,0-1.27-58.26l-160-153.2A41.2,41.2,0,0,0,166.31,181.69Z"/><path class="cls-40" d="M229.32,478.61a33.89,33.89,0,0,1-47.82,3.07L89.18,400.49a33.88,33.88,0,0,1-3.07-47.82l81.18-92.32a33.9,33.9,0,0,1,47.83-3.07l92.32,81.18a33.9,33.9,0,0,1,3.07,47.83ZM164.45,184.52,11.87,345.09a41.19,41.19,0,0,0,1.48,58.24L173.92,555.92a41.19,41.19,0,0,0,58.24-1.49L384.75,393.87a41.2,41.2,0,0,0-1.49-58.25L222.7,183A41.2,41.2,0,0,0,164.45,184.52Z"/><path class="cls-41" d="M229.3,481.35a34,34,0,0,1-48,3.27l-93-81.18a34,34,0,0,1-3.27-48l81.18-93a34,34,0,0,1,48-3.27l93,81.18a34,34,0,0,1,3.27,48ZM163.2,187.06l-152,161.11a41.19,41.19,0,0,0,1.7,58.23l161.1,152a41.19,41.19,0,0,0,58.23-1.7l152-161.1a41.19,41.19,0,0,0-1.7-58.23l-161.1-152A41.2,41.2,0,0,0,163.2,187.06Z"/><path class="cls-42" d="M229.93,483.79a34.18,34.18,0,0,1-48.22,3.46L88,406.08a34.17,34.17,0,0,1-3.47-48.21l81.17-93.75a34.17,34.17,0,0,1,48.21-3.47l93.75,81.17A34.19,34.19,0,0,1,311.1,390ZM162.6,189.3,11.24,350.94a41.18,41.18,0,0,0,1.91,58.21L174.78,560.51A41.18,41.18,0,0,0,233,558.6L384.36,397a41.19,41.19,0,0,0-1.91-58.22L220.81,187.39A41.18,41.18,0,0,0,162.6,189.3Z"/><path class="cls-43" d="M231.25,485.9a34.34,34.34,0,0,1-48.41,3.67L88.37,408.4A34.33,34.33,0,0,1,84.71,360l81.16-94.46a34.33,34.33,0,0,1,48.41-3.67L308.75,343a34.32,34.32,0,0,1,3.66,48.41ZM162.69,191.22,11.94,353.39a41.17,41.17,0,0,0,2.12,58.2L176.23,562.34a41.18,41.18,0,0,0,58.2-2.13L385.18,398a41.17,41.17,0,0,0-2.12-58.2L220.89,189.09A41.18,41.18,0,0,0,162.69,191.22Z"/><path class="cls-44" d="M233.3,487.68a34.48,34.48,0,0,1-48.61,3.86L89.51,410.38a34.46,34.46,0,0,1-3.86-48.6l81.16-95.18a34.48,34.48,0,0,1,48.61-3.86l95.17,81.16a34.47,34.47,0,0,1,3.87,48.6ZM163.51,192.79,13.37,355.5a41.19,41.19,0,0,0,2.34,58.19l162.7,150.13a41.18,41.18,0,0,0,58.19-2.34l150.14-162.7a41.19,41.19,0,0,0-2.34-58.19L221.69,190.46A41.17,41.17,0,0,0,163.51,192.79Z"/><path class="cls-45" d="M236.12,489.11a34.63,34.63,0,0,1-48.8,4.06L91.43,412a34.62,34.62,0,0,1-4.06-48.8l81.15-95.89a34.62,34.62,0,0,1,48.8-4.06l95.9,81.15a34.64,34.64,0,0,1,4.06,48.8ZM165.1,194,15.58,357.26a41.17,41.17,0,0,0,2.55,58.17L181.37,565a41.18,41.18,0,0,0,58.17-2.55L389.07,399.17A41.18,41.18,0,0,0,386.51,341L223.28,191.47A41.18,41.18,0,0,0,165.1,194Z"/><path class="cls-46" d="M239.77,490.17a34.78,34.78,0,0,1-49,4.26L94.16,413.28a34.79,34.79,0,0,1-4.26-49l81.15-96.6a34.78,34.78,0,0,1,49-4.27l96.61,81.15a34.79,34.79,0,0,1,4.26,49ZM167.52,194.88,18.61,358.66a41.16,41.16,0,0,0,2.76,58.15L185.14,565.73A41.18,41.18,0,0,0,243.3,563L392.21,399.19A41.17,41.17,0,0,0,389.45,341L225.68,192.12A41.17,41.17,0,0,0,167.52,194.88Z"/><path class="cls-47" d="M244.27,490.85a34.93,34.93,0,0,1-49.19,4.46L97.76,414.16A34.92,34.92,0,0,1,93.3,365l81.14-97.32a34.93,34.93,0,0,1,49.2-4.46L321,344.33a34.94,34.94,0,0,1,4.46,49.2ZM170.79,195.36,22.49,359.67a41.16,41.16,0,0,0,3,58.14l164.31,148.3a41.16,41.16,0,0,0,58.14-3l148.3-164.31a41.17,41.17,0,0,0-3-58.15l-164.3-148.3A41.18,41.18,0,0,0,170.79,195.36Z"/><path class="cls-48" d="M249.68,491.13a35.08,35.08,0,0,1-49.39,4.66l-98-81.14a35.08,35.08,0,0,1-4.66-49.39l81.14-98a35.06,35.06,0,0,1,49.38-4.65l98,81.14a35.07,35.07,0,0,1,4.66,49.38ZM175,195.44,27.28,360.29a41.17,41.17,0,0,0,3.19,58.13L195.32,566.1a41.17,41.17,0,0,0,58.13-3.19L401.13,398.07a41.16,41.16,0,0,0-3.19-58.13L233.1,192.25A41.17,41.17,0,0,0,175,195.44Z"/><path class="cls-49" d="M256,491a35.23,35.23,0,0,1-49.58,4.86L107.7,414.72a35.23,35.23,0,0,1-4.86-49.58L184,266.39a35.22,35.22,0,0,1,49.58-4.86l98.75,81.14a35.22,35.22,0,0,1,4.86,49.58ZM180.09,195.11,33,360.49a41.18,41.18,0,0,0,3.4,58.12L201.8,565.68a41.18,41.18,0,0,0,58.12-3.4L407,396.9a41.18,41.18,0,0,0-3.4-58.12L238.21,191.71A41.18,41.18,0,0,0,180.09,195.11Z"/><path class="cls-50" d="M263.38,490.44a35.38,35.38,0,0,1-49.78,5.06l-99.47-81.13a35.38,35.38,0,0,1-5.06-49.78l81.13-99.47A35.38,35.38,0,0,1,240,260.07l99.47,81.13A35.38,35.38,0,0,1,344.5,391ZM186.21,194.36,39.74,360.27a41.17,41.17,0,0,0,3.62,58.1L209.27,564.83a41.15,41.15,0,0,0,58.1-3.62L413.84,395.3a41.17,41.17,0,0,0-3.62-58.1L244.31,190.74A41.15,41.15,0,0,0,186.21,194.36Z"/><path class="cls-51" d="M271.75,489.44a35.53,35.53,0,0,1-50,5.26L121.59,413.57a35.53,35.53,0,0,1-5.25-50l81.12-100.18a35.54,35.54,0,0,1,50-5.26l100.18,81.13a35.53,35.53,0,0,1,5.25,50Zm-78.4-296.28L47.5,359.6a41.17,41.17,0,0,0,3.83,58.09L217.78,563.54a41.16,41.16,0,0,0,58.08-3.83L421.71,393.26a41.17,41.17,0,0,0-3.83-58.09L251.43,189.32A41.16,41.16,0,0,0,193.35,193.16Z"/><path class="cls-52" d="M281.19,488A35.68,35.68,0,0,1,231,493.44L130.13,412.32a35.68,35.68,0,0,1-5.46-50.17l81.12-100.9A35.68,35.68,0,0,1,256,255.8l100.9,81.12a35.68,35.68,0,0,1,5.45,50.17ZM201.56,191.5l-145.24,167a41.17,41.17,0,0,0,4,58.07l167,145.24a41.15,41.15,0,0,0,58.07-4l145.24-167a41.15,41.15,0,0,0-4.05-58.07l-167-145.24A41.15,41.15,0,0,0,201.56,191.5Z"/><path class="cls-53" d="M291.75,486.06a35.85,35.85,0,0,1-50.36,5.65L139.78,410.59a35.84,35.84,0,0,1-5.66-50.36l81.12-101.61A35.83,35.83,0,0,1,265.6,253l101.61,81.11a35.84,35.84,0,0,1,5.66,50.36ZM210.89,189.37,66.27,356.88a41.17,41.17,0,0,0,4.25,58.06L238,559.56a41.17,41.17,0,0,0,58.06-4.25L440.72,387.79a41.17,41.17,0,0,0-4.25-58.06L269,185.11A41.16,41.16,0,0,0,210.89,189.37Z"/><path class="cls-54" d="M303.66,483.67a36,36,0,0,1-50.56,5.85L150.77,408.41a36,36,0,0,1-5.84-50.56L226,255.52a36,36,0,0,1,50.57-5.85l102.32,81.11a36,36,0,0,1,5.85,50.56ZM221.57,186.78l-144,168a41.17,41.17,0,0,0,4.47,58l168.05,144a41.15,41.15,0,0,0,58-4.47l144-168a41.17,41.17,0,0,0-4.47-58l-168-144A41.17,41.17,0,0,0,221.57,186.78Z"/><path class="cls-55" d="M315.44,481.52a36.15,36.15,0,0,1-50.76,6l-103-81.1a36.14,36.14,0,0,1-6-50.76l81.1-103a36.15,36.15,0,0,1,50.76-6l103,81.1a36.15,36.15,0,0,1,6.05,50.76ZM232.12,184.43,88.71,353a41.17,41.17,0,0,0,4.69,58L262,554.44a41.17,41.17,0,0,0,58-4.69l143.4-168.58a41.17,41.17,0,0,0-4.68-58L290.14,179.74A41.16,41.16,0,0,0,232.12,184.43Z"/><path class="cls-56" d="M326.58,479.75A36.29,36.29,0,0,1,275.63,486L171.87,404.9a36.31,36.31,0,0,1-6.24-51l81.09-103.75a36.31,36.31,0,0,1,51-6.25L401.43,325A36.3,36.3,0,0,1,407.68,376ZM242,182.46,99.24,351.58a41.17,41.17,0,0,0,4.9,58L273.26,552.38a41.16,41.16,0,0,0,58-4.9L474.06,378.36a41.16,41.16,0,0,0-4.9-58L300,177.56A41.16,41.16,0,0,0,242,182.46Z"/><path class="cls-57" d="M337.11,478.35A36.45,36.45,0,0,1,286,484.8L181.49,403.7a36.44,36.44,0,0,1-6.44-51.14l81.09-104.47a36.45,36.45,0,0,1,51.15-6.45l104.47,81.09a36.45,36.45,0,0,1,6.44,51.15ZM251.33,180.86,109.15,350.51a41.17,41.17,0,0,0,5.12,58L283.92,550.69a41.18,41.18,0,0,0,58-5.11L484.09,375.92a41.15,41.15,0,0,0-5.11-58L309.33,175.75A41.16,41.16,0,0,0,251.33,180.86Z"/><path class="cls-58" d="M347,477.32A36.62,36.62,0,0,1,295.69,484L190.51,402.87a36.6,36.6,0,0,1-6.65-51.34L265,246.34a36.61,36.61,0,0,1,51.34-6.64l105.19,81.09a36.6,36.6,0,0,1,6.64,51.34Zm-87-297.7L118.46,349.81a41.18,41.18,0,0,0,5.33,58L294,549.36A41.17,41.17,0,0,0,352,544L493.52,373.85a41.17,41.17,0,0,0-5.32-58L318,174.3A41.17,41.17,0,0,0,260,179.62Z"/><path class="cls-59" d="M356.37,476.63a36.77,36.77,0,0,1-51.54,6.84l-105.9-81.08a36.77,36.77,0,0,1-6.84-51.54L273.17,245a36.76,36.76,0,0,1,51.54-6.84l105.9,81.08a36.77,36.77,0,0,1,6.84,51.54Zm-88.24-297.9L127.18,349.46a41.17,41.17,0,0,0,5.54,58l170.72,141a41.17,41.17,0,0,0,58-5.54l141-170.72a41.17,41.17,0,0,0-5.54-58L326.1,173.2A41.18,41.18,0,0,0,268.13,178.73Z"/><path class="cls-60" d="M365.12,476.27a36.91,36.91,0,0,1-51.73,7L206.77,402.24a36.93,36.93,0,0,1-7-51.74l81.08-106.61a36.92,36.92,0,0,1,51.73-7l106.62,81.07a36.93,36.93,0,0,1,7,51.74ZM275.65,178.18,135.31,349.44a41.18,41.18,0,0,0,5.75,57.95L312.32,547.73a41.19,41.19,0,0,0,58-5.75L510.62,370.72a41.17,41.17,0,0,0-5.76-58L333.61,172.43A41.19,41.19,0,0,0,275.65,178.18Z"/><path class="cls-61" d="M373.3,476.25a37.07,37.07,0,0,1-51.93,7.23L214,402.41a37.08,37.08,0,0,1-7.24-51.93l81.07-107.33a37.08,37.08,0,0,1,51.93-7.24L447.13,317a37.09,37.09,0,0,1,7.24,51.94ZM282.6,178,142.88,349.74a41.18,41.18,0,0,0,6,57.94L320.63,547.41a41.19,41.19,0,0,0,57.94-6L518.3,369.66a41.21,41.21,0,0,0-6-58L340.54,172A41.18,41.18,0,0,0,282.6,178Z"/><path class="cls-62" d="M380.93,476.53A37.24,37.24,0,0,1,328.8,484l-108-81.07a37.24,37.24,0,0,1-7.44-52.13l81.06-108a37.24,37.24,0,0,1,52.13-7.44l108,81.07A37.22,37.22,0,0,1,462,368.48ZM289,178,149.88,350.36a41.2,41.2,0,0,0,6.18,57.93L328.39,547.4a41.18,41.18,0,0,0,57.92-6.18L525.43,368.9A41.2,41.2,0,0,0,519.25,311L346.92,171.86A41.19,41.19,0,0,0,289,178Z"/><path class="cls-63" d="M388,477.11a37.38,37.38,0,0,1-52.32,7.64L226.92,403.69a37.38,37.38,0,0,1-7.63-52.32l81.06-108.76A37.38,37.38,0,0,1,352.67,235L461.43,316a37.39,37.39,0,0,1,7.63,52.32ZM294.84,178.42,156.34,351.28a41.19,41.19,0,0,0,6.39,57.91l172.86,138.5a41.19,41.19,0,0,0,57.91-6.39L532,368.44a41.21,41.21,0,0,0-6.39-57.91L352.75,172A41.19,41.19,0,0,0,294.84,178.42Z"/><path class="cls-64" d="M394.54,478A37.53,37.53,0,0,1,342,485.82L232.55,404.76a37.54,37.54,0,0,1-7.83-52.51l81-109.48a37.55,37.55,0,0,1,52.52-7.83L467.76,316a37.55,37.55,0,0,1,7.84,52.52ZM300.15,179.09,162.26,352.48a41.21,41.21,0,0,0,6.61,57.9L342.26,548.27a41.2,41.2,0,0,0,57.9-6.6l137.89-173.4a41.2,41.2,0,0,0-6.6-57.9L358.05,172.48A41.22,41.22,0,0,0,300.15,179.09Z"/><path class="cls-65" d="M400.56,479.13a37.69,37.69,0,0,1-52.71,8L237.66,406.11a37.7,37.7,0,0,1-8-52.71l81.05-110.19a37.71,37.71,0,0,1,52.72-8l110.19,81.05a37.7,37.7,0,0,1,8,52.71ZM304.94,180,167.66,354a41.21,41.21,0,0,0,6.82,57.88L348.41,549.13a41.21,41.21,0,0,0,57.88-6.82L543.57,368.38a41.21,41.21,0,0,0-6.82-57.88L362.82,173.22A41.22,41.22,0,0,0,304.94,180Z"/><path class="cls-66" d="M406.06,480.54a37.85,37.85,0,0,1-52.91,8.23l-110.9-81A37.86,37.86,0,0,1,234,354.82l81-110.9A37.86,37.86,0,0,1,368,235.69l110.91,81a37.87,37.87,0,0,1,8.23,52.91ZM309.21,181.25,172.55,355.71a41.22,41.22,0,0,0,7,57.87L354,550.25a41.22,41.22,0,0,0,57.87-7L548.58,368.75a41.22,41.22,0,0,0-7-57.87L367.08,174.22A41.21,41.21,0,0,0,309.21,181.25Z"/><path class="cls-67" d="M411.07,482.21A38,38,0,0,1,358,490.64l-111.62-81a38,38,0,0,1-8.43-53.11l81-111.61a38,38,0,0,1,53.11-8.43l111.61,81a38,38,0,0,1,8.43,53.11ZM313,182.71l-136.06,175a41.23,41.23,0,0,0,7.25,57.85l175,136.06A41.23,41.23,0,0,0,417,544.37l136.05-175a41.22,41.22,0,0,0-7.24-57.85l-175-136A41.21,41.21,0,0,0,313,182.71Z"/><path class="cls-68" d="M415.58,484.11a38.19,38.19,0,0,1-53.3,8.63l-112.34-81a38.18,38.18,0,0,1-8.62-53.3l81-112.34a38.19,38.19,0,0,1,53.3-8.63l112.33,81a38.18,38.18,0,0,1,8.63,53.3Zm-99.31-299.7L180.83,360a41.23,41.23,0,0,0,7.46,57.84L363.82,553.23a41.24,41.24,0,0,0,57.84-7.46L557.1,370.24a41.24,41.24,0,0,0-7.46-57.84L374.11,177A41.23,41.23,0,0,0,316.27,184.41Z"/><path class="cls-69" d="M419.61,486.24a38.34,38.34,0,0,1-53.49,8.83l-113-81a38.34,38.34,0,0,1-8.83-53.49l81-113a38.34,38.34,0,0,1,53.49-8.83l113.05,81a38.34,38.34,0,0,1,8.83,53.49ZM319.07,186.34,184.24,362.41a41.26,41.26,0,0,0,7.67,57.83L368,555.07a41.26,41.26,0,0,0,57.83-7.67L560.64,371.33A41.26,41.26,0,0,0,553,313.5L376.9,178.67A41.26,41.26,0,0,0,319.07,186.34Z"/><path class="cls-70" d="M423.18,488.59a38.5,38.5,0,0,1-53.69,9l-113.76-81a38.5,38.5,0,0,1-9-53.69l81-113.76a38.49,38.49,0,0,1,53.69-9l113.77,81a38.51,38.51,0,0,1,9,53.69ZM321.41,188.49,187.19,365.1a41.26,41.26,0,0,0,7.89,57.81l176.6,134.21a41.25,41.25,0,0,0,57.81-7.88l134.22-176.6a41.26,41.26,0,0,0-7.89-57.81L379.22,180.61A41.25,41.25,0,0,0,321.41,188.49Z"/><path class="cls-71" d="M426.29,491.14a38.66,38.66,0,0,1-53.89,9.23l-114.47-81a38.66,38.66,0,0,1-9.23-53.89l81-114.47a38.66,38.66,0,0,1,53.89-9.23l114.47,81a38.66,38.66,0,0,1,9.23,53.89Zm-103-300.3L189.69,368a41.27,41.27,0,0,0,8.09,57.8l177.14,133.6a41.27,41.27,0,0,0,57.8-8.09l133.6-177.14a41.27,41.27,0,0,0-8.09-57.8L381.09,182.75A41.27,41.27,0,0,0,323.29,190.84Z"/><path class="cls-72" d="M429,493.89a38.81,38.81,0,0,1-54.08,9.42l-115.2-81a38.82,38.82,0,0,1-9.42-54.08l81-115.19a38.82,38.82,0,0,1,54.08-9.43l115.2,81A38.84,38.84,0,0,1,510,378.7ZM324.73,193.39l-133,177.67a41.28,41.28,0,0,0,8.31,57.78l177.67,133a41.27,41.27,0,0,0,57.78-8.32l133-177.67a41.28,41.28,0,0,0-8.31-57.78l-177.67-133A41.28,41.28,0,0,0,324.73,193.39Z"/><path class="cls-73" d="M431.19,496.81a39,39,0,0,1-54.28,9.63l-115.9-81a39,39,0,0,1-9.62-54.28l81-115.91a39,39,0,0,1,54.28-9.62l115.91,81a39,39,0,0,1,9.62,54.28ZM325.73,196.11,193.35,374.32a41.3,41.3,0,0,0,8.53,57.77l178.2,132.38a41.29,41.29,0,0,0,57.77-8.53l132.38-178.2A41.3,41.3,0,0,0,561.71,320L383.5,187.59A41.3,41.3,0,0,0,325.73,196.11Z"/><path class="cls-74" d="M433,499.91a39.14,39.14,0,0,1-54.47,9.82l-116.62-81a39.15,39.15,0,0,1-9.82-54.48l81-116.62a39.14,39.14,0,0,1,54.47-9.82l116.63,81A39.15,39.15,0,0,1,514,383.29ZM326.32,199,194.55,377.75a41.3,41.3,0,0,0,8.74,57.75L382,567.27a41.3,41.3,0,0,0,57.75-8.74L571.55,379.79A41.3,41.3,0,0,0,562.81,322L384.07,190.27A41.3,41.3,0,0,0,326.32,199Z"/><path class="cls-75" d="M434.41,503.16a39.31,39.31,0,0,1-54.67,10l-117.34-81a39.3,39.3,0,0,1-10-54.67l81-117.34a39.3,39.3,0,0,1,54.67-10l117.34,81a39.3,39.3,0,0,1,10,54.67ZM326.49,202.06,195.33,381.33a41.32,41.32,0,0,0,9,57.74L383.56,570.23a41.32,41.32,0,0,0,57.74-9L572.45,382a41.31,41.31,0,0,0-9-57.74L384.23,193.11A41.31,41.31,0,0,0,326.49,202.06Z"/><path class="cls-76" d="M435.41,506.55a39.46,39.46,0,0,1-54.86,10.22l-118-81a39.46,39.46,0,0,1-10.22-54.86l81-118.06a39.47,39.47,0,0,1,54.87-10.21l118.05,81A39.46,39.46,0,0,1,516.4,388.5ZM326.26,205.25,195.72,385.06a41.34,41.34,0,0,0,9.17,57.73L384.7,573.33a41.32,41.32,0,0,0,57.72-9.17L573,384.35a41.32,41.32,0,0,0-9.16-57.72L384,196.09A41.33,41.33,0,0,0,326.26,205.25Z"/><path class="cls-77" d="M436,510.08A39.62,39.62,0,0,1,381,520.49l-118.77-81a39.62,39.62,0,0,1-10.41-55.06l81-118.77a39.61,39.61,0,0,1,55.05-10.41l118.77,81A39.63,39.63,0,0,1,517,391.31ZM325.65,208.58,195.72,388.92a41.34,41.34,0,0,0,9.38,57.71L385.44,576.56a41.34,41.34,0,0,0,57.71-9.37L573.08,386.84a41.34,41.34,0,0,0-9.37-57.71L383.36,199.2A41.34,41.34,0,0,0,325.65,208.58Z"/><path class="cls-78" d="M436.27,513.73A39.77,39.77,0,0,1,381,524.34l-119.48-81a39.79,39.79,0,0,1-10.62-55.25l81-119.49A39.8,39.8,0,0,1,387.16,258l119.48,81a39.79,39.79,0,0,1,10.61,55.26ZM324.66,212,195.35,392.9a41.35,41.35,0,0,0,9.59,57.7L385.82,579.92a41.35,41.35,0,0,0,57.69-9.59L572.83,389.45a41.37,41.37,0,0,0-9.59-57.7L382.36,202.44A41.35,41.35,0,0,0,324.66,212Z"/><path class="cls-79" d="M436.15,517.48A40,40,0,0,1,380.7,528.3l-120.2-81a40,40,0,0,1-10.81-55.45l81-120.2a40,40,0,0,1,55.45-10.81l120.19,81a40,40,0,0,1,10.82,55.45ZM323.31,215.58,194.61,397a41.38,41.38,0,0,0,9.8,57.68l181.41,128.7a41.39,41.39,0,0,0,57.69-9.8l128.7-181.42a41.38,41.38,0,0,0-9.8-57.68L381,205.78A41.38,41.38,0,0,0,323.31,215.58Z"/><path class="cls-80" d="M435.68,521.34a40.13,40.13,0,0,1-55.65,11l-120.91-81a40.11,40.11,0,0,1-11-55.65l81-120.91a40.1,40.1,0,0,1,55.64-11l120.92,81a40.12,40.12,0,0,1,11,55.65ZM321.61,219.23l-128.1,182a41.4,41.4,0,0,0,10,57.67l182,128.09a41.39,41.39,0,0,0,57.67-10L571.24,395a41.39,41.39,0,0,0-10-57.67l-182-128.09A41.38,41.38,0,0,0,321.61,219.23Z"/><path class="cls-81" d="M434.86,525.27A40.27,40.27,0,0,1,379,536.48l-121.63-81a40.28,40.28,0,0,1-11.21-55.84l81-121.63A40.28,40.28,0,0,1,383,266.84l121.63,81a40.27,40.27,0,0,1,11.2,55.84ZM319.56,223,192.08,405.45a41.41,41.41,0,0,0,10.23,57.65L384.79,590.59a41.42,41.42,0,0,0,57.66-10.23L569.93,397.87a41.41,41.41,0,0,0-10.23-57.65L377.21,212.74A41.39,41.39,0,0,0,319.56,223Z"/><path class="cls-82" d="M433.71,529.28a40.42,40.42,0,0,1-56,11.41l-122.34-81a40.42,40.42,0,0,1-11.41-56l81-122.35a40.43,40.43,0,0,1,56-11.4l122.35,81a40.43,40.43,0,0,1,11.4,56ZM317.19,226.78l-126.87,183a41.4,41.4,0,0,0,10.44,57.63l183,126.87a41.43,41.43,0,0,0,57.64-10.44l126.86-183a41.42,41.42,0,0,0-10.44-57.64l-183-126.86A41.4,41.4,0,0,0,317.19,226.78Z"/><path class="cls-83" d="M432.25,533.35A40.6,40.6,0,0,1,376,545L253,464a40.6,40.6,0,0,1-11.6-56.24l80.95-123a40.6,40.6,0,0,1,56.23-11.61l123.06,81a40.59,40.59,0,0,1,11.6,56.23ZM314.49,230.65,188.23,414.2a41.45,41.45,0,0,0,10.66,57.62L382.44,598.08a41.44,41.44,0,0,0,57.63-10.66L566.32,403.87a41.44,41.44,0,0,0-10.65-57.62L372.11,220A41.43,41.43,0,0,0,314.49,230.65Z"/><path class="cls-84" d="M430.48,537.47a40.76,40.76,0,0,1-56.43,11.81L250.28,468.33a40.76,40.76,0,0,1-11.8-56.43l80.94-123.77a40.76,40.76,0,0,1,56.43-11.8l123.77,80.94a40.77,40.77,0,0,1,11.81,56.43Zm-119-302.9L185.85,418.65a41.45,41.45,0,0,0,10.87,57.61L380.8,601.91A41.46,41.46,0,0,0,438.41,591L564.05,407a41.45,41.45,0,0,0-10.87-57.61L369.1,223.7A41.45,41.45,0,0,0,311.49,234.57Z"/><path class="cls-85" d="M428.41,541.63a40.93,40.93,0,0,1-56.62,12L247.3,472.69a40.93,40.93,0,0,1-12-56.62l80.94-124.49a40.94,40.94,0,0,1,56.63-12l124.48,80.94a40.93,40.93,0,0,1,12,56.62ZM308.19,238.52l-125,184.62a41.49,41.49,0,0,0,11.08,57.6l184.63,125a41.47,41.47,0,0,0,57.59-11.08l125-184.63a41.47,41.47,0,0,0-11.08-57.59l-184.62-125A41.49,41.49,0,0,0,308.19,238.52Z"/><path class="cls-86" d="M426.06,545.81A41.09,41.09,0,0,1,369.24,558L244,477.07a41.09,41.09,0,0,1-12.2-56.82l80.94-125.2a41.1,41.1,0,0,1,56.82-12.2l125.2,80.94A41.1,41.1,0,0,1,507,420.61ZM304.61,242.5,180.19,427.66a41.49,41.49,0,0,0,11.3,57.58L376.64,609.66a41.49,41.49,0,0,0,57.58-11.3L558.64,413.2a41.48,41.48,0,0,0-11.29-57.57L362.19,231.21A41.49,41.49,0,0,0,304.61,242.5Z"/><path class="cls-87" d="M423.44,550a41.26,41.26,0,0,1-57,12.4L240.51,481.47a41.25,41.25,0,0,1-12.4-57L309,298.54a41.25,41.25,0,0,1,57-12.4L492,367.07a41.26,41.26,0,0,1,12.4,57ZM300.76,246.5,177,432.19a41.51,41.51,0,0,0,11.51,57.56L374.15,613.56a41.52,41.52,0,0,0,57.57-11.51l123.8-185.69A41.51,41.51,0,0,0,544,358.79L358.32,235A41.5,41.5,0,0,0,300.76,246.5Z"/><path class="cls-88" d="M420.55,554.2a41.44,41.44,0,0,1-57.21,12.6L236.71,485.87a41.42,41.42,0,0,1-12.6-57.21L305,302a41.42,41.42,0,0,1,57.21-12.6l126.63,80.93a41.42,41.42,0,0,1,12.6,57.21ZM296.64,250.49,173.45,436.71a41.54,41.54,0,0,0,11.72,57.56L371.4,617.46A41.54,41.54,0,0,0,429,605.74L552.14,419.51A41.52,41.52,0,0,0,540.42,362L354.19,238.77A41.52,41.52,0,0,0,296.64,250.49Z"/><path class="cls-89" d="M417.41,558.38a41.58,41.58,0,0,1-57.4,12.8L232.66,490.26a41.59,41.59,0,0,1-12.79-57.41L300.79,305.5a41.59,41.59,0,0,1,57.4-12.79l127.35,80.92A41.61,41.61,0,0,1,498.34,431ZM292.28,254.47,169.69,441.23a41.56,41.56,0,0,0,11.94,57.54L368.39,621.35a41.55,41.55,0,0,0,57.54-11.94L548.51,422.65a41.54,41.54,0,0,0-11.94-57.53L349.81,242.54A41.54,41.54,0,0,0,292.28,254.47Z"/><path class="cls-90" d="M414,562.54a41.77,41.77,0,0,1-57.6,13L228.38,494.62a41.76,41.76,0,0,1-13-57.6L296.3,309a41.76,41.76,0,0,1,57.6-13L482,376.88a41.76,41.76,0,0,1,13,57.6ZM287.67,258.43l-122,187.3a41.57,41.57,0,0,0,12.15,57.52l187.3,122a41.57,41.57,0,0,0,57.52-12.15l122-187.3a41.57,41.57,0,0,0-12.15-57.52l-187.3-122A41.57,41.57,0,0,0,287.67,258.43Z"/><path class="cls-91" d="M410.44,566.66a41.92,41.92,0,0,1-57.8,13.2L223.87,499a41.92,41.92,0,0,1-13.19-57.8l80.91-128.77a41.91,41.91,0,0,1,57.79-13.2l128.78,80.91a41.92,41.92,0,0,1,13.19,57.8Zm-127.6-304.3L161.48,450.18a41.6,41.6,0,0,0,12.37,57.51L361.68,629.05a41.58,41.58,0,0,0,57.5-12.36L540.54,428.86a41.6,41.6,0,0,0-12.36-57.51L340.35,250A41.6,41.6,0,0,0,282.84,262.36Z"/><path class="cls-92" d="M406.62,570.74a42.08,42.08,0,0,1-58,13.39l-129.49-80.9a42.08,42.08,0,0,1-13.39-58l80.9-129.49a42.09,42.09,0,0,1,58-13.39l129.49,80.9a42.09,42.09,0,0,1,13.39,58ZM277.8,266.23,157.05,454.6a41.61,41.61,0,0,0,12.58,57.49L358,632.83a41.6,41.6,0,0,0,57.49-12.57L536.23,431.89a41.61,41.61,0,0,0-12.58-57.49L335.29,253.66A41.6,41.6,0,0,0,277.8,266.23Z"/><path class="cls-93" d="M402.6,574.76a42.25,42.25,0,0,1-58.19,13.59l-130.2-80.9a42.25,42.25,0,0,1-13.59-58.19l80.9-130.2a42.25,42.25,0,0,1,58.19-13.59l130.2,80.9a42.25,42.25,0,0,1,13.59,58.19ZM272.54,270.05,152.41,459a41.64,41.64,0,0,0,12.79,57.48L354.1,636.56a41.64,41.64,0,0,0,57.48-12.79l120.13-188.9a41.64,41.64,0,0,0-12.79-57.48L330,257.26A41.65,41.65,0,0,0,272.54,270.05Z"/><path class="cls-94" d="M398.39,578.71A42.42,42.42,0,0,1,340,592.5L209.09,511.6a42.41,42.41,0,0,1-13.79-58.38L276.19,322.3a42.43,42.43,0,0,1,58.39-13.79l130.91,80.9a42.41,42.41,0,0,1,13.79,58.38ZM267.1,273.8,147.58,463.23a41.65,41.65,0,0,0,13,57.46L350,640.21a41.65,41.65,0,0,0,57.46-13L527,437.78a41.65,41.65,0,0,0-13-57.46L324.56,260.79A41.67,41.67,0,0,0,267.1,273.8Z"/><path class="cls-95" d="M394,582.57a42.59,42.59,0,0,1-58.58,14L203.78,515.67a42.59,42.59,0,0,1-14-58.58l80.89-131.63a42.59,42.59,0,0,1,58.58-14L460.9,392.36a42.59,42.59,0,0,1,14,58.58ZM261.48,277.46l-118.91,190a41.68,41.68,0,0,0,13.21,57.45l190,118.91a41.69,41.69,0,0,0,57.45-13.22l118.91-190a41.69,41.69,0,0,0-13.22-57.45l-190-118.9A41.68,41.68,0,0,0,261.48,277.46Z"/><path class="cls-96" d="M389.43,586.34a42.76,42.76,0,0,1-58.78,14.19L198.31,519.64a42.75,42.75,0,0,1-14.19-58.77L265,328.52a42.75,42.75,0,0,1,58.78-14.18l132.35,80.88A42.74,42.74,0,0,1,470.31,454ZM255.68,281,137.39,471.53A41.71,41.71,0,0,0,150.82,529l190.5,118.29a41.7,41.7,0,0,0,57.43-13.43l118.3-190.5a41.7,41.7,0,0,0-13.43-57.43L313.12,267.6A41.71,41.71,0,0,0,255.68,281Z"/><path class="cls-97" d="M384.71,590a42.93,42.93,0,0,1-59,14.38L192.67,523.51a42.93,42.93,0,0,1-14.38-59l80.88-133.06a42.92,42.92,0,0,1,59-14.39L451.2,398a42.91,42.91,0,0,1,14.38,59Zm-135-305.52-117.68,191A41.73,41.73,0,0,0,145.69,533l191,117.68A41.73,41.73,0,0,0,394.14,637L511.83,446a41.73,41.73,0,0,0-13.64-57.42l-191-117.68A41.73,41.73,0,0,0,249.73,284.49Z"/><path class="cls-98" d="M379.84,593.55a43.1,43.1,0,0,1-59.17,14.58L186.89,527.26a43.1,43.1,0,0,1-14.58-59.17l80.87-133.78a43.1,43.1,0,0,1,59.17-14.58L446.13,400.6a43.1,43.1,0,0,1,14.58,59.17ZM243.63,287.84,126.56,479.41a41.75,41.75,0,0,0,13.85,57.4L332,653.88A41.76,41.76,0,0,0,389.39,640L506.46,448.46a41.77,41.77,0,0,0-13.85-57.41L301,274A41.75,41.75,0,0,0,243.63,287.84Z"/><path class="cls-99" d="M374.83,597a43.25,43.25,0,0,1-59.36,14.78L181,530.88a43.27,43.27,0,0,1-14.79-59.37L247.06,337a43.26,43.26,0,0,1,59.36-14.78l134.5,80.87a43.26,43.26,0,0,1,14.78,59.36ZM237.39,291.05,120.93,483.15A41.79,41.79,0,0,0,135,540.54L327.11,657a41.77,41.77,0,0,0,57.39-14.07L501,450.83a41.79,41.79,0,0,0-14.07-57.39L294.78,277A41.78,41.78,0,0,0,237.39,291.05Z"/><path class="cls-100" d="M369.7,600.23a43.43,43.43,0,0,1-59.56,15l-135.2-80.86a43.42,43.42,0,0,1-15-59.56l80.86-135.21a43.43,43.43,0,0,1,59.56-15l135.2,80.87a43.41,43.41,0,0,1,15,59.55ZM231,294.12,115.19,486.76a41.8,41.8,0,0,0,14.28,57.37L322.11,660a41.81,41.81,0,0,0,57.38-14.28L495.33,453.06a41.81,41.81,0,0,0-14.28-57.38L288.41,279.83A41.81,41.81,0,0,0,231,294.12Z"/><path class="cls-101" d="M364.46,603.35a43.61,43.61,0,0,1-59.76,15.18L168.78,537.67a43.6,43.6,0,0,1-15.18-59.75L234.46,342a43.6,43.6,0,0,1,59.75-15.18l135.93,80.86a43.59,43.59,0,0,1,15.17,59.75ZM224.56,297,109.33,490.21a41.83,41.83,0,0,0,14.49,57.36L317,662.8a41.83,41.83,0,0,0,57.36-14.49L489.59,455.13a41.83,41.83,0,0,0-14.49-57.36L281.92,282.54A41.83,41.83,0,0,0,224.56,297Z"/><path class="cls-102" d="M424.59,409.71a43.77,43.77,0,0,1,15.38,60L359.11,606.3a43.75,43.75,0,0,1-59.94,15.37L162.53,540.82a43.76,43.76,0,0,1-15.38-60L228,344.23A43.76,43.76,0,0,1,288,328.86ZM218,299.78,103.36,493.49a41.88,41.88,0,0,0,14.71,57.35L311.78,665.46a41.87,41.87,0,0,0,57.35-14.71L483.75,457A41.86,41.86,0,0,0,469,399.69L275.33,285.07A41.86,41.86,0,0,0,218,299.78Z"/></g></g></svg>