<?xml version="1.0" encoding="UTF-8"?>
<svg width="1080px" height="1620px" viewBox="0 0 1080 1620" version="1.1" xmlns="http://www.w3.org/2000/svg" xmlns:xlink="http://www.w3.org/1999/xlink">
    <title>tangled-type</title>
    <defs>
        <linearGradient x1="50%" y1="86.4377169%" x2="52.1686491%" y2="13.5622831%" id="linearGradient-1">
            <stop stop-color="#7C39FF" offset="0%"></stop>
            <stop stop-color="#04B9FF" offset="49.7267007%"></stop>
            <stop stop-color="#00EBBF" offset="100%"></stop>
        </linearGradient>
    </defs>
    <g id="tangled-type" stroke="none" stroke-width="1" fill="none" fill-rule="evenodd">
        <rect fill="#1D1D21" x="0" y="0" width="1080" height="1620"></rect>
        <g id="Group-2" transform="translate(473.853000, 777.240000)" fill="#FFFFFF" fill-rule="nonzero">
            <g id="WebMob">
                <polygon id="Path" points="74.222 2.812 60.68 54.76 45.362 54.76 37.074 20.572 28.49 54.76 13.172 54.76 0 2.812 13.542 2.812 21.016 40.626 30.266 2.812 44.178 2.812 53.058 40.626 60.606 2.812"></polygon>
                <path d="M119.51,33.448 C119.51,34.632 119.436,35.8653333 119.288,37.148 L90.65,37.148 C90.8473333,39.7133333 91.6736667,41.6743333 93.129,43.031 C94.5843333,44.3876667 96.3726667,45.066 98.494,45.066 C101.651333,45.066 103.846667,43.734 105.08,41.07 L118.548,41.07 C117.857333,43.7833333 116.611667,46.2253333 114.811,48.396 C113.010333,50.5666667 110.753333,52.2686667 108.04,53.502 C105.326667,54.7353333 102.292667,55.352 98.938,55.352 C94.8926667,55.352 91.2913333,54.4886667 88.134,52.762 C84.9766667,51.0353333 82.51,48.5686667 80.734,45.362 C78.958,42.1553333 78.07,38.406 78.07,34.114 C78.07,29.822 78.9456667,26.0726667 80.697,22.866 C82.4483333,19.6593333 84.9026667,17.1926667 88.06,15.466 C91.2173333,13.7393333 94.8433333,12.876 98.938,12.876 C102.934,12.876 106.486,13.7146667 109.594,15.392 C112.702,17.0693333 115.131667,19.462 116.883,22.57 C118.634333,25.678 119.51,29.304 119.51,33.448 Z M106.56,30.118 C106.56,27.9473333 105.82,26.2206667 104.34,24.938 C102.86,23.6553333 101.01,23.014 98.79,23.014 C96.6686667,23.014 94.8803333,23.6306667 93.425,24.864 C91.9696667,26.0973333 91.0693333,27.8486667 90.724,30.118 L106.56,30.118 Z" id="Shape"></path>
                <path d="M138.824,19.314 C140.008,17.39 141.71,15.836 143.93,14.652 C146.15,13.468 148.690667,12.876 151.552,12.876 C154.956,12.876 158.039333,13.7393333 160.802,15.466 C163.564667,17.1926667 165.747667,19.6593333 167.351,22.866 C168.954333,26.0726667 169.756,29.7973333 169.756,34.04 C169.756,38.2826667 168.954333,42.0196667 167.351,45.251 C165.747667,48.4823333 163.564667,50.9736667 160.802,52.725 C158.039333,54.4763333 154.956,55.352 151.552,55.352 C148.641333,55.352 146.100667,54.7723333 143.93,53.613 C141.759333,52.4536667 140.057333,50.912 138.824,48.988 L138.824,54.76 L126.17,54.76 L126.17,0 L138.824,0 L138.824,19.314 Z M156.88,34.04 C156.88,30.8826667 156.004333,28.4036667 154.253,26.603 C152.501667,24.8023333 150.343333,23.902 147.778,23.902 C145.262,23.902 143.128333,24.8146667 141.377,26.64 C139.625667,28.4653333 138.75,30.9566667 138.75,34.114 C138.75,37.2713333 139.625667,39.7626667 141.377,41.588 C143.128333,43.4133333 145.262,44.326 147.778,44.326 C150.294,44.326 152.44,43.401 154.216,41.551 C155.992,39.701 156.88,37.1973333 156.88,34.04 Z" id="Shape"></path>
                <polygon id="Path" points="235.246 2.812 235.246 54.76 222.592 54.76 222.592 23.606 210.974 54.76 200.762 54.76 189.07 23.532 189.07 54.76 176.416 54.76 176.416 2.812 191.364 2.812 205.942 38.776 220.372 2.812"></polygon>
                <path d="M263.144,55.352 C259.098667,55.352 255.460333,54.4886667 252.229,52.762 C248.997667,51.0353333 246.457,48.5686667 244.607,45.362 C242.757,42.1553333 241.832,38.406 241.832,34.114 C241.832,29.8713333 242.769333,26.1343333 244.644,22.903 C246.518667,19.6716667 249.084,17.1926667 252.34,15.466 C255.596,13.7393333 259.246667,12.876 263.292,12.876 C267.337333,12.876 270.988,13.7393333 274.244,15.466 C277.5,17.1926667 280.065333,19.6716667 281.94,22.903 C283.814667,26.1343333 284.752,29.8713333 284.752,34.114 C284.752,38.3566667 283.802333,42.0936667 281.903,45.325 C280.003667,48.5563333 277.413667,51.0353333 274.133,52.762 C270.852333,54.4886667 267.189333,55.352 263.144,55.352 Z M263.144,44.4 C265.561333,44.4 267.621,43.512 269.323,41.736 C271.025,39.96 271.876,37.4193333 271.876,34.114 C271.876,30.8086667 271.049667,28.268 269.397,26.492 C267.744333,24.716 265.709333,23.828 263.292,23.828 C260.825333,23.828 258.778,24.7036667 257.15,26.455 C255.522,28.2063333 254.708,30.7593333 254.708,34.114 C254.708,37.4193333 255.509667,39.96 257.113,41.736 C258.716333,43.512 260.726667,44.4 263.144,44.4 Z" id="Shape"></path>
                <path d="M304.14,19.314 C305.324,17.39 307.026,15.836 309.246,14.652 C311.466,13.468 314.006667,12.876 316.868,12.876 C320.272,12.876 323.355333,13.7393333 326.118,15.466 C328.880667,17.1926667 331.063667,19.6593333 332.667,22.866 C334.270333,26.0726667 335.072,29.7973333 335.072,34.04 C335.072,38.2826667 334.270333,42.0196667 332.667,45.251 C331.063667,48.4823333 328.880667,50.9736667 326.118,52.725 C323.355333,54.4763333 320.272,55.352 316.868,55.352 C313.957333,55.352 311.416667,54.7723333 309.246,53.613 C307.075333,52.4536667 305.373333,50.912 304.14,48.988 L304.14,54.76 L291.486,54.76 L291.486,0 L304.14,0 L304.14,19.314 Z M322.196,34.04 C322.196,30.8826667 321.320333,28.4036667 319.569,26.603 C317.817667,24.8023333 315.659333,23.902 313.094,23.902 C310.578,23.902 308.444333,24.8146667 306.693,26.64 C304.941667,28.4653333 304.066,30.9566667 304.066,34.114 C304.066,37.2713333 304.941667,39.7626667 306.693,41.588 C308.444333,43.4133333 310.578,44.326 313.094,44.326 C315.61,44.326 317.756,43.401 319.532,41.551 C321.308,39.701 322.196,37.1973333 322.196,34.04 Z" id="Shape"></path>
            </g>
        </g>
        <g id="Group" transform="translate(256.011000, 1322.240000)" fill="#FFFFFF" fill-rule="nonzero">
            <g id="Web">
                <polygon id="Path" points="74.222 2.812 60.68 54.76 45.362 54.76 37.074 20.572 28.49 54.76 13.172 54.76 0 2.812 13.542 2.812 21.016 40.626 30.266 2.812 44.178 2.812 53.058 40.626 60.606 2.812"></polygon>
                <path d="M119.51,33.448 C119.51,34.632 119.436,35.8653333 119.288,37.148 L90.65,37.148 C90.8473333,39.7133333 91.6736667,41.6743333 93.129,43.031 C94.5843333,44.3876667 96.3726667,45.066 98.494,45.066 C101.651333,45.066 103.846667,43.734 105.08,41.07 L118.548,41.07 C117.857333,43.7833333 116.611667,46.2253333 114.811,48.396 C113.010333,50.5666667 110.753333,52.2686667 108.04,53.502 C105.326667,54.7353333 102.292667,55.352 98.938,55.352 C94.8926667,55.352 91.2913333,54.4886667 88.134,52.762 C84.9766667,51.0353333 82.51,48.5686667 80.734,45.362 C78.958,42.1553333 78.07,38.406 78.07,34.114 C78.07,29.822 78.9456667,26.0726667 80.697,22.866 C82.4483333,19.6593333 84.9026667,17.1926667 88.06,15.466 C91.2173333,13.7393333 94.8433333,12.876 98.938,12.876 C102.934,12.876 106.486,13.7146667 109.594,15.392 C112.702,17.0693333 115.131667,19.462 116.883,22.57 C118.634333,25.678 119.51,29.304 119.51,33.448 Z M106.56,30.118 C106.56,27.9473333 105.82,26.2206667 104.34,24.938 C102.86,23.6553333 101.01,23.014 98.79,23.014 C96.6686667,23.014 94.8803333,23.6306667 93.425,24.864 C91.9696667,26.0973333 91.0693333,27.8486667 90.724,30.118 L106.56,30.118 Z" id="Shape"></path>
                <path d="M138.824,19.314 C140.008,17.39 141.71,15.836 143.93,14.652 C146.15,13.468 148.690667,12.876 151.552,12.876 C154.956,12.876 158.039333,13.7393333 160.802,15.466 C163.564667,17.1926667 165.747667,19.6593333 167.351,22.866 C168.954333,26.0726667 169.756,29.7973333 169.756,34.04 C169.756,38.2826667 168.954333,42.0196667 167.351,45.251 C165.747667,48.4823333 163.564667,50.9736667 160.802,52.725 C158.039333,54.4763333 154.956,55.352 151.552,55.352 C148.641333,55.352 146.100667,54.7723333 143.93,53.613 C141.759333,52.4536667 140.057333,50.912 138.824,48.988 L138.824,54.76 L126.17,54.76 L126.17,0 L138.824,0 L138.824,19.314 Z M156.88,34.04 C156.88,30.8826667 156.004333,28.4036667 154.253,26.603 C152.501667,24.8023333 150.343333,23.902 147.778,23.902 C145.262,23.902 143.128333,24.8146667 141.377,26.64 C139.625667,28.4653333 138.75,30.9566667 138.75,34.114 C138.75,37.2713333 139.625667,39.7626667 141.377,41.588 C143.128333,43.4133333 145.262,44.326 147.778,44.326 C150.294,44.326 152.44,43.401 154.216,41.551 C155.992,39.701 156.88,37.1973333 156.88,34.04 Z" id="Shape"></path>
            </g>
            <g id="Mob" transform="translate(402.919000, 0.000000)">
                <polygon id="Path" points="58.83 2.812 58.83 54.76 46.176 54.76 46.176 23.606 34.558 54.76 24.346 54.76 12.654 23.532 12.654 54.76 0 54.76 0 2.812 14.948 2.812 29.526 38.776 43.956 2.812"></polygon>
                <path d="M86.728,55.352 C82.6826667,55.352 79.0443333,54.4886667 75.813,52.762 C72.5816667,51.0353333 70.041,48.5686667 68.191,45.362 C66.341,42.1553333 65.416,38.406 65.416,34.114 C65.416,29.8713333 66.3533333,26.1343333 68.228,22.903 C70.1026667,19.6716667 72.668,17.1926667 75.924,15.466 C79.18,13.7393333 82.8306667,12.876 86.876,12.876 C90.9213333,12.876 94.572,13.7393333 97.828,15.466 C101.084,17.1926667 103.649333,19.6716667 105.524,22.903 C107.398667,26.1343333 108.336,29.8713333 108.336,34.114 C108.336,38.3566667 107.386333,42.0936667 105.487,45.325 C103.587667,48.5563333 100.997667,51.0353333 97.717,52.762 C94.4363333,54.4886667 90.7733333,55.352 86.728,55.352 Z M86.728,44.4 C89.1453333,44.4 91.205,43.512 92.907,41.736 C94.609,39.96 95.46,37.4193333 95.46,34.114 C95.46,30.8086667 94.6336667,28.268 92.981,26.492 C91.3283333,24.716 89.2933333,23.828 86.876,23.828 C84.4093333,23.828 82.362,24.7036667 80.734,26.455 C79.106,28.2063333 78.292,30.7593333 78.292,34.114 C78.292,37.4193333 79.0936667,39.96 80.697,41.736 C82.3003333,43.512 84.3106667,44.4 86.728,44.4 Z" id="Shape"></path>
                <path d="M127.724,19.314 C128.908,17.39 130.61,15.836 132.83,14.652 C135.05,13.468 137.590667,12.876 140.452,12.876 C143.856,12.876 146.939333,13.7393333 149.702,15.466 C152.464667,17.1926667 154.647667,19.6593333 156.251,22.866 C157.854333,26.0726667 158.656,29.7973333 158.656,34.04 C158.656,38.2826667 157.854333,42.0196667 156.251,45.251 C154.647667,48.4823333 152.464667,50.9736667 149.702,52.725 C146.939333,54.4763333 143.856,55.352 140.452,55.352 C137.541333,55.352 135.000667,54.7723333 132.83,53.613 C130.659333,52.4536667 128.957333,50.912 127.724,48.988 L127.724,54.76 L115.07,54.76 L115.07,0 L127.724,0 L127.724,19.314 Z M145.78,34.04 C145.78,30.8826667 144.904333,28.4036667 143.153,26.603 C141.401667,24.8023333 139.243333,23.902 136.678,23.902 C134.162,23.902 132.028333,24.8146667 130.277,26.64 C128.525667,28.4653333 127.65,30.9566667 127.65,34.114 C127.65,37.2713333 128.525667,39.7626667 130.277,41.588 C132.028333,43.4133333 134.162,44.326 136.678,44.326 C139.194,44.326 141.34,43.401 143.116,41.551 C144.892,39.701 145.78,37.1973333 145.78,34.04 Z" id="Shape"></path>
            </g>
        </g>
        <g id="WebMob" transform="translate(417.663000, 361.040000)" fill="#FFFFFF" fill-rule="nonzero">
            <polygon id="Path" points="54.162 2.052 44.28 39.96 33.102 39.96 27.054 15.012 20.79 39.96 9.612 39.96 0 2.052 9.882 2.052 15.336 29.646 22.086 2.052 32.238 2.052 38.718 29.646 44.226 2.052"></polygon>
            <path d="M87.21,24.408 C87.21,25.272 87.156,26.172 87.048,27.108 L66.15,27.108 C66.294,28.98 66.897,30.411 67.959,31.401 C69.021,32.391 70.326,32.886 71.874,32.886 C74.178,32.886 75.78,31.914 76.68,29.97 L86.508,29.97 C86.004,31.95 85.095,33.732 83.781,35.316 C82.467,36.9 80.82,38.142 78.84,39.042 C76.86,39.942 74.646,40.392 72.198,40.392 C69.246,40.392 66.618,39.762 64.314,38.502 C62.01,37.242 60.21,35.442 58.914,33.102 C57.618,30.762 56.97,28.026 56.97,24.894 C56.97,21.762 57.609,19.026 58.887,16.686 C60.165,14.346 61.956,12.546 64.26,11.286 C66.564,10.026 69.21,9.396 72.198,9.396 C75.114,9.396 77.706,10.008 79.974,11.232 C82.242,12.456 84.015,14.202 85.293,16.47 C86.571,18.738 87.21,21.384 87.21,24.408 Z M77.76,21.978 C77.76,20.394 77.22,19.134 76.14,18.198 C75.06,17.262 73.71,16.794 72.09,16.794 C70.542,16.794 69.237,17.244 68.175,18.144 C67.113,19.044 66.456,20.322 66.204,21.978 L77.76,21.978 Z" id="Shape"></path>
            <path d="M101.304,14.094 C102.168,12.69 103.41,11.556 105.03,10.692 C106.65,9.828 108.504,9.396 110.592,9.396 C113.076,9.396 115.326,10.026 117.342,11.286 C119.358,12.546 120.951,14.346 122.121,16.686 C123.291,19.026 123.876,21.744 123.876,24.84 C123.876,27.936 123.291,30.663 122.121,33.021 C120.951,35.379 119.358,37.197 117.342,38.475 C115.326,39.753 113.076,40.392 110.592,40.392 C108.468,40.392 106.614,39.969 105.03,39.123 C103.446,38.277 102.204,37.152 101.304,35.748 L101.304,39.96 L92.07,39.96 L92.07,5.68434189e-14 L101.304,5.68434189e-14 L101.304,14.094 Z M114.48,24.84 C114.48,22.536 113.841,20.727 112.563,19.413 C111.285,18.099 109.71,17.442 107.838,17.442 C106.002,17.442 104.445,18.108 103.167,19.44 C101.889,20.772 101.25,22.59 101.25,24.894 C101.25,27.198 101.889,29.016 103.167,30.348 C104.445,31.68 106.002,32.346 107.838,32.346 C109.674,32.346 111.24,31.671 112.536,30.321 C113.832,28.971 114.48,27.144 114.48,24.84 Z" id="Shape"></path>
            <polygon id="Path" points="171.666 2.052 171.666 39.96 162.432 39.96 162.432 17.226 153.954 39.96 146.502 39.96 137.97 17.172 137.97 39.96 128.736 39.96 128.736 2.052 139.644 2.052 150.282 28.296 160.812 2.052"></polygon>
            <path d="M192.024,40.392 C189.072,40.392 186.417,39.762 184.059,38.502 C181.701,37.242 179.847,35.442 178.497,33.102 C177.147,30.762 176.472,28.026 176.472,24.894 C176.472,21.798 177.156,19.071 178.524,16.713 C179.892,14.355 181.764,12.546 184.14,11.286 C186.516,10.026 189.18,9.396 192.132,9.396 C195.084,9.396 197.748,10.026 200.124,11.286 C202.5,12.546 204.372,14.355 205.74,16.713 C207.108,19.071 207.792,21.798 207.792,24.894 C207.792,27.99 207.099,30.717 205.713,33.075 C204.327,35.433 202.437,37.242 200.043,38.502 C197.649,39.762 194.976,40.392 192.024,40.392 Z M192.024,32.4 C193.788,32.4 195.291,31.752 196.533,30.456 C197.775,29.16 198.396,27.306 198.396,24.894 C198.396,22.482 197.793,20.628 196.587,19.332 C195.381,18.036 193.896,17.388 192.132,17.388 C190.332,17.388 188.838,18.027 187.65,19.305 C186.462,20.583 185.868,22.446 185.868,24.894 C185.868,27.306 186.453,29.16 187.623,30.456 C188.793,31.752 190.26,32.4 192.024,32.4 Z" id="Shape"></path>
            <path d="M221.94,14.094 C222.804,12.69 224.046,11.556 225.666,10.692 C227.286,9.828 229.14,9.396 231.228,9.396 C233.712,9.396 235.962,10.026 237.978,11.286 C239.994,12.546 241.587,14.346 242.757,16.686 C243.927,19.026 244.512,21.744 244.512,24.84 C244.512,27.936 243.927,30.663 242.757,33.021 C241.587,35.379 239.994,37.197 237.978,38.475 C235.962,39.753 233.712,40.392 231.228,40.392 C229.104,40.392 227.25,39.969 225.666,39.123 C224.082,38.277 222.84,37.152 221.94,35.748 L221.94,39.96 L212.706,39.96 L212.706,5.68434189e-14 L221.94,5.68434189e-14 L221.94,14.094 Z M235.116,24.84 C235.116,22.536 234.477,20.727 233.199,19.413 C231.921,18.099 230.346,17.442 228.474,17.442 C226.638,17.442 225.081,18.108 223.803,19.44 C222.525,20.772 221.886,22.59 221.886,24.894 C221.886,27.198 222.525,29.016 223.803,30.348 C225.081,31.68 226.638,32.346 228.474,32.346 C230.31,32.346 231.876,31.671 233.172,30.321 C234.468,28.971 235.116,27.144 235.116,24.84 Z" id="Shape"></path>
        </g>
        <rect id="Rectangle" fill="#CFCED7" opacity="0.243344262" x="0" y="1080" width="1080" height="1"></rect>
        <rect id="Rectangle" fill="#CFCED7" opacity="0.243344262" x="0" y="540" width="1080" height="1"></rect>
        <path d="M625.736092,188.153362 C625.905809,188.337925 626,188.57951 626,188.830244 L626,301.977757 C626,302.530042 625.552285,302.977757 625,302.977757 C624.722918,302.977757 624.458255,302.862793 624.269139,302.660284 L598.598551,275.171798 C598.425605,274.986604 598.329412,274.742662 598.329412,274.489271 L598.329412,251.80112 C598.329412,251.248835 597.881697,250.80112 597.329412,250.80112 C597.077246,250.80112 596.834389,250.896388 596.649482,251.067843 L552.153086,292.327069 C551.749527,292.701268 551.119456,292.679048 550.74326,292.277351 L528.270104,268.280794 C528.096563,268.095489 528,267.851114 528,267.597235 L528,227.601932 C528,227.049647 528.447715,226.601932 529,226.601932 C529.289927,226.601932 529.565582,226.727761 529.75552,226.946807 L552.290116,252.934739 C552.651932,253.352001 553.283499,253.39695 553.700762,253.035134 L553.722518,253.015706 L553.722518,253.015706 L624.323119,188.094152 C624.729651,187.72032 625.362261,187.74683 625.736092,188.153362 Z M456,157 C456.277082,157 456.541745,157.114965 456.730861,157.317473 L482.401449,184.805959 C482.574395,184.991153 482.670588,185.235095 482.670588,185.488486 L482.670588,208.176637 C482.670588,208.728922 483.118303,209.176637 483.670588,209.176637 C483.922754,209.176637 484.165611,209.08137 484.350518,208.909914 L528.846914,167.650688 C529.250473,167.276489 529.880544,167.298709 530.25674,167.700406 L552.729896,191.696963 C552.903437,191.882268 553,192.126643 553,192.380522 L553,232.375825 C553,232.92811 552.552285,233.375825 552,233.375825 C551.710073,233.375825 551.434418,233.249996 551.24448,233.030951 L528.709884,207.043018 C528.348068,206.625756 527.716501,206.580808 527.299238,206.942623 L527.277482,206.962052 L527.277482,206.962052 L456.676881,271.883605 C456.270349,272.257437 455.637739,272.230927 455.263908,271.824395 C455.094191,271.639832 455,271.398247 455,271.147513 L455,158 C455,157.447715 455.447715,157 456,157 Z" id="Combined-Shape" fill="url(#linearGradient-1)" fill-rule="nonzero"></path>
        <path d="M417.736092,763.153362 C417.905809,763.337925 418,763.57951 418,763.830244 L418,876.977757 C418,877.530042 417.552285,877.977757 417,877.977757 C416.722918,877.977757 416.458255,877.862793 416.269139,877.660284 L390.598551,850.171798 C390.425605,849.986604 390.329412,849.742662 390.329412,849.489271 L390.329412,826.80112 C390.329412,826.248835 389.881697,825.80112 389.329412,825.80112 C389.077246,825.80112 388.834389,825.896388 388.649482,826.067843 L344.153086,867.327069 C343.749527,867.701268 343.119456,867.679048 342.74326,867.277351 L320.270104,843.280794 C320.096563,843.095489 320,842.851114 320,842.597235 L320,802.601932 C320,802.049647 320.447715,801.601932 321,801.601932 C321.289927,801.601932 321.565582,801.727761 321.75552,801.946807 L344.290116,827.934739 C344.651932,828.352001 345.283499,828.39695 345.700762,828.035134 L345.722518,828.015706 L345.722518,828.015706 L416.323119,763.094152 C416.729651,762.72032 417.362261,762.74683 417.736092,763.153362 Z M248,732 C248.277082,732 248.541745,732.114965 248.730861,732.317473 L274.401449,759.805959 C274.574395,759.991153 274.670588,760.235095 274.670588,760.488486 L274.670588,783.176637 C274.670588,783.728922 275.118303,784.176637 275.670588,784.176637 C275.922754,784.176637 276.165611,784.08137 276.350518,783.909914 L320.846914,742.650688 C321.250473,742.276489 321.880544,742.298709 322.25674,742.700406 L344.729896,766.696963 C344.903437,766.882268 345,767.126643 345,767.380522 L345,807.375825 C345,807.92811 344.552285,808.375825 344,808.375825 C343.710073,808.375825 343.434418,808.249996 343.24448,808.030951 L320.709884,782.043018 C320.348068,781.625756 319.716501,781.580808 319.299238,781.942623 L319.277482,781.962052 L319.277482,781.962052 L248.676881,846.883605 C248.270349,847.257437 247.637739,847.230927 247.263908,846.824395 C247.094191,846.639832 247,846.398247 247,846.147513 L247,733 C247,732.447715 247.447715,732 248,732 Z" id="Combined-Shape" fill="url(#linearGradient-1)" fill-rule="nonzero"></path>
        <path d="M625.736092,1308.15336 C625.905809,1308.33793 626,1308.57951 626,1308.83024 L626,1421.97776 C626,1422.53004 625.552285,1422.97776 625,1422.97776 C624.722918,1422.97776 624.458255,1422.86279 624.269139,1422.66028 L598.598551,1395.1718 C598.425605,1394.9866 598.329412,1394.74266 598.329412,1394.48927 L598.329412,1371.80112 C598.329412,1371.24884 597.881697,1370.80112 597.329412,1370.80112 C597.077246,1370.80112 596.834389,1370.89639 596.649482,1371.06784 L552.153086,1412.32707 C551.749527,1412.70127 551.119456,1412.67905 550.74326,1412.27735 L528.270104,1388.28079 C528.096563,1388.09549 528,1387.85111 528,1387.59724 L528,1347.60193 C528,1347.04965 528.447715,1346.60193 529,1346.60193 C529.289927,1346.60193 529.565582,1346.72776 529.75552,1346.94681 L552.290116,1372.93474 C552.651932,1373.352 553.283499,1373.39695 553.700762,1373.03513 L553.722518,1373.01571 L553.722518,1373.01571 L624.323119,1308.09415 C624.729651,1307.72032 625.362261,1307.74683 625.736092,1308.15336 Z M456,1277 C456.277082,1277 456.541745,1277.11496 456.730861,1277.31747 L482.401449,1304.80596 C482.574395,1304.99115 482.670588,1305.2351 482.670588,1305.48849 L482.670588,1328.17664 C482.670588,1328.72892 483.118303,1329.17664 483.670588,1329.17664 C483.922754,1329.17664 484.165611,1329.08137 484.350518,1328.90991 L528.846914,1287.65069 C529.250473,1287.27649 529.880544,1287.29871 530.25674,1287.70041 L552.729896,1311.69696 C552.903437,1311.88227 553,1312.12664 553,1312.38052 L553,1352.37583 C553,1352.92811 552.552285,1353.37583 552,1353.37583 C551.710073,1353.37583 551.434418,1353.25 551.24448,1353.03095 L528.709884,1327.04302 C528.348068,1326.62576 527.716501,1326.58081 527.299238,1326.94262 L527.277482,1326.96205 L527.277482,1326.96205 L456.676881,1391.88361 C456.270349,1392.25744 455.637739,1392.23093 455.263908,1391.82439 C455.094191,1391.63983 455,1391.39825 455,1391.14751 L455,1278 C455,1277.44772 455.447715,1277 456,1277 Z" id="Combined-Shape" fill="url(#linearGradient-1)" fill-rule="nonzero"></path>
    </g>
</svg>