<?xml version="1.0" encoding="UTF-8"?>
<svg width="1080px" height="1080px" viewBox="0 0 1080 1080" version="1.1" xmlns="http://www.w3.org/2000/svg" xmlns:xlink="http://www.w3.org/1999/xlink">
    <title>tangled-color</title>
    <defs>
        <linearGradient x1="50%" y1="87.2509635%" x2="52.1686491%" y2="12.7490365%" id="linearGradient-1">
            <stop stop-color="#7C39FF" offset="0%"></stop>
            <stop stop-color="#04B9FF" offset="49.7267007%"></stop>
            <stop stop-color="#00EBBF" offset="100%"></stop>
        </linearGradient>
    </defs>
    <g id="tangled-color" stroke="none" stroke-width="1" fill="none" fill-rule="evenodd">
        <rect fill="#1D1D21" x="0" y="0" width="1080" height="1080"></rect>
        <path d="M791.734956,413.686009 C791.905375,413.870713 792,414.112812 792,414.364124 L792,756.161929 C792,756.714214 791.552285,757.161929 791,757.161929 C790.722334,757.161929 790.457168,757.046481 790.267995,756.843228 L711.232701,671.92567 C711.060461,671.740611 710.964706,671.497182 710.964706,671.244371 L710.964706,599.375484 C710.964706,598.823199 710.516991,598.375484 709.964706,598.375484 C709.711961,598.375484 709.46859,598.471189 709.283546,598.643349 L574.328169,724.202352 C573.924281,724.578119 573.292382,724.555835 572.915968,724.152549 L505.268958,651.676434 C505.096124,651.491261 505,651.2474 505,650.994101 L505,527.515689 C505,526.963405 505.447715,526.515689 506,526.515689 C506.290508,526.515689 506.566657,526.642022 506.75661,526.861823 L577.43524,608.646415 C577.79636,609.06428 578.427852,609.11028 578.845716,608.74916 L578.869965,608.727505 L578.869965,608.727505 L790.321885,413.629168 C790.72779,413.254656 791.360443,413.280105 791.734956,413.686009 Z M290,323 C290.277666,323 290.542832,323.115448 290.732005,323.318701 L369.767299,408.236259 C369.939539,408.421319 370.035294,408.664747 370.035294,408.917558 L370.035294,480.786445 C370.035294,481.33873 370.483009,481.786445 371.035294,481.786445 C371.288039,481.786445 371.53141,481.69074 371.716454,481.51858 L506.671831,355.959578 C507.075719,355.58381 507.707618,355.606094 508.084032,356.00938 L575.731042,428.485495 C575.903876,428.670668 576,428.914529 576,429.167828 L576,552.64624 C576,553.198525 575.552285,553.64624 575,553.64624 C574.709492,553.64624 574.433343,553.519907 574.24339,553.300106 L503.56476,471.515514 C503.20364,471.097649 502.572148,471.051649 502.154284,471.41277 L502.130035,471.434424 L502.130035,471.434424 L290.678115,666.532761 C290.27221,666.907273 289.639557,666.881825 289.265044,666.47592 C289.094625,666.291216 289,666.049117 289,665.797805 L289,324 C289,323.447715 289.447715,323 290,323 Z" id="Combined-Shape" fill="url(#linearGradient-1)" fill-rule="nonzero"></path>
    </g>
</svg>