<?xml version="1.0" encoding="UTF-8"?>
<svg width="1080px" height="1080px" viewBox="0 0 1080 1080" version="1.1" xmlns="http://www.w3.org/2000/svg" xmlns:xlink="http://www.w3.org/1999/xlink">
    <title>tangled-line</title>
    <defs>
        <linearGradient x1="50%" y1="87.2509635%" x2="52.1686491%" y2="12.7490365%" id="linearGradient-1">
            <stop stop-color="#7C39FF" offset="0%"></stop>
            <stop stop-color="#04B9FF" offset="49.7267007%"></stop>
            <stop stop-color="#00EBBF" offset="100%"></stop>
        </linearGradient>
    </defs>
    <g id="tangled-line" stroke="none" stroke-width="1" fill="none" fill-rule="evenodd">
        <rect fill="#1D1D21" x="0" y="0" width="1080" height="1080"></rect>
        <path d="M789.5,417.789045 L789.5,752.348614 L713.464706,670.654333 L713.464706,599.375484 C713.464706,598.408985 713.072955,597.533985 712.43958,596.90061 C711.806204,596.267235 710.931204,595.875484 709.964706,595.875484 C709.080097,595.875484 708.228301,596.210451 707.580647,596.813011 L707.580647,596.813011 L573.721714,721.351911 L507.5,650.40284 L507.5,531.545437 L575.543714,610.281081 C576.175675,611.012343 577.044211,611.418225 577.937572,611.4833 C578.847068,611.549551 579.782294,611.262575 580.519819,610.606095 L580.519819,610.606095 L789.5,417.789045 Z M291.5,327.813315 L367.535294,409.507596 L367.535294,480.786445 C367.535294,481.752944 367.927045,482.627944 368.56042,483.261319 C369.193796,483.894695 370.068796,484.286445 371.035294,484.286445 C371.919903,484.286445 372.771699,483.951478 373.419353,483.348918 L373.419353,483.348918 L507.278286,358.810018 L573.5,429.75909 L573.5,548.616492 L505.456286,469.880848 C504.824325,469.149586 503.955789,468.743704 503.062428,468.678629 C502.152932,468.612378 501.217706,468.899354 500.480181,469.555834 L500.480181,469.555834 L291.5,662.372884 L291.5,327.813315 Z" id="Combined-Shape" stroke="url(#linearGradient-1)" stroke-width="5" fill-rule="nonzero"></path>
    </g>
</svg>