<?xml version="1.0" encoding="UTF-8"?>
<svg width="1080px" height="1080px" viewBox="0 0 1080 1080" version="1.1" xmlns="http://www.w3.org/2000/svg" xmlns:xlink="http://www.w3.org/1999/xlink">
    <title>tangled-fade</title>
    <defs>
        <linearGradient x1="0%" y1="50%" x2="100%" y2="50%" id="linearGradient-1">
            <stop stop-color="#7C39FF" offset="0%"></stop>
            <stop stop-color="#44297B" stop-opacity="0" offset="100%"></stop>
        </linearGradient>
        <linearGradient x1="0%" y1="50%" x2="100%" y2="50%" id="linearGradient-2">
            <stop stop-color="#7C39FF" offset="0%"></stop>
            <stop stop-color="#7336EA" stop-opacity="0.841077213" offset="15.8922787%"></stop>
            <stop stop-color="#44297B" stop-opacity="0" offset="100%"></stop>
        </linearGradient>
    </defs>
    <g id="tangled-fade" stroke="none" stroke-width="1" fill="none" fill-rule="evenodd">
        <rect fill="#1D1D21" x="0" y="0" width="1080" height="1080"></rect>
        <g id="Group" transform="translate(289.000000, 323.000000)" fill-rule="nonzero">
            <path d="M297.035294,176.281678 L297.035294,248.150565 C297.035294,248.702849 297.483009,249.150565 298.035294,249.150565 C298.288039,249.150565 298.53141,249.05486 298.716454,248.8827 L433.671831,123.323697 C434.075719,122.947929 434.707618,122.970214 435.084032,123.373499 L502.731042,195.849615 C502.903876,196.034787 503,196.278648 503,196.531947 L503,320.010359 C503,320.562644 502.552285,321.010359 502,321.010359 C501.709492,321.010359 501.433343,320.884027 501.24339,320.664225 L430.56476,238.879633 C430.20364,238.461769 429.572148,238.415769 429.154284,238.776889 C429.146084,238.783975 429.138,238.791194 429.130035,238.798543 L217.678115,433.89688 C217.27221,434.271393 216.639557,434.245944 216.265044,433.840039 C216.094625,433.655335 216,433.413236 216,433.161924 L216,91.3641193 C216,90.8118345 216.447715,90.3641193 217,90.3641193 C217.277666,90.3641193 217.542832,90.4795672 217.732005,90.6828203 L296.767299,175.600379 C296.939539,175.785438 297.035294,176.028867 297.035294,176.281678 Z" id="Path" fill="url(#linearGradient-1)" transform="translate(359.500000, 262.263024) scale(-1, -1) translate(-359.500000, -262.263024) "></path>
            <path d="M81.0352941,85.9175585 L81.0352941,157.786445 C81.0352941,158.33873 81.4830094,158.786445 82.0352941,158.786445 C82.2880395,158.786445 82.5314099,158.69074 82.7164537,158.51858 L217.671831,32.9595776 C218.075719,32.58381 218.707618,32.6060944 219.084032,33.0093801 L286.731042,105.485495 C286.903876,105.670668 287,105.914529 287,106.167828 L287,229.64624 C287,230.198525 286.552285,230.64624 286,230.64624 C285.709492,230.64624 285.433343,230.519907 285.24339,230.300106 L214.56476,148.515514 C214.20364,148.097649 213.572148,148.051649 213.154284,148.41277 C213.146084,148.419856 213.138,148.427075 213.130035,148.434424 L1.67811484,343.532761 C1.27220987,343.907273 0.639556527,343.881825 0.265044041,343.47592 C0.0946253752,343.291216 3.13390662e-14,343.049117 0,342.797805 L0,1 C-1.46993602e-14,0.44771525 0.44771525,5.72875081e-14 1,5.72875081e-14 C1.27766614,5.72875081e-14 1.54283157,0.115447924 1.73200523,0.318700988 L80.7672993,85.2362595 C80.9395393,85.4213186 81.0352941,85.6647473 81.0352941,85.9175585 Z" id="Path" fill="url(#linearGradient-2)"></path>
        </g>
    </g>
</svg>