<?xml version="1.0" encoding="UTF-8"?>
<svg width="1080px" height="1080px" viewBox="0 0 1080 1080" version="1.1" xmlns="http://www.w3.org/2000/svg" xmlns:xlink="http://www.w3.org/1999/xlink">
    <title>tangled-white</title>
    <g id="tangled-white" stroke="none" stroke-width="1" fill="none" fill-rule="evenodd">
        <rect fill="#1D1D21" x="0" y="0" width="1080" height="1080"></rect>
        <g id="Group" transform="translate(289.000000, 322.919035)" fill="#FFFFFF" fill-rule="nonzero">
            <path d="M502.734956,90.6860095 C502.905375,90.870713 503,91.1128119 503,91.3641243 L503,433.161929 C503,433.714214 502.552285,434.161929 502,434.161929 C501.722334,434.161929 501.457168,434.046481 501.267995,433.843228 L422.232701,348.92567 C422.060461,348.740611 421.964706,348.497182 421.964706,348.244371 L421.964706,276.375484 C421.964706,275.823199 421.516991,275.375484 420.964706,275.375484 C420.711961,275.375484 420.46859,275.471189 420.283546,275.643349 L285.328169,401.202352 C284.924281,401.578119 284.292382,401.555835 283.915968,401.152549 L216.268958,328.676434 C216.096124,328.491261 216,328.2474 216,327.994101 L216,204.515689 C216,203.963405 216.447715,203.515689 217,203.515689 C217.290508,203.515689 217.566657,203.642022 217.75661,203.861823 L288.43524,285.646415 C288.79636,286.06428 289.427852,286.11028 289.845716,285.74916 L289.869965,285.727505 L289.869965,285.727505 L501.321885,90.6291684 C501.72779,90.2546559 502.360443,90.2801045 502.734956,90.6860095 Z M1,-5.63993297e-14 C1.27766614,-5.63993297e-14 1.54283157,0.115447924 1.73200523,0.318700988 L80.7672993,85.2362595 C80.9395393,85.4213186 81.0352941,85.6647473 81.0352941,85.9175585 L81.0352941,157.786445 C81.0352941,158.33873 81.4830094,158.786445 82.0352941,158.786445 C82.2880395,158.786445 82.5314099,158.69074 82.7164537,158.51858 L217.671831,32.9595776 C218.075719,32.58381 218.707618,32.6060944 219.084032,33.0093801 L286.731042,105.485495 C286.903876,105.670668 287,105.914529 287,106.167828 L287,229.64624 C287,230.198525 286.552285,230.64624 286,230.64624 C285.709492,230.64624 285.433343,230.519907 285.24339,230.300106 L214.56476,148.515514 C214.20364,148.097649 213.572148,148.051649 213.154284,148.41277 L213.130035,148.434424 L213.130035,148.434424 L1.67811484,343.532761 C1.27220987,343.907273 0.639556527,343.881825 0.265044041,343.47592 C0.0946253752,343.291216 3.13390662e-14,343.049117 0,342.797805 L0,1 C-1.46993602e-14,0.44771525 0.44771525,-5.63993297e-14 1,-5.63993297e-14 Z" id="Combined-Shape"></path>
        </g>
    </g>
</svg>