<?xml version="1.0" encoding="UTF-8"?>
<svg width="900px" height="185px" viewBox="0 0 900 185" version="1.1" xmlns="http://www.w3.org/2000/svg" xmlns:xlink="http://www.w3.org/1999/xlink">
    <title>Group</title>
    <g id="Page-1" stroke="none" stroke-width="1" fill="none" fill-rule="evenodd" opacity="0.2">
        <g id="Group" fill="#FFFFFF" fill-rule="nonzero">
            <path d="M0,0 L37.5,4.60780669 C75,9.14684015 150,18.3624535 225,22.6951673 C300,27.027881 375,26.6152416 450,21.8011152 C525,16.9869888 600,7.77137546 675,7.35873606 C750,6.87732342 825,15.1301115 862.5,19.2565056 L900,23.3828996 L900,185 L862.5,185 C825,185 750,185 675,185 C600,185 525,185 450,185 C375,185 300,185 225,185 C150,185 75,185 37.5,185 L0,185 L0,0 Z" id="Path"></path>
            <path d="M0,49.6672138 L37.5,55.5064457 C75,61.3456776 150,73.0241414 225,72.1310824 C300,71.1693265 375,57.7047447 450,51.2472412 C525,44.8584346 600,45.545403 675,46.91934 C750,48.2932769 825,50.3541822 862.5,51.3846349 L900,52.4150876 L900,185 L862.5,185 C825,185 750,185 675,185 C600,185 525,185 450,185 C375,185 300,185 225,185 C150,185 75,185 37.5,185 L0,185 L0,49.6672138 Z" id="Path"></path>
            <path d="M0,122.390812 L37.5,116.886708 C75,111.382604 150,100.374395 225,96.5903231 C300,92.8062513 375,96.2463166 450,101.956825 C525,107.736135 600,115.717086 675,118.400337 C750,121.014786 825,118.262734 862.5,116.886708 L900,115.510682 L900,185 L862.5,185 C825,185 750,185 675,185 C600,185 525,185 450,185 C375,185 300,185 225,185 C150,185 75,185 37.5,185 L0,185 L0,122.390812 Z" id="Path"></path>
            <path d="M0,131 L37.5,131.692308 C75,132.384615 150,133.769231 225,135.5 C300,137.230769 375,139.307692 450,144.292308 C525,149.207692 600,157.1 675,160.284615 C750,163.538462 825,162.153846 862.5,161.461538 L900,160.769231 L900,185 L862.5,185 C825,185 750,185 675,185 C600,185 525,185 450,185 C375,185 300,185 225,185 C150,185 75,185 37.5,185 L0,185 L0,131 Z" id="Path"></path>
        </g>
    </g>
</svg>