<?xml version="1.0" encoding="UTF-8"?>
<svg width="996px" height="652px" viewBox="0 0 996 652" version="1.1" xmlns="http://www.w3.org/2000/svg" xmlns:xlink="http://www.w3.org/1999/xlink">
    <title>shape-bg-circles</title>
    <g id="Page-1" stroke="none" stroke-width="1" fill="none" fill-rule="evenodd" opacity="0.160132999">
        <g id="shape-bg-circles" transform="translate(8.000000, 8.000000)">
            <g id="blob-scatter-haikei" opacity="0.393172491" stroke="#000000" stroke-width="16">
                <g id="Group">
                    <g id="Path" transform="translate(0.000000, 293.558317)">
                        <path d="M180.167113,64.3425624 C192.967113,100.842562 183.667113,147.242562 155.467113,167.842562 C127.167113,188.542562 79.8671127,183.542562 46.0671127,159.142562 C12.2671127,134.742562 -7.93288731,91.0425624 2.96711269,57.0425624 C13.8671127,23.1425624 55.9671127,-1.15743762 94.3671127,0.0425623781 C132.767113,1.34256238 167.467113,27.9425624 180.167113,64.3425624 Z"></path>
                    </g>
                    <g id="Path" transform="translate(466.662329, 61.800187)">
                        <path d="M150.904783,52.2006924 C161.204783,82.5006924 149.604783,121.100692 125.304783,137.600692 C101.004783,154.100692 64.1047833,148.500692 37.3047833,129.000692 C10.5047833,109.500692 -6.09521669,76.2006924 2.10478331,48.8006924 C10.3047833,21.4006924 43.3047833,-0.0993075705 75.9047833,7.10542736e-15 C108.504783,0.200692429 140.704783,22.0006924 150.904783,52.2006924 Z"></path>
                    </g>
                    <g id="Path" transform="translate(18.882145, -0.000000)">
                        <path d="M107.784968,38.4008791 C114.084968,59.4008791 103.884968,84.0008791 85.884968,96.8008791 C67.984968,109.600879 42.184968,110.600879 23.984968,98.2008791 C5.88496804,85.7008791 -4.61503196,59.7008791 1.98496804,38.2008791 C8.58496804,16.8008791 32.384968,-0.0991208898 55.584968,0 C78.884968,0.20087911 101.484968,17.5008791 107.784968,38.4008791 Z"></path>
                    </g>
                    <g id="Path" transform="translate(820.318959, 48.968658)">
                        <path d="M145.348154,50.0322211 C154.048154,78.6322211 137.348154,113.532221 110.948154,132.032221 C84.4481535,150.532221 48.2481535,152.732221 25.7481535,136.332221 C3.24815354,119.832221 -5.75184646,84.8322211 3.74815354,55.1322211 C13.1481535,25.4322211 40.9481535,1.03222109 71.8481535,0.0322210898 C102.748154,-0.96777891 136.648154,21.4322211 145.348154,50.0322211 Z"></path>
                    </g>
                    <g id="Path" transform="translate(682.427445, 367.898367)">
                        <path d="M165.739668,59.2025129 C175.739668,92.1025129 159.639668,131.302513 130.739668,152.102513 C101.839668,172.902513 60.1396678,175.302513 32.9396678,156.002513 C5.73966783,136.602513 -6.96033217,95.5025129 3.83966783,61.4025129 C14.7396678,27.3025129 49.1396678,0.202512877 84.4396678,0.00251287694 C119.739668,-0.297487123 155.739668,26.3025129 165.739668,59.2025129 Z"></path>
                    </g>
                    <g id="Path" transform="translate(290.770874, 485.700879)">
                        <path d="M129.796239,53 C138.896239,81.8 130.296239,115.5 107.296239,133.2 C84.1962391,150.9 46.6962391,152.6 24.1962391,135.7 C1.7962391,118.9 -5.5037609,83.5 4.1962391,53.8 C13.8962391,24.1 40.5962391,0 67.2962391,0 C93.9962391,0 120.696239,24.1 129.796239,53 Z"></path>
                    </g>
                </g>
            </g>
            <g id="blob-scatter-haikei(1)" opacity="0.160243443" transform="translate(20.000000, 10.000000)" fill="#000000" fill-rule="nonzero">
                <g id="Group">
                    <g id="Path" transform="translate(0.000000, 293.558317)">
                        <path d="M180.167113,64.3425624 C192.967113,100.842562 183.667113,147.242562 155.467113,167.842562 C127.167113,188.542562 79.8671127,183.542562 46.0671127,159.142562 C12.2671127,134.742562 -7.93288731,91.0425624 2.96711269,57.0425624 C13.8671127,23.1425624 55.9671127,-1.15743762 94.3671127,0.0425623781 C132.767113,1.34256238 167.467113,27.9425624 180.167113,64.3425624 Z"></path>
                    </g>
                    <g id="Path" transform="translate(466.662329, 61.800187)">
                        <path d="M150.904783,52.2006924 C161.204783,82.5006924 149.604783,121.100692 125.304783,137.600692 C101.004783,154.100692 64.1047833,148.500692 37.3047833,129.000692 C10.5047833,109.500692 -6.09521669,76.2006924 2.10478331,48.8006924 C10.3047833,21.4006924 43.3047833,-0.0993075705 75.9047833,7.10542736e-15 C108.504783,0.200692429 140.704783,22.0006924 150.904783,52.2006924 Z"></path>
                    </g>
                    <g id="Path" transform="translate(18.882145, -0.000000)">
                        <path d="M107.784968,38.4008791 C114.084968,59.4008791 103.884968,84.0008791 85.884968,96.8008791 C67.984968,109.600879 42.184968,110.600879 23.984968,98.2008791 C5.88496804,85.7008791 -4.61503196,59.7008791 1.98496804,38.2008791 C8.58496804,16.8008791 32.384968,-0.0991208898 55.584968,0 C78.884968,0.20087911 101.484968,17.5008791 107.784968,38.4008791 Z"></path>
                    </g>
                    <g id="Path" transform="translate(820.318959, 48.968658)">
                        <path d="M145.348154,50.0322211 C154.048154,78.6322211 137.348154,113.532221 110.948154,132.032221 C84.4481535,150.532221 48.2481535,152.732221 25.7481535,136.332221 C3.24815354,119.832221 -5.75184646,84.8322211 3.74815354,55.1322211 C13.1481535,25.4322211 40.9481535,1.03222109 71.8481535,0.0322210898 C102.748154,-0.96777891 136.648154,21.4322211 145.348154,50.0322211 Z"></path>
                    </g>
                    <g id="Path" transform="translate(682.427445, 367.898367)">
                        <path d="M165.739668,59.2025129 C175.739668,92.1025129 159.639668,131.302513 130.739668,152.102513 C101.839668,172.902513 60.1396678,175.302513 32.9396678,156.002513 C5.73966783,136.602513 -6.96033217,95.5025129 3.83966783,61.4025129 C14.7396678,27.3025129 49.1396678,0.202512877 84.4396678,0.00251287694 C119.739668,-0.297487123 155.739668,26.3025129 165.739668,59.2025129 Z"></path>
                    </g>
                    <g id="Path" transform="translate(290.770874, 485.700879)">
                        <path d="M129.796239,53 C138.896239,81.8 130.296239,115.5 107.296239,133.2 C84.1962391,150.9 46.6962391,152.6 24.1962391,135.7 C1.7962391,118.9 -5.5037609,83.5 4.1962391,53.8 C13.8962391,24.1 40.5962391,0 67.2962391,0 C93.9962391,0 120.696239,24.1 129.796239,53 Z"></path>
                    </g>
                </g>
            </g>
        </g>
    </g>
</svg>