<?xml version="1.0" encoding="UTF-8"?>
<svg width="1080px" height="1080px" viewBox="0 0 1080 1080" version="1.1" xmlns="http://www.w3.org/2000/svg" xmlns:xlink="http://www.w3.org/1999/xlink">
    <title>rigid-vert-color</title>
    <defs>
        <linearGradient x1="1.08432453%" y1="49.7587067%" x2="101.084325%" y2="50.2412933%" id="linearGradient-1">
            <stop stop-color="#7C39FF" offset="0%"></stop>
            <stop stop-color="#04B9FF" offset="49.7267007%"></stop>
            <stop stop-color="#00EBBF" offset="100%"></stop>
        </linearGradient>
        <linearGradient x1="1.08432453%" y1="49.7587067%" x2="101.084325%" y2="50.2412933%" id="linearGradient-2">
            <stop stop-color="#00EBBF" offset="0%"></stop>
            <stop stop-color="#04B9FF" offset="50.2732993%"></stop>
            <stop stop-color="#7C39FF" offset="100%"></stop>
        </linearGradient>
    </defs>
    <g id="rigid-vert-color" stroke="none" stroke-width="1" fill="none" fill-rule="evenodd">
        <rect fill="#1D1D21" x="0" y="0" width="1080" height="1080"></rect>
        <g id="Group-5" transform="translate(550.110750, 535.291683) rotate(-270.000000) translate(-550.110750, -535.291683) translate(305.110750, 360.889250)" fill-rule="nonzero">
            <path d="M396,107.36827 L396,0 L292,79.4355 L198,7.6381342 L104,79.4355 L0,0 L0,107.36827 L104,186.804866 L198,115.0065 L292,186.804866 L396,107.36827 Z M104,104.603327 L198,32.8045 L292,104.603327 L376,40.4425 L376,97.4765 L292,161.6375 L198,89.8396728 L104,161.6375 L20,97.4775 L20,40.4425 L104,104.603327 Z" id="Path" fill="url(#linearGradient-1)"></path>
            <path d="M490,269.36827 L490,162 L386,241.4355 L292,169.638134 L198,241.4355 L94,162 L94,269.36827 L198,348.804866 L292,277.0065 L386,348.804866 L490,269.36827 Z M198,266.603327 L292,194.8045 L386,266.603327 L470,202.4425 L470,259.4765 L386,323.6375 L292,251.839673 L198,323.6375 L114,259.4775 L114,202.4425 L198,266.603327 Z" id="Path" fill="url(#linearGradient-2)" transform="translate(292.000000, 255.402433) scale(1, -1) translate(-292.000000, -255.402433) "></path>
        </g>
    </g>
</svg>