<?xml version="1.0" encoding="UTF-8"?>
<svg width="1080px" height="1080px" viewBox="0 0 1080 1080" version="1.1" xmlns="http://www.w3.org/2000/svg" xmlns:xlink="http://www.w3.org/1999/xlink">
    <title>connected-color</title>
    <defs>
        <linearGradient x1="50%" y1="100%" x2="52.1686491%" y2="0%" id="linearGradient-1">
            <stop stop-color="#7C39FF" offset="0%"></stop>
            <stop stop-color="#04B9FF" offset="49.7267007%"></stop>
            <stop stop-color="#00EBBF" offset="100%"></stop>
        </linearGradient>
    </defs>
    <g id="connected-color" stroke="none" stroke-width="1" fill="none" fill-rule="evenodd">
        <rect fill="#1D1D21" x="0" y="0" width="1080" height="1080"></rect>
        <path d="M334,332.824419 C334.483392,332.824419 334.950427,332.999493 335.314704,333.317252 L399.962741,389.7098 C400.833572,390.469427 401.333333,391.568548 401.333333,392.724135 L401.333333,628.164759 C401.333333,629.269329 402.228764,630.164759 403.333333,630.164759 C403.66974,630.164759 404.000712,630.079903 404.295621,629.918043 L576.797659,535.240493 C577.508322,534.850446 578.384144,534.92797 579.015245,535.436783 L642.510596,586.628798 C643.452438,587.388141 644,588.532961 644,589.742783 L644,671.466439 C644,672.571009 643.104569,673.466439 642,673.466439 C641.531425,673.466439 641.077725,673.301915 640.718062,673.001573 L574.674632,617.850949 C574.043141,617.323613 573.153146,617.236785 572.43164,617.632123 L334.961054,747.750236 C333.992368,748.281011 332.776815,747.926015 332.24604,746.957329 C332.084616,746.662725 332,746.332206 332,745.996276 L332,334.824419 C332,333.71985 332.895431,332.824419 334,332.824419 Z M747.75396,333.039321 C747.915384,333.333926 748,333.664444 748,334.000375 L748,745.172232 C748,746.276801 747.104569,747.172232 746,747.172232 C745.516608,747.172232 745.049573,746.997158 744.685296,746.679399 L680.037259,690.286851 C679.166428,689.527223 678.666667,688.428102 678.666667,687.272516 L678.666667,451.831891 C678.666667,450.727322 677.771236,449.831891 676.666667,449.831891 C676.33026,449.831891 675.999288,449.916748 675.704379,450.078608 L503.202341,544.756158 C502.491678,545.146205 501.615856,545.068681 500.984755,544.559867 L437.489404,493.367853 C436.547562,492.608509 436,491.46369 436,490.253868 L436,408.530211 C436,407.425642 436.895431,406.530211 438,406.530211 C438.468575,406.530211 438.922275,406.694736 439.281938,406.995078 L505.325368,462.145701 C505.956859,462.673037 506.846854,462.759865 507.56836,462.364528 L745.038946,332.246415 C746.007632,331.71564 747.223185,332.070636 747.75396,333.039321 Z" id="Combined-Shape" fill="url(#linearGradient-1)" fill-rule="nonzero"></path>
    </g>
</svg>