<?xml version="1.0" encoding="UTF-8"?>
<svg width="1080px" height="1080px" viewBox="0 0 1080 1080" version="1.1" xmlns="http://www.w3.org/2000/svg" xmlns:xlink="http://www.w3.org/1999/xlink">
    <title>connected-white</title>
    <g id="connected-white" stroke="none" stroke-width="1" fill="none" fill-rule="evenodd">
        <rect fill="#1D1D21" x="0" y="0" width="1080" height="1080"></rect>
        <path d="M334,332.826094 C334.483392,332.826094 334.950427,333.001167 335.314704,333.318926 L399.962741,389.711475 C400.833572,390.471102 401.333333,391.570223 401.333333,392.72581 L401.333333,628.166434 C401.333333,629.271004 402.228764,630.166434 403.333333,630.166434 C403.66974,630.166434 404.000712,630.081578 404.295621,629.919717 L576.797659,535.242167 C577.508322,534.852121 578.384144,534.929644 579.015245,535.438458 L642.510596,586.630472 C643.452438,587.389816 644,588.534636 644,589.744458 L644,671.468114 C644,672.572683 643.104569,673.468114 642,673.468114 C641.531425,673.468114 641.077725,673.30359 640.718062,673.003248 L574.674632,617.852624 C574.043141,617.325288 573.153146,617.23846 572.43164,617.633798 L334.961054,747.751911 C333.992368,748.282686 332.776815,747.92769 332.24604,746.959004 C332.084616,746.6644 332,746.333881 332,745.99795 L332,334.826094 C332,333.721524 332.895431,332.826094 334,332.826094 Z M747.75396,333.040996 C747.915384,333.3356 748,333.666119 748,334.00205 L748,745.173906 C748,746.278476 747.104569,747.173906 746,747.173906 C745.516608,747.173906 745.049573,746.998833 744.685296,746.681074 L680.037259,690.288525 C679.166428,689.528898 678.666667,688.429777 678.666667,687.27419 L678.666667,451.833566 C678.666667,450.728996 677.771236,449.833566 676.666667,449.833566 C676.33026,449.833566 675.999288,449.918422 675.704379,450.080283 L503.202341,544.757833 C502.491678,545.147879 501.615856,545.070356 500.984755,544.561542 L437.489404,493.369528 C436.547562,492.610184 436,491.465364 436,490.255542 L436,408.531886 C436,407.427317 436.895431,406.531886 438,406.531886 C438.468575,406.531886 438.922275,406.69641 439.281938,406.996752 L505.325368,462.147376 C505.956859,462.674712 506.846854,462.76154 507.56836,462.366202 L745.038946,332.248089 C746.007632,331.717314 747.223185,332.07231 747.75396,333.040996 Z" id="Combined-Shape" fill="#FFFFFF" fill-rule="nonzero"></path>
    </g>
</svg>