<?xml version="1.0" encoding="UTF-8"?>
<svg width="1080px" height="1080px" viewBox="0 0 1080 1080" version="1.1" xmlns="http://www.w3.org/2000/svg" xmlns:xlink="http://www.w3.org/1999/xlink">
    <title>waveform-horizontal-02-white</title>
    <g id="waveform-horizontal-02-white" stroke="none" stroke-width="1" fill="none" fill-rule="evenodd">
        <rect fill="#1D1D21" x="0" y="0" width="1080" height="1080"></rect>
        <g id="Group-4" transform="translate(185.000000, 444.000000)" fill="#FFFFFF" fill-rule="nonzero">
            <path d="M81.716012,81.6182207 C75.003471,96.5016272 60.0817763,106.855661 42.7516901,106.855661 C19.1405837,106.855661 0,87.6362169 0,63.9278307 C0,40.2194445 19.1405837,21 42.7516901,21 C59.527026,21 74.0456916,30.7017615 81.0463448,44.8222651 L91.4388267,44.8226291 C111.757123,44.8226291 126.61145,52.3473705 134.868807,66.9826413 C138.075593,72.6663216 140.028959,78.9269963 141.237052,86.1601348 C141.34229,86.7902187 141.439995,87.4065639 141.531471,88.0196516 L141.644949,88.8012333 L141.784772,89.8308834 L141.883479,90.6112079 L141.946671,91.1378499 L142.067553,92.2127345 L142.125584,92.7637234 L142.210099,93.6110021 L142.318958,94.7867339 L142.424693,96.0251376 L142.528672,97.3371985 L142.658257,99.0975902 L142.76328,100.615544 L143.058076,105.129463 L143.181919,106.919312 L143.306033,108.588044 L143.406161,109.839885 L143.507564,111.021166 L143.610731,112.134981 L143.689559,112.927927 L143.796993,113.931114 L143.907538,114.875336 L144.021683,115.763684 L144.10995,116.395138 L144.200724,116.998207 L144.294213,117.574194 L144.390622,118.124403 L144.456619,118.477533 L144.558355,118.98768 L144.628095,119.315308 L144.735732,119.789014 L144.809597,120.093556 L144.885219,120.38954 L145.002081,120.818316 L145.123241,121.230009 L145.206504,121.495625 L145.29183,121.754615 L145.379281,122.007365 L145.468917,122.254263 L145.5608,122.495693 L145.654992,122.732044 L145.80074,123.07789 L145.850543,123.191051 C145.890061,123.279892 145.929565,123.366321 145.969268,123.450424 L146.089186,123.695843 C146.109343,123.735612 146.129603,123.774821 146.149992,123.813482 L146.274095,124.038948 C147.030592,125.353271 148.023882,125.984546 150.494636,126.440535 L150.758938,126.487579 L150.888384,126.482343 C152.969741,126.389505 154.347772,126.077971 155.188132,125.681729 L155.286405,125.633782 C155.655788,125.447238 155.861025,125.255076 156.205689,124.710458 L156.361288,124.4554 L156.513465,124.186822 L156.662538,123.903393 L156.760352,123.705533 L156.904959,123.394399 L157.000092,123.176838 L157.094317,122.950707 L157.18773,122.715612 L157.280423,122.471159 L157.372492,122.216954 L157.509632,121.816501 L157.600554,121.536192 L157.736415,121.094737 L157.871934,120.626907 L158.007428,120.131374 L158.097903,119.78497 L158.188602,119.42527 L158.279622,119.051877 L158.462998,118.262442 L158.602072,117.631495 L158.790166,116.735877 L158.981994,115.775249 L159.228182,114.478243 L159.48286,113.068578 L159.693706,111.855597 L159.911686,110.563423 L160.137555,109.188904 L160.578278,106.479854 L160.877015,104.692389 L161.047413,103.699667 L161.212784,102.759462 L161.427734,101.577225 L161.639203,100.463574 L161.797394,99.6648281 L161.956696,98.8907245 L162.118421,98.13529 L162.283887,97.3925515 L162.454406,96.6565356 L162.631294,95.9212694 L162.815867,95.1807795 L163.009437,94.4290927 C164.596498,88.3587329 166.714658,83.0983019 169.80779,78.3288869 C177.827689,65.9627052 190.906324,59.5004677 208.072049,59.5004677 C226.360015,59.5004677 239.598248,68.6639712 246.471133,84.3321748 C248.899562,89.8682954 250.488216,95.9780105 251.629456,103.191586 C251.696117,103.612939 251.760209,104.027938 251.82216,104.440004 L251.966951,105.425085 L252.134379,106.626918 L252.291361,107.826488 L252.442993,109.061621 L252.561977,110.087541 L252.709718,111.43247 L252.798709,112.279752 L252.979764,114.083361 L253.200596,116.406599 L253.582928,120.649077 L253.884312,124.058871 L254.044761,125.801621 L254.205746,127.469657 L254.327134,128.673008 L254.490249,130.215714 L254.655262,131.689903 L254.822668,133.097827 L254.907423,133.777643 L254.992962,134.441739 L255.122876,135.409021 L255.254903,136.342514 L255.344197,136.946541 L255.434585,137.536254 L255.526128,138.111937 L255.618888,138.673869 L255.712928,139.222334 L255.808309,139.757612 L255.95403,140.536421 L256.053034,141.039966 L256.204481,141.772494 L256.359642,142.478522 L256.465249,142.934954 L256.572661,143.380312 L256.7373,144.028201 L256.849497,144.447107 L256.963715,144.855924 L257.13897,145.45085 L257.258515,145.835678 L257.380298,146.211405 L257.504382,146.57831 L257.630828,146.936676 L257.759699,147.286785 L257.891056,147.628918 L258.024961,147.963357 L258.161477,148.290384 L258.300664,148.610279 L258.442586,148.923326 L258.587303,149.229804 L258.734878,149.529997 L258.904635,149.860571 L259.075562,150.176795 C259.161446,150.331359 259.24806,150.480634 259.335838,150.624757 L259.513075,150.906173 C260.94545,153.103199 262.750134,154.004728 266.710041,154.174309 L267.180951,154.191361 L267.317732,154.169852 C271.046601,153.573087 272.593678,152.238233 274.076194,148.731049 L274.243863,148.324652 L274.391938,147.950125 L274.518167,147.619134 L274.641469,147.284414 L274.761913,146.945564 L274.879566,146.602184 L275.050962,146.077739 L275.216462,145.540841 L275.323634,145.175321 L275.479817,144.614656 L275.630717,144.037923 L275.776562,143.443768 L275.917582,142.830835 L276.054007,142.19777 L276.142518,141.763872 L276.229156,141.320023 L276.313989,140.865821 L276.397087,140.400863 L276.518626,139.682384 L276.636641,138.937447 L276.751361,138.164699 L276.863017,137.362783 L276.971836,136.530345 L277.07805,135.66603 L277.181888,134.768482 L277.317037,133.517713 L277.383351,132.868267 L277.513796,131.519241 L277.609988,130.462025 L277.736491,128.989232 L277.892568,127.042195 L277.985529,125.815007 L278.140055,123.667068 L278.232902,122.314519 L278.6895,115.29313 L278.859247,112.827312 L278.994933,110.971362 L279.097486,109.641103 L279.201325,108.359178 L279.306999,107.121489 L279.415057,105.92394 L279.526049,104.76243 L279.640522,103.632864 L279.759027,102.531141 L279.882112,101.453166 L280.010327,100.394838 L280.14422,99.3520617 L280.28434,98.3207372 L280.431238,97.2967671 L280.533205,96.6161824 L280.692617,95.5953629 L280.803435,94.9130841 C282.251082,86.1340553 284.470655,78.6046222 287.951813,71.8749013 C296.948158,54.4833066 313.290862,45.0131374 335.961403,44.8254732 L336.650325,44.8226291 L352.698631,44.8226291 C356.01234,44.8226291 358.698631,47.5089206 358.698631,50.8226291 C358.698631,51.066397 358.683776,51.3099383 358.654147,51.5518989 L355.617894,76.3471824 C355.249409,79.3563816 352.694055,81.6179126 349.662378,81.6179126 L336.650325,81.6179126 C331.141636,81.6179126 327.376724,82.4940214 324.886582,83.9183344 C323.074336,84.9549044 321.706145,86.4477837 320.471075,88.8354015 L320.29864,89.175361 L320.129927,89.5214622 C320.102115,89.5796743 320.074455,89.6381547 320.046947,89.6969099 L319.883698,90.052787 L319.724012,90.415557 C319.697691,90.4766098 319.671515,90.5379622 319.645484,90.5996207 L319.491022,90.9732933 L319.339961,91.35461 L319.265687,91.5482287 L319.265687,91.5482287 L319.11961,91.9415748 L319.047791,92.1413772 L319.047791,92.1413772 L318.906553,92.5474287 C318.883277,92.6158327 318.860132,92.6846054 318.837118,92.7537529 L318.700574,93.1731858 L318.567081,93.6019154 L318.436574,94.040242 C318.415068,94.1141129 318.393683,94.1883961 318.372419,94.2630981 L318.24627,94.7163836 L318.184259,94.9468881 L318.184259,94.9468881 L318.062325,95.4158087 L317.943119,95.8955281 L317.826579,96.3863468 L317.712641,96.8885654 L317.601239,97.4024843 L317.492311,97.928404 L317.385792,98.4666249 L317.281617,99.0174475 L317.179724,99.5811723 L317.080047,100.1581 L316.934549,101.048903 L316.840134,101.660151 L316.747711,102.285654 L316.657217,102.925712 L316.568588,103.580624 L316.481758,104.250692 L316.396665,104.936217 L316.313244,105.637498 L316.191108,106.71962 L316.072373,107.838885 L315.956824,108.996306 L315.844245,110.192898 L315.734418,111.429675 L315.627128,112.70765 L315.556904,113.583022 L315.419293,115.391252 L315.285039,117.278133 L314.687994,126.418548 L314.511987,128.943359 L314.342216,131.21163 L314.221929,132.703319 L314.10034,134.109216 L314.000875,135.184791 L313.845778,136.738796 L313.737053,137.749258 L313.593472,139.000513 L313.439618,140.256167 L313.307884,141.276486 C312.284696,149.036277 310.771546,155.643106 308.397737,161.662085 C301.928708,178.06482 289.279971,188.556454 270.862409,190.818448 L270.302536,190.884471 L269.280721,191 L268.252448,191 C248.51214,191 234.008927,182.036225 226.006336,166.079641 C223.039116,160.16322 221.068924,153.583543 219.682206,145.930726 L219.504837,144.930633 L219.335469,143.931719 L219.226638,143.264076 L219.068966,142.256527 L218.967249,141.57871 L218.819222,140.549272 L218.675999,139.50034 L218.536842,138.427143 L218.401013,137.32491 L218.311944,136.571601 L218.180021,135.410372 L218.049458,134.207384 L217.876214,132.530195 L217.702326,130.758978 L217.526045,128.882423 L216.88913,121.759795 L216.665658,119.386074 L216.482393,117.536839 L216.337012,116.138031 L216.228366,115.134174 L216.08362,113.85388 L215.974873,112.935831 L215.865731,112.052675 L215.719225,110.927457 L215.571137,109.859583 L215.420965,108.846374 L215.306665,108.12073 L215.190699,107.423198 L215.072854,106.75265 L214.912439,105.898605 L214.789388,105.286622 L214.663751,104.697855 L214.535318,104.131175 L214.448038,103.7651 L214.314474,103.23272 L214.177549,102.719412 L214.03705,102.224049 L213.941295,101.903217 L213.794371,101.435248 C213.77782,101.384102 213.761193,101.333232 213.744487,101.282632 L213.643309,100.982209 L213.487898,100.542971 L213.381769,100.257254 L213.27355,99.9768341 L213.163179,99.7013757 L212.993448,99.2967591 L212.752768,98.7525866 L212.637215,98.5012501 L212.525486,98.2675286 L212.416459,98.0507886 L212.309011,97.8503966 C211.791687,96.9203229 211.290352,96.5409162 210.234486,96.390322 L210.007931,96.3623239 L209.764429,96.3402221 L209.502856,96.3233831 L209.074158,96.3066068 L208.598486,96.2981088 L208.072049,96.2957512 C207.375785,96.2957512 206.735091,96.3155685 206.146792,96.3525507 L205.655294,96.3883916 C203.819837,96.541421 202.540257,96.8715793 201.704004,97.284777 C201.199391,97.5341099 200.910325,97.7985185 200.51503,98.4080389 L200.403679,98.5841318 L200.294028,98.7665665 L200.185978,98.9557428 L200.079433,99.1520606 L199.974295,99.3559199 L199.870469,99.5677204 L199.767856,99.787862 L199.66636,100.016745 L199.565883,100.254768 L199.466329,100.502332 L199.3676,100.759837 L199.2696,101.027682 L199.123753,101.449713 L199.027149,101.745159 L198.882943,102.210465 L198.787129,102.536011 L198.691462,102.874296 L198.548023,103.406485 L198.404367,103.969588 L198.260166,104.564954 L198.163568,104.980455 L198.017733,105.632592 L197.870479,106.32059 L197.72148,107.0458 L197.570409,107.809571 L197.36519,108.890248 L197.208008,109.749243 L196.993453,110.961783 L196.772495,112.254073 L196.486113,113.986456 L196.00192,116.963172 L195.777803,118.310447 L195.514574,119.852016 L195.265041,121.259149 L195.119622,122.049563 L194.928299,123.052089 L194.832952,123.535032 L194.641136,124.472481 L194.395658,125.607891 L194.191299,126.503092 L194.085498,126.950829 L193.864907,127.854777 L193.69022,128.546614 C192.155419,134.54448 190.118176,139.729124 187.133696,144.445022 C179.390193,156.680843 166.694896,163.175396 150.059163,163.304063 L149.553845,163.306013 L148.332991,163.306013 L147.12293,163.143367 C130.406161,160.896446 118.578122,152.104231 112.391903,138.196668 C110.174763,133.2122 108.773981,127.859724 107.85631,121.738542 L107.729108,120.863945 L107.599735,119.924928 L107.479855,119.001434 L107.368167,118.081236 L107.288995,117.385893 L107.164163,116.201811 L107.069244,115.218129 L107.000086,114.451099 L106.887064,113.101681 L106.774642,111.642773 L106.589669,109.021164 L106.46691,107.165803 L106.255048,103.906328 L106.125718,102.077062 L106.046959,101.036521 L105.913188,99.3938086 L105.803444,98.159092 L105.747519,97.5673273 L105.662165,96.7107608 L105.574896,95.8905193 L105.485534,95.1055091 L105.393902,94.3546369 L105.267887,93.4046875 L105.203117,92.9509325 L105.103609,92.2959133 L105.035626,91.8758369 L104.931054,91.2698171 L104.859531,90.8813945 L104.786499,90.5050664 L104.711906,90.1405088 L104.596976,89.6150334 L104.518251,89.2784846 L104.437782,88.9525725 L104.313691,88.482939 L104.22863,88.1822007 L104.097405,87.7488095 L104.007424,87.4712202 L103.915382,87.2023235 L103.821228,86.9417955 L103.724909,86.6893121 C103.708672,86.6478839 103.692343,86.6067775 103.675921,86.5659859 L103.576255,86.324962 L103.474293,86.0911727 L103.369982,85.8642941 L103.263269,85.6440022 L103.154101,85.4299729 L103.042427,85.2218824 C103.023603,85.1876775 103.004672,85.1537066 102.985634,85.1199629 C102.44119,84.1549948 101.922099,83.6461665 100.99109,83.1745462 C99.2014906,82.2679904 96.2299064,81.6486977 91.7756784,81.6190276 L91.4388267,81.6179126 Z M42.7516901,45.530189 C32.6326445,45.530189 24.4295372,53.7670937 24.4295372,63.9278307 C24.4295372,74.0885677 32.6326445,82.3254724 42.7516901,82.3254724 C52.8707358,82.3254724 61.0738431,74.0885677 61.0738431,63.9278307 C61.0738431,53.7670937 52.8707358,45.530189 42.7516901,45.530189 Z" id="Combined-Shape"></path>
            <path d="M432.2798,0 C452.039189,0 466.556421,8.9182311 474.566748,24.7937419 C477.536836,30.6801029 479.508932,37.2263494 480.896991,44.8402836 L481.074531,45.8352957 L481.244063,46.8291339 L481.352999,47.4933846 L481.510823,48.4958145 L481.612639,49.1701881 L481.760808,50.1943951 L481.90417,51.2379974 L482.043461,52.3057416 L482.179422,53.4023746 L482.268577,54.1518566 L482.400627,55.3071857 L482.531317,56.5040615 L482.704729,58.1727284 L482.878785,59.9349461 L483.055236,61.8019664 L483.692766,68.8884057 L483.916454,71.2500657 L484.099897,73.0899059 L484.245418,74.4816061 L484.354169,75.4803632 L484.499055,76.7541522 L484.607907,77.6675361 L484.717155,78.546205 L484.863802,79.6657057 L485.012033,80.7281544 L485.162351,81.7362157 L485.276761,82.4581729 L485.392839,83.1521603 L485.510798,83.819302 L485.671367,84.6690075 L485.794538,85.2778812 L485.920296,85.8636565 L486.048853,86.4274576 L486.136218,86.7916722 L486.269911,87.3213477 L486.406969,87.8320469 L486.547603,88.3248937 L486.643451,88.6440956 L486.790517,89.1096869 L486.840449,89.2615275 L486.840449,89.2615275 L486.941725,89.5604237 L487.097286,89.9974303 L487.203518,90.2816952 L487.311841,90.5606906 L487.422319,90.8347494 L487.592214,91.2373102 L487.833126,91.7787178 L487.948792,92.0287773 L488.060628,92.2613113 L488.169761,92.4769501 L488.277312,92.6763239 C488.795136,93.601672 489.296957,93.979151 490.353843,94.1289801 L490.580617,94.1568359 L490.824354,94.1788255 L491.08618,94.1955789 L491.515292,94.21227 L491.991425,94.2207248 L492.51837,94.2230704 C493.215307,94.2230704 493.856621,94.2033538 494.445488,94.1665594 L494.937461,94.1309007 C496.774692,93.9786488 498.055509,93.6501679 498.89257,93.2390697 C499.397671,92.9910036 499.687017,92.7279384 500.082694,92.1215149 L500.194152,91.9463167 L500.30391,91.764809 L500.412064,91.5765938 L500.518712,91.3812735 L500.623951,91.17845 L500.727878,90.9677256 L500.83059,90.7487025 L500.932184,90.5209828 L501.032758,90.2841687 L501.132409,90.0378624 L501.231233,89.7816659 L501.329328,89.5151816 L501.475315,89.0952949 L501.572012,88.8013502 L501.716359,88.3384082 L501.812265,88.0145167 L501.908025,87.6779503 L502.051602,87.1484648 L502.195397,86.588223 L502.339737,85.9958821 L502.436428,85.5824922 L502.582405,84.933669 L502.729801,84.2491661 L502.878944,83.527641 L503.030161,82.7677508 L503.235579,81.6925642 L503.392913,80.8379341 L503.607675,79.6315541 L503.828846,78.3458303 L504.115505,76.6222496 L504.600166,73.6606573 L504.8245,72.3202281 L505.087983,70.7864917 L505.337757,69.3865081 L505.483317,68.6001099 L505.674825,67.6026775 L505.770264,67.1221882 L505.962266,66.1895023 L506.207981,65.0598617 L506.412538,64.1692087 L506.51844,63.7237468 L506.739244,62.824391 L506.9141,62.1360694 C508.450385,56.168678 510.489598,51.0103761 513.476963,46.3184389 C521.22795,34.144786 533.935519,27.6832313 550.587331,27.5552175 L551.093138,27.5532776 L552.315172,27.5532776 L553.526403,27.715097 C570.25933,29.9506018 582.098802,38.6981451 588.291001,52.5350461 C590.510284,57.494189 591.91242,62.8194699 592.830979,68.9095503 L592.958303,69.7797037 L593.087802,70.71395 L593.207797,71.6327516 L593.319593,72.5482747 L593.398842,73.2400843 L593.523794,74.4181501 L593.618805,75.3968347 L593.68803,76.1599675 L593.801161,77.5025286 L593.913692,78.9540248 L594.098843,81.5623138 L594.221721,83.4082477 L594.433788,86.651162 L594.563243,88.4711337 L594.642078,89.5063874 L594.775978,91.1407537 L594.885828,92.3691969 L594.941808,92.957955 L595.027244,93.8101694 L595.114598,94.6262434 L595.204046,95.407265 L595.295767,96.1543221 L595.421903,97.099445 L595.486736,97.5508946 L595.58634,98.2025857 L595.654388,98.6205277 L595.759062,99.2234685 L595.830654,99.6099176 L595.903757,99.9843336 L595.978422,100.347039 L596.093463,100.869844 L596.172264,101.204683 L596.252811,101.52894 L596.377021,101.996187 L596.462165,102.295397 L596.593516,102.726586 L596.683585,103.002765 L596.775715,103.270296 L596.86996,103.5295 L596.966373,103.780701 C596.982625,103.821918 596.99897,103.862816 597.015408,103.9034 L597.11517,104.143199 L597.217231,104.375801 L597.321643,104.601527 L597.428459,104.820699 L597.537732,105.033641 L597.649514,105.240674 C597.668357,105.274706 597.687306,105.308504 597.706363,105.342076 C598.251333,106.302141 598.770925,106.808384 599.702834,107.277608 C601.494164,108.179558 604.46862,108.795704 608.927154,108.825224 L609.264331,108.826333 L662.576076,108.826 L646.946245,93.2267256 C642.226352,88.5160203 642.172101,80.9121 646.78349,76.1348839 L646.946245,75.9693924 C651.666137,71.2586871 659.284886,71.2045411 664.071419,75.8069543 L664.237233,75.9693924 L706.418919,118.068974 C711.138811,122.77968 711.193063,130.3836 706.581674,135.160816 L706.418919,135.326307 L664.237233,177.425889 C659.462459,182.19137 651.721019,182.19137 646.946245,177.425889 C642.226352,172.715184 642.172101,165.111264 646.78349,160.334048 L646.946245,160.168556 L661.708076,145.434 L609.264331,145.434665 C588.926395,145.434665 574.057709,137.948156 565.79237,123.387245 C562.582485,117.732442 560.627231,111.503577 559.41797,104.307189 C559.31263,103.680307 559.214831,103.067093 559.123266,102.45712 L559.009679,101.67951 L558.869721,100.655091 L558.770918,99.8787313 L558.707665,99.3547651 L558.586667,98.2853419 L558.528579,97.7371524 L558.443982,96.8941787 L558.335019,95.7244206 L558.229181,94.492309 L558.125102,93.1869146 L557.995391,91.4354671 L557.890267,89.9252254 L557.595186,85.4342417 L557.471223,83.6534866 L557.34699,81.9932324 L557.246765,80.7477527 L557.145264,79.5724728 L557.041997,78.464317 L556.963092,77.6754 L556.855555,76.6773101 L556.744903,75.7378857 L556.630647,74.854051 L556.542295,74.2258054 L556.451433,73.6258011 L556.357854,73.0527407 L556.261352,72.5053264 L556.195291,72.1539906 L556.093456,71.6464363 L556.023649,71.3204724 L555.915908,70.8491736 L555.841972,70.5461785 L555.766276,70.2516981 L555.649302,69.8251015 L555.528025,69.4155002 L555.444681,69.1512338 L555.359272,68.8935597 L555.271737,68.6420933 L555.182014,68.3964503 L555.090042,68.1562462 L554.99576,67.9210964 L554.849871,67.5770077 L554.80002,67.4644221 C554.760464,67.3760318 554.720922,67.2900421 554.68118,67.2063664 L554.561146,66.9621947 C554.540969,66.9226276 554.52069,66.8836173 554.500281,66.8451531 L554.376058,66.6208331 C553.61883,65.3131875 552.62458,64.6851202 550.151438,64.2314474 L549.88688,64.184643 L549.75731,64.1898527 C547.673941,64.2822189 546.294577,64.5921698 545.453405,64.9863987 L545.355037,65.0341022 C544.985297,65.2196979 544.779861,65.4108836 544.434864,65.9527342 L544.279115,66.2064962 L544.126791,66.4737102 L543.977574,66.7556991 L543.879665,66.9525533 L543.734918,67.2621069 L543.639693,67.4785625 L543.545377,67.7035445 L543.451875,67.9374449 L543.359092,68.1806558 L543.266933,68.433569 L543.129661,68.8319883 L543.038651,69.1108723 L542.902659,69.550085 L542.767009,70.0155378 L542.631383,70.5085534 L542.540822,70.8531964 L542.450035,71.2110696 L542.358927,71.5825647 L542.175373,72.3679891 L542.036165,72.9957304 L541.847889,73.8867982 L541.655875,74.8425453 L541.40945,76.1329616 L541.154526,77.5354634 L540.943475,78.7422821 L540.725285,80.0278908 L540.499198,81.3954255 L540.058049,84.0907113 L539.759023,85.8690945 L539.588461,86.8567727 L539.422929,87.7922005 L539.207772,88.9684309 L538.996099,90.0764237 L538.837754,90.8711112 L538.678299,91.6412817 L538.516417,92.392878 L538.350792,93.1318428 L538.180107,93.864119 L538.003048,94.5956495 L537.818297,95.3323771 L537.62454,96.0802446 C536.035945,102.119762 533.915737,107.353465 530.819616,112.098648 C522.791965,124.401999 509.700687,130.831402 492.51837,130.831402 C474.212727,130.831402 460.961697,121.714457 454.082169,106.125862 C451.651393,100.617869 450.061203,94.5391967 448.91886,87.362272 C448.852134,86.9430598 448.787981,86.5301699 448.72597,86.1201973 L448.581039,85.1401211 L448.413449,83.9443946 L448.256315,82.7509199 L448.104537,81.5220625 L447.985437,80.5013545 L447.837554,79.1632589 L447.748477,78.3202815 L447.567247,76.5258371 L447.346202,74.2144033 L446.963499,69.9934804 L446.661824,66.6010105 L446.50122,64.8671151 L446.34008,63.2075547 L446.218574,62.0103181 L446.055301,60.4754495 L445.890129,59.008751 L445.722561,57.6079807 L445.637724,56.9316181 L445.552103,56.270897 L445.422063,55.3085298 L445.289909,54.3797796 L445.200528,53.7788218 L445.110053,53.1921043 L445.018422,52.6193468 L444.925571,52.0602692 L444.831441,51.5145912 L444.735968,50.9820327 L444.590106,50.2071807 L444.491006,49.7061946 L444.339413,48.9773879 L444.184102,48.2749473 L444.078393,47.8208345 L443.970877,47.3777393 L443.806079,46.7331418 L443.693774,46.316365 L443.579444,45.9096252 L443.40402,45.3177217 L443.28436,44.9348483 L443.162459,44.5610311 L443.038255,44.1959898 L442.911687,43.8394443 L442.782691,43.4911142 L442.651207,43.1507195 L442.517173,42.8179798 L442.380525,42.492615 L442.241203,42.1743448 L442.099145,41.8628889 L441.954287,41.5579673 L441.80657,41.2592996 L441.636649,40.9304051 L441.465557,40.6157885 C441.379589,40.4620091 441.292892,40.3134927 441.205029,40.1701024 L441.027621,39.8901159 C439.593861,37.7042533 437.787433,36.8073044 433.823698,36.638585 L433.352332,36.6216197 L433.215419,36.6430193 C429.482946,37.2367522 427.934374,38.5648245 426.450425,42.0541888 L426.282593,42.4585208 L426.134376,42.8311444 L426.008025,43.1604546 L425.884603,43.4934738 L425.764043,43.8306015 L425.646276,44.1722372 L425.474714,44.6940173 L425.309054,45.2281876 L425.201779,45.5918503 L425.045445,46.1496671 L424.894399,46.7234694 L424.748413,47.3146057 L424.607256,47.9244241 L424.4707,48.5542729 L424.382104,48.985966 L424.295382,49.4275602 L424.210466,49.8794551 L424.127289,50.3420501 L424.005632,51.0568791 L423.887503,51.7980307 L423.772672,52.5668529 L423.660908,53.364694 L423.551983,54.1929025 L423.445667,55.0528265 L423.341729,55.9458143 L423.206449,57.1902276 L423.140071,57.8363744 L423.0095,59.1785457 L422.913215,60.2303902 L422.78659,61.6957008 L422.630361,63.6328445 L422.537311,64.8537972 L422.382635,66.9908237 L422.289699,68.3364999 L421.83266,75.3222146 L421.662748,77.7755037 L421.526931,79.6220237 L421.424279,80.9455246 L421.320339,82.2209363 L421.214563,83.4523362 L421.106401,84.6438015 L420.995302,85.7994092 L420.880718,86.9232368 L420.762099,88.0193613 L420.638895,89.0918599 L420.510556,90.14481 L420.376534,91.1822886 L420.236278,92.208373 L420.089238,93.2271405 L419.987172,93.9042672 L419.827607,94.9199001 L419.716681,95.5987124 C418.267635,104.333136 416.045916,111.824313 412.561393,118.519842 C403.556353,135.823072 387.197852,145.245125 364.505397,145.431835 L363.815809,145.434665 L347.342076,145.434665 C344.028368,145.434665 341.342076,142.748374 341.342076,139.434665 C341.342076,139.162481 341.360597,138.890613 341.397511,138.620943 L344.766022,114.012611 C345.172782,111.041065 347.711331,108.826333 350.710587,108.826333 L363.815809,108.826333 C369.329823,108.826333 373.098374,107.954676 375.590923,106.537599 C377.404921,105.506296 378.774435,104.021002 380.010698,101.645515 L380.1833,101.307283 L380.352176,100.96294 C380.380015,100.905024 380.407701,100.846841 380.435236,100.788384 L380.598643,100.434315 L380.758484,100.073388 C380.78483,100.012646 380.811031,99.9516049 380.837087,99.8902597 L380.991699,99.5184856 L381.142905,99.1391064 C381.167826,99.0752261 381.192608,99.0110166 381.217251,98.9464714 L381.36347,98.5551239 C381.387567,98.4892116 381.41153,98.4229512 381.435358,98.3563366 L381.576732,97.9523482 C381.600031,97.8842917 381.623198,97.8158685 381.646235,97.7470724 L381.78291,97.3297705 L381.916532,96.9032192 L382.047166,96.4671197 L382.111382,96.2453959 L382.111382,96.2453959 L382.237653,95.7944135 C382.258461,95.7184001 382.279151,95.6419577 382.299724,95.5650801 L382.421777,95.0985421 L382.541097,94.6212601 L382.65775,94.1329351 L382.771799,93.6332681 L382.883308,93.1219604 L382.992341,92.5987128 L383.098964,92.0632266 L383.203239,91.5152026 L383.305231,90.9543421 L383.405003,90.380346 L383.550643,89.4940687 L383.645149,88.8859259 L383.737661,88.2636013 L383.828242,87.6267959 L383.916957,86.9752108 L384.003871,86.308547 L384.089046,85.6265056 L384.172548,84.9287877 L384.294802,83.8521635 L384.413652,82.7385856 L384.529312,81.587045 L384.642001,80.3965329 L384.751934,79.1660403 L384.859327,77.8945583 L384.929619,77.0236336 L385.067363,75.2245906 L385.201747,73.3472967 L385.799369,64.2533235 L385.975546,61.7413408 L386.145481,59.4845945 L386.265884,58.0004843 L386.387591,56.60173 L386.487153,55.5316199 L386.642399,53.9855103 L386.751229,52.9801823 L386.894949,51.7352855 L387.048952,50.4860106 L387.180813,49.4708757 C388.204991,41.7505116 389.719603,35.1772503 392.095706,29.1888533 C398.570989,12.8694583 411.231952,2.43113038 429.667316,0.180630044 L430.227731,0.114941664 L431.250533,0 L432.2798,0 Z" id="Combined-Shape"></path>
        </g>
    </g>
</svg>