<?xml version="1.0" encoding="UTF-8"?>
<svg width="1080px" height="1620px" viewBox="0 0 1080 1620" version="1.1" xmlns="http://www.w3.org/2000/svg" xmlns:xlink="http://www.w3.org/1999/xlink">
    <title>waveform-horizontal-type</title>
    <defs>
        <linearGradient x1="50%" y1="63.3925823%" x2="52.1686491%" y2="36.6074177%" id="linearGradient-1">
            <stop stop-color="#7C39FF" offset="0%"></stop>
            <stop stop-color="#04B9FF" offset="49.7267007%"></stop>
            <stop stop-color="#00EBBF" offset="100%"></stop>
        </linearGradient>
    </defs>
    <g id="waveform-horizontal-type" stroke="none" stroke-width="1" fill="none" fill-rule="evenodd">
        <rect fill="#1D1D21" x="0" y="0" width="1080" height="1620"></rect>
        <g id="Group-3" transform="translate(429.000000, 192.000000)" fill="url(#linearGradient-1)" fill-rule="nonzero">
            <path d="M35.0749683,18 C43.0591754,18 48.9251761,21.617952 52.1619211,28.0583363 C53.3620493,30.4463179 54.158917,33.1020021 54.7197922,36.1908263 L54.7915312,36.5944833 L54.8600341,36.997664 L54.9040521,37.2671375 L54.9678246,37.6738037 L55.0089654,37.9473839 L55.0688364,38.3628847 L55.1267646,38.7862537 L55.1830484,39.2194167 L55.2379862,39.6642992 L55.2918766,40.122827 L55.327369,40.4370438 L55.3801769,40.922593 L55.4502477,41.5995385 L55.5205788,42.3144358 L55.5918776,43.0718494 L55.8494856,45.9466792 L55.9398714,46.9047585 L56.0139955,47.6511457 L56.0727964,48.2157313 L56.1167398,48.6209075 L56.1752839,49.1376588 L56.2192677,49.5082008 L56.2781769,49.9804284 L56.3375738,50.4287004 L56.3825637,50.7498338 L56.4433028,51.1587845 L56.4895326,51.4516685 L56.5364366,51.7332056 L56.5841004,52.0038519 L56.6489821,52.3485608 L56.6987519,52.595569 L56.7495671,52.8332066 L56.8015133,53.0619297 L56.8368148,53.2096844 L56.8908365,53.4245634 L56.9462176,53.6317441 L57.0030439,53.8316824 L57.0417732,53.9611763 L57.1011984,54.1500576 C57.1078926,54.1707012 57.1146178,54.1912332 57.1213745,54.2116564 L57.1830502,54.3926042 L57.2251553,54.5101978 L57.2680803,54.6255185 L57.3118507,54.7387015 L57.3564918,54.8498818 L57.4251416,55.0131928 L57.5224873,55.2328313 L57.5692244,55.3342755 L57.6144144,55.42861 L57.6585117,55.5160905 C57.6657954,55.5301136 57.6730525,55.5438618 57.6802924,55.5573403 L57.7236019,55.635019 L57.766954,55.7064829 C57.9410528,55.9802493 58.1270719,56.1109943 58.4558051,56.1723506 L58.5410373,56.1862867 L58.63267,56.1975873 L58.7311575,56.2065081 C58.7481685,56.2078107 58.7654841,56.2090249 58.7831137,56.2101559 L58.8927347,56.2159862 L59.0103458,56.2200758 L59.2027373,56.2235058 L59.4156611,56.2244574 C60.7030313,56.2244574 61.5207096,56.0573016 61.9912939,55.8252675 C62.195391,55.724632 62.3123072,55.6179115 62.4721891,55.3718974 L62.5172262,55.3008229 L62.5615762,55.2271888 L62.6052782,55.1508336 L62.6483717,55.0715959 L62.6908957,54.9893144 L62.7328897,54.9038276 L62.7743927,54.8149742 L62.8154441,54.7225928 L62.8560831,54.626522 L62.896349,54.5266003 L62.936281,54.4226664 L62.9759184,54.3145589 L63.0349079,54.1442191 L63.0739804,54.0249715 L63.1323066,53.837165 L63.1710595,53.7057685 L63.2097533,53.5692301 L63.2484273,53.4273883 L63.2871206,53.2800818 L63.3258725,53.1271491 L63.3841961,52.8868479 L63.4232663,52.7191437 L63.4822513,52.4559288 L63.5418097,52.1782394 L63.6020741,51.8855308 L63.6631768,51.5772582 L63.7461802,51.141076 L63.8097543,50.7943693 L63.8965337,50.3049645 L63.9859026,49.7833715 L64.1017334,49.0841485 L64.2975712,47.8826884 L64.3882179,47.3389025 L64.494684,46.7166956 L64.5956106,46.1487497 L64.6544271,45.8297233 L64.7318101,45.4250844 L64.809043,45.0392809 L64.8479568,44.8517869 L64.9472434,44.3935138 L65.0088954,44.122413 L65.0726911,43.8514781 L65.1619118,43.486627 L65.2325661,43.2073884 C65.8533352,40.7865344 66.6773229,38.6939122 67.8844321,36.790485 C71.0163855,31.8518721 76.1511526,29.2305456 82.8796765,29.178613 L83.0840586,29.177826 L83.5778479,29.177826 L84.0672719,29.243473 C90.8285717,30.1503736 95.6125656,33.6990808 98.1146571,39.312441 C99.0423286,41.3936417 99.6166502,43.6337978 99.9868375,46.2119527 C100.01923,46.4375498 100.049327,46.6567999 100.077598,46.8741115 L100.123872,47.2415347 L100.177,47.6977527 L100.207084,47.9760159 L100.245535,48.3563644 L100.300655,48.9562674 L100.354183,49.6052887 L100.389807,50.0729586 L100.44438,50.8384985 L100.596782,53.1526822 L100.649091,53.8910091 L100.680947,54.3109913 L100.735052,54.9740218 L100.779439,55.4723771 L100.802059,55.7112248 L100.836581,56.0569515 L100.871878,56.3880168 L100.908022,56.704862 L100.945084,57.0079284 L100.996052,57.3913463 L101.022249,57.5744906 L101.062496,57.8388689 L101.089992,58.0084198 L101.132288,58.2530211 L101.161216,58.4097959 L101.190755,58.5616892 L101.220925,58.7088317 L101.26741,58.9209236 L101.299251,59.0567612 L101.331798,59.1883056 L101.381988,59.3778587 L101.416392,59.4992425 L101.451576,59.6167908 L101.487561,59.7306344 L101.543089,59.8947398 L101.600538,60.0512452 L101.639942,60.1515779 L101.680253,60.2488598 L101.721493,60.3432216 L101.763683,60.4347942 L101.806844,60.5237082 L101.850998,60.6100946 L101.896166,60.6940839 C101.90378,60.7078897 101.911436,60.721601 101.919137,60.7352206 C102.139344,61.1247003 102.349296,61.3300732 102.725854,61.5204282 C103.286819,61.8040033 104.134923,62.017939 105.326772,62.1054285 L105.56176,62.1207677 C105.840956,62.1367858 106.137865,62.1461698 106.453139,62.1482655 L106.589383,62.1487155 L114,62.1487155 L114,77 L106.589383,77 C98.3714015,77 92.3633885,73.9628696 89.0236003,68.0557926 C87.7265769,65.7617499 86.9365145,63.2348211 86.4478864,60.3153872 C86.4053217,60.0610732 86.3658036,59.8123044 86.328805,59.5648504 L86.2829075,59.249389 L86.2263546,58.8338024 L86.1864312,58.5188484 L86.1608725,58.3062856 L86.1119804,57.8724415 L86.088509,57.6500517 L86.0543257,57.3080738 L86.0102966,56.8335258 L85.9675306,56.3336822 L85.9254751,55.8041092 L85.8730627,55.0935812 L85.8305849,54.4809057 L85.7113512,52.6590014 L85.6612614,51.9365839 L85.6110622,51.2630512 L85.5705642,50.7577844 L85.5295505,50.2809964 L85.4878232,49.8314392 L85.4559402,49.511391 L85.4124874,49.1064855 L85.3677762,48.7253794 L85.3216086,48.3668249 L85.285908,48.1119579 L85.2491932,47.8685479 L85.2113807,47.6360685 L85.1723868,47.4139933 L85.1321281,47.2017957 L85.104545,47.0655583 L85.0619925,46.8686539 L85.0328029,46.7421245 L85.0029272,46.6192053 L84.9723409,46.4997403 L84.9250747,46.3266784 L84.8926033,46.2151667 L84.8423934,46.0533035 L84.8078822,45.9487701 L84.7725117,45.8467551 L84.7362572,45.7471026 L84.6990939,45.6496565 L84.6609972,45.5542608 L84.6020475,45.4146707 L84.581904,45.368997 C84.5659206,45.3331387 84.5499427,45.2982544 84.5338844,45.2643088 L84.4853819,45.1652531 C84.1674272,44.5392402 83.7861479,44.2568257 82.7035444,44.0574423 L82.5959031,44.0385096 L82.5442883,44.0405682 C81.7024582,44.0780393 81.1450965,44.2037803 80.8052028,44.3637113 L80.7654552,44.3830637 C80.6160538,44.4583562 80.5330431,44.5359165 80.3936395,44.7557347 L80.3307055,44.858681 L80.2895266,44.9303105 L80.2489247,45.0045245 L80.2088617,45.0814819 L80.1692994,45.1613418 L80.1108112,45.2869216 L80.0723336,45.3747334 L80.0342231,45.4660042 L79.9964414,45.5608931 L79.9589504,45.6595589 L79.9217119,45.7621609 L79.866244,45.9237918 L79.8294696,46.0369296 L79.7928141,46.15456 L79.7562392,46.276842 L79.7014446,46.4693347 L79.6466166,46.673188 L79.5916263,46.8889386 L79.5548124,47.0396469 L79.4806436,47.3582782 L79.4243934,47.6129406 L79.3483165,47.9744294 L79.2707292,48.3621573 L79.1711557,48.8856539 L79.0681482,49.4546215 L78.9611099,50.0715445 L78.8265034,50.8786517 L78.6250929,52.1139574 L78.5457996,52.5898576 L78.4305559,53.2635948 L78.3751384,53.5781405 L78.3207876,53.879631 L78.2672012,54.1694361 L78.1875941,54.5852307 L78.1345969,54.8518163 L78.0544569,55.2392032 L78.0001601,55.4911315 L77.9448147,55.7395944 L77.8881184,55.9859619 L77.8297691,56.2316038 L77.7694646,56.4778903 L77.7069026,56.7261912 L77.6417811,56.9778766 C76.9998753,59.4279907 76.1431595,61.5512019 74.8921049,63.4762296 C71.6483595,68.4674585 66.3585467,71.0757419 59.4156611,71.0757419 C52.0188713,71.0757419 46.6645071,67.3771755 43.8846855,61.053187 C42.9024779,58.8187022 42.2599277,56.3527036 41.7983392,53.4411656 C41.7498077,53.1350464 41.7046436,52.8372373 41.6618353,52.5396824 L41.5941169,52.0545996 L41.5306238,51.5704302 L41.4692943,51.0719068 L41.4211697,50.6578255 L41.3614142,50.1149863 L41.3254208,49.7730068 L41.2521907,49.0450358 L41.1628728,48.1073324 L41.0082336,46.3949865 L40.8863353,45.0187277 L40.8214398,44.3153203 L40.7563275,43.6420691 L40.7072305,43.1563736 L40.6412567,42.5337074 L40.5745153,41.9386965 L40.523835,41.51004 L40.4725257,41.0960443 L40.4379283,40.8280027 L40.385383,40.4375891 L40.3319833,40.0608133 L40.2958672,39.8170165 L40.2593088,39.5789967 L40.222283,39.3466402 L40.1847649,39.1198333 L40.1467295,38.8984624 L40.1081515,38.6824138 L40.0492128,38.3680715 L40.0091693,38.1648313 L39.9479148,37.8691686 L39.8851582,37.5842022 L39.8424442,37.3999775 L39.799,37.2202225 L39.7324097,36.9587219 L39.6870304,36.7896437 L39.6408333,36.6246373 L39.5937933,36.463589 L39.5458854,36.3063852 L39.4970845,36.1529121 L39.4473657,36.003056 L39.3967038,35.8567034 L39.3450739,35.7137405 C39.3363868,35.6901895 39.3276584,35.666775 39.318888,35.6434947 L39.2657591,35.5054032 L39.2115994,35.3704172 L39.1563841,35.238423 L39.100088,35.109307 L39.0426862,34.9829555 L38.9841536,34.8592548 L38.9244651,34.7380911 L38.8558049,34.6046651 L38.7866715,34.4770313 C38.7519343,34.414646 38.7169024,34.3543958 38.6813996,34.2962251 L38.609714,34.1826401 C38.1148598,33.4251978 37.5101388,33.0492543 36.3461478,32.9130572 L36.1717631,32.8948209 L35.9890806,32.8799088 C35.8644567,32.8710535 35.7340924,32.8643486 35.5975702,32.8596623 L35.5078542,32.8569775 L35.4530255,32.8653565 C33.9448392,33.1062223 33.3191052,33.6449953 32.7194839,35.0605621 L32.6516677,35.2245917 L32.5917772,35.3757578 L32.5407224,35.5093525 L32.4908514,35.6444519 L32.4421365,35.781218 L32.3711717,35.9898469 L32.3252269,36.1314889 L32.2582883,36.3481914 L32.2149415,36.4957222 L32.1517712,36.7220176 L32.090738,36.954798 L32.0317492,37.1946104 L31.9747118,37.4420018 L31.9195331,37.6975192 L31.883734,37.8726486 L31.8486922,38.0517947 L31.8143802,38.2351197 L31.7642204,38.5182967 L31.7316125,38.7127776 L31.6838799,39.0134483 L31.6374798,39.3253444 L31.5923195,39.649013 L31.548306,39.9850009 L31.5053465,40.3338553 L31.4633482,40.696123 L31.4086852,41.2009571 L31.3818638,41.4630862 L31.3291038,42.0075789 L31.2901978,42.4342916 L31.2390321,43.0287395 L31.1759048,43.8146008 L31.1383059,44.3099175 L31.0758056,45.1768673 L31.0382529,45.7227819 L30.8535763,48.5567497 L30.7849197,49.5520011 L30.7300399,50.3010982 L30.6885611,50.8380166 L30.6465622,51.3554262 L30.603821,51.8549811 L30.5601156,52.3383353 L30.5152238,52.8071427 L30.4689236,53.2630576 L30.4209929,53.7077339 L30.3712096,54.1428256 L30.3193517,54.5699868 L30.265197,54.9908716 L30.2085236,55.407134 C30.2020783,55.4531899 30.1955824,55.4991907 30.1890343,55.5451468 L30.1491092,55.8204281 C30.1017746,56.1411534 30.0517513,56.4606862 29.9985693,56.7825284 C29.4130511,60.3259134 28.5153177,63.3649375 27.1073211,66.0811824 C23.4686404,73.1007647 16.8586355,76.9231072 7.6892599,76.9988521 L7.41061706,77 L0,77 L0,62.1487155 L7.41061706,62.1487155 C9.63867321,62.1487155 11.1614374,61.7951011 12.1686056,61.220221 C12.9015907,60.8018414 13.4549723,60.1992866 13.9545112,59.2355981 L14.0242548,59.0983839 L14.0924926,58.9586907 C14.1037416,58.9351952 14.1149288,58.9115914 14.126055,58.8878767 L14.192083,58.7442378 L14.25667,58.5978169 C14.2673159,58.5731748 14.2779028,58.5484118 14.2884313,58.5235252 L14.3509056,58.3727038 L14.4120038,58.218797 C14.4220736,58.1928821 14.4320872,58.1668335 14.442045,58.1406488 L14.5011277,57.9818868 C14.5108648,57.9551474 14.5205473,57.9282669 14.5301757,57.9012426 L14.5873011,57.7373525 C14.5967153,57.7097433 14.6060764,57.6819853 14.615385,57.654076 L14.6706116,57.4847848 L14.7246046,57.3117413 L14.8033378,57.0448753 L14.8543604,56.8619205 C14.8627682,56.8310834 14.8711283,56.8000722 14.8794414,56.7688844 L14.9287594,56.5796191 L14.9769735,56.3859951 L15.0241094,56.1878912 L15.0701933,55.9851861 L15.115251,55.7777586 L15.1593084,55.5654873 L15.2023914,55.3482509 L15.2445259,55.1259283 L15.285738,54.8983982 L15.3260534,54.6655392 L15.3849021,54.3059939 L15.4230894,54.0592822 L15.4604707,53.8068173 L15.4970721,53.5484778 L15.5329194,53.2841424 L15.5680386,53.01369 L15.6024556,52.7369991 L15.652821,52.3100006 L15.7017522,51.8682835 L15.7336194,51.5654264 L15.7803546,51.0982689 L15.8258888,50.6153014 L15.8703096,50.1161147 L15.9137043,49.6002993 L15.9421073,49.2469821 L15.9977655,48.5171456 L16.0520663,47.7555641 L16.2935484,44.066317 L16.3647367,43.0472547 L16.4334025,42.1317369 L16.482054,41.5296624 L16.5312323,40.9622151 L16.5714622,40.5280924 L16.6341928,39.900866 L16.678168,39.4930241 L16.7362412,38.9879938 L16.7984692,38.4811874 L16.8517507,38.069367 C17.2655916,34.9373662 17.8776034,32.2707226 18.837719,29.8413471 C21.4541966,23.2208876 26.5701316,18.9862621 34.019338,18.0732781 L34.2457855,18.0466296 L34.6590711,18 L35.0749683,18 Z" id="Path" transform="translate(57.000000, 47.500000) scale(-1, -1) translate(-57.000000, -47.500000) "></path>
            <path d="M143.074968,0 C151.059175,0 156.925176,3.61795198 160.161921,10.0583363 C161.362049,12.4463179 162.158917,15.1020021 162.719792,18.1908263 L162.791531,18.5944833 L162.860034,18.997664 L162.904052,19.2671375 L162.967825,19.6738037 L163.008965,19.9473839 L163.068836,20.3628847 L163.126765,20.7862537 L163.183048,21.2194167 L163.237986,21.6642992 L163.291877,22.122827 L163.327369,22.4370438 L163.380177,22.922593 L163.450248,23.5995385 L163.520579,24.3144358 L163.591878,25.0718494 L163.849486,27.9466792 L163.939871,28.9047585 L164.013995,29.6511457 L164.072796,30.2157313 L164.11674,30.6209075 L164.175284,31.1376588 L164.219268,31.5082008 L164.278177,31.9804284 L164.337574,32.4287004 L164.382564,32.7498338 L164.443303,33.1587845 L164.489533,33.4516685 L164.536437,33.7332056 L164.5841,34.0038519 L164.648982,34.3485608 L164.698752,34.595569 L164.749567,34.8332066 L164.801513,35.0619297 L164.836815,35.2096844 L164.890836,35.4245634 L164.946218,35.6317441 L165.003044,35.8316824 L165.041773,35.9611763 L165.101198,36.1500576 C165.107893,36.1707012 165.114618,36.1912332 165.121375,36.2116564 L165.18305,36.3926042 L165.225155,36.5101978 L165.26808,36.6255185 L165.311851,36.7387015 L165.356492,36.8498818 L165.425142,37.0131928 L165.522487,37.2328313 L165.569224,37.3342755 L165.614414,37.42861 L165.658512,37.5160905 C165.665795,37.5301136 165.673052,37.5438618 165.680292,37.5573403 L165.723602,37.635019 L165.766954,37.7064829 C165.941053,37.9802493 166.127072,38.1109943 166.455805,38.1723506 L166.541037,38.1862867 L166.63267,38.1975873 L166.731157,38.2065081 C166.748169,38.2078107 166.765484,38.2090249 166.783114,38.2101559 L166.892735,38.2159862 L167.010346,38.2200758 L167.202737,38.2235058 L167.415661,38.2244574 C168.703031,38.2244574 169.52071,38.0573016 169.991294,37.8252675 C170.195391,37.724632 170.312307,37.6179115 170.472189,37.3718974 L170.517226,37.3008229 L170.561576,37.2271888 L170.605278,37.1508336 L170.648372,37.0715959 L170.690896,36.9893144 L170.73289,36.9038276 L170.774393,36.8149742 L170.815444,36.7225928 L170.856083,36.626522 L170.896349,36.5266003 L170.936281,36.4226664 L170.975918,36.3145589 L171.034908,36.1442191 L171.07398,36.0249715 L171.132307,35.837165 L171.17106,35.7057685 L171.209753,35.5692301 L171.248427,35.4273883 L171.287121,35.2800818 L171.325872,35.1271491 L171.384196,34.8868479 L171.423266,34.7191437 L171.482251,34.4559288 L171.54181,34.1782394 L171.602074,33.8855308 L171.663177,33.5772582 L171.74618,33.141076 L171.809754,32.7943693 L171.896534,32.3049645 L171.985903,31.7833715 L172.101733,31.0841485 L172.297571,29.8826884 L172.388218,29.3389025 L172.494684,28.7166956 L172.595611,28.1487497 L172.654427,27.8297233 L172.73181,27.4250844 L172.809043,27.0392809 L172.847957,26.8517869 L172.947243,26.3935138 L173.008895,26.122413 L173.072691,25.8514781 L173.161912,25.486627 L173.232566,25.2073884 C173.853335,22.7865344 174.677323,20.6939122 175.884432,18.790485 C179.016385,13.8518721 184.151153,11.2305456 190.879677,11.178613 L191.084059,11.177826 L191.577848,11.177826 L192.067272,11.243473 C198.828572,12.1503736 203.612566,15.6990808 206.114657,21.312441 C207.042329,23.3936417 207.61665,25.6337978 207.986837,28.2119527 C208.01923,28.4375498 208.049327,28.6567999 208.077598,28.8741115 L208.123872,29.2415347 L208.177,29.6977527 L208.207084,29.9760159 L208.245535,30.3563644 L208.300655,30.9562674 L208.354183,31.6052887 L208.389807,32.0729586 L208.44438,32.8384985 L208.596782,35.1526822 L208.649091,35.8910091 L208.680947,36.3109913 L208.735052,36.9740218 L208.779439,37.4723771 L208.802059,37.7112248 L208.836581,38.0569515 L208.871878,38.3880168 L208.908022,38.704862 L208.945084,39.0079284 L208.996052,39.3913463 L209.022249,39.5744906 L209.062496,39.8388689 L209.089992,40.0084198 L209.132288,40.2530211 L209.161216,40.4097959 L209.190755,40.5616892 L209.220925,40.7088317 L209.26741,40.9209236 L209.299251,41.0567612 L209.331798,41.1883056 L209.381988,41.3778587 L209.416392,41.4992425 L209.451576,41.6167908 L209.487561,41.7306344 L209.543089,41.8947398 L209.600538,42.0512452 L209.639942,42.1515779 L209.680253,42.2488598 L209.721493,42.3432216 L209.763683,42.4347942 L209.806844,42.5237082 L209.850998,42.6100946 L209.896166,42.6940839 C209.90378,42.7078897 209.911436,42.721601 209.919137,42.7352206 C210.139344,43.1247003 210.349296,43.3300732 210.725854,43.5204282 C211.286819,43.8040033 212.134923,44.017939 213.326772,44.1054285 L213.56176,44.1207677 C213.840956,44.1367858 214.137865,44.1461698 214.453139,44.1482655 L214.589383,44.1487155 L222,44.1487155 L222,59 L214.589383,59 C206.371401,59 200.363389,55.9628696 197.0236,50.0557926 C195.726577,47.7617499 194.936515,45.2348211 194.447886,42.3153872 C194.405322,42.0610732 194.365804,41.8123044 194.328805,41.5648504 L194.282908,41.249389 L194.226355,40.8338024 L194.186431,40.5188484 L194.160872,40.3062856 L194.11198,39.8724415 L194.088509,39.6500517 L194.054326,39.3080738 L194.010297,38.8335258 L193.967531,38.3336822 L193.925475,37.8041092 L193.873063,37.0935812 L193.830585,36.4809057 L193.711351,34.6590014 L193.661261,33.9365839 L193.611062,33.2630512 L193.570564,32.7577844 L193.529551,32.2809964 L193.487823,31.8314392 L193.45594,31.511391 L193.412487,31.1064855 L193.367776,30.7253794 L193.321609,30.3668249 L193.285908,30.1119579 L193.249193,29.8685479 L193.211381,29.6360685 L193.172387,29.4139933 L193.132128,29.2017957 L193.104545,29.0655583 L193.061993,28.8686539 L193.032803,28.7421245 L193.002927,28.6192053 L192.972341,28.4997403 L192.925075,28.3266784 L192.892603,28.2151667 L192.842393,28.0533035 L192.807882,27.9487701 L192.772512,27.8467551 L192.736257,27.7471026 L192.699094,27.6496565 L192.660997,27.5542608 L192.602047,27.4146707 L192.581904,27.368997 C192.565921,27.3331387 192.549943,27.2982544 192.533884,27.2643088 L192.485382,27.1652531 C192.167427,26.5392402 191.786148,26.2568257 190.703544,26.0574423 L190.595903,26.0385096 L190.544288,26.0405682 C189.702458,26.0780393 189.145096,26.2037803 188.805203,26.3637113 L188.765455,26.3830637 C188.616054,26.4583562 188.533043,26.5359165 188.39364,26.7557347 L188.330706,26.858681 L188.289527,26.9303105 L188.248925,27.0045245 L188.208862,27.0814819 L188.169299,27.1613418 L188.110811,27.2869216 L188.072334,27.3747334 L188.034223,27.4660042 L187.996441,27.5608931 L187.95895,27.6595589 L187.921712,27.7621609 L187.866244,27.9237918 L187.82947,28.0369296 L187.792814,28.15456 L187.756239,28.276842 L187.701445,28.4693347 L187.646617,28.673188 L187.591626,28.8889386 L187.554812,29.0396469 L187.480644,29.3582782 L187.424393,29.6129406 L187.348317,29.9744294 L187.270729,30.3621573 L187.171156,30.8856539 L187.068148,31.4546215 L186.96111,32.0715445 L186.826503,32.8786517 L186.625093,34.1139574 L186.5458,34.5898576 L186.430556,35.2635948 L186.375138,35.5781405 L186.320788,35.879631 L186.267201,36.1694361 L186.187594,36.5852307 L186.134597,36.8518163 L186.054457,37.2392032 L186.00016,37.4911315 L185.944815,37.7395944 L185.888118,37.9859619 L185.829769,38.2316038 L185.769465,38.4778903 L185.706903,38.7261912 L185.641781,38.9778766 C184.999875,41.4279907 184.14316,43.5512019 182.892105,45.4762296 C179.648359,50.4674585 174.358547,53.0757419 167.415661,53.0757419 C160.018871,53.0757419 154.664507,49.3771755 151.884685,43.053187 C150.902478,40.8187022 150.259928,38.3527036 149.798339,35.4411656 C149.749808,35.1350464 149.704644,34.8372373 149.661835,34.5396824 L149.594117,34.0545996 L149.530624,33.5704302 L149.469294,33.0719068 L149.42117,32.6578255 L149.361414,32.1149863 L149.325421,31.7730068 L149.252191,31.0450358 L149.162873,30.1073324 L149.008234,28.3949865 L148.886335,27.0187277 L148.82144,26.3153203 L148.756327,25.6420691 L148.70723,25.1563736 L148.641257,24.5337074 L148.574515,23.9386965 L148.523835,23.51004 L148.472526,23.0960443 L148.437928,22.8280027 L148.385383,22.4375891 L148.331983,22.0608133 L148.295867,21.8170165 L148.259309,21.5789967 L148.222283,21.3466402 L148.184765,21.1198333 L148.146729,20.8984624 L148.108152,20.6824138 L148.049213,20.3680715 L148.009169,20.1648313 L147.947915,19.8691686 L147.885158,19.5842022 L147.842444,19.3999775 L147.799,19.2202225 L147.73241,18.9587219 L147.68703,18.7896437 L147.640833,18.6246373 L147.593793,18.463589 L147.545885,18.3063852 L147.497085,18.1529121 L147.447366,18.003056 L147.396704,17.8567034 L147.345074,17.7137405 C147.336387,17.6901895 147.327658,17.666775 147.318888,17.6434947 L147.265759,17.5054032 L147.211599,17.3704172 L147.156384,17.238423 L147.100088,17.109307 L147.042686,16.9829555 L146.984154,16.8592548 L146.924465,16.7380911 L146.855805,16.6046651 L146.786671,16.4770313 C146.751934,16.414646 146.716902,16.3543958 146.6814,16.2962251 L146.609714,16.1826401 C146.11486,15.4251978 145.510139,15.0492543 144.346148,14.9130572 L144.171763,14.8948209 L143.989081,14.8799088 C143.864457,14.8710535 143.734092,14.8643486 143.59757,14.8596623 L143.507854,14.8569775 L143.453025,14.8653565 C141.944839,15.1062223 141.319105,15.6449953 140.719484,17.0605621 L140.651668,17.2245917 L140.591777,17.3757578 L140.540722,17.5093525 L140.490851,17.6444519 L140.442136,17.781218 L140.371172,17.9898469 L140.325227,18.1314889 L140.258288,18.3481914 L140.214942,18.4957222 L140.151771,18.7220176 L140.090738,18.954798 L140.031749,19.1946104 L139.974712,19.4420018 L139.919533,19.6975192 L139.883734,19.8726486 L139.848692,20.0517947 L139.81438,20.2351197 L139.76422,20.5182967 L139.731612,20.7127776 L139.68388,21.0134483 L139.63748,21.3253444 L139.592319,21.649013 L139.548306,21.9850009 L139.505346,22.3338553 L139.463348,22.696123 L139.408685,23.2009571 L139.381864,23.4630862 L139.329104,24.0075789 L139.290198,24.4342916 L139.239032,25.0287395 L139.175905,25.8146008 L139.138306,26.3099175 L139.075806,27.1768673 L139.038253,27.7227819 L138.853576,30.5567497 L138.78492,31.5520011 L138.73004,32.3010982 L138.688561,32.8380166 L138.646562,33.3554262 L138.603821,33.8549811 L138.560116,34.3383353 L138.515224,34.8071427 L138.468924,35.2630576 L138.420993,35.7077339 L138.37121,36.1428256 L138.319352,36.5699868 L138.265197,36.9908716 L138.208524,37.407134 C138.202078,37.4531899 138.195582,37.4991907 138.189034,37.5451468 L138.149109,37.8204281 C138.101775,38.1411534 138.051751,38.4606862 137.998569,38.7825284 C137.413051,42.3259134 136.515318,45.3649375 135.107321,48.0811824 C131.46864,55.1007647 124.858635,58.9231072 115.68926,58.9988521 L115.410617,59 L108,59 L108,44.1487155 L115.410617,44.1487155 C117.638673,44.1487155 119.161437,43.7951011 120.168606,43.220221 C120.901591,42.8018414 121.454972,42.1992866 121.954511,41.2355981 L122.024255,41.0983839 L122.092493,40.9586907 C122.103742,40.9351952 122.114929,40.9115914 122.126055,40.8878767 L122.192083,40.7442378 L122.25667,40.5978169 C122.267316,40.5731748 122.277903,40.5484118 122.288431,40.5235252 L122.350906,40.3727038 L122.412004,40.218797 C122.422074,40.1928821 122.432087,40.1668335 122.442045,40.1406488 L122.501128,39.9818868 C122.510865,39.9551474 122.520547,39.9282669 122.530176,39.9012426 L122.587301,39.7373525 C122.596715,39.7097433 122.606076,39.6819853 122.615385,39.654076 L122.670612,39.4847848 L122.724605,39.3117413 L122.803338,39.0448753 L122.85436,38.8619205 C122.862768,38.8310834 122.871128,38.8000722 122.879441,38.7688844 L122.928759,38.5796191 L122.976973,38.3859951 L123.024109,38.1878912 L123.070193,37.9851861 L123.115251,37.7777586 L123.159308,37.5654873 L123.202391,37.3482509 L123.244526,37.1259283 L123.285738,36.8983982 L123.326053,36.6655392 L123.384902,36.3059939 L123.423089,36.0592822 L123.460471,35.8068173 L123.497072,35.5484778 L123.532919,35.2841424 L123.568039,35.01369 L123.602456,34.7369991 L123.652821,34.3100006 L123.701752,33.8682835 L123.733619,33.5654264 L123.780355,33.0982689 L123.825889,32.6153014 L123.87031,32.1161147 L123.913704,31.6002993 L123.942107,31.2469821 L123.997766,30.5171456 L124.052066,29.7555641 L124.293548,26.066317 L124.364737,25.0472547 L124.433403,24.1317369 L124.482054,23.5296624 L124.531232,22.9622151 L124.571462,22.5280924 L124.634193,21.900866 L124.678168,21.4930241 L124.736241,20.9879938 L124.798469,20.4811874 L124.851751,20.069367 C125.265592,16.9373662 125.877603,14.2707226 126.837719,11.8413471 C129.454197,5.2208876 134.570132,0.986262062 142.019338,0.0732780771 L142.245786,0.0466295855 L142.659071,0 L143.074968,0 Z" id="Path"></path>
        </g>
        <g id="Group-2" transform="translate(210.000000, 757.577164)">
            <g id="Group-3" transform="translate(0.000000, 14.000000)"></g>
            <text id="WebMob" font-family="Poppins-Bold, Poppins" font-size="74" font-weight="bold" fill="#FFFFFF">
                <tspan x="251.003" y="78">WebMob</tspan>
            </text>
        </g>
        <g id="Group" transform="translate(264.000000, 1297.577164)">
            <g id="Group-3" transform="translate(179.000000, 13.422836)" fill="url(#linearGradient-1)" fill-rule="nonzero">
                <path d="M35.0749683,18 C43.0591754,18 48.9251761,21.617952 52.1619211,28.0583363 C53.3620493,30.4463179 54.158917,33.1020021 54.7197922,36.1908263 L54.7915312,36.5944833 L54.8600341,36.997664 L54.9040521,37.2671375 L54.9678246,37.6738037 L55.0089654,37.9473839 L55.0688364,38.3628847 L55.1267646,38.7862537 L55.1830484,39.2194167 L55.2379862,39.6642992 L55.2918766,40.122827 L55.327369,40.4370438 L55.3801769,40.922593 L55.4502477,41.5995385 L55.5205788,42.3144358 L55.5918776,43.0718494 L55.8494856,45.9466792 L55.9398714,46.9047585 L56.0139955,47.6511457 L56.0727964,48.2157313 L56.1167398,48.6209075 L56.1752839,49.1376588 L56.2192677,49.5082008 L56.2781769,49.9804284 L56.3375738,50.4287004 L56.3825637,50.7498338 L56.4433028,51.1587845 L56.4895326,51.4516685 L56.5364366,51.7332056 L56.5841004,52.0038519 L56.6489821,52.3485608 L56.6987519,52.595569 L56.7495671,52.8332066 L56.8015133,53.0619297 L56.8368148,53.2096844 L56.8908365,53.4245634 L56.9462176,53.6317441 L57.0030439,53.8316824 L57.0417732,53.9611763 L57.1011984,54.1500576 C57.1078926,54.1707012 57.1146178,54.1912332 57.1213745,54.2116564 L57.1830502,54.3926042 L57.2251553,54.5101978 L57.2680803,54.6255185 L57.3118507,54.7387015 L57.3564918,54.8498818 L57.4251416,55.0131928 L57.5224873,55.2328313 L57.5692244,55.3342755 L57.6144144,55.42861 L57.6585117,55.5160905 C57.6657954,55.5301136 57.6730525,55.5438618 57.6802924,55.5573403 L57.7236019,55.635019 L57.766954,55.7064829 C57.9410528,55.9802493 58.1270719,56.1109943 58.4558051,56.1723506 L58.5410373,56.1862867 L58.63267,56.1975873 L58.7311575,56.2065081 C58.7481685,56.2078107 58.7654841,56.2090249 58.7831137,56.2101559 L58.8927347,56.2159862 L59.0103458,56.2200758 L59.2027373,56.2235058 L59.4156611,56.2244574 C60.7030313,56.2244574 61.5207096,56.0573016 61.9912939,55.8252675 C62.195391,55.724632 62.3123072,55.6179115 62.4721891,55.3718974 L62.5172262,55.3008229 L62.5615762,55.2271888 L62.6052782,55.1508336 L62.6483717,55.0715959 L62.6908957,54.9893144 L62.7328897,54.9038276 L62.7743927,54.8149742 L62.8154441,54.7225928 L62.8560831,54.626522 L62.896349,54.5266003 L62.936281,54.4226664 L62.9759184,54.3145589 L63.0349079,54.1442191 L63.0739804,54.0249715 L63.1323066,53.837165 L63.1710595,53.7057685 L63.2097533,53.5692301 L63.2484273,53.4273883 L63.2871206,53.2800818 L63.3258725,53.1271491 L63.3841961,52.8868479 L63.4232663,52.7191437 L63.4822513,52.4559288 L63.5418097,52.1782394 L63.6020741,51.8855308 L63.6631768,51.5772582 L63.7461802,51.141076 L63.8097543,50.7943693 L63.8965337,50.3049645 L63.9859026,49.7833715 L64.1017334,49.0841485 L64.2975712,47.8826884 L64.3882179,47.3389025 L64.494684,46.7166956 L64.5956106,46.1487497 L64.6544271,45.8297233 L64.7318101,45.4250844 L64.809043,45.0392809 L64.8479568,44.8517869 L64.9472434,44.3935138 L65.0088954,44.122413 L65.0726911,43.8514781 L65.1619118,43.486627 L65.2325661,43.2073884 C65.8533352,40.7865344 66.6773229,38.6939122 67.8844321,36.790485 C71.0163855,31.8518721 76.1511526,29.2305456 82.8796765,29.178613 L83.0840586,29.177826 L83.5778479,29.177826 L84.0672719,29.243473 C90.8285717,30.1503736 95.6125656,33.6990808 98.1146571,39.312441 C99.0423286,41.3936417 99.6166502,43.6337978 99.9868375,46.2119527 C100.01923,46.4375498 100.049327,46.6567999 100.077598,46.8741115 L100.123872,47.2415347 L100.177,47.6977527 L100.207084,47.9760159 L100.245535,48.3563644 L100.300655,48.9562674 L100.354183,49.6052887 L100.389807,50.0729586 L100.44438,50.8384985 L100.596782,53.1526822 L100.649091,53.8910091 L100.680947,54.3109913 L100.735052,54.9740218 L100.779439,55.4723771 L100.802059,55.7112248 L100.836581,56.0569515 L100.871878,56.3880168 L100.908022,56.704862 L100.945084,57.0079284 L100.996052,57.3913463 L101.022249,57.5744906 L101.062496,57.8388689 L101.089992,58.0084198 L101.132288,58.2530211 L101.161216,58.4097959 L101.190755,58.5616892 L101.220925,58.7088317 L101.26741,58.9209236 L101.299251,59.0567612 L101.331798,59.1883056 L101.381988,59.3778587 L101.416392,59.4992425 L101.451576,59.6167908 L101.487561,59.7306344 L101.543089,59.8947398 L101.600538,60.0512452 L101.639942,60.1515779 L101.680253,60.2488598 L101.721493,60.3432216 L101.763683,60.4347942 L101.806844,60.5237082 L101.850998,60.6100946 L101.896166,60.6940839 C101.90378,60.7078897 101.911436,60.721601 101.919137,60.7352206 C102.139344,61.1247003 102.349296,61.3300732 102.725854,61.5204282 C103.286819,61.8040033 104.134923,62.017939 105.326772,62.1054285 L105.56176,62.1207677 C105.840956,62.1367858 106.137865,62.1461698 106.453139,62.1482655 L106.589383,62.1487155 L114,62.1487155 L114,77 L106.589383,77 C98.3714015,77 92.3633885,73.9628696 89.0236003,68.0557926 C87.7265769,65.7617499 86.9365145,63.2348211 86.4478864,60.3153872 C86.4053217,60.0610732 86.3658036,59.8123044 86.328805,59.5648504 L86.2829075,59.249389 L86.2263546,58.8338024 L86.1864312,58.5188484 L86.1608725,58.3062856 L86.1119804,57.8724415 L86.088509,57.6500517 L86.0543257,57.3080738 L86.0102966,56.8335258 L85.9675306,56.3336822 L85.9254751,55.8041092 L85.8730627,55.0935812 L85.8305849,54.4809057 L85.7113512,52.6590014 L85.6612614,51.9365839 L85.6110622,51.2630512 L85.5705642,50.7577844 L85.5295505,50.2809964 L85.4878232,49.8314392 L85.4559402,49.511391 L85.4124874,49.1064855 L85.3677762,48.7253794 L85.3216086,48.3668249 L85.285908,48.1119579 L85.2491932,47.8685479 L85.2113807,47.6360685 L85.1723868,47.4139933 L85.1321281,47.2017957 L85.104545,47.0655583 L85.0619925,46.8686539 L85.0328029,46.7421245 L85.0029272,46.6192053 L84.9723409,46.4997403 L84.9250747,46.3266784 L84.8926033,46.2151667 L84.8423934,46.0533035 L84.8078822,45.9487701 L84.7725117,45.8467551 L84.7362572,45.7471026 L84.6990939,45.6496565 L84.6609972,45.5542608 L84.6020475,45.4146707 L84.581904,45.368997 C84.5659206,45.3331387 84.5499427,45.2982544 84.5338844,45.2643088 L84.4853819,45.1652531 C84.1674272,44.5392402 83.7861479,44.2568257 82.7035444,44.0574423 L82.5959031,44.0385096 L82.5442883,44.0405682 C81.7024582,44.0780393 81.1450965,44.2037803 80.8052028,44.3637113 L80.7654552,44.3830637 C80.6160538,44.4583562 80.5330431,44.5359165 80.3936395,44.7557347 L80.3307055,44.858681 L80.2895266,44.9303105 L80.2489247,45.0045245 L80.2088617,45.0814819 L80.1692994,45.1613418 L80.1108112,45.2869216 L80.0723336,45.3747334 L80.0342231,45.4660042 L79.9964414,45.5608931 L79.9589504,45.6595589 L79.9217119,45.7621609 L79.866244,45.9237918 L79.8294696,46.0369296 L79.7928141,46.15456 L79.7562392,46.276842 L79.7014446,46.4693347 L79.6466166,46.673188 L79.5916263,46.8889386 L79.5548124,47.0396469 L79.4806436,47.3582782 L79.4243934,47.6129406 L79.3483165,47.9744294 L79.2707292,48.3621573 L79.1711557,48.8856539 L79.0681482,49.4546215 L78.9611099,50.0715445 L78.8265034,50.8786517 L78.6250929,52.1139574 L78.5457996,52.5898576 L78.4305559,53.2635948 L78.3751384,53.5781405 L78.3207876,53.879631 L78.2672012,54.1694361 L78.1875941,54.5852307 L78.1345969,54.8518163 L78.0544569,55.2392032 L78.0001601,55.4911315 L77.9448147,55.7395944 L77.8881184,55.9859619 L77.8297691,56.2316038 L77.7694646,56.4778903 L77.7069026,56.7261912 L77.6417811,56.9778766 C76.9998753,59.4279907 76.1431595,61.5512019 74.8921049,63.4762296 C71.6483595,68.4674585 66.3585467,71.0757419 59.4156611,71.0757419 C52.0188713,71.0757419 46.6645071,67.3771755 43.8846855,61.053187 C42.9024779,58.8187022 42.2599277,56.3527036 41.7983392,53.4411656 C41.7498077,53.1350464 41.7046436,52.8372373 41.6618353,52.5396824 L41.5941169,52.0545996 L41.5306238,51.5704302 L41.4692943,51.0719068 L41.4211697,50.6578255 L41.3614142,50.1149863 L41.3254208,49.7730068 L41.2521907,49.0450358 L41.1628728,48.1073324 L41.0082336,46.3949865 L40.8863353,45.0187277 L40.8214398,44.3153203 L40.7563275,43.6420691 L40.7072305,43.1563736 L40.6412567,42.5337074 L40.5745153,41.9386965 L40.523835,41.51004 L40.4725257,41.0960443 L40.4379283,40.8280027 L40.385383,40.4375891 L40.3319833,40.0608133 L40.2958672,39.8170165 L40.2593088,39.5789967 L40.222283,39.3466402 L40.1847649,39.1198333 L40.1467295,38.8984624 L40.1081515,38.6824138 L40.0492128,38.3680715 L40.0091693,38.1648313 L39.9479148,37.8691686 L39.8851582,37.5842022 L39.8424442,37.3999775 L39.799,37.2202225 L39.7324097,36.9587219 L39.6870304,36.7896437 L39.6408333,36.6246373 L39.5937933,36.463589 L39.5458854,36.3063852 L39.4970845,36.1529121 L39.4473657,36.003056 L39.3967038,35.8567034 L39.3450739,35.7137405 C39.3363868,35.6901895 39.3276584,35.666775 39.318888,35.6434947 L39.2657591,35.5054032 L39.2115994,35.3704172 L39.1563841,35.238423 L39.100088,35.109307 L39.0426862,34.9829555 L38.9841536,34.8592548 L38.9244651,34.7380911 L38.8558049,34.6046651 L38.7866715,34.4770313 C38.7519343,34.414646 38.7169024,34.3543958 38.6813996,34.2962251 L38.609714,34.1826401 C38.1148598,33.4251978 37.5101388,33.0492543 36.3461478,32.9130572 L36.1717631,32.8948209 L35.9890806,32.8799088 C35.8644567,32.8710535 35.7340924,32.8643486 35.5975702,32.8596623 L35.5078542,32.8569775 L35.4530255,32.8653565 C33.9448392,33.1062223 33.3191052,33.6449953 32.7194839,35.0605621 L32.6516677,35.2245917 L32.5917772,35.3757578 L32.5407224,35.5093525 L32.4908514,35.6444519 L32.4421365,35.781218 L32.3711717,35.9898469 L32.3252269,36.1314889 L32.2582883,36.3481914 L32.2149415,36.4957222 L32.1517712,36.7220176 L32.090738,36.954798 L32.0317492,37.1946104 L31.9747118,37.4420018 L31.9195331,37.6975192 L31.883734,37.8726486 L31.8486922,38.0517947 L31.8143802,38.2351197 L31.7642204,38.5182967 L31.7316125,38.7127776 L31.6838799,39.0134483 L31.6374798,39.3253444 L31.5923195,39.649013 L31.548306,39.9850009 L31.5053465,40.3338553 L31.4633482,40.696123 L31.4086852,41.2009571 L31.3818638,41.4630862 L31.3291038,42.0075789 L31.2901978,42.4342916 L31.2390321,43.0287395 L31.1759048,43.8146008 L31.1383059,44.3099175 L31.0758056,45.1768673 L31.0382529,45.7227819 L30.8535763,48.5567497 L30.7849197,49.5520011 L30.7300399,50.3010982 L30.6885611,50.8380166 L30.6465622,51.3554262 L30.603821,51.8549811 L30.5601156,52.3383353 L30.5152238,52.8071427 L30.4689236,53.2630576 L30.4209929,53.7077339 L30.3712096,54.1428256 L30.3193517,54.5699868 L30.265197,54.9908716 L30.2085236,55.407134 C30.2020783,55.4531899 30.1955824,55.4991907 30.1890343,55.5451468 L30.1491092,55.8204281 C30.1017746,56.1411534 30.0517513,56.4606862 29.9985693,56.7825284 C29.4130511,60.3259134 28.5153177,63.3649375 27.1073211,66.0811824 C23.4686404,73.1007647 16.8586355,76.9231072 7.6892599,76.9988521 L7.41061706,77 L0,77 L0,62.1487155 L7.41061706,62.1487155 C9.63867321,62.1487155 11.1614374,61.7951011 12.1686056,61.220221 C12.9015907,60.8018414 13.4549723,60.1992866 13.9545112,59.2355981 L14.0242548,59.0983839 L14.0924926,58.9586907 C14.1037416,58.9351952 14.1149288,58.9115914 14.126055,58.8878767 L14.192083,58.7442378 L14.25667,58.5978169 C14.2673159,58.5731748 14.2779028,58.5484118 14.2884313,58.5235252 L14.3509056,58.3727038 L14.4120038,58.218797 C14.4220736,58.1928821 14.4320872,58.1668335 14.442045,58.1406488 L14.5011277,57.9818868 C14.5108648,57.9551474 14.5205473,57.9282669 14.5301757,57.9012426 L14.5873011,57.7373525 C14.5967153,57.7097433 14.6060764,57.6819853 14.615385,57.654076 L14.6706116,57.4847848 L14.7246046,57.3117413 L14.8033378,57.0448753 L14.8543604,56.8619205 C14.8627682,56.8310834 14.8711283,56.8000722 14.8794414,56.7688844 L14.9287594,56.5796191 L14.9769735,56.3859951 L15.0241094,56.1878912 L15.0701933,55.9851861 L15.115251,55.7777586 L15.1593084,55.5654873 L15.2023914,55.3482509 L15.2445259,55.1259283 L15.285738,54.8983982 L15.3260534,54.6655392 L15.3849021,54.3059939 L15.4230894,54.0592822 L15.4604707,53.8068173 L15.4970721,53.5484778 L15.5329194,53.2841424 L15.5680386,53.01369 L15.6024556,52.7369991 L15.652821,52.3100006 L15.7017522,51.8682835 L15.7336194,51.5654264 L15.7803546,51.0982689 L15.8258888,50.6153014 L15.8703096,50.1161147 L15.9137043,49.6002993 L15.9421073,49.2469821 L15.9977655,48.5171456 L16.0520663,47.7555641 L16.2935484,44.066317 L16.3647367,43.0472547 L16.4334025,42.1317369 L16.482054,41.5296624 L16.5312323,40.9622151 L16.5714622,40.5280924 L16.6341928,39.900866 L16.678168,39.4930241 L16.7362412,38.9879938 L16.7984692,38.4811874 L16.8517507,38.069367 C17.2655916,34.9373662 17.8776034,32.2707226 18.837719,29.8413471 C21.4541966,23.2208876 26.5701316,18.9862621 34.019338,18.0732781 L34.2457855,18.0466296 L34.6590711,18 L35.0749683,18 Z" id="Path" transform="translate(57.000000, 47.500000) scale(-1, -1) translate(-57.000000, -47.500000) "></path>
                <path d="M143.074968,0 C151.059175,0 156.925176,3.61795198 160.161921,10.0583363 C161.362049,12.4463179 162.158917,15.1020021 162.719792,18.1908263 L162.791531,18.5944833 L162.860034,18.997664 L162.904052,19.2671375 L162.967825,19.6738037 L163.008965,19.9473839 L163.068836,20.3628847 L163.126765,20.7862537 L163.183048,21.2194167 L163.237986,21.6642992 L163.291877,22.122827 L163.327369,22.4370438 L163.380177,22.922593 L163.450248,23.5995385 L163.520579,24.3144358 L163.591878,25.0718494 L163.849486,27.9466792 L163.939871,28.9047585 L164.013995,29.6511457 L164.072796,30.2157313 L164.11674,30.6209075 L164.175284,31.1376588 L164.219268,31.5082008 L164.278177,31.9804284 L164.337574,32.4287004 L164.382564,32.7498338 L164.443303,33.1587845 L164.489533,33.4516685 L164.536437,33.7332056 L164.5841,34.0038519 L164.648982,34.3485608 L164.698752,34.595569 L164.749567,34.8332066 L164.801513,35.0619297 L164.836815,35.2096844 L164.890836,35.4245634 L164.946218,35.6317441 L165.003044,35.8316824 L165.041773,35.9611763 L165.101198,36.1500576 C165.107893,36.1707012 165.114618,36.1912332 165.121375,36.2116564 L165.18305,36.3926042 L165.225155,36.5101978 L165.26808,36.6255185 L165.311851,36.7387015 L165.356492,36.8498818 L165.425142,37.0131928 L165.522487,37.2328313 L165.569224,37.3342755 L165.614414,37.42861 L165.658512,37.5160905 C165.665795,37.5301136 165.673052,37.5438618 165.680292,37.5573403 L165.723602,37.635019 L165.766954,37.7064829 C165.941053,37.9802493 166.127072,38.1109943 166.455805,38.1723506 L166.541037,38.1862867 L166.63267,38.1975873 L166.731157,38.2065081 C166.748169,38.2078107 166.765484,38.2090249 166.783114,38.2101559 L166.892735,38.2159862 L167.010346,38.2200758 L167.202737,38.2235058 L167.415661,38.2244574 C168.703031,38.2244574 169.52071,38.0573016 169.991294,37.8252675 C170.195391,37.724632 170.312307,37.6179115 170.472189,37.3718974 L170.517226,37.3008229 L170.561576,37.2271888 L170.605278,37.1508336 L170.648372,37.0715959 L170.690896,36.9893144 L170.73289,36.9038276 L170.774393,36.8149742 L170.815444,36.7225928 L170.856083,36.626522 L170.896349,36.5266003 L170.936281,36.4226664 L170.975918,36.3145589 L171.034908,36.1442191 L171.07398,36.0249715 L171.132307,35.837165 L171.17106,35.7057685 L171.209753,35.5692301 L171.248427,35.4273883 L171.287121,35.2800818 L171.325872,35.1271491 L171.384196,34.8868479 L171.423266,34.7191437 L171.482251,34.4559288 L171.54181,34.1782394 L171.602074,33.8855308 L171.663177,33.5772582 L171.74618,33.141076 L171.809754,32.7943693 L171.896534,32.3049645 L171.985903,31.7833715 L172.101733,31.0841485 L172.297571,29.8826884 L172.388218,29.3389025 L172.494684,28.7166956 L172.595611,28.1487497 L172.654427,27.8297233 L172.73181,27.4250844 L172.809043,27.0392809 L172.847957,26.8517869 L172.947243,26.3935138 L173.008895,26.122413 L173.072691,25.8514781 L173.161912,25.486627 L173.232566,25.2073884 C173.853335,22.7865344 174.677323,20.6939122 175.884432,18.790485 C179.016385,13.8518721 184.151153,11.2305456 190.879677,11.178613 L191.084059,11.177826 L191.577848,11.177826 L192.067272,11.243473 C198.828572,12.1503736 203.612566,15.6990808 206.114657,21.312441 C207.042329,23.3936417 207.61665,25.6337978 207.986837,28.2119527 C208.01923,28.4375498 208.049327,28.6567999 208.077598,28.8741115 L208.123872,29.2415347 L208.177,29.6977527 L208.207084,29.9760159 L208.245535,30.3563644 L208.300655,30.9562674 L208.354183,31.6052887 L208.389807,32.0729586 L208.44438,32.8384985 L208.596782,35.1526822 L208.649091,35.8910091 L208.680947,36.3109913 L208.735052,36.9740218 L208.779439,37.4723771 L208.802059,37.7112248 L208.836581,38.0569515 L208.871878,38.3880168 L208.908022,38.704862 L208.945084,39.0079284 L208.996052,39.3913463 L209.022249,39.5744906 L209.062496,39.8388689 L209.089992,40.0084198 L209.132288,40.2530211 L209.161216,40.4097959 L209.190755,40.5616892 L209.220925,40.7088317 L209.26741,40.9209236 L209.299251,41.0567612 L209.331798,41.1883056 L209.381988,41.3778587 L209.416392,41.4992425 L209.451576,41.6167908 L209.487561,41.7306344 L209.543089,41.8947398 L209.600538,42.0512452 L209.639942,42.1515779 L209.680253,42.2488598 L209.721493,42.3432216 L209.763683,42.4347942 L209.806844,42.5237082 L209.850998,42.6100946 L209.896166,42.6940839 C209.90378,42.7078897 209.911436,42.721601 209.919137,42.7352206 C210.139344,43.1247003 210.349296,43.3300732 210.725854,43.5204282 C211.286819,43.8040033 212.134923,44.017939 213.326772,44.1054285 L213.56176,44.1207677 C213.840956,44.1367858 214.137865,44.1461698 214.453139,44.1482655 L214.589383,44.1487155 L222,44.1487155 L222,59 L214.589383,59 C206.371401,59 200.363389,55.9628696 197.0236,50.0557926 C195.726577,47.7617499 194.936515,45.2348211 194.447886,42.3153872 C194.405322,42.0610732 194.365804,41.8123044 194.328805,41.5648504 L194.282908,41.249389 L194.226355,40.8338024 L194.186431,40.5188484 L194.160872,40.3062856 L194.11198,39.8724415 L194.088509,39.6500517 L194.054326,39.3080738 L194.010297,38.8335258 L193.967531,38.3336822 L193.925475,37.8041092 L193.873063,37.0935812 L193.830585,36.4809057 L193.711351,34.6590014 L193.661261,33.9365839 L193.611062,33.2630512 L193.570564,32.7577844 L193.529551,32.2809964 L193.487823,31.8314392 L193.45594,31.511391 L193.412487,31.1064855 L193.367776,30.7253794 L193.321609,30.3668249 L193.285908,30.1119579 L193.249193,29.8685479 L193.211381,29.6360685 L193.172387,29.4139933 L193.132128,29.2017957 L193.104545,29.0655583 L193.061993,28.8686539 L193.032803,28.7421245 L193.002927,28.6192053 L192.972341,28.4997403 L192.925075,28.3266784 L192.892603,28.2151667 L192.842393,28.0533035 L192.807882,27.9487701 L192.772512,27.8467551 L192.736257,27.7471026 L192.699094,27.6496565 L192.660997,27.5542608 L192.602047,27.4146707 L192.581904,27.368997 C192.565921,27.3331387 192.549943,27.2982544 192.533884,27.2643088 L192.485382,27.1652531 C192.167427,26.5392402 191.786148,26.2568257 190.703544,26.0574423 L190.595903,26.0385096 L190.544288,26.0405682 C189.702458,26.0780393 189.145096,26.2037803 188.805203,26.3637113 L188.765455,26.3830637 C188.616054,26.4583562 188.533043,26.5359165 188.39364,26.7557347 L188.330706,26.858681 L188.289527,26.9303105 L188.248925,27.0045245 L188.208862,27.0814819 L188.169299,27.1613418 L188.110811,27.2869216 L188.072334,27.3747334 L188.034223,27.4660042 L187.996441,27.5608931 L187.95895,27.6595589 L187.921712,27.7621609 L187.866244,27.9237918 L187.82947,28.0369296 L187.792814,28.15456 L187.756239,28.276842 L187.701445,28.4693347 L187.646617,28.673188 L187.591626,28.8889386 L187.554812,29.0396469 L187.480644,29.3582782 L187.424393,29.6129406 L187.348317,29.9744294 L187.270729,30.3621573 L187.171156,30.8856539 L187.068148,31.4546215 L186.96111,32.0715445 L186.826503,32.8786517 L186.625093,34.1139574 L186.5458,34.5898576 L186.430556,35.2635948 L186.375138,35.5781405 L186.320788,35.879631 L186.267201,36.1694361 L186.187594,36.5852307 L186.134597,36.8518163 L186.054457,37.2392032 L186.00016,37.4911315 L185.944815,37.7395944 L185.888118,37.9859619 L185.829769,38.2316038 L185.769465,38.4778903 L185.706903,38.7261912 L185.641781,38.9778766 C184.999875,41.4279907 184.14316,43.5512019 182.892105,45.4762296 C179.648359,50.4674585 174.358547,53.0757419 167.415661,53.0757419 C160.018871,53.0757419 154.664507,49.3771755 151.884685,43.053187 C150.902478,40.8187022 150.259928,38.3527036 149.798339,35.4411656 C149.749808,35.1350464 149.704644,34.8372373 149.661835,34.5396824 L149.594117,34.0545996 L149.530624,33.5704302 L149.469294,33.0719068 L149.42117,32.6578255 L149.361414,32.1149863 L149.325421,31.7730068 L149.252191,31.0450358 L149.162873,30.1073324 L149.008234,28.3949865 L148.886335,27.0187277 L148.82144,26.3153203 L148.756327,25.6420691 L148.70723,25.1563736 L148.641257,24.5337074 L148.574515,23.9386965 L148.523835,23.51004 L148.472526,23.0960443 L148.437928,22.8280027 L148.385383,22.4375891 L148.331983,22.0608133 L148.295867,21.8170165 L148.259309,21.5789967 L148.222283,21.3466402 L148.184765,21.1198333 L148.146729,20.8984624 L148.108152,20.6824138 L148.049213,20.3680715 L148.009169,20.1648313 L147.947915,19.8691686 L147.885158,19.5842022 L147.842444,19.3999775 L147.799,19.2202225 L147.73241,18.9587219 L147.68703,18.7896437 L147.640833,18.6246373 L147.593793,18.463589 L147.545885,18.3063852 L147.497085,18.1529121 L147.447366,18.003056 L147.396704,17.8567034 L147.345074,17.7137405 C147.336387,17.6901895 147.327658,17.666775 147.318888,17.6434947 L147.265759,17.5054032 L147.211599,17.3704172 L147.156384,17.238423 L147.100088,17.109307 L147.042686,16.9829555 L146.984154,16.8592548 L146.924465,16.7380911 L146.855805,16.6046651 L146.786671,16.4770313 C146.751934,16.414646 146.716902,16.3543958 146.6814,16.2962251 L146.609714,16.1826401 C146.11486,15.4251978 145.510139,15.0492543 144.346148,14.9130572 L144.171763,14.8948209 L143.989081,14.8799088 C143.864457,14.8710535 143.734092,14.8643486 143.59757,14.8596623 L143.507854,14.8569775 L143.453025,14.8653565 C141.944839,15.1062223 141.319105,15.6449953 140.719484,17.0605621 L140.651668,17.2245917 L140.591777,17.3757578 L140.540722,17.5093525 L140.490851,17.6444519 L140.442136,17.781218 L140.371172,17.9898469 L140.325227,18.1314889 L140.258288,18.3481914 L140.214942,18.4957222 L140.151771,18.7220176 L140.090738,18.954798 L140.031749,19.1946104 L139.974712,19.4420018 L139.919533,19.6975192 L139.883734,19.8726486 L139.848692,20.0517947 L139.81438,20.2351197 L139.76422,20.5182967 L139.731612,20.7127776 L139.68388,21.0134483 L139.63748,21.3253444 L139.592319,21.649013 L139.548306,21.9850009 L139.505346,22.3338553 L139.463348,22.696123 L139.408685,23.2009571 L139.381864,23.4630862 L139.329104,24.0075789 L139.290198,24.4342916 L139.239032,25.0287395 L139.175905,25.8146008 L139.138306,26.3099175 L139.075806,27.1768673 L139.038253,27.7227819 L138.853576,30.5567497 L138.78492,31.5520011 L138.73004,32.3010982 L138.688561,32.8380166 L138.646562,33.3554262 L138.603821,33.8549811 L138.560116,34.3383353 L138.515224,34.8071427 L138.468924,35.2630576 L138.420993,35.7077339 L138.37121,36.1428256 L138.319352,36.5699868 L138.265197,36.9908716 L138.208524,37.407134 C138.202078,37.4531899 138.195582,37.4991907 138.189034,37.5451468 L138.149109,37.8204281 C138.101775,38.1411534 138.051751,38.4606862 137.998569,38.7825284 C137.413051,42.3259134 136.515318,45.3649375 135.107321,48.0811824 C131.46864,55.1007647 124.858635,58.9231072 115.68926,58.9988521 L115.410617,59 L108,59 L108,44.1487155 L115.410617,44.1487155 C117.638673,44.1487155 119.161437,43.7951011 120.168606,43.220221 C120.901591,42.8018414 121.454972,42.1992866 121.954511,41.2355981 L122.024255,41.0983839 L122.092493,40.9586907 C122.103742,40.9351952 122.114929,40.9115914 122.126055,40.8878767 L122.192083,40.7442378 L122.25667,40.5978169 C122.267316,40.5731748 122.277903,40.5484118 122.288431,40.5235252 L122.350906,40.3727038 L122.412004,40.218797 C122.422074,40.1928821 122.432087,40.1668335 122.442045,40.1406488 L122.501128,39.9818868 C122.510865,39.9551474 122.520547,39.9282669 122.530176,39.9012426 L122.587301,39.7373525 C122.596715,39.7097433 122.606076,39.6819853 122.615385,39.654076 L122.670612,39.4847848 L122.724605,39.3117413 L122.803338,39.0448753 L122.85436,38.8619205 C122.862768,38.8310834 122.871128,38.8000722 122.879441,38.7688844 L122.928759,38.5796191 L122.976973,38.3859951 L123.024109,38.1878912 L123.070193,37.9851861 L123.115251,37.7777586 L123.159308,37.5654873 L123.202391,37.3482509 L123.244526,37.1259283 L123.285738,36.8983982 L123.326053,36.6655392 L123.384902,36.3059939 L123.423089,36.0592822 L123.460471,35.8068173 L123.497072,35.5484778 L123.532919,35.2841424 L123.568039,35.01369 L123.602456,34.7369991 L123.652821,34.3100006 L123.701752,33.8682835 L123.733619,33.5654264 L123.780355,33.0982689 L123.825889,32.6153014 L123.87031,32.1161147 L123.913704,31.6002993 L123.942107,31.2469821 L123.997766,30.5171456 L124.052066,29.7555641 L124.293548,26.066317 L124.364737,25.0472547 L124.433403,24.1317369 L124.482054,23.5296624 L124.531232,22.9622151 L124.571462,22.5280924 L124.634193,21.900866 L124.678168,21.4930241 L124.736241,20.9879938 L124.798469,20.4811874 L124.851751,20.069367 C125.265592,16.9373662 125.877603,14.2707226 126.837719,11.8413471 C129.454197,5.2208876 134.570132,0.986262062 142.019338,0.0732780771 L142.245786,0.0466295855 L142.659071,0 L143.074968,0 Z" id="Path"></path>
            </g>
            <text id="Web" font-family="Poppins-Bold, Poppins" font-size="74" font-weight="bold" fill="#1D1D21">
                <tspan x="5.161" y="78">Web</tspan>
            </text>
            <text id="Web" font-family="Poppins-Bold, Poppins" font-size="74" font-weight="bold" fill="#FFFFFF">
                <tspan x="0.161" y="78">Web</tspan>
            </text>
            <text id="Mob" font-family="Poppins-Bold, Poppins" font-size="74" font-weight="bold" fill="#1D1D21">
                <tspan x="401.342" y="78">Mob</tspan>
            </text>
            <text id="Mob" font-family="Poppins-Bold, Poppins" font-size="74" font-weight="bold" fill="#FFFFFF">
                <tspan x="406.342" y="78">Mob</tspan>
            </text>
        </g>
        <text id="WebMob" font-family="Poppins-Bold, Poppins" font-size="54" font-weight="bold" fill="#FFFFFF">
            <tspan x="416.313" y="349">WebMob</tspan>
        </text>
        <rect id="Rectangle" fill="#CFCED7" opacity="0.243344262" x="0" y="1080" width="1080" height="1"></rect>
        <rect id="Rectangle" fill="#CFCED7" opacity="0.243344262" x="0" y="540" width="1080" height="1"></rect>
        <path d="M245.074968,789.577164 C253.059175,789.577164 258.925176,793.195116 262.161921,799.635501 C263.362049,802.023482 264.158917,804.679167 264.719792,807.767991 L264.791531,808.171648 L264.860034,808.574828 L264.904052,808.844302 L264.967825,809.250968 L265.008965,809.524548 L265.068836,809.940049 L265.126765,810.363418 L265.183048,810.796581 L265.237986,811.241464 L265.291877,811.699991 L265.327369,812.014208 L265.380177,812.499757 L265.450248,813.176703 L265.520579,813.8916 L265.591878,814.649014 L265.849486,817.523844 L265.939871,818.481923 L266.013995,819.22831 L266.072796,819.792896 L266.11674,820.198072 L266.175284,820.714823 L266.219268,821.085365 L266.278177,821.557593 L266.337574,822.005865 L266.382564,822.326998 L266.443303,822.735949 L266.489533,823.028833 L266.536437,823.31037 L266.5841,823.581016 L266.648982,823.925725 L266.698752,824.172733 L266.749567,824.410371 L266.801513,824.639094 L266.836815,824.786849 L266.890836,825.001728 L266.946218,825.208909 L267.003044,825.408847 L267.041773,825.538341 L267.101198,825.727222 C267.107893,825.747866 267.114618,825.768398 267.121375,825.788821 L267.18305,825.969769 L267.225155,826.087362 L267.26808,826.202683 L267.311851,826.315866 L267.356492,826.427046 L267.425142,826.590357 L267.522487,826.809996 L267.569224,826.91144 L267.614414,827.005775 L267.658512,827.093255 C267.665795,827.107278 267.673052,827.121026 267.680292,827.134505 L267.723602,827.212184 L267.766954,827.283647 C267.941053,827.557414 268.127072,827.688159 268.455805,827.749515 L268.541037,827.763451 L268.63267,827.774752 L268.731157,827.783673 C268.748169,827.784975 268.765484,827.786189 268.783114,827.78732 L268.892735,827.793151 L269.010346,827.79724 L269.202737,827.80067 L269.415661,827.801622 C270.703031,827.801622 271.52071,827.634466 271.991294,827.402432 C272.195391,827.301796 272.312307,827.195076 272.472189,826.949062 L272.517226,826.877987 L272.561576,826.804353 L272.605278,826.727998 L272.648372,826.64876 L272.690896,826.566479 L272.73289,826.480992 L272.774393,826.392139 L272.815444,826.299757 L272.856083,826.203686 L272.896349,826.103765 L272.936281,825.999831 L272.975918,825.891723 L273.034908,825.721384 L273.07398,825.602136 L273.132307,825.414329 L273.17106,825.282933 L273.209753,825.146395 L273.248427,825.004553 L273.287121,824.857246 L273.325872,824.704314 L273.384196,824.464012 L273.423266,824.296308 L273.482251,824.033093 L273.54181,823.755404 L273.602074,823.462695 L273.663177,823.154423 L273.74618,822.71824 L273.809754,822.371534 L273.896534,821.882129 L273.985903,821.360536 L274.101733,820.661313 L274.297571,819.459853 L274.388218,818.916067 L274.494684,818.29386 L274.595611,817.725914 L274.654427,817.406888 L274.73181,817.002249 L274.809043,816.616445 L274.847957,816.428951 L274.947243,815.970678 L275.008895,815.699577 L275.072691,815.428643 L275.161912,815.063791 L275.232566,814.784553 C275.853335,812.363699 276.677323,810.271077 277.884432,808.367649 C281.016385,803.429037 286.151153,800.80771 292.879677,800.755777 L293.084059,800.75499 L293.577848,800.75499 L294.067272,800.820637 C300.828572,801.727538 305.612566,805.276245 308.114657,810.889605 C309.042329,812.970806 309.61665,815.210962 309.986837,817.789117 C310.01923,818.014714 310.049327,818.233964 310.077598,818.451276 L310.123872,818.818699 L310.177,819.274917 L310.207084,819.55318 L310.245535,819.933529 L310.300655,820.533432 L310.354183,821.182453 L310.389807,821.650123 L310.44438,822.415663 L310.596782,824.729847 L310.649091,825.468174 L310.680947,825.888156 L310.735052,826.551186 L310.779439,827.049542 L310.802059,827.288389 L310.836581,827.634116 L310.871878,827.965181 L310.908022,828.282026 L310.945084,828.585093 L310.996052,828.968511 L311.022249,829.151655 L311.062496,829.416033 L311.089992,829.585584 L311.132288,829.830186 L311.161216,829.98696 L311.190755,830.138854 L311.220925,830.285996 L311.26741,830.498088 L311.299251,830.633926 L311.331798,830.76547 L311.381988,830.955023 L311.416392,831.076407 L311.451576,831.193955 L311.487561,831.307799 L311.543089,831.471904 L311.600538,831.62841 L311.639942,831.728742 L311.680253,831.826024 L311.721493,831.920386 L311.763683,832.011959 L311.806844,832.100873 L311.850998,832.187259 L311.896166,832.271248 C311.90378,832.285054 311.911436,832.298765 311.919137,832.312385 C312.139344,832.701865 312.349296,832.907238 312.725854,833.097593 C313.286819,833.381168 314.134923,833.595103 315.326772,833.682593 L315.56176,833.697932 C315.840956,833.71395 316.137865,833.723334 316.453139,833.72543 L316.589383,833.72588 L324,833.72588 L324,848.577164 L316.589383,848.577164 C308.371401,848.577164 302.363389,845.540034 299.0236,839.632957 C297.726577,837.338914 296.936515,834.811986 296.447886,831.892552 C296.405322,831.638238 296.365804,831.389469 296.328805,831.142015 L296.282908,830.826553 L296.226355,830.410967 L296.186431,830.096013 L296.160872,829.88345 L296.11198,829.449606 L296.088509,829.227216 L296.054326,828.885238 L296.010297,828.41069 L295.967531,827.910847 L295.925475,827.381274 L295.873063,826.670746 L295.830585,826.05807 L295.711351,824.236166 L295.661261,823.513748 L295.611062,822.840216 L295.570564,822.334949 L295.529551,821.858161 L295.487823,821.408604 L295.45594,821.088556 L295.412487,820.68365 L295.367776,820.302544 L295.321609,819.943989 L295.285908,819.689122 L295.249193,819.445712 L295.211381,819.213233 L295.172387,818.991158 L295.132128,818.77896 L295.104545,818.642723 L295.061993,818.445818 L295.032803,818.319289 L295.002927,818.19637 L294.972341,818.076905 L294.925075,817.903843 L294.892603,817.792331 L294.842393,817.630468 L294.807882,817.525935 L294.772512,817.42392 L294.736257,817.324267 L294.699094,817.226821 L294.660997,817.131425 L294.602047,816.991835 L294.581904,816.946161 C294.565921,816.910303 294.549943,816.875419 294.533884,816.841473 L294.485382,816.742418 C294.167427,816.116405 293.786148,815.83399 292.703544,815.634607 L292.595903,815.615674 L292.544288,815.617733 C291.702458,815.655204 291.145096,815.780945 290.805203,815.940876 L290.765455,815.960228 C290.616054,816.035521 290.533043,816.113081 290.39364,816.332899 L290.330706,816.435845 L290.289527,816.507475 L290.248925,816.581689 L290.208862,816.658646 L290.169299,816.738506 L290.110811,816.864086 L290.072334,816.951898 L290.034223,817.043169 L289.996441,817.138058 L289.95895,817.236723 L289.921712,817.339325 L289.866244,817.500956 L289.82947,817.614094 L289.792814,817.731724 L289.756239,817.854006 L289.701445,818.046499 L289.646617,818.250352 L289.591626,818.466103 L289.554812,818.616811 L289.480644,818.935443 L289.424393,819.190105 L289.348317,819.551594 L289.270729,819.939322 L289.171156,820.462818 L289.068148,821.031786 L288.96111,821.648709 L288.826503,822.455816 L288.625093,823.691122 L288.5458,824.167022 L288.430556,824.840759 L288.375138,825.155305 L288.320788,825.456795 L288.267201,825.746601 L288.187594,826.162395 L288.134597,826.428981 L288.054457,826.816368 L288.00016,827.068296 L287.944815,827.316759 L287.888118,827.563126 L287.829769,827.808768 L287.769465,828.055055 L287.706903,828.303356 L287.641781,828.555041 C286.999875,831.005155 286.14316,833.128366 284.892105,835.053394 C281.648359,840.044623 276.358547,842.652906 269.415661,842.652906 C262.018871,842.652906 256.664507,838.95434 253.884685,832.630351 C252.902478,830.395867 252.259928,827.929868 251.798339,825.01833 C251.749808,824.712211 251.704644,824.414402 251.661835,824.116847 L251.594117,823.631764 L251.530624,823.147595 L251.469294,822.649071 L251.42117,822.23499 L251.361414,821.692151 L251.325421,821.350171 L251.252191,820.6222 L251.162873,819.684497 L251.008234,817.972151 L250.886335,816.595892 L250.82144,815.892485 L250.756327,815.219234 L250.70723,814.733538 L250.641257,814.110872 L250.574515,813.515861 L250.523835,813.087204 L250.472526,812.673209 L250.437928,812.405167 L250.385383,812.014754 L250.331983,811.637978 L250.295867,811.394181 L250.259309,811.156161 L250.222283,810.923805 L250.184765,810.696998 L250.146729,810.475627 L250.108152,810.259578 L250.049213,809.945236 L250.009169,809.741996 L249.947915,809.446333 L249.885158,809.161367 L249.842444,808.977142 L249.799,808.797387 L249.73241,808.535886 L249.68703,808.366808 L249.640833,808.201802 L249.593793,808.040753 L249.545885,807.88355 L249.497085,807.730077 L249.447366,807.580221 L249.396704,807.433868 L249.345074,807.290905 C249.336387,807.267354 249.327658,807.243939 249.318888,807.220659 L249.265759,807.082568 L249.211599,806.947582 L249.156384,806.815588 L249.100088,806.686472 L249.042686,806.56012 L248.984154,806.436419 L248.924465,806.315256 L248.855805,806.18183 L248.786671,806.054196 C248.751934,805.99181 248.716902,805.93156 248.6814,805.87339 L248.609714,805.759805 C248.11486,805.002362 247.510139,804.626419 246.346148,804.490222 L246.171763,804.471985 L245.989081,804.457073 C245.864457,804.448218 245.734092,804.441513 245.59757,804.436827 L245.507854,804.434142 L245.453025,804.442521 C243.944839,804.683387 243.319105,805.22216 242.719484,806.637727 L242.651668,806.801756 L242.591777,806.952922 L242.540722,807.086517 L242.490851,807.221616 L242.442136,807.358382 L242.371172,807.567011 L242.325227,807.708653 L242.258288,807.925356 L242.214942,808.072887 L242.151771,808.299182 L242.090738,808.531962 L242.031749,808.771775 L241.974712,809.019166 L241.919533,809.274684 L241.883734,809.449813 L241.848692,809.628959 L241.81438,809.812284 L241.76422,810.095461 L241.731612,810.289942 L241.68388,810.590613 L241.63748,810.902509 L241.592319,811.226177 L241.548306,811.562165 L241.505346,811.91102 L241.463348,812.273287 L241.408685,812.778122 L241.381864,813.040251 L241.329104,813.584743 L241.290198,814.011456 L241.239032,814.605904 L241.175905,815.391765 L241.138306,815.887082 L241.075806,816.754032 L241.038253,817.299946 L240.853576,820.133914 L240.78492,821.129166 L240.73004,821.878263 L240.688561,822.415181 L240.646562,822.932591 L240.603821,823.432146 L240.560116,823.9155 L240.515224,824.384307 L240.468924,824.840222 L240.420993,825.284898 L240.37121,825.71999 L240.319352,826.147151 L240.265197,826.568036 L240.208524,826.984298 C240.202078,827.030354 240.195582,827.076355 240.189034,827.122311 L240.149109,827.397593 C240.101775,827.718318 240.051751,828.037851 239.998569,828.359693 C239.413051,831.903078 238.515318,834.942102 237.107321,837.658347 C233.46864,844.677929 226.858635,848.500272 217.68926,848.576017 L217.410617,848.577164 L210,848.577164 L210,833.72588 L217.410617,833.72588 C219.638673,833.72588 221.161437,833.372266 222.168606,832.797385 C222.901591,832.379006 223.454972,831.776451 223.954511,830.812763 L224.024255,830.675548 L224.092493,830.535855 C224.103742,830.51236 224.114929,830.488756 224.126055,830.465041 L224.192083,830.321402 L224.25667,830.174981 C224.267316,830.150339 224.277903,830.125576 224.288431,830.10069 L224.350906,829.949868 L224.412004,829.795961 C224.422074,829.770047 224.432087,829.743998 224.442045,829.717813 L224.501128,829.559051 C224.510865,829.532312 224.520547,829.505431 224.530176,829.478407 L224.587301,829.314517 C224.596715,829.286908 224.606076,829.25915 224.615385,829.231241 L224.670612,829.061949 L224.724605,828.888906 L224.803338,828.62204 L224.85436,828.439085 C224.862768,828.408248 224.871128,828.377237 224.879441,828.346049 L224.928759,828.156784 L224.976973,827.96316 L225.024109,827.765056 L225.070193,827.562351 L225.115251,827.354923 L225.159308,827.142652 L225.202391,826.925415 L225.244526,826.703093 L225.285738,826.475563 L225.326053,826.242704 L225.384902,825.883158 L225.423089,825.636447 L225.460471,825.383982 L225.497072,825.125642 L225.532919,824.861307 L225.568039,824.590854 L225.602456,824.314164 L225.652821,823.887165 L225.701752,823.445448 L225.733619,823.142591 L225.780355,822.675433 L225.825889,822.192466 L225.87031,821.693279 L225.913704,821.177464 L225.942107,820.824147 L225.997766,820.09431 L226.052066,819.332729 L226.293548,815.643482 L226.364737,814.624419 L226.433403,813.708901 L226.482054,813.106827 L226.531232,812.53938 L226.571462,812.105257 L226.634193,811.47803 L226.678168,811.070189 L226.736241,810.565158 L226.798469,810.058352 L226.851751,809.646531 C227.265592,806.514531 227.877603,803.847887 228.837719,801.418512 C231.454197,794.798052 236.570132,790.563427 244.019338,789.650443 L244.245786,789.623794 L244.659071,789.577164 L245.074968,789.577164 Z" id="Path" fill="url(#linearGradient-1)" fill-rule="nonzero" transform="translate(267.000000, 819.077164) scale(-1, -1) translate(-267.000000, -819.077164) "></path>
        <path d="M353.074968,771.577164 C361.059175,771.577164 366.925176,775.195116 370.161921,781.635501 C371.362049,784.023482 372.158917,786.679167 372.719792,789.767991 L372.791531,790.171648 L372.860034,790.574828 L372.904052,790.844302 L372.967825,791.250968 L373.008965,791.524548 L373.068836,791.940049 L373.126765,792.363418 L373.183048,792.796581 L373.237986,793.241464 L373.291877,793.699991 L373.327369,794.014208 L373.380177,794.499757 L373.450248,795.176703 L373.520579,795.8916 L373.591878,796.649014 L373.849486,799.523844 L373.939871,800.481923 L374.013995,801.22831 L374.072796,801.792896 L374.11674,802.198072 L374.175284,802.714823 L374.219268,803.085365 L374.278177,803.557593 L374.337574,804.005865 L374.382564,804.326998 L374.443303,804.735949 L374.489533,805.028833 L374.536437,805.31037 L374.5841,805.581016 L374.648982,805.925725 L374.698752,806.172733 L374.749567,806.410371 L374.801513,806.639094 L374.836815,806.786849 L374.890836,807.001728 L374.946218,807.208909 L375.003044,807.408847 L375.041773,807.538341 L375.101198,807.727222 C375.107893,807.747866 375.114618,807.768398 375.121375,807.788821 L375.18305,807.969769 L375.225155,808.087362 L375.26808,808.202683 L375.311851,808.315866 L375.356492,808.427046 L375.425142,808.590357 L375.522487,808.809996 L375.569224,808.91144 L375.614414,809.005775 L375.658512,809.093255 C375.665795,809.107278 375.673052,809.121026 375.680292,809.134505 L375.723602,809.212184 L375.766954,809.283647 C375.941053,809.557414 376.127072,809.688159 376.455805,809.749515 L376.541037,809.763451 L376.63267,809.774752 L376.731157,809.783673 C376.748169,809.784975 376.765484,809.786189 376.783114,809.78732 L376.892735,809.793151 L377.010346,809.79724 L377.202737,809.80067 L377.415661,809.801622 C378.703031,809.801622 379.52071,809.634466 379.991294,809.402432 C380.195391,809.301796 380.312307,809.195076 380.472189,808.949062 L380.517226,808.877987 L380.561576,808.804353 L380.605278,808.727998 L380.648372,808.64876 L380.690896,808.566479 L380.73289,808.480992 L380.774393,808.392139 L380.815444,808.299757 L380.856083,808.203686 L380.896349,808.103765 L380.936281,807.999831 L380.975918,807.891723 L381.034908,807.721384 L381.07398,807.602136 L381.132307,807.414329 L381.17106,807.282933 L381.209753,807.146395 L381.248427,807.004553 L381.287121,806.857246 L381.325872,806.704314 L381.384196,806.464012 L381.423266,806.296308 L381.482251,806.033093 L381.54181,805.755404 L381.602074,805.462695 L381.663177,805.154423 L381.74618,804.71824 L381.809754,804.371534 L381.896534,803.882129 L381.985903,803.360536 L382.101733,802.661313 L382.297571,801.459853 L382.388218,800.916067 L382.494684,800.29386 L382.595611,799.725914 L382.654427,799.406888 L382.73181,799.002249 L382.809043,798.616445 L382.847957,798.428951 L382.947243,797.970678 L383.008895,797.699577 L383.072691,797.428643 L383.161912,797.063791 L383.232566,796.784553 C383.853335,794.363699 384.677323,792.271077 385.884432,790.367649 C389.016385,785.429037 394.151153,782.80771 400.879677,782.755777 L401.084059,782.75499 L401.577848,782.75499 L402.067272,782.820637 C408.828572,783.727538 413.612566,787.276245 416.114657,792.889605 C417.042329,794.970806 417.61665,797.210962 417.986837,799.789117 C418.01923,800.014714 418.049327,800.233964 418.077598,800.451276 L418.123872,800.818699 L418.177,801.274917 L418.207084,801.55318 L418.245535,801.933529 L418.300655,802.533432 L418.354183,803.182453 L418.389807,803.650123 L418.44438,804.415663 L418.596782,806.729847 L418.649091,807.468174 L418.680947,807.888156 L418.735052,808.551186 L418.779439,809.049542 L418.802059,809.288389 L418.836581,809.634116 L418.871878,809.965181 L418.908022,810.282026 L418.945084,810.585093 L418.996052,810.968511 L419.022249,811.151655 L419.062496,811.416033 L419.089992,811.585584 L419.132288,811.830186 L419.161216,811.98696 L419.190755,812.138854 L419.220925,812.285996 L419.26741,812.498088 L419.299251,812.633926 L419.331798,812.76547 L419.381988,812.955023 L419.416392,813.076407 L419.451576,813.193955 L419.487561,813.307799 L419.543089,813.471904 L419.600538,813.62841 L419.639942,813.728742 L419.680253,813.826024 L419.721493,813.920386 L419.763683,814.011959 L419.806844,814.100873 L419.850998,814.187259 L419.896166,814.271248 C419.90378,814.285054 419.911436,814.298765 419.919137,814.312385 C420.139344,814.701865 420.349296,814.907238 420.725854,815.097593 C421.286819,815.381168 422.134923,815.595103 423.326772,815.682593 L423.56176,815.697932 C423.840956,815.71395 424.137865,815.723334 424.453139,815.72543 L424.589383,815.72588 L432,815.72588 L432,830.577164 L424.589383,830.577164 C416.371401,830.577164 410.363389,827.540034 407.0236,821.632957 C405.726577,819.338914 404.936515,816.811986 404.447886,813.892552 C404.405322,813.638238 404.365804,813.389469 404.328805,813.142015 L404.282908,812.826553 L404.226355,812.410967 L404.186431,812.096013 L404.160872,811.88345 L404.11198,811.449606 L404.088509,811.227216 L404.054326,810.885238 L404.010297,810.41069 L403.967531,809.910847 L403.925475,809.381274 L403.873063,808.670746 L403.830585,808.05807 L403.711351,806.236166 L403.661261,805.513748 L403.611062,804.840216 L403.570564,804.334949 L403.529551,803.858161 L403.487823,803.408604 L403.45594,803.088556 L403.412487,802.68365 L403.367776,802.302544 L403.321609,801.943989 L403.285908,801.689122 L403.249193,801.445712 L403.211381,801.213233 L403.172387,800.991158 L403.132128,800.77896 L403.104545,800.642723 L403.061993,800.445818 L403.032803,800.319289 L403.002927,800.19637 L402.972341,800.076905 L402.925075,799.903843 L402.892603,799.792331 L402.842393,799.630468 L402.807882,799.525935 L402.772512,799.42392 L402.736257,799.324267 L402.699094,799.226821 L402.660997,799.131425 L402.602047,798.991835 L402.581904,798.946161 C402.565921,798.910303 402.549943,798.875419 402.533884,798.841473 L402.485382,798.742418 C402.167427,798.116405 401.786148,797.83399 400.703544,797.634607 L400.595903,797.615674 L400.544288,797.617733 C399.702458,797.655204 399.145096,797.780945 398.805203,797.940876 L398.765455,797.960228 C398.616054,798.035521 398.533043,798.113081 398.39364,798.332899 L398.330706,798.435845 L398.289527,798.507475 L398.248925,798.581689 L398.208862,798.658646 L398.169299,798.738506 L398.110811,798.864086 L398.072334,798.951898 L398.034223,799.043169 L397.996441,799.138058 L397.95895,799.236723 L397.921712,799.339325 L397.866244,799.500956 L397.82947,799.614094 L397.792814,799.731724 L397.756239,799.854006 L397.701445,800.046499 L397.646617,800.250352 L397.591626,800.466103 L397.554812,800.616811 L397.480644,800.935443 L397.424393,801.190105 L397.348317,801.551594 L397.270729,801.939322 L397.171156,802.462818 L397.068148,803.031786 L396.96111,803.648709 L396.826503,804.455816 L396.625093,805.691122 L396.5458,806.167022 L396.430556,806.840759 L396.375138,807.155305 L396.320788,807.456795 L396.267201,807.746601 L396.187594,808.162395 L396.134597,808.428981 L396.054457,808.816368 L396.00016,809.068296 L395.944815,809.316759 L395.888118,809.563126 L395.829769,809.808768 L395.769465,810.055055 L395.706903,810.303356 L395.641781,810.555041 C394.999875,813.005155 394.14316,815.128366 392.892105,817.053394 C389.648359,822.044623 384.358547,824.652906 377.415661,824.652906 C370.018871,824.652906 364.664507,820.95434 361.884685,814.630351 C360.902478,812.395867 360.259928,809.929868 359.798339,807.01833 C359.749808,806.712211 359.704644,806.414402 359.661835,806.116847 L359.594117,805.631764 L359.530624,805.147595 L359.469294,804.649071 L359.42117,804.23499 L359.361414,803.692151 L359.325421,803.350171 L359.252191,802.6222 L359.162873,801.684497 L359.008234,799.972151 L358.886335,798.595892 L358.82144,797.892485 L358.756327,797.219234 L358.70723,796.733538 L358.641257,796.110872 L358.574515,795.515861 L358.523835,795.087204 L358.472526,794.673209 L358.437928,794.405167 L358.385383,794.014754 L358.331983,793.637978 L358.295867,793.394181 L358.259309,793.156161 L358.222283,792.923805 L358.184765,792.696998 L358.146729,792.475627 L358.108152,792.259578 L358.049213,791.945236 L358.009169,791.741996 L357.947915,791.446333 L357.885158,791.161367 L357.842444,790.977142 L357.799,790.797387 L357.73241,790.535886 L357.68703,790.366808 L357.640833,790.201802 L357.593793,790.040753 L357.545885,789.88355 L357.497085,789.730077 L357.447366,789.580221 L357.396704,789.433868 L357.345074,789.290905 C357.336387,789.267354 357.327658,789.243939 357.318888,789.220659 L357.265759,789.082568 L357.211599,788.947582 L357.156384,788.815588 L357.100088,788.686472 L357.042686,788.56012 L356.984154,788.436419 L356.924465,788.315256 L356.855805,788.18183 L356.786671,788.054196 C356.751934,787.99181 356.716902,787.93156 356.6814,787.87339 L356.609714,787.759805 C356.11486,787.002362 355.510139,786.626419 354.346148,786.490222 L354.171763,786.471985 L353.989081,786.457073 C353.864457,786.448218 353.734092,786.441513 353.59757,786.436827 L353.507854,786.434142 L353.453025,786.442521 C351.944839,786.683387 351.319105,787.22216 350.719484,788.637727 L350.651668,788.801756 L350.591777,788.952922 L350.540722,789.086517 L350.490851,789.221616 L350.442136,789.358382 L350.371172,789.567011 L350.325227,789.708653 L350.258288,789.925356 L350.214942,790.072887 L350.151771,790.299182 L350.090738,790.531962 L350.031749,790.771775 L349.974712,791.019166 L349.919533,791.274684 L349.883734,791.449813 L349.848692,791.628959 L349.81438,791.812284 L349.76422,792.095461 L349.731612,792.289942 L349.68388,792.590613 L349.63748,792.902509 L349.592319,793.226177 L349.548306,793.562165 L349.505346,793.91102 L349.463348,794.273287 L349.408685,794.778122 L349.381864,795.040251 L349.329104,795.584743 L349.290198,796.011456 L349.239032,796.605904 L349.175905,797.391765 L349.138306,797.887082 L349.075806,798.754032 L349.038253,799.299946 L348.853576,802.133914 L348.78492,803.129166 L348.73004,803.878263 L348.688561,804.415181 L348.646562,804.932591 L348.603821,805.432146 L348.560116,805.9155 L348.515224,806.384307 L348.468924,806.840222 L348.420993,807.284898 L348.37121,807.71999 L348.319352,808.147151 L348.265197,808.568036 L348.208524,808.984298 C348.202078,809.030354 348.195582,809.076355 348.189034,809.122311 L348.149109,809.397593 C348.101775,809.718318 348.051751,810.037851 347.998569,810.359693 C347.413051,813.903078 346.515318,816.942102 345.107321,819.658347 C341.46864,826.677929 334.858635,830.500272 325.68926,830.576017 L325.410617,830.577164 L318,830.577164 L318,815.72588 L325.410617,815.72588 C327.638673,815.72588 329.161437,815.372266 330.168606,814.797385 C330.901591,814.379006 331.454972,813.776451 331.954511,812.812763 L332.024255,812.675548 L332.092493,812.535855 C332.103742,812.51236 332.114929,812.488756 332.126055,812.465041 L332.192083,812.321402 L332.25667,812.174981 C332.267316,812.150339 332.277903,812.125576 332.288431,812.10069 L332.350906,811.949868 L332.412004,811.795961 C332.422074,811.770047 332.432087,811.743998 332.442045,811.717813 L332.501128,811.559051 C332.510865,811.532312 332.520547,811.505431 332.530176,811.478407 L332.587301,811.314517 C332.596715,811.286908 332.606076,811.25915 332.615385,811.231241 L332.670612,811.061949 L332.724605,810.888906 L332.803338,810.62204 L332.85436,810.439085 C332.862768,810.408248 332.871128,810.377237 332.879441,810.346049 L332.928759,810.156784 L332.976973,809.96316 L333.024109,809.765056 L333.070193,809.562351 L333.115251,809.354923 L333.159308,809.142652 L333.202391,808.925415 L333.244526,808.703093 L333.285738,808.475563 L333.326053,808.242704 L333.384902,807.883158 L333.423089,807.636447 L333.460471,807.383982 L333.497072,807.125642 L333.532919,806.861307 L333.568039,806.590854 L333.602456,806.314164 L333.652821,805.887165 L333.701752,805.445448 L333.733619,805.142591 L333.780355,804.675433 L333.825889,804.192466 L333.87031,803.693279 L333.913704,803.177464 L333.942107,802.824147 L333.997766,802.09431 L334.052066,801.332729 L334.293548,797.643482 L334.364737,796.624419 L334.433403,795.708901 L334.482054,795.106827 L334.531232,794.53938 L334.571462,794.105257 L334.634193,793.47803 L334.678168,793.070189 L334.736241,792.565158 L334.798469,792.058352 L334.851751,791.646531 C335.265592,788.514531 335.877603,785.847887 336.837719,783.418512 C339.454197,776.798052 344.570132,772.563427 352.019338,771.650443 L352.245786,771.623794 L352.659071,771.577164 L353.074968,771.577164 Z" id="Path" fill="url(#linearGradient-1)" fill-rule="nonzero"></path>
    </g>
</svg>