<?xml version="1.0" encoding="UTF-8"?>
<svg width="1080px" height="1080px" viewBox="0 0 1080 1080" version="1.1" xmlns="http://www.w3.org/2000/svg" xmlns:xlink="http://www.w3.org/1999/xlink">
    <title>waveform-horizontal-01-mixed</title>
    <defs>
        <linearGradient x1="50%" y1="63.3358942%" x2="52.1686491%" y2="36.6641058%" id="linearGradient-1">
            <stop stop-color="#7C39FF" offset="0%"></stop>
            <stop stop-color="#04B9FF" offset="49.7267007%"></stop>
            <stop stop-color="#00EBBF" offset="100%"></stop>
        </linearGradient>
    </defs>
    <g id="waveform-horizontal-01-mixed" stroke="none" stroke-width="1" fill="none" fill-rule="evenodd">
        <rect fill="#1D1D21" x="0" y="0" width="1080" height="1080"></rect>
        <g id="Group-3" transform="translate(244.000000, 437.000000)" fill="url(#linearGradient-1)" fill-rule="nonzero">
            <path d="M93.5332488,49 C114.824468,49 130.467136,58.6274315 139.098456,75.7654034 C142.298798,82.1198628 144.423779,89.1866835 145.919446,97.4060971 L146.11075,98.4802352 L146.293424,99.5531059 L146.410806,100.270179 L146.580865,101.352325 L146.690574,102.080327 L146.85023,103.185981 L147.004706,104.312573 L147.154796,105.465227 L147.301297,106.649067 L147.445004,107.869218 L147.539651,108.705354 L147.680472,109.997408 L147.867327,111.798772 L148.054877,113.701126 L148.245007,115.716616 L148.931962,123.366587 L149.17299,125.916052 L149.370655,127.902201 L149.527457,129.404573 L149.644639,130.482754 L149.800757,131.857838 L149.918047,132.843856 L150.075138,134.100462 L150.23353,135.293321 L150.353503,136.147863 L150.515474,137.236088 L150.638754,138.015457 L150.763831,138.764632 L150.890934,139.484826 L151.063952,140.402103 L151.196672,141.059395 L151.332179,141.691753 L151.470702,142.300389 L151.56484,142.693567 L151.708897,143.265364 L151.85658,143.816675 L152.008117,144.348714 L152.111395,144.6933 L152.269863,145.195916 C152.287714,145.250849 152.305648,145.305485 152.323665,145.359831 L152.488134,145.841336 L152.600414,146.154255 L152.714881,146.461126 L152.831602,146.762307 L152.950645,147.05816 L153.133711,147.492733 L153.3933,148.077195 L153.517932,148.34714 L153.638439,148.598166 L153.756031,148.830953 C153.775454,148.868268 153.794807,148.904852 153.814113,148.940719 L153.929605,149.147424 L154.045211,149.33759 C154.509474,150.066087 155.005525,150.414002 155.882147,150.577272 L156.109433,150.614356 L156.353787,150.644427 L156.61642,150.668165 C156.661783,150.671632 156.707958,150.674863 156.75497,150.677872 L157.047293,150.693387 L157.360922,150.70427 L157.873966,150.713397 L158.441763,150.715929 C161.87475,150.715929 164.055226,150.271125 165.310117,149.653678 C165.854376,149.385885 166.166152,149.1019 166.592504,148.447252 L166.712603,148.258122 L166.83087,148.06218 L166.947409,147.858998 L167.062324,147.648145 L167.175722,147.429193 L167.287706,147.201711 L167.398381,146.96527 L167.507851,146.719442 L167.616222,146.463796 L167.723597,146.197902 L167.830083,145.921333 L167.935782,145.633657 L168.093088,145.18038 L168.197281,144.86306 L168.352818,144.363303 L168.456159,144.013655 L168.559342,143.650324 L168.662473,143.272881 L168.765655,142.880896 L168.868993,142.473939 L169.024523,141.834494 L169.12871,141.38823 L169.286003,140.687811 L169.444826,139.948874 L169.605531,139.169972 L169.768471,138.349653 L169.989814,137.188965 L170.159345,136.266372 L170.390757,134.964058 L170.629074,133.57609 L170.937956,131.715446 L171.46019,128.51834 L171.701914,127.071317 L171.985824,125.415614 L172.254962,123.9043 L172.411806,123.055365 L172.61816,121.978615 L172.824115,120.951985 L172.927885,120.45306 L173.192649,119.233588 L173.357054,118.512184 L173.527176,117.791221 L173.765098,116.820347 L173.95351,116.077288 C175.608894,109.635354 177.806194,104.066851 181.025152,99.0017991 C189.377028,85.8600663 203.06974,78.8846723 221.012471,78.7464786 L221.55749,78.7443844 L222.874261,78.7443844 L224.179392,78.9190721 C242.209524,81.33235 254.966842,90.7755202 261.639086,105.712767 C264.112876,111.250877 265.644401,117.21197 266.631567,124.072484 C266.717947,124.672802 266.798205,125.25623 266.873595,125.8345 L266.996991,126.812219 L267.138667,128.026223 L267.218891,128.766686 L267.321428,129.7788 L267.468413,131.375152 L267.611156,133.102209 L267.706151,134.346686 L267.85168,136.383801 L268.258086,142.541883 L268.397577,144.506584 L268.482524,145.624163 L268.626805,147.388499 L268.745171,148.714631 L268.80549,149.350208 L268.89755,150.270193 L268.991675,151.151163 L269.088058,151.994294 L269.186889,152.800759 L269.322804,153.82104 L269.392664,154.30839 L269.499989,155.011905 L269.573313,155.463083 L269.686101,156.113971 L269.763244,156.531152 L269.842013,156.935342 L269.922466,157.326891 L270.046426,157.891271 L270.131336,158.252737 L270.218128,158.602779 L270.351967,159.107183 L270.443711,159.430188 L270.537536,159.742986 L270.633497,160.045926 L270.78157,160.482613 L270.934769,160.899076 L271.039845,161.166063 L271.147341,161.424932 L271.257314,161.67603 L271.36982,161.919707 L271.484917,162.156308 L271.602661,162.386184 L271.723109,162.609681 C271.743412,162.646418 271.76383,162.682904 271.784365,162.719146 C272.371583,163.755558 272.931456,164.302059 273.935611,164.808597 C275.431516,165.563195 277.693128,166.132482 280.871392,166.365293 L281.498027,166.406111 C282.242549,166.448735 283.034307,166.473706 283.875038,166.479283 L284.238355,166.48048 L304,166.48048 L304,206 L284.238355,206 C262.323737,206 246.302369,197.918144 237.396267,182.199313 C233.937538,176.094826 231.830705,169.370626 230.527697,161.601963 C230.414191,160.925229 230.30881,160.263251 230.210147,159.604771 L230.087753,158.765323 L229.936946,157.65944 L229.830483,156.821342 L229.762327,156.255709 L229.631948,155.101243 L229.569357,154.50946 L229.478202,153.599451 L229.360791,152.33667 L229.246748,151.006578 L229.1346,149.597375 L228.994834,147.706648 L228.88156,146.076308 L228.563603,141.22819 L228.43003,139.305825 L228.296166,137.513543 L228.188171,136.16902 L228.078801,134.900278 L227.967529,133.703999 L227.882507,132.852346 L227.766633,131.774885 L227.647403,130.760755 L227.52429,129.806636 L227.429088,129.12843 L227.331182,128.480712 L227.230349,127.862081 L227.126365,127.271135 L227.019008,126.706473 L226.945453,126.343943 L226.83198,125.819977 L226.754141,125.48328 L226.674473,125.15619 L226.592909,124.838292 L226.466866,124.377771 L226.380275,124.081037 L226.246382,123.650316 L226.154352,123.372151 L226.060031,123.100687 L225.963353,122.83551 L225.864251,122.576204 L225.762659,122.322355 L225.60546,121.950903 L225.551744,121.829365 C225.509122,121.733945 225.466514,121.641118 225.423692,121.550788 L225.294352,121.287199 C224.446473,119.621368 223.429728,118.869858 220.542785,118.339296 L220.255742,118.288915 L220.118102,118.294393 C217.873222,118.394105 216.386924,118.728704 215.480541,119.154283 L215.374547,119.20578 C214.976143,119.406134 214.754782,119.612524 214.383039,120.197464 L214.215215,120.471405 L214.105404,120.662013 L213.997132,120.859497 L213.890298,121.064282 L213.784798,121.276791 L213.62883,121.610961 L213.526223,121.84463 L213.424595,122.087503 L213.323844,122.340004 L213.223868,122.602555 L213.124565,122.875581 L212.976651,123.305683 L212.878586,123.606745 L212.780838,123.919761 L212.683305,124.245156 L212.537186,124.757382 L212.390977,125.299839 L212.244337,125.873955 L212.146166,126.274993 L211.948383,127.122876 L211.798382,127.800537 L211.595511,128.762465 L211.388611,129.794215 L211.123082,131.187249 L210.848395,132.701281 L210.56296,134.342924 L210.204009,136.490649 L209.666914,139.777819 L209.455466,141.044197 L209.148149,142.837023 L209.000369,143.674035 L208.855434,144.476306 L208.712537,145.247483 L208.500251,146.353919 L208.358925,147.063308 L208.145218,148.094151 L208.000427,148.764536 L207.852839,149.4257 L207.701649,150.081288 L207.546051,150.734946 L207.385239,151.390318 L207.218407,152.051051 L207.04475,152.72079 C205.333001,159.240585 203.048425,164.890486 199.71228,170.013018 C191.062292,183.294762 176.956124,190.235449 158.441763,190.235449 C138.71699,190.235449 124.438686,180.393501 117.025828,163.56526 C114.406608,157.619258 112.693141,151.057194 111.462238,143.309542 C111.332821,142.494954 111.212383,141.702479 111.098227,140.91068 L110.917645,139.619867 L110.74833,138.331484 L110.584785,137.004905 L110.456452,135.903027 L110.297105,134.458523 L110.201122,133.54851 L110.005842,131.611367 L109.767661,129.116122 L109.35529,124.55954 L109.030227,120.897292 L108.857173,119.025513 L108.68354,117.23398 L108.552615,115.941536 L108.376685,114.284611 L108.198707,112.701277 L108.06356,111.560615 L107.926735,110.458965 L107.834476,109.745702 L107.694355,108.706805 L107.551955,107.704198 L107.455646,107.055451 L107.358157,106.422076 L107.259421,105.803771 L107.159373,105.200234 L107.057945,104.611163 L106.955071,104.036254 L106.797901,103.199784 L106.691118,102.658958 L106.527773,101.872195 L106.360422,101.113894 L106.246518,100.623669 L106.130667,100.145338 L105.953093,99.4494803 L105.832081,98.9995603 L105.708889,98.5604755 L105.583449,98.1319233 L105.455694,97.7136012 L105.325559,97.3052067 L105.192975,96.9064373 L105.057877,96.5169905 L104.920197,96.1365637 C104.897032,96.0738942 104.873756,96.0115878 104.850368,95.9496384 L104.708691,95.5821746 L104.564265,95.2229746 L104.417024,94.8717359 L104.266901,94.528156 L104.11383,94.1919325 L103.957743,93.8627627 L103.798574,93.5403442 L103.61548,93.1852952 L103.431124,92.8456594 C103.338492,92.6796511 103.245073,92.5193243 103.150399,92.3645312 L102.959237,92.0622795 C101.639626,90.0467127 100.027037,89.0463207 96.9230608,88.6838979 L96.4580349,88.6353708 L95.9708815,88.5956895 C95.6385513,88.5721255 95.290913,88.5542835 94.9268538,88.5418132 L94.6876113,88.5346689 L94.5414013,88.5569655 C90.5195711,89.1979136 88.8509473,90.6315975 87.2519569,94.398445 L87.0711139,94.8349305 L86.9114059,95.2371861 L86.7752599,95.5926838 L86.6422703,95.9521856 L86.5123639,96.3161225 L86.3231246,96.8712875 L86.2006049,97.2481994 L86.022102,97.8248482 L85.9065108,98.2174304 L85.7380565,98.8196061 L85.5753014,99.4390387 L85.4179978,100.077184 L85.2658982,100.735496 L85.1187549,101.415432 L85.0232907,101.881455 L84.9298459,102.358166 L84.8383472,102.845996 L84.7045877,103.599535 L84.6176333,104.117052 L84.4903463,104.917142 L84.3666128,105.747103 L84.2461852,106.60839 L84.1288159,107.50246 L84.0142573,108.430767 L83.9022619,109.394768 L83.7564939,110.73814 L83.6849702,111.43567 L83.5442768,112.884574 L83.4405275,114.020064 L83.3040856,115.6019 L83.135746,117.69309 L83.0354823,119.011136 L82.868815,121.318105 L82.7686744,122.770792 L82.2762034,130.312029 L82.0931192,132.96041 L81.946773,134.95377 L81.8361629,136.382519 L81.7241657,137.759355 L81.6101894,139.088679 L81.4936416,140.374892 L81.3739302,141.622397 L81.250463,142.835594 L81.1226478,144.018885 L80.9898924,145.176672 L80.8516045,146.313355 L80.7071921,147.433336 L80.5560628,148.541018 C80.5388756,148.663573 80.521553,148.785982 80.5040914,148.908272 L80.3976245,149.6408 C80.2713989,150.494256 80.1380035,151.344538 79.9961847,152.200965 C78.4348029,161.629973 76.0408471,169.716868 72.2861896,176.944841 C62.583041,195.624069 44.9563612,205.795387 20.5046931,205.996945 L19.7616455,206 L0,206 L0,166.48048 L19.7616455,166.48048 C25.7031286,166.48048 29.7638331,165.539506 32.4496149,164.00974 C34.4042419,162.896425 35.879926,161.293017 37.2120299,158.728625 L37.3980127,158.363496 L37.5799803,157.99177 C37.6099775,157.929248 37.6398103,157.866438 37.66948,157.803333 L37.8455545,157.421107 L38.0177867,157.031479 C38.0461757,156.965906 38.0744074,156.900011 38.1024834,156.833787 L38.2690816,156.432449 L38.4320102,156.022901 C38.458863,155.95394 38.4855658,155.884625 38.51212,155.814947 L38.6696738,155.392478 C38.6956394,155.321324 38.7214594,155.249795 38.7471351,155.177883 L38.8994696,154.741768 C38.924574,154.6683 38.949537,154.594435 38.9743601,154.520168 L39.1216309,154.069682 L39.2656122,153.60921 L39.4755676,152.899075 L39.6116276,152.412229 C39.6340484,152.330171 39.6563422,152.24765 39.6785105,152.164659 L39.8100251,151.66102 L39.9385959,151.145784 L40.0642918,150.618626 L40.1871822,150.079224 L40.3073359,149.527256 L40.4248223,148.962398 L40.5397103,148.384329 L40.6520692,147.792725 L40.7619679,147.187263 L40.8694757,146.567621 L41.0264055,145.610865 L41.1282383,144.954361 L41.2279219,144.282548 L41.3255256,143.595102 L41.4211185,142.891701 L41.5147697,142.172022 L41.6065482,141.435743 L41.740856,140.299493 L41.8713392,139.124077 L41.9563184,138.318169 L42.0809456,137.075055 L42.2023703,135.78987 L42.3208256,134.461525 L42.4365448,133.088932 L42.5122861,132.148749 L42.6607081,130.206642 L42.80551,128.18006 L43.4494624,118.362911 L43.6392978,115.651169 L43.8224067,113.214961 L43.9521439,111.612831 L44.0832861,110.102844 L44.1905659,108.947636 L44.3578475,107.278576 L44.4751146,106.193301 L44.6299766,104.849407 L44.7959178,103.500787 L44.9380019,102.404926 C46.0415777,94.0706186 47.6736091,86.9746348 50.2339175,80.5100252 C57.2111909,62.8928704 70.8536844,51.6244601 90.7182346,49.1949942 L91.3220947,49.1240821 L92.4241896,49 L93.5332488,49 Z" id="Path" transform="translate(152.000000, 127.500000) scale(-1, -1) translate(-152.000000, -127.500000) "></path>
            <path d="M382.533249,0 C403.824468,0 419.467136,9.62743154 428.098456,26.7654034 C431.298798,33.1198628 433.423779,40.1866835 434.919446,48.4060971 L435.11075,49.4802352 L435.293424,50.5531059 L435.410806,51.2701795 L435.580865,52.3523252 L435.690574,53.0803267 L435.85023,54.1859813 L436.004706,55.3125734 L436.154796,56.4652274 L436.301297,57.6490674 L436.445004,58.8692177 L436.539651,59.705354 L436.680472,60.9974084 L436.867327,62.7987719 L437.054877,64.7011257 L437.245007,66.7166161 L437.931962,74.3665872 L438.17299,76.9160523 L438.370655,78.9022013 L438.527457,80.4045731 L438.644639,81.4827538 L438.800757,82.8578379 L438.918047,83.8438563 L439.075138,85.1004621 L439.23353,86.2933215 L439.353503,87.1478628 L439.515474,88.2360877 L439.638754,89.0154568 L439.763831,89.7646318 L439.890934,90.4848264 L440.063952,91.4021026 L440.196672,92.0593955 L440.332179,92.6917531 L440.470702,93.3003891 L440.56484,93.693567 L440.708897,94.2653637 L440.85658,94.8166749 L441.008117,95.3487142 L441.111395,95.6932998 L441.269863,96.1959161 C441.287714,96.250849 441.305648,96.3054849 441.323665,96.3598314 L441.488134,96.8413365 L441.600414,97.1542551 L441.714881,97.4611256 L441.831602,97.7623073 L441.950645,98.0581599 L442.133711,98.4927334 L442.3933,99.0771951 L442.517932,99.34714 L442.638439,99.5981657 L442.756031,99.8309527 C442.775454,99.8682684 442.794807,99.9048525 442.814113,99.9407192 L442.929605,100.147424 L443.045211,100.33759 C443.509474,101.066087 444.005525,101.414002 444.882147,101.577272 L445.109433,101.614356 L445.353787,101.644427 L445.61642,101.668165 C445.661783,101.671632 445.707958,101.674863 445.75497,101.677872 L446.047293,101.693387 L446.360922,101.70427 L446.873966,101.713397 L447.441763,101.715929 C450.87475,101.715929 453.055226,101.271125 454.310117,100.653678 C454.854376,100.385885 455.166152,100.1019 455.592504,99.4472523 L455.712603,99.258122 L455.83087,99.0621803 L455.947409,98.8589978 L456.062324,98.648145 L456.175722,98.4291925 L456.287706,98.2017108 L456.398381,97.9652704 L456.507851,97.7194419 L456.616222,97.4637957 L456.723597,97.1979025 L456.830083,96.9213326 L456.935782,96.6336567 L457.093088,96.1803796 L457.197281,95.8630597 L457.352818,95.3633034 L457.456159,95.0136552 L457.559342,94.6503241 L457.662473,94.2728807 L457.765655,93.8808955 L457.868993,93.473939 L458.024523,92.8344936 L458.12871,92.3882299 L458.286003,91.6878106 L458.444826,90.9488744 L458.605531,90.1699717 L458.768471,89.3496531 L458.989814,88.188965 L459.159345,87.2663724 L459.390757,85.9640581 L459.629074,84.5760902 L459.937956,82.715446 L460.46019,79.5183403 L460.701914,78.0713168 L460.985824,76.4156138 L461.254962,74.9042999 L461.411806,74.0553653 L461.61816,72.9786146 L461.824115,71.9519847 L461.927885,71.4530601 L462.192649,70.2335876 L462.357054,69.5121838 L462.527176,68.7912214 L462.765098,67.8203465 L462.95351,67.0772879 C464.608894,60.6353543 466.806194,55.0668511 470.025152,50.0017991 C478.377028,36.8600663 492.06974,29.8846723 510.012471,29.7464786 L510.55749,29.7443844 L511.874261,29.7443844 L513.179392,29.9190721 C531.209524,32.33235 543.966842,41.7755202 550.639086,56.7127668 C553.112876,62.250877 554.644401,68.2119704 555.631567,75.0724842 C555.717947,75.6728021 555.798205,76.2562303 555.873595,76.8345002 L555.996991,77.8122193 L556.138667,79.0262233 L556.218891,79.7666864 L556.321428,80.7788001 L556.468413,82.3751522 L556.611156,84.102209 L556.706151,85.3466865 L556.85168,87.3838012 L557.258086,93.5418831 L557.397577,95.5065835 L557.482524,96.6241633 L557.626805,98.3884986 L557.745171,99.7146307 L557.80549,100.350208 L557.89755,101.270193 L557.991675,102.151163 L558.088058,102.994294 L558.186889,103.800759 L558.322804,104.82104 L558.392664,105.30839 L558.499989,106.011905 L558.573313,106.463083 L558.686101,107.113971 L558.763244,107.531152 L558.842013,107.935342 L558.922466,108.326891 L559.046426,108.891271 L559.131336,109.252737 L559.218128,109.602779 L559.351967,110.107183 L559.443711,110.430188 L559.537536,110.742986 L559.633497,111.045926 L559.78157,111.482613 L559.934769,111.899076 L560.039845,112.166063 L560.147341,112.424932 L560.257314,112.67603 L560.36982,112.919707 L560.484917,113.156308 L560.602661,113.386184 L560.723109,113.609681 C560.743412,113.646418 560.76383,113.682904 560.784365,113.719146 C561.371583,114.755558 561.931456,115.302059 562.935611,115.808597 C564.431516,116.563195 566.693128,117.132482 569.871392,117.365293 L570.498027,117.406111 C571.242549,117.448735 572.034307,117.473706 572.875038,117.479283 L573.238355,117.48048 L593,117.48048 L593,157 L573.238355,157 C551.323737,157 535.302369,148.918144 526.396267,133.199313 C522.937538,127.094826 520.830705,120.370626 519.527697,112.601963 C519.414191,111.925229 519.30881,111.263251 519.210147,110.604771 L519.087753,109.765323 L518.936946,108.65944 L518.830483,107.821342 L518.762327,107.255709 L518.631948,106.101243 L518.569357,105.50946 L518.478202,104.599451 L518.360791,103.33667 L518.246748,102.006578 L518.1346,100.597375 L517.994834,98.7066483 L517.88156,97.0763083 L517.563603,92.2281902 L517.43003,90.3058249 L517.296166,88.5135431 L517.188171,87.1690196 L517.078801,85.9002785 L516.967529,84.7039993 L516.882507,83.8523456 L516.766633,82.7748851 L516.647403,81.7607553 L516.52429,80.8066358 L516.429088,80.1284304 L516.331182,79.4807123 L516.230349,78.8620806 L516.126365,78.2711346 L516.019008,77.7064733 L515.945453,77.3439434 L515.83198,76.8199772 L515.754141,76.4832803 L515.674473,76.1561903 L515.592909,75.838292 L515.466866,75.3777714 L515.380275,75.0810368 L515.246382,74.650316 L515.154352,74.372151 L515.060031,74.1006874 L514.963353,73.8355103 L514.864251,73.5762045 L514.762659,73.322355 L514.60546,72.9509034 L514.551744,72.8293648 C514.509122,72.7339454 514.466514,72.6411176 514.423692,72.5507878 L514.294352,72.287199 C513.446473,70.621368 512.429728,69.8698582 509.542785,69.3392956 L509.255742,69.2889154 L509.118102,69.2943933 C506.873222,69.3941046 505.386924,69.7287036 504.480541,70.1542827 L504.374547,70.2057796 C503.976143,70.4061343 503.754782,70.6125236 503.383039,71.1974636 L503.215215,71.4714053 L503.105404,71.6620127 L502.997132,71.8594973 L502.890298,72.0642823 L502.784798,72.2767909 L502.62883,72.6109609 L502.526223,72.8446296 L502.424595,73.0875027 L502.323844,73.3400035 L502.223868,73.6025552 L502.124565,73.8755807 L501.976651,74.3056832 L501.878586,74.6067448 L501.780838,74.9197613 L501.683305,75.2451559 L501.537186,75.7573822 L501.390977,76.2998392 L501.244337,76.8739551 L501.146166,77.2749926 L500.948383,78.1228758 L500.798382,78.8005368 L500.595511,79.7624646 L500.388611,80.7942151 L500.123082,82.1872486 L499.848395,83.7012809 L499.56296,85.3429236 L499.204009,87.4906494 L498.666914,90.7778188 L498.455466,92.0441973 L498.148149,93.8370234 L498.000369,94.6740349 L497.855434,95.4763061 L497.712537,96.2474825 L497.500251,97.353919 L497.358925,98.0633077 L497.145218,99.094151 L497.000427,99.7645365 L496.852839,100.4257 L496.701649,101.081288 L496.546051,101.734946 L496.385239,102.390318 L496.218407,103.051051 L496.04475,103.72079 C494.333001,110.240585 492.048425,115.890486 488.71228,121.013018 C480.062292,134.294762 465.956124,141.235449 447.441763,141.235449 C427.71699,141.235449 413.438686,131.393501 406.025828,114.56526 C403.406608,108.619258 401.693141,102.057194 400.462238,94.3095424 C400.332821,93.494954 400.212383,92.702479 400.098227,91.9106803 L399.917645,90.6198667 L399.74833,89.3314838 L399.584785,88.0049045 L399.456452,86.9030273 L399.297105,85.4585228 L399.201122,84.5485097 L399.005842,82.6113665 L398.767661,80.1161217 L398.35529,75.5595402 L398.030227,71.8972924 L397.857173,70.0255133 L397.68354,68.2339804 L397.552615,66.9415365 L397.376685,65.2846113 L397.198707,63.7012771 L397.06356,62.5606149 L396.926735,61.4589654 L396.834476,60.745702 L396.694355,59.706805 L396.551955,58.7041981 L396.455646,58.0554506 L396.358157,57.4220759 L396.259421,56.8037713 L396.159373,56.2002344 L396.057945,55.6111627 L395.955071,55.0362537 L395.797901,54.1997836 L395.691118,53.6589578 L395.527773,52.8721945 L395.360422,52.1138941 L395.246518,51.623669 L395.130667,51.1453378 L394.953093,50.4494803 L394.832081,49.9995603 L394.708889,49.5604755 L394.583449,49.1319233 L394.455694,48.7136012 L394.325559,48.3052067 L394.192975,47.9064373 L394.057877,47.5169905 L393.920197,47.1365637 C393.897032,47.0738942 393.873756,47.0115878 393.850368,46.9496384 L393.708691,46.5821746 L393.564265,46.2229746 L393.417024,45.8717359 L393.266901,45.528156 L393.11383,45.1919325 L392.957743,44.8627627 L392.798574,44.5403442 L392.61548,44.1852952 L392.431124,43.8456594 C392.338492,43.6796511 392.245073,43.5193243 392.150399,43.3645312 L391.959237,43.0622795 C390.639626,41.0467127 389.027037,40.0463207 385.923061,39.6838979 L385.458035,39.6353708 L384.970881,39.5956895 C384.638551,39.5721255 384.290913,39.5542835 383.926854,39.5418132 L383.687611,39.5346689 L383.541401,39.5569655 C379.519571,40.1979136 377.850947,41.6315975 376.251957,45.398445 L376.071114,45.8349305 L375.911406,46.2371861 L375.77526,46.5926838 L375.64227,46.9521856 L375.512364,47.3161225 L375.323125,47.8712875 L375.200605,48.2481994 L375.022102,48.8248482 L374.906511,49.2174304 L374.738057,49.8196061 L374.575301,50.4390387 L374.417998,51.0771836 L374.265898,51.7354963 L374.118755,52.4154324 L374.023291,52.8814548 L373.929846,53.3581657 L373.838347,53.8459964 L373.704588,54.5995353 L373.617633,55.1170522 L373.490346,55.917142 L373.366613,56.7471029 L373.246185,57.6083904 L373.128816,58.5024601 L373.014257,59.4307674 L372.902262,60.3947679 L372.756494,61.7381401 L372.68497,62.4356702 L372.544277,63.8845744 L372.440528,65.0200642 L372.304086,66.6019 L372.135746,68.6930903 L372.035482,70.0111363 L371.868815,72.3181046 L371.768674,73.7707924 L371.276203,81.3120289 L371.093119,83.9604098 L370.946773,85.9537698 L370.836163,87.3825188 L370.724166,88.7593546 L370.610189,90.0886785 L370.493642,91.3748921 L370.37393,92.6223968 L370.250463,93.8355939 L370.122648,95.018885 L369.989892,96.1766715 L369.851605,97.3133548 L369.707192,98.4333364 L369.556063,99.5410177 C369.538876,99.663573 369.521553,99.7859821 369.504091,99.9082721 L369.397625,100.6408 C369.271399,101.494256 369.138004,102.344538 368.996185,103.200965 C367.434803,112.629973 365.040847,120.716868 361.28619,127.944841 C351.583041,146.624069 333.956361,156.795387 309.504693,156.996945 L308.761645,157 L289,157 L289,117.48048 L308.761645,117.48048 C314.703129,117.48048 318.763833,116.539506 321.449615,115.00974 C323.404242,113.896425 324.879926,112.293017 326.21203,109.728625 L326.398013,109.363496 L326.57998,108.99177 C326.609977,108.929248 326.63981,108.866438 326.66948,108.803333 L326.845555,108.421107 L327.017787,108.031479 C327.046176,107.965906 327.074407,107.900011 327.102483,107.833787 L327.269082,107.432449 L327.43201,107.022901 C327.458863,106.95394 327.485566,106.884625 327.51212,106.814947 L327.669674,106.392478 C327.695639,106.321324 327.721459,106.249795 327.747135,106.177883 L327.89947,105.741768 C327.924574,105.6683 327.949537,105.594435 327.97436,105.520168 L328.121631,105.069682 L328.265612,104.60921 L328.475568,103.899075 L328.611628,103.412229 C328.634048,103.330171 328.656342,103.24765 328.678511,103.164659 L328.810025,102.66102 L328.938596,102.145784 L329.064292,101.618626 L329.187182,101.079224 L329.307336,100.527256 L329.424822,99.9623983 L329.53971,99.3843288 L329.652069,98.7927246 L329.761968,98.187263 L329.869476,97.5676212 L330.026406,96.610865 L330.128238,95.9543611 L330.227922,95.2825476 L330.325526,94.5951018 L330.421119,93.891701 L330.51477,93.1720224 L330.606548,92.4357434 L330.740856,91.2994931 L330.871339,90.1240765 L330.956318,89.3181686 L331.080946,88.0750546 L331.20237,86.7898699 L331.320826,85.4615254 L331.436545,84.088932 L331.512286,83.1487491 L331.660708,81.2066416 L331.80551,79.1800605 L332.449462,69.3629114 L332.639298,66.6511694 L332.822407,64.2149609 L332.952144,62.6128305 L333.083286,61.1028437 L333.190566,59.9476357 L333.357847,58.2785756 L333.475115,57.1933014 L333.629977,55.8494072 L333.795918,54.5007868 L333.938002,53.4049258 C335.041578,45.0706186 336.673609,37.9746348 339.233917,31.5100252 C346.211191,13.8928704 359.853684,2.62446006 379.718235,0.194994205 L380.322095,0.124082117 L381.42419,0 L382.533249,0 Z" id="Path"></path>
        </g>
        <g id="Group-3" transform="translate(234.000000, 427.000000)" fill="#FFFFFF" fill-rule="nonzero">
            <path d="M93.5332488,49 C114.824468,49 130.467136,58.6274315 139.098456,75.7654034 C142.298798,82.1198628 144.423779,89.1866835 145.919446,97.4060971 L146.11075,98.4802352 L146.293424,99.5531059 L146.410806,100.270179 L146.580865,101.352325 L146.690574,102.080327 L146.85023,103.185981 L147.004706,104.312573 L147.154796,105.465227 L147.301297,106.649067 L147.445004,107.869218 L147.539651,108.705354 L147.680472,109.997408 L147.867327,111.798772 L148.054877,113.701126 L148.245007,115.716616 L148.931962,123.366587 L149.17299,125.916052 L149.370655,127.902201 L149.527457,129.404573 L149.644639,130.482754 L149.800757,131.857838 L149.918047,132.843856 L150.075138,134.100462 L150.23353,135.293321 L150.353503,136.147863 L150.515474,137.236088 L150.638754,138.015457 L150.763831,138.764632 L150.890934,139.484826 L151.063952,140.402103 L151.196672,141.059395 L151.332179,141.691753 L151.470702,142.300389 L151.56484,142.693567 L151.708897,143.265364 L151.85658,143.816675 L152.008117,144.348714 L152.111395,144.6933 L152.269863,145.195916 C152.287714,145.250849 152.305648,145.305485 152.323665,145.359831 L152.488134,145.841336 L152.600414,146.154255 L152.714881,146.461126 L152.831602,146.762307 L152.950645,147.05816 L153.133711,147.492733 L153.3933,148.077195 L153.517932,148.34714 L153.638439,148.598166 L153.756031,148.830953 C153.775454,148.868268 153.794807,148.904852 153.814113,148.940719 L153.929605,149.147424 L154.045211,149.33759 C154.509474,150.066087 155.005525,150.414002 155.882147,150.577272 L156.109433,150.614356 L156.353787,150.644427 L156.61642,150.668165 C156.661783,150.671632 156.707958,150.674863 156.75497,150.677872 L157.047293,150.693387 L157.360922,150.70427 L157.873966,150.713397 L158.441763,150.715929 C161.87475,150.715929 164.055226,150.271125 165.310117,149.653678 C165.854376,149.385885 166.166152,149.1019 166.592504,148.447252 L166.712603,148.258122 L166.83087,148.06218 L166.947409,147.858998 L167.062324,147.648145 L167.175722,147.429193 L167.287706,147.201711 L167.398381,146.96527 L167.507851,146.719442 L167.616222,146.463796 L167.723597,146.197902 L167.830083,145.921333 L167.935782,145.633657 L168.093088,145.18038 L168.197281,144.86306 L168.352818,144.363303 L168.456159,144.013655 L168.559342,143.650324 L168.662473,143.272881 L168.765655,142.880896 L168.868993,142.473939 L169.024523,141.834494 L169.12871,141.38823 L169.286003,140.687811 L169.444826,139.948874 L169.605531,139.169972 L169.768471,138.349653 L169.989814,137.188965 L170.159345,136.266372 L170.390757,134.964058 L170.629074,133.57609 L170.937956,131.715446 L171.46019,128.51834 L171.701914,127.071317 L171.985824,125.415614 L172.254962,123.9043 L172.411806,123.055365 L172.61816,121.978615 L172.824115,120.951985 L172.927885,120.45306 L173.192649,119.233588 L173.357054,118.512184 L173.527176,117.791221 L173.765098,116.820347 L173.95351,116.077288 C175.608894,109.635354 177.806194,104.066851 181.025152,99.0017991 C189.377028,85.8600663 203.06974,78.8846723 221.012471,78.7464786 L221.55749,78.7443844 L222.874261,78.7443844 L224.179392,78.9190721 C242.209524,81.33235 254.966842,90.7755202 261.639086,105.712767 C264.112876,111.250877 265.644401,117.21197 266.631567,124.072484 C266.717947,124.672802 266.798205,125.25623 266.873595,125.8345 L266.996991,126.812219 L267.138667,128.026223 L267.218891,128.766686 L267.321428,129.7788 L267.468413,131.375152 L267.611156,133.102209 L267.706151,134.346686 L267.85168,136.383801 L268.258086,142.541883 L268.397577,144.506584 L268.482524,145.624163 L268.626805,147.388499 L268.745171,148.714631 L268.80549,149.350208 L268.89755,150.270193 L268.991675,151.151163 L269.088058,151.994294 L269.186889,152.800759 L269.322804,153.82104 L269.392664,154.30839 L269.499989,155.011905 L269.573313,155.463083 L269.686101,156.113971 L269.763244,156.531152 L269.842013,156.935342 L269.922466,157.326891 L270.046426,157.891271 L270.131336,158.252737 L270.218128,158.602779 L270.351967,159.107183 L270.443711,159.430188 L270.537536,159.742986 L270.633497,160.045926 L270.78157,160.482613 L270.934769,160.899076 L271.039845,161.166063 L271.147341,161.424932 L271.257314,161.67603 L271.36982,161.919707 L271.484917,162.156308 L271.602661,162.386184 L271.723109,162.609681 C271.743412,162.646418 271.76383,162.682904 271.784365,162.719146 C272.371583,163.755558 272.931456,164.302059 273.935611,164.808597 C275.431516,165.563195 277.693128,166.132482 280.871392,166.365293 L281.498027,166.406111 C282.242549,166.448735 283.034307,166.473706 283.875038,166.479283 L284.238355,166.48048 L304,166.48048 L304,206 L284.238355,206 C262.323737,206 246.302369,197.918144 237.396267,182.199313 C233.937538,176.094826 231.830705,169.370626 230.527697,161.601963 C230.414191,160.925229 230.30881,160.263251 230.210147,159.604771 L230.087753,158.765323 L229.936946,157.65944 L229.830483,156.821342 L229.762327,156.255709 L229.631948,155.101243 L229.569357,154.50946 L229.478202,153.599451 L229.360791,152.33667 L229.246748,151.006578 L229.1346,149.597375 L228.994834,147.706648 L228.88156,146.076308 L228.563603,141.22819 L228.43003,139.305825 L228.296166,137.513543 L228.188171,136.16902 L228.078801,134.900278 L227.967529,133.703999 L227.882507,132.852346 L227.766633,131.774885 L227.647403,130.760755 L227.52429,129.806636 L227.429088,129.12843 L227.331182,128.480712 L227.230349,127.862081 L227.126365,127.271135 L227.019008,126.706473 L226.945453,126.343943 L226.83198,125.819977 L226.754141,125.48328 L226.674473,125.15619 L226.592909,124.838292 L226.466866,124.377771 L226.380275,124.081037 L226.246382,123.650316 L226.154352,123.372151 L226.060031,123.100687 L225.963353,122.83551 L225.864251,122.576204 L225.762659,122.322355 L225.60546,121.950903 L225.551744,121.829365 C225.509122,121.733945 225.466514,121.641118 225.423692,121.550788 L225.294352,121.287199 C224.446473,119.621368 223.429728,118.869858 220.542785,118.339296 L220.255742,118.288915 L220.118102,118.294393 C217.873222,118.394105 216.386924,118.728704 215.480541,119.154283 L215.374547,119.20578 C214.976143,119.406134 214.754782,119.612524 214.383039,120.197464 L214.215215,120.471405 L214.105404,120.662013 L213.997132,120.859497 L213.890298,121.064282 L213.784798,121.276791 L213.62883,121.610961 L213.526223,121.84463 L213.424595,122.087503 L213.323844,122.340004 L213.223868,122.602555 L213.124565,122.875581 L212.976651,123.305683 L212.878586,123.606745 L212.780838,123.919761 L212.683305,124.245156 L212.537186,124.757382 L212.390977,125.299839 L212.244337,125.873955 L212.146166,126.274993 L211.948383,127.122876 L211.798382,127.800537 L211.595511,128.762465 L211.388611,129.794215 L211.123082,131.187249 L210.848395,132.701281 L210.56296,134.342924 L210.204009,136.490649 L209.666914,139.777819 L209.455466,141.044197 L209.148149,142.837023 L209.000369,143.674035 L208.855434,144.476306 L208.712537,145.247483 L208.500251,146.353919 L208.358925,147.063308 L208.145218,148.094151 L208.000427,148.764536 L207.852839,149.4257 L207.701649,150.081288 L207.546051,150.734946 L207.385239,151.390318 L207.218407,152.051051 L207.04475,152.72079 C205.333001,159.240585 203.048425,164.890486 199.71228,170.013018 C191.062292,183.294762 176.956124,190.235449 158.441763,190.235449 C138.71699,190.235449 124.438686,180.393501 117.025828,163.56526 C114.406608,157.619258 112.693141,151.057194 111.462238,143.309542 C111.332821,142.494954 111.212383,141.702479 111.098227,140.91068 L110.917645,139.619867 L110.74833,138.331484 L110.584785,137.004905 L110.456452,135.903027 L110.297105,134.458523 L110.201122,133.54851 L110.005842,131.611367 L109.767661,129.116122 L109.35529,124.55954 L109.030227,120.897292 L108.857173,119.025513 L108.68354,117.23398 L108.552615,115.941536 L108.376685,114.284611 L108.198707,112.701277 L108.06356,111.560615 L107.926735,110.458965 L107.834476,109.745702 L107.694355,108.706805 L107.551955,107.704198 L107.455646,107.055451 L107.358157,106.422076 L107.259421,105.803771 L107.159373,105.200234 L107.057945,104.611163 L106.955071,104.036254 L106.797901,103.199784 L106.691118,102.658958 L106.527773,101.872195 L106.360422,101.113894 L106.246518,100.623669 L106.130667,100.145338 L105.953093,99.4494803 L105.832081,98.9995603 L105.708889,98.5604755 L105.583449,98.1319233 L105.455694,97.7136012 L105.325559,97.3052067 L105.192975,96.9064373 L105.057877,96.5169905 L104.920197,96.1365637 C104.897032,96.0738942 104.873756,96.0115878 104.850368,95.9496384 L104.708691,95.5821746 L104.564265,95.2229746 L104.417024,94.8717359 L104.266901,94.528156 L104.11383,94.1919325 L103.957743,93.8627627 L103.798574,93.5403442 L103.61548,93.1852952 L103.431124,92.8456594 C103.338492,92.6796511 103.245073,92.5193243 103.150399,92.3645312 L102.959237,92.0622795 C101.639626,90.0467127 100.027037,89.0463207 96.9230608,88.6838979 L96.4580349,88.6353708 L95.9708815,88.5956895 C95.6385513,88.5721255 95.290913,88.5542835 94.9268538,88.5418132 L94.6876113,88.5346689 L94.5414013,88.5569655 C90.5195711,89.1979136 88.8509473,90.6315975 87.2519569,94.398445 L87.0711139,94.8349305 L86.9114059,95.2371861 L86.7752599,95.5926838 L86.6422703,95.9521856 L86.5123639,96.3161225 L86.3231246,96.8712875 L86.2006049,97.2481994 L86.022102,97.8248482 L85.9065108,98.2174304 L85.7380565,98.8196061 L85.5753014,99.4390387 L85.4179978,100.077184 L85.2658982,100.735496 L85.1187549,101.415432 L85.0232907,101.881455 L84.9298459,102.358166 L84.8383472,102.845996 L84.7045877,103.599535 L84.6176333,104.117052 L84.4903463,104.917142 L84.3666128,105.747103 L84.2461852,106.60839 L84.1288159,107.50246 L84.0142573,108.430767 L83.9022619,109.394768 L83.7564939,110.73814 L83.6849702,111.43567 L83.5442768,112.884574 L83.4405275,114.020064 L83.3040856,115.6019 L83.135746,117.69309 L83.0354823,119.011136 L82.868815,121.318105 L82.7686744,122.770792 L82.2762034,130.312029 L82.0931192,132.96041 L81.946773,134.95377 L81.8361629,136.382519 L81.7241657,137.759355 L81.6101894,139.088679 L81.4936416,140.374892 L81.3739302,141.622397 L81.250463,142.835594 L81.1226478,144.018885 L80.9898924,145.176672 L80.8516045,146.313355 L80.7071921,147.433336 L80.5560628,148.541018 C80.5388756,148.663573 80.521553,148.785982 80.5040914,148.908272 L80.3976245,149.6408 C80.2713989,150.494256 80.1380035,151.344538 79.9961847,152.200965 C78.4348029,161.629973 76.0408471,169.716868 72.2861896,176.944841 C62.583041,195.624069 44.9563612,205.795387 20.5046931,205.996945 L19.7616455,206 L0,206 L0,166.48048 L19.7616455,166.48048 C25.7031286,166.48048 29.7638331,165.539506 32.4496149,164.00974 C34.4042419,162.896425 35.879926,161.293017 37.2120299,158.728625 L37.3980127,158.363496 L37.5799803,157.99177 C37.6099775,157.929248 37.6398103,157.866438 37.66948,157.803333 L37.8455545,157.421107 L38.0177867,157.031479 C38.0461757,156.965906 38.0744074,156.900011 38.1024834,156.833787 L38.2690816,156.432449 L38.4320102,156.022901 C38.458863,155.95394 38.4855658,155.884625 38.51212,155.814947 L38.6696738,155.392478 C38.6956394,155.321324 38.7214594,155.249795 38.7471351,155.177883 L38.8994696,154.741768 C38.924574,154.6683 38.949537,154.594435 38.9743601,154.520168 L39.1216309,154.069682 L39.2656122,153.60921 L39.4755676,152.899075 L39.6116276,152.412229 C39.6340484,152.330171 39.6563422,152.24765 39.6785105,152.164659 L39.8100251,151.66102 L39.9385959,151.145784 L40.0642918,150.618626 L40.1871822,150.079224 L40.3073359,149.527256 L40.4248223,148.962398 L40.5397103,148.384329 L40.6520692,147.792725 L40.7619679,147.187263 L40.8694757,146.567621 L41.0264055,145.610865 L41.1282383,144.954361 L41.2279219,144.282548 L41.3255256,143.595102 L41.4211185,142.891701 L41.5147697,142.172022 L41.6065482,141.435743 L41.740856,140.299493 L41.8713392,139.124077 L41.9563184,138.318169 L42.0809456,137.075055 L42.2023703,135.78987 L42.3208256,134.461525 L42.4365448,133.088932 L42.5122861,132.148749 L42.6607081,130.206642 L42.80551,128.18006 L43.4494624,118.362911 L43.6392978,115.651169 L43.8224067,113.214961 L43.9521439,111.612831 L44.0832861,110.102844 L44.1905659,108.947636 L44.3578475,107.278576 L44.4751146,106.193301 L44.6299766,104.849407 L44.7959178,103.500787 L44.9380019,102.404926 C46.0415777,94.0706186 47.6736091,86.9746348 50.2339175,80.5100252 C57.2111909,62.8928704 70.8536844,51.6244601 90.7182346,49.1949942 L91.3220947,49.1240821 L92.4241896,49 L93.5332488,49 Z" id="Path" transform="translate(152.000000, 127.500000) scale(-1, -1) translate(-152.000000, -127.500000) "></path>
            <path d="M382.533249,0 C403.824468,0 419.467136,9.62743154 428.098456,26.7654034 C431.298798,33.1198628 433.423779,40.1866835 434.919446,48.4060971 L435.11075,49.4802352 L435.293424,50.5531059 L435.410806,51.2701795 L435.580865,52.3523252 L435.690574,53.0803267 L435.85023,54.1859813 L436.004706,55.3125734 L436.154796,56.4652274 L436.301297,57.6490674 L436.445004,58.8692177 L436.539651,59.705354 L436.680472,60.9974084 L436.867327,62.7987719 L437.054877,64.7011257 L437.245007,66.7166161 L437.931962,74.3665872 L438.17299,76.9160523 L438.370655,78.9022013 L438.527457,80.4045731 L438.644639,81.4827538 L438.800757,82.8578379 L438.918047,83.8438563 L439.075138,85.1004621 L439.23353,86.2933215 L439.353503,87.1478628 L439.515474,88.2360877 L439.638754,89.0154568 L439.763831,89.7646318 L439.890934,90.4848264 L440.063952,91.4021026 L440.196672,92.0593955 L440.332179,92.6917531 L440.470702,93.3003891 L440.56484,93.693567 L440.708897,94.2653637 L440.85658,94.8166749 L441.008117,95.3487142 L441.111395,95.6932998 L441.269863,96.1959161 C441.287714,96.250849 441.305648,96.3054849 441.323665,96.3598314 L441.488134,96.8413365 L441.600414,97.1542551 L441.714881,97.4611256 L441.831602,97.7623073 L441.950645,98.0581599 L442.133711,98.4927334 L442.3933,99.0771951 L442.517932,99.34714 L442.638439,99.5981657 L442.756031,99.8309527 C442.775454,99.8682684 442.794807,99.9048525 442.814113,99.9407192 L442.929605,100.147424 L443.045211,100.33759 C443.509474,101.066087 444.005525,101.414002 444.882147,101.577272 L445.109433,101.614356 L445.353787,101.644427 L445.61642,101.668165 C445.661783,101.671632 445.707958,101.674863 445.75497,101.677872 L446.047293,101.693387 L446.360922,101.70427 L446.873966,101.713397 L447.441763,101.715929 C450.87475,101.715929 453.055226,101.271125 454.310117,100.653678 C454.854376,100.385885 455.166152,100.1019 455.592504,99.4472523 L455.712603,99.258122 L455.83087,99.0621803 L455.947409,98.8589978 L456.062324,98.648145 L456.175722,98.4291925 L456.287706,98.2017108 L456.398381,97.9652704 L456.507851,97.7194419 L456.616222,97.4637957 L456.723597,97.1979025 L456.830083,96.9213326 L456.935782,96.6336567 L457.093088,96.1803796 L457.197281,95.8630597 L457.352818,95.3633034 L457.456159,95.0136552 L457.559342,94.6503241 L457.662473,94.2728807 L457.765655,93.8808955 L457.868993,93.473939 L458.024523,92.8344936 L458.12871,92.3882299 L458.286003,91.6878106 L458.444826,90.9488744 L458.605531,90.1699717 L458.768471,89.3496531 L458.989814,88.188965 L459.159345,87.2663724 L459.390757,85.9640581 L459.629074,84.5760902 L459.937956,82.715446 L460.46019,79.5183403 L460.701914,78.0713168 L460.985824,76.4156138 L461.254962,74.9042999 L461.411806,74.0553653 L461.61816,72.9786146 L461.824115,71.9519847 L461.927885,71.4530601 L462.192649,70.2335876 L462.357054,69.5121838 L462.527176,68.7912214 L462.765098,67.8203465 L462.95351,67.0772879 C464.608894,60.6353543 466.806194,55.0668511 470.025152,50.0017991 C478.377028,36.8600663 492.06974,29.8846723 510.012471,29.7464786 L510.55749,29.7443844 L511.874261,29.7443844 L513.179392,29.9190721 C531.209524,32.33235 543.966842,41.7755202 550.639086,56.7127668 C553.112876,62.250877 554.644401,68.2119704 555.631567,75.0724842 C555.717947,75.6728021 555.798205,76.2562303 555.873595,76.8345002 L555.996991,77.8122193 L556.138667,79.0262233 L556.218891,79.7666864 L556.321428,80.7788001 L556.468413,82.3751522 L556.611156,84.102209 L556.706151,85.3466865 L556.85168,87.3838012 L557.258086,93.5418831 L557.397577,95.5065835 L557.482524,96.6241633 L557.626805,98.3884986 L557.745171,99.7146307 L557.80549,100.350208 L557.89755,101.270193 L557.991675,102.151163 L558.088058,102.994294 L558.186889,103.800759 L558.322804,104.82104 L558.392664,105.30839 L558.499989,106.011905 L558.573313,106.463083 L558.686101,107.113971 L558.763244,107.531152 L558.842013,107.935342 L558.922466,108.326891 L559.046426,108.891271 L559.131336,109.252737 L559.218128,109.602779 L559.351967,110.107183 L559.443711,110.430188 L559.537536,110.742986 L559.633497,111.045926 L559.78157,111.482613 L559.934769,111.899076 L560.039845,112.166063 L560.147341,112.424932 L560.257314,112.67603 L560.36982,112.919707 L560.484917,113.156308 L560.602661,113.386184 L560.723109,113.609681 C560.743412,113.646418 560.76383,113.682904 560.784365,113.719146 C561.371583,114.755558 561.931456,115.302059 562.935611,115.808597 C564.431516,116.563195 566.693128,117.132482 569.871392,117.365293 L570.498027,117.406111 C571.242549,117.448735 572.034307,117.473706 572.875038,117.479283 L573.238355,117.48048 L593,117.48048 L593,157 L573.238355,157 C551.323737,157 535.302369,148.918144 526.396267,133.199313 C522.937538,127.094826 520.830705,120.370626 519.527697,112.601963 C519.414191,111.925229 519.30881,111.263251 519.210147,110.604771 L519.087753,109.765323 L518.936946,108.65944 L518.830483,107.821342 L518.762327,107.255709 L518.631948,106.101243 L518.569357,105.50946 L518.478202,104.599451 L518.360791,103.33667 L518.246748,102.006578 L518.1346,100.597375 L517.994834,98.7066483 L517.88156,97.0763083 L517.563603,92.2281902 L517.43003,90.3058249 L517.296166,88.5135431 L517.188171,87.1690196 L517.078801,85.9002785 L516.967529,84.7039993 L516.882507,83.8523456 L516.766633,82.7748851 L516.647403,81.7607553 L516.52429,80.8066358 L516.429088,80.1284304 L516.331182,79.4807123 L516.230349,78.8620806 L516.126365,78.2711346 L516.019008,77.7064733 L515.945453,77.3439434 L515.83198,76.8199772 L515.754141,76.4832803 L515.674473,76.1561903 L515.592909,75.838292 L515.466866,75.3777714 L515.380275,75.0810368 L515.246382,74.650316 L515.154352,74.372151 L515.060031,74.1006874 L514.963353,73.8355103 L514.864251,73.5762045 L514.762659,73.322355 L514.60546,72.9509034 L514.551744,72.8293648 C514.509122,72.7339454 514.466514,72.6411176 514.423692,72.5507878 L514.294352,72.287199 C513.446473,70.621368 512.429728,69.8698582 509.542785,69.3392956 L509.255742,69.2889154 L509.118102,69.2943933 C506.873222,69.3941046 505.386924,69.7287036 504.480541,70.1542827 L504.374547,70.2057796 C503.976143,70.4061343 503.754782,70.6125236 503.383039,71.1974636 L503.215215,71.4714053 L503.105404,71.6620127 L502.997132,71.8594973 L502.890298,72.0642823 L502.784798,72.2767909 L502.62883,72.6109609 L502.526223,72.8446296 L502.424595,73.0875027 L502.323844,73.3400035 L502.223868,73.6025552 L502.124565,73.8755807 L501.976651,74.3056832 L501.878586,74.6067448 L501.780838,74.9197613 L501.683305,75.2451559 L501.537186,75.7573822 L501.390977,76.2998392 L501.244337,76.8739551 L501.146166,77.2749926 L500.948383,78.1228758 L500.798382,78.8005368 L500.595511,79.7624646 L500.388611,80.7942151 L500.123082,82.1872486 L499.848395,83.7012809 L499.56296,85.3429236 L499.204009,87.4906494 L498.666914,90.7778188 L498.455466,92.0441973 L498.148149,93.8370234 L498.000369,94.6740349 L497.855434,95.4763061 L497.712537,96.2474825 L497.500251,97.353919 L497.358925,98.0633077 L497.145218,99.094151 L497.000427,99.7645365 L496.852839,100.4257 L496.701649,101.081288 L496.546051,101.734946 L496.385239,102.390318 L496.218407,103.051051 L496.04475,103.72079 C494.333001,110.240585 492.048425,115.890486 488.71228,121.013018 C480.062292,134.294762 465.956124,141.235449 447.441763,141.235449 C427.71699,141.235449 413.438686,131.393501 406.025828,114.56526 C403.406608,108.619258 401.693141,102.057194 400.462238,94.3095424 C400.332821,93.494954 400.212383,92.702479 400.098227,91.9106803 L399.917645,90.6198667 L399.74833,89.3314838 L399.584785,88.0049045 L399.456452,86.9030273 L399.297105,85.4585228 L399.201122,84.5485097 L399.005842,82.6113665 L398.767661,80.1161217 L398.35529,75.5595402 L398.030227,71.8972924 L397.857173,70.0255133 L397.68354,68.2339804 L397.552615,66.9415365 L397.376685,65.2846113 L397.198707,63.7012771 L397.06356,62.5606149 L396.926735,61.4589654 L396.834476,60.745702 L396.694355,59.706805 L396.551955,58.7041981 L396.455646,58.0554506 L396.358157,57.4220759 L396.259421,56.8037713 L396.159373,56.2002344 L396.057945,55.6111627 L395.955071,55.0362537 L395.797901,54.1997836 L395.691118,53.6589578 L395.527773,52.8721945 L395.360422,52.1138941 L395.246518,51.623669 L395.130667,51.1453378 L394.953093,50.4494803 L394.832081,49.9995603 L394.708889,49.5604755 L394.583449,49.1319233 L394.455694,48.7136012 L394.325559,48.3052067 L394.192975,47.9064373 L394.057877,47.5169905 L393.920197,47.1365637 C393.897032,47.0738942 393.873756,47.0115878 393.850368,46.9496384 L393.708691,46.5821746 L393.564265,46.2229746 L393.417024,45.8717359 L393.266901,45.528156 L393.11383,45.1919325 L392.957743,44.8627627 L392.798574,44.5403442 L392.61548,44.1852952 L392.431124,43.8456594 C392.338492,43.6796511 392.245073,43.5193243 392.150399,43.3645312 L391.959237,43.0622795 C390.639626,41.0467127 389.027037,40.0463207 385.923061,39.6838979 L385.458035,39.6353708 L384.970881,39.5956895 C384.638551,39.5721255 384.290913,39.5542835 383.926854,39.5418132 L383.687611,39.5346689 L383.541401,39.5569655 C379.519571,40.1979136 377.850947,41.6315975 376.251957,45.398445 L376.071114,45.8349305 L375.911406,46.2371861 L375.77526,46.5926838 L375.64227,46.9521856 L375.512364,47.3161225 L375.323125,47.8712875 L375.200605,48.2481994 L375.022102,48.8248482 L374.906511,49.2174304 L374.738057,49.8196061 L374.575301,50.4390387 L374.417998,51.0771836 L374.265898,51.7354963 L374.118755,52.4154324 L374.023291,52.8814548 L373.929846,53.3581657 L373.838347,53.8459964 L373.704588,54.5995353 L373.617633,55.1170522 L373.490346,55.917142 L373.366613,56.7471029 L373.246185,57.6083904 L373.128816,58.5024601 L373.014257,59.4307674 L372.902262,60.3947679 L372.756494,61.7381401 L372.68497,62.4356702 L372.544277,63.8845744 L372.440528,65.0200642 L372.304086,66.6019 L372.135746,68.6930903 L372.035482,70.0111363 L371.868815,72.3181046 L371.768674,73.7707924 L371.276203,81.3120289 L371.093119,83.9604098 L370.946773,85.9537698 L370.836163,87.3825188 L370.724166,88.7593546 L370.610189,90.0886785 L370.493642,91.3748921 L370.37393,92.6223968 L370.250463,93.8355939 L370.122648,95.018885 L369.989892,96.1766715 L369.851605,97.3133548 L369.707192,98.4333364 L369.556063,99.5410177 C369.538876,99.663573 369.521553,99.7859821 369.504091,99.9082721 L369.397625,100.6408 C369.271399,101.494256 369.138004,102.344538 368.996185,103.200965 C367.434803,112.629973 365.040847,120.716868 361.28619,127.944841 C351.583041,146.624069 333.956361,156.795387 309.504693,156.996945 L308.761645,157 L289,157 L289,117.48048 L308.761645,117.48048 C314.703129,117.48048 318.763833,116.539506 321.449615,115.00974 C323.404242,113.896425 324.879926,112.293017 326.21203,109.728625 L326.398013,109.363496 L326.57998,108.99177 C326.609977,108.929248 326.63981,108.866438 326.66948,108.803333 L326.845555,108.421107 L327.017787,108.031479 C327.046176,107.965906 327.074407,107.900011 327.102483,107.833787 L327.269082,107.432449 L327.43201,107.022901 C327.458863,106.95394 327.485566,106.884625 327.51212,106.814947 L327.669674,106.392478 C327.695639,106.321324 327.721459,106.249795 327.747135,106.177883 L327.89947,105.741768 C327.924574,105.6683 327.949537,105.594435 327.97436,105.520168 L328.121631,105.069682 L328.265612,104.60921 L328.475568,103.899075 L328.611628,103.412229 C328.634048,103.330171 328.656342,103.24765 328.678511,103.164659 L328.810025,102.66102 L328.938596,102.145784 L329.064292,101.618626 L329.187182,101.079224 L329.307336,100.527256 L329.424822,99.9623983 L329.53971,99.3843288 L329.652069,98.7927246 L329.761968,98.187263 L329.869476,97.5676212 L330.026406,96.610865 L330.128238,95.9543611 L330.227922,95.2825476 L330.325526,94.5951018 L330.421119,93.891701 L330.51477,93.1720224 L330.606548,92.4357434 L330.740856,91.2994931 L330.871339,90.1240765 L330.956318,89.3181686 L331.080946,88.0750546 L331.20237,86.7898699 L331.320826,85.4615254 L331.436545,84.088932 L331.512286,83.1487491 L331.660708,81.2066416 L331.80551,79.1800605 L332.449462,69.3629114 L332.639298,66.6511694 L332.822407,64.2149609 L332.952144,62.6128305 L333.083286,61.1028437 L333.190566,59.9476357 L333.357847,58.2785756 L333.475115,57.1933014 L333.629977,55.8494072 L333.795918,54.5007868 L333.938002,53.4049258 C335.041578,45.0706186 336.673609,37.9746348 339.233917,31.5100252 C346.211191,13.8928704 359.853684,2.62446006 379.718235,0.194994205 L380.322095,0.124082117 L381.42419,0 L382.533249,0 Z" id="Path"></path>
        </g>
    </g>
</svg>