<?xml version="1.0" encoding="UTF-8"?>
<svg width="1080px" height="1620px" viewBox="0 0 1080 1620" version="1.1" xmlns="http://www.w3.org/2000/svg" xmlns:xlink="http://www.w3.org/1999/xlink">
    <title>angle-type</title>
    <defs>
        <linearGradient x1="50%" y1="100%" x2="50%" y2="0%" id="linearGradient-1">
            <stop stop-color="#7C39FF" offset="0%"></stop>
            <stop stop-color="#04B9FF" offset="49.7267007%"></stop>
            <stop stop-color="#00EBBF" offset="100%"></stop>
        </linearGradient>
    </defs>
    <g id="angle-type" stroke="none" stroke-width="1" fill="none" fill-rule="evenodd">
        <rect fill="#1D1D21" x="0" y="0" width="1080" height="1620"></rect>
        <g id="Group-2" transform="translate(524.000000, 776.000000)" fill="#FFFFFF" fill-rule="nonzero">
            <g id="WebMob">
                <polygon id="Path" points="74.222 2.812 60.68 54.76 45.362 54.76 37.074 20.572 28.49 54.76 13.172 54.76 0 2.812 13.542 2.812 21.016 40.626 30.266 2.812 44.178 2.812 53.058 40.626 60.606 2.812"></polygon>
                <path d="M119.51,33.448 C119.51,34.632 119.436,35.8653333 119.288,37.148 L90.65,37.148 C90.8473333,39.7133333 91.6736667,41.6743333 93.129,43.031 C94.5843333,44.3876667 96.3726667,45.066 98.494,45.066 C101.651333,45.066 103.846667,43.734 105.08,41.07 L118.548,41.07 C117.857333,43.7833333 116.611667,46.2253333 114.811,48.396 C113.010333,50.5666667 110.753333,52.2686667 108.04,53.502 C105.326667,54.7353333 102.292667,55.352 98.938,55.352 C94.8926667,55.352 91.2913333,54.4886667 88.134,52.762 C84.9766667,51.0353333 82.51,48.5686667 80.734,45.362 C78.958,42.1553333 78.07,38.406 78.07,34.114 C78.07,29.822 78.9456667,26.0726667 80.697,22.866 C82.4483333,19.6593333 84.9026667,17.1926667 88.06,15.466 C91.2173333,13.7393333 94.8433333,12.876 98.938,12.876 C102.934,12.876 106.486,13.7146667 109.594,15.392 C112.702,17.0693333 115.131667,19.462 116.883,22.57 C118.634333,25.678 119.51,29.304 119.51,33.448 Z M106.56,30.118 C106.56,27.9473333 105.82,26.2206667 104.34,24.938 C102.86,23.6553333 101.01,23.014 98.79,23.014 C96.6686667,23.014 94.8803333,23.6306667 93.425,24.864 C91.9696667,26.0973333 91.0693333,27.8486667 90.724,30.118 L106.56,30.118 Z" id="Shape"></path>
                <path d="M138.824,19.314 C140.008,17.39 141.71,15.836 143.93,14.652 C146.15,13.468 148.690667,12.876 151.552,12.876 C154.956,12.876 158.039333,13.7393333 160.802,15.466 C163.564667,17.1926667 165.747667,19.6593333 167.351,22.866 C168.954333,26.0726667 169.756,29.7973333 169.756,34.04 C169.756,38.2826667 168.954333,42.0196667 167.351,45.251 C165.747667,48.4823333 163.564667,50.9736667 160.802,52.725 C158.039333,54.4763333 154.956,55.352 151.552,55.352 C148.641333,55.352 146.100667,54.7723333 143.93,53.613 C141.759333,52.4536667 140.057333,50.912 138.824,48.988 L138.824,54.76 L126.17,54.76 L126.17,0 L138.824,0 L138.824,19.314 Z M156.88,34.04 C156.88,30.8826667 156.004333,28.4036667 154.253,26.603 C152.501667,24.8023333 150.343333,23.902 147.778,23.902 C145.262,23.902 143.128333,24.8146667 141.377,26.64 C139.625667,28.4653333 138.75,30.9566667 138.75,34.114 C138.75,37.2713333 139.625667,39.7626667 141.377,41.588 C143.128333,43.4133333 145.262,44.326 147.778,44.326 C150.294,44.326 152.44,43.401 154.216,41.551 C155.992,39.701 156.88,37.1973333 156.88,34.04 Z" id="Shape"></path>
                <polygon id="Path" points="235.246 2.812 235.246 54.76 222.592 54.76 222.592 23.606 210.974 54.76 200.762 54.76 189.07 23.532 189.07 54.76 176.416 54.76 176.416 2.812 191.364 2.812 205.942 38.776 220.372 2.812"></polygon>
                <path d="M263.144,55.352 C259.098667,55.352 255.460333,54.4886667 252.229,52.762 C248.997667,51.0353333 246.457,48.5686667 244.607,45.362 C242.757,42.1553333 241.832,38.406 241.832,34.114 C241.832,29.8713333 242.769333,26.1343333 244.644,22.903 C246.518667,19.6716667 249.084,17.1926667 252.34,15.466 C255.596,13.7393333 259.246667,12.876 263.292,12.876 C267.337333,12.876 270.988,13.7393333 274.244,15.466 C277.5,17.1926667 280.065333,19.6716667 281.94,22.903 C283.814667,26.1343333 284.752,29.8713333 284.752,34.114 C284.752,38.3566667 283.802333,42.0936667 281.903,45.325 C280.003667,48.5563333 277.413667,51.0353333 274.133,52.762 C270.852333,54.4886667 267.189333,55.352 263.144,55.352 Z M263.144,44.4 C265.561333,44.4 267.621,43.512 269.323,41.736 C271.025,39.96 271.876,37.4193333 271.876,34.114 C271.876,30.8086667 271.049667,28.268 269.397,26.492 C267.744333,24.716 265.709333,23.828 263.292,23.828 C260.825333,23.828 258.778,24.7036667 257.15,26.455 C255.522,28.2063333 254.708,30.7593333 254.708,34.114 C254.708,37.4193333 255.509667,39.96 257.113,41.736 C258.716333,43.512 260.726667,44.4 263.144,44.4 Z" id="Shape"></path>
                <path d="M304.14,19.314 C305.324,17.39 307.026,15.836 309.246,14.652 C311.466,13.468 314.006667,12.876 316.868,12.876 C320.272,12.876 323.355333,13.7393333 326.118,15.466 C328.880667,17.1926667 331.063667,19.6593333 332.667,22.866 C334.270333,26.0726667 335.072,29.7973333 335.072,34.04 C335.072,38.2826667 334.270333,42.0196667 332.667,45.251 C331.063667,48.4823333 328.880667,50.9736667 326.118,52.725 C323.355333,54.4763333 320.272,55.352 316.868,55.352 C313.957333,55.352 311.416667,54.7723333 309.246,53.613 C307.075333,52.4536667 305.373333,50.912 304.14,48.988 L304.14,54.76 L291.486,54.76 L291.486,0 L304.14,0 L304.14,19.314 Z M322.196,34.04 C322.196,30.8826667 321.320333,28.4036667 319.569,26.603 C317.817667,24.8023333 315.659333,23.902 313.094,23.902 C310.578,23.902 308.444333,24.8146667 306.693,26.64 C304.941667,28.4653333 304.066,30.9566667 304.066,34.114 C304.066,37.2713333 304.941667,39.7626667 306.693,41.588 C308.444333,43.4133333 310.578,44.326 313.094,44.326 C315.61,44.326 317.756,43.401 319.532,41.551 C321.308,39.701 322.196,37.1973333 322.196,34.04 Z" id="Shape"></path>
            </g>
        </g>
        <g id="Group" transform="translate(229.000000, 1323.000000)" fill="#FFFFFF" fill-rule="nonzero">
            <g id="Web">
                <polygon id="Path" points="74.222 2.812 60.68 54.76 45.362 54.76 37.074 20.572 28.49 54.76 13.172 54.76 0 2.812 13.542 2.812 21.016 40.626 30.266 2.812 44.178 2.812 53.058 40.626 60.606 2.812"></polygon>
                <path d="M119.51,33.448 C119.51,34.632 119.436,35.8653333 119.288,37.148 L90.65,37.148 C90.8473333,39.7133333 91.6736667,41.6743333 93.129,43.031 C94.5843333,44.3876667 96.3726667,45.066 98.494,45.066 C101.651333,45.066 103.846667,43.734 105.08,41.07 L118.548,41.07 C117.857333,43.7833333 116.611667,46.2253333 114.811,48.396 C113.010333,50.5666667 110.753333,52.2686667 108.04,53.502 C105.326667,54.7353333 102.292667,55.352 98.938,55.352 C94.8926667,55.352 91.2913333,54.4886667 88.134,52.762 C84.9766667,51.0353333 82.51,48.5686667 80.734,45.362 C78.958,42.1553333 78.07,38.406 78.07,34.114 C78.07,29.822 78.9456667,26.0726667 80.697,22.866 C82.4483333,19.6593333 84.9026667,17.1926667 88.06,15.466 C91.2173333,13.7393333 94.8433333,12.876 98.938,12.876 C102.934,12.876 106.486,13.7146667 109.594,15.392 C112.702,17.0693333 115.131667,19.462 116.883,22.57 C118.634333,25.678 119.51,29.304 119.51,33.448 Z M106.56,30.118 C106.56,27.9473333 105.82,26.2206667 104.34,24.938 C102.86,23.6553333 101.01,23.014 98.79,23.014 C96.6686667,23.014 94.8803333,23.6306667 93.425,24.864 C91.9696667,26.0973333 91.0693333,27.8486667 90.724,30.118 L106.56,30.118 Z" id="Shape"></path>
                <path d="M138.824,19.314 C140.008,17.39 141.71,15.836 143.93,14.652 C146.15,13.468 148.690667,12.876 151.552,12.876 C154.956,12.876 158.039333,13.7393333 160.802,15.466 C163.564667,17.1926667 165.747667,19.6593333 167.351,22.866 C168.954333,26.0726667 169.756,29.7973333 169.756,34.04 C169.756,38.2826667 168.954333,42.0196667 167.351,45.251 C165.747667,48.4823333 163.564667,50.9736667 160.802,52.725 C158.039333,54.4763333 154.956,55.352 151.552,55.352 C148.641333,55.352 146.100667,54.7723333 143.93,53.613 C141.759333,52.4536667 140.057333,50.912 138.824,48.988 L138.824,54.76 L126.17,54.76 L126.17,0 L138.824,0 L138.824,19.314 Z M156.88,34.04 C156.88,30.8826667 156.004333,28.4036667 154.253,26.603 C152.501667,24.8023333 150.343333,23.902 147.778,23.902 C145.262,23.902 143.128333,24.8146667 141.377,26.64 C139.625667,28.4653333 138.75,30.9566667 138.75,34.114 C138.75,37.2713333 139.625667,39.7626667 141.377,41.588 C143.128333,43.4133333 145.262,44.326 147.778,44.326 C150.294,44.326 152.44,43.401 154.216,41.551 C155.992,39.701 156.88,37.1973333 156.88,34.04 Z" id="Shape"></path>
            </g>
            <g id="Mob" transform="translate(478.919000, 0.000000)">
                <polygon id="Path" points="58.83 2.812 58.83 54.76 46.176 54.76 46.176 23.606 34.558 54.76 24.346 54.76 12.654 23.532 12.654 54.76 0 54.76 0 2.812 14.948 2.812 29.526 38.776 43.956 2.812"></polygon>
                <path d="M86.728,55.352 C82.6826667,55.352 79.0443333,54.4886667 75.813,52.762 C72.5816667,51.0353333 70.041,48.5686667 68.191,45.362 C66.341,42.1553333 65.416,38.406 65.416,34.114 C65.416,29.8713333 66.3533333,26.1343333 68.228,22.903 C70.1026667,19.6716667 72.668,17.1926667 75.924,15.466 C79.18,13.7393333 82.8306667,12.876 86.876,12.876 C90.9213333,12.876 94.572,13.7393333 97.828,15.466 C101.084,17.1926667 103.649333,19.6716667 105.524,22.903 C107.398667,26.1343333 108.336,29.8713333 108.336,34.114 C108.336,38.3566667 107.386333,42.0936667 105.487,45.325 C103.587667,48.5563333 100.997667,51.0353333 97.717,52.762 C94.4363333,54.4886667 90.7733333,55.352 86.728,55.352 Z M86.728,44.4 C89.1453333,44.4 91.205,43.512 92.907,41.736 C94.609,39.96 95.46,37.4193333 95.46,34.114 C95.46,30.8086667 94.6336667,28.268 92.981,26.492 C91.3283333,24.716 89.2933333,23.828 86.876,23.828 C84.4093333,23.828 82.362,24.7036667 80.734,26.455 C79.106,28.2063333 78.292,30.7593333 78.292,34.114 C78.292,37.4193333 79.0936667,39.96 80.697,41.736 C82.3003333,43.512 84.3106667,44.4 86.728,44.4 Z" id="Shape"></path>
                <path d="M127.724,19.314 C128.908,17.39 130.61,15.836 132.83,14.652 C135.05,13.468 137.590667,12.876 140.452,12.876 C143.856,12.876 146.939333,13.7393333 149.702,15.466 C152.464667,17.1926667 154.647667,19.6593333 156.251,22.866 C157.854333,26.0726667 158.656,29.7973333 158.656,34.04 C158.656,38.2826667 157.854333,42.0196667 156.251,45.251 C154.647667,48.4823333 152.464667,50.9736667 149.702,52.725 C146.939333,54.4763333 143.856,55.352 140.452,55.352 C137.541333,55.352 135.000667,54.7723333 132.83,53.613 C130.659333,52.4536667 128.957333,50.912 127.724,48.988 L127.724,54.76 L115.07,54.76 L115.07,0 L127.724,0 L127.724,19.314 Z M145.78,34.04 C145.78,30.8826667 144.904333,28.4036667 143.153,26.603 C141.401667,24.8023333 139.243333,23.902 136.678,23.902 C134.162,23.902 132.028333,24.8146667 130.277,26.64 C128.525667,28.4653333 127.65,30.9566667 127.65,34.114 C127.65,37.2713333 128.525667,39.7626667 130.277,41.588 C132.028333,43.4133333 134.162,44.326 136.678,44.326 C139.194,44.326 141.34,43.401 143.116,41.551 C144.892,39.701 145.78,37.1973333 145.78,34.04 Z" id="Shape"></path>
            </g>
        </g>
        <g id="WebMob" transform="translate(417.663000, 361.040000)" fill="#FFFFFF" fill-rule="nonzero">
            <polygon id="Path" points="54.162 2.052 44.28 39.96 33.102 39.96 27.054 15.012 20.79 39.96 9.612 39.96 0 2.052 9.882 2.052 15.336 29.646 22.086 2.052 32.238 2.052 38.718 29.646 44.226 2.052"></polygon>
            <path d="M87.21,24.408 C87.21,25.272 87.156,26.172 87.048,27.108 L66.15,27.108 C66.294,28.98 66.897,30.411 67.959,31.401 C69.021,32.391 70.326,32.886 71.874,32.886 C74.178,32.886 75.78,31.914 76.68,29.97 L86.508,29.97 C86.004,31.95 85.095,33.732 83.781,35.316 C82.467,36.9 80.82,38.142 78.84,39.042 C76.86,39.942 74.646,40.392 72.198,40.392 C69.246,40.392 66.618,39.762 64.314,38.502 C62.01,37.242 60.21,35.442 58.914,33.102 C57.618,30.762 56.97,28.026 56.97,24.894 C56.97,21.762 57.609,19.026 58.887,16.686 C60.165,14.346 61.956,12.546 64.26,11.286 C66.564,10.026 69.21,9.396 72.198,9.396 C75.114,9.396 77.706,10.008 79.974,11.232 C82.242,12.456 84.015,14.202 85.293,16.47 C86.571,18.738 87.21,21.384 87.21,24.408 Z M77.76,21.978 C77.76,20.394 77.22,19.134 76.14,18.198 C75.06,17.262 73.71,16.794 72.09,16.794 C70.542,16.794 69.237,17.244 68.175,18.144 C67.113,19.044 66.456,20.322 66.204,21.978 L77.76,21.978 Z" id="Shape"></path>
            <path d="M101.304,14.094 C102.168,12.69 103.41,11.556 105.03,10.692 C106.65,9.828 108.504,9.396 110.592,9.396 C113.076,9.396 115.326,10.026 117.342,11.286 C119.358,12.546 120.951,14.346 122.121,16.686 C123.291,19.026 123.876,21.744 123.876,24.84 C123.876,27.936 123.291,30.663 122.121,33.021 C120.951,35.379 119.358,37.197 117.342,38.475 C115.326,39.753 113.076,40.392 110.592,40.392 C108.468,40.392 106.614,39.969 105.03,39.123 C103.446,38.277 102.204,37.152 101.304,35.748 L101.304,39.96 L92.07,39.96 L92.07,5.68434189e-14 L101.304,5.68434189e-14 L101.304,14.094 Z M114.48,24.84 C114.48,22.536 113.841,20.727 112.563,19.413 C111.285,18.099 109.71,17.442 107.838,17.442 C106.002,17.442 104.445,18.108 103.167,19.44 C101.889,20.772 101.25,22.59 101.25,24.894 C101.25,27.198 101.889,29.016 103.167,30.348 C104.445,31.68 106.002,32.346 107.838,32.346 C109.674,32.346 111.24,31.671 112.536,30.321 C113.832,28.971 114.48,27.144 114.48,24.84 Z" id="Shape"></path>
            <polygon id="Path" points="171.666 2.052 171.666 39.96 162.432 39.96 162.432 17.226 153.954 39.96 146.502 39.96 137.97 17.172 137.97 39.96 128.736 39.96 128.736 2.052 139.644 2.052 150.282 28.296 160.812 2.052"></polygon>
            <path d="M192.024,40.392 C189.072,40.392 186.417,39.762 184.059,38.502 C181.701,37.242 179.847,35.442 178.497,33.102 C177.147,30.762 176.472,28.026 176.472,24.894 C176.472,21.798 177.156,19.071 178.524,16.713 C179.892,14.355 181.764,12.546 184.14,11.286 C186.516,10.026 189.18,9.396 192.132,9.396 C195.084,9.396 197.748,10.026 200.124,11.286 C202.5,12.546 204.372,14.355 205.74,16.713 C207.108,19.071 207.792,21.798 207.792,24.894 C207.792,27.99 207.099,30.717 205.713,33.075 C204.327,35.433 202.437,37.242 200.043,38.502 C197.649,39.762 194.976,40.392 192.024,40.392 Z M192.024,32.4 C193.788,32.4 195.291,31.752 196.533,30.456 C197.775,29.16 198.396,27.306 198.396,24.894 C198.396,22.482 197.793,20.628 196.587,19.332 C195.381,18.036 193.896,17.388 192.132,17.388 C190.332,17.388 188.838,18.027 187.65,19.305 C186.462,20.583 185.868,22.446 185.868,24.894 C185.868,27.306 186.453,29.16 187.623,30.456 C188.793,31.752 190.26,32.4 192.024,32.4 Z" id="Shape"></path>
            <path d="M221.94,14.094 C222.804,12.69 224.046,11.556 225.666,10.692 C227.286,9.828 229.14,9.396 231.228,9.396 C233.712,9.396 235.962,10.026 237.978,11.286 C239.994,12.546 241.587,14.346 242.757,16.686 C243.927,19.026 244.512,21.744 244.512,24.84 C244.512,27.936 243.927,30.663 242.757,33.021 C241.587,35.379 239.994,37.197 237.978,38.475 C235.962,39.753 233.712,40.392 231.228,40.392 C229.104,40.392 227.25,39.969 225.666,39.123 C224.082,38.277 222.84,37.152 221.94,35.748 L221.94,39.96 L212.706,39.96 L212.706,5.68434189e-14 L221.94,5.68434189e-14 L221.94,14.094 Z M235.116,24.84 C235.116,22.536 234.477,20.727 233.199,19.413 C231.921,18.099 230.346,17.442 228.474,17.442 C226.638,17.442 225.081,18.108 223.803,19.44 C222.525,20.772 221.886,22.59 221.886,24.894 C221.886,27.198 222.525,29.016 223.803,30.348 C225.081,31.68 226.638,32.346 228.474,32.346 C230.31,32.346 231.876,31.671 233.172,30.321 C234.468,28.971 235.116,27.144 235.116,24.84 Z" id="Shape"></path>
        </g>
        <rect id="Rectangle" fill="#CFCED7" opacity="0.243344262" x="0" y="1080" width="1080" height="1"></rect>
        <rect id="Rectangle" fill="#CFCED7" opacity="0.243344262" x="0" y="540" width="1080" height="1"></rect>
        <path d="M480.210651,264.000062 L480.266202,264.000558 C480.309159,264.000972 480.352123,264.001616 480.395091,264.00249 C480.468342,264.003426 480.540964,264.005431 480.613545,264.008092 C480.630727,264.009581 480.648084,264.010287 480.665441,264.011031 C484.257851,264.157306 487.741689,265.908993 489.982607,269.056173 L490.096967,269.219568 L505.871055,292.150239 C509.646009,297.637861 508.267461,305.153449 502.791981,308.936775 C497.371257,312.682268 489.96732,311.365611 486.156949,306.014269 L486.042589,305.850874 L480.161,297.3 L458.505585,328.781544 C453.767057,335.669906 443.668079,335.73879 438.822341,328.988195 L438.67712,328.781544 L407.128945,282.920203 C403.353991,277.432581 404.732539,269.916993 410.208019,266.133667 C415.628743,262.388174 423.03268,263.70483 426.843051,269.056173 L426.957411,269.219568 L448.590989,300.668461 L470.225294,269.219568 C472.505987,265.904142 476.145996,264.087472 479.877835,264.00308 C479.902455,264.002992 479.927443,264.002458 479.95243,264.002002 C479.981815,264.001143 480.010817,264.000772 480.039824,264.000506 L480.210651,264.000062 L480.210651,264.000062 Z M621.656718,269.011726 C626.500904,262.261238 636.596649,262.330121 641.333661,269.218373 L641.333661,269.218373 L672.871736,315.078985 L672.983404,315.244214 C676.61751,320.716456 675.212638,328.119822 669.793648,331.865255 C664.319922,335.648521 656.823364,334.266938 653.049618,328.779402 L653.049618,328.779402 L631.422353,297.33101 L609.795585,328.779402 L609.681262,328.942796 C607.393114,332.157282 603.808689,333.915926 600.136388,333.996024 C596.264957,334.098062 592.420158,332.327516 590.011625,328.943908 L589.897302,328.780515 L574.128264,305.850209 C570.354518,300.362674 571.732625,292.847205 577.206352,289.063939 C582.625341,285.318506 590.026907,286.635141 593.836058,291.986398 L593.950382,292.149791 L599.846,300.722 L621.511543,269.218373 Z M517.242231,331.866367 C522.698565,335.6118 530.151138,334.295165 533.98654,328.943908 L534.101651,328.780515 L565.857069,282.919903 C569.656822,277.432368 568.269218,269.916899 562.757769,266.133633 C557.301435,262.3882 549.848862,263.704835 546.01346,269.056092 L545.898349,269.219485 L514.142931,315.080097 C510.343178,320.567632 511.730782,328.083101 517.242231,331.866367 Z" id="Combined-Shape" fill="url(#linearGradient-1)" fill-rule="nonzero"></path>
        <path d="M295.210651,769.000062 L295.266202,769.000558 C295.309159,769.000972 295.352123,769.001616 295.395091,769.00249 C295.468342,769.003426 295.540964,769.005431 295.613545,769.008092 C295.630727,769.009581 295.648084,769.010287 295.665441,769.011031 C299.257851,769.157306 302.741689,770.908993 304.982607,774.056173 L305.096967,774.219568 L320.871055,797.150239 C324.646009,802.637861 323.267461,810.153449 317.791981,813.936775 C312.371257,817.682268 304.96732,816.365611 301.156949,811.014269 L301.042589,810.850874 L295.161,802.3 L273.505585,833.781544 C268.767057,840.669906 258.668079,840.73879 253.822341,833.988195 L253.67712,833.781544 L222.128945,787.920203 C218.353991,782.432581 219.732539,774.916993 225.208019,771.133667 C230.628743,767.388174 238.03268,768.70483 241.843051,774.056173 L241.957411,774.219568 L263.590989,805.668461 L285.225294,774.219568 C287.505987,770.904142 291.145996,769.087472 294.877835,769.00308 C294.902455,769.002992 294.927443,769.002458 294.95243,769.002002 C294.981815,769.001143 295.010817,769.000772 295.039824,769.000506 L295.210651,769.000062 L295.210651,769.000062 Z M436.656718,774.011726 C441.500904,767.261238 451.596649,767.330121 456.333661,774.218373 L456.333661,774.218373 L487.871736,820.078985 L487.983404,820.244214 C491.61751,825.716456 490.212638,833.119822 484.793648,836.865255 C479.319922,840.648521 471.823364,839.266938 468.049618,833.779402 L468.049618,833.779402 L446.422353,802.33101 L424.795585,833.779402 L424.681262,833.942796 C422.393114,837.157282 418.808689,838.915926 415.136388,838.996024 C411.264957,839.098062 407.420158,837.327516 405.011625,833.943908 L404.897302,833.780515 L389.128264,810.850209 C385.354518,805.362674 386.732625,797.847205 392.206352,794.063939 C397.625341,790.318506 405.026907,791.635141 408.836058,796.986398 L408.950382,797.149791 L414.846,805.722 L436.511543,774.218373 Z M332.242231,836.866367 C337.698565,840.6118 345.151138,839.295165 348.98654,833.943908 L349.101651,833.780515 L380.857069,787.919903 C384.656822,782.432368 383.269218,774.916899 377.757769,771.133633 C372.301435,767.3882 364.848862,768.704835 361.01346,774.056092 L360.898349,774.219485 L329.142931,820.080097 C325.343178,825.567632 326.730782,833.083101 332.242231,836.866367 Z" id="Combined-Shape" fill="url(#linearGradient-1)" fill-rule="nonzero"></path>
        <path d="M493.210651,1316.00006 L493.266202,1316.00056 C493.309159,1316.00097 493.352123,1316.00162 493.395091,1316.00249 C493.468342,1316.00343 493.540964,1316.00543 493.613545,1316.00809 C493.630727,1316.00958 493.648084,1316.01029 493.665441,1316.01103 C497.257851,1316.15731 500.741689,1317.90899 502.982607,1321.05617 L503.096967,1321.21957 L518.871055,1344.15024 C522.646009,1349.63786 521.267461,1357.15345 515.791981,1360.93678 C510.371257,1364.68227 502.96732,1363.36561 499.156949,1358.01427 L499.042589,1357.85087 L493.161,1349.3 L471.505585,1380.78154 C466.767057,1387.66991 456.668079,1387.73879 451.822341,1380.98819 L451.67712,1380.78154 L420.128945,1334.9202 C416.353991,1329.43258 417.732539,1321.91699 423.208019,1318.13367 C428.628743,1314.38817 436.03268,1315.70483 439.843051,1321.05617 L439.957411,1321.21957 L461.590989,1352.66846 L483.225294,1321.21957 C485.505987,1317.90414 489.145996,1316.08747 492.877835,1316.00308 C492.902455,1316.00299 492.927443,1316.00246 492.95243,1316.002 C492.981815,1316.00114 493.010817,1316.00077 493.039824,1316.00051 L493.210651,1316.00006 L493.210651,1316.00006 Z M634.656718,1321.01173 C639.500904,1314.26124 649.596649,1314.33012 654.333661,1321.21837 L654.333661,1321.21837 L685.871736,1367.07899 L685.983404,1367.24421 C689.61751,1372.71646 688.212638,1380.11982 682.793648,1383.86526 C677.319922,1387.64852 669.823364,1386.26694 666.049618,1380.7794 L666.049618,1380.7794 L644.422353,1349.33101 L622.795585,1380.7794 L622.681262,1380.9428 C620.393114,1384.15728 616.808689,1385.91593 613.136388,1385.99602 C609.264957,1386.09806 605.420158,1384.32752 603.011625,1380.94391 L602.897302,1380.78051 L587.128264,1357.85021 C583.354518,1352.36267 584.732625,1344.8472 590.206352,1341.06394 C595.625341,1337.31851 603.026907,1338.63514 606.836058,1343.9864 L606.950382,1344.14979 L612.846,1352.722 L634.511543,1321.21837 Z M530.242231,1383.86637 C535.698565,1387.6118 543.151138,1386.29516 546.98654,1380.94391 L547.101651,1380.78051 L578.857069,1334.9199 C582.656822,1329.43237 581.269218,1321.9169 575.757769,1318.13363 C570.301435,1314.3882 562.848862,1315.70484 559.01346,1321.05609 L558.898349,1321.21949 L527.142931,1367.0801 C523.343178,1372.56763 524.730782,1380.0831 530.242231,1383.86637 Z" id="Combined-Shape" fill="url(#linearGradient-1)" fill-rule="nonzero"></path>
    </g>
</svg>