<?xml version="1.0" encoding="UTF-8"?>
<svg width="1080px" height="1080px" viewBox="0 0 1080 1080" version="1.1" xmlns="http://www.w3.org/2000/svg" xmlns:xlink="http://www.w3.org/1999/xlink">
    <title>angle-white</title>
    <g id="angle-white" stroke="none" stroke-width="1" fill="none" fill-rule="evenodd">
        <rect fill="#1D1D21" x="0" y="0" width="1080" height="1080"></rect>
        <g id="Group" transform="translate(297.000000, 477.000000)" fill="#FFFFFF" fill-rule="nonzero">
            <path d="M153.463737,9.10111059 L153.670252,9.39522304 L182.155497,50.6704293 C188.972404,60.5481495 186.482987,74.0762087 176.595228,80.8861953 C166.806347,87.628082 153.436132,85.2581007 146.555268,75.6256849 L146.348753,75.3315724 L135.727,59.942 L96.6217362,116.606779 C88.0647825,129.005831 69.8277924,129.129821 61.0772379,116.97875 L60.814993,116.606779 L3.84450348,34.0563661 C-2.97240431,24.178646 -0.482987455,10.6505868 9.40477165,3.84060018 C19.1936532,-2.90128658 32.5638681,-0.53130518 39.4447324,9.10111059 L39.6512467,9.39522304 L78.7177086,66.0032291 L117.785483,9.39522304 C122.019141,3.26063896 128.846637,-0.0232545988 135.781754,0.000123964585 L135.817292,0.000111523978 C142.591403,0.0217693111 149.246434,3.19737189 153.463737,9.10111059 Z" id="Combined-Shape"></path>
            <path d="M389.671355,9.02110637 C398.419108,-3.1297716 416.65026,-3.00578305 425.204475,9.39307202 L425.204475,9.39307202 L482.156727,91.9421732 L482.35838,92.2395848 C488.920941,102.089621 486.383987,115.415679 476.598239,122.157459 C466.713645,128.967338 453.176172,126.480488 446.361446,116.602924 L446.361446,116.602924 L407.306385,59.9958178 L368.252222,116.602924 L368.045774,116.897032 C363.936195,122.651719 357.511095,125.814244 350.917314,125.990231 C350.886428,125.990327 350.855068,125.991241 350.823709,125.992086 C350.792316,125.99323 350.761332,125.993858 350.730345,125.994419 C343.765746,126.152342 336.858772,122.966475 332.525847,116.899034 L332.319399,116.604926 L303.843273,75.3303756 C297.028547,65.4528125 299.517167,51.9249682 309.401761,45.1150897 C319.187509,38.3733101 332.553444,40.7432538 339.432106,50.3755166 L339.638554,50.6696244 L350.285,66.101 L389.409194,9.39307202 Z" id="Combined-Shape"></path>
            <path d="M202.361126,3.84053916 C212.10458,-2.90124049 225.412747,-0.531296739 232.261679,9.100966 L232.467235,9.39507378 L289.173338,91.9441749 C295.95861,101.821738 293.480746,115.349582 283.638874,122.159461 C273.89542,128.90124 260.587253,126.531297 253.738321,116.899034 L253.532765,116.604926 L196.826662,34.0558251 C190.04139,24.1782619 192.519254,10.6504176 202.361126,3.84053916 Z" id="Path" transform="translate(243.000000, 63.000000) scale(1, -1) translate(-243.000000, -63.000000) "></path>
        </g>
    </g>
</svg>